<?xml version="1.0" encoding="UTF-8" standalone="no" ?>
<svg width="100%" height="100%" viewBox="0 0 228.261 234.780" xmlns="http://www.w3.org/2000/svg"><g>
</g><g style="stroke:rgb(0,0,0); fill:none; stroke-width:1.000mm" >
</g><g style="stroke:rgb(0,0,0); fill:none; stroke-width:0.100mm" >
<path d="M 31.890, 28.984 
	L 31.890, 28.985 
	L 203.244, 200.410 
" />
<path d="M 228.261, 200.409 
	L 228.260, 200.410 
	L 228.118, 197.788 
	L 227.693, 195.237 
	L 227.055, 192.686 
	L 226.134, 190.205 
	L 224.929, 187.867 
	L 223.512, 185.670 
	L 221.811, 183.686 
	L 219.969, 181.843 
	L 217.984, 180.142 
" />
<path d="M 217.984, 180.142 
	L 215.787, 178.725 
	L 213.449, 177.520 
	L 210.969, 176.599 
	L 208.417, 175.961 
	L 205.866, 175.536 
	L 203.244, 175.394 
	L 200.622, 175.536 
	L 198.071, 175.961 
	L 195.520, 176.599 
	L 193.110, 177.520 
" />
<path d="M 193.110, 177.520 
	L 190.772, 178.725 
	L 188.575, 180.142 
	L 186.520, 181.843 
	L 184.677, 183.686 
	L 183.047, 185.670 
	L 181.559, 187.867 
	L 180.425, 190.205 
	L 179.433, 192.686 
	L 178.795, 195.237 
	L 178.370, 197.788 
" />
<path d="M 178.370, 197.788 
	L 178.228, 200.410 
	L 178.370, 203.032 
	L 178.795, 205.583 
	L 179.433, 208.135 
	L 180.425, 210.544 
	L 181.559, 212.883 
	L 183.047, 215.079 
	L 184.677, 217.135 
	L 186.520, 218.977 
	L 188.575, 220.607 
" />
<path d="M 188.575, 220.607 
	L 190.772, 222.095 
	L 193.110, 223.229 
	L 195.520, 224.221 
	L 198.071, 224.859 
	L 200.622, 225.284 
	L 203.244, 225.426 
	L 205.866, 225.284 
	L 208.417, 224.859 
	L 210.969, 224.221 
	L 213.449, 223.229 
" />
<path d="M 213.449, 223.229 
	L 215.787, 222.095 
	L 217.984, 220.607 
	L 219.969, 218.977 
	L 221.811, 217.135 
	L 223.512, 215.079 
	L 224.929, 212.883 
	L 226.134, 210.544 
	L 227.055, 208.135 
	L 227.693, 205.583 
	L 228.118, 203.032 
" />
<path d="M 228.118, 203.032 
	L 228.260, 200.410 
" />
<path d="M 92.268, 64.346 
	L 92.268, 64.347 
	L 92.126, 61.796 
	L 91.701, 59.174 
	L 91.063, 56.623 
	L 90.071, 54.213 
	L 88.937, 51.875 
	L 87.520, 49.678 
	L 85.819, 47.623 
	L 83.976, 45.780 
	L 81.992, 44.150 
	L 79.795, 42.733 
" />
<path d="M 79.795, 42.733 
	L 77.457, 41.528 
	L 74.976, 40.607 
	L 72.425, 39.898 
	L 69.874, 39.473 
	L 67.252, 39.331 
	L 64.630, 39.473 
	L 62.079, 39.898 
	L 59.528, 40.607 
	L 57.118, 41.528 
	L 54.780, 42.733 
	L 52.583, 44.150 
" />
<path d="M 52.583, 44.150 
	L 50.528, 45.780 
	L 48.685, 47.623 
	L 47.055, 49.678 
	L 45.567, 51.875 
	L 44.433, 54.213 
	L 43.441, 56.623 
	L 42.803, 59.174 
	L 42.378, 61.796 
	L 42.236, 64.347 
	L 42.378, 66.969 
	L 42.803, 69.591 
" />
<path d="M 42.803, 69.591 
	L 43.441, 72.142 
	L 44.433, 74.552 
	L 45.567, 76.890 
	L 47.055, 79.087 
	L 48.685, 81.142 
	L 50.528, 82.985 
	L 52.583, 84.615 
	L 54.780, 86.032 
	L 57.118, 87.237 
	L 59.528, 88.158 
	L 62.079, 88.867 
" />
<path d="M 62.079, 88.867 
	L 64.630, 89.292 
	L 67.252, 89.363 
	L 69.874, 89.292 
	L 72.425, 88.867 
	L 74.976, 88.158 
	L 77.457, 87.237 
	L 79.795, 86.032 
	L 81.992, 84.615 
	L 83.976, 82.985 
	L 85.819, 81.142 
	L 87.520, 79.087 
" />
<path d="M 87.520, 79.087 
	L 88.937, 76.890 
	L 90.071, 74.552 
	L 91.063, 72.142 
	L 91.701, 69.591 
	L 92.126, 66.969 
	L 92.268, 64.347 
" />
<path d="M 48.615, 47.622 
	L 48.614, 47.623 
	L 50.457, 45.709 
	L 52.157, 43.725 
	L 53.575, 41.528 
	L 54.709, 39.190 
	L 55.701, 36.709 
	L 56.339, 34.229 
	L 56.764, 31.607 
	L 56.906, 28.985 
	L 56.764, 26.363 
	L 56.339, 23.812 
" />
<path d="M 56.339, 23.812 
	L 55.701, 21.261 
	L 54.709, 18.851 
	L 53.575, 16.513 
	L 52.157, 14.316 
	L 50.457, 12.261 
	L 48.614, 10.418 
	L 46.559, 8.788 
	L 44.362, 7.371 
	L 42.094, 6.166 
	L 39.614, 5.245 
	L 37.063, 4.536 
" />
<path d="M 37.063, 4.536 
	L 34.512, 4.111 
	L 31.890, 3.969 
	L 29.268, 4.111 
	L 26.717, 4.536 
	L 24.165, 5.245 
	L 21.685, 6.166 
	L 19.417, 7.371 
	L 17.220, 8.788 
	L 15.165, 10.418 
	L 13.323, 12.261 
	L 11.622, 14.316 
	L 10.205, 16.513 
" />
<path d="M 10.205, 16.513 
	L 9.071, 18.851 
	L 8.079, 21.261 
	L 7.441, 23.812 
	L 7.016, 26.363 
	L 6.874, 28.985 
	L 7.016, 31.607 
	L 7.441, 34.229 
	L 8.079, 36.709 
	L 9.071, 39.190 
	L 10.205, 41.528 
	L 11.622, 43.725 
	L 13.323, 45.709 
" />
<path d="M 13.323, 45.709 
	L 15.165, 47.623 
	L 17.220, 49.253 
	L 19.417, 50.670 
	L 21.685, 51.875 
	L 24.165, 52.796 
	L 26.717, 53.505 
	L 29.268, 53.859 
	L 31.890, 54.001 
	L 34.512, 53.859 
	L 37.063, 53.505 
	L 39.614, 52.796 
" />
<path d="M 39.614, 52.796 
	L 42.094, 51.875 
	L 44.362, 50.670 
	L 46.559, 49.253 
	L 48.614, 47.623 
" />
<path d="M 42.237, -9.354 
	L 42.236, -9.354 
	L 42.236, 120.686 
	L 36.213, 120.686 
	L 36.213, 120.757 
	L 41.740, 120.757 
	L 41.315, 120.827 
	L 36.213, 120.827 
	L 36.213, 120.898 
	L 40.890, 120.898 
	L 40.465, 120.969 
	L 36.213, 120.969 
" />
<path d="M 36.213, 120.969 
	L 36.213, 121.040 
	L 40.039, 121.040 
	L 39.614, 121.111 
	L 36.213, 121.111 
	L 36.213, 121.182 
	L 39.189, 121.182 
	L 38.764, 121.253 
	L 36.213, 121.253 
	L 36.213, 121.324 
	L 38.339, 121.324 
	L 37.913, 121.394 
" />
<path d="M 37.913, 121.394 
	L 36.213, 121.394 
	L 36.213, 121.465 
	L 37.488, 121.465 
	L 37.063, 121.536 
	L 36.213, 121.536 
	L 36.213, 121.607 
	L 36.638, 121.607 
" />
<path d="M 36.213, 121.677 
	L 36.213, 121.678 
	L 36.213, 119.694 
	L 42.236, 120.686 
	L 36.213, 121.678 
" />
<path d="M 36.213, 120.685 
	L 36.213, 120.686 
	L 30.189, 120.686 
" />
<path d="M 36.213, 120.614 
	L 36.213, 120.615 
	L 41.740, 120.615 
" />
<path d="M 41.316, 120.543 
	L 41.315, 120.544 
	L 36.213, 120.544 
	L 36.213, 120.615 
" />
<path d="M 36.213, 120.472 
	L 36.213, 120.473 
	L 40.890, 120.473 
	L 41.315, 120.544 
" />
<path d="M 40.465, 120.402 
	L 40.465, 120.402 
	L 36.213, 120.402 
	L 36.213, 120.473 
" />
<path d="M 36.213, 120.331 
	L 36.213, 120.331 
	L 40.039, 120.331 
	L 40.465, 120.402 
" />
<path d="M 39.615, 120.260 
	L 39.614, 120.261 
	L 36.213, 120.261 
	L 36.213, 120.331 
" />
<path d="M 36.213, 120.189 
	L 36.213, 120.190 
	L 39.189, 120.190 
	L 39.614, 120.261 
" />
<path d="M 38.764, 120.118 
	L 38.764, 120.119 
	L 36.213, 120.119 
	L 36.213, 120.190 
" />
<path d="M 36.213, 120.047 
	L 36.213, 120.048 
	L 38.339, 120.048 
	L 38.764, 120.119 
" />
<path d="M 37.914, 119.976 
	L 37.913, 119.977 
	L 36.213, 119.977 
	L 36.213, 120.048 
" />
<path d="M 36.213, 119.906 
	L 36.213, 119.906 
	L 37.488, 119.906 
	L 37.913, 119.977 
" />
<path d="M 37.064, 119.835 
	L 37.063, 119.835 
	L 36.213, 119.835 
	L 36.213, 119.906 
" />
<path d="M 36.213, 119.764 
	L 36.213, 119.765 
	L 36.638, 119.765 
	L 37.063, 119.835 
" />
<path d="M 42.237, 120.898 
	L 42.236, 120.898 
	L 42.236, 123.804 
" />
<path d="M 56.906, 123.803 
	L 56.906, 123.804 
	L 56.906, 120.898 
" />
<path d="M 56.906, 120.685 
	L 56.906, 120.686 
	L 57.331, 120.757 
	L 62.929, 120.757 
	L 62.929, 120.827 
	L 57.756, 120.827 
	L 58.181, 120.898 
	L 62.929, 120.898 
	L 62.929, 120.969 
	L 58.606, 120.969 
	L 59.032, 121.040 
	L 62.929, 121.040 
" />
<path d="M 62.929, 121.040 
	L 62.929, 121.111 
	L 59.457, 121.111 
	L 59.882, 121.182 
	L 62.929, 121.182 
	L 62.929, 121.253 
	L 60.307, 121.253 
	L 60.732, 121.324 
	L 62.929, 121.324 
	L 62.929, 121.394 
	L 61.157, 121.394 
	L 61.583, 121.465 
" />
<path d="M 61.583, 121.465 
	L 62.929, 121.465 
	L 62.929, 121.536 
	L 62.008, 121.536 
	L 62.433, 121.607 
	L 62.929, 121.607 
" />
<path d="M 62.930, 121.677 
	L 62.929, 121.678 
	L 62.929, 119.694 
	L 56.906, 120.686 
	L 62.929, 121.678 
" />
<path d="M 62.930, 120.685 
	L 62.929, 120.686 
	L 68.953, 120.686 
" />
<path d="M 62.930, 120.685 
	L 62.929, 120.686 
	L 56.906, 120.686 
	L 56.906, -9.354 
" />
<path d="M 57.331, 120.614 
	L 57.331, 120.615 
	L 62.929, 120.615 
	L 62.929, 120.686 
" />
<path d="M 62.930, 120.543 
	L 62.929, 120.544 
	L 57.756, 120.544 
	L 57.331, 120.615 
" />
<path d="M 58.182, 120.472 
	L 58.181, 120.473 
	L 62.929, 120.473 
	L 62.929, 120.544 
" />
<path d="M 62.930, 120.402 
	L 62.929, 120.402 
	L 58.606, 120.402 
	L 58.181, 120.473 
" />
<path d="M 59.032, 120.331 
	L 59.032, 120.331 
	L 62.929, 120.331 
	L 62.929, 120.402 
" />
<path d="M 62.930, 120.260 
	L 62.929, 120.261 
	L 59.457, 120.261 
	L 59.032, 120.331 
" />
<path d="M 59.883, 120.189 
	L 59.882, 120.190 
	L 62.929, 120.190 
	L 62.929, 120.261 
" />
<path d="M 62.930, 120.118 
	L 62.929, 120.119 
	L 60.307, 120.119 
	L 59.882, 120.190 
" />
<path d="M 60.733, 120.047 
	L 60.732, 120.048 
	L 62.929, 120.048 
	L 62.929, 120.119 
" />
<path d="M 62.930, 119.976 
	L 62.929, 119.977 
	L 61.157, 119.977 
	L 60.732, 120.048 
" />
<path d="M 61.583, 119.906 
	L 61.583, 119.906 
	L 62.929, 119.906 
	L 62.929, 119.977 
" />
<path d="M 62.930, 119.835 
	L 62.929, 119.835 
	L 62.008, 119.835 
	L 61.583, 119.906 
" />
<path d="M 62.434, 119.764 
	L 62.433, 119.765 
	L 62.929, 119.765 
	L 62.929, 119.835 
" />
<path d="M 76.394, 121.961 
	L 76.394, 121.961 
	L 78.945, 121.961 
" />
<path d="M 78.662, 123.732 
	L 78.661, 123.733 
	L 80.362, 123.733 
" />
<path d="M 79.796, 123.732 
	L 79.795, 123.733 
	L 77.811, 117.709 
	L 75.827, 123.733 
" />
<path d="M 75.261, 123.732 
	L 75.260, 123.733 
	L 76.961, 123.733 
" />
<path d="M 79.513, 123.732 
	L 79.512, 123.733 
	L 77.811, 118.560 
" />
<path d="M 81.213, 119.693 
	L 81.213, 119.694 
	L 82.417, 119.694 
	L 82.417, 123.733 
" />
<path d="M 82.135, 123.732 
	L 82.134, 123.733 
	L 82.134, 119.694 
" />
<path d="M 82.702, 120.543 
	L 82.701, 120.544 
	L 83.268, 119.977 
	L 83.835, 119.694 
	L 84.685, 119.694 
	L 84.969, 119.977 
	L 84.969, 120.261 
	L 84.685, 120.544 
	L 84.402, 120.261 
	L 84.685, 119.977 
" />
<path d="M 87.237, 119.976 
	L 87.236, 119.977 
	L 86.669, 120.544 
	L 86.386, 121.394 
	L 86.386, 121.961 
	L 86.669, 122.812 
	L 87.236, 123.379 
	L 88.087, 123.733 
	L 88.724, 123.733 
	L 89.575, 123.379 
	L 90.142, 122.812 
" />
<path d="M 90.142, 121.394 
	L 90.142, 121.394 
	L 90.142, 120.827 
	L 89.858, 120.261 
	L 89.575, 119.977 
	L 89.008, 119.694 
	L 88.087, 119.694 
	L 87.236, 119.977 
" />
<path d="M 87.520, 119.976 
	L 87.520, 119.977 
	L 86.953, 120.544 
	L 86.669, 121.394 
	L 86.669, 121.961 
	L 86.953, 122.812 
	L 87.520, 123.379 
	L 88.087, 123.733 
" />
<path d="M 86.670, 121.394 
	L 86.669, 121.394 
	L 90.142, 121.394 
" />
<path d="M 89.859, 121.394 
	L 89.858, 121.394 
	L 89.858, 120.544 
	L 89.575, 119.977 
" />
<path d="M 88.087, 119.693 
	L 88.087, 119.694 
	L 87.520, 119.977 
" />
<path d="M 92.127, 120.260 
	L 92.126, 120.261 
	L 92.409, 119.977 
	L 92.976, 119.694 
	L 94.110, 119.694 
	L 94.677, 119.977 
	L 94.961, 120.261 
	L 95.244, 120.827 
	L 95.244, 122.812 
	L 95.598, 123.379 
	L 95.882, 123.733 
	L 96.165, 123.733 
" />
<path d="M 96.165, 123.733 
" />
<path d="M 95.883, 123.732 
	L 95.882, 123.733 
	L 95.244, 123.379 
	L 94.961, 122.812 
	L 94.394, 123.379 
	L 93.827, 123.733 
	L 92.976, 123.733 
	L 92.409, 123.379 
	L 92.126, 122.812 
	L 92.126, 122.245 
	L 92.409, 121.678 
	L 92.976, 121.394 
" />
<path d="M 92.976, 121.394 
	L 92.126, 121.678 
	L 91.843, 122.245 
	L 91.843, 122.812 
	L 92.126, 123.379 
	L 92.976, 123.733 
" />
<path d="M 92.977, 121.394 
	L 92.976, 121.394 
	L 94.677, 121.111 
	L 94.961, 120.827 
" />
<path d="M 94.961, 120.260 
	L 94.961, 120.261 
	L 94.961, 122.812 
" />
<path d="M 92.410, 120.543 
	L 92.409, 120.544 
	L 92.126, 120.544 
	L 92.126, 120.261 
" />
<path d="M 92.410, 120.260 
	L 92.409, 120.261 
	L 92.409, 120.544 
" />
<path d="M 82.702, 120.543 
	L 82.701, 120.544 
	L 82.417, 121.394 
" />
<path d="M 83.268, 123.732 
	L 83.268, 123.733 
	L 81.213, 123.733 
" />
<path d="M 103.890, 122.811 
	L 103.890, 122.812 
	L 104.457, 123.379 
	L 105.307, 123.733 
	L 105.874, 123.733 
	L 106.724, 123.379 
	L 107.291, 122.812 
	L 107.575, 121.961 
	L 107.575, 121.394 
	L 107.291, 120.544 
	L 106.724, 119.977 
" />
<path d="M 106.724, 119.977 
	L 105.874, 119.694 
	L 105.307, 119.694 
	L 104.740, 119.977 
	L 104.173, 120.544 
	L 103.890, 121.394 
	L 103.890, 121.961 
	L 104.173, 122.812 
	L 104.740, 123.379 
	L 105.307, 123.733 
" />
<path d="M 105.875, 123.732 
	L 105.874, 123.733 
	L 106.441, 123.379 
	L 107.008, 122.812 
	L 107.291, 121.961 
	L 107.291, 121.394 
	L 107.008, 120.544 
	L 106.441, 119.977 
	L 105.874, 119.694 
" />
<path d="M 105.308, 119.693 
	L 105.307, 119.694 
	L 104.457, 119.977 
	L 103.890, 120.544 
	L 103.606, 121.394 
	L 103.606, 121.961 
	L 103.890, 122.812 
" />
<path d="M 108.993, 123.732 
	L 108.992, 123.733 
	L 111.047, 123.733 
" />
<path d="M 110.198, 123.732 
	L 110.197, 123.733 
	L 110.197, 118.560 
	L 110.480, 117.993 
	L 110.764, 117.709 
	L 110.197, 117.993 
	L 109.913, 118.560 
	L 109.913, 123.733 
" />
<path d="M 108.993, 119.693 
	L 108.992, 119.694 
	L 111.331, 119.694 
" />
<path d="M 111.331, 118.559 
	L 111.331, 118.560 
	L 111.614, 118.276 
	L 111.614, 117.993 
	L 111.331, 117.709 
	L 110.764, 117.709 
" />
<path d="M 111.331, 117.992 
	L 111.331, 117.993 
	L 111.047, 118.276 
	L 111.331, 118.560 
" />
<path d="M 119.623, 118.559 
	L 119.622, 118.560 
	L 119.339, 119.127 
	L 119.055, 120.261 
	L 119.055, 121.111 
	L 119.339, 122.245 
	L 119.622, 122.812 
	L 120.189, 123.379 
	L 121.039, 123.733 
	L 121.606, 123.733 
	L 122.457, 123.379 
" />
<path d="M 122.457, 123.379 
	L 123.095, 122.812 
	L 123.378, 122.245 
	L 123.661, 121.111 
	L 123.661, 120.261 
	L 123.378, 119.127 
	L 123.095, 118.560 
	L 122.457, 117.993 
	L 121.606, 117.709 
	L 121.039, 117.709 
	L 120.472, 117.993 
" />
<path d="M 120.472, 117.993 
	L 119.906, 118.560 
	L 119.622, 119.127 
	L 119.339, 120.261 
	L 119.339, 121.111 
	L 119.622, 122.245 
	L 119.906, 122.812 
	L 120.472, 123.379 
	L 121.039, 123.733 
" />
<path d="M 121.607, 123.732 
	L 121.606, 123.733 
	L 122.173, 123.379 
	L 122.740, 122.812 
	L 123.095, 122.245 
	L 123.378, 121.111 
	L 123.378, 120.261 
	L 123.095, 119.127 
	L 122.740, 118.560 
	L 122.173, 117.993 
	L 121.606, 117.709 
" />
<path d="M 121.606, 117.709 
" />
<path d="M 121.040, 117.709 
	L 121.039, 117.709 
	L 120.189, 117.993 
	L 119.622, 118.560 
" />
<path d="M 124.796, 119.693 
	L 124.795, 119.694 
	L 126.496, 119.694 
" />
<path d="M 125.646, 119.693 
	L 125.646, 119.694 
	L 127.063, 123.095 
" />
<path d="M 127.064, 123.732 
	L 127.063, 123.733 
	L 128.764, 119.694 
" />
<path d="M 129.331, 119.693 
	L 129.331, 119.694 
	L 127.630, 119.694 
" />
<path d="M 125.363, 119.693 
	L 125.362, 119.694 
	L 127.063, 123.733 
" />
<path d="M 130.820, 122.811 
	L 130.819, 122.812 
	L 131.386, 123.379 
	L 132.236, 123.733 
	L 132.803, 123.733 
	L 133.654, 123.379 
	L 134.220, 122.812 
" />
<path d="M 134.221, 121.394 
	L 134.220, 121.394 
	L 134.220, 120.827 
	L 133.937, 120.261 
	L 133.654, 119.977 
	L 133.087, 119.694 
	L 132.236, 119.694 
	L 131.386, 119.977 
	L 130.819, 120.544 
	L 130.535, 121.394 
	L 130.535, 121.961 
" />
<path d="M 130.535, 121.961 
	L 130.819, 122.812 
" />
<path d="M 131.103, 122.811 
	L 131.102, 122.812 
	L 131.669, 123.379 
	L 132.236, 123.733 
" />
<path d="M 131.103, 122.811 
	L 131.102, 122.812 
	L 130.819, 121.961 
	L 130.819, 121.394 
	L 134.220, 121.394 
" />
<path d="M 133.938, 121.394 
	L 133.937, 121.394 
	L 133.937, 120.544 
	L 133.654, 119.977 
" />
<path d="M 132.237, 119.693 
	L 132.236, 119.694 
	L 131.669, 119.977 
	L 131.102, 120.544 
	L 130.819, 121.394 
" />
<path d="M 136.843, 121.394 
	L 136.843, 121.394 
	L 137.126, 120.544 
	L 137.693, 119.977 
	L 138.260, 119.694 
	L 139.110, 119.694 
	L 139.394, 119.977 
	L 139.394, 120.261 
	L 139.110, 120.544 
	L 138.827, 120.261 
	L 139.110, 119.977 
" />
<path d="M 139.110, 119.977 
" />
<path d="M 136.843, 119.693 
	L 136.843, 119.694 
	L 136.843, 123.733 
" />
<path d="M 136.489, 123.732 
	L 136.488, 123.733 
	L 136.488, 119.694 
" />
<path d="M 136.843, 119.693 
	L 136.843, 119.694 
	L 135.638, 119.694 
" />
<path d="M 135.639, 123.732 
	L 135.638, 123.733 
	L 137.693, 123.733 
" />
<path d="M 140.528, 123.732 
	L 140.528, 123.733 
	L 142.512, 123.733 
" />
<path d="M 141.662, 123.732 
	L 141.661, 123.733 
	L 141.661, 117.709 
	L 140.528, 117.709 
" />
<path d="M 141.379, 117.709 
	L 141.378, 117.709 
	L 141.378, 123.733 
" />
<path d="M 144.284, 123.378 
	L 144.283, 123.379 
	L 145.134, 123.733 
	L 145.984, 123.733 
	L 146.551, 123.379 
	L 147.118, 122.812 
	L 147.402, 123.379 
	L 147.969, 123.733 
	L 148.252, 123.733 
" />
<path d="M 147.969, 123.732 
	L 147.969, 123.733 
	L 147.685, 123.379 
	L 147.402, 122.812 
	L 147.402, 120.827 
	L 147.118, 120.261 
	L 147.118, 122.812 
" />
<path d="M 147.119, 120.827 
	L 147.118, 120.827 
	L 146.835, 121.111 
	L 145.134, 121.394 
	L 144.283, 121.678 
	L 144.000, 122.245 
	L 144.000, 122.812 
	L 144.283, 123.379 
" />
<path d="M 144.568, 123.378 
	L 144.567, 123.379 
	L 145.134, 123.733 
" />
<path d="M 144.568, 123.378 
	L 144.567, 123.379 
	L 144.283, 122.812 
	L 144.283, 122.245 
	L 144.567, 121.678 
	L 145.134, 121.394 
" />
<path d="M 144.568, 120.543 
	L 144.567, 120.544 
	L 144.283, 120.544 
	L 144.283, 120.261 
	L 144.567, 119.977 
	L 145.134, 119.694 
	L 146.268, 119.694 
	L 146.835, 119.977 
	L 147.118, 120.261 
" />
<path d="M 144.568, 120.260 
	L 144.567, 120.261 
	L 144.567, 120.544 
" />
<path d="M 149.387, 119.693 
	L 149.386, 119.694 
	L 150.591, 119.694 
	L 150.591, 125.717 
" />
<path d="M 150.237, 125.717 
	L 150.236, 125.717 
	L 150.236, 119.694 
" />
<path d="M 150.591, 120.543 
	L 150.591, 120.544 
	L 151.158, 119.977 
	L 151.724, 119.694 
	L 152.291, 119.694 
	L 153.142, 119.977 
	L 153.709, 120.544 
	L 153.992, 121.394 
	L 153.992, 121.961 
	L 153.709, 122.812 
	L 153.142, 123.379 
" />
<path d="M 153.142, 123.379 
	L 152.291, 123.733 
	L 151.724, 123.733 
	L 151.158, 123.379 
	L 150.591, 122.812 
" />
<path d="M 152.292, 123.732 
	L 152.291, 123.733 
	L 152.858, 123.379 
	L 153.425, 122.812 
	L 153.709, 121.961 
	L 153.709, 121.394 
	L 153.425, 120.544 
	L 152.858, 119.977 
	L 152.291, 119.694 
" />
<path d="M 151.442, 125.717 
	L 151.441, 125.717 
	L 149.386, 125.717 
" />
<path d="M 209.481, 149.669 
	L 209.480, 149.670 
	L 207.850, 151.300 
	L 207.000, 152.930 
	L 206.221, 155.410 
	L 206.221, 159.450 
	L 207.000, 161.930 
	L 207.850, 163.560 
	L 209.480, 165.190 
	L 211.890, 166.040 
	L 213.591, 166.040 
" />
<path d="M 213.591, 166.040 
	L 216.000, 165.190 
	L 217.630, 163.560 
	L 218.480, 161.930 
" />
<path d="M 218.481, 153.780 
	L 218.480, 153.780 
	L 218.480, 148.820 
	L 217.630, 151.300 
	L 216.000, 149.670 
	L 213.591, 148.820 
	L 211.890, 148.820 
	L 209.480, 149.670 
" />
<path d="M 210.261, 149.669 
	L 210.260, 149.670 
	L 208.630, 151.300 
	L 207.850, 152.930 
	L 207.000, 155.410 
	L 207.000, 159.450 
	L 207.850, 161.930 
	L 208.630, 163.560 
	L 210.260, 165.190 
	L 211.890, 166.040 
" />
<path d="M 211.891, 148.819 
	L 211.890, 148.820 
	L 210.260, 149.670 
" />
<path d="M 217.631, 151.299 
	L 217.630, 151.300 
	L 218.480, 153.780 
" />
<path d="M 106.796, 44.079 
	L 106.795, 44.079 
	L 105.945, 44.859 
	L 103.465, 45.709 
	L 93.685, 45.709 
" />
<path d="M 96.095, 45.709 
	L 96.095, 45.709 
	L 96.095, 28.489 
" />
<path d="M 96.946, 28.488 
	L 96.945, 28.489 
	L 96.945, 45.709 
" />
<path d="M 103.465, 45.709 
	L 103.465, 45.709 
	L 105.165, 44.859 
	L 105.945, 44.079 
	L 106.795, 42.450 
	L 106.795, 39.969 
	L 105.945, 38.339 
	L 105.165, 37.489 
	L 103.465, 36.709 
	L 105.945, 37.489 
	L 106.795, 38.339 
	L 107.575, 39.969 
" />
<path d="M 107.575, 39.969 
	L 107.575, 42.450 
	L 106.795, 44.079 
" />
<path d="M 106.796, 35.079 
	L 106.795, 35.079 
	L 105.945, 35.859 
	L 103.465, 36.709 
	L 105.165, 35.859 
	L 105.945, 35.079 
	L 106.795, 33.450 
	L 106.795, 31.820 
	L 105.945, 30.119 
	L 105.165, 29.339 
	L 103.465, 28.489 
	L 105.945, 29.339 
" />
<path d="M 105.945, 29.339 
	L 106.795, 30.119 
	L 107.575, 31.820 
	L 107.575, 33.450 
	L 106.795, 35.079 
" />
<path d="M 103.465, 36.709 
	L 103.465, 36.709 
	L 96.945, 36.709 
" />
<path d="M 93.686, 28.488 
	L 93.685, 28.489 
	L 103.465, 28.489 
" />
<path d="M 7.371, 54.283 
	L 7.370, 54.284 
	L 1.630, 71.505 
" />
<path d="M 0.001, 71.504 
	L 0.000, 71.505 
	L 4.890, 71.505 
" />
<path d="M 9.780, 71.504 
	L 9.780, 71.505 
	L 14.669, 71.505 
" />
<path d="M 13.040, 71.504 
	L 13.039, 71.505 
	L 7.370, 54.284 
" />
<path d="M 7.371, 56.764 
	L 7.370, 56.764 
	L 12.260, 71.505 
" />
<path d="M 10.631, 66.543 
	L 10.630, 66.544 
	L 3.260, 66.544 
" />
</g><g style="stroke:rgb(255,255,255); fill:none; stroke-width:0.100mm" >
</g>
</svg>
