<?xml version="1.0" encoding="UTF-8" standalone="no" ?>
<svg width="100%" height="100%" viewBox="0 0 227.977 320.953" xmlns="http://www.w3.org/2000/svg"><g>
</g><g style="stroke:rgb(0,0,0); fill:none; stroke-width:1.000mm" >
</g><g style="stroke:rgb(0,0,0); fill:none; stroke-width:0.100mm" >
<path d="M 139.890, 189.142 
	L 139.890, 189.142 
	L 100.630, 235.347 
" />
<path d="M 135.922, 203.244 
	L 135.921, 203.245 
	L 136.984, 204.095 
	L 138.118, 204.733 
	L 139.394, 205.087 
	L 140.669, 205.229 
	L 141.945, 205.087 
	L 143.220, 204.733 
	L 144.354, 204.095 
	L 145.346, 203.245 
	L 146.197, 202.253 
" />
<path d="M 146.197, 202.253 
	L 146.835, 201.119 
	L 147.189, 199.843 
	L 147.331, 198.568 
	L 147.189, 197.221 
	L 146.835, 196.016 
	L 146.197, 194.883 
	L 145.346, 193.820 
	L 144.354, 193.040 
	L 143.220, 192.402 
	L 141.945, 192.048 
" />
<path d="M 141.945, 192.048 
	L 140.669, 191.906 
	L 139.394, 192.048 
	L 138.118, 192.402 
	L 136.984, 193.040 
	L 135.921, 193.820 
	L 135.142, 194.883 
	L 134.504, 196.016 
	L 134.150, 197.221 
	L 134.008, 198.568 
	L 134.150, 199.843 
" />
<path d="M 134.150, 199.843 
	L 134.504, 201.119 
	L 135.142, 202.253 
	L 135.921, 203.245 
" />
<path d="M 135.993, 203.386 
	L 135.992, 203.387 
	L 137.055, 204.166 
	L 138.189, 204.733 
	L 139.465, 205.158 
	L 140.740, 205.229 
	L 142.087, 205.087 
	L 143.291, 204.662 
	L 144.425, 204.024 
	L 145.488, 203.174 
	L 146.268, 202.182 
" />
<path d="M 146.268, 202.182 
	L 146.835, 200.977 
	L 147.260, 199.772 
	L 147.331, 198.426 
	L 147.189, 197.150 
	L 146.764, 195.875 
	L 146.126, 194.741 
	L 145.276, 193.749 
	L 144.283, 192.969 
	L 143.150, 192.331 
	L 141.874, 191.977 
" />
<path d="M 141.874, 191.977 
	L 140.528, 191.906 
	L 139.252, 192.048 
	L 137.976, 192.402 
	L 136.843, 193.040 
	L 135.850, 193.890 
	L 135.071, 194.953 
	L 134.433, 196.087 
	L 134.079, 197.363 
	L 134.008, 198.639 
	L 134.150, 199.985 
" />
<path d="M 134.150, 199.985 
	L 134.575, 201.190 
	L 135.142, 202.324 
	L 135.992, 203.387 
" />
<path d="M 136.135, 203.457 
	L 136.134, 203.457 
	L 143.220, 204.733 
" />
<path d="M 143.646, 204.520 
	L 143.646, 204.520 
	L 135.780, 203.103 
" />
<path d="M 135.497, 202.748 
	L 135.496, 202.749 
	L 144.071, 204.308 
" />
<path d="M 144.426, 204.095 
	L 144.425, 204.095 
	L 135.213, 202.394 
" />
<path d="M 135.001, 202.039 
	L 135.000, 202.040 
	L 144.709, 203.812 
" />
<path d="M 144.993, 203.598 
	L 144.992, 203.599 
	L 134.787, 201.757 
" />
<path d="M 134.646, 201.402 
	L 134.646, 201.402 
	L 145.276, 203.387 
" />
<path d="M 145.560, 203.102 
	L 145.559, 203.103 
	L 134.504, 201.119 
" />
<path d="M 134.363, 200.764 
	L 134.362, 200.765 
	L 145.772, 202.890 
" />
<path d="M 145.985, 202.606 
	L 145.984, 202.607 
	L 137.693, 201.119 
" />
<path d="M 137.552, 201.118 
	L 137.551, 201.119 
	L 137.835, 201.048 
	L 141.307, 198.639 
	L 141.520, 198.355 
	L 141.449, 198.072 
	L 141.378, 198.001 
	L 147.331, 199.064 
" />
<path d="M 147.331, 198.780 
	L 147.331, 198.780 
	L 134.362, 196.442 
" />
<path d="M 134.434, 196.157 
	L 134.433, 196.158 
	L 147.331, 198.497 
" />
<path d="M 147.331, 198.213 
	L 147.331, 198.213 
	L 134.575, 195.875 
" />
<path d="M 134.646, 195.591 
	L 134.646, 195.591 
	L 147.331, 197.930 
" />
<path d="M 147.261, 197.575 
	L 147.260, 197.576 
	L 134.787, 195.308 
" />
<path d="M 135.001, 195.095 
	L 135.000, 195.095 
	L 147.189, 197.292 
" />
<path d="M 147.119, 197.008 
	L 147.118, 197.009 
	L 135.142, 194.812 
" />
<path d="M 135.355, 194.528 
	L 135.354, 194.528 
	L 147.047, 196.725 
" />
<path d="M 146.977, 196.370 
	L 146.976, 196.371 
	L 135.496, 194.316 
" />
<path d="M 135.709, 194.032 
	L 135.709, 194.032 
	L 146.835, 196.087 
" />
<path d="M 146.694, 195.732 
	L 146.693, 195.733 
	L 135.992, 193.820 
" />
<path d="M 136.276, 193.535 
	L 136.276, 193.536 
	L 146.551, 195.450 
" />
<path d="M 146.410, 195.095 
	L 146.409, 195.095 
	L 136.559, 193.324 
" />
<path d="M 136.843, 193.110 
	L 136.843, 193.111 
	L 146.197, 194.812 
" />
<path d="M 145.914, 194.457 
	L 145.913, 194.457 
	L 137.197, 192.827 
" />
<path d="M 137.552, 192.614 
	L 137.551, 192.615 
	L 145.630, 194.103 
" />
<path d="M 145.276, 193.748 
	L 145.276, 193.749 
	L 138.047, 192.402 
" />
<path d="M 138.544, 192.260 
	L 138.543, 192.261 
	L 144.850, 193.394 
" />
<path d="M 144.355, 192.969 
	L 144.354, 192.969 
	L 139.181, 192.048 
" />
<path d="M 140.032, 191.906 
	L 140.032, 191.906 
	L 143.646, 192.544 
" />
<path d="M 143.079, 194.315 
	L 143.079, 194.316 
	L 142.087, 193.890 
	L 141.024, 193.749 
	L 139.890, 193.749 
	L 138.898, 194.032 
	L 137.906, 194.599 
	L 137.126, 195.308 
	L 136.488, 196.158 
	L 136.063, 197.150 
	L 135.850, 198.213 
" />
<path d="M 135.850, 198.213 
	L 135.850, 199.347 
	L 136.205, 200.339 
	L 136.701, 201.331 
	L 137.409, 202.111 
	L 138.260, 202.749 
	L 139.252, 203.174 
	L 140.315, 203.387 
	L 141.449, 203.316 
	L 142.441, 203.032 
	L 143.433, 202.536 
" />
<path d="M 143.433, 202.536 
	L 144.213, 201.827 
	L 144.850, 200.977 
	L 145.276, 199.985 
	L 145.488, 198.851 
	L 145.417, 197.788 
	L 145.134, 196.725 
	L 144.638, 195.804 
	L 143.929, 194.953 
	L 143.079, 194.316 
" />
<path d="M 141.379, 198.000 
	L 141.378, 198.001 
	L 141.095, 197.859 
	L 140.811, 197.859 
	L 134.220, 196.725 
" />
<path d="M 134.150, 196.937 
	L 134.150, 196.938 
	L 140.457, 198.142 
" />
<path d="M 140.174, 198.354 
	L 140.173, 198.355 
	L 134.150, 197.221 
" />
<path d="M 134.079, 197.504 
	L 134.079, 197.505 
	L 139.819, 198.568 
" />
<path d="M 139.465, 198.780 
	L 139.465, 198.780 
	L 134.008, 197.788 
" />
<path d="M 134.009, 198.071 
	L 134.008, 198.072 
	L 139.181, 199.064 
" />
<path d="M 138.828, 199.276 
	L 138.827, 199.276 
	L 134.008, 198.426 
" />
<path d="M 134.009, 198.709 
	L 134.008, 198.709 
	L 138.472, 199.489 
" />
<path d="M 138.190, 199.701 
	L 138.189, 199.702 
	L 134.008, 198.993 
" />
<path d="M 134.009, 199.276 
	L 134.008, 199.276 
	L 137.835, 199.985 
" />
<path d="M 137.481, 200.197 
	L 137.480, 200.198 
	L 134.079, 199.560 
" />
<path d="M 134.150, 199.843 
	L 134.150, 199.843 
	L 137.197, 200.410 
" />
<path d="M 137.198, 200.551 
	L 137.197, 200.552 
	L 137.268, 200.835 
	L 137.268, 200.977 
	L 137.551, 201.119 
" />
<path d="M 137.410, 201.047 
	L 137.409, 201.048 
	L 134.291, 200.481 
" />
<path d="M 134.221, 200.197 
	L 134.220, 200.198 
	L 137.197, 200.694 
" />
<path d="M 137.198, 200.551 
	L 137.197, 200.552 
	L 137.339, 200.268 
	L 140.811, 197.859 
" />
<path d="M 141.520, 198.283 
	L 141.520, 198.284 
	L 147.260, 199.347 
" />
<path d="M 147.261, 199.630 
	L 147.260, 199.631 
	L 141.449, 198.568 
" />
<path d="M 141.095, 198.780 
	L 141.095, 198.780 
	L 147.189, 199.914 
" />
<path d="M 147.119, 200.197 
	L 147.118, 200.198 
	L 140.740, 199.064 
" />
<path d="M 140.457, 199.276 
	L 140.457, 199.276 
	L 147.047, 200.481 
" />
<path d="M 146.977, 200.764 
	L 146.976, 200.765 
	L 140.102, 199.489 
" />
<path d="M 139.749, 199.701 
	L 139.748, 199.702 
	L 146.835, 201.048 
" />
<path d="M 146.765, 201.331 
	L 146.764, 201.331 
	L 139.465, 199.985 
" />
<path d="M 139.111, 200.197 
	L 139.110, 200.198 
	L 146.622, 201.544 
" />
<path d="M 146.481, 201.827 
	L 146.480, 201.827 
	L 138.756, 200.410 
" />
<path d="M 138.402, 200.693 
	L 138.402, 200.694 
	L 146.339, 202.111 
" />
<path d="M 146.127, 202.323 
	L 146.126, 202.324 
	L 138.118, 200.906 
" />
<path d="M 137.906, 204.661 
	L 137.906, 204.662 
	L 141.095, 205.229 
" />
<path d="M 142.016, 205.087 
	L 142.016, 205.087 
	L 137.126, 204.237 
" />
<path d="M 136.560, 203.811 
	L 136.559, 203.812 
	L 142.654, 204.946 
" />
<path d="M 150.095, 197.787 
	L 150.095, 197.788 
	L 129.756, 180.497 
" />
<path d="M 100.418, 226.417 
	L 100.417, 226.418 
	L 96.945, 228.190 
" />
<path d="M 96.804, 228.543 
	L 96.803, 228.544 
	L 100.559, 226.631 
" />
<path d="M 100.772, 226.843 
	L 100.772, 226.843 
	L 96.732, 228.969 
" />
<path d="M 96.591, 229.323 
	L 96.591, 229.324 
	L 100.984, 227.127 
" />
<path d="M 101.127, 227.339 
	L 101.126, 227.339 
	L 96.449, 229.678 
" />
<path d="M 96.308, 230.102 
	L 96.307, 230.103 
	L 101.268, 227.552 
" />
<path d="M 101.410, 227.835 
	L 101.409, 227.835 
	L 96.165, 230.457 
" />
<path d="M 96.095, 230.882 
	L 96.095, 230.883 
	L 101.551, 228.048 
" />
<path d="M 101.481, 227.976 
	L 101.480, 227.977 
	L 100.772, 226.914 
	L 99.850, 225.922 
	L 98.787, 225.213 
	L 97.583, 224.646 
	L 96.307, 224.363 
	L 95.032, 224.363 
	L 93.756, 224.576 
	L 92.551, 225.072 
	L 91.417, 225.780 
" />
<path d="M 91.417, 225.780 
	L 90.496, 226.702 
	L 89.717, 227.765 
	L 89.220, 228.969 
	L 88.937, 230.245 
	L 88.866, 231.520 
	L 89.150, 232.796 
	L 89.575, 234.001 
	L 90.283, 235.135 
	L 91.205, 236.056 
	L 92.268, 236.835 
	L 93.472, 237.331 
" />
<path d="M 93.472, 237.331 
	L 94.748, 237.615 
	L 96.095, 237.686 
	L 97.370, 237.402 
	L 98.575, 236.977 
	L 99.709, 236.268 
	L 100.630, 235.347 
	L 101.339, 234.284 
	L 101.906, 233.079 
	L 102.189, 231.804 
	L 102.189, 230.457 
" />
<path d="M 102.189, 230.457 
	L 101.976, 229.182 
	L 101.480, 227.977 
" />
<path d="M 101.694, 228.331 
	L 101.693, 228.331 
	L 95.953, 231.237 
" />
<path d="M 95.812, 231.661 
	L 95.811, 231.662 
	L 101.764, 228.615 
" />
<path d="M 101.906, 228.898 
	L 101.906, 228.898 
	L 90.071, 234.851 
" />
<path d="M 89.930, 234.638 
	L 89.929, 234.639 
	L 95.315, 231.875 
	L 95.598, 231.875 
	L 95.811, 231.662 
	L 97.157, 227.623 
	L 97.087, 227.268 
	L 96.874, 227.127 
	L 96.803, 227.056 
	L 96.449, 227.127 
	L 96.236, 227.339 
	L 94.961, 231.379 
" />
<path d="M 94.961, 231.379 
	L 94.961, 231.662 
	L 95.244, 231.875 
	L 95.315, 231.875 
" />
<path d="M 95.032, 231.732 
	L 95.032, 231.733 
	L 89.787, 234.355 
" />
<path d="M 89.646, 234.142 
	L 89.646, 234.142 
	L 94.961, 231.450 
" />
<path d="M 95.032, 231.095 
	L 95.032, 231.095 
	L 89.504, 233.859 
" />
<path d="M 89.434, 233.646 
	L 89.433, 233.646 
	L 95.173, 230.670 
" />
<path d="M 95.316, 230.315 
	L 95.315, 230.316 
	L 89.291, 233.363 
" />
<path d="M 89.221, 233.079 
	L 89.220, 233.079 
	L 95.386, 229.890 
" />
<path d="M 95.528, 229.535 
	L 95.528, 229.536 
	L 89.150, 232.796 
" />
<path d="M 89.079, 232.512 
	L 89.079, 232.513 
	L 95.669, 229.111 
" />
<path d="M 95.812, 228.756 
	L 95.811, 228.757 
	L 89.008, 232.229 
" />
<path d="M 88.938, 231.945 
	L 88.937, 231.946 
	L 95.953, 228.402 
" />
<path d="M 96.024, 227.976 
	L 96.024, 227.977 
	L 88.937, 231.591 
" />
<path d="M 88.867, 231.307 
	L 88.866, 231.308 
	L 96.165, 227.623 
" />
<path d="M 96.308, 227.197 
	L 96.307, 227.198 
	L 88.866, 231.024 
" />
<path d="M 88.867, 230.669 
	L 88.866, 230.670 
	L 99.213, 225.426 
" />
<path d="M 98.930, 225.213 
	L 98.929, 225.213 
	L 88.937, 230.316 
" />
<path d="M 88.938, 229.961 
	L 88.937, 229.961 
	L 98.575, 225.072 
" />
<path d="M 98.292, 224.929 
	L 98.291, 224.930 
	L 89.008, 229.607 
" />
<path d="M 89.079, 229.252 
	L 89.079, 229.253 
	L 97.937, 224.788 
" />
<path d="M 97.583, 224.646 
	L 97.583, 224.646 
	L 89.220, 228.898 
" />
<path d="M 89.363, 228.472 
	L 89.362, 228.473 
	L 97.157, 224.505 
" />
<path d="M 96.733, 224.433 
	L 96.732, 224.434 
	L 89.575, 228.048 
" />
<path d="M 89.788, 227.622 
	L 89.787, 227.623 
	L 96.236, 224.363 
" />
<path d="M 95.670, 224.362 
	L 95.669, 224.363 
	L 90.071, 227.127 
" />
<path d="M 90.497, 226.630 
	L 90.496, 226.631 
	L 94.961, 224.363 
" />
<path d="M 94.040, 224.504 
	L 94.039, 224.505 
	L 91.205, 225.993 
" />
<path d="M 92.056, 227.693 
	L 92.055, 227.694 
	L 91.417, 228.544 
	L 90.921, 229.536 
	L 90.709, 230.599 
	L 90.780, 231.662 
	L 90.992, 232.725 
	L 91.488, 233.646 
	L 92.197, 234.497 
	L 93.047, 235.135 
	L 94.039, 235.631 
	L 95.102, 235.843 
" />
<path d="M 95.102, 235.843 
	L 96.165, 235.772 
	L 97.228, 235.560 
	L 98.220, 235.064 
	L 99.071, 234.355 
	L 99.709, 233.505 
	L 100.134, 232.513 
	L 100.346, 231.450 
	L 100.346, 230.387 
	L 100.063, 229.324 
	L 99.567, 228.331 
" />
<path d="M 99.567, 228.331 
	L 98.858, 227.481 
	L 98.008, 226.843 
	L 97.016, 226.418 
	L 95.953, 226.205 
	L 94.890, 226.205 
	L 93.827, 226.489 
	L 92.906, 226.985 
	L 92.055, 227.694 
" />
<path d="M 97.087, 227.764 
	L 97.087, 227.765 
	L 100.205, 226.205 
" />
<path d="M 99.922, 225.992 
	L 99.921, 225.993 
	L 97.157, 227.410 
" />
<path d="M 97.016, 227.197 
	L 97.016, 227.198 
	L 99.709, 225.780 
" />
<path d="M 99.497, 225.638 
	L 99.496, 225.639 
	L 96.591, 227.056 
" />
<path d="M 101.977, 229.181 
	L 101.976, 229.182 
	L 90.283, 235.135 
" />
<path d="M 90.497, 235.346 
	L 90.496, 235.347 
	L 102.047, 229.465 
" />
<path d="M 102.119, 229.748 
	L 102.118, 229.749 
	L 90.638, 235.560 
" />
<path d="M 90.851, 235.772 
	L 90.850, 235.772 
	L 102.118, 230.032 
" />
<path d="M 102.190, 230.315 
	L 102.189, 230.316 
	L 91.063, 235.985 
" />
<path d="M 91.347, 236.197 
	L 91.346, 236.198 
	L 102.189, 230.670 
" />
<path d="M 102.190, 230.953 
	L 102.189, 230.953 
	L 91.559, 236.339 
" />
<path d="M 91.843, 236.551 
	L 91.843, 236.552 
	L 102.189, 231.308 
" />
<path d="M 102.190, 231.591 
	L 102.189, 231.591 
	L 92.126, 236.765 
" />
<path d="M 92.410, 236.906 
	L 92.409, 236.906 
	L 102.118, 231.946 
" />
<path d="M 102.119, 232.299 
	L 102.118, 232.300 
	L 92.764, 237.048 
" />
<path d="M 93.119, 237.189 
	L 93.118, 237.190 
	L 101.976, 232.654 
" />
<path d="M 101.906, 233.079 
	L 101.906, 233.079 
	L 93.472, 237.331 
" />
<path d="M 93.827, 237.472 
	L 93.827, 237.473 
	L 101.764, 233.434 
" />
<path d="M 101.552, 233.858 
	L 101.551, 233.859 
	L 94.323, 237.544 
" />
<path d="M 94.749, 237.614 
	L 94.748, 237.615 
	L 101.339, 234.284 
" />
<path d="M 101.056, 234.780 
	L 101.055, 234.780 
	L 95.315, 237.686 
" />
<path d="M 95.953, 237.685 
	L 95.953, 237.686 
	L 100.701, 235.276 
" />
<path d="M 100.064, 235.913 
	L 100.063, 235.914 
	L 96.803, 237.544 
" />
<path d="M 86.245, 223.583 
	L 86.244, 223.583 
	L 87.095, 222.733 
	L 87.520, 221.812 
" />
<path d="M 86.245, 223.583 
	L 86.244, 223.583 
	L 84.898, 224.009 
	L 84.047, 224.009 
	L 83.126, 223.583 
	L 82.276, 222.733 
	L 81.850, 221.812 
	L 81.425, 220.536 
	L 81.425, 218.339 
	L 81.850, 217.064 
	L 82.276, 216.142 
	L 83.126, 215.292 
" />
<path d="M 83.126, 215.292 
	L 84.047, 214.867 
	L 82.701, 215.292 
	L 81.850, 216.142 
	L 81.425, 217.064 
	L 81.000, 218.339 
	L 81.000, 220.536 
	L 81.425, 221.812 
	L 81.850, 222.733 
	L 82.701, 223.583 
	L 84.047, 224.009 
" />
<path d="M 84.048, 214.866 
	L 84.047, 214.867 
	L 84.898, 214.867 
	L 86.244, 215.292 
	L 87.095, 216.142 
	L 87.520, 217.489 
	L 87.520, 214.867 
	L 87.095, 216.142 
" />
<path d="M 112.324, 188.433 
	L 112.323, 188.434 
	L 114.945, 188.434 
" />
<path d="M 113.245, 188.433 
	L 113.244, 188.434 
	L 116.291, 179.292 
	L 119.339, 188.434 
" />
<path d="M 118.914, 188.433 
	L 118.913, 188.434 
	L 116.291, 180.568 
" />
<path d="M 118.064, 185.811 
	L 118.063, 185.812 
	L 114.095, 185.812 
" />
<path d="M 117.568, 188.433 
	L 117.567, 188.434 
	L 120.189, 188.434 
" />
<path d="M 131.174, 186.236 
	L 131.173, 186.237 
	L 132.024, 175.820 
" />
<path d="M 132.450, 171.567 
	L 132.449, 171.568 
	L 133.158, 162.993 
" />
<path d="M 133.513, 158.669 
	L 133.512, 158.670 
	L 134.220, 150.166 
" />
<path d="M 134.576, 145.843 
	L 134.575, 145.843 
	L 135.354, 137.268 
" />
<path d="M 135.709, 133.016 
	L 135.709, 133.016 
	L 136.417, 124.442 
" />
<path d="M 136.772, 120.118 
	L 136.772, 120.119 
	L 137.480, 111.615 
" />
<path d="M 137.835, 107.291 
	L 137.835, 107.292 
	L 138.614, 98.717 
" />
<path d="M 138.969, 94.465 
	L 138.969, 94.465 
	L 139.677, 85.890 
" />
<path d="M 140.032, 81.638 
	L 140.032, 81.638 
	L 140.740, 73.064 
" />
<path d="M 141.095, 68.740 
	L 141.095, 68.741 
	L 141.874, 60.166 
" />
<path d="M 142.229, 55.913 
	L 142.228, 55.914 
	L 142.937, 47.339 
" />
<path d="M 143.292, 43.087 
	L 143.291, 43.087 
	L 144.213, 32.599 
" />
<path d="M 143.930, 32.598 
	L 143.929, 32.599 
	L 144.425, 32.387 
	L 144.709, 31.820 
" />
<path d="M 143.930, 32.598 
	L 143.929, 32.599 
	L 143.433, 32.599 
	L 143.150, 32.387 
	L 142.866, 31.607 
	L 142.866, 27.142 
" />
<path d="M 142.583, 27.142 
	L 142.583, 27.142 
	L 142.583, 31.607 
	L 142.866, 32.387 
	L 143.433, 32.599 
" />
<path d="M 146.835, 32.386 
	L 146.835, 32.387 
	L 147.614, 32.599 
	L 148.110, 32.599 
	L 148.890, 32.387 
	L 149.457, 31.820 
" />
<path d="M 149.457, 32.598 
	L 149.457, 32.599 
	L 150.449, 32.599 
" />
<path d="M 149.670, 32.598 
	L 149.669, 32.599 
	L 149.669, 28.985 
	L 148.606, 28.985 
" />
<path d="M 149.457, 28.984 
	L 149.457, 28.985 
	L 149.457, 32.599 
" />
<path d="M 147.615, 32.598 
	L 147.614, 32.599 
	L 147.047, 32.387 
	L 146.835, 31.820 
	L 146.835, 28.985 
	L 145.772, 28.985 
" />
<path d="M 146.552, 28.984 
	L 146.551, 28.985 
	L 146.551, 31.820 
	L 146.835, 32.387 
" />
<path d="M 151.513, 32.598 
	L 151.512, 32.599 
	L 153.354, 32.599 
" />
<path d="M 152.576, 32.598 
	L 152.575, 32.599 
	L 152.575, 28.985 
	L 151.512, 28.985 
" />
<path d="M 152.292, 28.984 
	L 152.291, 28.985 
	L 152.291, 32.599 
" />
<path d="M 152.576, 30.543 
	L 152.575, 30.544 
	L 152.858, 29.764 
	L 153.354, 29.198 
	L 153.850, 28.985 
	L 154.630, 28.985 
	L 154.913, 29.198 
	L 154.913, 29.481 
	L 154.630, 29.764 
	L 154.417, 29.481 
	L 154.630, 29.198 
" />
<path d="M 155.977, 28.984 
	L 155.976, 28.985 
	L 157.039, 28.985 
	L 157.039, 32.599 
" />
<path d="M 156.757, 32.598 
	L 156.756, 32.599 
	L 156.756, 28.985 
" />
<path d="M 157.536, 29.197 
	L 157.535, 29.198 
	L 158.315, 28.985 
	L 158.882, 28.985 
	L 159.661, 29.198 
	L 159.874, 29.764 
	L 159.874, 32.599 
" />
<path d="M 159.662, 32.598 
	L 159.661, 32.599 
	L 159.661, 29.764 
	L 159.378, 29.198 
	L 158.882, 28.985 
" />
<path d="M 157.536, 29.197 
	L 157.535, 29.198 
	L 157.039, 29.764 
" />
<path d="M 157.820, 32.598 
	L 157.819, 32.599 
	L 155.976, 32.599 
" />
<path d="M 158.883, 32.598 
	L 158.882, 32.599 
	L 160.724, 32.599 
" />
<path d="M 143.930, 28.984 
	L 143.929, 28.985 
	L 141.803, 28.985 
" />
<path d="M 134.221, 29.197 
	L 134.220, 29.198 
	L 134.504, 29.764 
	L 134.504, 32.599 
" />
<path d="M 134.221, 32.598 
	L 134.220, 32.599 
	L 134.220, 29.764 
	L 133.937, 29.198 
	L 133.441, 28.985 
	L 134.220, 29.198 
" />
<path d="M 133.442, 28.984 
	L 133.441, 28.985 
	L 132.945, 28.985 
	L 132.165, 29.198 
	L 131.598, 29.764 
" />
<path d="M 131.599, 28.984 
	L 131.598, 28.985 
	L 131.598, 32.599 
" />
<path d="M 131.316, 32.598 
	L 131.315, 32.599 
	L 131.315, 28.985 
" />
<path d="M 131.599, 28.984 
	L 131.598, 28.985 
	L 130.535, 28.985 
" />
<path d="M 128.694, 28.984 
	L 128.693, 28.985 
	L 128.693, 32.599 
" />
<path d="M 128.481, 32.598 
	L 128.480, 32.599 
	L 128.480, 28.985 
" />
<path d="M 128.694, 28.984 
	L 128.693, 28.985 
	L 127.701, 28.985 
" />
<path d="M 128.198, 27.354 
	L 128.197, 27.355 
	L 128.480, 27.638 
	L 128.693, 27.355 
	L 128.480, 27.142 
	L 128.197, 27.355 
" />
<path d="M 127.702, 32.598 
	L 127.701, 32.599 
	L 129.543, 32.599 
" />
<path d="M 130.536, 32.598 
	L 130.535, 32.599 
	L 132.378, 32.599 
" />
<path d="M 133.442, 32.598 
	L 133.441, 32.599 
	L 135.283, 32.599 
" />
<path d="M 88.229, 31.394 
	L 88.228, 31.394 
	L 90.213, 38.410 
" />
<path d="M 91.347, 42.520 
	L 91.346, 42.520 
	L 93.614, 50.812 
" />
<path d="M 94.820, 54.992 
	L 94.819, 54.993 
	L 97.087, 63.284 
" />
<path d="M 98.221, 67.394 
	L 98.220, 67.394 
	L 100.559, 75.686 
" />
<path d="M 101.694, 79.866 
	L 101.693, 79.867 
	L 103.961, 88.087 
" />
<path d="M 105.095, 92.268 
	L 105.095, 92.268 
	L 107.433, 100.560 
" />
<path d="M 108.568, 104.669 
	L 108.567, 104.670 
	L 110.835, 112.961 
" />
<path d="M 112.040, 117.142 
	L 112.039, 117.142 
	L 114.307, 125.434 
" />
<path d="M 115.442, 129.543 
	L 115.441, 129.544 
	L 117.780, 137.835 
" />
<path d="M 118.914, 141.945 
	L 118.913, 141.946 
	L 121.181, 150.237 
" />
<path d="M 122.316, 154.417 
	L 122.315, 154.418 
	L 124.654, 162.709 
" />
<path d="M 125.788, 166.819 
	L 125.787, 166.820 
	L 128.055, 175.111 
" />
<path d="M 129.261, 179.220 
	L 129.260, 179.221 
	L 131.173, 186.237 
" />
<path d="M 147.261, 203.173 
	L 147.260, 203.174 
	L 152.504, 203.174 
	L 153.780, 203.599 
	L 154.205, 204.095 
	L 154.630, 204.946 
	L 154.630, 205.796 
	L 154.205, 206.717 
	L 153.780, 207.142 
	L 152.504, 207.568 
	L 153.780, 207.993 
" />
<path d="M 153.780, 207.993 
	L 154.205, 208.418 
	L 154.630, 209.339 
	L 154.630, 210.615 
	L 154.205, 211.465 
	L 153.780, 211.961 
	L 152.504, 212.387 
	L 147.260, 212.387 
" />
<path d="M 148.536, 212.386 
	L 148.535, 212.387 
	L 148.535, 203.174 
" />
<path d="M 148.961, 203.173 
	L 148.961, 203.174 
	L 148.961, 212.387 
" />
<path d="M 152.505, 212.386 
	L 152.504, 212.387 
	L 153.354, 211.961 
	L 153.780, 211.465 
	L 154.205, 210.615 
	L 154.205, 209.339 
	L 153.780, 208.418 
	L 153.354, 207.993 
	L 152.504, 207.568 
	L 153.354, 207.142 
	L 153.780, 206.717 
" />
<path d="M 153.780, 206.717 
	L 154.205, 205.796 
	L 154.205, 204.946 
	L 153.780, 204.095 
	L 153.354, 203.599 
	L 152.504, 203.174 
" />
<path d="M 152.505, 207.567 
	L 152.504, 207.568 
	L 148.961, 207.568 
" />
<path d="M 107.009, 31.394 
	L 107.008, 31.394 
	L 107.008, 28.489 
	L 106.724, 27.993 
	L 105.945, 27.709 
	L 106.441, 27.993 
	L 106.724, 28.489 
	L 106.724, 31.394 
" />
<path d="M 105.946, 31.394 
	L 105.945, 31.394 
	L 107.787, 31.394 
" />
<path d="M 104.883, 31.394 
	L 104.882, 31.394 
	L 103.039, 31.394 
" />
<path d="M 103.820, 31.394 
	L 103.819, 31.394 
	L 103.819, 27.709 
" />
<path d="M 104.103, 27.709 
	L 104.102, 27.709 
	L 104.102, 31.394 
" />
<path d="M 104.103, 28.488 
	L 104.102, 28.489 
	L 104.598, 27.993 
	L 105.378, 27.709 
	L 105.945, 27.709 
" />
<path d="M 104.103, 27.709 
	L 104.102, 27.709 
	L 103.039, 27.709 
" />
<path d="M 101.765, 27.709 
	L 101.764, 27.709 
	L 101.976, 27.993 
	L 101.976, 28.276 
	L 101.764, 28.489 
	L 101.480, 28.276 
	L 101.764, 27.993 
" />
<path d="M 101.765, 27.709 
	L 101.764, 27.709 
	L 100.984, 27.709 
	L 100.417, 27.993 
	L 99.921, 28.489 
	L 99.638, 29.339 
" />
<path d="M 99.639, 27.709 
	L 99.638, 27.709 
	L 99.638, 31.394 
" />
<path d="M 99.355, 31.394 
	L 99.354, 31.394 
	L 99.354, 27.709 
" />
<path d="M 99.639, 27.709 
	L 99.638, 27.709 
	L 98.575, 27.709 
" />
<path d="M 96.733, 27.709 
	L 96.732, 27.709 
	L 96.732, 31.394 
" />
<path d="M 96.520, 31.394 
	L 96.520, 31.394 
	L 97.583, 31.394 
" />
<path d="M 98.576, 31.394 
	L 98.575, 31.394 
	L 100.417, 31.394 
" />
<path d="M 96.520, 31.394 
	L 96.520, 31.394 
	L 96.520, 27.709 
" />
<path d="M 96.733, 27.709 
	L 96.732, 27.709 
	L 95.740, 27.709 
" />
<path d="M 93.898, 27.709 
	L 93.898, 27.709 
	L 93.898, 30.615 
	L 94.181, 31.111 
	L 94.677, 31.394 
	L 95.173, 31.394 
	L 95.953, 31.111 
	L 96.520, 30.615 
" />
<path d="M 94.678, 31.394 
	L 94.677, 31.394 
	L 93.898, 31.111 
	L 93.614, 30.615 
	L 93.614, 27.709 
" />
<path d="M 93.898, 27.709 
	L 93.898, 27.709 
	L 92.835, 27.709 
" />
<path d="M 90.993, 27.709 
	L 90.992, 27.709 
	L 88.937, 27.709 
" />
<path d="M 89.717, 25.866 
	L 89.717, 25.867 
	L 89.717, 30.331 
	L 89.929, 31.111 
	L 90.496, 31.394 
	L 90.992, 31.394 
	L 91.559, 31.111 
	L 91.772, 30.615 
" />
<path d="M 90.213, 31.110 
	L 90.213, 31.111 
	L 90.496, 31.394 
" />
<path d="M 90.213, 31.110 
	L 90.213, 31.111 
	L 89.929, 30.331 
	L 89.929, 25.867 
" />
<path d="M 80.505, 25.866 
	L 80.504, 25.867 
	L 80.504, 30.331 
	L 80.787, 31.111 
	L 81.071, 31.394 
	L 81.567, 31.394 
	L 82.063, 31.111 
	L 82.346, 30.615 
" />
<path d="M 81.072, 31.394 
	L 81.071, 31.394 
	L 80.504, 31.111 
	L 80.291, 30.331 
	L 80.291, 25.867 
" />
<path d="M 79.442, 27.709 
	L 79.441, 27.709 
	L 81.567, 27.709 
" />
<path d="M 77.670, 27.709 
	L 77.669, 27.709 
	L 77.669, 31.394 
" />
<path d="M 77.387, 31.394 
	L 77.386, 31.394 
	L 78.449, 31.394 
" />
<path d="M 77.387, 31.394 
	L 77.386, 31.394 
	L 77.386, 27.709 
" />
<path d="M 77.670, 27.709 
	L 77.669, 27.709 
	L 76.606, 27.709 
" />
<path d="M 74.765, 27.709 
	L 74.764, 27.709 
	L 74.764, 30.615 
	L 75.047, 31.111 
	L 75.543, 31.394 
	L 76.039, 31.394 
	L 76.890, 31.111 
	L 77.386, 30.615 
" />
<path d="M 75.544, 31.394 
	L 75.543, 31.394 
	L 74.764, 31.111 
	L 74.480, 30.615 
	L 74.480, 27.709 
" />
<path d="M 74.765, 27.709 
	L 74.764, 27.709 
	L 73.701, 27.709 
" />
<path d="M 72.142, 28.488 
	L 72.142, 28.489 
	L 71.646, 27.993 
	L 70.795, 27.709 
	L 70.299, 27.709 
	L 69.803, 27.993 
	L 69.236, 28.489 
	L 69.024, 29.339 
	L 69.024, 29.835 
	L 69.236, 30.615 
	L 69.803, 31.111 
	L 70.299, 31.394 
" />
<path d="M 70.299, 31.394 
	L 70.795, 31.394 
	L 71.646, 31.111 
	L 72.142, 30.615 
	L 72.425, 29.835 
	L 72.425, 29.339 
	L 72.142, 28.489 
" />
<path d="M 71.859, 28.488 
	L 71.858, 28.489 
	L 71.362, 27.993 
	L 70.795, 27.709 
" />
<path d="M 70.300, 27.709 
	L 70.299, 27.709 
	L 69.520, 27.993 
	L 69.024, 28.489 
	L 68.740, 29.339 
	L 68.740, 29.835 
	L 69.024, 30.615 
	L 69.520, 31.111 
	L 70.299, 31.394 
" />
<path d="M 70.796, 31.394 
	L 70.795, 31.394 
	L 71.362, 31.111 
	L 71.858, 30.615 
	L 72.142, 29.835 
	L 72.142, 29.339 
	L 71.858, 28.489 
" />
<path d="M 114.024, 0.000 
	L 114.024, 0.001 
	L 114.024, 320.953 
" />
<path d="M 114.024, 313.087 
	L 114.024, 313.087 
	L 118.843, 312.946 
	L 123.732, 312.520 
	L 128.551, 311.812 
	L 133.299, 310.820 
	L 138.047, 309.615 
	L 142.654, 308.056 
	L 147.189, 306.213 
	L 151.654, 304.158 
	L 155.906, 301.891 
" />
<path d="M 155.906, 301.891 
	L 160.087, 299.339 
	L 164.055, 296.505 
	L 167.882, 293.457 
	L 171.496, 290.268 
	L 174.969, 286.796 
	L 178.228, 283.182 
	L 181.276, 279.355 
	L 184.039, 275.316 
	L 186.591, 271.205 
	L 188.929, 266.883 
" />
<path d="M 188.929, 266.883 
	L 190.984, 262.489 
	L 192.756, 257.953 
	L 194.315, 253.276 
	L 195.591, 248.599 
	L 196.583, 243.780 
	L 197.291, 238.961 
	L 197.717, 234.142 
	L 197.858, 229.253 
	L 197.717, 224.363 
	L 197.291, 219.544 
" />
<path d="M 197.291, 219.544 
	L 196.583, 214.725 
	L 195.591, 209.906 
	L 194.315, 205.229 
	L 192.756, 200.552 
	L 190.984, 196.016 
	L 188.929, 191.623 
	L 186.591, 187.300 
	L 184.039, 183.190 
	L 181.276, 179.150 
	L 178.228, 175.324 
" />
<path d="M 178.228, 175.324 
	L 174.969, 171.709 
	L 171.496, 168.237 
	L 167.882, 165.048 
	L 164.055, 162.001 
	L 160.087, 159.166 
	L 155.906, 156.615 
	L 151.654, 154.347 
	L 147.189, 152.292 
	L 142.654, 150.450 
	L 138.047, 148.890 
" />
<path d="M 138.047, 148.890 
	L 133.299, 147.686 
	L 128.551, 146.694 
	L 123.732, 145.985 
	L 118.843, 145.560 
	L 114.024, 145.418 
	L 109.134, 145.560 
	L 104.244, 145.985 
	L 99.425, 146.694 
	L 94.677, 147.686 
	L 89.929, 148.890 
" />
<path d="M 89.929, 148.890 
	L 85.323, 150.450 
	L 80.787, 152.292 
	L 76.323, 154.347 
	L 72.071, 156.615 
	L 67.890, 159.166 
	L 63.921, 162.001 
	L 60.094, 165.048 
	L 56.480, 168.237 
	L 53.008, 171.709 
	L 49.748, 175.324 
	L 46.701, 179.150 
" />
<path d="M 46.701, 179.150 
	L 43.937, 183.190 
	L 41.386, 187.300 
	L 39.047, 191.623 
	L 36.992, 196.016 
	L 35.220, 200.552 
	L 33.661, 205.229 
	L 32.386, 209.906 
	L 31.394, 214.725 
	L 30.685, 219.544 
	L 30.260, 224.363 
	L 30.118, 229.253 
" />
<path d="M 30.118, 229.253 
	L 30.260, 234.142 
	L 30.685, 238.961 
	L 31.394, 243.780 
	L 32.386, 248.599 
	L 33.661, 253.276 
	L 35.220, 257.953 
	L 36.992, 262.489 
	L 39.047, 266.883 
	L 41.386, 271.205 
	L 43.937, 275.316 
	L 46.701, 279.355 
" />
<path d="M 46.701, 279.355 
	L 49.748, 283.182 
	L 53.008, 286.796 
	L 56.480, 290.268 
	L 60.094, 293.457 
	L 63.921, 296.505 
	L 67.890, 299.339 
	L 72.071, 301.891 
	L 76.323, 304.158 
	L 80.787, 306.213 
	L 85.323, 308.056 
	L 89.929, 309.615 
" />
<path d="M 89.929, 309.615 
	L 94.677, 310.820 
	L 99.425, 311.812 
	L 104.244, 312.520 
	L 109.134, 312.946 
	L 114.024, 313.087 
" />
<path d="M 114.024, 285.165 
	L 114.024, 285.166 
	L 117.992, 285.024 
	L 121.961, 284.599 
	L 125.858, 283.890 
	L 129.756, 282.898 
	L 133.512, 281.623 
	L 137.197, 280.135 
	L 140.811, 278.292 
	L 144.213, 276.308 
	L 147.472, 273.969 
" />
<path d="M 147.472, 273.969 
	L 150.591, 271.489 
	L 153.496, 268.796 
	L 156.260, 265.890 
	L 158.740, 262.772 
	L 161.008, 259.442 
	L 163.063, 256.040 
	L 164.835, 252.497 
	L 166.394, 248.812 
	L 167.598, 244.985 
	L 168.591, 241.158 
" />
<path d="M 168.591, 241.158 
	L 169.299, 237.190 
	L 169.724, 233.221 
	L 169.866, 229.253 
	L 169.724, 225.284 
	L 169.299, 221.316 
	L 168.591, 217.347 
	L 167.598, 213.520 
	L 166.394, 209.694 
	L 164.835, 206.009 
	L 163.063, 202.465 
" />
<path d="M 163.063, 202.465 
	L 161.008, 199.064 
	L 158.740, 195.733 
	L 156.260, 192.615 
	L 153.496, 189.709 
	L 150.591, 187.016 
	L 147.472, 184.536 
	L 144.213, 182.198 
	L 140.811, 180.213 
	L 137.197, 178.371 
	L 133.512, 176.883 
" />
<path d="M 133.512, 176.883 
	L 129.756, 175.607 
	L 125.858, 174.615 
	L 121.961, 173.906 
	L 117.992, 173.481 
	L 114.024, 173.339 
	L 109.984, 173.481 
	L 106.016, 173.906 
	L 102.118, 174.615 
	L 98.220, 175.607 
	L 94.465, 176.883 
" />
<path d="M 94.465, 176.883 
	L 90.780, 178.371 
	L 87.165, 180.213 
	L 83.764, 182.198 
	L 80.504, 184.536 
	L 77.386, 187.016 
	L 74.480, 189.709 
	L 71.717, 192.615 
	L 69.236, 195.733 
	L 66.969, 199.064 
	L 64.913, 202.465 
	L 63.142, 206.009 
" />
<path d="M 63.142, 206.009 
	L 61.583, 209.694 
	L 60.378, 213.520 
	L 59.386, 217.347 
	L 58.677, 221.316 
	L 58.252, 225.284 
	L 58.110, 229.253 
	L 58.252, 233.221 
	L 58.677, 237.190 
	L 59.386, 241.158 
	L 60.378, 244.985 
	L 61.583, 248.812 
" />
<path d="M 61.583, 248.812 
	L 63.142, 252.497 
	L 64.913, 256.040 
	L 66.969, 259.442 
	L 69.236, 262.772 
	L 71.717, 265.890 
	L 74.480, 268.796 
	L 77.386, 271.489 
	L 80.504, 273.969 
	L 83.764, 276.308 
	L 87.165, 278.292 
	L 90.780, 280.135 
" />
<path d="M 90.780, 280.135 
	L 94.465, 281.623 
	L 98.220, 282.898 
	L 102.118, 283.890 
	L 106.016, 284.599 
	L 109.984, 285.024 
	L 114.024, 285.166 
" />
<path d="M 114.024, 257.173 
	L 114.024, 257.174 
	L 116.717, 257.103 
	L 119.409, 256.678 
	L 122.102, 255.969 
	L 124.654, 255.048 
	L 127.134, 253.914 
	L 129.543, 252.497 
	L 131.740, 250.867 
	L 133.724, 249.024 
	L 135.567, 246.969 
" />
<path d="M 135.567, 246.969 
	L 137.197, 244.772 
	L 138.614, 242.434 
	L 139.819, 239.953 
	L 140.740, 237.331 
	L 141.378, 234.709 
	L 141.803, 232.016 
	L 141.945, 229.253 
	L 141.803, 226.489 
	L 141.378, 223.796 
	L 140.740, 221.174 
" />
<path d="M 140.740, 221.174 
	L 139.819, 218.552 
	L 138.614, 216.072 
	L 137.197, 213.733 
	L 135.567, 211.536 
	L 133.724, 209.481 
	L 131.740, 207.639 
	L 129.543, 206.009 
	L 127.134, 204.591 
	L 124.654, 203.457 
	L 122.102, 202.536 
" />
<path d="M 122.102, 202.536 
	L 119.409, 201.827 
	L 116.717, 201.402 
	L 114.024, 201.331 
	L 111.260, 201.402 
	L 108.567, 201.827 
	L 105.874, 202.536 
	L 103.323, 203.457 
	L 100.843, 204.591 
	L 98.433, 206.009 
	L 96.236, 207.639 
" />
<path d="M 96.236, 207.639 
	L 94.252, 209.481 
	L 92.409, 211.536 
	L 90.780, 213.733 
	L 89.362, 216.072 
	L 88.157, 218.552 
	L 87.236, 221.174 
	L 86.598, 223.796 
	L 86.173, 226.489 
	L 86.032, 229.253 
	L 86.173, 232.016 
	L 86.598, 234.709 
" />
<path d="M 86.598, 234.709 
	L 87.236, 237.331 
	L 88.157, 239.953 
	L 89.362, 242.434 
	L 90.780, 244.772 
	L 92.409, 246.969 
	L 94.252, 249.024 
	L 96.236, 250.867 
	L 98.433, 252.497 
	L 100.843, 253.914 
	L 103.323, 255.048 
	L 105.874, 255.969 
" />
<path d="M 105.874, 255.969 
	L 108.567, 256.678 
	L 111.260, 257.103 
	L 114.024, 257.174 
" />
<path d="M 114.024, 236.268 
	L 114.024, 236.268 
	L 115.370, 236.127 
	L 116.646, 235.702 
	L 117.850, 235.064 
	L 118.913, 234.213 
	L 119.764, 233.150 
	L 120.472, 231.946 
	L 120.827, 230.599 
	L 120.969, 229.253 
	L 120.827, 227.906 
" />
<path d="M 120.827, 227.906 
	L 120.472, 226.560 
	L 119.764, 225.355 
	L 118.913, 224.292 
	L 117.850, 223.442 
	L 116.646, 222.804 
	L 115.370, 222.379 
	L 114.024, 222.237 
	L 112.606, 222.379 
	L 111.331, 222.804 
	L 110.126, 223.442 
" />
<path d="M 110.126, 223.442 
	L 109.063, 224.292 
	L 108.213, 225.355 
	L 107.504, 226.560 
	L 107.150, 227.906 
	L 107.008, 229.253 
	L 107.150, 230.599 
	L 107.504, 231.946 
	L 108.213, 233.150 
	L 109.063, 234.213 
	L 110.126, 235.064 
" />
<path d="M 110.126, 235.064 
	L 111.331, 235.702 
	L 112.606, 236.127 
	L 114.024, 236.268 
" />
<path d="M 125.646, 194.528 
	L 125.646, 194.528 
	L 126.709, 195.379 
	L 127.843, 196.016 
	L 129.047, 196.442 
	L 130.323, 196.583 
	L 131.669, 196.513 
	L 132.945, 196.158 
	L 134.079, 195.520 
	L 135.142, 194.741 
	L 135.992, 193.749 
" />
<path d="M 135.992, 193.749 
	L 136.630, 192.615 
	L 136.984, 191.339 
	L 137.197, 190.064 
	L 137.055, 188.717 
	L 136.701, 187.513 
	L 136.134, 186.308 
	L 135.283, 185.316 
	L 134.291, 184.465 
	L 133.158, 183.827 
	L 131.953, 183.402 
" />
<path d="M 131.953, 183.402 
	L 130.606, 183.261 
	L 129.331, 183.331 
	L 128.055, 183.686 
	L 126.921, 184.324 
	L 125.858, 185.103 
	L 125.008, 186.095 
	L 124.370, 187.229 
	L 124.016, 188.505 
	L 123.803, 189.780 
	L 123.945, 191.056 
" />
<path d="M 123.945, 191.056 
	L 124.299, 192.331 
	L 124.866, 193.536 
	L 125.646, 194.528 
" />
<path d="M 126.709, 192.969 
	L 126.709, 192.969 
	L 127.488, 193.749 
	L 128.409, 194.316 
	L 129.472, 194.670 
	L 130.535, 194.741 
	L 131.598, 194.599 
	L 132.661, 194.245 
	L 133.512, 193.678 
	L 134.291, 192.898 
	L 134.858, 191.977 
" />
<path d="M 134.858, 191.977 
	L 135.213, 190.985 
	L 135.354, 189.851 
	L 135.213, 188.788 
	L 134.858, 187.796 
	L 134.291, 186.875 
	L 133.512, 186.095 
	L 132.591, 185.528 
	L 131.528, 185.174 
	L 130.465, 185.103 
	L 129.402, 185.174 
" />
<path d="M 129.402, 185.174 
	L 128.339, 185.599 
	L 127.417, 186.166 
	L 126.709, 186.946 
	L 126.142, 187.867 
	L 125.787, 188.859 
	L 125.646, 189.922 
	L 125.787, 191.056 
	L 126.142, 192.048 
	L 126.709, 192.969 
" />
<path d="M 129.969, 190.630 
	L 129.969, 190.631 
	L 130.252, 190.772 
	L 130.323, 190.843 
	L 130.677, 190.772 
	L 130.819, 190.489 
	L 130.323, 190.843 
" />
<path d="M 130.040, 190.630 
	L 130.039, 190.631 
	L 130.961, 190.064 
" />
<path d="M 131.032, 189.638 
	L 131.032, 189.639 
	L 129.898, 190.347 
" />
<path d="M 129.969, 190.276 
	L 129.969, 190.276 
	L 129.969, 190.631 
" />
<path d="M 129.969, 190.276 
	L 129.969, 190.276 
	L 130.819, 186.166 
	L 131.032, 185.953 
	L 131.315, 185.883 
	L 131.457, 185.883 
	L 131.669, 186.095 
	L 131.740, 186.379 
	L 130.819, 190.489 
" />
<path d="M 130.040, 189.992 
	L 130.039, 189.993 
	L 131.102, 189.284 
" />
<path d="M 131.174, 188.858 
	L 131.173, 188.859 
	L 130.110, 189.568 
" />
<path d="M 130.182, 189.213 
	L 130.181, 189.213 
	L 131.315, 188.505 
" />
<path d="M 131.387, 188.079 
	L 131.386, 188.079 
	L 130.252, 188.788 
" />
<path d="M 130.394, 188.362 
	L 130.394, 188.363 
	L 131.457, 187.654 
" />
<path d="M 131.528, 187.299 
	L 131.528, 187.300 
	L 130.465, 188.009 
" />
<path d="M 130.536, 187.583 
	L 130.535, 187.583 
	L 131.598, 186.875 
" />
<path d="M 131.741, 186.520 
	L 131.740, 186.520 
	L 130.606, 187.229 
" />
<path d="M 130.749, 186.803 
	L 130.748, 186.804 
	L 131.740, 186.166 
" />
<path d="M 131.528, 185.953 
	L 131.528, 185.953 
	L 130.819, 186.379 
" />
<path d="M 227.977, 229.252 
	L 227.976, 229.253 
	L 0.000, 229.253 
" />
<path d="M 0.001, 313.087 
	L 0.000, 313.087 
	L 227.976, 313.087 
" />
<path d="M 218.835, 320.953 
	L 218.835, 320.953 
	L 218.835, 0.001 
" />
<path d="M 9.142, 0.000 
	L 9.142, 0.001 
	L 9.142, 320.953 
" />
</g><g style="stroke:rgb(255,255,255); fill:none; stroke-width:0.100mm" >
</g>
</svg>
