<?xml version="1.0" encoding="UTF-8" standalone="no" ?>
<svg width="100%" height="100%" viewBox="0 0 22.039 109.702" xmlns="http://www.w3.org/2000/svg"><g>
</g><g style="stroke:rgb(0,0,0); fill:none; stroke-width:1.000mm" >
</g><g style="stroke:rgb(0,0,0); fill:none; stroke-width:0.100mm" >
<path d="M 19.276, 98.291 
	L 19.276, 98.292 
	L 19.276, 96.166 
" />
<path d="M 19.276, 94.039 
	L 19.276, 94.040 
	L 19.276, 89.788 
" />
<path d="M 18.780, 89.717 
	L 18.780, 89.717 
	L 19.134, 88.371 
	L 19.276, 86.883 
	L 19.134, 85.465 
	L 18.780, 84.048 
	L 18.213, 82.772 
	L 17.362, 81.568 
	L 16.370, 80.576 
	L 15.165, 79.725 
	L 13.819, 79.158 
	L 12.472, 78.733 
" />
<path d="M 12.472, 78.733 
	L 10.984, 78.591 
	L 9.567, 78.733 
	L 8.220, 79.158 
	L 6.874, 79.725 
	L 5.669, 80.576 
	L 4.677, 81.568 
	L 3.827, 82.772 
	L 3.260, 84.048 
	L 2.906, 85.465 
	L 2.764, 86.883 
	L 2.906, 88.371 
	L 3.260, 89.717 
" />
<path d="M 3.260, 89.717 
	L 3.827, 91.064 
	L 4.677, 92.268 
	L 5.669, 93.261 
	L 6.874, 94.111 
	L 8.220, 94.678 
	L 9.567, 95.103 
	L 10.984, 95.174 
	L 12.472, 95.103 
	L 13.819, 94.678 
	L 15.165, 94.111 
	L 16.370, 93.261 
	L 17.362, 92.268 
" />
<path d="M 17.362, 92.268 
	L 18.213, 91.064 
	L 18.780, 89.717 
" />
<path d="M 19.276, 87.661 
	L 19.276, 87.662 
	L 19.276, 83.339 
" />
<path d="M 19.276, 81.213 
	L 19.276, 81.213 
	L 19.276, 76.961 
" />
<path d="M 19.276, 74.835 
	L 19.276, 74.835 
	L 19.276, 70.513 
" />
<path d="M 19.276, 68.386 
	L 19.276, 68.387 
	L 19.276, 64.135 
" />
<path d="M 19.276, 62.008 
	L 19.276, 62.009 
	L 19.276, 57.757 
" />
<path d="M 19.276, 55.559 
	L 19.276, 55.560 
	L 19.276, 51.308 
" />
<path d="M 19.276, 49.181 
	L 19.276, 49.182 
	L 19.276, 44.930 
" />
<path d="M 19.276, 42.803 
	L 19.276, 42.804 
	L 19.276, 38.481 
" />
<path d="M 19.276, 36.354 
	L 19.276, 36.355 
	L 19.276, 32.103 
" />
<path d="M 19.276, 29.976 
	L 19.276, 29.977 
	L 19.276, 25.654 
" />
<path d="M 19.135, 25.724 
	L 19.134, 25.725 
	L 19.276, 24.237 
	L 19.134, 22.820 
	L 18.780, 21.402 
	L 18.213, 20.127 
	L 17.362, 18.922 
	L 16.370, 17.930 
	L 15.165, 17.079 
	L 13.819, 16.442 
	L 12.472, 16.087 
	L 10.984, 15.946 
" />
<path d="M 10.984, 15.946 
	L 9.567, 16.087 
	L 8.220, 16.442 
	L 6.874, 17.079 
	L 5.669, 17.930 
	L 4.677, 18.922 
	L 3.827, 20.127 
	L 3.260, 21.402 
	L 2.906, 22.820 
	L 2.764, 24.237 
	L 2.906, 25.725 
	L 3.260, 27.072 
	L 3.827, 28.418 
" />
<path d="M 3.827, 28.418 
	L 4.677, 29.552 
	L 5.669, 30.615 
	L 6.874, 31.465 
	L 8.220, 32.032 
	L 9.567, 32.387 
	L 10.984, 32.528 
	L 12.472, 32.387 
	L 13.819, 32.032 
	L 15.165, 31.465 
	L 16.370, 30.615 
	L 17.362, 29.552 
" />
<path d="M 17.362, 29.552 
	L 18.213, 28.418 
	L 18.780, 27.072 
	L 19.134, 25.725 
" />
<path d="M 19.276, 23.528 
	L 19.276, 23.528 
	L 19.276, 19.276 
" />
<path d="M 19.276, 17.150 
	L 19.276, 17.150 
	L 19.276, 12.898 
" />
<path d="M 17.363, 13.039 
	L 17.362, 13.040 
	L 18.213, 11.835 
	L 18.780, 10.489 
	L 19.134, 9.142 
	L 19.276, 7.654 
	L 19.134, 6.237 
	L 18.780, 4.820 
	L 18.213, 3.544 
	L 17.362, 2.339 
	L 16.370, 1.347 
	L 15.165, 0.497 
	L 13.819, -0.141 
" />
<path d="M 13.819, -0.141 
	L 12.472, -0.495 
	L 10.984, -0.637 
	L 9.567, -0.495 
	L 8.220, -0.141 
	L 6.874, 0.497 
	L 5.669, 1.347 
	L 4.677, 2.339 
	L 3.827, 3.544 
	L 3.260, 4.820 
	L 2.906, 6.237 
	L 2.764, 7.654 
	L 2.906, 9.142 
" />
<path d="M 2.906, 9.142 
	L 3.260, 10.489 
	L 3.827, 11.835 
	L 4.677, 13.040 
	L 5.669, 14.032 
	L 6.874, 14.883 
	L 8.220, 15.450 
	L 9.567, 15.875 
	L 10.984, 15.946 
	L 12.472, 15.875 
	L 13.819, 15.450 
	L 15.165, 14.883 
	L 16.370, 14.032 
" />
<path d="M 16.370, 14.032 
	L 17.362, 13.040 
" />
<path d="M 19.276, 10.701 
	L 19.276, 10.701 
	L 19.276, 6.450 
" />
<path d="M 19.276, 4.323 
	L 19.276, 4.324 
	L 19.276, 0.072 
" />
<path d="M 19.276, -2.055 
	L 19.276, -2.054 
	L 19.276, -4.251 
" />
<path d="M 2.764, -4.252 
	L 2.764, -4.251 
	L 2.764, -2.054 
" />
<path d="M 2.764, 0.071 
	L 2.764, 0.072 
	L 2.764, 4.324 
" />
<path d="M 2.764, 6.449 
	L 2.764, 6.450 
	L 2.764, 10.701 
" />
<path d="M 2.764, 12.898 
	L 2.764, 12.898 
	L 2.764, 17.150 
" />
<path d="M 2.764, 19.276 
	L 2.764, 19.276 
	L 2.764, 23.528 
" />
<path d="M 2.764, 25.654 
	L 2.764, 25.654 
	L 2.764, 29.977 
" />
<path d="M 2.764, 32.102 
	L 2.764, 32.103 
	L 2.764, 36.355 
" />
<path d="M 2.764, 38.480 
	L 2.764, 38.481 
	L 2.764, 42.804 
" />
<path d="M 2.764, 44.929 
	L 2.764, 44.930 
	L 2.764, 49.182 
" />
<path d="M 2.764, 51.307 
	L 2.764, 51.308 
	L 2.764, 55.560 
" />
<path d="M 2.764, 57.756 
	L 2.764, 57.757 
	L 2.764, 62.009 
" />
<path d="M 2.764, 64.134 
	L 2.764, 64.135 
	L 2.764, 68.387 
" />
<path d="M 2.764, 70.512 
	L 2.764, 70.513 
	L 2.764, 74.835 
" />
<path d="M 2.764, 76.961 
	L 2.764, 76.961 
	L 2.764, 81.213 
" />
<path d="M 2.764, 83.339 
	L 2.764, 83.339 
	L 2.764, 87.662 
" />
<path d="M 2.835, 88.087 
	L 2.835, 88.087 
	L 12.189, 78.733 
" />
<path d="M 11.268, 78.661 
	L 11.268, 78.662 
	L 2.764, 87.166 
" />
<path d="M 2.764, 86.102 
	L 2.764, 86.103 
	L 10.205, 78.662 
" />
<path d="M 9.001, 78.874 
	L 9.000, 78.875 
	L 2.976, 84.898 
" />
<path d="M 3.544, 83.268 
	L 3.543, 83.268 
	L 7.441, 79.442 
" />
<path d="M 13.040, 78.874 
	L 13.039, 78.875 
	L 2.976, 88.938 
" />
<path d="M 3.261, 89.717 
	L 3.260, 89.717 
	L 13.819, 79.087 
" />
<path d="M 14.528, 79.370 
	L 14.528, 79.371 
	L 3.543, 90.426 
" />
<path d="M 3.827, 91.063 
	L 3.827, 91.064 
	L 15.165, 79.725 
" />
<path d="M 15.804, 80.150 
	L 15.803, 80.150 
	L 4.252, 91.702 
" />
<path d="M 4.678, 92.268 
	L 4.677, 92.268 
	L 16.370, 80.576 
" />
<path d="M 16.867, 81.071 
	L 16.866, 81.072 
	L 5.173, 92.765 
" />
<path d="M 5.670, 93.260 
	L 5.669, 93.261 
	L 17.362, 81.568 
" />
<path d="M 17.788, 82.134 
	L 17.787, 82.135 
	L 6.236, 93.686 
" />
<path d="M 6.875, 94.110 
	L 6.874, 94.111 
	L 18.213, 82.772 
" />
<path d="M 18.497, 83.409 
	L 18.496, 83.410 
	L 7.512, 94.465 
" />
<path d="M 8.221, 94.748 
	L 8.220, 94.749 
	L 18.780, 84.119 
" />
<path d="M 19.064, 84.898 
	L 19.063, 84.898 
	L 9.000, 94.961 
" />
<path d="M 9.851, 95.102 
	L 9.850, 95.103 
	L 19.205, 85.749 
" />
<path d="M 19.276, 86.669 
	L 19.276, 86.670 
	L 10.772, 95.174 
" />
<path d="M 11.835, 95.173 
	L 11.835, 95.174 
	L 19.276, 87.733 
" />
<path d="M 19.064, 88.937 
	L 19.063, 88.938 
	L 13.039, 94.961 
" />
<path d="M 14.599, 94.394 
	L 14.598, 94.394 
	L 18.496, 90.568 
" />
<path d="M 18.497, 103.535 
	L 18.496, 103.536 
	L 18.142, 103.536 
	L 17.717, 103.678 
	L 17.433, 103.961 
	L 17.291, 104.316 
	L 17.291, 104.599 
	L 17.433, 105.024 
	L 17.717, 105.308 
	L 18.142, 105.450 
	L 18.425, 105.450 
	L 18.780, 105.308 
" />
<path d="M 18.780, 105.308 
	L 19.063, 105.024 
" />
<path d="M 19.064, 104.102 
	L 19.063, 104.103 
	L 19.063, 103.961 
	L 18.780, 103.678 
	L 18.496, 103.536 
" />
<path d="M 18.142, 103.535 
	L 18.142, 103.536 
	L 17.858, 103.678 
	L 17.575, 103.961 
	L 17.433, 104.316 
	L 17.433, 104.599 
	L 17.575, 105.024 
	L 17.858, 105.308 
	L 18.142, 105.450 
" />
<path d="M 18.780, 104.102 
	L 18.780, 104.103 
	L 18.921, 104.174 
	L 19.063, 104.103 
" />
<path d="M 18.922, 103.961 
	L 18.921, 103.961 
	L 18.780, 104.103 
" />
<path d="M 20.835, 104.315 
	L 20.835, 104.316 
	L 21.614, 105.450 
" />
<path d="M 21.757, 105.449 
	L 21.756, 105.450 
	L 20.976, 104.316 
" />
<path d="M 21.261, 103.535 
	L 21.260, 103.536 
	L 22.039, 103.536 
" />
<path d="M 21.615, 103.535 
	L 21.614, 103.536 
	L 20.268, 104.883 
" />
<path d="M 20.268, 105.449 
	L 20.268, 105.450 
	L 20.268, 102.615 
	L 19.772, 102.615 
" />
<path d="M 20.127, 102.614 
	L 20.126, 102.615 
	L 20.126, 105.450 
" />
<path d="M 19.772, 105.449 
	L 19.772, 105.450 
	L 20.693, 105.450 
" />
<path d="M 21.261, 105.449 
	L 21.260, 105.450 
	L 22.039, 105.450 
" />
<path d="M 16.087, 105.307 
	L 16.087, 105.308 
	L 16.370, 105.024 
	L 16.512, 104.599 
	L 16.512, 104.316 
	L 16.370, 103.961 
	L 16.087, 103.678 
	L 15.661, 103.536 
	L 15.449, 103.536 
	L 15.165, 103.678 
	L 14.882, 103.961 
	L 14.740, 104.316 
" />
<path d="M 14.740, 104.316 
	L 14.740, 104.599 
	L 14.882, 105.024 
	L 15.165, 105.308 
	L 15.449, 105.450 
	L 15.661, 105.450 
	L 16.087, 105.308 
" />
<path d="M 15.946, 105.307 
	L 15.945, 105.308 
	L 16.228, 105.024 
	L 16.370, 104.599 
	L 16.370, 104.316 
	L 16.228, 103.961 
	L 15.945, 103.678 
	L 15.661, 103.536 
" />
<path d="M 15.450, 103.535 
	L 15.449, 103.536 
	L 15.024, 103.678 
	L 14.740, 103.961 
	L 14.598, 104.316 
	L 14.598, 104.599 
	L 14.740, 105.024 
	L 15.024, 105.308 
	L 15.449, 105.450 
" />
<path d="M 15.662, 105.449 
	L 15.661, 105.450 
	L 15.945, 105.308 
" />
<path d="M 13.820, 105.307 
	L 13.819, 105.308 
	L 13.961, 105.166 
	L 13.961, 105.024 
" />
<path d="M 13.961, 105.165 
	L 13.961, 105.166 
	L 13.819, 105.450 
	L 13.535, 105.450 
	L 13.394, 105.308 
	L 13.110, 104.316 
	L 12.969, 104.103 
	L 13.110, 104.174 
	L 13.535, 105.166 
	L 13.677, 105.308 
	L 13.819, 105.308 
" />
<path d="M 12.473, 105.449 
	L 12.472, 105.450 
	L 11.480, 105.450 
" />
<path d="M 11.906, 105.449 
	L 11.906, 105.450 
	L 11.906, 102.615 
" />
<path d="M 12.048, 102.614 
	L 12.047, 102.615 
	L 12.047, 105.450 
" />
<path d="M 12.048, 103.961 
	L 12.047, 103.961 
	L 13.110, 103.961 
	L 13.394, 103.820 
	L 13.535, 103.678 
	L 13.677, 103.394 
	L 13.677, 103.111 
	L 13.535, 102.827 
	L 13.394, 102.686 
	L 13.110, 102.615 
	L 13.535, 102.686 
	L 13.677, 102.827 
" />
<path d="M 13.677, 102.827 
	L 13.819, 103.111 
	L 13.819, 103.394 
	L 13.677, 103.678 
	L 13.535, 103.820 
	L 13.110, 103.961 
" />
<path d="M 12.969, 104.102 
	L 12.969, 104.103 
	L 12.685, 103.961 
" />
<path d="M 13.111, 102.614 
	L 13.110, 102.615 
	L 11.480, 102.615 
" />
<path d="M 7.725, 102.614 
	L 7.724, 102.615 
	L 7.724, 105.450 
" />
<path d="M 7.583, 105.449 
	L 7.583, 105.450 
	L 7.583, 102.615 
" />
<path d="M 7.725, 102.614 
	L 7.724, 102.615 
	L 7.157, 102.615 
" />
<path d="M 6.237, 102.614 
	L 6.236, 102.615 
	L 6.236, 105.450 
" />
<path d="M 6.095, 105.449 
	L 6.094, 105.450 
	L 6.094, 102.615 
" />
<path d="M 6.237, 102.614 
	L 6.236, 102.615 
	L 5.669, 102.615 
" />
<path d="M 4.749, 103.535 
	L 4.748, 103.536 
	L 4.748, 105.450 
" />
<path d="M 4.607, 105.449 
	L 4.606, 105.450 
	L 5.102, 105.450 
" />
<path d="M 4.607, 105.449 
	L 4.606, 105.450 
	L 4.606, 103.536 
" />
<path d="M 4.749, 103.535 
	L 4.748, 103.536 
	L 4.181, 103.536 
" />
<path d="M 3.261, 103.535 
	L 3.260, 103.536 
	L 3.260, 105.024 
	L 3.402, 105.308 
	L 3.614, 105.450 
	L 3.898, 105.450 
	L 4.323, 105.308 
	L 4.606, 105.024 
" />
<path d="M 3.615, 105.449 
	L 3.614, 105.450 
	L 3.260, 105.308 
	L 3.118, 105.024 
	L 3.118, 103.536 
" />
<path d="M 3.261, 103.535 
	L 3.260, 103.536 
	L 2.693, 103.536 
" />
<path d="M 2.127, 103.394 
	L 2.126, 103.394 
	L 2.055, 102.615 
" />
<path d="M 2.127, 102.614 
	L 2.126, 102.615 
	L 2.126, 103.394 
" />
<path d="M 1.347, 103.394 
	L 1.346, 103.394 
	L 1.346, 104.457 
" />
<path d="M 1.347, 103.961 
	L 1.346, 103.961 
	L 0.567, 103.961 
" />
<path d="M 0.568, 102.614 
	L 0.567, 102.615 
	L 0.567, 105.450 
" />
<path d="M 0.426, 105.449 
	L 0.425, 105.450 
	L 0.425, 102.615 
" />
<path d="M 0.001, 102.614 
	L 0.000, 102.615 
	L 2.126, 102.615 
" />
<path d="M 0.922, 105.449 
	L 0.921, 105.450 
	L 0.000, 105.450 
" />
<path d="M 5.670, 105.449 
	L 5.669, 105.450 
	L 6.591, 105.450 
" />
<path d="M 7.158, 105.449 
	L 7.157, 105.450 
	L 8.079, 105.450 
" />
<path d="M 2.764, 98.291 
	L 2.764, 98.292 
	L 2.764, 96.166 
" />
<path d="M 2.764, 94.039 
	L 2.764, 94.040 
	L 2.764, 89.788 
" />
</g><g style="stroke:rgb(255,255,255); fill:none; stroke-width:0.100mm" >
</g>
</svg>
