  0
SECTION
  2
HEADER
  9
$ACADVER
  1
AC1006
  9
$INSBASE
 10
0.0
 20
0.0
 30
0.0
  9
$EXTMIN
 10
0.105952
 20
-0.030952
  9
$EXTMAX
 10
3.445531
 20
1.9
  9
$LIMMIN
 10
0.0
 20
0.0
  9
$LIMMAX
 10
287.0
 20
205.0
  9
$ORTHOMODE
 70
     0
  9
$REGENMODE
 70
     1
  9
$FILLMODE
 70
     1
  9
$QTEXTMODE
 70
     0
  9
$MIRRTEXT
 70
     1
  9
$DRAGMODE
 70
     2
  9
$LTSCALE
 40
0.3
  9
$OSMODE
 70
     0
  9
$ATTMODE
 70
     1
  9
$TEXTSIZE
 40
0.05
  9
$TRACEWID
 40
5.0
  9
$TEXTSTYLE
  7
ROMAN
  9
$CLAYER
  8
0
  9
$CELTYPE
  6
VONLAYER
  9
$CECOLOR
 62
   256
  9
$DIMSCALE
 40
1.0
  9
$DIMASZ
 40
3.5
  9
$DIMEXO
 40
0.1
  9
$DIMDLI
 40
7.0
  9
$DIMRND
 40
0.0
  9
$DIMDLE
 40
0.0
  9
$DIMEXE
 40
1.8
  9
$DIMTP
 40
0.0
  9
$DIMTM
 40
0.0
  9
$DIMTXT
 40
3.5
  9
$DIMCEN
 40
1.5
  9
$DIMTSZ
 40
0.0
  9
$DIMTOL
 70
     0
  9
$DIMLIM
 70
     0
  9
$DIMTIH
 70
     1
  9
$DIMTOH
 70
     1
  9
$DIMSE1
 70
     0
  9
$DIMSE2
 70
     0
  9
$DIMTAD
 70
     0
  9
$DIMZIN
 70
     0
  9
$DIMBLK
  1

  9
$DIMASO
 70
     1
  9
$DIMSHO
 70
     0
  9
$DIMPOST
  1

  9
$DIMAPOST
  1

  9
$DIMALT
 70
     0
  9
$DIMALTD
 70
     2
  9
$DIMALTF
 40
25.4
  9
$DIMLFAC
 40
1.0
  9
$DIMTOFL
 70
     0
  9
$DIMTVP
 40
0.0
  9
$DIMTIX
 70
     0
  9
$DIMSOXD
 70
     0
  9
$DIMSAH
 70
     0
  9
$DIMBLK1
  1

  9
$DIMBLK2
  1

  9
$LUNITS
 70
     2
  9
$LUPREC
 70
     2
  9
$AXISMODE
 70
     0
  9
$AXISUNIT
 10
0.0
 20
0.0
  9
$SKETCHINC
 40
1.0
  9
$FILLETRAD
 40
0.0
  9
$AUNITS
 70
     0
  9
$AUPREC
 70
     0
  9
$MENU
  1
ACAD
  9
$ELEVATION
 40
0.0
  9
$THICKNESS
 40
0.0
  9
$LIMCHECK
 70
     0
  9
$BLIPMODE
 70
     1
  9
$CHAMFERA
 40
0.0
  9
$CHAMFERB
 40
0.0
  9
$SKPOLY
 70
     0
  9
$TDCREATE
 40
2450748.7873593750
  9
$TDUPDATE
 40
2450751.0768174767
  9
$TDINDWG
 40
0.0246608796
  9
$TDUSRTIMER
 40
0.0246608796
  9
$USRTIMER
 70
     1
  9
$ANGBASE
 50
0.0
  9
$ANGDIR
 70
     0
  9
$PDMODE
 70
     0
  9
$PDSIZE
 40
0.0
  9
$PLINEWID
 40
0.0
  9
$COORDS
 70
     2
  9
$SPLFRAME
 70
     0
  9
$SPLINETYPE
 70
     6
  9
$SPLINESEGS
 70
     8
  9
$ATTDIA
 70
     0
  9
$ATTREQ
 70
     1
  9
$HANDLING
 70
     0
  9
$HANDSEED
  5
0
  9
$SURFTAB1
 70
     6
  9
$SURFTAB2
 70
     6
  9
$SURFTYPE
 70
     6
  9
$SURFU
 70
     6
  9
$SURFV
 70
     6
  9
$FLATLAND
 70
     1
  9
$UCSNAME
  2

  9
$UCSORG
 10
0.0
 20
0.0
 30
0.0
  9
$UCSXDIR
 10
1.0
 20
0.0
 30
0.0
  9
$UCSYDIR
 10
0.0
 20
1.0
 30
0.0
  9
$USERI1
 70
     0
  9
$USERI2
 70
     0
  9
$USERI3
 70
     0
  9
$USERI4
 70
     0
  9
$USERI5
 70
     0
  9
$USERR1
 40
0.0
  9
$USERR2
 40
0.0
  9
$USERR3
 40
0.0
  9
$USERR4
 40
0.0
  9
$USERR5
 40
0.0
  9
$WORLDVIEW
 70
     1
  9
$VIEWCTR
 10
2.239572
 20
0.866741
  9
$VIEWSIZE
 40
22.275777
  9
$SNAPMODE
 70
     1
  9
$SNAPUNIT
 10
0.05
 20
0.05
  9
$SNAPBASE
 10
0.0
 20
0.0
  9
$SNAPANG
 50
0.0
  9
$SNAPSTYLE
 70
     0
  9
$SNAPISOPAIR
 70
     0
  9
$GRIDMODE
 70
     0
  9
$GRIDUNIT
 10
0.0
 20
0.0
  9
$FASTZOOM
 70
     1
  9
$VIEWDIR
 10
0.0
 20
0.0
 30
1.0
  0
ENDSEC
  0
SECTION
  2
TABLES
  0
TABLE
  2
VPORT
 70
     2
  0
VPORT
  2
*ACTIVE
 70
     0
 10
0.0
 20
0.0
 11
1.0
 21
1.0
 12
2.239572
 22
0.866741
 13
0.0
 23
0.0
 14
0.05
 24
0.05
 15
0.0
 25
0.0
 16
0.0
 26
0.0
 36
1.0
 17
0.0
 27
0.0
 37
0.0
 40
3.119233
 41
1.635702
 42
50.0
 43
0.0
 44
0.0
 50
0.0
 51
0.0
 71
     0
 72
   100
 73
     1
 74
     1
 75
     1
 76
     0
 77
     0
 78
     0
  0
ENDTAB
  0
TABLE
  2
LTYPE
 70
    12
  0
LTYPE
  2
AUSGEZOGEN
 70
    64
  3
Ausgezogene Linie
 72
    65
 73
     0
 40
0.0
  0
LTYPE
  2
VERDECKT
 70
    64
  3
_ _ _ _ _ _ _ _ _ _ _ _ _ _ _ _ _ _ _ _ _ _ _
 72
    65
 73
     2
 40
0.375
 49
0.25
 49
-0.125
  0
LTYPE
  2
GESTRICHELT
 70
     0
  3
__ __ __ __ __ __ __ __ __ __ __ __ __ __ __
 72
    65
 73
     2
 40
0.75
 49
0.5
 49
-0.25
  0
LTYPE
  2
MITTE
 70
     0
  3
____ _ ____ _ ____ _ ____ _ ____ _ ____ _ ____
 72
    65
 73
     4
 40
2.0
 49
1.25
 49
-0.25
 49
0.25
 49
-0.25
  0
LTYPE
  2
PHANTOM
 70
     0
  3
_____ _ _ _____ _ _ _____ _ _ _____ _ _ ____
 72
    65
 73
     6
 40
2.5
 49
1.25
 49
-0.25
 49
0.25
 49
-0.25
 49
0.25
 49
-0.25
  0
LTYPE
  2
PUNKT
 70
     0
  3
...............................................
 72
    65
 73
     2
 40
0.25
 49
0.0
 49
-0.25
  0
LTYPE
  2
STRICHPUNKT
 70
     0
  3
__ . __ . __ . __ . __ . __ . __ . __ . __ . __
 72
    65
 73
     4
 40
1.0
 49
0.5
 49
-0.25
 49
0.0
 49
-0.25
  0
LTYPE
  2
RAND
 70
     0
  3
__ __ . __ __ . __ __ . __ __ . __ __ . __ __
 72
    65
 73
     6
 40
1.75
 49
0.5
 49
-0.25
 49
0.5
 49
-0.25
 49
0.0
 49
-0.25
  0
LTYPE
  2
GETRENNT
 70
     0
  3
__ . . __ . . __ . . __ . . __ . . __ . . __
 72
    65
 73
     6
 40
1.25
 49
0.5
 49
-0.25
 49
0.0
 49
-0.25
 49
0.0
 49
-0.25
  0
LTYPE
  2
CONTINUOUS
 70
     0
  3
Eine "Dummy" fuer englische DXF-Dateien
 72
    65
 73
     2
 40
1.0
 49
1.0
 49
0.0
  0
LTYPE
  2
HIDDEN
 70
     0
  3
_ _ _ _ _ _ _ _ _ _ _ _ _ _ _ _ _ _ _ _ _ _ _
 72
    65
 73
     2
 40
0.375
 49
0.25
 49
-0.125
  0
LTYPE
  2
DASHED
 70
     0
  3
__ __ __ __ __ __ __ __ __ __ __ __ __ __ __
 72
    65
 73
     2
 40
0.75
 49
0.5
 49
-0.25
  0
ENDTAB
  0
TABLE
  2
LAYER
 70
     6
  0
LAYER
  2
0
 70
    64
 62
     7
  6
AUSGEZOGEN
  0
LAYER
  2
A
 70
    64
 62
     7
  6
AUSGEZOGEN
  0
LAYER
  2
B
 70
    64
 62
     7
  6
AUSGEZOGEN
  0
LAYER
  2
C
 70
    64
 62
     7
  6
AUSGEZOGEN
  0
LAYER
  2
D
 70
    64
 62
     7
  6
AUSGEZOGEN
  0
LAYER
  2
E
 70
    64
 62
     7
  6
AUSGEZOGEN
  0
ENDTAB
  0
TABLE
  2
STYLE
 70
     7
  0
STYLE
  2
STANDARD
 70
     0
 40
0.0
 41
1.0
 50
0.0
 71
     0
 42
3.5
  3
txt
  4

  0
STYLE
  2
KURSIV
 70
     0
 40
0.0
 41
1.0
 50
0.0
 71
     0
 42
3.5
  3
Italic
  4

  0
STYLE
  2
KOMPLEX
 70
     0
 40
0.0
 41
1.2
 50
0.0
 71
     0
 42
3.5
  3
Complex
  4

  0
STYLE
  2
MONOTXT
 70
     0
 40
0.0
 41
1.0
 50
0.0
 71
     0
 42
3.5
  3
Monotxt
  4

  0
STYLE
  2
SIMPLEX
 70
     0
 40
0.0
 41
1.0
 50
0.0
 71
     0
 42
3.5
  3
Simplex
  4

  0
STYLE
  2
VERTIKAL
 70
     0
 40
0.0
 41
1.0
 50
0.0
 71
     0
 42
3.5
  3
COMPLEX
  4

  0
STYLE
  2
ROMAN
 70
    64
 40
0.0
 41
1.0
 50
0.0
 71
     0
 42
0.05
  3
romanc
  4

  0
ENDTAB
  0
TABLE
  2
VIEW
 70
     5
  0
VIEW
  2
FIG04A
 70
     0
 40
2.1
 10
0.3
 20
0.95
 41
0.5
 11
0.0
 21
0.0
 31
1.0
 12
0.0
 22
0.0
 32
0.0
 42
50.0
 43
0.0
 44
0.0
 50
0.0
 71
     0
  0
VIEW
  2
FIG04B
 70
     0
 40
1.95
 10
1.0
 20
0.925
 41
0.9
 11
0.0
 21
0.0
 31
1.0
 12
0.0
 22
0.0
 32
0.0
 42
50.0
 43
0.0
 44
0.0
 50
0.0
 71
     0
  0
VIEW
  2
FIG04C
 70
     0
 40
2.018413
 10
1.767437
 20
0.940794
 41
0.565125
 11
0.0
 21
0.0
 31
1.0
 12
0.0
 22
0.0
 32
0.0
 42
50.0
 43
0.0
 44
0.0
 50
0.0
 71
     0
  0
VIEW
  2
FIG04D
 70
     0
 40
2.05
 10
2.5
 20
0.975
 41
0.7
 11
0.0
 21
0.0
 31
1.0
 12
0.0
 22
0.0
 32
0.0
 42
50.0
 43
0.0
 44
0.0
 50
0.0
 71
     0
  0
VIEW
  2
FIG04E
 70
     0
 40
2.018413
 10
3.210676
 20
0.940794
 41
0.678647
 11
0.0
 21
0.0
 31
1.0
 12
0.0
 22
0.0
 32
0.0
 42
50.0
 43
0.0
 44
0.0
 50
0.0
 71
     0
  0
ENDTAB
  0
TABLE
  2
UCS
 70
     0
  0
ENDTAB
  0
TABLE
  2
DWGMGR
 70
     0
  0
ENDTAB
  0
ENDSEC
  0
SECTION
  2
BLOCKS
  0
BLOCK
  8
0
  2
ROCKL
 70
     0
 10
0.0
 20
0.0
  0
INSERT
  8
0
  2
*X1
 10
-10.04
 20
-10.02
  0
CIRCLE
  8
0
 10
0.0
 20
0.0
 40
0.145531
  0
POLYLINE
  8
0
 66
     1
 70
     1
  0
VERTEX
  8
0
 10
-0.001
 20
0.02
  0
VERTEX
  8
0
 10
0.001
 20
0.02
 42
-0.414214
  0
VERTEX
  8
0
 10
0.01
 20
0.011
  0
VERTEX
  8
0
 10
0.01
 20
-0.081
 42
-0.414214
  0
VERTEX
  8
0
 10
0.001
 20
-0.09
  0
VERTEX
  8
0
 10
-0.001
 20
-0.09
 42
-0.414214
  0
VERTEX
  8
0
 10
-0.01
 20
-0.081
  0
VERTEX
  8
0
 10
-0.01
 20
0.011
 42
-0.414214
  0
SEQEND
  8
0
  0
CIRCLE
  8
0
 10
0.0
 20
0.0
 40
0.105531
  0
ENDBLK
  8
0
  0
BLOCK
  8
0
  2
*X1
 70
    65
 10
0.0
 20
0.0
  0
LINE
  8
0
 62
     0
 10
10.03
 20
9.976967
 11
10.05
 21
9.996967
  0
LINE
  8
0
 62
     0
 10
10.03
 20
9.985806
 11
10.05
 21
10.005806
  0
LINE
  8
0
 62
     0
 10
10.03
 20
9.994645
 11
10.05
 21
10.014645
  0
LINE
  8
0
 62
     0
 10
10.03
 20
10.003483
 11
10.05
 21
10.023483
  0
LINE
  8
0
 62
     0
 10
10.03
 20
10.012322
 11
10.049915
 21
10.032237
  0
LINE
  8
0
 62
     0
 10
10.03
 20
10.021161
 11
10.046757
 21
10.037918
  0
LINE
  8
0
 62
     0
 10
10.03
 20
10.03
 11
10.04
 21
10.04
  0
LINE
  8
0
 62
     0
 10
10.03
 20
9.968128
 11
10.05
 21
9.988128
  0
LINE
  8
0
 62
     0
 10
10.03
 20
9.959289
 11
10.05
 21
9.979289
  0
LINE
  8
0
 62
     0
 10
10.03
 20
9.95045
 11
10.05
 21
9.97045
  0
LINE
  8
0
 62
     0
 10
10.03
 20
9.941612
 11
10.05
 21
9.961612
  0
LINE
  8
0
 62
     0
 10
10.031402
 20
9.934175
 11
10.05
 21
9.952773
  0
LINE
  8
0
 62
     0
 10
10.036438
 20
9.930372
 11
10.05
 21
9.943934
  0
ENDBLK
  8
0
  0
BLOCK
  8
0
  2
ROCK
 70
    64
 10
0.0
 20
0.0
  0
CIRCLE
  8
0
 10
0.0
 20
0.0
 40
0.145531
  0
ENDBLK
  8
0
  0
BLOCK
  8
0
  2
*X3
 70
    65
 10
0.0
 20
0.0
  0
LINE
  8
0
 62
     0
 10
0.197094
 20
0.197094
 11
0.402906
 21
0.402906
  0
LINE
  8
0
 62
     0
 10
0.188635
 20
0.206313
 11
0.393687
 21
0.411365
  0
LINE
  8
0
 62
     0
 10
0.180946
 20
0.216301
 11
0.383699
 21
0.419054
  0
LINE
  8
0
 62
     0
 10
0.174052
 20
0.227085
 11
0.372915
 21
0.425948
  0
LINE
  8
0
 62
     0
 10
0.168003
 20
0.238713
 11
0.361287
 21
0.431997
  0
LINE
  8
0
 62
     0
 10
0.162873
 20
0.251261
 11
0.348739
 21
0.437127
  0
LINE
  8
0
 62
     0
 10
0.158779
 20
0.264845
 11
0.335155
 21
0.441221
  0
LINE
  8
0
 62
     0
 10
0.1559
 20
0.279643
 11
0.320357
 21
0.4441
  0
LINE
  8
0
 62
     0
 10
0.154525
 20
0.295947
 11
0.304053
 21
0.445475
  0
LINE
  8
0
 62
     0
 10
0.15517
 20
0.314269
 11
0.285731
 21
0.44483
  0
LINE
  8
0
 62
     0
 10
0.158913
 20
0.33569
 11
0.26431
 21
0.441087
  0
LINE
  8
0
 62
     0
 10
0.16906
 20
0.363515
 11
0.236485
 21
0.43094
  0
LINE
  8
0
 62
     0
 10
0.206313
 20
0.188635
 11
0.411365
 21
0.393687
  0
LINE
  8
0
 62
     0
 10
0.216301
 20
0.180946
 11
0.419054
 21
0.383699
  0
LINE
  8
0
 62
     0
 10
0.227085
 20
0.174052
 11
0.425948
 21
0.372915
  0
LINE
  8
0
 62
     0
 10
0.238713
 20
0.168003
 11
0.431997
 21
0.361287
  0
LINE
  8
0
 62
     0
 10
0.251261
 20
0.162873
 11
0.437127
 21
0.348739
  0
LINE
  8
0
 62
     0
 10
0.264845
 20
0.158779
 11
0.441221
 21
0.335155
  0
LINE
  8
0
 62
     0
 10
0.279643
 20
0.1559
 11
0.4441
 21
0.320357
  0
LINE
  8
0
 62
     0
 10
0.295947
 20
0.154525
 11
0.445475
 21
0.304053
  0
LINE
  8
0
 62
     0
 10
0.314269
 20
0.15517
 11
0.44483
 21
0.285731
  0
LINE
  8
0
 62
     0
 10
0.33569
 20
0.158913
 11
0.441087
 21
0.26431
  0
LINE
  8
0
 62
     0
 10
0.363515
 20
0.16906
 11
0.43094
 21
0.236485
  0
ENDBLK
  8
0
  0
BLOCK
  8
B
  2
*X4
 70
    65
 10
0.0
 20
0.0
  0
LINE
  8
0
 62
     0
 10
0.927907
 20
0.2208
 11
1.093987
 21
0.38688
  0
LINE
  8
0
 62
     0
 10
0.921366
 20
0.231937
 11
1.086057
 21
0.396628
  0
LINE
  8
0
 62
     0
 10
0.915697
 20
0.243946
 11
1.077362
 21
0.405611
  0
LINE
  8
0
 62
     0
 10
0.910992
 20
0.256918
 11
1.067907
 21
0.413833
  0
LINE
  8
0
 62
     0
 10
0.907389
 20
0.270993
 11
1.057675
 21
0.421279
  0
LINE
  8
0
 62
     0
 10
0.905107
 20
0.286388
 11
1.046636
 21
0.427917
  0
LINE
  8
0
 62
     0
 10
0.90451
 20
0.303469
 11
1.034732
 21
0.433691
  0
LINE
  8
0
 62
     0
 10
0.906285
 20
0.322922
 11
1.021878
 21
0.438515
  0
LINE
  8
0
 62
     0
 10
0.912053
 20
0.346368
 11
1.003632
 21
0.437947
  0
LINE
  8
0
 62
     0
 10
0.929269
 20
0.381262
 11
0.968738
 21
0.420731
  0
LINE
  8
0
 62
     0
 10
0.935261
 20
0.210477
 11
1.101131
 21
0.376347
  0
LINE
  8
0
 62
     0
 10
0.943394
 20
0.200932
 11
1.107449
 21
0.364987
  0
LINE
  8
0
 62
     0
 10
0.952289
 20
0.192149
 11
1.112875
 21
0.352735
  0
LINE
  8
0
 62
     0
 10
0.961947
 20
0.184129
 11
1.117306
 21
0.339488
  0
LINE
  8
0
 62
     0
 10
0.972387
 20
0.176892
 11
1.120586
 21
0.325091
  0
LINE
  8
0
 62
     0
 10
0.983648
 20
0.170475
 11
1.122468
 21
0.309296
  0
LINE
  8
0
 62
     0
 10
0.995792
 20
0.164941
 11
1.122527
 21
0.291677
  0
LINE
  8
0
 62
     0
 10
1.008916
 20
0.160388
 11
1.119928
 21
0.271399
  0
LINE
  8
0
 62
     0
 10
1.030951
 20
0.164745
 11
1.112489
 21
0.246283
  0
ENDBLK
  8
B
  0
BLOCK
  8
C
  2
*X5
 70
    65
 10
0.0
 20
0.0
  0
LINE
  8
0
 62
     0
 10
1.663566
 20
0.249353
 11
1.782816
 21
0.368603
  0
LINE
  8
0
 62
     0
 10
1.65931
 20
0.262774
 11
1.776236
 21
0.3797
  0
LINE
  8
0
 62
     0
 10
1.656238
 20
0.277379
 11
1.768844
 21
0.389986
  0
LINE
  8
0
 62
     0
 10
1.654617
 20
0.293436
 11
1.760676
 21
0.399495
  0
LINE
  8
0
 62
     0
 10
1.654917
 20
0.311414
 11
1.751746
 21
0.408243
  0
LINE
  8
0
 62
     0
 10
1.658091
 20
0.332265
 11
1.742052
 21
0.416226
  0
LINE
  8
0
 62
     0
 10
1.66682
 20
0.358673
 11
1.731574
 21
0.423427
  0
LINE
  8
0
 62
     0
 10
1.668838
 20
0.236946
 11
1.788527
 21
0.356636
  0
LINE
  8
0
 62
     0
 10
1.675016
 20
0.225447
 11
1.79328
 21
0.343711
  0
LINE
  8
0
 62
     0
 10
1.682029
 20
0.214782
 11
1.796939
 21
0.329692
  0
LINE
  8
0
 62
     0
 10
1.689832
 20
0.204908
 11
1.799289
 21
0.314365
  0
LINE
  8
0
 62
     0
 10
1.698403
 20
0.195801
 11
1.799976
 21
0.297374
  0
LINE
  8
0
 62
     0
 10
1.707734
 20
0.187455
 11
1.798336
 21
0.278057
  0
LINE
  8
0
 62
     0
 10
1.717838
 20
0.17988
 11
1.792825
 21
0.254868
  0
LINE
  8
0
 62
     0
 10
1.73331
 20
0.177675
 11
1.776794
 21
0.221159
  0
ENDBLK
  8
C
  0
BLOCK
  8
D
  2
*X6
 70
    65
 10
0.0
 20
0.0
  0
LINE
  8
0
 62
     0
 10
2.407843
 20
0.268845
 11
2.473166
 21
0.334168
  0
LINE
  8
0
 62
     0
 10
2.405348
 20
0.284028
 11
2.46915
 21
0.34783
  0
LINE
  8
0
 62
     0
 10
2.404471
 20
0.300828
 11
2.464088
 21
0.360445
  0
LINE
  8
0
 62
     0
 10
2.405831
 20
0.319866
 11
2.458099
 21
0.372134
  0
LINE
  8
0
 62
     0
 10
2.410824
 20
0.342537
 11
2.451263
 21
0.382975
  0
LINE
  8
0
 62
     0
 10
2.424799
 20
0.37419
 11
2.443627
 21
0.393018
  0
LINE
  8
0
 62
     0
 10
2.411619
 20
0.254944
 11
2.475952
 21
0.319276
  0
LINE
  8
0
 62
     0
 10
2.416474
 20
0.24212
 11
2.477206
 21
0.302853
  0
LINE
  8
0
 62
     0
 10
2.422276
 20
0.230245
 11
2.476392
 21
0.284361
  0
LINE
  8
0
 62
     0
 10
2.428939
 20
0.219231
 11
2.47236
 21
0.262652
  0
LINE
  8
0
 62
     0
 10
2.43641
 20
0.209024
 11
2.46143
 21
0.234044
  0
ENDBLK
  8
D
  0
BLOCK
  8
E
  2
*X7
 70
    65
 10
0.0
 20
0.0
  0
LINE
  8
0
 62
     0
 10
3.154749
 20
0.290967
 11
3.187533
 21
0.323751
  0
LINE
  8
0
 62
     0
 10
3.154724
 20
0.308619
 11
3.184365
 21
0.33826
  0
LINE
  8
0
 62
     0
 10
3.157377
 20
0.32895
 11
3.180029
 21
0.351602
  0
LINE
  8
0
 62
     0
 10
3.164931
 20
0.354181
 11
3.174687
 21
0.363938
  0
LINE
  8
0
 62
     0
 10
3.156607
 20
0.275147
 11
3.189275
 21
0.307815
  0
LINE
  8
0
 62
     0
 10
3.159867
 20
0.26073
 11
3.189141
 21
0.290003
  0
LINE
  8
0
 62
     0
 10
3.164281
 20
0.247466
 11
3.186235
 21
0.26942
  0
LINE
  8
0
 62
     0
 10
3.169692
 20
0.235199
 11
3.178125
 21
0.243631
  0
ENDBLK
  8
E
  0
ENDSEC
  0
SECTION
  2
ENTITIES
  0
LINE
  8
A
  6
VERDECKT
 10
0.445531
 20
0.1
 11
0.445531
 21
1.9
  0
LINE
  8
A
  6
VERDECKT
 10
0.154469
 20
0.1
 11
0.154469
 21
1.9
  0
INSERT
  8
A
  2
ROCK
 10
0.3
 20
0.3
  0
INSERT
  8
A
  2
ROCK
 10
0.3
 20
1.4
  0
INSERT
  8
B
  2
ROCK
 10
1.05
 20
1.4
  0
INSERT
  8
B
  2
ROCK
 10
1.05
 20
0.3
  0
LINE
  8
B
  6
VERDECKT
 10
0.904469
 20
0.1
 11
0.904469
 21
1.9
  0
LINE
  8
B
  6
VERDECKT
 10
1.122766
 20
0.1
 11
1.122766
 21
1.9
  0
INSERT
  8
C
  2
ROCK
 10
1.8
 20
1.4
  0
INSERT
  8
C
  2
ROCK
 10
1.8
 20
0.3
  0
LINE
  8
C
  6
VERDECKT
 10
1.654469
 20
0.1
 11
1.654469
 21
1.9
  0
LINE
  8
C
  6
VERDECKT
 10
1.8
 20
0.1
 11
1.8
 21
1.9
  0
INSERT
  8
D
  2
ROCK
 10
2.55
 20
1.4
  0
INSERT
  8
D
  2
ROCK
 10
2.55
 20
0.3
  0
LINE
  8
D
  6
VERDECKT
 10
2.404469
 20
0.1
 11
2.404469
 21
1.9
  0
LINE
  8
D
  6
VERDECKT
 10
2.477234
 20
0.1
 11
2.477234
 21
1.9
  0
INSERT
  8
E
  2
ROCK
 10
3.3
 20
1.4
  0
INSERT
  8
E
  2
ROCK
 10
3.3
 20
0.3
  0
LINE
  8
E
  6
VERDECKT
 10
3.154469
 20
0.1
 11
3.154469
 21
1.9
  0
LINE
  8
E
  6
VERDECKT
 10
3.189485
 20
0.1
 11
3.189485
 21
1.9
  0
INSERT
  8
A
  2
ROCK
 10
0.3
 20
1.691062
  0
INSERT
  8
A
  2
*X3
 10
0.0
 20
0.0
  0
TEXT
  8
A
 10
0.10119
 20
-0.025
 40
0.05
  1
Full Rock
  7
ROMAN
 72
     4
 11
0.3
 21
0.0
  0
TEXT
  8
B
 10
0.588617
 20
-0.019048
 40
0.05
  1
Three-Quarter Rock
  7
ROMAN
 72
     4
 11
1.013617
 21
0.0
  0
TEXT
  8
C
 10
1.523663
 20
-0.025
 40
0.05
  1
Half Rock
  7
ROMAN
 72
     4
 11
1.727234
 21
0.0
  0
TEXT
  8
D
 10
2.159899
 20
-0.019048
 40
0.05
  1
Quarter Rock
  7
ROMAN
 72
     4
 11
2.440852
 21
0.0
  0
TEXT
  8
E
 10
3.001739
 20
-0.025
 40
0.05
  1
Fine Hit
  7
ROMAN
 72
     4
 11
3.171977
 21
0.0
  0
INSERT
  8
B
  2
ROCK
 10
0.977234
 20
0.3
  0
INSERT
  8
C
  2
ROCK
 10
1.654469
 20
0.3
  0
INSERT
  8
D
  2
ROCK
 10
2.331703
 20
0.3
  0
INSERT
  8
E
  2
ROCK
 10
3.043953
 20
0.3
  0
INSERT
  8
B
  2
*X4
 10
0.0
 20
0.0
  0
INSERT
  8
C
  2
*X5
 10
0.0
 20
0.0
  0
INSERT
  8
D
  2
*X6
 10
0.0
 20
0.0
  0
INSERT
  8
E
  2
*X7
 10
0.0
 20
0.0
  0
CIRCLE
  8
0
 10
0.977234
 20
1.68182
 40
0.145531
  0
CIRCLE
  8
0
 10
1.654469
 20
1.652067
 40
0.145531
  0
CIRCLE
  8
0
 10
2.331703
 20
1.59252
 40
0.145531
  0
CIRCLE
  8
0
 10
3.043953
 20
1.53841
 40
0.145531
  0
ENDSEC
  0
EOF
