<?xml version="1.0" encoding="UTF-8" standalone="no" ?>
<svg width="100%" height="100%" viewBox="0 0 24.875 109.631" xmlns="http://www.w3.org/2000/svg"><g>
</g><g style="stroke:rgb(0,0,0); fill:none; stroke-width:1.000mm" >
</g><g style="stroke:rgb(0,0,0); fill:none; stroke-width:0.100mm" >
<path d="M 24.875, 26.008 
	L 24.874, 26.009 
	L 24.732, 24.591 
	L 24.378, 23.174 
	L 23.740, 21.898 
	L 22.961, 20.694 
	L 21.898, 19.631 
	L 20.764, 18.851 
	L 19.417, 18.213 
	L 18.000, 17.859 
	L 16.583, 17.717 
	L 15.165, 17.859 
" />
<path d="M 15.165, 17.859 
	L 13.748, 18.213 
	L 12.472, 18.851 
	L 11.268, 19.631 
	L 10.276, 20.694 
	L 9.425, 21.898 
	L 8.787, 23.174 
	L 8.433, 24.591 
	L 8.291, 26.009 
	L 8.433, 27.426 
	L 8.787, 28.843 
	L 9.425, 30.119 
" />
<path d="M 9.425, 30.119 
	L 10.276, 31.324 
	L 11.268, 32.387 
	L 12.472, 33.166 
	L 13.748, 33.804 
	L 15.165, 34.158 
	L 16.583, 34.300 
	L 18.000, 34.158 
	L 19.417, 33.804 
	L 20.764, 33.166 
	L 21.898, 32.387 
	L 22.961, 31.324 
" />
<path d="M 22.961, 31.324 
	L 23.740, 30.119 
	L 24.378, 28.843 
	L 24.732, 27.426 
	L 24.874, 26.009 
" />
<path d="M 16.583, 25.299 
	L 16.583, 25.300 
	L 16.583, 21.048 
" />
<path d="M 16.583, 18.921 
	L 16.583, 18.922 
	L 16.583, 14.599 
" />
<path d="M 16.583, 12.472 
	L 16.583, 12.473 
	L 16.583, 8.221 
" />
<path d="M 16.583, 6.094 
	L 16.583, 6.095 
	L 16.583, 1.772 
" />
<path d="M 16.583, -0.354 
	L 16.583, -0.354 
	L 16.583, -2.480 
" />
<path d="M 8.292, -2.480 
	L 8.291, -2.480 
	L 8.291, -0.354 
" />
<path d="M 8.292, 1.772 
	L 8.291, 1.772 
	L 8.291, 6.095 
" />
<path d="M 8.292, 8.220 
	L 8.291, 8.221 
	L 8.291, 12.473 
" />
<path d="M 8.292, 14.598 
	L 8.291, 14.599 
	L 8.291, 18.922 
" />
<path d="M 8.292, 21.047 
	L 8.291, 21.048 
	L 8.291, 25.300 
" />
<path d="M 8.292, 27.425 
	L 8.291, 27.426 
	L 8.291, 31.678 
" />
<path d="M 8.292, 33.803 
	L 8.291, 33.804 
	L 8.291, 38.127 
" />
<path d="M 8.292, 40.252 
	L 8.291, 40.253 
	L 8.291, 44.505 
" />
<path d="M 8.292, 46.630 
	L 8.291, 46.631 
	L 8.291, 50.953 
" />
<path d="M 8.292, 53.079 
	L 8.291, 53.079 
	L 8.291, 57.331 
" />
<path d="M 8.292, 59.457 
	L 8.291, 59.457 
	L 8.291, 63.709 
" />
<path d="M 8.292, 65.906 
	L 8.291, 65.906 
	L 8.291, 70.158 
" />
<path d="M 8.292, 72.283 
	L 8.291, 72.284 
	L 8.291, 76.536 
" />
<path d="M 8.292, 78.661 
	L 8.291, 78.662 
	L 8.291, 82.985 
" />
<path d="M 8.292, 85.110 
	L 8.291, 85.111 
	L 8.291, 89.363 
" />
<path d="M 8.292, 88.654 
	L 8.291, 88.654 
	L 8.433, 90.072 
	L 8.787, 91.489 
	L 9.425, 92.765 
	L 10.276, 93.969 
	L 11.268, 95.032 
	L 12.472, 95.812 
	L 13.748, 96.450 
	L 15.165, 96.804 
	L 16.583, 96.946 
	L 18.000, 96.804 
" />
<path d="M 18.000, 96.804 
	L 19.417, 96.450 
	L 20.764, 95.812 
	L 21.898, 95.032 
	L 22.961, 93.969 
	L 23.740, 92.765 
	L 24.378, 91.489 
	L 24.732, 90.072 
	L 24.874, 88.654 
	L 24.732, 87.237 
	L 24.378, 85.820 
	L 23.740, 84.473 
" />
<path d="M 23.740, 84.473 
	L 22.961, 83.339 
	L 21.898, 82.276 
	L 20.764, 81.497 
	L 19.417, 80.859 
	L 18.000, 80.505 
	L 16.583, 80.363 
	L 15.165, 80.505 
	L 13.748, 80.859 
	L 12.472, 81.497 
	L 11.268, 82.276 
	L 10.276, 83.339 
" />
<path d="M 10.276, 83.339 
	L 9.425, 84.473 
	L 8.787, 85.820 
	L 8.433, 87.237 
	L 8.291, 88.654 
" />
<path d="M 8.292, 91.488 
	L 8.291, 91.489 
	L 8.291, 95.741 
" />
<path d="M 8.292, 97.937 
	L 8.291, 97.938 
	L 8.291, 100.064 
" />
<path d="M 7.654, 104.315 
	L 7.654, 104.316 
	L 7.654, 107.150 
" />
<path d="M 7.513, 107.150 
	L 7.512, 107.150 
	L 7.512, 104.316 
" />
<path d="M 7.654, 104.315 
	L 7.654, 104.316 
	L 7.087, 104.316 
" />
<path d="M 9.142, 104.457 
	L 9.142, 104.457 
	L 9.000, 104.741 
	L 9.000, 107.150 
" />
<path d="M 9.142, 107.150 
	L 9.142, 107.150 
	L 9.142, 104.741 
	L 9.283, 104.457 
	L 9.425, 104.316 
	L 9.142, 104.457 
" />
<path d="M 9.426, 104.315 
	L 9.425, 104.316 
	L 9.638, 104.316 
	L 9.780, 104.457 
	L 9.780, 104.599 
	L 9.638, 104.741 
	L 9.567, 104.599 
	L 9.638, 104.457 
" />
<path d="M 9.639, 105.236 
	L 9.638, 105.237 
	L 8.575, 105.237 
" />
<path d="M 8.576, 107.150 
	L 8.575, 107.150 
	L 9.567, 107.150 
" />
<path d="M 8.079, 107.150 
	L 8.079, 107.150 
	L 7.087, 107.150 
" />
<path d="M 6.520, 107.150 
	L 6.520, 107.150 
	L 6.449, 107.150 
	L 6.307, 107.009 
	L 6.165, 106.725 
	L 6.165, 105.804 
	L 6.024, 105.520 
	L 6.024, 106.725 
	L 6.165, 107.009 
	L 6.449, 107.150 
" />
<path d="M 5.741, 107.008 
	L 5.740, 107.009 
	L 6.024, 106.725 
" />
<path d="M 5.741, 107.008 
	L 5.740, 107.009 
	L 5.457, 107.150 
	L 5.031, 107.150 
	L 4.819, 107.009 
	L 4.677, 106.725 
	L 4.677, 106.513 
	L 4.819, 106.229 
	L 5.031, 106.087 
	L 4.677, 106.229 
	L 4.535, 106.513 
	L 4.535, 106.725 
" />
<path d="M 4.535, 106.725 
	L 4.677, 107.009 
	L 5.031, 107.150 
" />
<path d="M 5.032, 106.087 
	L 5.031, 106.087 
	L 5.882, 105.946 
	L 6.024, 105.804 
" />
<path d="M 6.024, 105.520 
	L 6.024, 105.520 
	L 5.882, 105.379 
	L 5.598, 105.237 
	L 5.031, 105.237 
	L 4.819, 105.379 
	L 4.677, 105.520 
	L 4.677, 105.662 
	L 4.819, 105.662 
	L 4.819, 105.520 
" />
<path d="M 3.331, 105.661 
	L 3.331, 105.662 
	L 1.701, 105.662 
" />
<path d="M 1.701, 104.315 
	L 1.701, 104.316 
	L 1.701, 107.150 
" />
<path d="M 1.560, 107.150 
	L 1.559, 107.150 
	L 1.559, 104.316 
" />
<path d="M 1.135, 104.315 
	L 1.134, 104.316 
	L 2.055, 104.316 
" />
<path d="M 2.906, 104.315 
	L 2.906, 104.316 
	L 3.827, 104.316 
" />
<path d="M 3.473, 104.315 
	L 3.472, 104.316 
	L 3.472, 107.150 
" />
<path d="M 3.331, 107.150 
	L 3.331, 107.150 
	L 3.331, 104.316 
" />
<path d="M 2.906, 107.150 
	L 2.906, 107.150 
	L 3.827, 107.150 
" />
<path d="M 2.056, 107.150 
	L 2.055, 107.150 
	L 1.134, 107.150 
" />
<path d="M 13.182, 107.150 
	L 13.181, 107.150 
	L 14.173, 107.150 
" />
<path d="M 13.749, 107.150 
	L 13.748, 107.150 
	L 13.748, 104.316 
" />
<path d="M 13.607, 104.315 
	L 13.606, 104.316 
	L 13.606, 107.150 
" />
<path d="M 15.095, 107.008 
	L 15.094, 107.009 
	L 15.236, 107.150 
	L 15.520, 107.150 
	L 15.661, 106.867 
	L 15.661, 106.725 
" />
<path d="M 15.662, 106.866 
	L 15.661, 106.867 
	L 15.520, 107.009 
	L 15.378, 107.009 
	L 15.236, 106.867 
	L 14.811, 105.946 
	L 14.669, 105.804 
	L 14.811, 106.087 
	L 15.094, 107.009 
" />
<path d="M 15.095, 105.520 
	L 15.094, 105.520 
	L 14.811, 105.662 
	L 13.748, 105.662 
" />
<path d="M 14.387, 105.661 
	L 14.386, 105.662 
	L 14.669, 105.804 
" />
<path d="M 14.812, 105.661 
	L 14.811, 105.662 
	L 15.236, 105.520 
	L 15.378, 105.379 
	L 15.520, 105.095 
	L 15.520, 104.883 
	L 15.378, 104.599 
	L 15.236, 104.457 
	L 14.811, 104.316 
	L 15.094, 104.457 
	L 15.236, 104.599 
	L 15.378, 104.883 
" />
<path d="M 15.378, 104.883 
	L 15.378, 105.095 
	L 15.236, 105.379 
	L 15.094, 105.520 
" />
<path d="M 16.442, 105.661 
	L 16.441, 105.662 
	L 16.299, 106.087 
	L 16.299, 106.371 
	L 16.441, 106.725 
	L 16.724, 107.009 
	L 17.150, 107.150 
	L 17.433, 107.150 
	L 17.787, 107.009 
	L 18.071, 106.725 
	L 18.213, 106.371 
	L 18.213, 106.087 
" />
<path d="M 18.213, 106.087 
	L 18.071, 105.662 
	L 17.787, 105.379 
	L 17.433, 105.237 
	L 17.150, 105.237 
	L 16.866, 105.379 
	L 16.583, 105.662 
	L 16.441, 106.087 
	L 16.441, 106.371 
	L 16.583, 106.725 
	L 16.866, 107.009 
	L 17.150, 107.150 
" />
<path d="M 17.150, 107.150 
" />
<path d="M 17.434, 107.150 
	L 17.433, 107.150 
	L 17.646, 107.009 
	L 17.929, 106.725 
	L 18.071, 106.371 
	L 18.071, 106.087 
	L 17.929, 105.662 
	L 17.646, 105.379 
	L 17.433, 105.237 
" />
<path d="M 17.150, 105.236 
	L 17.150, 105.237 
	L 16.724, 105.379 
	L 16.441, 105.662 
" />
<path d="M 19.135, 105.661 
	L 19.134, 105.662 
	L 18.992, 106.087 
	L 18.992, 106.371 
	L 19.134, 106.725 
	L 19.417, 107.009 
	L 19.843, 107.150 
	L 20.126, 107.150 
	L 20.551, 107.009 
	L 20.764, 106.725 
" />
<path d="M 20.623, 105.945 
	L 20.622, 105.946 
	L 20.764, 105.804 
	L 20.764, 105.662 
	L 20.551, 105.379 
	L 20.268, 105.237 
	L 19.843, 105.237 
	L 19.417, 105.379 
	L 19.134, 105.662 
" />
<path d="M 19.276, 105.661 
	L 19.276, 105.662 
	L 19.134, 106.087 
	L 19.134, 106.371 
	L 19.276, 106.725 
	L 19.559, 107.009 
	L 19.843, 107.150 
" />
<path d="M 21.473, 107.150 
	L 21.472, 107.150 
	L 22.394, 107.150 
" />
<path d="M 22.040, 107.150 
	L 22.039, 107.150 
	L 22.039, 104.316 
	L 21.472, 104.316 
" />
<path d="M 21.898, 104.315 
	L 21.898, 104.316 
	L 21.898, 107.150 
" />
<path d="M 22.040, 106.583 
	L 22.039, 106.583 
	L 23.386, 105.237 
" />
<path d="M 23.741, 105.236 
	L 23.740, 105.237 
	L 22.961, 105.237 
" />
<path d="M 22.678, 106.087 
	L 22.677, 106.087 
	L 23.528, 107.150 
" />
<path d="M 23.387, 107.150 
	L 23.386, 107.150 
	L 22.535, 106.087 
" />
<path d="M 22.961, 107.150 
	L 22.961, 107.150 
	L 23.740, 107.150 
" />
<path d="M 20.623, 105.945 
	L 20.622, 105.946 
	L 20.551, 105.804 
	L 20.622, 105.662 
" />
<path d="M 19.843, 105.236 
	L 19.843, 105.237 
	L 19.559, 105.379 
	L 19.276, 105.662 
" />
<path d="M 14.812, 104.315 
	L 14.811, 104.316 
	L 13.181, 104.316 
" />
<path d="M 16.583, 100.063 
	L 16.583, 100.064 
	L 16.583, 97.938 
" />
<path d="M 16.583, 95.740 
	L 16.583, 95.741 
	L 16.583, 91.489 
" />
<path d="M 16.087, 91.488 
	L 16.087, 91.489 
	L 16.441, 90.072 
	L 16.583, 88.654 
	L 16.441, 87.237 
	L 16.087, 85.820 
	L 15.449, 84.473 
	L 14.669, 83.339 
	L 13.606, 82.276 
	L 12.472, 81.497 
	L 11.126, 80.859 
	L 9.780, 80.505 
" />
<path d="M 9.780, 80.505 
	L 8.291, 80.363 
	L 6.874, 80.505 
	L 5.457, 80.859 
	L 4.181, 81.497 
	L 2.976, 82.276 
	L 1.984, 83.339 
	L 1.134, 84.473 
	L 0.496, 85.820 
	L 0.142, 87.237 
	L 0.000, 88.654 
	L 0.142, 90.072 
	L 0.496, 91.489 
" />
<path d="M 0.496, 91.489 
	L 1.134, 92.765 
	L 1.984, 93.969 
	L 2.976, 95.032 
	L 4.181, 95.812 
	L 5.457, 96.450 
	L 6.874, 96.804 
	L 8.291, 96.946 
	L 9.780, 96.804 
	L 11.126, 96.450 
	L 12.472, 95.812 
	L 13.606, 95.032 
	L 14.669, 93.969 
" />
<path d="M 14.669, 93.969 
	L 15.449, 92.765 
	L 16.087, 91.489 
" />
<path d="M 16.158, 91.205 
	L 16.157, 91.205 
	L 11.906, 95.457 
" />
<path d="M 11.339, 95.032 
	L 11.339, 95.032 
	L 16.512, 89.930 
" />
<path d="M 16.583, 89.362 
	L 16.583, 89.363 
	L 16.583, 85.111 
" />
<path d="M 15.946, 85.394 
	L 15.945, 85.394 
	L 9.142, 92.268 
" />
<path d="M 9.497, 92.906 
	L 9.496, 92.906 
	L 16.228, 86.174 
" />
<path d="M 16.442, 86.953 
	L 16.441, 86.953 
	L 9.850, 93.473 
" />
<path d="M 10.347, 94.039 
	L 10.346, 94.040 
	L 16.583, 87.804 
" />
<path d="M 16.583, 88.795 
	L 16.583, 88.796 
	L 10.843, 94.607 
" />
<path d="M 12.827, 95.598 
	L 12.827, 95.599 
	L 15.307, 93.119 
" />
<path d="M 8.859, 91.559 
	L 8.858, 91.560 
	L 15.591, 84.757 
" />
<path d="M 15.237, 84.118 
	L 15.236, 84.119 
	L 8.575, 90.780 
" />
<path d="M 8.434, 89.929 
	L 8.433, 89.930 
	L 14.811, 83.552 
" />
<path d="M 14.387, 82.984 
	L 14.386, 82.985 
	L 8.291, 89.009 
" />
<path d="M 8.363, 88.016 
	L 8.362, 88.016 
	L 13.819, 82.489 
" />
<path d="M 13.324, 82.063 
	L 13.323, 82.064 
	L 8.504, 86.812 
" />
<path d="M 9.001, 85.323 
	L 9.000, 85.324 
	L 12.685, 81.639 
" />
<path d="M 16.583, 82.984 
	L 16.583, 82.985 
	L 16.583, 78.662 
" />
<path d="M 16.583, 76.535 
	L 16.583, 76.536 
	L 16.583, 72.284 
" />
<path d="M 16.583, 70.157 
	L 16.583, 70.158 
	L 16.583, 65.906 
" />
<path d="M 16.583, 63.709 
	L 16.583, 63.709 
	L 16.583, 59.457 
" />
<path d="M 16.583, 57.331 
	L 16.583, 57.331 
	L 16.583, 53.079 
" />
<path d="M 16.583, 50.953 
	L 16.583, 50.953 
	L 16.583, 46.631 
" />
<path d="M 16.583, 44.504 
	L 16.583, 44.505 
	L 16.583, 40.253 
" />
<path d="M 16.583, 38.126 
	L 16.583, 38.127 
	L 16.583, 33.804 
" />
<path d="M 16.583, 31.677 
	L 16.583, 31.678 
	L 16.583, 27.426 
" />
<path d="M 14.670, 17.008 
	L 14.669, 17.009 
	L 15.449, 15.804 
	L 16.087, 14.457 
	L 16.441, 13.111 
	L 16.583, 11.623 
	L 16.441, 10.205 
	L 16.087, 8.788 
	L 15.449, 7.513 
	L 14.669, 6.308 
	L 13.606, 5.316 
	L 12.472, 4.465 
" />
<path d="M 12.472, 4.465 
	L 11.126, 3.898 
	L 9.780, 3.473 
	L 8.291, 3.331 
	L 6.874, 3.473 
	L 5.457, 3.898 
	L 4.181, 4.465 
	L 2.976, 5.316 
	L 1.984, 6.308 
	L 1.134, 7.513 
	L 0.496, 8.788 
	L 0.142, 10.205 
	L 0.000, 11.623 
" />
<path d="M 0.000, 11.623 
	L 0.142, 13.111 
	L 0.496, 14.457 
	L 1.134, 15.804 
	L 1.984, 17.009 
	L 2.976, 18.001 
	L 4.181, 18.851 
	L 5.457, 19.418 
	L 6.874, 19.843 
	L 8.291, 19.914 
	L 9.780, 19.843 
	L 11.126, 19.418 
	L 12.472, 18.851 
" />
<path d="M 12.472, 18.851 
	L 13.606, 18.001 
	L 14.669, 17.009 
" />
</g><g style="stroke:rgb(255,255,255); fill:none; stroke-width:0.100mm" >
</g>
</svg>
