<?xml version="1.0" encoding="UTF-8" standalone="no" ?>
<svg width="100%" height="100%" viewBox="0 0 47.835 109.985" xmlns="http://www.w3.org/2000/svg"><g>
</g><g style="stroke:rgb(0,0,0); fill:none; stroke-width:1.000mm" >
</g><g style="stroke:rgb(0,0,0); fill:none; stroke-width:0.100mm" >
<path d="M 34.300, 27.425 
	L 34.299, 27.426 
	L 34.157, 25.938 
	L 33.803, 24.591 
	L 33.165, 23.245 
	L 32.315, 22.111 
	L 31.323, 21.048 
	L 30.118, 20.268 
	L 28.843, 19.631 
	L 27.425, 19.276 
	L 26.008, 19.135 
	L 24.520, 19.276 
" />
<path d="M 24.520, 19.276 
	L 23.173, 19.631 
	L 21.827, 20.268 
	L 20.693, 21.048 
	L 19.630, 22.111 
	L 18.780, 23.245 
	L 18.213, 24.591 
	L 17.858, 25.938 
	L 17.717, 27.426 
	L 17.858, 28.843 
	L 18.213, 30.261 
	L 18.780, 31.536 
" />
<path d="M 18.780, 31.536 
	L 19.630, 32.741 
	L 20.693, 33.733 
	L 21.827, 34.583 
	L 23.173, 35.221 
	L 24.520, 35.576 
	L 26.008, 35.717 
	L 27.425, 35.576 
	L 28.843, 35.221 
	L 30.118, 34.583 
	L 31.323, 33.733 
	L 32.315, 32.741 
" />
<path d="M 32.315, 32.741 
	L 33.165, 31.536 
	L 33.803, 30.261 
	L 34.157, 28.843 
	L 34.299, 27.426 
" />
<path d="M 30.119, 26.717 
	L 30.118, 26.717 
	L 30.118, 22.394 
" />
<path d="M 30.119, 20.268 
	L 30.118, 20.268 
	L 30.118, 16.016 
" />
<path d="M 30.119, 13.890 
	L 30.118, 13.890 
	L 30.118, 9.639 
" />
<path d="M 30.119, 7.512 
	L 30.118, 7.513 
	L 30.118, 3.190 
" />
<path d="M 30.119, 1.063 
	L 30.118, 1.064 
	L 30.118, -1.062 
" />
<path d="M 17.717, -1.063 
	L 17.717, -1.062 
	L 17.717, 1.064 
" />
<path d="M 17.717, 3.189 
	L 17.717, 3.190 
	L 17.717, 7.513 
" />
<path d="M 17.717, 9.638 
	L 17.717, 9.639 
	L 17.717, 13.890 
" />
<path d="M 17.717, 16.016 
	L 17.717, 16.016 
	L 17.717, 20.268 
" />
<path d="M 17.717, 22.394 
	L 17.717, 22.394 
	L 17.717, 26.717 
" />
<path d="M 17.717, 28.843 
	L 17.717, 28.843 
	L 17.717, 33.095 
" />
<path d="M 17.717, 35.220 
	L 17.717, 35.221 
	L 17.717, 39.544 
" />
<path d="M 17.717, 41.669 
	L 17.717, 41.670 
	L 17.717, 45.922 
" />
<path d="M 17.717, 48.047 
	L 17.717, 48.048 
	L 17.717, 52.300 
" />
<path d="M 17.717, 54.496 
	L 17.717, 54.497 
	L 17.717, 58.749 
" />
<path d="M 17.717, 60.874 
	L 17.717, 60.875 
	L 17.717, 65.127 
" />
<path d="M 17.717, 67.252 
	L 17.717, 67.253 
	L 17.717, 71.576 
" />
<path d="M 17.717, 73.701 
	L 17.717, 73.702 
	L 17.717, 77.953 
" />
<path d="M 17.717, 80.079 
	L 17.717, 80.079 
	L 17.717, 84.331 
" />
<path d="M 17.717, 86.528 
	L 17.717, 86.528 
	L 17.717, 90.780 
" />
<path d="M 17.717, 90.071 
	L 17.717, 90.072 
	L 17.858, 91.489 
	L 18.213, 92.906 
	L 18.780, 94.182 
	L 19.630, 95.387 
	L 20.693, 96.379 
	L 21.827, 97.229 
	L 23.173, 97.867 
	L 24.520, 98.221 
	L 26.008, 98.363 
	L 27.425, 98.221 
" />
<path d="M 27.425, 98.221 
	L 28.843, 97.867 
	L 30.118, 97.229 
	L 31.323, 96.379 
	L 32.315, 95.387 
	L 33.165, 94.182 
	L 33.803, 92.906 
	L 34.157, 91.489 
	L 34.299, 90.072 
	L 34.157, 88.583 
	L 33.803, 87.237 
	L 33.165, 85.890 
" />
<path d="M 33.165, 85.890 
	L 32.315, 84.757 
	L 31.323, 83.694 
	L 30.118, 82.843 
	L 28.843, 82.276 
	L 27.425, 81.922 
	L 26.008, 81.780 
	L 24.520, 81.922 
	L 23.173, 82.276 
	L 21.827, 82.843 
	L 20.693, 83.694 
	L 19.630, 84.757 
" />
<path d="M 19.630, 84.757 
	L 18.780, 85.890 
	L 18.213, 87.237 
	L 17.858, 88.583 
	L 17.717, 90.072 
" />
<path d="M 17.717, 92.906 
	L 17.717, 92.906 
	L 17.717, 97.158 
" />
<path d="M 17.717, 99.283 
	L 17.717, 99.284 
	L 17.717, 101.410 
" />
<path d="M 17.576, 105.378 
	L 17.575, 105.379 
	L 17.220, 105.520 
	L 16.937, 105.804 
	L 16.795, 106.087 
	L 16.654, 106.583 
	L 16.654, 107.009 
	L 16.795, 107.576 
	L 16.937, 107.788 
	L 17.220, 108.072 
	L 17.575, 108.213 
	L 17.858, 108.213 
" />
<path d="M 17.858, 108.213 
	L 18.283, 108.072 
	L 18.567, 107.788 
	L 18.709, 107.576 
	L 18.850, 107.009 
	L 18.850, 106.583 
	L 18.709, 106.087 
	L 18.567, 105.804 
	L 18.283, 105.520 
	L 17.858, 105.379 
	L 17.575, 105.379 
	L 17.362, 105.520 
" />
<path d="M 17.362, 105.520 
	L 17.079, 105.804 
	L 16.937, 106.087 
	L 16.795, 106.583 
	L 16.795, 107.009 
	L 16.937, 107.576 
	L 17.079, 107.788 
	L 17.362, 108.072 
	L 17.575, 108.213 
" />
<path d="M 17.859, 108.213 
	L 17.858, 108.213 
	L 18.142, 108.072 
	L 18.425, 107.788 
	L 18.567, 107.576 
	L 18.709, 107.009 
	L 18.709, 106.583 
	L 18.567, 106.087 
	L 18.425, 105.804 
	L 18.142, 105.520 
	L 17.858, 105.379 
" />
<path d="M 17.363, 107.575 
	L 17.362, 107.576 
	L 17.220, 107.788 
	L 17.220, 107.930 
" />
<path d="M 17.363, 107.575 
	L 17.362, 107.576 
	L 17.575, 107.434 
	L 17.717, 107.434 
	L 18.000, 107.576 
	L 18.142, 107.788 
	L 18.283, 108.780 
	L 18.425, 108.922 
	L 18.709, 108.922 
	L 18.850, 108.639 
	L 18.850, 108.497 
" />
<path d="M 18.426, 108.638 
	L 18.425, 108.639 
	L 18.283, 108.355 
	L 18.142, 107.788 
" />
<path d="M 18.426, 108.638 
	L 18.425, 108.639 
	L 18.567, 108.780 
	L 18.709, 108.780 
	L 18.850, 108.639 
" />
<path d="M 20.056, 108.071 
	L 20.055, 108.072 
	L 19.913, 107.788 
	L 19.913, 106.300 
" />
<path d="M 20.056, 108.071 
	L 20.055, 108.072 
	L 20.480, 108.213 
	L 20.693, 108.213 
	L 21.118, 108.072 
	L 21.402, 107.788 
" />
<path d="M 20.056, 107.787 
	L 20.055, 107.788 
	L 20.197, 108.072 
	L 20.480, 108.213 
" />
<path d="M 20.056, 107.787 
	L 20.055, 107.788 
	L 20.055, 106.300 
" />
<path d="M 21.402, 106.299 
	L 21.402, 106.300 
	L 21.402, 108.213 
" />
<path d="M 21.544, 108.213 
	L 21.543, 108.213 
	L 21.543, 106.300 
	L 20.976, 106.300 
" />
<path d="M 20.056, 106.299 
	L 20.055, 106.300 
	L 19.488, 106.300 
" />
<path d="M 22.890, 106.583 
	L 22.890, 106.583 
	L 22.890, 106.725 
	L 22.748, 106.725 
	L 22.748, 106.583 
	L 22.890, 106.442 
	L 23.173, 106.300 
	L 23.740, 106.300 
	L 23.953, 106.442 
	L 24.094, 106.583 
	L 24.236, 106.867 
	L 24.236, 107.788 
" />
<path d="M 24.236, 107.788 
	L 24.378, 108.072 
	L 24.520, 108.213 
" />
<path d="M 24.095, 107.787 
	L 24.094, 107.788 
	L 24.094, 106.583 
" />
<path d="M 24.095, 107.787 
	L 24.094, 107.788 
	L 24.236, 108.072 
	L 24.520, 108.213 
	L 24.661, 108.213 
" />
<path d="M 24.095, 106.866 
	L 24.094, 106.867 
	L 23.953, 107.009 
	L 23.173, 107.150 
	L 22.748, 107.292 
	L 22.606, 107.576 
	L 22.606, 107.788 
	L 22.748, 108.072 
	L 23.173, 108.213 
	L 23.598, 108.213 
	L 23.811, 108.072 
	L 24.094, 107.788 
" />
<path d="M 24.094, 107.788 
" />
<path d="M 23.174, 107.150 
	L 23.173, 107.150 
	L 22.890, 107.292 
	L 22.748, 107.576 
	L 22.748, 107.788 
	L 22.890, 108.072 
	L 23.173, 108.213 
" />
<path d="M 21.969, 108.213 
	L 21.969, 108.213 
	L 21.402, 108.213 
" />
<path d="M 25.583, 108.213 
	L 25.583, 108.213 
	L 25.583, 106.300 
" />
<path d="M 25.725, 106.299 
	L 25.724, 106.300 
	L 25.724, 108.213 
" />
<path d="M 25.725, 107.150 
	L 25.724, 107.150 
	L 25.866, 106.725 
	L 26.150, 106.442 
	L 26.433, 106.300 
	L 26.858, 106.300 
	L 26.929, 106.442 
	L 26.929, 106.583 
	L 26.858, 106.725 
	L 26.717, 106.583 
	L 26.858, 106.442 
" />
<path d="M 25.725, 106.299 
	L 25.724, 106.300 
	L 25.228, 106.300 
" />
<path d="M 25.229, 108.213 
	L 25.228, 108.213 
	L 26.150, 108.213 
" />
<path d="M 28.064, 108.071 
	L 28.063, 108.072 
	L 27.921, 107.646 
	L 27.921, 105.379 
" />
<path d="M 28.064, 108.071 
	L 28.063, 108.072 
	L 28.346, 108.213 
	L 28.559, 108.213 
	L 28.843, 108.072 
	L 28.984, 107.788 
" />
<path d="M 28.064, 107.646 
	L 28.063, 107.646 
	L 28.205, 108.072 
	L 28.346, 108.213 
" />
<path d="M 28.064, 107.646 
	L 28.063, 107.646 
	L 28.063, 105.379 
" />
<path d="M 28.560, 106.299 
	L 28.559, 106.300 
	L 27.496, 106.300 
" />
<path d="M 29.835, 107.150 
	L 29.835, 107.150 
	L 31.465, 107.150 
	L 31.465, 106.867 
	L 31.323, 106.583 
	L 31.181, 106.442 
	L 30.898, 106.300 
	L 30.472, 106.300 
	L 30.047, 106.442 
	L 29.835, 106.725 
	L 29.693, 107.150 
	L 29.693, 107.434 
" />
<path d="M 29.693, 107.434 
	L 29.835, 107.788 
	L 30.047, 108.072 
	L 30.472, 108.213 
	L 30.756, 108.213 
	L 31.181, 108.072 
	L 31.465, 107.788 
" />
<path d="M 31.324, 107.150 
	L 31.323, 107.150 
	L 31.323, 106.725 
	L 31.181, 106.442 
" />
<path d="M 30.473, 106.299 
	L 30.472, 106.300 
	L 30.189, 106.442 
	L 29.976, 106.725 
	L 29.835, 107.150 
	L 29.835, 107.434 
	L 29.976, 107.788 
	L 30.189, 108.072 
	L 30.472, 108.213 
" />
<path d="M 32.528, 108.213 
	L 32.528, 108.213 
	L 32.528, 106.300 
" />
<path d="M 32.670, 106.299 
	L 32.669, 106.300 
	L 32.669, 108.213 
" />
<path d="M 32.670, 107.150 
	L 32.669, 107.150 
	L 32.811, 106.725 
	L 33.094, 106.442 
	L 33.307, 106.300 
	L 33.732, 106.300 
	L 33.874, 106.442 
	L 33.874, 106.583 
	L 33.732, 106.725 
	L 33.591, 106.583 
	L 33.732, 106.442 
" />
<path d="M 32.670, 106.299 
	L 32.669, 106.300 
	L 32.102, 106.300 
" />
<path d="M 32.103, 108.213 
	L 32.102, 108.213 
	L 33.094, 108.213 
" />
<path d="M 37.702, 108.213 
	L 37.701, 108.213 
	L 37.701, 105.379 
" />
<path d="M 37.772, 105.378 
	L 37.772, 105.379 
	L 37.772, 108.213 
" />
<path d="M 37.276, 105.378 
	L 37.276, 105.379 
	L 38.906, 105.379 
	L 39.331, 105.520 
	L 39.402, 105.662 
	L 39.543, 105.946 
	L 39.543, 106.158 
	L 39.402, 106.442 
	L 39.331, 106.583 
	L 38.906, 106.725 
	L 37.772, 106.725 
" />
<path d="M 38.906, 105.378 
	L 38.906, 105.379 
	L 39.189, 105.520 
	L 39.331, 105.662 
	L 39.402, 105.946 
	L 39.402, 106.158 
	L 39.331, 106.442 
	L 39.189, 106.583 
	L 38.906, 106.725 
" />
<path d="M 38.764, 106.866 
	L 38.764, 106.867 
	L 38.480, 106.725 
" />
<path d="M 38.764, 106.866 
	L 38.764, 106.867 
	L 38.906, 107.009 
	L 39.331, 107.930 
	L 39.402, 108.072 
	L 39.543, 108.072 
	L 39.685, 107.930 
" />
<path d="M 38.906, 107.150 
	L 38.906, 107.150 
	L 38.764, 106.867 
" />
<path d="M 38.906, 107.150 
	L 38.906, 107.150 
	L 39.189, 108.072 
	L 39.331, 108.213 
	L 39.543, 108.213 
	L 39.685, 107.930 
	L 39.685, 107.788 
" />
<path d="M 38.198, 108.213 
	L 38.197, 108.213 
	L 37.276, 108.213 
" />
<path d="M 40.536, 106.724 
	L 40.535, 106.725 
	L 40.819, 106.442 
	L 41.173, 106.300 
" />
<path d="M 40.536, 106.724 
	L 40.535, 106.725 
	L 40.394, 107.150 
	L 40.394, 107.434 
	L 40.535, 107.788 
	L 40.819, 108.072 
	L 41.173, 108.213 
	L 41.457, 108.213 
	L 41.882, 108.072 
	L 42.165, 107.788 
	L 42.307, 107.434 
	L 42.307, 107.150 
" />
<path d="M 42.307, 107.150 
	L 42.165, 106.725 
	L 41.882, 106.442 
	L 41.457, 106.300 
	L 41.173, 106.300 
	L 40.890, 106.442 
	L 40.677, 106.725 
	L 40.535, 107.150 
	L 40.535, 107.434 
	L 40.677, 107.788 
	L 40.890, 108.072 
	L 41.173, 108.213 
" />
<path d="M 41.173, 108.213 
" />
<path d="M 41.457, 108.213 
	L 41.457, 108.213 
	L 41.740, 108.072 
	L 42.024, 107.788 
	L 42.165, 107.434 
	L 42.165, 107.150 
	L 42.024, 106.725 
	L 41.740, 106.442 
	L 41.457, 106.300 
" />
<path d="M 44.717, 106.724 
	L 44.717, 106.725 
	L 44.575, 106.867 
	L 44.717, 107.009 
	L 44.858, 106.867 
	L 44.858, 106.725 
	L 44.575, 106.442 
	L 44.291, 106.300 
	L 43.937, 106.300 
	L 43.512, 106.442 
	L 43.228, 106.725 
	L 43.087, 107.150 
" />
<path d="M 43.087, 107.150 
	L 43.087, 107.434 
	L 43.228, 107.788 
	L 43.512, 108.072 
	L 43.937, 108.213 
	L 44.150, 108.213 
	L 44.575, 108.072 
	L 44.858, 107.788 
" />
<path d="M 43.938, 106.299 
	L 43.937, 106.300 
	L 43.654, 106.442 
	L 43.370, 106.725 
	L 43.228, 107.150 
	L 43.228, 107.434 
	L 43.370, 107.788 
	L 43.654, 108.072 
	L 43.937, 108.213 
" />
<path d="M 45.922, 108.213 
	L 45.921, 108.213 
	L 45.921, 105.379 
" />
<path d="M 46.064, 105.378 
	L 46.063, 105.379 
	L 46.063, 108.213 
" />
<path d="M 46.064, 107.646 
	L 46.063, 107.646 
	L 47.409, 106.300 
" />
<path d="M 46.772, 107.150 
	L 46.772, 107.150 
	L 47.551, 108.213 
" />
<path d="M 47.410, 108.213 
	L 47.409, 108.213 
	L 46.630, 107.150 
" />
<path d="M 47.056, 106.299 
	L 47.055, 106.300 
	L 47.835, 106.300 
" />
<path d="M 46.064, 105.378 
	L 46.063, 105.379 
	L 45.567, 105.379 
" />
<path d="M 45.568, 108.213 
	L 45.567, 108.213 
	L 46.488, 108.213 
" />
<path d="M 47.056, 108.213 
	L 47.055, 108.213 
	L 47.835, 108.213 
" />
<path d="M 30.119, 101.409 
	L 30.118, 101.410 
	L 30.118, 99.284 
" />
<path d="M 30.119, 97.157 
	L 30.118, 97.158 
	L 30.118, 92.906 
" />
<path d="M 30.119, 90.780 
	L 30.118, 90.780 
	L 30.118, 86.528 
" />
<path d="M 29.623, 87.236 
	L 29.622, 87.237 
	L 28.984, 85.890 
	L 28.205, 84.757 
	L 27.142, 83.694 
	L 26.008, 82.843 
	L 24.661, 82.276 
	L 23.315, 81.922 
	L 21.827, 81.780 
	L 20.409, 81.922 
	L 18.992, 82.276 
	L 17.717, 82.843 
" />
<path d="M 17.717, 82.843 
	L 16.512, 83.694 
	L 15.520, 84.757 
	L 14.669, 85.890 
	L 14.031, 87.237 
	L 13.677, 88.583 
	L 13.535, 90.072 
	L 13.677, 91.489 
	L 14.031, 92.906 
	L 14.669, 94.182 
	L 15.520, 95.387 
	L 16.512, 96.379 
" />
<path d="M 16.512, 96.379 
	L 17.717, 97.229 
	L 18.992, 97.867 
	L 20.409, 98.221 
	L 21.827, 98.363 
	L 23.315, 98.221 
	L 24.661, 97.867 
	L 26.008, 97.229 
	L 27.142, 96.379 
	L 28.205, 95.387 
	L 28.984, 94.182 
	L 29.622, 92.906 
" />
<path d="M 29.622, 92.906 
	L 29.976, 91.489 
	L 30.118, 90.072 
	L 29.976, 88.583 
	L 29.622, 87.237 
" />
<path d="M 28.489, 85.110 
	L 28.488, 85.111 
	L 19.063, 94.536 
" />
<path d="M 18.639, 93.898 
	L 18.638, 93.898 
	L 28.063, 84.544 
" />
<path d="M 27.568, 84.047 
	L 27.567, 84.048 
	L 18.354, 93.261 
" />
<path d="M 18.072, 92.480 
	L 18.071, 92.481 
	L 27.000, 83.552 
" />
<path d="M 26.434, 83.126 
	L 26.433, 83.127 
	L 17.858, 91.702 
" />
<path d="M 17.717, 90.850 
	L 17.717, 90.851 
	L 25.795, 82.772 
" />
<path d="M 25.087, 82.417 
	L 25.087, 82.418 
	L 17.717, 89.859 
" />
<path d="M 17.788, 88.724 
	L 17.787, 88.725 
	L 24.378, 82.135 
" />
<path d="M 23.316, 82.205 
	L 23.315, 82.205 
	L 18.142, 87.379 
" />
<path d="M 19.135, 85.394 
	L 19.134, 85.394 
	L 21.331, 83.198 
" />
<path d="M 30.119, 84.331 
	L 30.118, 84.331 
	L 30.118, 80.079 
" />
<path d="M 30.119, 77.953 
	L 30.118, 77.953 
	L 30.118, 73.702 
" />
<path d="M 30.119, 71.575 
	L 30.118, 71.576 
	L 30.118, 67.253 
" />
<path d="M 30.119, 65.126 
	L 30.118, 65.127 
	L 30.118, 60.875 
" />
<path d="M 30.119, 58.748 
	L 30.118, 58.749 
	L 30.118, 54.497 
" />
<path d="M 30.119, 52.299 
	L 30.118, 52.300 
	L 30.118, 48.048 
" />
<path d="M 30.119, 45.921 
	L 30.118, 45.922 
	L 30.118, 41.670 
" />
<path d="M 30.119, 39.543 
	L 30.118, 39.544 
	L 30.118, 35.221 
" />
<path d="M 30.119, 33.094 
	L 30.118, 33.095 
	L 30.118, 28.843 
" />
<path d="M 30.119, 11.339 
	L 30.118, 11.339 
	L 29.976, 9.922 
	L 29.622, 8.505 
	L 28.984, 7.229 
	L 28.205, 6.024 
	L 27.142, 5.032 
	L 26.008, 4.182 
	L 24.661, 3.544 
	L 23.315, 3.190 
	L 21.827, 3.048 
	L 20.409, 3.190 
	L 18.992, 3.544 
" />
<path d="M 18.992, 3.544 
	L 17.717, 4.182 
	L 16.512, 5.032 
	L 15.520, 6.024 
	L 14.669, 7.229 
	L 14.031, 8.505 
	L 13.677, 9.922 
	L 13.535, 11.339 
	L 13.677, 12.827 
	L 14.031, 14.174 
	L 14.669, 15.520 
	L 15.520, 16.654 
	L 16.512, 17.717 
" />
<path d="M 16.512, 17.717 
	L 17.717, 18.568 
	L 18.992, 19.135 
	L 20.409, 19.489 
	L 21.827, 19.631 
	L 23.315, 19.489 
	L 24.661, 19.135 
	L 26.008, 18.568 
	L 27.142, 17.717 
	L 28.205, 16.654 
	L 28.984, 15.520 
	L 29.622, 14.174 
" />
<path d="M 29.622, 14.174 
	L 29.976, 12.827 
	L 30.118, 11.339 
" />
<path d="M 28.914, 85.677 
	L 28.913, 85.678 
	L 19.417, 95.174 
" />
<path d="M 19.914, 95.669 
	L 19.913, 95.670 
	L 29.268, 86.387 
" />
<path d="M 29.552, 87.024 
	L 29.551, 87.024 
	L 20.409, 96.166 
" />
<path d="M 20.977, 96.661 
	L 20.976, 96.662 
	L 29.835, 87.804 
" />
<path d="M 29.977, 88.654 
	L 29.976, 88.654 
	L 21.543, 97.087 
" />
<path d="M 22.182, 97.441 
	L 22.181, 97.442 
	L 30.118, 89.505 
" />
<path d="M 30.119, 90.496 
	L 30.118, 90.497 
	L 22.890, 97.725 
" />
<path d="M 23.670, 98.008 
	L 23.669, 98.009 
	L 29.976, 91.702 
" />
<path d="M 29.552, 93.118 
	L 29.551, 93.119 
	L 24.874, 97.725 
" />
<path d="M 15.733, 107.008 
	L 15.732, 107.009 
	L 13.252, 107.009 
" />
<path d="M 12.331, 107.150 
	L 12.331, 107.150 
	L 12.331, 106.867 
	L 12.189, 106.583 
	L 12.047, 106.442 
	L 11.764, 106.300 
	L 11.409, 106.300 
	L 10.984, 106.442 
	L 10.701, 106.725 
	L 10.559, 107.150 
	L 10.559, 107.434 
	L 10.701, 107.788 
" />
<path d="M 10.701, 107.788 
	L 10.984, 108.072 
	L 11.409, 108.213 
	L 11.622, 108.213 
	L 12.047, 108.072 
	L 12.331, 107.788 
" />
<path d="M 12.331, 107.150 
	L 12.331, 107.150 
	L 10.701, 107.150 
	L 10.701, 107.434 
	L 10.843, 107.788 
	L 11.126, 108.072 
	L 11.409, 108.213 
" />
<path d="M 10.701, 107.150 
	L 10.701, 107.150 
	L 10.843, 106.725 
	L 11.126, 106.442 
	L 11.409, 106.300 
" />
<path d="M 12.048, 106.441 
	L 12.047, 106.442 
	L 12.189, 106.725 
	L 12.189, 107.150 
" />
<path d="M 9.780, 107.150 
	L 9.780, 107.150 
	L 9.780, 106.867 
	L 9.638, 106.583 
	L 9.496, 106.442 
	L 9.213, 106.300 
	L 8.787, 106.300 
	L 8.362, 106.442 
	L 8.150, 106.725 
	L 8.008, 107.150 
	L 8.008, 107.434 
	L 8.150, 107.788 
" />
<path d="M 8.150, 107.788 
	L 8.362, 108.072 
	L 8.787, 108.213 
	L 9.071, 108.213 
	L 9.496, 108.072 
	L 9.780, 107.788 
" />
<path d="M 9.780, 107.150 
	L 9.780, 107.150 
	L 8.150, 107.150 
	L 8.150, 107.434 
	L 8.291, 107.788 
	L 8.504, 108.072 
	L 8.787, 108.213 
" />
<path d="M 8.150, 107.150 
	L 8.150, 107.150 
	L 8.291, 106.725 
	L 8.504, 106.442 
	L 8.787, 106.300 
" />
<path d="M 9.497, 106.441 
	L 9.496, 106.442 
	L 9.638, 106.725 
	L 9.638, 107.150 
" />
<path d="M 7.300, 106.583 
	L 7.299, 106.583 
	L 7.157, 106.725 
	L 7.016, 106.583 
	L 7.157, 106.442 
" />
<path d="M 7.158, 106.299 
	L 7.157, 106.300 
	L 7.299, 106.442 
	L 7.299, 106.583 
" />
<path d="M 7.158, 106.299 
	L 7.157, 106.300 
	L 6.732, 106.300 
	L 6.520, 106.442 
	L 6.236, 106.725 
	L 6.094, 107.150 
" />
<path d="M 6.095, 106.299 
	L 6.094, 106.300 
	L 6.094, 108.213 
" />
<path d="M 5.953, 108.213 
	L 5.953, 108.213 
	L 5.953, 106.300 
" />
<path d="M 6.095, 106.299 
	L 6.094, 106.300 
	L 5.528, 106.300 
" />
<path d="M 4.465, 106.441 
	L 4.465, 106.442 
	L 4.606, 106.725 
	L 4.606, 108.213 
" />
<path d="M 4.465, 108.213 
	L 4.465, 108.213 
	L 4.465, 106.725 
	L 4.323, 106.442 
	L 4.039, 106.300 
	L 4.465, 106.442 
" />
<path d="M 4.040, 106.299 
	L 4.039, 106.300 
	L 3.756, 106.300 
	L 3.402, 106.442 
	L 3.118, 106.725 
" />
<path d="M 3.119, 105.378 
	L 3.118, 105.379 
	L 3.118, 108.213 
" />
<path d="M 2.977, 108.213 
	L 2.976, 108.213 
	L 2.976, 105.379 
" />
<path d="M 3.119, 105.378 
	L 3.118, 105.379 
	L 2.551, 105.379 
" />
<path d="M 2.056, 105.378 
	L 2.055, 105.379 
	L 2.055, 106.158 
	L 1.913, 105.379 
" />
<path d="M 2.056, 105.378 
	L 2.055, 105.379 
	L 0.000, 105.379 
	L 0.000, 106.158 
	L 0.142, 105.379 
" />
<path d="M 0.922, 105.378 
	L 0.921, 105.379 
	L 0.921, 108.213 
" />
<path d="M 1.064, 108.213 
	L 1.063, 108.213 
	L 1.063, 105.379 
" />
<path d="M 1.489, 108.213 
	L 1.488, 108.213 
	L 0.496, 108.213 
" />
<path d="M 2.552, 108.213 
	L 2.551, 108.213 
	L 3.543, 108.213 
" />
<path d="M 4.040, 108.213 
	L 4.039, 108.213 
	L 5.031, 108.213 
" />
<path d="M 5.528, 108.213 
	L 5.528, 108.213 
	L 6.520, 108.213 
" />
</g><g style="stroke:rgb(255,255,255); fill:none; stroke-width:0.100mm" >
</g>
</svg>
