<?xml version="1.0" encoding="UTF-8" standalone="no" ?>
<svg width="100%" height="100%" viewBox="0 0 227.977 320.953" xmlns="http://www.w3.org/2000/svg"><g>
</g><g style="stroke:rgb(0,0,0); fill:none; stroke-width:1.000mm" >
</g><g style="stroke:rgb(0,0,0); fill:none; stroke-width:0.100mm" >
<path d="M 50.103, 242.433 
	L 50.102, 242.434 
	L 103.819, 270.497 
" />
<path d="M 57.898, 255.969 
	L 57.898, 255.969 
	L 53.575, 251.859 
" />
<path d="M 53.434, 251.858 
	L 53.433, 251.859 
	L 53.717, 251.717 
	L 53.858, 251.434 
" />
<path d="M 53.859, 251.362 
	L 53.858, 251.363 
	L 53.717, 251.079 
	L 53.433, 250.938 
	L 48.614, 246.402 
" />
<path d="M 48.402, 246.543 
	L 48.402, 246.544 
	L 53.008, 250.938 
" />
<path d="M 53.434, 250.937 
	L 53.433, 250.938 
	L 49.252, 251.079 
	L 48.898, 251.221 
	L 48.827, 251.505 
	L 48.827, 251.576 
	L 48.969, 251.859 
	L 49.252, 252.001 
	L 53.433, 251.859 
" />
<path d="M 53.150, 251.858 
	L 53.150, 251.859 
	L 57.685, 256.111 
" />
<path d="M 57.757, 256.039 
	L 57.756, 256.040 
	L 58.606, 254.977 
	L 59.173, 253.843 
	L 59.528, 252.568 
	L 59.598, 251.221 
	L 59.457, 249.946 
	L 59.032, 248.741 
	L 58.394, 247.607 
	L 57.543, 246.615 
	L 56.480, 245.765 
	L 55.346, 245.198 
" />
<path d="M 55.346, 245.198 
	L 54.071, 244.843 
	L 52.724, 244.772 
	L 51.449, 244.914 
	L 50.244, 245.339 
	L 49.110, 245.977 
	L 48.118, 246.828 
	L 47.268, 247.890 
	L 46.701, 249.024 
	L 46.346, 250.300 
	L 46.276, 251.646 
	L 46.417, 252.922 
" />
<path d="M 46.417, 252.922 
	L 46.843, 254.127 
	L 47.480, 255.261 
	L 48.331, 256.253 
	L 49.394, 257.103 
	L 50.528, 257.670 
	L 51.803, 258.024 
	L 53.150, 258.095 
	L 54.425, 257.953 
	L 55.701, 257.528 
	L 56.835, 256.890 
	L 57.756, 256.040 
" />
<path d="M 57.756, 256.040 
" />
<path d="M 57.473, 256.323 
	L 57.472, 256.324 
	L 52.795, 251.930 
" />
<path d="M 52.371, 251.929 
	L 52.370, 251.930 
	L 57.260, 256.536 
" />
<path d="M 57.048, 256.677 
	L 57.047, 256.678 
	L 51.945, 251.930 
" />
<path d="M 51.520, 251.929 
	L 51.520, 251.930 
	L 56.764, 256.890 
" />
<path d="M 56.552, 257.032 
	L 56.551, 257.032 
	L 51.165, 251.930 
" />
<path d="M 50.741, 251.929 
	L 50.740, 251.930 
	L 56.268, 257.174 
" />
<path d="M 56.056, 257.315 
	L 56.055, 257.316 
	L 50.315, 251.930 
" />
<path d="M 49.961, 252.000 
	L 49.961, 252.001 
	L 55.772, 257.457 
" />
<path d="M 55.489, 257.598 
	L 55.488, 257.599 
	L 49.535, 252.001 
" />
<path d="M 49.111, 252.000 
	L 49.110, 252.001 
	L 55.205, 257.741 
" />
<path d="M 54.851, 257.811 
	L 54.850, 257.812 
	L 46.488, 249.875 
" />
<path d="M 46.560, 249.591 
	L 46.559, 249.591 
	L 48.827, 251.717 
" />
<path d="M 48.827, 251.362 
	L 48.827, 251.363 
	L 46.630, 249.237 
" />
<path d="M 46.772, 248.953 
	L 46.772, 248.953 
	L 49.039, 251.150 
" />
<path d="M 49.394, 251.079 
	L 49.394, 251.079 
	L 46.843, 248.670 
" />
<path d="M 46.985, 248.386 
	L 46.984, 248.387 
	L 49.819, 251.079 
" />
<path d="M 50.174, 251.079 
	L 50.173, 251.079 
	L 47.126, 248.174 
" />
<path d="M 47.268, 247.890 
	L 47.268, 247.890 
	L 50.598, 251.009 
" />
<path d="M 51.024, 251.008 
	L 51.024, 251.009 
	L 47.409, 247.678 
" />
<path d="M 47.623, 247.394 
	L 47.622, 247.394 
	L 51.449, 251.009 
" />
<path d="M 51.804, 251.008 
	L 51.803, 251.009 
	L 47.764, 247.182 
" />
<path d="M 47.977, 246.969 
	L 47.976, 246.969 
	L 52.228, 251.009 
" />
<path d="M 52.654, 251.008 
	L 52.654, 251.009 
	L 48.189, 246.757 
" />
<path d="M 48.827, 246.189 
	L 48.827, 246.190 
	L 58.394, 255.261 
" />
<path d="M 58.536, 255.047 
	L 58.535, 255.048 
	L 49.039, 246.048 
" />
<path d="M 49.324, 245.835 
	L 49.323, 245.835 
	L 58.748, 254.765 
" />
<path d="M 58.890, 254.480 
	L 58.890, 254.481 
	L 49.535, 245.694 
" />
<path d="M 49.820, 245.551 
	L 49.819, 245.552 
	L 59.032, 254.268 
" />
<path d="M 59.103, 253.984 
	L 59.102, 253.985 
	L 50.102, 245.410 
" />
<path d="M 50.387, 245.268 
	L 50.386, 245.268 
	L 59.244, 253.702 
" />
<path d="M 59.316, 253.346 
	L 59.315, 253.347 
	L 50.669, 245.198 
" />
<path d="M 50.953, 245.055 
	L 50.953, 245.056 
	L 59.386, 253.064 
" />
<path d="M 59.457, 252.709 
	L 59.457, 252.709 
	L 51.307, 244.985 
" />
<path d="M 51.591, 244.913 
	L 51.591, 244.914 
	L 59.528, 252.426 
" />
<path d="M 59.599, 252.071 
	L 59.598, 252.072 
	L 51.945, 244.843 
" />
<path d="M 52.371, 244.772 
	L 52.370, 244.772 
	L 59.598, 251.646 
" />
<path d="M 59.599, 251.291 
	L 59.598, 251.292 
	L 52.724, 244.772 
" />
<path d="M 53.150, 244.772 
	L 53.150, 244.772 
	L 59.598, 250.867 
" />
<path d="M 59.528, 250.441 
	L 59.528, 250.442 
	L 53.575, 244.772 
" />
<path d="M 54.072, 244.843 
	L 54.071, 244.843 
	L 59.457, 249.946 
" />
<path d="M 59.316, 249.378 
	L 59.315, 249.379 
	L 54.638, 244.985 
" />
<path d="M 55.276, 245.197 
	L 55.276, 245.198 
	L 59.102, 248.812 
" />
<path d="M 58.678, 248.032 
	L 58.677, 248.032 
	L 56.055, 245.481 
" />
<path d="M 55.843, 247.535 
	L 55.843, 247.536 
	L 54.921, 247.040 
	L 53.858, 246.686 
	L 52.795, 246.615 
	L 51.732, 246.757 
	L 50.740, 247.111 
	L 49.819, 247.749 
	L 49.110, 248.528 
	L 48.543, 249.450 
	L 48.189, 250.513 
	L 48.118, 251.576 
" />
<path d="M 48.118, 251.576 
	L 48.260, 252.639 
	L 48.614, 253.631 
	L 49.252, 254.552 
	L 50.032, 255.331 
	L 50.953, 255.828 
	L 52.016, 256.182 
	L 53.079, 256.253 
	L 54.142, 256.111 
	L 55.134, 255.757 
	L 56.055, 255.119 
	L 56.835, 254.339 
" />
<path d="M 56.835, 254.339 
	L 57.331, 253.418 
	L 57.685, 252.355 
	L 57.756, 251.292 
	L 57.614, 250.229 
	L 57.260, 249.237 
	L 56.622, 248.316 
	L 55.843, 247.536 
" />
<path d="M 53.859, 251.362 
	L 53.858, 251.363 
	L 58.252, 255.473 
" />
<path d="M 58.040, 255.685 
	L 58.039, 255.686 
	L 53.787, 251.717 
" />
<path d="M 53.859, 251.433 
	L 53.858, 251.434 
	L 53.858, 251.363 
" />
<path d="M 53.859, 258.024 
	L 53.858, 258.024 
	L 46.276, 250.867 
" />
<path d="M 46.276, 251.291 
	L 46.276, 251.292 
	L 53.433, 258.095 
" />
<path d="M 53.079, 258.095 
	L 53.079, 258.095 
	L 46.276, 251.646 
" />
<path d="M 46.276, 252.071 
	L 46.276, 252.072 
	L 52.654, 258.095 
" />
<path d="M 52.229, 258.095 
	L 52.228, 258.095 
	L 46.346, 252.568 
" />
<path d="M 46.489, 253.063 
	L 46.488, 253.064 
	L 51.732, 257.953 
" />
<path d="M 51.166, 257.882 
	L 51.165, 257.883 
	L 46.630, 253.560 
" />
<path d="M 46.914, 254.197 
	L 46.913, 254.198 
	L 50.528, 257.670 
" />
<path d="M 49.678, 257.244 
	L 49.677, 257.245 
	L 47.339, 255.048 
" />
<path d="M 43.938, 254.268 
	L 43.937, 254.268 
	L 56.268, 230.599 
" />
<path d="M 54.568, 257.882 
	L 54.567, 257.883 
	L 46.417, 250.229 
" />
<path d="M 46.347, 250.512 
	L 46.346, 250.513 
	L 54.213, 257.953 
" />
<path d="M 102.119, 259.937 
	L 102.118, 259.938 
	L 112.465, 260.859 
" />
<path d="M 112.253, 260.575 
	L 112.252, 260.576 
	L 102.402, 259.725 
" />
<path d="M 102.615, 259.441 
	L 102.614, 259.442 
	L 103.748, 258.733 
	L 104.953, 258.237 
	L 106.228, 257.953 
	L 107.504, 257.953 
	L 108.780, 258.166 
	L 109.984, 258.662 
	L 111.118, 259.371 
	L 112.039, 260.292 
	L 112.819, 261.355 
" />
<path d="M 112.819, 261.355 
	L 113.315, 262.560 
	L 113.598, 263.835 
	L 113.598, 265.182 
	L 113.315, 266.457 
	L 112.890, 267.662 
	L 112.181, 268.725 
	L 111.260, 269.717 
	L 110.126, 270.426 
	L 108.921, 270.922 
	L 107.646, 271.205 
" />
<path d="M 107.646, 271.205 
	L 106.370, 271.205 
	L 105.095, 270.993 
	L 103.890, 270.497 
	L 102.756, 269.788 
	L 101.835, 268.867 
	L 101.126, 267.804 
	L 100.559, 266.599 
	L 100.276, 265.324 
	L 100.276, 263.977 
	L 100.559, 262.702 
" />
<path d="M 100.559, 262.702 
	L 100.984, 261.497 
	L 101.764, 260.434 
	L 102.614, 259.442 
" />
<path d="M 102.686, 259.441 
	L 102.685, 259.442 
	L 112.039, 260.221 
" />
<path d="M 111.757, 259.937 
	L 111.756, 259.938 
	L 103.039, 259.158 
" />
<path d="M 103.394, 258.945 
	L 103.394, 258.946 
	L 111.402, 259.583 
" />
<path d="M 110.977, 259.299 
	L 110.976, 259.300 
	L 103.819, 258.662 
" />
<path d="M 104.387, 258.449 
	L 104.386, 258.450 
	L 110.551, 258.946 
" />
<path d="M 109.985, 258.591 
	L 109.984, 258.591 
	L 105.024, 258.166 
" />
<path d="M 105.875, 257.953 
	L 105.874, 257.953 
	L 109.063, 258.237 
" />
<path d="M 108.922, 260.150 
	L 108.921, 260.150 
	L 109.843, 260.717 
	L 110.622, 261.497 
	L 111.260, 262.347 
	L 111.614, 263.410 
	L 111.756, 264.473 
	L 111.685, 265.536 
	L 111.331, 266.599 
	L 110.835, 267.520 
	L 110.055, 268.300 
" />
<path d="M 110.055, 268.300 
	L 109.134, 268.867 
	L 108.142, 269.292 
	L 107.079, 269.434 
	L 106.016, 269.292 
	L 104.953, 269.009 
	L 104.032, 268.442 
	L 103.252, 267.662 
	L 102.614, 266.812 
	L 102.260, 265.749 
	L 102.118, 264.686 
" />
<path d="M 102.118, 264.686 
	L 102.189, 263.623 
	L 102.543, 262.560 
	L 103.110, 261.639 
	L 103.819, 260.859 
	L 104.740, 260.292 
	L 105.732, 259.867 
	L 106.795, 259.725 
	L 107.929, 259.867 
	L 108.921, 260.150 
" />
<path d="M 112.678, 261.142 
	L 112.677, 261.142 
	L 101.906, 260.221 
" />
<path d="M 101.694, 260.504 
	L 101.693, 260.505 
	L 112.819, 261.497 
" />
<path d="M 112.961, 261.780 
	L 112.961, 261.780 
	L 101.480, 260.788 
" />
<path d="M 101.268, 261.071 
	L 101.268, 261.072 
	L 104.457, 261.284 
" />
<path d="M 104.599, 261.283 
	L 104.598, 261.284 
	L 104.882, 261.426 
	L 107.646, 264.686 
	L 107.717, 264.969 
	L 107.575, 265.253 
	L 107.504, 265.324 
	L 113.528, 265.820 
" />
<path d="M 113.528, 265.535 
	L 113.528, 265.536 
	L 107.717, 265.040 
" />
<path d="M 107.646, 264.756 
	L 107.646, 264.757 
	L 113.598, 265.253 
" />
<path d="M 113.599, 264.969 
	L 113.598, 264.969 
	L 107.433, 264.473 
" />
<path d="M 107.150, 264.118 
	L 107.150, 264.119 
	L 113.598, 264.686 
" />
<path d="M 113.599, 264.402 
	L 113.598, 264.402 
	L 106.937, 263.835 
" />
<path d="M 106.654, 263.551 
	L 106.654, 263.552 
	L 113.598, 264.119 
" />
<path d="M 113.599, 263.835 
	L 113.598, 263.835 
	L 106.370, 263.198 
" />
<path d="M 106.158, 262.913 
	L 106.157, 262.914 
	L 113.528, 263.552 
" />
<path d="M 113.457, 263.268 
	L 113.457, 263.268 
	L 105.874, 262.560 
" />
<path d="M 105.591, 262.276 
	L 105.591, 262.276 
	L 113.386, 262.985 
" />
<path d="M 113.316, 262.630 
	L 113.315, 262.631 
	L 105.307, 261.993 
" />
<path d="M 105.095, 261.638 
	L 105.095, 261.639 
	L 113.244, 262.347 
" />
<path d="M 113.103, 262.063 
	L 113.102, 262.064 
	L 104.811, 261.355 
" />
<path d="M 104.599, 261.283 
	L 104.598, 261.284 
	L 104.315, 261.426 
	L 104.244, 261.426 
	L 104.102, 261.709 
	L 104.173, 262.064 
	L 106.937, 265.253 
	L 107.220, 265.394 
	L 107.504, 265.324 
" />
<path d="M 106.938, 265.252 
	L 106.937, 265.253 
	L 100.276, 264.686 
" />
<path d="M 100.276, 264.969 
	L 100.276, 264.969 
	L 113.457, 266.103 
" />
<path d="M 113.387, 266.386 
	L 113.386, 266.387 
	L 100.276, 265.253 
" />
<path d="M 100.347, 265.535 
	L 100.346, 265.536 
	L 113.244, 266.670 
" />
<path d="M 113.174, 266.953 
	L 113.173, 266.953 
	L 100.417, 265.820 
" />
<path d="M 100.489, 266.173 
	L 100.488, 266.174 
	L 113.032, 267.237 
" />
<path d="M 112.961, 267.520 
	L 112.961, 267.520 
	L 100.559, 266.457 
" />
<path d="M 100.631, 266.740 
	L 100.630, 266.741 
	L 112.819, 267.804 
" />
<path d="M 112.607, 268.087 
	L 112.606, 268.087 
	L 100.701, 267.024 
" />
<path d="M 100.843, 267.307 
	L 100.843, 267.308 
	L 112.465, 268.300 
" />
<path d="M 112.253, 268.583 
	L 112.252, 268.583 
	L 100.984, 267.662 
" />
<path d="M 101.198, 267.945 
	L 101.197, 267.946 
	L 112.039, 268.867 
" />
<path d="M 111.827, 269.150 
	L 111.827, 269.150 
	L 101.339, 268.229 
" />
<path d="M 101.552, 268.512 
	L 101.551, 268.513 
	L 111.543, 269.434 
" />
<path d="M 111.261, 269.646 
	L 111.260, 269.646 
	L 101.835, 268.867 
" />
<path d="M 102.119, 269.150 
	L 102.118, 269.150 
	L 110.906, 269.930 
" />
<path d="M 110.552, 270.213 
	L 110.551, 270.213 
	L 102.402, 269.505 
" />
<path d="M 102.757, 269.787 
	L 102.756, 269.788 
	L 110.126, 270.426 
" />
<path d="M 109.631, 270.709 
	L 109.630, 270.709 
	L 103.252, 270.142 
" />
<path d="M 103.820, 270.425 
	L 103.819, 270.426 
	L 109.063, 270.922 
" />
<path d="M 108.213, 271.134 
	L 108.213, 271.135 
	L 104.598, 270.780 
" />
<path d="M 106.654, 264.969 
	L 106.654, 264.969 
	L 100.276, 264.402 
" />
<path d="M 100.276, 264.118 
	L 100.276, 264.119 
	L 106.370, 264.615 
" />
<path d="M 106.158, 264.331 
	L 106.157, 264.331 
	L 100.276, 263.835 
" />
<path d="M 100.347, 263.551 
	L 100.346, 263.552 
	L 105.874, 264.048 
" />
<path d="M 105.591, 263.693 
	L 105.591, 263.694 
	L 100.417, 263.268 
" />
<path d="M 100.489, 262.984 
	L 100.488, 262.985 
	L 105.378, 263.410 
" />
<path d="M 105.095, 263.126 
	L 105.095, 263.127 
	L 100.559, 262.702 
" />
<path d="M 100.631, 262.417 
	L 100.630, 262.418 
	L 104.811, 262.772 
" />
<path d="M 104.599, 262.488 
	L 104.598, 262.489 
	L 100.701, 262.135 
" />
<path d="M 100.843, 261.850 
	L 100.843, 261.851 
	L 104.315, 262.135 
" />
<path d="M 104.103, 261.850 
	L 104.102, 261.851 
	L 100.984, 261.568 
" />
<path d="M 101.127, 261.283 
	L 101.126, 261.284 
	L 104.173, 261.568 
" />
<path d="M 118.914, 264.969 
	L 118.913, 264.969 
	L 118.063, 265.890 
	L 117.638, 266.741 
	L 117.142, 268.016 
	L 117.142, 270.213 
	L 117.638, 271.560 
	L 118.063, 272.410 
	L 118.913, 273.261 
	L 120.260, 273.686 
	L 121.110, 273.686 
" />
<path d="M 121.110, 273.686 
	L 122.386, 273.261 
	L 123.307, 272.410 
	L 123.732, 271.560 
" />
<path d="M 123.733, 267.165 
	L 123.732, 267.166 
	L 123.732, 264.544 
	L 123.307, 265.890 
	L 122.386, 264.969 
	L 121.110, 264.544 
	L 120.260, 264.544 
	L 118.913, 264.969 
" />
<path d="M 119.339, 264.969 
	L 119.339, 264.969 
	L 118.488, 265.890 
	L 118.063, 266.741 
	L 117.638, 268.016 
	L 117.638, 270.213 
	L 118.063, 271.560 
	L 118.488, 272.410 
	L 119.339, 273.261 
	L 120.260, 273.686 
" />
<path d="M 120.261, 264.543 
	L 120.260, 264.544 
	L 119.339, 264.969 
" />
<path d="M 123.308, 265.890 
	L 123.307, 265.890 
	L 123.732, 267.166 
" />
<path d="M 60.237, 266.953 
	L 60.236, 266.953 
	L 60.236, 268.300 
	L 59.811, 269.150 
	L 59.386, 269.576 
	L 58.039, 270.072 
	L 52.795, 270.072 
" />
<path d="M 54.142, 270.071 
	L 54.142, 270.072 
	L 54.142, 260.859 
" />
<path d="M 54.568, 260.858 
	L 54.567, 260.859 
	L 54.567, 270.072 
" />
<path d="M 58.040, 270.071 
	L 58.039, 270.072 
	L 58.890, 269.576 
	L 59.386, 269.150 
	L 59.811, 268.300 
	L 59.811, 266.953 
	L 59.386, 266.103 
	L 58.890, 265.678 
	L 58.039, 265.253 
	L 59.386, 265.678 
	L 59.811, 266.103 
	L 60.236, 266.953 
" />
<path d="M 60.236, 266.953 
" />
<path d="M 59.387, 264.827 
	L 59.386, 264.828 
	L 58.039, 265.253 
	L 58.890, 264.828 
	L 59.386, 264.331 
	L 59.811, 263.481 
	L 59.811, 262.631 
	L 59.386, 261.709 
	L 58.890, 261.284 
	L 58.039, 260.859 
	L 59.386, 261.284 
	L 59.811, 261.709 
" />
<path d="M 59.811, 261.709 
	L 60.236, 262.631 
	L 60.236, 263.481 
	L 59.811, 264.331 
	L 59.386, 264.828 
" />
<path d="M 58.040, 265.252 
	L 58.039, 265.253 
	L 54.567, 265.253 
" />
<path d="M 52.796, 260.858 
	L 52.795, 260.859 
	L 58.039, 260.859 
" />
<path d="M 58.749, 239.244 
	L 58.748, 239.245 
	L 58.465, 232.229 
" />
<path d="M 59.883, 231.449 
	L 59.882, 231.450 
	L 58.748, 239.245 
" />
<path d="M 58.253, 227.906 
	L 58.252, 227.906 
	L 57.827, 219.331 
" />
<path d="M 61.654, 218.693 
	L 61.654, 218.694 
	L 60.449, 227.198 
" />
<path d="M 62.292, 214.441 
	L 62.291, 214.442 
	L 63.496, 205.938 
" />
<path d="M 64.064, 201.685 
	L 64.063, 201.686 
	L 65.268, 193.182 
" />
<path d="M 65.835, 188.929 
	L 65.835, 188.930 
	L 67.039, 180.426 
" />
<path d="M 67.678, 176.173 
	L 67.677, 176.174 
	L 68.882, 167.599 
" />
<path d="M 69.450, 163.346 
	L 69.449, 163.347 
	L 70.654, 154.843 
" />
<path d="M 71.221, 150.591 
	L 71.220, 150.591 
	L 72.425, 142.087 
" />
<path d="M 73.064, 137.835 
	L 73.063, 137.835 
	L 74.268, 129.331 
" />
<path d="M 74.835, 125.079 
	L 74.835, 125.079 
	L 76.039, 116.576 
" />
<path d="M 76.607, 112.323 
	L 76.606, 112.324 
	L 77.811, 103.749 
" />
<path d="M 78.450, 99.496 
	L 78.449, 99.497 
	L 79.654, 90.993 
" />
<path d="M 80.221, 86.740 
	L 80.220, 86.741 
	L 81.425, 78.237 
" />
<path d="M 81.993, 73.984 
	L 81.992, 73.985 
	L 83.197, 65.481 
" />
<path d="M 83.835, 61.228 
	L 83.835, 61.229 
	L 84.898, 53.434 
" />
<path d="M 61.371, 53.433 
	L 61.370, 53.434 
	L 61.370, 49.820 
" />
<path d="M 61.087, 49.819 
	L 61.087, 49.820 
	L 61.087, 53.434 
" />
<path d="M 59.245, 53.433 
	L 59.244, 53.434 
	L 58.181, 53.434 
	L 58.181, 49.820 
" />
<path d="M 58.465, 49.819 
	L 58.465, 49.820 
	L 58.465, 53.434 
" />
<path d="M 57.686, 53.220 
	L 57.685, 53.221 
	L 58.181, 52.654 
" />
<path d="M 57.686, 53.220 
	L 57.685, 53.221 
	L 56.906, 53.434 
	L 56.339, 53.434 
	L 55.843, 53.221 
	L 55.559, 52.654 
	L 55.559, 49.820 
	L 54.496, 49.820 
" />
<path d="M 55.347, 49.819 
	L 55.346, 49.820 
	L 55.346, 52.654 
	L 55.559, 53.221 
	L 56.339, 53.434 
" />
<path d="M 53.221, 53.220 
	L 53.220, 53.221 
	L 53.504, 52.654 
" />
<path d="M 53.221, 53.220 
	L 53.220, 53.221 
	L 52.724, 53.434 
	L 52.157, 53.434 
	L 51.874, 53.221 
	L 51.661, 52.442 
	L 51.661, 47.977 
" />
<path d="M 51.379, 47.976 
	L 51.378, 47.977 
	L 51.378, 52.442 
	L 51.661, 53.221 
	L 52.157, 53.434 
" />
<path d="M 49.961, 53.433 
	L 49.961, 53.434 
	L 50.244, 60.450 
" />
<path d="M 50.457, 64.772 
	L 50.457, 64.772 
	L 50.882, 73.347 
" />
<path d="M 51.095, 77.669 
	L 51.094, 77.670 
	L 51.520, 86.245 
" />
<path d="M 51.733, 90.496 
	L 51.732, 90.497 
	L 52.087, 99.142 
" />
<path d="M 52.300, 103.394 
	L 52.299, 103.394 
	L 52.724, 111.969 
" />
<path d="M 52.938, 116.291 
	L 52.937, 116.292 
	L 53.362, 124.867 
" />
<path d="M 53.576, 129.189 
	L 53.575, 129.190 
	L 53.929, 137.764 
" />
<path d="M 54.142, 142.016 
	L 54.142, 142.016 
	L 54.567, 150.662 
" />
<path d="M 54.780, 154.913 
	L 54.780, 154.914 
	L 55.205, 163.489 
" />
<path d="M 55.418, 167.811 
	L 55.417, 167.812 
	L 55.772, 176.387 
" />
<path d="M 55.985, 180.709 
	L 55.984, 180.709 
	L 56.409, 189.284 
" />
<path d="M 56.623, 193.606 
	L 56.622, 193.607 
	L 57.047, 202.182 
" />
<path d="M 57.190, 206.433 
	L 57.189, 206.434 
	L 57.614, 215.009 
" />
<path d="M 72.284, 233.858 
	L 72.283, 233.859 
	L 69.236, 243.072 
" />
<path d="M 68.387, 243.071 
	L 68.386, 243.072 
	L 71.008, 243.072 
" />
<path d="M 73.560, 243.071 
	L 73.559, 243.072 
	L 76.181, 243.072 
" />
<path d="M 75.331, 243.071 
	L 75.331, 243.072 
	L 72.283, 233.859 
" />
<path d="M 72.284, 235.205 
	L 72.283, 235.205 
	L 74.906, 243.072 
" />
<path d="M 74.056, 240.449 
	L 74.055, 240.450 
	L 70.087, 240.450 
" />
<path d="M 69.450, 53.433 
	L 69.449, 53.434 
	L 67.606, 53.434 
" />
<path d="M 68.387, 53.433 
	L 68.386, 53.434 
	L 68.386, 50.599 
	L 68.173, 50.032 
	L 67.606, 49.820 
	L 68.386, 50.032 
	L 68.669, 50.599 
	L 68.669, 53.434 
" />
<path d="M 66.544, 53.433 
	L 66.543, 53.434 
	L 64.772, 53.434 
" />
<path d="M 65.552, 53.433 
	L 65.551, 53.434 
	L 65.551, 49.820 
" />
<path d="M 65.764, 49.819 
	L 65.764, 49.820 
	L 65.764, 53.434 
" />
<path d="M 65.764, 50.598 
	L 65.764, 50.599 
	L 66.331, 50.032 
	L 67.110, 49.820 
	L 67.606, 49.820 
" />
<path d="M 65.764, 49.819 
	L 65.764, 49.820 
	L 64.772, 49.820 
" />
<path d="M 63.709, 50.031 
	L 63.709, 50.032 
	L 63.709, 50.316 
	L 63.425, 50.599 
	L 63.142, 50.316 
	L 63.425, 50.032 
" />
<path d="M 63.426, 49.819 
	L 63.425, 49.820 
	L 63.709, 50.032 
" />
<path d="M 63.426, 49.819 
	L 63.425, 49.820 
	L 62.646, 49.820 
	L 62.150, 50.032 
	L 61.583, 50.599 
	L 61.370, 51.379 
" />
<path d="M 61.371, 49.819 
	L 61.370, 49.820 
	L 60.307, 49.820 
" />
<path d="M 58.465, 49.819 
	L 58.465, 49.820 
	L 57.402, 49.820 
" />
<path d="M 52.725, 49.819 
	L 52.724, 49.820 
	L 50.598, 49.820 
" />
<path d="M 43.229, 49.819 
	L 43.228, 49.820 
	L 41.173, 49.820 
" />
<path d="M 39.331, 49.819 
	L 39.331, 49.820 
	L 39.331, 53.434 
" />
<path d="M 39.048, 53.433 
	L 39.047, 53.434 
	L 40.110, 53.434 
" />
<path d="M 39.048, 53.433 
	L 39.047, 53.434 
	L 39.047, 49.820 
" />
<path d="M 39.331, 49.819 
	L 39.331, 49.820 
	L 38.268, 49.820 
" />
<path d="M 36.426, 49.819 
	L 36.425, 49.820 
	L 36.425, 52.654 
	L 36.709, 53.221 
	L 37.205, 53.434 
	L 37.772, 53.434 
	L 38.551, 53.221 
	L 39.047, 52.654 
" />
<path d="M 37.205, 53.433 
	L 37.205, 53.434 
	L 36.425, 53.221 
	L 36.213, 52.654 
	L 36.213, 49.820 
" />
<path d="M 36.426, 49.819 
	L 36.425, 49.820 
	L 35.433, 49.820 
" />
<path d="M 33.308, 50.031 
	L 33.307, 50.032 
	L 32.528, 49.820 
	L 31.961, 49.820 
	L 31.465, 50.032 
	L 30.969, 50.599 
	L 30.685, 51.379 
	L 30.685, 51.875 
	L 30.969, 52.654 
	L 31.465, 53.221 
	L 31.961, 53.434 
	L 32.528, 53.434 
" />
<path d="M 32.528, 53.434 
	L 33.307, 53.221 
	L 33.803, 52.654 
	L 34.087, 51.875 
	L 34.087, 51.379 
	L 33.803, 50.599 
	L 33.307, 50.032 
" />
<path d="M 33.024, 50.031 
	L 33.024, 50.032 
	L 32.528, 49.820 
" />
<path d="M 31.961, 49.819 
	L 31.961, 49.820 
	L 31.181, 50.032 
	L 30.685, 50.599 
	L 30.402, 51.379 
	L 30.402, 51.875 
	L 30.685, 52.654 
	L 31.181, 53.221 
	L 31.961, 53.434 
" />
<path d="M 32.528, 53.433 
	L 32.528, 53.434 
	L 33.024, 53.221 
	L 33.591, 52.654 
	L 33.803, 51.875 
	L 33.803, 51.379 
	L 33.591, 50.599 
	L 33.024, 50.032 
" />
<path d="M 41.953, 47.976 
	L 41.953, 47.977 
	L 41.953, 52.442 
	L 42.236, 53.221 
	L 42.732, 53.434 
	L 43.228, 53.434 
	L 43.795, 53.221 
	L 44.079, 52.654 
" />
<path d="M 42.237, 52.441 
	L 42.236, 52.442 
	L 42.449, 53.221 
	L 42.732, 53.434 
" />
<path d="M 42.237, 52.441 
	L 42.236, 52.442 
	L 42.236, 47.977 
" />
<path d="M 60.308, 53.433 
	L 60.307, 53.434 
	L 62.150, 53.434 
" />
<path d="M 81.568, 53.433 
	L 81.567, 53.434 
	L 83.409, 53.434 
" />
<path d="M 82.631, 53.433 
	L 82.630, 53.434 
	L 82.630, 49.820 
	L 81.567, 49.820 
" />
<path d="M 82.347, 49.819 
	L 82.346, 49.820 
	L 82.346, 53.434 
" />
<path d="M 84.473, 53.433 
	L 84.472, 53.434 
	L 86.244, 53.434 
" />
<path d="M 85.465, 53.433 
	L 85.465, 53.434 
	L 85.465, 49.820 
	L 84.472, 49.820 
" />
<path d="M 85.253, 49.819 
	L 85.252, 49.820 
	L 85.252, 53.434 
" />
<path d="M 87.308, 53.433 
	L 87.307, 53.434 
	L 89.150, 53.434 
" />
<path d="M 88.371, 53.433 
	L 88.370, 53.434 
	L 88.370, 50.599 
	L 88.087, 50.032 
	L 87.307, 49.820 
	L 87.874, 50.032 
	L 88.087, 50.599 
	L 88.087, 53.434 
" />
<path d="M 87.308, 49.819 
	L 87.307, 49.820 
	L 86.811, 49.820 
	L 86.032, 50.032 
	L 85.465, 50.599 
" />
<path d="M 82.347, 48.472 
	L 82.346, 48.473 
	L 82.630, 48.190 
	L 82.346, 47.977 
	L 82.063, 48.190 
	L 82.346, 48.473 
" />
<path d="M 96.520, 47.976 
	L 96.520, 47.977 
	L 96.520, 52.442 
	L 96.732, 53.221 
	L 97.299, 53.434 
	L 97.795, 53.434 
	L 98.291, 53.221 
	L 98.575, 52.654 
" />
<path d="M 100.418, 52.654 
	L 100.417, 52.654 
	L 100.701, 53.221 
	L 101.480, 53.434 
	L 101.976, 53.434 
	L 102.756, 53.221 
	L 103.323, 52.654 
" />
<path d="M 103.324, 53.433 
	L 103.323, 53.434 
	L 104.386, 53.434 
" />
<path d="M 103.536, 53.433 
	L 103.535, 53.434 
	L 103.535, 49.820 
	L 102.543, 49.820 
" />
<path d="M 103.324, 49.819 
	L 103.323, 49.820 
	L 103.323, 53.434 
" />
<path d="M 101.481, 53.433 
	L 101.480, 53.434 
	L 100.913, 53.221 
	L 100.701, 52.654 
	L 100.701, 49.820 
	L 99.638, 49.820 
" />
<path d="M 100.418, 49.819 
	L 100.417, 49.820 
	L 100.417, 52.654 
" />
<path d="M 96.733, 52.441 
	L 96.732, 52.442 
	L 97.016, 53.221 
	L 97.299, 53.434 
" />
<path d="M 96.733, 52.441 
	L 96.732, 52.442 
	L 96.732, 47.977 
" />
<path d="M 95.741, 49.819 
	L 95.740, 49.820 
	L 97.795, 49.820 
" />
<path d="M 105.379, 49.819 
	L 105.378, 49.820 
	L 106.441, 49.820 
	L 106.441, 53.434 
" />
<path d="M 106.158, 53.433 
	L 106.157, 53.434 
	L 106.157, 49.820 
" />
<path d="M 107.221, 50.031 
	L 107.220, 50.032 
	L 107.787, 49.820 
	L 108.567, 49.820 
	L 108.780, 50.032 
	L 108.780, 50.316 
	L 108.567, 50.599 
	L 108.283, 50.316 
	L 108.567, 50.032 
" />
<path d="M 107.221, 50.031 
	L 107.220, 50.032 
	L 106.724, 50.599 
	L 106.441, 51.379 
" />
<path d="M 107.221, 53.433 
	L 107.220, 53.434 
	L 105.378, 53.434 
" />
<path d="M 109.843, 53.433 
	L 109.843, 53.434 
	L 111.685, 53.434 
" />
<path d="M 110.906, 53.433 
	L 110.906, 53.434 
	L 110.906, 49.820 
	L 109.843, 49.820 
" />
<path d="M 110.623, 49.819 
	L 110.622, 49.820 
	L 110.622, 53.434 
" />
<path d="M 112.749, 53.433 
	L 112.748, 53.434 
	L 114.591, 53.434 
" />
<path d="M 113.812, 53.433 
	L 113.811, 53.434 
	L 113.811, 50.599 
	L 113.528, 50.032 
	L 112.748, 49.820 
	L 113.244, 50.032 
	L 113.528, 50.599 
	L 113.528, 53.434 
" />
<path d="M 112.749, 49.819 
	L 112.748, 49.820 
	L 112.181, 49.820 
	L 111.402, 50.032 
	L 110.906, 50.599 
" />
<path d="M 114.024, 0.000 
	L 114.024, 0.001 
	L 114.024, 320.953 
" />
<path d="M 114.024, 313.087 
	L 114.024, 313.087 
	L 118.843, 312.946 
	L 123.732, 312.520 
	L 128.551, 311.812 
	L 133.299, 310.820 
	L 138.047, 309.615 
	L 142.654, 308.056 
	L 147.189, 306.213 
	L 151.654, 304.158 
	L 155.906, 301.891 
" />
<path d="M 155.906, 301.891 
	L 160.087, 299.339 
	L 164.055, 296.505 
	L 167.882, 293.457 
	L 171.496, 290.268 
	L 174.969, 286.796 
	L 178.228, 283.182 
	L 181.276, 279.355 
	L 184.039, 275.316 
	L 186.591, 271.205 
	L 188.929, 266.883 
" />
<path d="M 188.929, 266.883 
	L 190.984, 262.489 
	L 192.756, 257.953 
	L 194.315, 253.276 
	L 195.591, 248.599 
	L 196.583, 243.780 
	L 197.291, 238.961 
	L 197.717, 234.142 
	L 197.858, 229.253 
	L 197.717, 224.363 
	L 197.291, 219.544 
" />
<path d="M 197.291, 219.544 
	L 196.583, 214.725 
	L 195.591, 209.906 
	L 194.315, 205.229 
	L 192.756, 200.552 
	L 190.984, 196.016 
	L 188.929, 191.623 
	L 186.591, 187.300 
	L 184.039, 183.190 
	L 181.276, 179.150 
	L 178.228, 175.324 
" />
<path d="M 178.228, 175.324 
	L 174.969, 171.709 
	L 171.496, 168.237 
	L 167.882, 165.048 
	L 164.055, 162.001 
	L 160.087, 159.166 
	L 155.906, 156.615 
	L 151.654, 154.347 
	L 147.189, 152.292 
	L 142.654, 150.450 
	L 138.047, 148.890 
" />
<path d="M 138.047, 148.890 
	L 133.299, 147.686 
	L 128.551, 146.694 
	L 123.732, 145.985 
	L 118.843, 145.560 
	L 114.024, 145.418 
	L 109.134, 145.560 
	L 104.244, 145.985 
	L 99.425, 146.694 
	L 94.677, 147.686 
	L 89.929, 148.890 
" />
<path d="M 89.929, 148.890 
	L 85.323, 150.450 
	L 80.787, 152.292 
	L 76.323, 154.347 
	L 72.071, 156.615 
	L 67.890, 159.166 
	L 63.921, 162.001 
	L 60.094, 165.048 
	L 56.480, 168.237 
	L 53.008, 171.709 
	L 49.748, 175.324 
	L 46.701, 179.150 
" />
<path d="M 46.701, 179.150 
	L 43.937, 183.190 
	L 41.386, 187.300 
	L 39.047, 191.623 
	L 36.992, 196.016 
	L 35.220, 200.552 
	L 33.661, 205.229 
	L 32.386, 209.906 
	L 31.394, 214.725 
	L 30.685, 219.544 
	L 30.260, 224.363 
	L 30.118, 229.253 
" />
<path d="M 30.118, 229.253 
	L 30.260, 234.142 
	L 30.685, 238.961 
	L 31.394, 243.780 
	L 32.386, 248.599 
	L 33.661, 253.276 
	L 35.220, 257.953 
	L 36.992, 262.489 
	L 39.047, 266.883 
	L 41.386, 271.205 
	L 43.937, 275.316 
	L 46.701, 279.355 
" />
<path d="M 46.701, 279.355 
	L 49.748, 283.182 
	L 53.008, 286.796 
	L 56.480, 290.268 
	L 60.094, 293.457 
	L 63.921, 296.505 
	L 67.890, 299.339 
	L 72.071, 301.891 
	L 76.323, 304.158 
	L 80.787, 306.213 
	L 85.323, 308.056 
	L 89.929, 309.615 
" />
<path d="M 89.929, 309.615 
	L 94.677, 310.820 
	L 99.425, 311.812 
	L 104.244, 312.520 
	L 109.134, 312.946 
	L 114.024, 313.087 
" />
<path d="M 114.024, 285.165 
	L 114.024, 285.166 
	L 117.992, 285.024 
	L 121.961, 284.599 
	L 125.858, 283.890 
	L 129.756, 282.898 
	L 133.512, 281.623 
	L 137.197, 280.135 
	L 140.811, 278.292 
	L 144.213, 276.308 
	L 147.472, 273.969 
" />
<path d="M 147.472, 273.969 
	L 150.591, 271.489 
	L 153.496, 268.796 
	L 156.260, 265.890 
	L 158.740, 262.772 
	L 161.008, 259.442 
	L 163.063, 256.040 
	L 164.835, 252.497 
	L 166.394, 248.812 
	L 167.598, 244.985 
	L 168.591, 241.158 
" />
<path d="M 168.591, 241.158 
	L 169.299, 237.190 
	L 169.724, 233.221 
	L 169.866, 229.253 
	L 169.724, 225.284 
	L 169.299, 221.316 
	L 168.591, 217.347 
	L 167.598, 213.520 
	L 166.394, 209.694 
	L 164.835, 206.009 
	L 163.063, 202.465 
" />
<path d="M 163.063, 202.465 
	L 161.008, 199.064 
	L 158.740, 195.733 
	L 156.260, 192.615 
	L 153.496, 189.709 
	L 150.591, 187.016 
	L 147.472, 184.536 
	L 144.213, 182.198 
	L 140.811, 180.213 
	L 137.197, 178.371 
	L 133.512, 176.883 
" />
<path d="M 133.512, 176.883 
	L 129.756, 175.607 
	L 125.858, 174.615 
	L 121.961, 173.906 
	L 117.992, 173.481 
	L 114.024, 173.339 
	L 109.984, 173.481 
	L 106.016, 173.906 
	L 102.118, 174.615 
	L 98.220, 175.607 
	L 94.465, 176.883 
" />
<path d="M 94.465, 176.883 
	L 90.780, 178.371 
	L 87.165, 180.213 
	L 83.764, 182.198 
	L 80.504, 184.536 
	L 77.386, 187.016 
	L 74.480, 189.709 
	L 71.717, 192.615 
	L 69.236, 195.733 
	L 66.969, 199.064 
	L 64.913, 202.465 
	L 63.142, 206.009 
" />
<path d="M 63.142, 206.009 
	L 61.583, 209.694 
	L 60.378, 213.520 
	L 59.386, 217.347 
	L 58.677, 221.316 
	L 58.252, 225.284 
	L 58.110, 229.253 
	L 58.252, 233.221 
	L 58.677, 237.190 
	L 59.386, 241.158 
	L 60.378, 244.985 
	L 61.583, 248.812 
" />
<path d="M 61.583, 248.812 
	L 63.142, 252.497 
	L 64.913, 256.040 
	L 66.969, 259.442 
	L 69.236, 262.772 
	L 71.717, 265.890 
	L 74.480, 268.796 
	L 77.386, 271.489 
	L 80.504, 273.969 
	L 83.764, 276.308 
	L 87.165, 278.292 
	L 90.780, 280.135 
" />
<path d="M 90.780, 280.135 
	L 94.465, 281.623 
	L 98.220, 282.898 
	L 102.118, 283.890 
	L 106.016, 284.599 
	L 109.984, 285.024 
	L 114.024, 285.166 
" />
<path d="M 114.024, 257.173 
	L 114.024, 257.174 
	L 116.717, 257.103 
	L 119.409, 256.678 
	L 122.102, 255.969 
	L 124.654, 255.048 
	L 127.134, 253.914 
	L 129.543, 252.497 
	L 131.740, 250.867 
	L 133.724, 249.024 
	L 135.567, 246.969 
" />
<path d="M 135.567, 246.969 
	L 137.197, 244.772 
	L 138.614, 242.434 
	L 139.819, 239.953 
	L 140.740, 237.331 
	L 141.378, 234.709 
	L 141.803, 232.016 
	L 141.945, 229.253 
	L 141.803, 226.489 
	L 141.378, 223.796 
	L 140.740, 221.174 
" />
<path d="M 140.740, 221.174 
	L 139.819, 218.552 
	L 138.614, 216.072 
	L 137.197, 213.733 
	L 135.567, 211.536 
	L 133.724, 209.481 
	L 131.740, 207.639 
	L 129.543, 206.009 
	L 127.134, 204.591 
	L 124.654, 203.457 
	L 122.102, 202.536 
" />
<path d="M 122.102, 202.536 
	L 119.409, 201.827 
	L 116.717, 201.402 
	L 114.024, 201.331 
	L 111.260, 201.402 
	L 108.567, 201.827 
	L 105.874, 202.536 
	L 103.323, 203.457 
	L 100.843, 204.591 
	L 98.433, 206.009 
	L 96.236, 207.639 
" />
<path d="M 96.236, 207.639 
	L 94.252, 209.481 
	L 92.409, 211.536 
	L 90.780, 213.733 
	L 89.362, 216.072 
	L 88.157, 218.552 
	L 87.236, 221.174 
	L 86.598, 223.796 
	L 86.173, 226.489 
	L 86.032, 229.253 
	L 86.173, 232.016 
	L 86.598, 234.709 
" />
<path d="M 86.598, 234.709 
	L 87.236, 237.331 
	L 88.157, 239.953 
	L 89.362, 242.434 
	L 90.780, 244.772 
	L 92.409, 246.969 
	L 94.252, 249.024 
	L 96.236, 250.867 
	L 98.433, 252.497 
	L 100.843, 253.914 
	L 103.323, 255.048 
	L 105.874, 255.969 
" />
<path d="M 105.874, 255.969 
	L 108.567, 256.678 
	L 111.260, 257.103 
	L 114.024, 257.174 
" />
<path d="M 114.024, 236.268 
	L 114.024, 236.268 
	L 115.370, 236.127 
	L 116.646, 235.702 
	L 117.850, 235.064 
	L 118.913, 234.213 
	L 119.764, 233.150 
	L 120.472, 231.946 
	L 120.827, 230.599 
	L 120.969, 229.253 
	L 120.827, 227.906 
" />
<path d="M 120.827, 227.906 
	L 120.472, 226.560 
	L 119.764, 225.355 
	L 118.913, 224.292 
	L 117.850, 223.442 
	L 116.646, 222.804 
	L 115.370, 222.379 
	L 114.024, 222.237 
	L 112.606, 222.379 
	L 111.331, 222.804 
	L 110.126, 223.442 
" />
<path d="M 110.126, 223.442 
	L 109.063, 224.292 
	L 108.213, 225.355 
	L 107.504, 226.560 
	L 107.150, 227.906 
	L 107.008, 229.253 
	L 107.150, 230.599 
	L 107.504, 231.946 
	L 108.213, 233.150 
	L 109.063, 234.213 
	L 110.126, 235.064 
" />
<path d="M 110.126, 235.064 
	L 111.331, 235.702 
	L 112.606, 236.127 
	L 114.024, 236.268 
" />
<path d="M 65.268, 236.976 
	L 65.268, 236.977 
	L 64.630, 235.843 
	L 63.780, 234.851 
	L 62.787, 234.001 
	L 61.583, 233.434 
	L 60.378, 233.079 
	L 59.032, 232.938 
	L 57.756, 233.079 
	L 56.480, 233.434 
	L 55.346, 234.072 
	L 54.354, 234.922 
" />
<path d="M 54.354, 234.922 
	L 53.504, 235.985 
	L 52.937, 237.119 
	L 52.583, 238.394 
	L 52.441, 239.670 
	L 52.583, 240.946 
	L 53.008, 242.221 
	L 53.646, 243.355 
	L 54.425, 244.347 
	L 55.488, 245.198 
	L 56.622, 245.765 
	L 57.898, 246.190 
" />
<path d="M 57.898, 246.190 
	L 59.173, 246.261 
	L 60.520, 246.119 
	L 61.724, 245.765 
	L 62.858, 245.127 
	L 63.921, 244.276 
	L 64.701, 243.284 
	L 65.339, 242.079 
	L 65.693, 240.804 
	L 65.764, 239.528 
	L 65.622, 238.253 
	L 65.268, 236.977 
" />
<path d="M 65.268, 236.977 
" />
<path d="M 63.213, 236.976 
	L 63.213, 236.977 
	L 62.504, 236.127 
	L 61.654, 235.489 
	L 60.661, 234.993 
	L 59.598, 234.780 
	L 58.535, 234.780 
	L 57.472, 235.064 
	L 56.480, 235.560 
	L 55.630, 236.198 
	L 54.992, 237.048 
	L 54.567, 238.040 
" />
<path d="M 54.567, 238.040 
	L 54.283, 239.103 
	L 54.354, 240.166 
	L 54.567, 241.229 
	L 55.063, 242.221 
	L 55.772, 243.072 
	L 56.622, 243.709 
	L 57.543, 244.205 
	L 58.606, 244.418 
	L 59.740, 244.418 
	L 60.803, 244.135 
	L 61.724, 243.639 
" />
<path d="M 61.724, 243.639 
	L 62.575, 243.001 
	L 63.213, 242.150 
	L 63.709, 241.158 
	L 63.921, 240.095 
	L 63.921, 239.032 
	L 63.638, 237.969 
	L 63.213, 236.977 
" />
<path d="M 59.103, 238.890 
	L 59.102, 238.890 
	L 58.819, 238.820 
	L 58.465, 238.961 
	L 58.323, 239.316 
	L 58.465, 239.599 
	L 58.465, 238.961 
" />
<path d="M 58.749, 238.819 
	L 58.748, 238.820 
	L 58.748, 239.883 
" />
<path d="M 59.032, 240.165 
	L 59.032, 240.166 
	L 59.032, 238.890 
" />
<path d="M 59.103, 238.890 
	L 59.102, 238.890 
	L 62.079, 241.867 
	L 62.220, 242.150 
	L 62.079, 242.434 
	L 62.008, 242.505 
	L 61.724, 242.646 
	L 61.441, 242.505 
	L 58.465, 239.599 
" />
<path d="M 59.599, 239.457 
	L 59.598, 239.457 
	L 59.598, 240.733 
" />
<path d="M 59.316, 240.449 
	L 59.315, 240.450 
	L 59.315, 239.174 
" />
<path d="M 59.883, 239.740 
	L 59.882, 239.741 
	L 59.953, 241.016 
" />
<path d="M 60.237, 241.299 
	L 60.236, 241.300 
	L 60.165, 240.024 
" />
<path d="M 60.520, 240.307 
	L 60.520, 240.308 
	L 60.520, 241.583 
" />
<path d="M 60.804, 241.866 
	L 60.803, 241.867 
	L 60.803, 240.591 
" />
<path d="M 61.087, 240.874 
	L 61.087, 240.875 
	L 61.087, 242.150 
" />
<path d="M 61.371, 242.433 
	L 61.370, 242.434 
	L 61.370, 241.158 
" />
<path d="M 61.654, 241.441 
	L 61.654, 241.442 
	L 61.654, 242.646 
" />
<path d="M 61.938, 242.575 
	L 61.937, 242.576 
	L 61.937, 241.725 
" />
<path d="M 0.001, 229.252 
	L 0.000, 229.253 
	L 227.976, 229.253 
" />
<path d="M 227.977, 313.087 
	L 227.976, 313.087 
	L 0.000, 313.087 
" />
<path d="M 9.142, 320.953 
	L 9.142, 320.953 
	L 9.142, 0.001 
" />
<path d="M 218.835, 0.000 
	L 218.835, 0.001 
	L 218.835, 320.953 
" />
</g><g style="stroke:rgb(255,255,255); fill:none; stroke-width:0.100mm" >
</g>
</svg>
