<?xml version="1.0" encoding="UTF-8" standalone="no" ?>
<svg width="100%" height="100%" viewBox="0 0 31.111 109.631" xmlns="http://www.w3.org/2000/svg"><g>
</g><g style="stroke:rgb(0,0,0); fill:none; stroke-width:1.000mm" >
</g><g style="stroke:rgb(0,0,0); fill:none; stroke-width:0.100mm" >
<path d="M 31.111, 26.008 
	L 31.110, 26.009 
	L 30.969, 24.591 
	L 30.614, 23.174 
	L 29.976, 21.898 
	L 29.197, 20.694 
	L 28.134, 19.631 
	L 27.000, 18.851 
	L 25.654, 18.213 
	L 24.307, 17.859 
	L 22.819, 17.717 
	L 21.402, 17.859 
" />
<path d="M 21.402, 17.859 
	L 19.984, 18.213 
	L 18.709, 18.851 
	L 17.504, 19.631 
	L 16.512, 20.694 
	L 15.661, 21.898 
	L 15.024, 23.174 
	L 14.669, 24.591 
	L 14.528, 26.009 
	L 14.669, 27.426 
	L 15.024, 28.843 
	L 15.661, 30.119 
" />
<path d="M 15.661, 30.119 
	L 16.512, 31.324 
	L 17.504, 32.387 
	L 18.709, 33.166 
	L 19.984, 33.804 
	L 21.402, 34.158 
	L 22.819, 34.300 
	L 24.307, 34.158 
	L 25.654, 33.804 
	L 27.000, 33.166 
	L 28.134, 32.387 
	L 29.197, 31.324 
" />
<path d="M 29.197, 31.324 
	L 29.976, 30.119 
	L 30.614, 28.843 
	L 30.969, 27.426 
	L 31.110, 26.009 
" />
<path d="M 16.513, 25.299 
	L 16.512, 25.300 
	L 16.512, 21.048 
" />
<path d="M 14.528, 21.047 
	L 14.528, 21.048 
	L 14.528, 25.300 
" />
<path d="M 14.528, 27.425 
	L 14.528, 27.426 
	L 14.528, 31.678 
" />
<path d="M 16.513, 31.677 
	L 16.512, 31.678 
	L 16.512, 27.426 
" />
<path d="M 16.513, 33.803 
	L 16.512, 33.804 
	L 16.512, 38.127 
" />
<path d="M 14.528, 38.126 
	L 14.528, 38.127 
	L 14.528, 33.804 
" />
<path d="M 14.528, 40.252 
	L 14.528, 40.253 
	L 14.528, 44.505 
" />
<path d="M 16.513, 44.504 
	L 16.512, 44.505 
	L 16.512, 40.253 
" />
<path d="M 16.513, 46.630 
	L 16.512, 46.631 
	L 16.512, 50.953 
" />
<path d="M 14.528, 50.953 
	L 14.528, 50.953 
	L 14.528, 46.631 
" />
<path d="M 14.528, 53.079 
	L 14.528, 53.079 
	L 14.528, 57.331 
" />
<path d="M 16.513, 57.331 
	L 16.512, 57.331 
	L 16.512, 53.079 
" />
<path d="M 16.513, 59.457 
	L 16.512, 59.457 
	L 16.512, 63.709 
" />
<path d="M 14.528, 63.709 
	L 14.528, 63.709 
	L 14.528, 59.457 
" />
<path d="M 14.528, 65.906 
	L 14.528, 65.906 
	L 14.528, 70.158 
" />
<path d="M 16.513, 70.157 
	L 16.512, 70.158 
	L 16.512, 65.906 
" />
<path d="M 16.513, 72.283 
	L 16.512, 72.284 
	L 16.512, 76.536 
" />
<path d="M 14.528, 76.535 
	L 14.528, 76.536 
	L 14.528, 72.284 
" />
<path d="M 14.528, 78.661 
	L 14.528, 78.662 
	L 14.528, 82.985 
" />
<path d="M 16.513, 82.984 
	L 16.512, 82.985 
	L 16.512, 78.662 
" />
<path d="M 17.505, 82.276 
	L 17.504, 82.276 
	L 16.512, 83.339 
	L 15.661, 84.473 
	L 15.024, 85.820 
	L 14.669, 87.237 
	L 14.528, 88.654 
	L 14.669, 90.072 
	L 15.024, 91.489 
	L 15.661, 92.765 
	L 16.512, 93.969 
	L 17.504, 95.032 
" />
<path d="M 17.504, 95.032 
	L 18.709, 95.812 
	L 19.984, 96.450 
	L 21.402, 96.804 
	L 22.819, 96.946 
	L 24.307, 96.804 
	L 25.654, 96.450 
	L 27.000, 95.812 
	L 28.134, 95.032 
	L 29.197, 93.969 
	L 29.976, 92.765 
	L 30.614, 91.489 
" />
<path d="M 30.614, 91.489 
	L 30.969, 90.072 
	L 31.110, 88.654 
	L 30.969, 87.237 
	L 30.614, 85.820 
	L 29.976, 84.473 
	L 29.197, 83.339 
	L 28.134, 82.276 
	L 27.000, 81.497 
	L 25.654, 80.859 
	L 24.307, 80.505 
	L 22.819, 80.363 
" />
<path d="M 22.819, 80.363 
	L 21.402, 80.505 
	L 19.984, 80.859 
	L 18.709, 81.497 
	L 17.504, 82.276 
" />
<path d="M 16.513, 85.110 
	L 16.512, 85.111 
	L 16.512, 89.363 
" />
<path d="M 16.513, 88.654 
	L 16.512, 88.654 
	L 16.441, 87.237 
	L 16.016, 85.820 
	L 15.449, 84.473 
	L 14.598, 83.339 
	L 13.606, 82.276 
	L 12.402, 81.497 
	L 11.126, 80.859 
	L 9.709, 80.505 
	L 8.291, 80.363 
	L 6.803, 80.505 
" />
<path d="M 6.803, 80.505 
	L 5.457, 80.859 
	L 4.110, 81.497 
	L 2.906, 82.276 
	L 1.913, 83.339 
	L 1.063, 84.473 
	L 0.496, 85.820 
	L 0.142, 87.237 
	L 0.000, 88.654 
	L 0.142, 90.072 
	L 0.496, 91.489 
	L 1.063, 92.765 
	L 1.913, 93.969 
" />
<path d="M 1.913, 93.969 
	L 2.906, 95.032 
	L 4.110, 95.812 
	L 5.457, 96.450 
	L 6.803, 96.804 
	L 8.291, 96.946 
	L 9.709, 96.804 
	L 11.126, 96.450 
	L 12.402, 95.812 
	L 13.606, 95.032 
	L 14.598, 93.969 
	L 15.449, 92.765 
	L 16.016, 91.489 
" />
<path d="M 16.016, 91.489 
	L 16.441, 90.072 
	L 16.512, 88.654 
" />
<path d="M 16.442, 87.307 
	L 16.441, 87.308 
	L 14.598, 89.150 
" />
<path d="M 14.528, 89.362 
	L 14.528, 89.363 
	L 14.528, 85.111 
" />
<path d="M 15.166, 85.535 
	L 15.165, 85.536 
	L 15.732, 85.040 
" />
<path d="M 16.016, 85.677 
	L 16.016, 85.678 
	L 14.740, 87.024 
" />
<path d="M 14.599, 88.157 
	L 14.598, 88.158 
	L 16.228, 86.457 
" />
<path d="M 16.513, 88.228 
	L 16.512, 88.229 
	L 14.669, 90.072 
" />
<path d="M 14.883, 90.921 
	L 14.882, 90.922 
	L 16.512, 89.221 
" />
<path d="M 16.371, 90.425 
	L 16.370, 90.426 
	L 15.094, 91.631 
" />
<path d="M 14.528, 91.488 
	L 14.528, 91.489 
	L 14.528, 95.741 
" />
<path d="M 16.513, 95.740 
	L 16.512, 95.741 
	L 16.512, 91.489 
" />
<path d="M 15.875, 91.843 
	L 15.874, 91.843 
	L 15.449, 92.339 
" />
<path d="M 14.528, 97.937 
	L 14.528, 97.938 
	L 14.528, 100.064 
" />
<path d="M 16.513, 100.063 
	L 16.512, 100.064 
	L 16.512, 97.938 
" />
<path d="M 18.709, 104.315 
	L 18.709, 104.316 
	L 19.701, 104.316 
" />
<path d="M 19.276, 104.315 
	L 19.276, 104.316 
	L 19.276, 107.150 
" />
<path d="M 19.135, 107.150 
	L 19.134, 107.150 
	L 19.134, 104.316 
" />
<path d="M 20.481, 104.315 
	L 20.480, 104.316 
	L 21.472, 104.316 
" />
<path d="M 21.048, 104.315 
	L 21.047, 104.316 
	L 21.047, 107.150 
" />
<path d="M 20.906, 107.150 
	L 20.906, 107.150 
	L 20.906, 104.316 
" />
<path d="M 20.906, 105.661 
	L 20.906, 105.662 
	L 19.276, 105.662 
" />
<path d="M 19.701, 107.150 
	L 19.701, 107.150 
	L 18.709, 107.150 
" />
<path d="M 20.481, 107.150 
	L 20.480, 107.150 
	L 21.472, 107.150 
" />
<path d="M 21.969, 107.150 
	L 21.969, 107.150 
	L 22.961, 107.150 
" />
<path d="M 22.536, 107.150 
	L 22.535, 107.150 
	L 22.535, 105.237 
	L 21.969, 105.237 
" />
<path d="M 22.394, 105.236 
	L 22.394, 105.237 
	L 22.394, 107.150 
" />
<path d="M 24.024, 107.008 
	L 24.024, 107.009 
	L 24.307, 107.150 
	L 24.591, 107.150 
	L 24.803, 107.009 
	L 24.945, 106.725 
" />
<path d="M 24.024, 106.583 
	L 24.024, 106.583 
	L 24.165, 107.009 
	L 24.307, 107.150 
" />
<path d="M 24.024, 107.008 
	L 24.024, 107.009 
	L 23.882, 106.583 
	L 23.882, 104.316 
" />
<path d="M 24.024, 104.315 
	L 24.024, 104.316 
	L 24.024, 106.583 
" />
<path d="M 23.457, 105.236 
	L 23.457, 105.237 
	L 24.591, 105.237 
" />
<path d="M 22.394, 104.598 
	L 22.394, 104.599 
	L 22.535, 104.457 
	L 22.394, 104.316 
	L 22.252, 104.457 
	L 22.394, 104.599 
" />
<path d="M 15.095, 105.520 
	L 15.094, 105.520 
	L 14.953, 105.379 
	L 14.669, 105.237 
	L 14.244, 105.237 
	L 13.890, 105.379 
	L 13.606, 105.662 
	L 13.465, 106.087 
	L 13.465, 106.371 
	L 13.606, 106.725 
	L 13.890, 107.009 
	L 14.244, 107.150 
" />
<path d="M 14.244, 107.150 
	L 14.528, 107.150 
	L 14.953, 107.009 
	L 15.236, 106.725 
" />
<path d="M 15.237, 106.087 
	L 15.236, 106.087 
	L 15.236, 105.804 
	L 15.094, 105.520 
" />
<path d="M 15.095, 105.661 
	L 15.094, 105.662 
	L 14.953, 105.379 
" />
<path d="M 15.095, 105.661 
	L 15.094, 105.662 
	L 15.094, 106.087 
" />
<path d="M 15.237, 106.087 
	L 15.236, 106.087 
	L 13.606, 106.087 
	L 13.606, 106.371 
	L 13.748, 106.725 
	L 13.961, 107.009 
	L 14.244, 107.150 
" />
<path d="M 12.757, 107.150 
	L 12.756, 107.150 
	L 11.835, 107.150 
" />
<path d="M 12.261, 107.150 
	L 12.260, 107.150 
	L 12.260, 105.662 
	L 12.118, 105.379 
	L 11.835, 105.237 
	L 12.260, 105.379 
	L 12.331, 105.662 
	L 12.331, 107.150 
" />
<path d="M 11.268, 107.150 
	L 11.268, 107.150 
	L 10.346, 107.150 
" />
<path d="M 10.772, 107.150 
	L 10.772, 107.150 
	L 10.772, 105.237 
" />
<path d="M 10.843, 105.236 
	L 10.843, 105.237 
	L 10.843, 107.150 
" />
<path d="M 9.780, 107.150 
	L 9.780, 107.150 
	L 8.858, 107.150 
" />
<path d="M 9.284, 107.150 
	L 9.283, 107.150 
	L 9.283, 105.237 
" />
<path d="M 9.355, 105.236 
	L 9.354, 105.237 
	L 9.354, 107.150 
" />
<path d="M 9.355, 105.236 
	L 9.354, 105.237 
	L 8.858, 105.237 
" />
<path d="M 8.292, 105.095 
	L 8.291, 105.095 
	L 8.150, 104.316 
" />
<path d="M 8.292, 104.315 
	L 8.291, 104.316 
	L 8.291, 105.095 
" />
<path d="M 7.513, 105.095 
	L 7.512, 105.095 
	L 7.512, 106.229 
" />
<path d="M 7.513, 105.661 
	L 7.512, 105.662 
	L 6.661, 105.662 
" />
<path d="M 6.662, 104.315 
	L 6.661, 104.316 
	L 6.661, 107.150 
" />
<path d="M 6.520, 107.150 
	L 6.520, 107.150 
	L 6.520, 104.316 
" />
<path d="M 6.166, 104.315 
	L 6.165, 104.316 
	L 8.291, 104.316 
" />
<path d="M 9.284, 104.315 
	L 9.283, 104.316 
	L 9.142, 104.457 
	L 9.283, 104.599 
	L 9.354, 104.457 
	L 9.283, 104.316 
" />
<path d="M 10.347, 105.236 
	L 10.346, 105.237 
	L 10.843, 105.237 
" />
<path d="M 10.843, 105.661 
	L 10.843, 105.662 
	L 11.126, 105.379 
	L 11.551, 105.237 
	L 11.835, 105.237 
" />
<path d="M 13.961, 105.378 
	L 13.961, 105.379 
	L 13.748, 105.662 
	L 13.606, 106.087 
" />
<path d="M 13.961, 105.378 
	L 13.961, 105.379 
	L 14.244, 105.237 
" />
<path d="M 7.087, 107.150 
	L 7.087, 107.150 
	L 6.165, 107.150 
" />
<path d="M 6.804, 26.291 
	L 6.803, 26.292 
	L 8.291, 26.434 
	L 9.709, 26.292 
	L 11.126, 25.938 
	L 12.402, 25.300 
	L 13.606, 24.450 
	L 14.598, 23.457 
	L 15.449, 22.253 
	L 16.016, 20.977 
	L 16.441, 19.560 
	L 16.512, 18.142 
" />
<path d="M 16.512, 18.142 
	L 16.441, 16.654 
	L 16.016, 15.308 
	L 15.449, 13.961 
	L 14.598, 12.827 
	L 13.606, 11.764 
	L 12.402, 10.914 
	L 11.126, 10.347 
	L 9.709, 9.993 
	L 8.291, 9.851 
	L 6.803, 9.993 
	L 5.457, 10.347 
" />
<path d="M 5.457, 10.347 
	L 4.110, 10.914 
	L 2.906, 11.764 
	L 1.913, 12.827 
	L 1.063, 13.961 
	L 0.496, 15.308 
	L 0.142, 16.654 
	L 0.000, 18.142 
	L 0.142, 19.560 
	L 0.496, 20.977 
	L 1.063, 22.253 
	L 1.913, 23.457 
	L 2.906, 24.450 
" />
<path d="M 2.906, 24.450 
	L 4.110, 25.300 
	L 5.457, 25.938 
	L 6.803, 26.292 
" />
<path d="M 14.528, 18.921 
	L 14.528, 18.922 
	L 14.528, 14.599 
" />
<path d="M 16.513, 14.598 
	L 16.512, 14.599 
	L 16.512, 18.922 
" />
<path d="M 16.513, 12.472 
	L 16.512, 12.473 
	L 16.512, 8.221 
" />
<path d="M 14.528, 8.220 
	L 14.528, 8.221 
	L 14.528, 12.473 
" />
<path d="M 14.528, 6.094 
	L 14.528, 6.095 
	L 14.528, 1.772 
" />
<path d="M 16.513, 1.772 
	L 16.512, 1.772 
	L 16.512, 6.095 
" />
<path d="M 16.513, -0.354 
	L 16.512, -0.354 
	L 16.512, -2.480 
" />
<path d="M 14.528, -2.480 
	L 14.528, -2.480 
	L 14.528, -0.354 
" />
</g><g style="stroke:rgb(255,255,255); fill:none; stroke-width:0.100mm" >
</g>
</svg>
