<?xml version="1.0" encoding="UTF-8" standalone="no" ?>
<svg width="100%" height="100%" viewBox="0 0 227.976 217.772" xmlns="http://www.w3.org/2000/svg"><g>
</g><g style="stroke:rgb(0,0,0); fill:none; stroke-width:1.000mm" >
</g><g style="stroke:rgb(0,0,0); fill:none; stroke-width:0.100mm" >
<path d="M 182.268, 129.402 
	L 182.268, 129.402 
	L 188.291, 128.410 
" />
<path d="M 188.079, 128.693 
	L 188.079, 128.694 
	L 182.268, 129.686 
" />
<path d="M 182.268, 129.543 
	L 182.268, 129.544 
	L 182.622, 130.820 
	L 183.189, 131.953 
	L 183.969, 133.016 
	L 184.961, 133.867 
	L 186.095, 134.505 
	L 187.370, 134.930 
	L 188.646, 135.072 
	L 189.921, 135.001 
	L 191.197, 134.646 
" />
<path d="M 191.197, 134.646 
	L 192.402, 134.079 
	L 193.394, 133.300 
	L 194.244, 132.308 
	L 194.953, 131.174 
	L 195.307, 129.898 
	L 195.520, 128.623 
	L 195.449, 127.276 
	L 195.095, 126.072 
	L 194.457, 124.867 
	L 193.677, 123.875 
" />
<path d="M 193.677, 123.875 
	L 192.685, 122.953 
	L 191.551, 122.316 
	L 190.346, 121.890 
	L 189.000, 121.749 
	L 187.724, 121.820 
	L 186.449, 122.174 
	L 185.315, 122.741 
	L 184.252, 123.591 
	L 183.402, 124.583 
	L 182.764, 125.717 
" />
<path d="M 182.764, 125.717 
	L 182.339, 126.922 
	L 182.197, 128.198 
	L 182.268, 129.544 
" />
<path d="M 182.198, 129.118 
	L 182.197, 129.119 
	L 188.504, 128.056 
" />
<path d="M 188.788, 127.772 
	L 188.787, 127.772 
	L 182.197, 128.835 
" />
<path d="M 182.198, 128.551 
	L 182.197, 128.552 
	L 195.165, 126.355 
" />
<path d="M 195.095, 126.071 
	L 195.095, 126.072 
	L 182.197, 128.268 
" />
<path d="M 182.198, 127.984 
	L 182.197, 127.985 
	L 194.953, 125.788 
" />
<path d="M 194.883, 125.575 
	L 194.882, 125.576 
	L 182.197, 127.702 
" />
<path d="M 182.268, 127.417 
	L 182.268, 127.418 
	L 194.740, 125.292 
" />
<path d="M 194.599, 125.008 
	L 194.598, 125.009 
	L 182.268, 127.064 
" />
<path d="M 182.339, 126.780 
	L 182.339, 126.780 
	L 194.386, 124.725 
" />
<path d="M 194.245, 124.512 
	L 194.244, 124.513 
	L 182.480, 126.497 
" />
<path d="M 182.552, 126.142 
	L 182.551, 126.142 
	L 194.032, 124.229 
" />
<path d="M 193.820, 123.945 
	L 193.819, 123.946 
	L 182.693, 125.859 
" />
<path d="M 182.835, 125.575 
	L 182.835, 125.576 
	L 193.606, 123.733 
" />
<path d="M 193.324, 123.449 
	L 193.323, 123.450 
	L 182.976, 125.221 
" />
<path d="M 183.190, 124.937 
	L 183.189, 124.938 
	L 193.039, 123.237 
" />
<path d="M 192.757, 123.024 
	L 192.756, 123.024 
	L 183.402, 124.583 
" />
<path d="M 183.615, 124.228 
	L 183.614, 124.229 
	L 192.402, 122.741 
" />
<path d="M 191.977, 122.528 
	L 191.976, 122.528 
	L 183.898, 123.875 
" />
<path d="M 184.253, 123.520 
	L 184.252, 123.520 
	L 191.551, 122.316 
" />
<path d="M 191.056, 122.102 
	L 191.055, 122.103 
	L 184.677, 123.166 
" />
<path d="M 185.245, 122.811 
	L 185.244, 122.812 
	L 190.417, 121.961 
" />
<path d="M 189.568, 121.819 
	L 189.567, 121.820 
	L 185.953, 122.387 
" />
<path d="M 186.520, 124.157 
	L 186.520, 124.158 
	L 185.598, 124.796 
	L 184.890, 125.646 
	L 184.394, 126.568 
	L 184.039, 127.631 
	L 183.969, 128.694 
	L 184.181, 129.757 
	L 184.606, 130.749 
	L 185.244, 131.670 
	L 186.024, 132.379 
" />
<path d="M 186.024, 132.379 
	L 186.945, 132.875 
	L 188.008, 133.158 
	L 189.071, 133.229 
	L 190.134, 133.087 
	L 191.197, 132.662 
	L 192.047, 132.024 
	L 192.756, 131.245 
	L 193.323, 130.253 
	L 193.606, 129.261 
	L 193.677, 128.127 
" />
<path d="M 193.677, 128.127 
	L 193.465, 127.064 
	L 193.039, 126.072 
	L 192.472, 125.221 
	L 191.622, 124.442 
	L 190.701, 123.946 
	L 189.638, 123.662 
	L 188.575, 123.591 
	L 187.512, 123.804 
	L 186.520, 124.158 
" />
<path d="M 189.001, 127.559 
	L 189.000, 127.560 
	L 188.787, 127.772 
	L 186.307, 131.174 
	L 186.236, 131.457 
	L 186.378, 131.741 
	L 186.449, 131.812 
	L 186.803, 131.883 
	L 187.087, 131.741 
	L 189.496, 128.268 
	L 189.567, 127.985 
" />
<path d="M 189.567, 127.985 
	L 189.425, 127.702 
	L 189.354, 127.631 
	L 195.236, 126.639 
" />
<path d="M 195.308, 126.921 
	L 195.307, 126.922 
	L 189.567, 127.914 
" />
<path d="M 189.568, 128.197 
	L 189.567, 128.198 
	L 195.378, 127.205 
" />
<path d="M 195.450, 127.488 
	L 195.449, 127.489 
	L 189.354, 128.481 
" />
<path d="M 189.072, 128.835 
	L 189.071, 128.835 
	L 195.449, 127.772 
" />
<path d="M 195.520, 128.055 
	L 195.520, 128.056 
	L 188.858, 129.190 
" />
<path d="M 188.646, 129.472 
	L 188.646, 129.473 
	L 195.520, 128.339 
" />
<path d="M 195.520, 128.622 
	L 195.520, 128.623 
	L 188.362, 129.828 
" />
<path d="M 188.150, 130.181 
	L 188.150, 130.182 
	L 195.520, 128.906 
" />
<path d="M 195.450, 129.189 
	L 195.449, 129.190 
	L 187.937, 130.465 
" />
<path d="M 187.654, 130.819 
	L 187.654, 130.820 
	L 195.449, 129.544 
" />
<path d="M 195.379, 129.827 
	L 195.378, 129.828 
	L 187.441, 131.174 
" />
<path d="M 187.229, 131.457 
	L 187.228, 131.457 
	L 195.307, 130.111 
" />
<path d="M 195.166, 130.394 
	L 195.165, 130.394 
	L 186.945, 131.812 
" />
<path d="M 186.591, 131.882 
	L 186.591, 131.883 
	L 183.472, 132.379 
" />
<path d="M 183.331, 132.165 
	L 183.331, 132.166 
	L 186.307, 131.670 
" />
<path d="M 186.237, 131.386 
	L 186.236, 131.387 
	L 183.118, 131.883 
" />
<path d="M 182.977, 131.598 
	L 182.976, 131.599 
	L 186.378, 131.032 
" />
<path d="M 186.662, 130.677 
	L 186.661, 130.678 
	L 182.835, 131.316 
" />
<path d="M 182.694, 131.102 
	L 182.693, 131.103 
	L 186.874, 130.394 
" />
<path d="M 187.087, 130.039 
	L 187.087, 130.040 
	L 182.622, 130.820 
" />
<path d="M 182.481, 130.535 
	L 182.480, 130.536 
	L 187.370, 129.686 
" />
<path d="M 187.583, 129.402 
	L 187.583, 129.402 
	L 182.409, 130.253 
" />
<path d="M 182.339, 129.969 
	L 182.339, 129.969 
	L 187.795, 129.048 
" />
<path d="M 189.001, 127.559 
	L 189.000, 127.560 
	L 189.354, 127.631 
" />
<path d="M 188.363, 135.071 
	L 188.362, 135.072 
	L 191.480, 134.576 
" />
<path d="M 192.331, 134.079 
	L 192.331, 134.079 
	L 187.441, 134.930 
" />
<path d="M 186.733, 134.787 
	L 186.732, 134.788 
	L 192.898, 133.725 
" />
<path d="M 193.324, 133.370 
	L 193.323, 133.371 
	L 186.236, 134.576 
" />
<path d="M 185.741, 134.362 
	L 185.740, 134.363 
	L 193.677, 133.016 
" />
<path d="M 193.961, 132.661 
	L 193.961, 132.662 
	L 185.386, 134.150 
" />
<path d="M 185.032, 133.866 
	L 185.032, 133.867 
	L 194.244, 132.308 
" />
<path d="M 194.457, 132.024 
	L 194.457, 132.024 
	L 184.677, 133.654 
" />
<path d="M 184.394, 133.441 
	L 184.394, 133.442 
	L 194.669, 131.670 
" />
<path d="M 194.812, 131.386 
	L 194.811, 131.387 
	L 184.110, 133.158 
" />
<path d="M 183.898, 132.945 
	L 183.898, 132.946 
	L 194.953, 131.032 
" />
<path d="M 195.095, 130.748 
	L 195.095, 130.749 
	L 183.685, 132.662 
" />
<path d="M 159.024, 140.811 
	L 159.024, 140.812 
	L 154.134, 152.505 
" />
<path d="M 153.851, 152.504 
	L 153.850, 152.505 
	L 158.811, 140.670 
" />
<path d="M 158.599, 140.457 
	L 158.598, 140.457 
	L 153.567, 152.434 
" />
<path d="M 153.355, 152.362 
	L 153.354, 152.363 
	L 154.630, 152.505 
	L 155.906, 152.434 
	L 157.181, 152.009 
	L 158.315, 151.442 
	L 159.378, 150.591 
	L 160.158, 149.599 
	L 160.795, 148.394 
	L 161.150, 147.190 
	L 161.291, 145.843 
" />
<path d="M 161.291, 145.843 
	L 161.220, 144.568 
	L 160.795, 143.292 
	L 160.228, 142.158 
	L 159.378, 141.166 
	L 158.386, 140.316 
	L 157.181, 139.678 
	L 155.976, 139.324 
	L 154.630, 139.182 
	L 153.354, 139.324 
	L 152.079, 139.678 
" />
<path d="M 152.079, 139.678 
	L 150.945, 140.316 
	L 149.953, 141.095 
	L 149.102, 142.158 
	L 148.465, 143.292 
	L 148.110, 144.568 
	L 147.969, 145.843 
	L 148.110, 147.119 
	L 148.465, 148.394 
	L 149.102, 149.528 
	L 149.882, 150.591 
" />
<path d="M 149.882, 150.591 
	L 150.945, 151.371 
	L 152.079, 152.009 
	L 153.354, 152.363 
" />
<path d="M 153.284, 152.362 
	L 153.283, 152.363 
	L 158.315, 140.316 
" />
<path d="M 158.103, 140.102 
	L 158.102, 140.103 
	L 153.000, 152.292 
" />
<path d="M 152.717, 152.220 
	L 152.717, 152.221 
	L 155.055, 146.694 
	L 155.268, 146.481 
	L 155.268, 146.127 
	L 157.819, 139.961 
" />
<path d="M 157.607, 139.890 
	L 157.606, 139.890 
	L 155.126, 145.772 
" />
<path d="M 155.268, 146.126 
	L 155.268, 146.127 
	L 153.638, 142.229 
	L 153.425, 142.016 
	L 153.142, 142.016 
	L 153.000, 142.087 
	L 152.787, 142.300 
	L 152.787, 142.583 
	L 154.417, 146.481 
	L 154.630, 146.694 
	L 154.913, 146.694 
" />
<path d="M 154.913, 146.694 
	L 155.055, 146.694 
" />
<path d="M 154.702, 146.764 
	L 154.701, 146.765 
	L 152.433, 152.150 
" />
<path d="M 152.150, 152.079 
	L 152.150, 152.079 
	L 154.488, 146.552 
" />
<path d="M 154.276, 146.197 
	L 154.276, 146.198 
	L 151.937, 151.938 
" />
<path d="M 151.654, 151.795 
	L 151.654, 151.796 
	L 154.134, 145.843 
" />
<path d="M 153.993, 145.488 
	L 153.992, 145.489 
	L 151.370, 151.654 
" />
<path d="M 151.158, 151.512 
	L 151.158, 151.513 
	L 153.850, 145.135 
" />
<path d="M 153.709, 144.709 
	L 153.709, 144.709 
	L 150.874, 151.371 
" />
<path d="M 150.662, 151.228 
	L 150.661, 151.229 
	L 153.496, 144.355 
" />
<path d="M 153.355, 144.000 
	L 153.354, 144.001 
	L 150.449, 151.016 
" />
<path d="M 150.166, 150.803 
	L 150.165, 150.804 
	L 153.213, 143.576 
" />
<path d="M 153.072, 143.220 
	L 153.071, 143.221 
	L 149.953, 150.591 
" />
<path d="M 149.741, 150.378 
	L 149.740, 150.379 
	L 152.929, 142.867 
" />
<path d="M 152.788, 142.441 
	L 152.787, 142.442 
	L 149.528, 150.166 
" />
<path d="M 149.316, 149.882 
	L 149.315, 149.883 
	L 153.780, 139.253 
" />
<path d="M 153.497, 139.252 
	L 153.496, 139.253 
	L 149.173, 149.670 
" />
<path d="M 148.961, 149.315 
	L 148.961, 149.316 
	L 153.142, 139.324 
" />
<path d="M 152.788, 139.465 
	L 152.787, 139.465 
	L 148.748, 149.032 
" />
<path d="M 148.607, 148.677 
	L 148.606, 148.678 
	L 152.433, 139.536 
" />
<path d="M 152.079, 139.677 
	L 152.079, 139.678 
	L 148.465, 148.324 
" />
<path d="M 148.324, 147.969 
	L 148.323, 147.969 
	L 151.654, 139.890 
" />
<path d="M 151.300, 140.102 
	L 151.299, 140.103 
	L 148.181, 147.473 
" />
<path d="M 148.040, 146.976 
	L 148.039, 146.977 
	L 150.874, 140.387 
" />
<path d="M 150.379, 140.740 
	L 150.378, 140.741 
	L 147.969, 146.481 
" />
<path d="M 147.969, 145.772 
	L 147.969, 145.772 
	L 149.882, 141.166 
" />
<path d="M 149.316, 141.874 
	L 149.315, 141.875 
	L 148.039, 144.851 
" />
<path d="M 150.024, 144.496 
	L 150.024, 144.497 
	L 149.811, 145.560 
	L 149.882, 146.623 
	L 150.165, 147.686 
	L 150.661, 148.678 
	L 151.441, 149.457 
	L 152.291, 150.095 
	L 153.283, 150.520 
	L 154.346, 150.662 
	L 155.409, 150.591 
" />
<path d="M 155.409, 150.591 
	L 156.472, 150.308 
	L 157.465, 149.812 
	L 158.244, 149.103 
	L 158.882, 148.182 
	L 159.307, 147.190 
	L 159.449, 146.127 
	L 159.449, 145.064 
	L 159.095, 144.001 
	L 158.598, 143.079 
	L 157.890, 142.229 
" />
<path d="M 157.890, 142.229 
	L 156.969, 141.591 
	L 155.976, 141.237 
	L 154.913, 141.024 
	L 153.850, 141.095 
	L 152.787, 141.379 
	L 151.866, 141.875 
	L 151.016, 142.654 
	L 150.378, 143.505 
	L 150.024, 144.497 
" />
<path d="M 154.489, 144.283 
	L 154.488, 144.284 
	L 156.472, 139.465 
" />
<path d="M 156.261, 139.394 
	L 156.260, 139.394 
	L 154.346, 143.930 
" />
<path d="M 154.205, 143.504 
	L 154.205, 143.505 
	L 155.976, 139.324 
" />
<path d="M 155.623, 139.252 
	L 155.622, 139.253 
	L 153.992, 143.150 
" />
<path d="M 153.851, 142.795 
	L 153.850, 142.796 
	L 155.339, 139.253 
" />
<path d="M 155.056, 139.181 
	L 155.055, 139.182 
	L 153.709, 142.371 
" />
<path d="M 153.568, 142.087 
	L 153.567, 142.087 
	L 154.772, 139.182 
" />
<path d="M 154.418, 139.181 
	L 154.417, 139.182 
	L 153.283, 142.016 
" />
<path d="M 152.930, 142.158 
	L 152.929, 142.158 
	L 154.134, 139.182 
" />
<path d="M 156.757, 139.535 
	L 156.756, 139.536 
	L 154.630, 144.639 
" />
<path d="M 154.772, 145.063 
	L 154.772, 145.064 
	L 157.039, 139.607 
" />
<path d="M 157.324, 139.748 
	L 157.323, 139.749 
	L 154.984, 145.418 
" />
<path d="M 161.292, 145.134 
	L 161.291, 145.135 
	L 158.811, 151.087 
" />
<path d="M 158.316, 151.370 
	L 158.315, 151.371 
	L 161.220, 144.568 
" />
<path d="M 161.079, 144.142 
	L 161.079, 144.142 
	L 157.961, 151.654 
" />
<path d="M 157.536, 151.866 
	L 157.535, 151.867 
	L 160.937, 143.646 
" />
<path d="M 160.796, 143.291 
	L 160.795, 143.292 
	L 157.181, 152.009 
" />
<path d="M 156.757, 152.150 
	L 156.756, 152.150 
	L 160.654, 142.938 
" />
<path d="M 160.442, 142.583 
	L 160.441, 142.583 
	L 156.402, 152.292 
" />
<path d="M 156.048, 152.362 
	L 156.047, 152.363 
	L 160.299, 142.300 
" />
<path d="M 160.087, 142.016 
	L 160.087, 142.016 
	L 155.764, 152.434 
" />
<path d="M 155.410, 152.504 
	L 155.409, 152.505 
	L 159.874, 141.733 
" />
<path d="M 159.662, 141.520 
	L 159.661, 141.520 
	L 155.055, 152.505 
" />
<path d="M 154.772, 152.504 
	L 154.772, 152.505 
	L 159.449, 141.237 
" />
<path d="M 159.237, 141.024 
	L 159.236, 141.024 
	L 154.488, 152.505 
" />
<path d="M 159.308, 150.661 
	L 159.307, 150.662 
	L 161.291, 145.772 
" />
<path d="M 161.292, 146.622 
	L 161.291, 146.623 
	L 159.874, 150.024 
" />
<path d="M 114.591, 138.827 
	L 114.591, 138.828 
	L 111.331, 140.457 
" />
<path d="M 111.827, 140.315 
	L 111.827, 140.316 
	L 113.032, 139.890 
	L 114.165, 139.182 
	L 115.157, 138.261 
	L 115.866, 137.198 
	L 116.433, 136.064 
	L 116.717, 134.788 
	L 116.787, 133.442 
	L 116.575, 132.166 
	L 116.150, 130.961 
" />
<path d="M 116.150, 130.961 
	L 115.441, 129.828 
	L 114.520, 128.835 
	L 113.457, 128.127 
	L 112.252, 127.560 
	L 111.047, 127.276 
	L 109.701, 127.205 
	L 108.425, 127.418 
	L 107.220, 127.843 
	L 106.087, 128.552 
	L 105.095, 129.473 
" />
<path d="M 105.095, 129.473 
	L 104.386, 130.536 
	L 103.819, 131.741 
	L 103.535, 132.946 
	L 103.465, 134.292 
	L 103.677, 135.568 
	L 104.102, 136.772 
	L 104.811, 137.906 
	L 105.732, 138.898 
	L 106.795, 139.607 
	L 107.929, 140.174 
" />
<path d="M 107.929, 140.174 
	L 109.205, 140.457 
	L 110.551, 140.528 
	L 111.827, 140.316 
" />
<path d="M 110.481, 140.528 
	L 110.480, 140.528 
	L 115.157, 138.190 
" />
<path d="M 115.583, 137.693 
	L 115.583, 137.694 
	L 109.772, 140.528 
" />
<path d="M 109.276, 140.457 
	L 109.276, 140.457 
	L 115.866, 137.268 
" />
<path d="M 116.150, 136.772 
	L 116.150, 136.772 
	L 108.780, 140.387 
" />
<path d="M 108.355, 140.315 
	L 108.354, 140.316 
	L 116.291, 136.418 
" />
<path d="M 116.434, 135.992 
	L 116.433, 135.993 
	L 107.929, 140.174 
" />
<path d="M 107.576, 140.032 
	L 107.575, 140.032 
	L 116.575, 135.639 
" />
<path d="M 116.646, 135.283 
	L 116.646, 135.284 
	L 107.220, 139.890 
" />
<path d="M 106.938, 139.748 
	L 106.937, 139.749 
	L 116.717, 134.930 
" />
<path d="M 116.788, 134.575 
	L 116.787, 134.576 
	L 106.583, 139.536 
" />
<path d="M 106.371, 139.394 
	L 106.370, 139.394 
	L 116.787, 134.221 
" />
<path d="M 116.788, 133.937 
	L 116.787, 133.938 
	L 106.087, 139.182 
" />
<path d="M 105.804, 138.969 
	L 105.803, 138.969 
	L 116.787, 133.583 
" />
<path d="M 116.788, 133.299 
	L 116.787, 133.300 
	L 105.591, 138.757 
" />
<path d="M 105.379, 138.543 
	L 105.378, 138.544 
	L 116.717, 133.016 
" />
<path d="M 116.717, 132.661 
	L 116.717, 132.662 
	L 105.165, 138.331 
" />
<path d="M 104.953, 138.118 
	L 104.953, 138.119 
	L 116.646, 132.379 
" />
<path d="M 116.576, 132.095 
	L 116.575, 132.095 
	L 104.811, 137.906 
" />
<path d="M 104.599, 137.622 
	L 104.598, 137.623 
	L 116.504, 131.812 
" />
<path d="M 116.363, 131.598 
	L 116.362, 131.599 
	L 110.409, 134.505 
	L 111.756, 130.536 
	L 111.756, 130.182 
	L 111.472, 129.969 
	L 111.402, 129.969 
	L 111.118, 129.969 
	L 110.906, 130.182 
	L 109.559, 134.221 
	L 109.559, 134.505 
" />
<path d="M 109.559, 134.505 
	L 109.772, 134.717 
	L 109.843, 134.717 
	L 110.197, 134.717 
	L 110.409, 134.505 
" />
<path d="M 110.552, 134.150 
	L 110.551, 134.150 
	L 116.291, 131.316 
" />
<path d="M 116.150, 131.032 
	L 116.150, 131.032 
	L 110.622, 133.725 
" />
<path d="M 110.765, 133.370 
	L 110.764, 133.371 
	L 116.008, 130.749 
" />
<path d="M 115.867, 130.535 
	L 115.866, 130.536 
	L 110.906, 132.946 
" />
<path d="M 111.048, 132.591 
	L 111.047, 132.591 
	L 115.724, 130.253 
" />
<path d="M 115.583, 130.039 
	L 115.583, 130.040 
	L 111.189, 132.166 
" />
<path d="M 111.331, 131.811 
	L 111.331, 131.812 
	L 115.441, 129.828 
" />
<path d="M 115.229, 129.543 
	L 115.228, 129.544 
	L 111.472, 131.457 
" />
<path d="M 111.544, 131.032 
	L 111.543, 131.032 
	L 115.016, 129.331 
" />
<path d="M 114.804, 129.118 
	L 114.803, 129.119 
	L 111.685, 130.678 
" />
<path d="M 111.757, 130.323 
	L 111.756, 130.324 
	L 114.591, 128.906 
" />
<path d="M 114.379, 128.693 
	L 114.378, 128.694 
	L 111.614, 130.040 
" />
<path d="M 111.261, 129.898 
	L 111.260, 129.898 
	L 114.095, 128.552 
" />
<path d="M 113.883, 128.339 
	L 113.882, 128.339 
	L 103.465, 133.442 
" />
<path d="M 103.465, 133.724 
	L 103.465, 133.725 
	L 110.976, 130.040 
" />
<path d="M 110.835, 130.465 
	L 110.835, 130.465 
	L 103.465, 134.079 
" />
<path d="M 103.465, 134.362 
	L 103.465, 134.363 
	L 110.693, 130.820 
" />
<path d="M 110.552, 131.244 
	L 110.551, 131.245 
	L 103.535, 134.717 
" />
<path d="M 103.536, 135.000 
	L 103.535, 135.001 
	L 110.409, 131.599 
" />
<path d="M 110.268, 132.024 
	L 110.268, 132.024 
	L 103.606, 135.284 
" />
<path d="M 103.678, 135.567 
	L 103.677, 135.568 
	L 110.126, 132.379 
" />
<path d="M 109.985, 132.803 
	L 109.984, 132.804 
	L 103.748, 135.851 
" />
<path d="M 103.820, 136.134 
	L 103.819, 136.135 
	L 109.913, 133.158 
" />
<path d="M 109.772, 133.512 
	L 109.772, 133.513 
	L 103.961, 136.418 
" />
<path d="M 104.032, 136.630 
	L 104.032, 136.631 
	L 109.630, 133.938 
" />
<path d="M 109.489, 134.291 
	L 109.488, 134.292 
	L 104.173, 136.914 
" />
<path d="M 104.316, 137.126 
	L 104.315, 137.127 
	L 109.559, 134.576 
" />
<path d="M 109.914, 134.787 
	L 109.913, 134.788 
	L 104.457, 137.410 
" />
<path d="M 106.725, 137.339 
	L 106.724, 137.339 
	L 107.575, 137.977 
	L 108.567, 138.473 
	L 109.630, 138.686 
	L 110.693, 138.686 
	L 111.756, 138.402 
	L 112.748, 137.977 
	L 113.598, 137.268 
	L 114.236, 136.418 
	L 114.732, 135.426 
" />
<path d="M 114.732, 135.426 
	L 114.945, 134.363 
	L 114.945, 133.300 
	L 114.661, 132.237 
	L 114.236, 131.245 
	L 113.528, 130.394 
	L 112.677, 129.757 
	L 111.685, 129.261 
	L 110.622, 129.048 
	L 109.559, 129.048 
	L 108.496, 129.331 
" />
<path d="M 108.496, 129.331 
	L 107.504, 129.757 
	L 106.654, 130.465 
	L 106.016, 131.316 
	L 105.520, 132.308 
	L 105.307, 133.371 
	L 105.307, 134.434 
	L 105.591, 135.497 
	L 106.016, 136.489 
	L 106.724, 137.339 
" />
<path d="M 105.450, 134.646 
	L 105.449, 134.646 
	L 109.984, 134.363 
" />
<path d="M 110.339, 127.205 
	L 110.339, 127.205 
	L 104.740, 129.898 
" />
<path d="M 104.387, 130.394 
	L 104.386, 130.394 
	L 110.906, 127.205 
" />
<path d="M 111.402, 127.346 
	L 111.402, 127.347 
	L 104.173, 130.820 
" />
<path d="M 103.961, 131.244 
	L 103.961, 131.245 
	L 111.827, 127.418 
" />
<path d="M 112.253, 127.559 
	L 112.252, 127.560 
	L 103.819, 131.670 
" />
<path d="M 103.678, 132.024 
	L 103.677, 132.024 
	L 112.606, 127.702 
" />
<path d="M 112.961, 127.843 
	L 112.961, 127.843 
	L 103.606, 132.379 
" />
<path d="M 103.536, 132.732 
	L 103.535, 132.733 
	L 113.244, 127.985 
" />
<path d="M 113.599, 128.126 
	L 113.598, 128.127 
	L 103.465, 133.087 
" />
<path d="M 102.615, 134.858 
	L 102.614, 134.859 
	L 96.874, 135.213 
" />
<path d="M 94.040, 135.425 
	L 94.039, 135.426 
	L 88.299, 135.851 
" />
<path d="M 85.465, 135.992 
	L 85.465, 135.993 
	L 79.724, 136.418 
" />
<path d="M 76.820, 136.559 
	L 76.819, 136.560 
	L 71.150, 136.985 
" />
<path d="M 68.245, 137.126 
	L 68.244, 137.127 
	L 62.575, 137.552 
" />
<path d="M 59.670, 137.764 
	L 59.669, 137.765 
	L 54.000, 138.119 
" />
<path d="M 51.095, 138.331 
	L 51.094, 138.331 
	L 45.425, 138.686 
" />
<path d="M 42.520, 138.898 
	L 42.520, 138.898 
	L 36.850, 139.253 
" />
<path d="M 33.946, 139.465 
	L 33.945, 139.465 
	L 28.276, 139.820 
" />
<path d="M 25.371, 140.032 
	L 25.370, 140.032 
	L 19.701, 140.457 
" />
<path d="M 16.796, 140.598 
	L 16.795, 140.599 
	L 11.126, 141.024 
" />
<path d="M 8.221, 141.165 
	L 8.220, 141.166 
	L 3.685, 141.520 
" />
<path d="M 0.001, 126.071 
	L 0.000, 126.072 
	L 227.976, 126.072 
" />
<path d="M 223.016, 144.780 
	L 223.016, 144.780 
	L 218.976, 142.725 
" />
<path d="M 216.355, 141.449 
	L 216.354, 141.450 
	L 211.252, 138.969 
" />
<path d="M 208.631, 137.693 
	L 208.630, 137.694 
	L 203.528, 135.142 
" />
<path d="M 200.977, 133.866 
	L 200.976, 133.867 
	L 195.803, 131.316 
" />
<path d="M 193.253, 130.039 
	L 193.252, 130.040 
	L 189.142, 128.056 
" />
<path d="M 197.859, 126.071 
	L 197.858, 126.072 
	L 197.717, 121.182 
	L 197.291, 116.363 
	L 196.583, 111.544 
	L 195.591, 106.725 
	L 194.315, 102.048 
	L 192.756, 97.371 
	L 190.984, 92.835 
	L 188.929, 88.442 
	L 186.591, 84.190 
" />
<path d="M 186.591, 84.190 
	L 184.039, 80.009 
	L 181.276, 76.040 
	L 178.228, 72.213 
	L 174.969, 68.528 
	L 171.496, 65.127 
	L 167.882, 61.867 
	L 164.055, 58.820 
	L 160.087, 56.056 
	L 155.906, 53.434 
	L 151.654, 51.166 
	L 147.189, 49.111 
" />
<path d="M 147.189, 49.111 
	L 142.654, 47.268 
	L 138.047, 45.780 
	L 133.299, 44.505 
	L 128.551, 43.513 
	L 123.732, 42.804 
	L 118.843, 42.379 
	L 113.953, 42.237 
	L 109.134, 42.379 
	L 104.244, 42.804 
	L 99.425, 43.513 
	L 94.677, 44.505 
" />
<path d="M 94.677, 44.505 
	L 89.929, 45.780 
	L 85.323, 47.268 
	L 80.787, 49.111 
	L 76.323, 51.166 
	L 72.071, 53.434 
	L 67.890, 56.056 
	L 63.921, 58.820 
	L 60.094, 61.867 
	L 56.480, 65.127 
	L 53.008, 68.528 
	L 49.748, 72.213 
" />
<path d="M 49.748, 72.213 
	L 46.701, 76.040 
	L 43.937, 80.009 
	L 41.386, 84.190 
	L 39.047, 88.442 
	L 36.992, 92.835 
	L 35.220, 97.371 
	L 33.661, 102.048 
	L 32.386, 106.725 
	L 31.394, 111.544 
	L 30.685, 116.363 
	L 30.260, 121.182 
" />
<path d="M 30.260, 121.182 
	L 30.118, 126.072 
	L 30.260, 130.961 
	L 30.685, 135.780 
	L 31.394, 140.670 
	L 32.386, 145.418 
	L 33.661, 150.095 
	L 35.220, 154.772 
	L 36.992, 159.308 
	L 39.047, 163.702 
	L 41.386, 168.024 
	L 43.937, 172.135 
" />
<path d="M 43.937, 172.135 
	L 46.701, 176.174 
	L 49.748, 180.001 
	L 53.008, 183.615 
	L 56.480, 187.087 
	L 60.094, 190.276 
	L 63.921, 193.324 
	L 67.890, 196.158 
	L 72.071, 198.709 
	L 76.323, 200.977 
	L 80.787, 203.032 
	L 85.323, 204.875 
" />
<path d="M 85.323, 204.875 
	L 89.929, 206.434 
	L 94.677, 207.639 
	L 99.425, 208.631 
	L 104.244, 209.339 
	L 109.134, 209.765 
	L 114.024, 209.906 
	L 118.843, 209.765 
	L 123.732, 209.339 
	L 128.551, 208.631 
	L 133.299, 207.639 
" />
<path d="M 133.299, 207.639 
	L 138.047, 206.434 
	L 142.654, 204.875 
	L 147.189, 203.032 
	L 151.654, 200.977 
	L 155.906, 198.709 
	L 160.087, 196.158 
	L 164.055, 193.324 
	L 167.882, 190.276 
	L 171.496, 187.087 
	L 174.969, 183.615 
" />
<path d="M 174.969, 183.615 
	L 178.228, 180.001 
	L 181.276, 176.174 
	L 184.039, 172.135 
	L 186.591, 168.024 
	L 188.929, 163.702 
	L 190.984, 159.308 
	L 192.756, 154.772 
	L 194.315, 150.095 
	L 195.591, 145.418 
	L 196.583, 140.670 
" />
<path d="M 196.583, 140.670 
	L 197.291, 135.780 
	L 197.717, 130.961 
	L 197.858, 126.072 
" />
<path d="M 177.875, 121.890 
	L 177.874, 121.890 
	L 173.126, 123.946 
" />
<path d="M 170.505, 125.079 
	L 170.504, 125.079 
	L 165.260, 127.418 
" />
<path d="M 162.639, 128.551 
	L 162.638, 128.552 
	L 157.890, 130.607 
	L 153.283, 129.828 
" />
<path d="M 150.450, 129.331 
	L 150.449, 129.331 
	L 144.780, 128.339 
" />
<path d="M 141.946, 127.843 
	L 141.945, 127.843 
	L 136.346, 126.851 
" />
<path d="M 133.513, 126.354 
	L 133.512, 126.355 
	L 127.843, 125.363 
" />
<path d="M 125.009, 124.866 
	L 125.008, 124.867 
	L 120.472, 124.087 
" />
<path d="M 109.631, 127.205 
	L 109.630, 127.205 
	L 105.165, 129.402 
" />
<path d="M 105.875, 128.764 
	L 105.874, 128.765 
	L 108.709, 127.347 
" />
<path d="M 58.111, 126.071 
	L 58.110, 126.072 
	L 58.252, 130.040 
	L 58.677, 134.009 
	L 59.386, 137.977 
	L 60.378, 141.804 
	L 61.583, 145.631 
	L 63.142, 149.316 
	L 64.913, 152.859 
	L 66.969, 156.331 
	L 69.236, 159.591 
	L 71.717, 162.709 
" />
<path d="M 71.717, 162.709 
	L 74.480, 165.615 
	L 77.386, 168.308 
	L 80.504, 170.859 
	L 83.764, 173.127 
	L 87.165, 175.111 
	L 90.780, 176.953 
	L 94.465, 178.442 
	L 98.220, 179.717 
	L 102.118, 180.709 
	L 106.016, 181.418 
	L 109.984, 181.843 
" />
<path d="M 109.984, 181.843 
	L 114.024, 181.985 
	L 117.992, 181.843 
	L 121.961, 181.418 
	L 125.858, 180.709 
	L 129.756, 179.717 
	L 133.512, 178.442 
	L 137.197, 176.953 
	L 140.811, 175.111 
	L 144.213, 173.127 
	L 147.472, 170.859 
" />
<path d="M 147.472, 170.859 
	L 150.591, 168.308 
	L 153.496, 165.615 
	L 156.260, 162.709 
	L 158.740, 159.591 
	L 161.008, 156.331 
	L 163.063, 152.859 
	L 164.835, 149.316 
	L 166.394, 145.631 
	L 167.598, 141.804 
	L 168.591, 137.977 
" />
<path d="M 168.591, 137.977 
	L 169.299, 134.009 
	L 169.724, 130.040 
	L 169.866, 126.072 
	L 169.724, 122.103 
	L 169.299, 118.135 
	L 168.591, 114.166 
	L 167.598, 110.339 
	L 166.394, 106.513 
	L 164.835, 102.827 
	L 163.063, 99.284 
" />
<path d="M 163.063, 99.284 
	L 161.008, 95.883 
	L 158.740, 92.552 
	L 156.260, 89.505 
	L 153.496, 86.528 
	L 150.591, 83.835 
	L 147.472, 81.355 
	L 144.213, 79.087 
	L 140.811, 77.032 
	L 137.197, 75.261 
	L 133.512, 73.702 
	L 129.756, 72.426 
" />
<path d="M 129.756, 72.426 
	L 125.858, 71.434 
	L 121.961, 70.725 
	L 117.992, 70.300 
	L 113.953, 70.158 
	L 109.984, 70.300 
	L 106.016, 70.725 
	L 102.118, 71.434 
	L 98.220, 72.426 
	L 94.465, 73.702 
	L 90.780, 75.261 
	L 87.165, 77.032 
" />
<path d="M 87.165, 77.032 
	L 83.764, 79.087 
	L 80.504, 81.355 
	L 77.386, 83.835 
	L 74.480, 86.528 
	L 71.717, 89.505 
	L 69.236, 92.552 
	L 66.969, 95.883 
	L 64.913, 99.284 
	L 63.142, 102.827 
	L 61.583, 106.513 
	L 60.378, 110.339 
" />
<path d="M 60.378, 110.339 
	L 59.386, 114.166 
	L 58.677, 118.135 
	L 58.252, 122.103 
	L 58.110, 126.072 
" />
<path d="M 86.032, 126.071 
	L 86.032, 126.072 
	L 86.173, 128.835 
	L 86.598, 131.528 
	L 87.236, 134.221 
	L 88.157, 136.772 
	L 89.362, 139.253 
	L 90.780, 141.591 
	L 92.409, 143.788 
	L 94.252, 145.843 
	L 96.236, 147.686 
	L 98.433, 149.316 
" />
<path d="M 98.433, 149.316 
	L 100.843, 150.733 
	L 103.323, 151.867 
	L 105.874, 152.859 
	L 108.567, 153.497 
	L 111.260, 153.922 
	L 113.953, 153.993 
	L 116.717, 153.922 
	L 119.409, 153.497 
	L 122.102, 152.859 
	L 124.654, 151.867 
" />
<path d="M 124.654, 151.867 
	L 127.134, 150.733 
	L 129.543, 149.316 
	L 131.740, 147.686 
	L 133.724, 145.843 
	L 135.567, 143.788 
	L 137.197, 141.591 
	L 138.614, 139.253 
	L 139.819, 136.772 
	L 140.740, 134.221 
	L 141.378, 131.528 
" />
<path d="M 141.378, 131.528 
	L 141.803, 128.835 
	L 141.945, 126.072 
	L 141.803, 123.308 
	L 141.378, 120.615 
	L 140.740, 117.993 
	L 139.819, 115.371 
	L 138.614, 112.890 
	L 137.197, 110.552 
	L 135.567, 108.355 
	L 133.724, 106.300 
" />
<path d="M 133.724, 106.300 
	L 131.740, 104.457 
	L 129.543, 102.827 
	L 127.134, 101.410 
	L 124.654, 100.276 
	L 122.102, 99.355 
	L 119.409, 98.646 
	L 116.717, 98.292 
	L 114.024, 98.150 
	L 111.260, 98.292 
	L 108.567, 98.646 
" />
<path d="M 108.567, 98.646 
	L 105.874, 99.355 
	L 103.323, 100.276 
	L 100.843, 101.410 
	L 98.433, 102.827 
	L 96.236, 104.457 
	L 94.252, 106.300 
	L 92.409, 108.355 
	L 90.780, 110.552 
	L 89.362, 112.890 
	L 88.157, 115.371 
	L 87.236, 117.993 
" />
<path d="M 87.236, 117.993 
	L 86.598, 120.615 
	L 86.173, 123.308 
	L 86.032, 126.072 
" />
<path d="M 107.009, 126.071 
	L 107.008, 126.072 
	L 107.150, 127.418 
	L 107.504, 128.765 
	L 108.213, 129.969 
	L 109.063, 131.032 
	L 110.126, 131.883 
	L 111.331, 132.520 
	L 112.606, 132.946 
	L 113.953, 133.087 
	L 115.370, 132.946 
" />
<path d="M 115.370, 132.946 
	L 116.646, 132.520 
	L 117.850, 131.883 
	L 118.913, 131.032 
	L 119.764, 129.969 
	L 120.472, 128.765 
	L 120.827, 127.418 
	L 120.969, 126.072 
	L 120.827, 124.725 
	L 120.472, 123.379 
	L 119.764, 122.174 
" />
<path d="M 119.764, 122.174 
	L 118.913, 121.111 
	L 117.850, 120.261 
	L 116.646, 119.623 
	L 115.370, 119.198 
	L 114.024, 119.127 
	L 112.606, 119.198 
	L 111.331, 119.623 
	L 110.126, 120.261 
	L 109.063, 121.111 
	L 108.213, 122.174 
" />
<path d="M 108.213, 122.174 
	L 107.504, 123.379 
	L 107.150, 124.725 
	L 107.008, 126.072 
" />
<path d="M 154.772, 146.339 
	L 154.772, 146.339 
	L 154.346, 150.733 
" />
<path d="M 153.993, 153.567 
	L 153.992, 153.568 
	L 153.425, 159.237 
" />
<path d="M 153.072, 162.142 
	L 153.071, 162.142 
	L 152.504, 167.812 
" />
<path d="M 152.221, 170.646 
	L 152.220, 170.646 
	L 151.583, 176.387 
" />
<path d="M 151.300, 179.221 
	L 151.299, 179.221 
	L 150.661, 184.891 
" />
<path d="M 150.379, 187.724 
	L 150.378, 187.725 
	L 149.740, 193.465 
" />
<path d="M 149.457, 196.299 
	L 149.457, 196.300 
	L 148.819, 201.969 
" />
<path d="M 148.536, 204.874 
	L 148.535, 204.875 
	L 147.898, 210.544 
" />
<path d="M 147.615, 213.378 
	L 147.614, 213.379 
	L 147.118, 217.772 
" />
<path d="M 114.024, 217.772 
	L 114.024, 217.772 
	L 114.024, 0.001 
" />
<path d="M 160.442, 0.000 
	L 160.441, 0.001 
	L 160.724, 1.914 
" />
<path d="M 161.150, 4.819 
	L 161.150, 4.820 
	L 161.929, 10.489 
" />
<path d="M 162.355, 13.323 
	L 162.354, 13.324 
	L 163.134, 18.993 
" />
<path d="M 163.560, 21.827 
	L 163.559, 21.827 
	L 164.409, 27.497 
" />
<path d="M 164.765, 30.331 
	L 164.764, 30.331 
	L 165.614, 36.001 
" />
<path d="M 165.969, 38.835 
	L 165.969, 38.835 
	L 166.819, 44.505 
" />
<path d="M 167.245, 47.339 
	L 167.244, 47.339 
	L 168.024, 53.009 
" />
<path d="M 168.450, 55.843 
	L 168.449, 55.843 
	L 169.228, 61.513 
" />
<path d="M 169.654, 64.346 
	L 169.654, 64.347 
	L 170.433, 70.016 
" />
<path d="M 170.859, 72.850 
	L 170.858, 72.851 
	L 171.638, 78.520 
" />
<path d="M 172.064, 81.354 
	L 172.063, 81.355 
	L 172.913, 87.024 
" />
<path d="M 173.268, 89.858 
	L 173.268, 89.859 
	L 174.118, 95.528 
" />
<path d="M 174.544, 98.362 
	L 174.543, 98.363 
	L 175.323, 104.032 
" />
<path d="M 175.749, 106.937 
	L 175.748, 106.938 
	L 176.528, 112.607 
" />
<path d="M 176.953, 115.441 
	L 176.953, 115.442 
	L 177.874, 121.890 
" />
<path d="M 218.835, 217.772 
	L 218.835, 217.772 
	L 218.835, 0.001 
" />
<path d="M 9.142, 0.000 
	L 9.142, 0.001 
	L 9.142, 217.772 
" />
<path d="M 0.001, 209.906 
	L 0.000, 209.906 
	L 227.976, 209.906 
" />
</g><g style="stroke:rgb(255,255,255); fill:none; stroke-width:0.100mm" >
</g>
</svg>
