<?xml version="1.0" encoding="UTF-8" standalone="no" ?>
<svg width="100%" height="100%" viewBox="0 0 252.638 235.630" xmlns="http://www.w3.org/2000/svg"><g>
</g><g style="stroke:rgb(0,0,0); fill:none; stroke-width:1.000mm" >
</g><g style="stroke:rgb(0,0,0); fill:none; stroke-width:0.100mm" >
<path d="M 27.213, 208.558 
	L 27.213, 208.559 
	L 28.488, 203.811 
" />
<path d="M 27.709, 202.535 
	L 27.709, 202.535 
	L 26.433, 207.213 
" />
<path d="M 25.725, 205.865 
	L 25.724, 205.866 
	L 27.000, 201.189 
" />
<path d="M 26.221, 199.913 
	L 26.220, 199.913 
	L 24.945, 204.591 
" />
<path d="M 24.166, 203.243 
	L 24.165, 203.244 
	L 25.441, 198.567 
" />
<path d="M 25.583, 198.779 
	L 25.583, 198.780 
	L 25.157, 198.283 
	L 24.661, 198.071 
	L 24.024, 198.000 
	L 23.457, 198.213 
	L 23.173, 198.354 
	L 22.677, 198.780 
	L 22.465, 199.276 
	L 22.394, 199.913 
	L 22.606, 200.480 
	L 30.472, 214.228 
" />
<path d="M 30.472, 214.228 
	L 30.827, 214.654 
	L 31.394, 214.937 
	L 31.961, 214.937 
	L 32.528, 214.795 
	L 32.811, 214.583 
	L 33.307, 214.228 
	L 33.591, 213.661 
	L 33.591, 213.095 
	L 33.449, 212.457 
	L 25.583, 198.780 
" />
<path d="M 24.520, 197.999 
	L 24.520, 198.000 
	L 23.457, 201.969 
" />
<path d="M 22.678, 200.621 
	L 22.677, 200.622 
	L 23.315, 198.283 
" />
<path d="M 29.268, 205.157 
	L 29.268, 205.158 
	L 27.921, 209.835 
" />
<path d="M 28.702, 211.180 
	L 28.701, 211.181 
	L 29.976, 206.504 
" />
<path d="M 30.757, 207.779 
	L 30.756, 207.780 
	L 29.480, 212.457 
" />
<path d="M 30.190, 213.802 
	L 30.189, 213.803 
	L 31.465, 209.126 
" />
<path d="M 32.245, 210.401 
	L 32.244, 210.402 
	L 31.039, 214.795 
" />
<path d="M 32.103, 214.936 
	L 32.102, 214.937 
	L 33.024, 211.748 
" />
<path d="M 34.016, 216.991 
	L 34.016, 216.992 
	L 35.858, 215.787 
	L 37.559, 214.370 
	L 39.047, 212.811 
	L 40.323, 211.039 
	L 41.386, 209.126 
	L 42.236, 207.071 
	L 42.803, 204.945 
	L 43.087, 202.819 
	L 43.157, 200.622 
	L 42.945, 198.425 
" />
<path d="M 42.945, 198.425 
	L 42.449, 196.299 
	L 41.740, 194.244 
	L 40.748, 192.260 
	L 39.543, 190.417 
	L 38.126, 188.717 
	L 36.567, 187.228 
	L 34.795, 185.953 
	L 32.882, 184.890 
	L 30.827, 184.110 
	L 28.701, 183.472 
	L 26.575, 183.189 
" />
<path d="M 26.575, 183.189 
	L 24.378, 183.118 
	L 22.181, 183.331 
	L 20.055, 183.827 
	L 18.000, 184.535 
	L 16.016, 185.528 
	L 14.173, 186.732 
	L 12.543, 188.150 
	L 11.055, 189.709 
	L 9.709, 191.480 
	L 8.646, 193.394 
	L 7.866, 195.449 
" />
<path d="M 7.866, 195.449 
	L 7.299, 197.575 
	L 6.945, 199.701 
	L 6.874, 201.898 
	L 7.087, 204.095 
	L 7.583, 206.221 
	L 8.291, 208.276 
	L 9.283, 210.260 
	L 10.488, 212.102 
	L 11.906, 213.732 
	L 13.465, 215.221 
	L 15.236, 216.567 
" />
<path d="M 15.236, 216.567 
	L 17.150, 217.630 
	L 19.205, 218.409 
	L 21.331, 218.976 
	L 23.457, 219.331 
	L 25.654, 219.402 
	L 27.850, 219.189 
	L 29.976, 218.693 
	L 32.032, 217.984 
	L 34.016, 216.992 
" />
<path d="M 35.079, 224.149 
	L 35.079, 224.150 
	L 37.417, 222.945 
	L 39.614, 221.528 
	L 41.669, 219.898 
	L 43.512, 218.055 
	L 45.213, 216.071 
	L 46.630, 213.874 
	L 47.835, 211.535 
	L 48.756, 209.055 
	L 49.465, 206.575 
	L 49.890, 203.953 
" />
<path d="M 49.890, 203.953 
	L 50.032, 201.402 
	L 49.890, 198.780 
	L 49.535, 196.158 
	L 48.827, 193.606 
	L 47.906, 191.197 
	L 46.772, 188.858 
	L 45.354, 186.661 
	L 43.654, 184.606 
	L 41.811, 182.764 
	L 39.827, 181.063 
	L 37.630, 179.646 
" />
<path d="M 37.630, 179.646 
	L 35.291, 178.441 
	L 32.882, 177.520 
	L 30.331, 176.811 
	L 27.780, 176.386 
	L 25.157, 176.244 
	L 22.535, 176.386 
	L 19.913, 176.740 
	L 17.433, 177.449 
	L 14.953, 178.370 
	L 12.614, 179.504 
	L 10.417, 180.921 
" />
<path d="M 10.417, 180.921 
	L 8.362, 182.622 
	L 6.520, 184.465 
	L 4.819, 186.449 
	L 3.402, 188.646 
	L 2.197, 190.984 
	L 1.276, 193.394 
	L 0.567, 195.945 
	L 0.142, 198.496 
	L 0.000, 201.118 
	L 0.142, 203.740 
	L 0.567, 206.362 
" />
<path d="M 0.567, 206.362 
	L 1.205, 208.913 
	L 2.126, 211.323 
	L 3.331, 213.661 
	L 4.748, 215.858 
	L 6.378, 217.913 
	L 8.220, 219.756 
	L 10.205, 221.457 
	L 12.402, 222.874 
	L 14.740, 224.079 
	L 17.220, 225.000 
	L 19.701, 225.709 
" />
<path d="M 19.701, 225.709 
	L 22.323, 226.134 
	L 24.945, 226.276 
	L 27.496, 226.134 
	L 30.118, 225.780 
	L 32.669, 225.071 
	L 35.079, 224.150 
" />
<path d="M 33.166, 195.944 
	L 33.165, 195.945 
	L 25.016, 201.260 
" />
<path d="M 36.780, 193.606 
	L 36.780, 193.606 
	L 44.008, 188.929 
" />
<path d="M 47.623, 186.590 
	L 47.622, 186.591 
	L 54.780, 181.913 
" />
<path d="M 58.394, 179.574 
	L 58.394, 179.575 
	L 65.622, 174.898 
" />
<path d="M 69.237, 172.558 
	L 69.236, 172.559 
	L 76.394, 167.882 
" />
<path d="M 80.009, 165.543 
	L 80.008, 165.543 
	L 87.236, 160.795 
" />
<path d="M 90.851, 158.456 
	L 90.850, 158.457 
	L 98.008, 153.780 
" />
<path d="M 101.623, 151.440 
	L 101.622, 151.441 
	L 108.850, 146.764 
" />
<path d="M 112.465, 144.425 
	L 112.465, 144.425 
	L 119.622, 139.748 
" />
<path d="M 123.237, 137.409 
	L 123.236, 137.409 
	L 130.465, 132.732 
" />
<path d="M 134.079, 130.393 
	L 134.079, 130.394 
	L 141.236, 125.717 
" />
<path d="M 144.851, 123.377 
	L 144.850, 123.378 
	L 152.079, 118.701 
" />
<path d="M 155.694, 116.362 
	L 155.693, 116.362 
	L 162.850, 111.685 
" />
<path d="M 166.465, 109.275 
	L 166.465, 109.276 
	L 173.693, 104.598 
" />
<path d="M 176.103, 103.464 
	L 176.102, 103.465 
	L 177.732, 105.591 
	L 179.504, 107.504 
	L 181.417, 109.205 
	L 183.614, 110.693 
	L 185.882, 111.969 
	L 188.291, 113.032 
	L 190.772, 113.811 
	L 193.323, 114.307 
	L 195.945, 114.520 
" />
<path d="M 195.945, 114.520 
	L 198.567, 114.520 
	L 201.189, 114.165 
	L 203.740, 113.598 
	L 206.221, 112.748 
	L 208.559, 111.685 
	L 210.827, 110.339 
	L 212.953, 108.709 
	L 214.866, 106.937 
	L 216.567, 105.024 
	L 218.055, 102.827 
" />
<path d="M 218.055, 102.827 
	L 219.331, 100.559 
	L 220.394, 98.150 
	L 221.173, 95.669 
	L 221.669, 93.118 
	L 221.882, 90.496 
	L 221.882, 87.874 
	L 221.528, 85.252 
	L 220.961, 82.701 
	L 220.110, 80.220 
	L 219.047, 77.882 
	L 217.701, 75.614 
" />
<path d="M 217.701, 75.614 
	L 216.142, 73.488 
	L 214.299, 71.575 
	L 212.386, 69.874 
	L 210.189, 68.386 
	L 207.921, 67.110 
	L 205.512, 66.047 
	L 203.032, 65.268 
	L 200.480, 64.772 
	L 197.858, 64.559 
	L 195.236, 64.559 
	L 192.614, 64.913 
" />
<path d="M 192.614, 64.913 
	L 190.063, 65.480 
	L 187.583, 66.331 
	L 185.244, 67.394 
	L 182.976, 68.740 
	L 180.850, 70.299 
	L 178.937, 72.142 
	L 177.236, 74.055 
	L 175.748, 76.252 
	L 174.472, 78.520 
	L 173.409, 80.929 
	L 172.630, 83.409 
" />
<path d="M 172.630, 83.409 
	L 172.134, 85.961 
	L 171.921, 88.583 
	L 171.921, 91.205 
	L 172.276, 93.827 
	L 172.843, 96.378 
	L 173.693, 98.858 
	L 174.756, 101.197 
	L 176.102, 103.465 
" />
<path d="M 177.308, 102.259 
	L 177.307, 102.260 
	L 184.465, 97.583 
" />
<path d="M 181.064, 98.362 
	L 181.063, 98.362 
	L 182.268, 100.205 
	L 183.685, 101.906 
	L 185.244, 103.465 
	L 187.016, 104.740 
	L 188.929, 105.803 
	L 190.913, 106.654 
	L 193.039, 107.291 
	L 195.165, 107.575 
	L 197.362, 107.646 
" />
<path d="M 197.362, 107.646 
	L 199.559, 107.504 
	L 201.685, 107.008 
	L 203.811, 106.299 
	L 205.795, 105.378 
	L 207.638, 104.173 
	L 209.268, 102.756 
	L 210.827, 101.197 
	L 212.102, 99.425 
	L 213.165, 97.512 
	L 214.016, 95.528 
" />
<path d="M 214.016, 95.528 
	L 214.654, 93.402 
	L 214.937, 91.276 
	L 215.008, 89.079 
	L 214.866, 86.882 
	L 214.370, 84.756 
	L 213.661, 82.630 
	L 212.740, 80.717 
	L 211.535, 78.803 
	L 210.189, 77.173 
	L 208.559, 75.614 
	L 206.787, 74.339 
" />
<path d="M 206.787, 74.339 
	L 204.874, 73.276 
	L 202.890, 72.425 
	L 200.764, 71.787 
	L 198.638, 71.504 
	L 196.441, 71.433 
	L 194.244, 71.575 
	L 192.118, 72.071 
	L 189.992, 72.780 
	L 188.079, 73.701 
	L 186.236, 74.906 
	L 184.535, 76.252 
" />
<path d="M 184.535, 76.252 
	L 182.976, 77.882 
	L 181.701, 79.654 
	L 180.638, 81.567 
	L 179.787, 83.551 
	L 179.150, 85.677 
	L 178.866, 87.803 
	L 178.795, 90.000 
	L 178.937, 92.197 
	L 179.433, 94.323 
	L 180.142, 96.449 
	L 181.063, 98.362 
" />
<path d="M 181.063, 98.362 
" />
<path d="M 188.079, 95.243 
	L 188.079, 95.244 
	L 195.307, 90.567 
" />
<path d="M 194.528, 90.495 
	L 194.528, 90.496 
	L 194.386, 91.063 
	L 194.457, 91.630 
	L 194.740, 92.197 
	L 195.236, 92.551 
	L 195.520, 92.693 
	L 196.158, 92.835 
	L 196.724, 92.764 
	L 197.221, 92.480 
	L 197.646, 91.984 
	L 204.591, 77.811 
" />
<path d="M 204.591, 77.811 
	L 204.732, 77.244 
	L 204.661, 76.606 
	L 204.378, 76.110 
	L 203.882, 75.756 
	L 203.598, 75.543 
	L 202.961, 75.402 
	L 202.394, 75.472 
	L 201.898, 75.827 
	L 201.472, 76.252 
	L 194.528, 90.496 
" />
<path d="M 194.457, 90.708 
	L 194.457, 90.709 
	L 199.063, 89.079 
" />
<path d="M 198.922, 88.228 
	L 198.921, 88.228 
	L 206.150, 83.551 
" />
<path d="M 201.686, 83.621 
	L 201.685, 83.622 
	L 197.079, 85.252 
" />
<path d="M 196.442, 86.598 
	L 196.441, 86.598 
	L 201.047, 85.039 
" />
<path d="M 200.339, 86.385 
	L 200.339, 86.386 
	L 195.803, 87.945 
" />
<path d="M 195.095, 89.291 
	L 195.095, 89.291 
	L 199.701, 87.732 
" />
<path d="M 198.355, 90.495 
	L 198.354, 90.496 
	L 194.528, 91.772 
" />
<path d="M 195.379, 92.621 
	L 195.378, 92.622 
	L 197.717, 91.843 
" />
<path d="M 197.788, 83.834 
	L 197.787, 83.835 
	L 202.394, 82.276 
" />
<path d="M 203.032, 80.928 
	L 203.032, 80.929 
	L 198.425, 82.488 
" />
<path d="M 199.135, 81.141 
	L 199.134, 81.142 
	L 203.740, 79.583 
" />
<path d="M 204.379, 78.236 
	L 204.378, 78.236 
	L 199.772, 79.795 
" />
<path d="M 200.481, 78.377 
	L 200.480, 78.378 
	L 204.732, 76.961 
" />
<path d="M 204.237, 75.968 
	L 204.236, 75.969 
	L 201.118, 77.032 
" />
<path d="M 209.694, 81.212 
	L 209.693, 81.213 
	L 217.843, 75.898 
	L 217.843, 67.677 
" />
<path d="M 217.843, 69.165 
	L 217.843, 69.165 
	L 220.465, 69.024 
	L 223.087, 68.598 
	L 225.638, 67.890 
	L 226.417, 67.606 
" />
<path d="M 230.387, 65.763 
	L 230.386, 65.764 
	L 232.583, 64.346 
	L 234.638, 62.717 
	L 236.480, 60.874 
	L 237.047, 60.165 
" />
<path d="M 239.528, 56.621 
	L 239.528, 56.622 
	L 240.732, 54.283 
	L 241.654, 51.874 
	L 242.362, 49.323 
	L 242.504, 48.472 
" />
<path d="M 242.859, 44.149 
	L 242.858, 44.150 
	L 242.787, 41.528 
	L 242.362, 38.906 
	L 241.654, 36.354 
	L 241.370, 35.575 
" />
<path d="M 239.528, 31.606 
	L 239.528, 31.606 
	L 238.110, 29.409 
	L 236.480, 27.354 
	L 234.638, 25.512 
	L 233.929, 25.016 
" />
<path d="M 230.387, 22.464 
	L 230.386, 22.465 
	L 228.047, 21.260 
	L 225.638, 20.339 
	L 223.087, 19.630 
	L 222.236, 19.488 
" />
<path d="M 217.843, 19.133 
	L 217.843, 19.134 
	L 215.291, 19.276 
	L 212.669, 19.630 
	L 210.118, 20.339 
	L 209.339, 20.622 
" />
<path d="M 205.371, 22.464 
	L 205.370, 22.465 
	L 203.173, 23.882 
	L 201.118, 25.512 
	L 199.276, 27.354 
	L 198.709, 28.063 
" />
<path d="M 196.229, 31.606 
	L 196.228, 31.606 
	L 195.024, 33.945 
	L 194.102, 36.354 
	L 193.394, 38.906 
	L 193.252, 39.756 
" />
<path d="M 192.898, 44.149 
	L 192.898, 44.150 
	L 192.969, 46.701 
	L 193.394, 49.323 
	L 194.102, 51.874 
	L 194.386, 52.654 
" />
<path d="M 196.229, 56.621 
	L 196.228, 56.622 
	L 197.646, 58.819 
	L 199.276, 60.874 
	L 201.118, 62.717 
	L 201.827, 63.283 
" />
<path d="M 205.371, 65.763 
	L 205.370, 65.764 
	L 207.709, 66.969 
	L 210.118, 67.890 
	L 212.669, 68.598 
	L 213.520, 68.740 
" />
<path d="M 213.520, 61.724 
	L 213.520, 61.724 
	L 215.717, 62.150 
	L 216.850, 62.220 
" />
<path d="M 217.843, 63.354 
	L 217.843, 63.354 
	L 217.843, 54.780 
" />
<path d="M 217.843, 50.456 
	L 217.843, 50.457 
	L 217.843, 41.882 
" />
<path d="M 218.339, 41.598 
	L 218.339, 41.598 
	L 217.913, 41.173 
	L 217.346, 40.890 
	L 216.780, 40.890 
	L 216.213, 41.102 
	L 215.929, 41.315 
	L 215.433, 41.740 
	L 215.221, 42.236 
	L 215.221, 42.874 
	L 215.433, 43.441 
	L 218.480, 48.331 
" />
<path d="M 218.480, 48.331 
" />
<path d="M 218.765, 48.755 
	L 218.764, 48.756 
	L 219.827, 44.008 
" />
<path d="M 220.607, 45.283 
	L 220.606, 45.283 
	L 219.543, 50.032 
" />
<path d="M 220.394, 51.306 
	L 220.394, 51.307 
	L 221.457, 46.559 
" />
<path d="M 221.387, 46.487 
	L 221.386, 46.488 
	L 218.339, 41.598 
" />
<path d="M 218.198, 41.456 
	L 218.197, 41.457 
	L 217.134, 46.134 
" />
<path d="M 217.914, 47.409 
	L 217.913, 47.409 
	L 219.047, 42.661 
" />
<path d="M 217.205, 40.889 
	L 217.205, 40.890 
	L 216.283, 44.858 
" />
<path d="M 215.505, 43.582 
	L 215.504, 43.583 
	L 216.071, 41.244 
" />
<path d="M 217.843, 37.558 
	L 217.843, 37.559 
	L 217.843, 28.984 
" />
<path d="M 217.843, 26.007 
	L 217.843, 26.008 
	L 215.717, 26.079 
	L 213.520, 26.504 
	L 212.669, 26.787 
" />
<path d="M 208.843, 28.417 
	L 208.843, 28.417 
	L 207.567, 29.197 
	L 205.866, 30.543 
	L 204.307, 32.102 
	L 202.961, 33.803 
	L 202.748, 34.157 
" />
<path d="M 200.835, 37.913 
	L 200.835, 37.913 
	L 200.268, 39.756 
	L 199.843, 41.953 
	L 199.772, 44.150 
	L 199.843, 46.205 
" />
<path d="M 200.835, 50.314 
	L 200.835, 50.315 
	L 200.906, 50.528 
	L 201.827, 52.583 
	L 202.961, 54.425 
	L 204.307, 56.126 
	L 205.441, 57.260 
" />
<path d="M 208.843, 59.810 
	L 208.843, 59.811 
	L 209.480, 60.165 
	L 211.465, 61.087 
	L 213.520, 61.724 
" />
<path d="M 221.032, 61.936 
	L 221.032, 61.937 
	L 222.236, 61.724 
	L 224.291, 61.087 
	L 226.276, 60.165 
	L 228.189, 59.032 
	L 228.685, 58.677 
" />
<path d="M 226.276, 57.117 
	L 226.276, 57.118 
	L 226.701, 56.693 
	L 226.984, 56.126 
	L 226.984, 55.559 
	L 226.772, 54.992 
	L 223.654, 50.102 
" />
<path d="M 223.867, 50.385 
	L 223.866, 50.386 
	L 222.803, 55.134 
" />
<path d="M 223.583, 56.409 
	L 223.583, 56.409 
	L 224.646, 51.661 
" />
<path d="M 225.497, 53.007 
	L 225.496, 53.008 
	L 224.504, 57.402 
" />
<path d="M 224.292, 57.259 
	L 224.291, 57.260 
	L 224.787, 57.472 
	L 225.425, 57.543 
	L 225.992, 57.331 
	L 226.276, 57.118 
" />
<path d="M 225.568, 57.472 
	L 225.567, 57.472 
	L 226.276, 54.283 
" />
<path d="M 221.953, 53.858 
	L 221.953, 53.858 
	L 223.087, 49.110 
" />
<path d="M 222.237, 47.834 
	L 222.236, 47.835 
	L 221.173, 52.583 
" />
<path d="M 220.749, 51.944 
	L 220.748, 51.945 
	L 223.866, 56.835 
	L 224.291, 57.260 
" />
<path d="M 231.733, 55.771 
	L 231.732, 55.772 
	L 232.795, 54.425 
	L 233.929, 52.583 
	L 234.850, 50.528 
	L 235.488, 48.472 
	L 235.488, 48.331 
" />
<path d="M 235.985, 44.149 
	L 235.984, 44.150 
	L 235.913, 41.953 
	L 235.488, 39.756 
	L 234.850, 37.701 
	L 234.071, 36.000 
" />
<path d="M 231.733, 32.456 
	L 231.732, 32.457 
	L 231.449, 32.102 
	L 229.890, 30.543 
	L 228.189, 29.197 
	L 226.276, 28.063 
	L 225.071, 27.496 
" />
<path d="M 221.032, 26.291 
	L 221.032, 26.291 
	L 220.039, 26.079 
	L 217.843, 26.008 
" />
<path d="M 217.843, 24.661 
	L 217.843, 24.661 
	L 217.843, 16.087 
" />
<path d="M 217.843, 11.834 
	L 217.843, 11.835 
	L 217.843, 3.189 
" />
<path d="M 217.843, -1.064 
	L 217.843, -1.063 
	L 217.843, -9.354 
" />
<path d="M 248.954, 25.157 
	L 248.953, 25.157 
	L 246.047, 33.732 
" />
<path d="M 245.268, 33.732 
	L 245.268, 33.732 
	L 247.677, 33.732 
" />
<path d="M 250.158, 33.732 
	L 250.158, 33.732 
	L 252.638, 33.732 
" />
<path d="M 251.788, 33.732 
	L 251.787, 33.732 
	L 248.953, 25.157 
" />
<path d="M 248.954, 26.432 
	L 248.953, 26.433 
	L 251.362, 33.732 
" />
<path d="M 250.583, 31.322 
	L 250.583, 31.323 
	L 246.898, 31.323 
" />
<path d="M 225.780, 73.417 
	L 225.780, 73.417 
	L 220.535, 78.661 
" />
<path d="M 220.536, 73.417 
	L 220.535, 73.417 
	L 225.780, 78.661 
" />
<path d="M 165.473, 81.495 
	L 165.472, 81.496 
	L 165.898, 81.921 
	L 166.323, 82.772 
	L 166.323, 83.551 
	L 165.898, 84.402 
	L 165.472, 84.827 
	L 164.268, 85.181 
	L 165.472, 85.606 
	L 165.898, 86.032 
	L 166.323, 86.882 
	L 166.323, 88.087 
" />
<path d="M 166.323, 88.087 
	L 165.898, 88.866 
	L 165.472, 89.291 
	L 164.268, 89.717 
	L 159.307, 89.717 
" />
<path d="M 160.583, 89.716 
	L 160.583, 89.717 
	L 160.583, 81.142 
" />
<path d="M 160.938, 81.141 
	L 160.937, 81.142 
	L 160.937, 89.717 
" />
<path d="M 164.268, 89.716 
	L 164.268, 89.717 
	L 165.047, 89.291 
	L 165.472, 88.866 
	L 165.898, 88.087 
	L 165.898, 86.882 
	L 165.472, 86.032 
	L 165.047, 85.606 
	L 164.268, 85.181 
	L 165.047, 84.827 
	L 165.472, 84.402 
	L 165.898, 83.551 
" />
<path d="M 165.898, 83.551 
	L 165.898, 82.772 
	L 165.472, 81.921 
	L 165.047, 81.496 
	L 164.268, 81.142 
	L 165.472, 81.496 
" />
<path d="M 164.268, 81.141 
	L 164.268, 81.142 
	L 159.307, 81.142 
" />
<path d="M 160.938, 85.180 
	L 160.937, 85.181 
	L 164.268, 85.181 
" />
<path d="M 22.111, 163.984 
	L 22.110, 163.984 
	L 21.685, 165.260 
	L 20.835, 164.409 
	L 19.630, 163.984 
	L 18.850, 163.984 
	L 17.575, 164.409 
	L 16.795, 165.260 
	L 16.370, 166.039 
	L 15.945, 167.315 
	L 15.945, 169.299 
	L 16.370, 170.575 
" />
<path d="M 16.370, 170.575 
	L 16.795, 171.354 
	L 17.575, 172.205 
	L 18.850, 172.630 
	L 19.630, 172.630 
	L 20.835, 172.205 
	L 21.685, 171.354 
	L 22.110, 170.575 
" />
<path d="M 22.111, 166.464 
	L 22.110, 166.465 
	L 22.110, 163.984 
" />
<path d="M 21.686, 165.259 
	L 21.685, 165.260 
	L 22.110, 166.465 
" />
<path d="M 18.851, 163.984 
	L 18.850, 163.984 
	L 18.000, 164.409 
	L 17.150, 165.260 
	L 16.795, 166.039 
	L 16.370, 167.315 
	L 16.370, 169.299 
	L 16.795, 170.575 
	L 17.150, 171.354 
	L 18.000, 172.205 
	L 18.850, 172.630 
" />
</g><g style="stroke:rgb(255,255,255); fill:none; stroke-width:0.100mm" >
</g>
</svg>
