<?xml version="1.0" encoding="UTF-8" standalone="no" ?>
<svg width="100%" height="100%" viewBox="0 0 298.346 146.126" xmlns="http://www.w3.org/2000/svg"><g>
</g><g style="stroke:rgb(0,0,0); fill:none; stroke-width:1.000mm" >
</g><g style="stroke:rgb(0,0,0); fill:none; stroke-width:0.100mm" >
<path d="M 201.828, 11.550 
	L 201.827, 11.551 
	L 201.827, 16.512 
" />
<path d="M 201.828, 18.708 
	L 201.827, 18.709 
	L 201.827, 22.961 
" />
<path d="M 201.402, 22.889 
	L 201.402, 22.890 
	L 201.685, 24.591 
	L 201.827, 27.213 
" />
<path d="M 201.828, 25.157 
	L 201.827, 25.157 
	L 201.827, 29.409 
" />
<path d="M 201.828, 31.606 
	L 201.827, 31.606 
	L 201.827, 35.858 
" />
<path d="M 200.268, 35.787 
	L 200.268, 35.787 
	L 199.630, 37.417 
	L 198.496, 39.756 
" />
<path d="M 197.292, 41.527 
	L 197.291, 41.528 
	L 197.079, 41.953 
	L 195.378, 43.937 
	L 194.457, 44.858 
" />
<path d="M 192.898, 46.346 
	L 192.898, 46.346 
	L 191.480, 47.480 
	L 189.283, 48.898 
" />
<path d="M 187.371, 49.889 
	L 187.370, 49.890 
	L 187.016, 50.032 
	L 184.535, 51.024 
	L 183.260, 51.378 
" />
<path d="M 181.135, 51.802 
	L 181.134, 51.803 
	L 179.433, 52.087 
	L 176.811, 52.228 
" />
<path d="M 174.615, 52.086 
	L 174.614, 52.087 
	L 174.189, 52.087 
	L 171.638, 51.661 
	L 170.362, 51.378 
" />
<path d="M 168.237, 50.669 
	L 168.236, 50.669 
	L 166.606, 50.032 
	L 164.268, 48.898 
" />
<path d="M 162.497, 47.692 
	L 162.496, 47.693 
	L 162.071, 47.480 
	L 160.087, 45.780 
	L 159.165, 44.858 
" />
<path d="M 157.678, 43.299 
	L 157.677, 43.299 
	L 156.543, 41.953 
	L 155.126, 39.756 
" />
<path d="M 154.135, 37.771 
	L 154.134, 37.772 
	L 153.921, 37.417 
	L 153.000, 34.937 
	L 152.646, 33.661 
" />
<path d="M 152.221, 31.535 
	L 152.220, 31.535 
	L 151.937, 29.835 
	L 151.795, 27.213 
" />
<path d="M 151.938, 25.015 
	L 151.937, 25.016 
	L 151.937, 24.591 
	L 152.362, 22.039 
	L 152.646, 20.764 
" />
<path d="M 153.355, 18.637 
	L 153.354, 18.638 
	L 153.921, 17.079 
	L 155.126, 14.740 
" />
<path d="M 156.331, 12.897 
	L 156.331, 12.898 
	L 156.543, 12.543 
	L 158.244, 10.488 
	L 159.165, 9.567 
" />
<path d="M 160.725, 8.078 
	L 160.724, 8.079 
	L 162.071, 7.016 
	L 164.268, 5.528 
" />
<path d="M 166.253, 4.535 
	L 166.252, 4.535 
	L 166.606, 4.394 
	L 169.087, 3.402 
	L 170.362, 3.118 
" />
<path d="M 172.489, 2.621 
	L 172.488, 2.622 
	L 174.189, 2.339 
	L 176.811, 2.197 
" />
<path d="M 179.009, 2.338 
	L 179.008, 2.339 
	L 179.433, 2.339 
	L 181.984, 2.764 
	L 183.260, 3.118 
" />
<path d="M 185.387, 3.755 
	L 185.386, 3.756 
	L 187.016, 4.394 
	L 189.283, 5.528 
" />
<path d="M 191.127, 6.732 
	L 191.126, 6.732 
	L 191.480, 7.016 
	L 193.535, 8.646 
	L 194.457, 9.567 
" />
<path d="M 195.946, 11.125 
	L 195.945, 11.126 
	L 197.079, 12.543 
	L 198.496, 14.740 
" />
<path d="M 199.489, 16.653 
	L 199.488, 16.654 
	L 199.630, 17.079 
	L 200.622, 19.488 
	L 200.906, 20.764 
" />
<path d="M 201.828, 27.212 
	L 201.827, 27.213 
" />
<path d="M 201.686, 29.409 
	L 201.685, 29.409 
	L 201.685, 29.835 
	L 201.260, 32.386 
	L 200.906, 33.661 
" />
<path d="M 201.828, 37.984 
	L 201.827, 37.984 
	L 201.827, 42.307 
" />
<path d="M 201.828, 44.432 
	L 201.827, 44.433 
	L 201.827, 48.756 
" />
<path d="M 201.828, 47.054 
	L 201.827, 47.055 
	L 199.205, 46.913 
	L 196.583, 47.055 
	L 193.961, 47.480 
	L 191.480, 48.189 
	L 189.000, 49.110 
	L 186.661, 50.315 
	L 184.465, 51.732 
	L 182.409, 53.362 
	L 180.567, 55.205 
	L 178.937, 57.260 
" />
<path d="M 178.937, 57.260 
	L 177.520, 59.457 
	L 176.315, 61.795 
	L 175.394, 64.205 
	L 174.685, 66.756 
	L 174.331, 69.378 
	L 174.189, 71.929 
	L 174.331, 74.551 
	L 174.685, 77.173 
	L 175.394, 79.724 
	L 176.315, 82.134 
	L 177.520, 84.472 
" />
<path d="M 177.520, 84.472 
	L 178.937, 86.669 
	L 180.567, 88.724 
	L 182.409, 90.567 
	L 184.465, 92.197 
	L 186.661, 93.614 
	L 189.000, 94.819 
	L 191.480, 95.740 
	L 193.961, 96.449 
	L 196.583, 96.803 
	L 199.205, 96.945 
	L 201.827, 96.803 
" />
<path d="M 201.827, 96.803 
	L 204.378, 96.449 
	L 206.929, 95.740 
	L 209.339, 94.819 
	L 211.677, 93.614 
	L 213.874, 92.197 
	L 215.929, 90.567 
	L 217.772, 88.724 
	L 219.402, 86.669 
	L 220.819, 84.472 
	L 222.024, 82.134 
	L 222.945, 79.724 
" />
<path d="M 222.945, 79.724 
	L 223.654, 77.173 
	L 224.079, 74.551 
	L 224.221, 71.929 
	L 224.079, 69.378 
	L 223.654, 66.756 
	L 222.945, 64.205 
	L 222.024, 61.795 
	L 220.819, 59.457 
	L 219.402, 57.260 
	L 217.772, 55.205 
	L 215.929, 53.362 
" />
<path d="M 215.929, 53.362 
	L 213.874, 51.732 
	L 211.677, 50.315 
	L 209.339, 49.110 
	L 206.929, 48.189 
	L 204.378, 47.480 
	L 201.827, 47.055 
" />
<path d="M 201.828, 50.881 
	L 201.827, 50.882 
	L 201.827, 55.205 
" />
<path d="M 201.828, 57.330 
	L 201.827, 57.331 
	L 201.827, 61.654 
" />
<path d="M 201.828, 63.779 
	L 201.827, 63.780 
	L 201.827, 68.102 
" />
<path d="M 201.828, 70.228 
	L 201.827, 70.228 
	L 201.827, 74.551 
" />
<path d="M 201.828, 76.676 
	L 201.827, 76.677 
	L 201.827, 81.000 
" />
<path d="M 201.828, 83.125 
	L 201.827, 83.126 
	L 201.827, 87.449 
" />
<path d="M 201.828, 89.574 
	L 201.827, 89.575 
	L 201.827, 93.898 
" />
<path d="M 201.828, 96.023 
	L 201.827, 96.024 
	L 201.827, 100.346 
" />
<path d="M 201.828, 102.472 
	L 201.827, 102.472 
	L 201.827, 106.795 
" />
<path d="M 201.828, 108.921 
	L 201.827, 108.921 
	L 201.827, 113.244 
" />
<path d="M 201.828, 115.369 
	L 201.827, 115.370 
	L 201.827, 120.402 
" />
<path d="M 174.190, 120.401 
	L 174.189, 120.402 
	L 174.189, 115.370 
" />
<path d="M 174.190, 113.243 
	L 174.189, 113.244 
	L 174.189, 108.921 
" />
<path d="M 174.190, 106.795 
	L 174.189, 106.795 
	L 174.189, 102.472 
" />
<path d="M 174.190, 100.346 
	L 174.189, 100.346 
	L 174.189, 96.024 
" />
<path d="M 174.190, 93.897 
	L 174.189, 93.898 
	L 174.189, 89.575 
" />
<path d="M 174.190, 87.448 
	L 174.189, 87.449 
	L 174.189, 83.126 
" />
<path d="M 174.190, 80.999 
	L 174.189, 81.000 
	L 174.189, 76.677 
" />
<path d="M 174.190, 74.550 
	L 174.189, 74.551 
	L 174.189, 70.228 
" />
<path d="M 174.190, 68.102 
	L 174.189, 68.102 
	L 174.189, 63.780 
" />
<path d="M 174.190, 61.653 
	L 174.189, 61.654 
	L 174.189, 57.331 
" />
<path d="M 174.190, 55.204 
	L 174.189, 55.205 
	L 174.189, 50.882 
" />
<path d="M 174.190, 48.755 
	L 174.189, 48.756 
	L 174.189, 44.433 
" />
<path d="M 174.190, 42.306 
	L 174.189, 42.307 
	L 174.189, 37.984 
" />
<path d="M 174.190, 35.858 
	L 174.189, 35.858 
	L 174.189, 31.606 
" />
<path d="M 174.190, 29.409 
	L 174.189, 29.409 
	L 174.189, 25.157 
" />
<path d="M 174.190, 22.960 
	L 174.189, 22.961 
	L 174.189, 18.709 
" />
<path d="M 174.190, 16.511 
	L 174.189, 16.512 
	L 174.189, 11.551 
" />
<path d="M 176.812, 27.212 
	L 176.811, 27.213 
	L 173.339, 28.984 
" />
<path d="M 171.355, 29.905 
	L 171.354, 29.906 
	L 167.528, 31.819 
" />
<path d="M 165.615, 32.810 
	L 165.614, 32.811 
	L 161.787, 34.724 
" />
<path d="M 159.875, 35.716 
	L 159.874, 35.717 
	L 155.976, 37.630 
" />
<path d="M 154.064, 38.550 
	L 154.063, 38.551 
	L 150.236, 40.465 
" />
<path d="M 148.324, 41.456 
	L 148.323, 41.457 
	L 144.496, 43.370 
" />
<path d="M 142.583, 44.362 
	L 142.583, 44.362 
	L 138.685, 46.276 
" />
<path d="M 136.772, 47.196 
	L 136.772, 47.197 
	L 132.945, 49.110 
" />
<path d="M 131.032, 50.102 
	L 131.032, 50.102 
	L 127.205, 52.016 
" />
<path d="M 125.292, 53.007 
	L 125.291, 53.008 
	L 121.394, 54.921 
" />
<path d="M 119.481, 55.842 
	L 119.480, 55.843 
	L 115.654, 57.827 
" />
<path d="M 113.741, 58.747 
	L 113.740, 58.748 
	L 109.913, 60.661 
" />
<path d="M 108.001, 61.653 
	L 108.000, 61.654 
	L 104.102, 63.567 
" />
<path d="M 102.190, 64.487 
	L 102.189, 64.488 
	L 98.362, 66.472 
" />
<path d="M 96.450, 67.393 
	L 96.449, 67.394 
	L 92.622, 69.307 
" />
<path d="M 90.639, 70.299 
	L 90.638, 70.299 
	L 86.811, 72.213 
" />
<path d="M 84.898, 73.133 
	L 84.898, 73.134 
	L 81.071, 75.118 
" />
<path d="M 79.158, 76.039 
	L 79.157, 76.039 
	L 75.260, 77.953 
" />
<path d="M 73.347, 78.944 
	L 73.346, 78.945 
	L 69.520, 80.858 
" />
<path d="M 67.607, 81.779 
	L 67.606, 81.780 
	L 63.780, 83.764 
" />
<path d="M 61.867, 84.684 
	L 61.866, 84.685 
	L 57.969, 86.598 
" />
<path d="M 58.111, 87.802 
	L 58.110, 87.803 
	L 56.976, 85.465 
	L 55.488, 83.268 
	L 53.858, 81.213 
	L 52.016, 79.370 
	L 49.961, 77.740 
	L 47.764, 76.323 
	L 45.425, 75.118 
	L 43.016, 74.197 
	L 40.465, 73.488 
	L 37.913, 73.134 
" />
<path d="M 37.913, 73.134 
	L 35.291, 72.992 
	L 32.669, 73.134 
	L 30.047, 73.488 
	L 27.567, 74.197 
	L 25.087, 75.118 
	L 22.748, 76.323 
	L 20.551, 77.740 
	L 18.567, 79.370 
	L 16.654, 81.213 
	L 15.024, 83.268 
	L 13.606, 85.465 
" />
<path d="M 13.606, 85.465 
	L 12.402, 87.803 
	L 11.480, 90.213 
	L 10.843, 92.764 
	L 10.417, 95.386 
	L 10.276, 98.008 
	L 10.417, 100.559 
	L 10.843, 103.181 
	L 11.480, 105.732 
	L 12.402, 108.142 
	L 13.606, 110.480 
	L 15.024, 112.677 
" />
<path d="M 15.024, 112.677 
	L 16.654, 114.732 
	L 18.567, 116.575 
	L 20.551, 118.205 
	L 22.748, 119.622 
	L 25.087, 120.827 
	L 27.567, 121.748 
	L 30.047, 122.457 
	L 32.669, 122.882 
	L 35.291, 122.953 
	L 37.913, 122.882 
	L 40.465, 122.457 
" />
<path d="M 40.465, 122.457 
	L 43.016, 121.748 
	L 45.425, 120.827 
	L 47.764, 119.622 
	L 49.961, 118.205 
	L 52.016, 116.575 
	L 53.858, 114.732 
	L 55.488, 112.677 
	L 56.976, 110.480 
	L 58.110, 108.142 
	L 59.102, 105.732 
	L 59.740, 103.181 
" />
<path d="M 59.740, 103.181 
	L 60.165, 100.559 
	L 60.307, 98.008 
	L 60.165, 95.386 
	L 59.740, 92.764 
	L 59.102, 90.213 
	L 58.110, 87.803 
" />
<path d="M 56.056, 87.590 
	L 56.055, 87.591 
	L 52.228, 89.504 
" />
<path d="M 50.316, 90.425 
	L 50.315, 90.425 
	L 46.488, 92.409 
" />
<path d="M 44.576, 93.330 
	L 44.575, 93.331 
	L 40.677, 95.244 
" />
<path d="M 38.764, 96.236 
	L 38.764, 96.236 
	L 35.291, 98.008 
" />
<path d="M 7.513, 139.818 
	L 7.512, 139.819 
	L 210.402, 38.409 
" />
<path d="M 232.725, 83.125 
	L 232.724, 83.126 
	L 188.008, -6.307 
" />
<path d="M 201.828, 120.401 
	L 201.827, 120.402 
	L 202.252, 120.472 
	L 207.850, 120.472 
	L 207.850, 120.543 
	L 202.677, 120.543 
	L 203.102, 120.614 
	L 207.850, 120.614 
	L 207.850, 120.685 
	L 203.528, 120.685 
	L 203.953, 120.756 
" />
<path d="M 203.953, 120.756 
	L 207.850, 120.756 
	L 207.850, 120.827 
	L 204.378, 120.827 
	L 204.803, 120.898 
	L 207.850, 120.898 
	L 207.850, 120.969 
	L 205.228, 120.969 
	L 205.654, 121.039 
	L 207.850, 121.039 
	L 207.850, 121.110 
" />
<path d="M 207.850, 121.110 
	L 206.079, 121.110 
	L 206.504, 121.181 
	L 207.850, 121.181 
	L 207.850, 121.252 
	L 206.929, 121.252 
	L 207.354, 121.323 
	L 207.850, 121.323 
" />
<path d="M 207.851, 121.393 
	L 207.850, 121.394 
	L 207.850, 119.409 
	L 201.827, 120.402 
	L 207.850, 121.394 
" />
<path d="M 207.851, 120.401 
	L 207.850, 120.402 
	L 213.874, 120.402 
" />
<path d="M 207.851, 120.401 
	L 207.850, 120.402 
	L 201.827, 120.402 
" />
<path d="M 201.828, 120.543 
	L 201.827, 120.543 
	L 201.827, 123.449 
" />
<path d="M 202.253, 120.330 
	L 202.252, 120.331 
	L 207.850, 120.331 
	L 207.850, 120.402 
" />
<path d="M 207.851, 120.259 
	L 207.850, 120.260 
	L 202.677, 120.260 
	L 202.252, 120.331 
" />
<path d="M 203.103, 120.188 
	L 203.102, 120.189 
	L 207.850, 120.189 
	L 207.850, 120.260 
" />
<path d="M 207.851, 120.117 
	L 207.850, 120.118 
	L 203.528, 120.118 
	L 203.102, 120.189 
" />
<path d="M 203.953, 120.047 
	L 203.953, 120.047 
	L 207.850, 120.047 
	L 207.850, 120.118 
" />
<path d="M 207.851, 119.976 
	L 207.850, 119.976 
	L 204.378, 119.976 
	L 203.953, 120.047 
" />
<path d="M 204.804, 119.905 
	L 204.803, 119.906 
	L 207.850, 119.906 
	L 207.850, 119.976 
" />
<path d="M 207.851, 119.834 
	L 207.850, 119.835 
	L 205.228, 119.835 
	L 204.803, 119.906 
" />
<path d="M 205.654, 119.763 
	L 205.654, 119.764 
	L 207.850, 119.764 
	L 207.850, 119.835 
" />
<path d="M 207.851, 119.692 
	L 207.850, 119.693 
	L 206.079, 119.693 
	L 205.654, 119.764 
" />
<path d="M 206.505, 119.621 
	L 206.504, 119.622 
	L 207.850, 119.622 
	L 207.850, 119.693 
" />
<path d="M 207.851, 119.550 
	L 207.850, 119.551 
	L 206.929, 119.551 
	L 206.504, 119.622 
" />
<path d="M 207.355, 119.480 
	L 207.354, 119.480 
	L 207.850, 119.480 
	L 207.850, 119.551 
" />
<path d="M 221.032, 119.976 
	L 221.032, 119.976 
	L 221.315, 119.693 
	L 221.882, 119.409 
	L 223.016, 119.409 
	L 223.583, 119.693 
	L 223.866, 119.976 
	L 224.150, 120.543 
	L 224.150, 122.528 
	L 224.433, 123.095 
	L 224.717, 123.378 
" />
<path d="M 224.717, 123.378 
	L 225.000, 123.378 
" />
<path d="M 224.717, 123.377 
	L 224.717, 123.378 
	L 224.150, 123.095 
	L 223.866, 122.528 
	L 223.299, 123.095 
	L 222.732, 123.378 
	L 221.882, 123.378 
	L 221.315, 123.095 
	L 221.032, 122.528 
	L 221.032, 121.961 
	L 221.315, 121.394 
" />
<path d="M 221.315, 121.394 
	L 221.882, 121.110 
	L 221.032, 121.394 
	L 220.748, 121.961 
	L 220.748, 122.528 
	L 221.032, 123.095 
	L 221.882, 123.378 
" />
<path d="M 221.883, 121.110 
	L 221.882, 121.110 
	L 223.583, 120.827 
	L 223.866, 120.543 
" />
<path d="M 223.867, 119.976 
	L 223.866, 119.976 
	L 223.866, 122.528 
" />
<path d="M 226.205, 123.377 
	L 226.205, 123.378 
	L 228.189, 123.378 
" />
<path d="M 227.339, 123.377 
	L 227.339, 123.378 
	L 227.339, 119.409 
	L 226.205, 119.409 
" />
<path d="M 227.056, 119.409 
	L 227.055, 119.409 
	L 227.055, 123.378 
" />
<path d="M 227.339, 121.110 
	L 227.339, 121.110 
	L 227.622, 120.260 
	L 228.189, 119.693 
	L 228.756, 119.409 
	L 229.606, 119.409 
	L 229.890, 119.693 
	L 229.890, 119.976 
	L 229.606, 120.260 
	L 229.323, 119.976 
	L 229.606, 119.693 
" />
<path d="M 229.606, 119.693 
" />
<path d="M 232.158, 119.692 
	L 232.158, 119.693 
	L 231.591, 120.260 
	L 231.307, 121.110 
	L 231.307, 121.677 
	L 231.591, 122.528 
	L 232.158, 123.095 
	L 233.079, 123.378 
	L 233.646, 123.378 
	L 234.496, 123.095 
	L 235.063, 122.528 
" />
<path d="M 235.063, 122.528 
" />
<path d="M 235.064, 121.110 
	L 235.063, 121.110 
	L 235.063, 120.543 
	L 234.780, 119.976 
	L 234.496, 119.693 
	L 233.929, 119.409 
	L 233.079, 119.409 
	L 232.158, 119.693 
" />
<path d="M 232.513, 119.692 
	L 232.512, 119.693 
	L 231.874, 120.260 
	L 231.591, 121.110 
	L 231.591, 121.677 
	L 231.874, 122.528 
	L 232.512, 123.095 
	L 233.079, 123.378 
" />
<path d="M 231.591, 121.110 
	L 231.591, 121.110 
	L 235.063, 121.110 
" />
<path d="M 234.780, 121.110 
	L 234.780, 121.110 
	L 234.780, 120.260 
	L 234.496, 119.693 
" />
<path d="M 233.079, 119.409 
	L 233.079, 119.409 
	L 232.512, 119.693 
" />
<path d="M 237.048, 119.976 
	L 237.047, 119.976 
	L 237.331, 119.693 
	L 237.898, 119.409 
	L 239.032, 119.409 
	L 239.669, 119.693 
	L 239.953, 119.976 
	L 240.236, 120.543 
	L 240.236, 122.528 
	L 240.520, 123.095 
	L 240.803, 123.378 
" />
<path d="M 240.803, 123.378 
	L 241.087, 123.378 
" />
<path d="M 240.804, 123.377 
	L 240.803, 123.378 
	L 240.236, 123.095 
	L 239.953, 122.528 
	L 239.386, 123.095 
	L 238.748, 123.378 
	L 237.898, 123.378 
	L 237.331, 123.095 
	L 237.047, 122.528 
	L 237.047, 121.961 
	L 237.331, 121.394 
" />
<path d="M 237.331, 121.394 
	L 237.898, 121.110 
	L 237.047, 121.394 
	L 236.764, 121.961 
	L 236.764, 122.528 
	L 237.047, 123.095 
	L 237.898, 123.378 
" />
<path d="M 237.898, 121.110 
	L 237.898, 121.110 
	L 239.669, 120.827 
	L 239.953, 120.543 
" />
<path d="M 239.954, 119.976 
	L 239.953, 119.976 
	L 239.953, 122.528 
" />
<path d="M 237.331, 120.259 
	L 237.331, 120.260 
	L 237.047, 120.260 
	L 237.047, 119.976 
" />
<path d="M 237.331, 119.976 
	L 237.331, 119.976 
	L 237.331, 120.260 
" />
<path d="M 248.812, 120.259 
	L 248.811, 120.260 
	L 248.528, 121.110 
	L 248.528, 121.677 
	L 248.811, 122.528 
	L 249.378, 123.095 
	L 250.228, 123.378 
	L 250.795, 123.378 
	L 251.646, 123.095 
	L 252.213, 122.528 
	L 252.496, 121.677 
" />
<path d="M 252.496, 121.677 
	L 252.496, 121.110 
	L 252.213, 120.260 
	L 251.646, 119.693 
	L 250.795, 119.409 
	L 250.228, 119.409 
	L 249.661, 119.693 
	L 249.095, 120.260 
	L 248.811, 121.110 
	L 248.811, 121.677 
	L 249.095, 122.528 
" />
<path d="M 249.095, 122.528 
	L 249.661, 123.095 
	L 250.228, 123.378 
" />
<path d="M 250.796, 123.377 
	L 250.795, 123.378 
	L 251.362, 123.095 
	L 251.929, 122.528 
	L 252.213, 121.677 
	L 252.213, 121.110 
	L 251.929, 120.260 
	L 251.362, 119.693 
	L 250.795, 119.409 
" />
<path d="M 250.229, 119.409 
	L 250.228, 119.409 
	L 249.378, 119.693 
	L 248.811, 120.260 
" />
<path d="M 253.985, 119.409 
	L 253.984, 119.409 
	L 256.252, 119.409 
" />
<path d="M 256.253, 118.204 
	L 256.252, 118.205 
	L 256.535, 117.921 
	L 256.535, 117.638 
	L 256.252, 117.354 
	L 255.685, 117.354 
	L 255.118, 117.638 
	L 254.835, 118.205 
	L 254.835, 123.378 
" />
<path d="M 255.119, 123.377 
	L 255.118, 123.378 
	L 255.118, 118.205 
	L 255.402, 117.638 
	L 255.685, 117.354 
" />
<path d="M 256.253, 117.637 
	L 256.252, 117.638 
	L 255.969, 117.921 
	L 256.252, 118.205 
" />
<path d="M 255.969, 123.377 
	L 255.969, 123.378 
	L 253.984, 123.378 
" />
<path d="M 264.261, 122.527 
	L 264.260, 122.528 
	L 264.827, 123.095 
	L 265.677, 123.378 
	L 266.315, 123.378 
	L 267.165, 123.095 
	L 267.732, 122.528 
	L 268.016, 121.677 
	L 268.016, 121.110 
	L 267.732, 120.260 
	L 267.165, 119.693 
" />
<path d="M 267.165, 119.693 
	L 266.315, 119.409 
	L 265.677, 119.409 
	L 265.110, 119.693 
	L 264.543, 120.260 
	L 264.260, 121.110 
	L 264.260, 121.677 
	L 264.543, 122.528 
	L 265.110, 123.095 
	L 265.677, 123.378 
" />
<path d="M 266.316, 123.377 
	L 266.315, 123.378 
	L 266.882, 123.095 
	L 267.449, 122.528 
	L 267.732, 121.677 
	L 267.732, 121.110 
	L 267.449, 120.260 
	L 266.882, 119.693 
	L 266.315, 119.409 
" />
<path d="M 265.678, 119.409 
	L 265.677, 119.409 
	L 264.827, 119.693 
	L 264.260, 120.260 
	L 263.976, 121.110 
	L 263.976, 121.677 
	L 264.260, 122.528 
" />
<path d="M 271.418, 122.810 
	L 271.417, 122.811 
	L 270.000, 119.409 
" />
<path d="M 269.717, 119.409 
	L 269.717, 119.409 
	L 271.417, 123.378 
	L 273.189, 119.409 
" />
<path d="M 273.757, 119.409 
	L 273.756, 119.409 
	L 271.984, 119.409 
" />
<path d="M 270.851, 119.409 
	L 270.850, 119.409 
	L 269.150, 119.409 
" />
<path d="M 275.741, 119.692 
	L 275.740, 119.693 
	L 275.173, 120.260 
	L 274.890, 121.110 
	L 274.890, 121.677 
	L 275.173, 122.528 
	L 275.740, 123.095 
	L 276.591, 123.378 
	L 277.158, 123.378 
	L 278.008, 123.095 
	L 278.575, 122.528 
" />
<path d="M 278.575, 122.528 
" />
<path d="M 278.576, 121.110 
	L 278.575, 121.110 
	L 278.575, 120.543 
	L 278.291, 119.976 
	L 278.008, 119.693 
	L 277.441, 119.409 
	L 276.591, 119.409 
	L 275.740, 119.693 
" />
<path d="M 276.024, 119.692 
	L 276.024, 119.693 
	L 275.457, 120.260 
	L 275.173, 121.110 
	L 275.173, 121.677 
	L 275.457, 122.528 
	L 276.024, 123.095 
	L 276.591, 123.378 
" />
<path d="M 280.064, 123.377 
	L 280.063, 123.378 
	L 282.047, 123.378 
" />
<path d="M 281.198, 123.377 
	L 281.197, 123.378 
	L 281.197, 119.409 
	L 280.063, 119.409 
" />
<path d="M 280.914, 119.409 
	L 280.913, 119.409 
	L 280.913, 123.378 
" />
<path d="M 281.198, 121.110 
	L 281.197, 121.110 
	L 281.480, 120.260 
	L 282.047, 119.693 
	L 282.614, 119.409 
	L 283.465, 119.409 
	L 283.748, 119.693 
	L 283.748, 119.976 
	L 283.465, 120.260 
	L 283.181, 119.976 
	L 283.465, 119.693 
" />
<path d="M 283.465, 119.693 
" />
<path d="M 284.883, 117.354 
	L 284.882, 117.354 
	L 286.016, 117.354 
	L 286.016, 123.378 
" />
<path d="M 285.733, 123.377 
	L 285.732, 123.378 
	L 285.732, 117.354 
" />
<path d="M 288.639, 119.976 
	L 288.638, 119.976 
	L 288.921, 119.693 
	L 289.488, 119.409 
	L 290.622, 119.409 
	L 291.189, 119.693 
	L 291.472, 119.976 
	L 291.756, 120.543 
	L 291.756, 122.528 
	L 292.039, 123.095 
	L 292.323, 123.378 
" />
<path d="M 292.323, 123.378 
	L 292.606, 123.378 
" />
<path d="M 292.324, 123.377 
	L 292.323, 123.378 
	L 291.756, 123.095 
	L 291.472, 122.528 
	L 290.906, 123.095 
	L 290.339, 123.378 
	L 289.488, 123.378 
	L 288.921, 123.095 
	L 288.638, 122.528 
	L 288.638, 121.961 
	L 288.921, 121.394 
" />
<path d="M 288.921, 121.394 
	L 289.488, 121.110 
	L 288.638, 121.394 
	L 288.354, 121.961 
	L 288.354, 122.528 
	L 288.638, 123.095 
	L 289.488, 123.378 
" />
<path d="M 289.489, 121.110 
	L 289.488, 121.110 
	L 291.189, 120.827 
	L 291.472, 120.543 
" />
<path d="M 291.473, 119.976 
	L 291.472, 119.976 
	L 291.472, 122.528 
" />
<path d="M 294.946, 122.527 
	L 294.945, 122.528 
	L 295.512, 123.095 
	L 296.079, 123.378 
	L 296.646, 123.378 
	L 297.213, 123.095 
	L 297.780, 122.528 
	L 298.063, 121.677 
	L 298.063, 121.110 
	L 297.780, 120.260 
	L 297.213, 119.693 
" />
<path d="M 297.213, 119.693 
	L 296.646, 119.409 
	L 297.496, 119.693 
	L 298.063, 120.260 
	L 298.347, 121.110 
	L 298.347, 121.677 
	L 298.063, 122.528 
	L 297.496, 123.095 
	L 296.646, 123.378 
" />
<path d="M 295.796, 125.362 
	L 295.795, 125.362 
	L 293.811, 125.362 
" />
<path d="M 294.662, 125.362 
	L 294.661, 125.362 
	L 294.661, 119.409 
" />
<path d="M 294.946, 119.409 
	L 294.945, 119.409 
	L 294.945, 125.362 
" />
<path d="M 294.946, 120.259 
	L 294.945, 120.260 
	L 295.512, 119.693 
	L 296.079, 119.409 
	L 296.646, 119.409 
" />
<path d="M 294.946, 119.409 
	L 294.945, 119.409 
	L 293.811, 119.409 
" />
<path d="M 288.922, 119.976 
	L 288.921, 119.976 
	L 288.921, 120.260 
	L 288.638, 120.260 
	L 288.638, 119.976 
" />
<path d="M 286.938, 123.377 
	L 286.937, 123.378 
	L 284.882, 123.378 
" />
<path d="M 278.576, 121.110 
	L 278.575, 121.110 
	L 275.173, 121.110 
" />
<path d="M 276.024, 119.692 
	L 276.024, 119.693 
	L 276.591, 119.409 
" />
<path d="M 278.009, 119.692 
	L 278.008, 119.693 
	L 278.291, 120.260 
	L 278.291, 121.110 
" />
<path d="M 221.316, 120.259 
	L 221.315, 120.260 
	L 221.032, 120.260 
	L 221.032, 119.976 
" />
<path d="M 221.316, 119.976 
	L 221.315, 119.976 
	L 221.315, 120.260 
" />
<path d="M 221.245, 104.598 
	L 221.244, 104.598 
	L 221.244, 95.953 
" />
<path d="M 220.820, 95.952 
	L 220.819, 95.953 
	L 220.819, 104.598 
" />
<path d="M 224.505, 100.062 
	L 224.504, 100.063 
	L 225.709, 99.638 
	L 226.134, 99.283 
	L 226.559, 98.433 
	L 226.559, 97.654 
	L 226.134, 96.803 
	L 225.709, 96.378 
	L 224.504, 95.953 
	L 225.354, 96.378 
	L 225.709, 96.803 
	L 226.134, 97.654 
" />
<path d="M 226.134, 97.654 
	L 226.134, 98.433 
	L 225.709, 99.283 
	L 225.354, 99.638 
	L 224.504, 100.063 
	L 225.709, 100.488 
	L 226.134, 100.913 
	L 226.559, 101.693 
	L 226.559, 102.969 
	L 226.134, 103.748 
	L 225.709, 104.173 
" />
<path d="M 225.709, 104.173 
	L 224.504, 104.598 
	L 219.614, 104.598 
" />
<path d="M 224.505, 104.598 
	L 224.504, 104.598 
	L 225.354, 104.173 
	L 225.709, 103.748 
	L 226.134, 102.969 
	L 226.134, 101.693 
	L 225.709, 100.913 
	L 225.354, 100.488 
	L 224.504, 100.063 
	L 221.244, 100.063 
" />
<path d="M 219.615, 95.952 
	L 219.614, 95.953 
	L 224.504, 95.953 
" />
<path d="M 174.190, 120.401 
	L 174.189, 120.402 
	L 168.165, 120.402 
	L 168.165, 120.472 
	L 173.693, 120.472 
	L 173.268, 120.543 
	L 168.165, 120.543 
	L 168.165, 120.614 
	L 172.843, 120.614 
	L 172.417, 120.685 
	L 168.165, 120.685 
" />
<path d="M 168.165, 120.685 
	L 168.165, 120.756 
	L 171.992, 120.756 
	L 171.567, 120.827 
	L 168.165, 120.827 
	L 168.165, 120.898 
	L 171.142, 120.898 
	L 170.717, 120.969 
	L 168.165, 120.969 
	L 168.165, 121.039 
	L 170.291, 121.039 
" />
<path d="M 170.291, 121.039 
	L 169.866, 121.110 
	L 168.165, 121.110 
	L 168.165, 121.181 
	L 169.441, 121.181 
	L 169.016, 121.252 
	L 168.165, 121.252 
	L 168.165, 121.323 
	L 168.591, 121.323 
" />
<path d="M 168.166, 121.393 
	L 168.165, 121.394 
	L 168.165, 119.409 
	L 174.189, 120.402 
	L 168.165, 121.394 
" />
<path d="M 168.166, 120.401 
	L 168.165, 120.402 
	L 162.142, 120.402 
" />
<path d="M 168.166, 120.330 
	L 168.165, 120.331 
	L 173.693, 120.331 
" />
<path d="M 173.268, 120.259 
	L 173.268, 120.260 
	L 168.165, 120.260 
	L 168.165, 120.331 
" />
<path d="M 168.166, 120.188 
	L 168.165, 120.189 
	L 172.843, 120.189 
	L 173.268, 120.260 
" />
<path d="M 172.418, 120.117 
	L 172.417, 120.118 
	L 168.165, 120.118 
	L 168.165, 120.189 
" />
<path d="M 168.166, 120.047 
	L 168.165, 120.047 
	L 171.992, 120.047 
	L 172.417, 120.118 
" />
<path d="M 171.568, 119.976 
	L 171.567, 119.976 
	L 168.165, 119.976 
	L 168.165, 120.047 
" />
<path d="M 168.166, 119.905 
	L 168.165, 119.906 
	L 171.142, 119.906 
	L 171.567, 119.976 
" />
<path d="M 170.717, 119.834 
	L 170.717, 119.835 
	L 168.165, 119.835 
	L 168.165, 119.906 
" />
<path d="M 168.166, 119.763 
	L 168.165, 119.764 
	L 170.291, 119.764 
	L 170.717, 119.835 
" />
<path d="M 169.867, 119.692 
	L 169.866, 119.693 
	L 168.165, 119.693 
	L 168.165, 119.764 
" />
<path d="M 168.166, 119.621 
	L 168.165, 119.622 
	L 169.441, 119.622 
	L 169.866, 119.693 
" />
<path d="M 169.016, 119.550 
	L 169.016, 119.551 
	L 168.165, 119.551 
	L 168.165, 119.622 
" />
<path d="M 168.166, 119.480 
	L 168.165, 119.480 
	L 168.591, 119.480 
	L 169.016, 119.551 
" />
<path d="M 174.190, 120.543 
	L 174.189, 120.543 
	L 174.189, 123.449 
" />
<path d="M 143.363, 23.810 
	L 143.362, 23.811 
	L 140.882, 23.811 
" />
<path d="M 142.158, 23.810 
	L 142.158, 23.811 
	L 139.677, 16.441 
" />
<path d="M 139.678, 15.236 
	L 139.677, 15.236 
	L 136.843, 23.811 
" />
<path d="M 135.993, 23.810 
	L 135.992, 23.811 
	L 138.472, 23.811 
" />
<path d="M 137.623, 21.401 
	L 137.622, 21.402 
	L 141.307, 21.402 
" />
<path d="M 142.583, 23.810 
	L 142.583, 23.811 
	L 139.677, 15.236 
" />
<path d="M 6.166, 81.141 
	L 6.165, 81.142 
	L 5.740, 82.417 
	L 4.890, 81.567 
	L 3.685, 81.142 
	L 2.835, 81.142 
	L 1.630, 81.567 
	L 0.850, 82.417 
	L 0.425, 83.197 
	L 0.000, 84.472 
	L 0.000, 86.457 
	L 0.425, 87.732 
	L 0.850, 88.512 
" />
<path d="M 0.850, 88.512 
	L 1.630, 89.362 
	L 2.835, 89.787 
	L 3.685, 89.787 
	L 4.890, 89.362 
	L 5.740, 88.512 
	L 6.165, 87.732 
" />
<path d="M 6.166, 83.621 
	L 6.165, 83.622 
	L 6.165, 81.142 
" />
<path d="M 5.741, 82.417 
	L 5.740, 82.417 
	L 6.165, 83.622 
" />
<path d="M 0.851, 83.196 
	L 0.850, 83.197 
	L 0.425, 84.472 
	L 0.425, 86.457 
	L 0.850, 87.732 
	L 1.205, 88.512 
	L 2.055, 89.362 
	L 2.835, 89.787 
" />
<path d="M 0.851, 83.196 
	L 0.850, 83.197 
	L 1.205, 82.417 
	L 2.055, 81.567 
	L 2.835, 81.142 
" />
</g><g style="stroke:rgb(255,255,255); fill:none; stroke-width:0.100mm" >
</g>
</svg>
