<?xml version="1.0" encoding="UTF-8" standalone="no" ?>
<svg width="100%" height="100%" viewBox="0 0 227.906 220.040" xmlns="http://www.w3.org/2000/svg"><g>
</g><g style="stroke:rgb(0,0,0); fill:none; stroke-width:1.000mm" >
</g><g style="stroke:rgb(0,0,0); fill:none; stroke-width:0.100mm" >
<path d="M 142.158, 90.000 
	L 142.158, 90.001 
	L 36.425, 173.552 
" />
<path d="M 40.890, 177.874 
	L 40.890, 177.875 
	L 40.039, 178.867 
	L 39.402, 180.072 
	L 39.047, 181.276 
	L 38.906, 182.623 
	L 39.047, 183.898 
	L 39.402, 185.174 
	L 40.039, 186.308 
	L 40.890, 187.300 
	L 41.882, 188.150 
	L 43.016, 188.788 
" />
<path d="M 43.016, 188.788 
	L 44.291, 189.142 
	L 45.567, 189.284 
	L 46.913, 189.142 
	L 48.118, 188.788 
	L 49.323, 188.150 
	L 50.315, 187.300 
	L 51.165, 186.308 
	L 51.732, 185.174 
	L 52.157, 183.898 
	L 52.228, 182.623 
	L 52.157, 181.276 
" />
<path d="M 52.157, 181.276 
	L 51.732, 180.072 
	L 51.165, 178.867 
	L 50.315, 177.875 
	L 49.323, 177.024 
	L 48.118, 176.457 
	L 46.913, 176.032 
	L 45.567, 175.891 
	L 44.291, 176.032 
	L 43.016, 176.457 
	L 41.882, 177.024 
	L 40.890, 177.875 
" />
<path d="M 40.890, 177.875 
" />
<path d="M 42.591, 178.795 
	L 42.591, 178.796 
	L 41.811, 179.576 
	L 41.244, 180.497 
	L 40.890, 181.489 
	L 40.748, 182.623 
	L 40.890, 183.686 
	L 41.244, 184.678 
	L 41.811, 185.599 
	L 42.591, 186.379 
	L 43.512, 186.946 
	L 44.504, 187.300 
" />
<path d="M 44.504, 187.300 
	L 45.567, 187.442 
	L 46.630, 187.300 
	L 47.693, 186.946 
	L 48.614, 186.379 
	L 49.394, 185.599 
	L 49.961, 184.678 
	L 50.315, 183.686 
	L 50.457, 182.623 
	L 50.315, 181.489 
	L 49.961, 180.497 
	L 49.394, 179.576 
" />
<path d="M 49.394, 179.576 
	L 48.614, 178.796 
	L 47.693, 178.229 
	L 46.630, 177.875 
	L 45.567, 177.733 
	L 44.504, 177.875 
	L 43.512, 178.229 
	L 42.591, 178.796 
" />
<path d="M 42.379, 176.740 
	L 42.378, 176.741 
	L 39.756, 179.363 
" />
<path d="M 39.402, 180.142 
	L 39.402, 180.142 
	L 43.087, 176.387 
" />
<path d="M 43.725, 176.173 
	L 43.724, 176.174 
	L 39.189, 180.709 
" />
<path d="M 39.048, 181.276 
	L 39.047, 181.276 
	L 44.291, 176.032 
" />
<path d="M 44.788, 175.961 
	L 44.787, 175.961 
	L 38.976, 181.772 
" />
<path d="M 38.906, 182.197 
	L 38.906, 182.198 
	L 45.213, 175.961 
" />
<path d="M 45.639, 175.890 
	L 45.638, 175.891 
	L 38.906, 182.623 
" />
<path d="M 38.906, 183.047 
	L 38.906, 183.048 
	L 45.992, 175.961 
" />
<path d="M 46.347, 175.961 
	L 46.346, 175.961 
	L 38.976, 183.402 
" />
<path d="M 39.048, 183.756 
	L 39.047, 183.757 
	L 46.701, 176.032 
" />
<path d="M 47.056, 176.102 
	L 47.055, 176.103 
	L 39.118, 184.040 
" />
<path d="M 39.190, 184.394 
	L 39.189, 184.394 
	L 47.409, 176.174 
" />
<path d="M 47.694, 176.244 
	L 47.693, 176.245 
	L 39.260, 184.678 
" />
<path d="M 39.402, 185.032 
	L 39.402, 185.032 
	L 47.976, 176.387 
" />
<path d="M 48.261, 176.457 
	L 48.260, 176.457 
	L 39.472, 185.316 
" />
<path d="M 39.615, 185.598 
	L 39.614, 185.599 
	L 48.543, 176.599 
" />
<path d="M 48.827, 176.740 
	L 48.827, 176.741 
	L 39.756, 185.812 
" />
<path d="M 39.898, 186.095 
	L 39.898, 186.095 
	L 49.110, 176.883 
" />
<path d="M 49.324, 177.095 
	L 49.323, 177.095 
	L 40.039, 186.308 
" />
<path d="M 40.253, 186.591 
	L 40.252, 186.591 
	L 49.535, 177.237 
" />
<path d="M 49.820, 177.449 
	L 49.819, 177.450 
	L 45.567, 181.702 
	L 45.283, 181.772 
	L 45.142, 182.056 
	L 40.394, 186.804 
" />
<path d="M 40.607, 187.016 
	L 40.606, 187.016 
	L 45.142, 182.481 
" />
<path d="M 45.142, 182.055 
	L 45.142, 182.056 
	L 45.142, 186.308 
	L 45.283, 186.591 
	L 45.567, 186.733 
	L 45.638, 186.733 
	L 45.921, 186.591 
	L 46.063, 186.308 
	L 46.063, 182.056 
	L 45.921, 181.772 
	L 45.638, 181.702 
	L 45.567, 181.702 
" />
<path d="M 45.567, 181.702 
" />
<path d="M 45.851, 181.772 
	L 45.850, 181.772 
	L 50.032, 177.591 
" />
<path d="M 50.245, 177.803 
	L 50.244, 177.804 
	L 46.063, 181.985 
" />
<path d="M 46.064, 182.409 
	L 46.063, 182.410 
	L 50.457, 178.016 
" />
<path d="M 50.599, 178.228 
	L 50.598, 178.229 
	L 46.063, 182.765 
" />
<path d="M 46.064, 183.189 
	L 46.063, 183.190 
	L 50.811, 178.442 
" />
<path d="M 50.953, 178.654 
	L 50.953, 178.654 
	L 46.063, 183.615 
" />
<path d="M 46.064, 183.969 
	L 46.063, 183.969 
	L 51.165, 178.867 
" />
<path d="M 51.308, 179.150 
	L 51.307, 179.150 
	L 46.063, 184.394 
" />
<path d="M 46.064, 184.819 
	L 46.063, 184.820 
	L 51.449, 179.434 
" />
<path d="M 51.591, 179.646 
	L 51.591, 179.646 
	L 46.063, 185.245 
" />
<path d="M 46.064, 185.598 
	L 46.063, 185.599 
	L 51.732, 179.930 
" />
<path d="M 51.804, 180.213 
	L 51.803, 180.213 
	L 46.063, 186.024 
" />
<path d="M 45.993, 186.449 
	L 45.992, 186.450 
	L 51.945, 180.568 
" />
<path d="M 52.016, 180.850 
	L 52.016, 180.851 
	L 43.866, 189.001 
" />
<path d="M 44.150, 189.142 
	L 44.150, 189.142 
	L 52.087, 181.205 
" />
<path d="M 52.158, 181.488 
	L 52.157, 181.489 
	L 44.504, 189.142 
" />
<path d="M 44.859, 189.213 
	L 44.858, 189.213 
	L 52.228, 181.843 
" />
<path d="M 52.229, 182.268 
	L 52.228, 182.268 
	L 45.283, 189.284 
" />
<path d="M 45.639, 189.283 
	L 45.638, 189.284 
	L 52.228, 182.623 
" />
<path d="M 52.229, 183.047 
	L 52.228, 183.048 
	L 46.063, 189.213 
" />
<path d="M 46.489, 189.213 
	L 46.488, 189.213 
	L 52.228, 183.544 
" />
<path d="M 52.087, 184.039 
	L 52.087, 184.040 
	L 46.984, 189.142 
" />
<path d="M 47.552, 188.929 
	L 47.551, 188.930 
	L 51.945, 184.536 
" />
<path d="M 51.733, 185.244 
	L 51.732, 185.245 
	L 48.189, 188.717 
" />
<path d="M 49.040, 188.291 
	L 49.039, 188.292 
	L 51.307, 186.024 
" />
<path d="M 45.780, 186.661 
	L 45.780, 186.662 
	L 43.512, 188.930 
" />
<path d="M 43.229, 188.858 
	L 43.228, 188.859 
	L 45.354, 186.662 
" />
<path d="M 45.142, 186.520 
	L 45.142, 186.520 
	L 42.945, 188.717 
" />
<path d="M 42.662, 188.575 
	L 42.661, 188.576 
	L 45.142, 186.166 
" />
<path d="M 45.142, 185.740 
	L 45.142, 185.741 
	L 42.378, 188.434 
" />
<path d="M 42.166, 188.291 
	L 42.165, 188.292 
	L 45.142, 185.316 
" />
<path d="M 45.142, 184.890 
	L 45.142, 184.891 
	L 41.882, 188.150 
" />
<path d="M 41.670, 188.008 
	L 41.669, 188.009 
	L 45.142, 184.536 
" />
<path d="M 45.142, 184.110 
	L 45.142, 184.111 
	L 41.457, 187.796 
" />
<path d="M 41.174, 187.654 
	L 41.173, 187.654 
	L 45.142, 183.686 
" />
<path d="M 45.142, 183.260 
	L 45.142, 183.261 
	L 40.961, 187.442 
" />
<path d="M 40.820, 187.228 
	L 40.819, 187.229 
	L 45.142, 182.906 
" />
<path d="M 35.859, 149.386 
	L 35.858, 149.387 
	L 24.094, 144.284 
" />
<path d="M 24.095, 144.000 
	L 24.094, 144.001 
	L 36.000, 149.174 
" />
<path d="M 36.142, 148.961 
	L 36.142, 148.961 
	L 36.780, 147.828 
	L 37.205, 146.552 
	L 37.346, 145.276 
	L 37.276, 143.930 
	L 36.850, 142.725 
	L 36.283, 141.520 
	L 35.504, 140.528 
	L 34.512, 139.678 
	L 33.307, 139.040 
	L 32.102, 138.615 
" />
<path d="M 32.102, 138.615 
	L 30.827, 138.473 
	L 29.480, 138.615 
	L 28.205, 138.969 
	L 27.071, 139.536 
	L 26.008, 140.316 
	L 25.228, 141.379 
	L 24.591, 142.513 
	L 24.165, 143.717 
	L 24.024, 145.064 
	L 24.094, 146.339 
	L 24.449, 147.615 
" />
<path d="M 24.449, 147.615 
	L 25.087, 148.749 
	L 25.866, 149.812 
	L 26.858, 150.662 
	L 27.992, 151.229 
	L 29.268, 151.654 
	L 30.543, 151.796 
	L 31.890, 151.725 
	L 33.094, 151.371 
	L 34.299, 150.733 
	L 35.291, 149.953 
	L 36.142, 148.961 
" />
<path d="M 36.142, 148.961 
" />
<path d="M 36.213, 148.890 
	L 36.213, 148.890 
	L 24.165, 143.717 
" />
<path d="M 24.237, 143.433 
	L 24.236, 143.434 
	L 36.354, 148.678 
" />
<path d="M 36.497, 148.394 
	L 36.496, 148.394 
	L 30.402, 145.772 
	L 34.299, 144.213 
	L 34.512, 144.001 
	L 34.512, 143.646 
	L 34.512, 143.576 
	L 34.299, 143.363 
	L 33.945, 143.363 
	L 30.047, 144.922 
	L 29.835, 145.135 
	L 29.835, 145.418 
" />
<path d="M 29.835, 145.418 
	L 29.835, 145.489 
	L 30.047, 145.772 
	L 30.402, 145.772 
" />
<path d="M 30.757, 145.630 
	L 30.756, 145.631 
	L 36.638, 148.182 
" />
<path d="M 36.780, 147.898 
	L 36.780, 147.898 
	L 31.110, 145.489 
" />
<path d="M 31.536, 145.346 
	L 31.535, 145.347 
	L 36.850, 147.615 
" />
<path d="M 36.993, 147.402 
	L 36.992, 147.402 
	L 31.890, 145.135 
" />
<path d="M 32.245, 144.992 
	L 32.244, 144.993 
	L 37.063, 147.119 
" />
<path d="M 37.135, 146.835 
	L 37.134, 146.835 
	L 32.598, 144.851 
" />
<path d="M 33.024, 144.709 
	L 33.024, 144.709 
	L 37.205, 146.552 
" />
<path d="M 37.276, 146.268 
	L 37.276, 146.268 
	L 33.378, 144.568 
" />
<path d="M 33.733, 144.425 
	L 33.732, 144.426 
	L 37.276, 145.985 
" />
<path d="M 37.347, 145.630 
	L 37.346, 145.631 
	L 34.157, 144.284 
" />
<path d="M 34.442, 144.071 
	L 34.441, 144.072 
	L 37.346, 145.347 
" />
<path d="M 37.347, 145.063 
	L 37.346, 145.064 
	L 34.583, 143.859 
" />
<path d="M 34.442, 143.433 
	L 34.441, 143.434 
	L 37.346, 144.709 
" />
<path d="M 37.276, 144.425 
	L 37.276, 144.426 
	L 26.717, 139.820 
" />
<path d="M 26.434, 139.961 
	L 26.433, 139.961 
	L 34.157, 143.292 
" />
<path d="M 33.733, 143.433 
	L 33.732, 143.434 
	L 26.220, 140.174 
" />
<path d="M 26.009, 140.386 
	L 26.008, 140.387 
	L 33.307, 143.576 
" />
<path d="M 32.953, 143.787 
	L 32.953, 143.788 
	L 25.795, 140.670 
" />
<path d="M 25.583, 140.882 
	L 25.583, 140.883 
	L 32.598, 143.930 
" />
<path d="M 32.174, 144.071 
	L 32.173, 144.072 
	L 25.370, 141.095 
" />
<path d="M 25.229, 141.307 
	L 25.228, 141.308 
	L 31.819, 144.213 
" />
<path d="M 31.465, 144.354 
	L 31.465, 144.355 
	L 25.016, 141.591 
" />
<path d="M 24.875, 141.803 
	L 24.874, 141.804 
	L 31.039, 144.497 
" />
<path d="M 30.686, 144.638 
	L 30.685, 144.639 
	L 24.732, 142.087 
" />
<path d="M 24.662, 142.299 
	L 24.661, 142.300 
	L 30.331, 144.780 
" />
<path d="M 29.977, 144.921 
	L 29.976, 144.922 
	L 24.520, 142.583 
" />
<path d="M 24.379, 142.866 
	L 24.378, 142.867 
	L 29.764, 145.205 
" />
<path d="M 29.835, 145.559 
	L 29.835, 145.560 
	L 24.307, 143.150 
" />
<path d="M 24.024, 144.567 
	L 24.024, 144.568 
	L 35.646, 149.599 
" />
<path d="M 35.434, 149.811 
	L 35.433, 149.812 
	L 24.024, 144.851 
" />
<path d="M 24.024, 145.205 
	L 24.024, 145.205 
	L 35.220, 150.024 
" />
<path d="M 34.938, 150.236 
	L 34.937, 150.237 
	L 24.024, 145.489 
" />
<path d="M 24.024, 145.843 
	L 24.024, 145.843 
	L 34.724, 150.450 
" />
<path d="M 34.442, 150.661 
	L 34.441, 150.662 
	L 24.094, 146.127 
" />
<path d="M 24.166, 146.480 
	L 24.165, 146.481 
	L 34.157, 150.804 
" />
<path d="M 33.875, 151.016 
	L 33.874, 151.016 
	L 24.236, 146.835 
" />
<path d="M 24.308, 147.189 
	L 24.307, 147.190 
	L 33.520, 151.158 
" />
<path d="M 33.166, 151.370 
	L 33.165, 151.371 
	L 24.449, 147.544 
" />
<path d="M 24.662, 147.969 
	L 24.661, 147.969 
	L 32.740, 151.513 
" />
<path d="M 32.316, 151.583 
	L 32.315, 151.583 
	L 24.803, 148.324 
" />
<path d="M 25.087, 148.748 
	L 25.087, 148.749 
	L 31.819, 151.725 
" />
<path d="M 31.324, 151.795 
	L 31.323, 151.796 
	L 25.370, 149.245 
" />
<path d="M 25.796, 149.740 
	L 25.795, 149.741 
	L 30.685, 151.796 
" />
<path d="M 29.835, 151.724 
	L 29.835, 151.725 
	L 26.433, 150.308 
" />
<path d="M 27.426, 148.677 
	L 27.425, 148.678 
	L 28.276, 149.316 
	L 29.268, 149.741 
	L 30.331, 149.953 
	L 31.394, 149.953 
	L 32.457, 149.670 
	L 33.378, 149.103 
	L 34.228, 148.394 
	L 34.866, 147.544 
	L 35.291, 146.552 
	L 35.504, 145.489 
" />
<path d="M 35.504, 145.489 
	L 35.433, 144.426 
	L 35.150, 143.363 
	L 34.654, 142.442 
	L 33.945, 141.591 
	L 33.094, 140.953 
	L 32.102, 140.528 
	L 31.039, 140.316 
	L 29.976, 140.387 
	L 28.913, 140.670 
	L 27.921, 141.166 
	L 27.142, 141.875 
" />
<path d="M 27.142, 141.875 
	L 26.504, 142.725 
	L 26.079, 143.717 
	L 25.866, 144.780 
	L 25.866, 145.843 
	L 26.150, 146.906 
	L 26.717, 147.898 
	L 27.425, 148.678 
" />
<path d="M 27.284, 139.394 
	L 27.283, 139.394 
	L 37.205, 143.717 
" />
<path d="M 37.135, 143.362 
	L 37.134, 143.363 
	L 27.567, 139.253 
" />
<path d="M 27.922, 139.039 
	L 27.921, 139.040 
	L 36.992, 143.009 
" />
<path d="M 36.851, 142.654 
	L 36.850, 142.654 
	L 28.276, 138.898 
" />
<path d="M 28.702, 138.756 
	L 28.701, 138.757 
	L 36.709, 142.229 
" />
<path d="M 36.497, 141.874 
	L 36.496, 141.875 
	L 29.126, 138.686 
" />
<path d="M 29.623, 138.543 
	L 29.622, 138.544 
	L 36.213, 141.450 
" />
<path d="M 35.859, 140.953 
	L 35.858, 140.953 
	L 30.189, 138.473 
" />
<path d="M 30.898, 138.472 
	L 30.898, 138.473 
	L 35.433, 140.457 
" />
<path d="M 34.725, 139.819 
	L 34.724, 139.820 
	L 31.819, 138.544 
" />
<path d="M 27.001, 139.606 
	L 27.000, 139.607 
	L 37.276, 144.072 
" />
<path d="M 20.198, 141.449 
	L 20.197, 141.450 
	L 21.047, 140.599 
	L 21.472, 139.749 
" />
<path d="M 20.198, 141.449 
	L 20.197, 141.450 
	L 18.850, 141.946 
	L 18.000, 141.946 
	L 17.150, 141.450 
	L 16.299, 140.599 
	L 15.803, 139.749 
	L 15.378, 138.402 
	L 15.378, 136.205 
	L 15.803, 134.930 
	L 16.299, 134.079 
	L 17.150, 133.158 
" />
<path d="M 17.150, 133.158 
	L 18.000, 132.733 
	L 16.724, 133.158 
	L 15.803, 134.079 
	L 15.378, 134.930 
	L 14.953, 136.205 
	L 14.953, 138.402 
	L 15.378, 139.749 
	L 15.803, 140.599 
	L 16.724, 141.450 
	L 18.000, 141.946 
" />
<path d="M 18.001, 132.732 
	L 18.000, 132.733 
	L 18.850, 132.733 
	L 20.197, 133.158 
	L 21.047, 134.079 
	L 21.472, 135.355 
	L 21.472, 132.733 
	L 21.047, 134.079 
" />
<path d="M 23.599, 175.394 
	L 23.598, 175.394 
	L 30.898, 169.654 
" />
<path d="M 34.229, 167.032 
	L 34.228, 167.032 
	L 41.032, 161.717 
" />
<path d="M 44.363, 159.024 
	L 44.362, 159.024 
	L 51.094, 153.709 
" />
<path d="M 54.497, 151.016 
	L 54.496, 151.016 
	L 61.228, 145.702 
" />
<path d="M 64.631, 143.008 
	L 64.630, 143.009 
	L 71.362, 137.694 
" />
<path d="M 74.694, 135.071 
	L 74.693, 135.072 
	L 81.496, 129.686 
" />
<path d="M 84.827, 127.063 
	L 84.827, 127.064 
	L 91.559, 121.749 
" />
<path d="M 94.961, 119.055 
	L 94.961, 119.056 
	L 101.693, 113.741 
" />
<path d="M 105.095, 111.047 
	L 105.095, 111.048 
	L 111.827, 105.733 
" />
<path d="M 115.229, 103.110 
	L 115.228, 103.111 
	L 121.961, 97.725 
" />
<path d="M 125.292, 95.102 
	L 125.291, 95.103 
	L 132.591, 89.363 
" />
<path d="M 123.591, 88.299 
	L 123.591, 88.300 
	L 120.969, 88.300 
" />
<path d="M 122.245, 88.299 
	L 122.244, 88.300 
	L 119.622, 80.434 
" />
<path d="M 119.623, 79.157 
	L 119.622, 79.158 
	L 116.575, 88.300 
" />
<path d="M 115.725, 88.299 
	L 115.724, 88.300 
	L 118.346, 88.300 
" />
<path d="M 117.426, 85.677 
	L 117.425, 85.678 
	L 121.394, 85.678 
" />
<path d="M 122.670, 88.299 
	L 122.669, 88.300 
	L 119.622, 79.158 
" />
<path d="M 133.938, 79.512 
	L 133.937, 79.513 
	L 150.449, 100.489 
" />
<path d="M 150.591, 102.402 
	L 150.591, 102.402 
	L 150.591, 111.544 
" />
<path d="M 151.016, 111.543 
	L 151.016, 111.544 
	L 151.016, 102.402 
" />
<path d="M 149.316, 102.402 
	L 149.315, 102.402 
	L 154.559, 102.402 
	L 155.835, 102.827 
	L 156.260, 103.253 
	L 156.685, 104.174 
	L 156.685, 105.024 
	L 156.260, 105.875 
	L 155.835, 106.300 
	L 154.559, 106.796 
	L 155.835, 107.221 
" />
<path d="M 155.835, 107.221 
	L 156.260, 107.646 
	L 156.685, 108.497 
	L 156.685, 109.843 
	L 156.260, 110.694 
	L 155.835, 111.119 
	L 154.559, 111.544 
	L 149.315, 111.544 
" />
<path d="M 149.953, 109.843 
	L 149.953, 109.843 
	L 155.339, 116.576 
" />
<path d="M 155.410, 111.118 
	L 155.409, 111.119 
	L 154.559, 111.544 
" />
<path d="M 155.410, 111.118 
	L 155.409, 111.119 
	L 155.835, 110.694 
	L 156.260, 109.843 
	L 156.260, 108.497 
	L 155.835, 107.646 
	L 155.409, 107.221 
	L 154.559, 106.796 
	L 155.409, 106.300 
	L 155.835, 105.875 
	L 156.260, 105.024 
" />
<path d="M 156.260, 105.024 
	L 156.260, 104.174 
	L 155.835, 103.253 
	L 155.409, 102.827 
	L 154.559, 102.402 
" />
<path d="M 154.560, 106.795 
	L 154.559, 106.796 
	L 151.016, 106.796 
" />
<path d="M 147.331, 106.512 
	L 147.331, 106.513 
	L 141.591, 99.213 
" />
<path d="M 141.591, 99.000 
	L 141.591, 99.001 
	L 140.598, 99.922 
" />
<path d="M 140.599, 99.850 
	L 140.598, 99.851 
	L 140.740, 100.135 
	L 141.024, 100.276 
	L 141.095, 100.276 
	L 141.378, 100.205 
	L 141.520, 99.851 
	L 141.024, 100.276 
" />
<path d="M 140.741, 100.205 
	L 140.740, 100.205 
	L 141.520, 99.426 
" />
<path d="M 141.520, 99.850 
	L 141.520, 99.851 
	L 141.661, 95.670 
	L 141.591, 95.387 
	L 141.236, 95.245 
	L 141.165, 95.245 
	L 140.882, 95.316 
	L 140.740, 95.670 
	L 140.598, 99.851 
" />
<path d="M 140.599, 99.496 
	L 140.598, 99.497 
	L 141.591, 98.646 
" />
<path d="M 141.591, 98.220 
	L 141.591, 98.221 
	L 140.669, 99.072 
" />
<path d="M 140.670, 98.717 
	L 140.669, 98.717 
	L 141.591, 97.796 
" />
<path d="M 141.591, 97.441 
	L 141.591, 97.442 
	L 140.669, 98.292 
" />
<path d="M 140.670, 97.866 
	L 140.669, 97.867 
	L 141.591, 97.016 
" />
<path d="M 141.662, 96.591 
	L 141.661, 96.591 
	L 140.669, 97.513 
" />
<path d="M 140.670, 97.087 
	L 140.669, 97.087 
	L 141.661, 96.166 
" />
<path d="M 141.662, 95.811 
	L 141.661, 95.812 
	L 140.740, 96.662 
" />
<path d="M 140.741, 96.236 
	L 140.740, 96.237 
	L 141.591, 95.457 
" />
<path d="M 141.379, 95.244 
	L 141.378, 95.245 
	L 140.740, 95.883 
" />
<path d="M 141.237, 94.535 
	L 141.236, 94.536 
	L 140.173, 94.607 
	L 139.110, 94.961 
	L 138.189, 95.457 
	L 137.409, 96.237 
	L 136.772, 97.087 
	L 136.417, 98.150 
	L 136.276, 99.213 
	L 136.346, 100.276 
	L 136.630, 101.339 
	L 137.197, 102.261 
" />
<path d="M 137.197, 102.261 
	L 137.976, 103.040 
	L 138.827, 103.678 
	L 139.819, 104.032 
	L 140.953, 104.174 
	L 142.016, 104.103 
	L 143.008, 103.820 
	L 144.000, 103.253 
	L 144.780, 102.473 
	L 145.346, 101.623 
	L 145.772, 100.631 
" />
<path d="M 145.772, 100.631 
	L 145.913, 99.497 
	L 145.843, 98.434 
	L 145.488, 97.442 
	L 144.992, 96.450 
	L 144.213, 95.670 
	L 143.362, 95.103 
	L 142.299, 94.678 
	L 141.236, 94.536 
" />
<path d="M 141.308, 92.693 
	L 141.307, 92.694 
	L 140.032, 92.765 
	L 138.756, 93.119 
	L 137.551, 93.686 
	L 136.559, 94.465 
	L 135.638, 95.457 
	L 135.000, 96.591 
	L 134.575, 97.867 
	L 134.433, 99.142 
	L 134.504, 100.418 
	L 134.858, 101.694 
" />
<path d="M 134.858, 101.694 
	L 135.425, 102.898 
	L 136.205, 103.890 
	L 137.197, 104.812 
	L 138.331, 105.450 
	L 139.535, 105.875 
	L 140.882, 106.016 
	L 142.158, 105.946 
	L 143.433, 105.591 
	L 144.638, 105.024 
	L 145.630, 104.245 
" />
<path d="M 145.630, 104.245 
	L 146.480, 103.253 
	L 147.189, 102.119 
	L 147.614, 100.914 
	L 147.756, 99.568 
	L 147.685, 98.292 
	L 147.331, 97.016 
	L 146.764, 95.812 
	L 145.984, 94.820 
	L 144.992, 93.969 
	L 143.858, 93.261 
" />
<path d="M 143.858, 93.261 
	L 142.583, 92.835 
	L 141.307, 92.694 
" />
<path d="M 138.544, 92.551 
	L 138.543, 92.552 
	L 139.039, 91.347 
	L 139.323, 90.072 
	L 139.323, 88.725 
	L 139.039, 87.450 
	L 138.543, 86.245 
	L 137.835, 85.182 
	L 136.913, 84.261 
	L 135.850, 83.481 
	L 134.646, 82.985 
	L 133.299, 82.772 
" />
<path d="M 133.299, 82.772 
	L 132.024, 82.772 
	L 130.748, 82.985 
	L 129.543, 83.481 
	L 128.409, 84.190 
	L 127.488, 85.111 
	L 126.780, 86.245 
	L 126.283, 87.450 
	L 126.000, 88.725 
	L 126.000, 90.001 
	L 126.283, 91.276 
	L 126.780, 92.481 
" />
<path d="M 126.780, 92.481 
	L 127.488, 93.615 
	L 128.409, 94.536 
	L 129.543, 95.245 
	L 130.748, 95.741 
	L 132.024, 96.024 
	L 133.299, 96.024 
	L 134.575, 95.741 
	L 135.780, 95.245 
	L 136.913, 94.536 
	L 137.835, 93.615 
	L 138.543, 92.552 
" />
<path d="M 138.543, 92.552 
" />
<path d="M 136.276, 92.551 
	L 136.276, 92.552 
	L 136.913, 91.631 
	L 137.339, 90.639 
	L 137.480, 89.576 
	L 137.409, 88.513 
	L 137.126, 87.450 
	L 136.559, 86.528 
	L 135.850, 85.749 
	L 134.929, 85.111 
	L 133.937, 84.686 
	L 132.874, 84.544 
" />
<path d="M 132.874, 84.544 
	L 131.811, 84.615 
	L 130.748, 84.898 
	L 129.827, 85.465 
	L 129.047, 86.174 
	L 128.409, 87.095 
	L 127.984, 88.087 
	L 127.843, 89.150 
	L 127.913, 90.213 
	L 128.197, 91.276 
	L 128.764, 92.198 
	L 129.472, 93.048 
" />
<path d="M 129.472, 93.048 
	L 130.394, 93.615 
	L 131.386, 94.040 
	L 132.449, 94.182 
	L 133.512, 94.111 
	L 134.575, 93.827 
	L 135.496, 93.261 
	L 136.276, 92.552 
" />
<path d="M 133.229, 90.071 
	L 133.228, 90.072 
	L 133.441, 89.859 
	L 133.512, 89.788 
	L 133.512, 89.434 
	L 133.299, 89.221 
	L 133.441, 89.788 
" />
<path d="M 133.229, 90.071 
	L 133.228, 90.072 
	L 132.874, 90.001 
	L 129.189, 88.016 
	L 128.976, 87.804 
	L 128.976, 87.450 
	L 129.047, 87.379 
	L 129.260, 87.166 
	L 129.614, 87.237 
	L 133.299, 89.221 
" />
<path d="M 132.946, 89.008 
	L 132.945, 89.009 
	L 133.228, 90.072 
" />
<path d="M 132.946, 90.071 
	L 132.945, 90.072 
	L 132.591, 88.796 
" />
<path d="M 132.237, 88.583 
	L 132.236, 88.583 
	L 132.591, 89.859 
" />
<path d="M 132.237, 89.646 
	L 132.236, 89.646 
	L 131.882, 88.442 
" />
<path d="M 131.528, 88.228 
	L 131.528, 88.229 
	L 131.882, 89.505 
" />
<path d="M 131.528, 89.291 
	L 131.528, 89.292 
	L 131.173, 88.016 
" />
<path d="M 130.820, 87.874 
	L 130.819, 87.875 
	L 131.173, 89.079 
" />
<path d="M 130.820, 88.866 
	L 130.819, 88.867 
	L 130.394, 87.662 
" />
<path d="M 130.040, 87.449 
	L 130.039, 87.450 
	L 130.465, 88.725 
" />
<path d="M 130.111, 88.512 
	L 130.110, 88.513 
	L 129.685, 87.308 
" />
<path d="M 129.402, 87.165 
	L 129.402, 87.166 
	L 129.756, 88.300 
" />
<path d="M 129.402, 88.157 
	L 129.402, 88.158 
	L 129.118, 87.308 
" />
<path d="M 128.481, 45.780 
	L 128.480, 45.780 
	L 123.661, 45.072 
	L 118.843, 44.646 
	L 113.953, 44.505 
	L 109.063, 44.646 
	L 104.244, 45.072 
	L 99.425, 45.780 
	L 94.606, 46.772 
	L 89.929, 48.048 
	L 85.252, 49.607 
	L 80.717, 51.379 
" />
<path d="M 80.717, 51.379 
	L 76.323, 53.434 
	L 72.000, 55.772 
	L 67.890, 58.324 
	L 63.921, 61.087 
	L 60.094, 64.135 
	L 56.409, 67.394 
	L 52.937, 70.796 
	L 49.748, 74.481 
	L 46.701, 78.308 
	L 43.937, 82.276 
	L 41.315, 86.457 
" />
<path d="M 41.315, 86.457 
	L 39.047, 90.709 
	L 36.992, 95.174 
	L 35.150, 99.709 
	L 33.661, 104.316 
	L 32.386, 108.993 
	L 31.394, 113.812 
	L 30.685, 118.631 
	L 30.260, 123.450 
	L 30.118, 128.339 
	L 30.260, 133.229 
	L 30.685, 138.119 
" />
<path d="M 30.685, 138.119 
	L 31.394, 142.938 
	L 32.386, 147.686 
	L 33.661, 152.434 
	L 35.150, 157.040 
	L 36.992, 161.576 
	L 39.047, 165.969 
	L 41.315, 170.292 
	L 43.937, 174.402 
	L 46.701, 178.442 
	L 49.748, 182.268 
	L 52.937, 185.883 
" />
<path d="M 52.937, 185.883 
	L 56.409, 189.355 
	L 60.094, 192.544 
	L 63.921, 195.591 
	L 67.890, 198.426 
	L 72.000, 200.977 
	L 76.323, 203.245 
	L 80.717, 205.371 
	L 85.252, 207.142 
	L 89.929, 208.702 
	L 94.606, 209.906 
	L 99.425, 210.898 
" />
<path d="M 99.425, 210.898 
	L 104.244, 211.607 
	L 109.063, 212.032 
	L 113.953, 212.174 
	L 118.843, 212.032 
	L 123.661, 211.607 
	L 128.480, 210.898 
	L 133.299, 209.906 
	L 137.976, 208.702 
	L 142.654, 207.142 
	L 147.189, 205.371 
" />
<path d="M 147.189, 205.371 
	L 151.583, 203.245 
	L 155.906, 200.977 
	L 160.016, 198.426 
	L 163.984, 195.591 
	L 167.811, 192.544 
	L 171.496, 189.355 
	L 174.969, 185.883 
	L 178.158, 182.268 
	L 181.205, 178.442 
	L 183.969, 174.402 
" />
<path d="M 183.969, 174.402 
	L 186.591, 170.292 
	L 188.858, 165.969 
	L 190.913, 161.576 
	L 192.756, 157.040 
	L 194.244, 152.434 
	L 195.520, 147.686 
	L 196.512, 142.938 
	L 197.221, 138.119 
	L 197.646, 133.229 
	L 197.787, 128.339 
" />
<path d="M 197.787, 128.339 
	L 197.646, 123.450 
	L 197.221, 118.631 
	L 196.512, 113.812 
	L 195.520, 108.993 
	L 194.244, 104.316 
	L 192.756, 99.709 
	L 190.913, 95.174 
	L 188.858, 90.709 
	L 186.591, 86.457 
	L 183.969, 82.276 
" />
<path d="M 183.969, 82.276 
	L 181.205, 78.308 
	L 178.158, 74.481 
	L 174.969, 70.796 
	L 171.496, 67.394 
	L 167.811, 64.135 
	L 163.984, 61.087 
	L 160.016, 58.324 
	L 155.906, 55.772 
	L 151.583, 53.434 
	L 147.189, 51.379 
	L 142.654, 49.607 
" />
<path d="M 142.654, 49.607 
	L 137.976, 48.048 
	L 133.299, 46.772 
	L 128.480, 45.780 
" />
<path d="M 129.686, 74.764 
	L 129.685, 74.765 
	L 125.858, 73.772 
	L 121.890, 73.064 
	L 117.921, 72.639 
	L 113.953, 72.497 
	L 109.984, 72.639 
	L 106.016, 73.064 
	L 102.047, 73.772 
	L 98.220, 74.765 
	L 94.394, 75.969 
	L 90.709, 77.528 
" />
<path d="M 90.709, 77.528 
	L 87.165, 79.300 
	L 83.764, 81.355 
	L 80.433, 83.623 
	L 77.315, 86.103 
	L 74.409, 88.867 
	L 71.717, 91.772 
	L 69.236, 94.890 
	L 66.898, 98.150 
	L 64.913, 101.552 
	L 63.142, 105.166 
	L 61.583, 108.851 
" />
<path d="M 61.583, 108.851 
	L 60.307, 112.607 
	L 59.315, 116.505 
	L 58.606, 120.402 
	L 58.181, 124.371 
	L 58.039, 128.339 
	L 58.181, 132.379 
	L 58.606, 136.276 
	L 59.315, 140.245 
	L 60.307, 144.072 
	L 61.583, 147.898 
	L 63.142, 151.583 
" />
<path d="M 63.142, 151.583 
	L 64.913, 155.127 
	L 66.898, 158.599 
	L 69.236, 161.859 
	L 71.717, 164.977 
	L 74.409, 167.883 
	L 77.315, 170.576 
	L 80.433, 173.127 
	L 83.764, 175.394 
	L 87.165, 177.379 
	L 90.709, 179.221 
	L 94.394, 180.709 
" />
<path d="M 94.394, 180.709 
	L 98.220, 181.985 
	L 102.047, 182.977 
	L 106.016, 183.686 
	L 109.984, 184.111 
	L 113.953, 184.253 
	L 117.921, 184.111 
	L 121.890, 183.686 
	L 125.858, 182.977 
	L 129.685, 181.985 
	L 133.512, 180.709 
" />
<path d="M 133.512, 180.709 
	L 137.197, 179.221 
	L 140.740, 177.379 
	L 144.142, 175.394 
	L 147.472, 173.127 
	L 150.591, 170.576 
	L 153.496, 167.883 
	L 156.189, 164.977 
	L 158.669, 161.859 
	L 161.008, 158.599 
	L 162.992, 155.127 
" />
<path d="M 162.992, 155.127 
	L 164.764, 151.583 
	L 166.323, 147.898 
	L 167.598, 144.072 
	L 168.591, 140.245 
	L 169.299, 136.276 
	L 169.724, 132.379 
	L 169.866, 128.339 
	L 169.724, 124.371 
	L 169.299, 120.402 
	L 168.591, 116.505 
" />
<path d="M 168.591, 116.505 
	L 167.598, 112.607 
	L 166.323, 108.851 
	L 164.764, 105.166 
	L 162.992, 101.552 
	L 161.008, 98.150 
	L 158.669, 94.890 
	L 156.189, 91.772 
	L 153.496, 88.867 
	L 150.591, 86.103 
	L 147.472, 83.623 
" />
<path d="M 147.472, 83.623 
	L 144.142, 81.355 
	L 140.740, 79.300 
	L 137.197, 77.528 
	L 133.512, 75.969 
	L 129.685, 74.765 
" />
<path d="M 129.473, 105.095 
	L 129.472, 105.095 
	L 127.134, 103.678 
	L 124.654, 102.544 
	L 122.032, 101.623 
	L 119.409, 100.914 
	L 116.717, 100.560 
	L 113.953, 100.418 
	L 111.189, 100.560 
	L 108.496, 100.914 
	L 105.874, 101.623 
" />
<path d="M 105.874, 101.623 
	L 103.252, 102.544 
	L 100.772, 103.678 
	L 98.433, 105.095 
	L 96.236, 106.725 
	L 94.181, 108.568 
	L 92.339, 110.623 
	L 90.709, 112.820 
	L 89.291, 115.158 
	L 88.157, 117.639 
	L 87.236, 120.261 
" />
<path d="M 87.236, 120.261 
	L 86.528, 122.883 
	L 86.173, 125.646 
	L 86.032, 128.339 
	L 86.173, 131.103 
	L 86.528, 133.796 
	L 87.236, 136.489 
	L 88.157, 139.040 
	L 89.291, 141.520 
	L 90.709, 143.859 
	L 92.339, 146.056 
	L 94.181, 148.111 
" />
<path d="M 94.181, 148.111 
	L 96.236, 149.953 
	L 98.433, 151.583 
	L 100.772, 153.001 
	L 103.252, 154.205 
	L 105.874, 155.127 
	L 108.496, 155.765 
	L 111.189, 156.190 
	L 113.953, 156.331 
	L 116.717, 156.190 
	L 119.409, 155.765 
" />
<path d="M 119.409, 155.765 
	L 122.032, 155.127 
	L 124.654, 154.205 
	L 127.134, 153.001 
	L 129.472, 151.583 
	L 131.669, 149.953 
	L 133.724, 148.111 
	L 135.567, 146.056 
	L 137.197, 143.859 
	L 138.614, 141.520 
	L 139.748, 139.040 
" />
<path d="M 139.748, 139.040 
	L 140.669, 136.489 
	L 141.378, 133.796 
	L 141.732, 131.103 
	L 141.874, 128.339 
	L 141.732, 125.646 
	L 141.378, 122.883 
	L 140.669, 120.261 
	L 139.748, 117.639 
	L 138.614, 115.158 
	L 137.197, 112.820 
" />
<path d="M 137.197, 112.820 
	L 135.567, 110.623 
	L 133.724, 108.568 
	L 131.669, 106.725 
	L 129.472, 105.095 
" />
<path d="M 118.914, 123.449 
	L 118.913, 123.450 
	L 117.850, 122.528 
	L 116.646, 121.890 
	L 115.299, 121.536 
	L 113.953, 121.394 
	L 112.606, 121.536 
	L 111.260, 121.890 
	L 110.055, 122.528 
	L 108.992, 123.450 
	L 108.142, 124.442 
" />
<path d="M 108.142, 124.442 
	L 107.504, 125.717 
	L 107.079, 126.993 
	L 106.937, 128.339 
	L 107.079, 129.686 
	L 107.504, 131.032 
	L 108.142, 132.237 
	L 108.992, 133.300 
	L 110.055, 134.150 
	L 111.260, 134.788 
	L 112.606, 135.213 
" />
<path d="M 112.606, 135.213 
	L 113.953, 135.355 
	L 115.299, 135.213 
	L 116.646, 134.788 
	L 117.850, 134.150 
	L 118.913, 133.300 
	L 119.764, 132.237 
	L 120.402, 131.032 
	L 120.827, 129.686 
	L 120.969, 128.339 
	L 120.827, 126.993 
" />
<path d="M 120.827, 126.993 
	L 120.402, 125.717 
	L 119.764, 124.442 
	L 118.913, 123.450 
" />
<path d="M 157.961, 119.976 
	L 157.961, 119.977 
	L 163.276, 126.709 
" />
<path d="M 165.969, 130.110 
	L 165.969, 130.111 
	L 171.283, 136.843 
" />
<path d="M 173.977, 140.173 
	L 173.976, 140.174 
	L 179.291, 146.977 
" />
<path d="M 181.985, 150.307 
	L 181.984, 150.308 
	L 187.299, 157.040 
" />
<path d="M 189.922, 160.441 
	L 189.921, 160.442 
	L 195.307, 167.174 
" />
<path d="M 197.930, 170.575 
	L 197.929, 170.576 
	L 203.244, 177.308 
" />
<path d="M 205.938, 180.638 
	L 205.937, 180.639 
	L 211.677, 187.938 
" />
<path d="M 218.765, 220.039 
	L 218.764, 220.040 
	L 218.764, 0.001 
" />
<path d="M 113.953, 0.000 
	L 113.953, 0.001 
	L 113.953, 220.040 
" />
<path d="M 39.757, 198.071 
	L 39.756, 198.072 
	L 38.906, 198.922 
	L 37.559, 199.347 
	L 33.165, 199.347 
" />
<path d="M 34.513, 199.346 
	L 34.512, 199.347 
	L 34.512, 190.205 
" />
<path d="M 34.938, 190.205 
	L 34.937, 190.205 
	L 34.937, 199.347 
" />
<path d="M 37.560, 199.346 
	L 37.559, 199.347 
	L 38.409, 198.922 
	L 39.331, 198.072 
	L 39.756, 197.221 
	L 40.181, 195.875 
	L 40.181, 193.678 
	L 39.756, 192.402 
	L 39.331, 191.552 
	L 38.409, 190.631 
	L 37.559, 190.205 
	L 38.906, 190.631 
" />
<path d="M 38.906, 190.631 
	L 39.756, 191.552 
	L 40.181, 192.402 
	L 40.606, 193.678 
	L 40.606, 195.875 
	L 40.181, 197.221 
	L 39.756, 198.072 
" />
<path d="M 37.560, 190.205 
	L 37.559, 190.205 
	L 33.165, 190.205 
" />
<path d="M 9.142, 220.039 
	L 9.142, 220.040 
	L 9.142, 0.001 
" />
<path d="M 0.001, 128.339 
	L 0.000, 128.339 
	L 227.906, 128.339 
" />
<path d="M 227.906, 212.173 
	L 227.906, 212.174 
	L 0.000, 212.174 
" />
</g><g style="stroke:rgb(255,255,255); fill:none; stroke-width:0.100mm" >
</g>
</svg>
