<?xml version="1.0" encoding="UTF-8" standalone="no" ?>
<svg width="100%" height="100%" viewBox="0 0 31.111 110.056" xmlns="http://www.w3.org/2000/svg"><g>
</g><g style="stroke:rgb(0,0,0); fill:none; stroke-width:1.000mm" >
</g><g style="stroke:rgb(0,0,0); fill:none; stroke-width:0.100mm" >
<path d="M 30.048, 27.425 
	L 30.047, 27.426 
	L 29.906, 26.009 
	L 29.551, 24.591 
	L 28.913, 23.316 
	L 28.134, 22.111 
	L 27.071, 21.119 
	L 25.937, 20.268 
	L 24.591, 19.631 
	L 23.173, 19.276 
	L 21.756, 19.135 
	L 20.339, 19.276 
" />
<path d="M 20.339, 19.276 
	L 18.921, 19.631 
	L 17.646, 20.268 
	L 16.441, 21.119 
	L 15.449, 22.111 
	L 14.598, 23.316 
	L 13.961, 24.591 
	L 13.606, 26.009 
	L 13.465, 27.426 
	L 13.606, 28.914 
	L 13.961, 30.261 
	L 14.598, 31.607 
" />
<path d="M 14.598, 31.607 
	L 15.449, 32.812 
	L 16.441, 33.804 
	L 17.646, 34.654 
	L 18.921, 35.221 
	L 20.339, 35.646 
	L 21.756, 35.717 
	L 23.173, 35.646 
	L 24.591, 35.221 
	L 25.937, 34.654 
	L 27.071, 33.804 
	L 28.134, 32.812 
" />
<path d="M 28.134, 32.812 
	L 28.913, 31.607 
	L 29.551, 30.261 
	L 29.906, 28.914 
	L 30.047, 27.426 
" />
<path d="M 17.646, 26.717 
	L 17.646, 26.717 
	L 17.646, 22.465 
" />
<path d="M 17.646, 20.339 
	L 17.646, 20.339 
	L 17.646, 16.087 
" />
<path d="M 17.646, 13.890 
	L 17.646, 13.890 
	L 17.646, 9.639 
" />
<path d="M 17.646, 7.512 
	L 17.646, 7.513 
	L 17.646, 3.261 
" />
<path d="M 17.646, 1.134 
	L 17.646, 1.135 
	L 17.646, -1.062 
" />
<path d="M 13.465, -1.063 
	L 13.465, -1.062 
	L 13.465, 1.135 
" />
<path d="M 13.465, 3.260 
	L 13.465, 3.261 
	L 13.465, 7.513 
" />
<path d="M 13.465, 9.638 
	L 13.465, 9.639 
	L 13.465, 13.890 
" />
<path d="M 13.465, 16.087 
	L 13.465, 16.087 
	L 13.465, 20.339 
" />
<path d="M 13.465, 22.465 
	L 13.465, 22.465 
	L 13.465, 26.717 
" />
<path d="M 13.465, 28.843 
	L 13.465, 28.843 
	L 13.465, 33.166 
" />
<path d="M 13.465, 35.291 
	L 13.465, 35.292 
	L 13.465, 39.544 
" />
<path d="M 13.465, 41.669 
	L 13.465, 41.670 
	L 13.465, 45.993 
" />
<path d="M 13.465, 48.118 
	L 13.465, 48.119 
	L 13.465, 52.371 
" />
<path d="M 13.465, 54.496 
	L 13.465, 54.497 
	L 13.465, 58.749 
" />
<path d="M 13.465, 60.945 
	L 13.465, 60.946 
	L 13.465, 65.198 
" />
<path d="M 13.465, 67.323 
	L 13.465, 67.324 
	L 13.465, 71.576 
" />
<path d="M 13.465, 73.772 
	L 13.465, 73.772 
	L 13.465, 78.024 
" />
<path d="M 13.465, 80.150 
	L 13.465, 80.150 
	L 13.465, 84.402 
" />
<path d="M 13.465, 86.528 
	L 13.465, 86.528 
	L 13.465, 90.851 
" />
<path d="M 13.465, 90.142 
	L 13.465, 90.142 
	L 13.606, 91.560 
	L 13.961, 92.977 
	L 14.598, 94.253 
	L 15.449, 95.457 
	L 16.441, 96.450 
	L 17.646, 97.300 
	L 18.921, 97.938 
	L 20.339, 98.292 
	L 21.756, 98.434 
	L 23.173, 98.292 
" />
<path d="M 23.173, 98.292 
	L 24.591, 97.938 
	L 25.937, 97.300 
	L 27.071, 96.450 
	L 28.134, 95.457 
	L 28.913, 94.253 
	L 29.551, 92.977 
	L 29.906, 91.560 
	L 30.047, 90.142 
	L 29.906, 88.654 
	L 29.551, 87.308 
	L 28.913, 85.961 
" />
<path d="M 28.913, 85.961 
	L 28.134, 84.757 
	L 27.071, 83.765 
	L 25.937, 82.914 
	L 24.591, 82.347 
	L 23.173, 81.922 
	L 21.756, 81.851 
	L 20.339, 81.922 
	L 18.921, 82.347 
	L 17.646, 82.914 
	L 16.441, 83.765 
	L 15.449, 84.757 
" />
<path d="M 15.449, 84.757 
	L 14.598, 85.961 
	L 13.961, 87.308 
	L 13.606, 88.654 
	L 13.465, 90.142 
" />
<path d="M 13.465, 92.976 
	L 13.465, 92.977 
	L 13.465, 97.229 
" />
<path d="M 13.465, 99.354 
	L 13.465, 99.355 
	L 13.465, 101.481 
" />
<path d="M 17.646, 101.480 
	L 17.646, 101.481 
	L 17.646, 99.355 
" />
<path d="M 17.646, 97.228 
	L 17.646, 97.229 
	L 17.646, 92.977 
" />
<path d="M 17.646, 90.850 
	L 17.646, 90.851 
	L 17.646, 86.528 
" />
<path d="M 17.646, 84.402 
	L 17.646, 84.402 
	L 17.646, 80.150 
" />
<path d="M 17.646, 78.024 
	L 17.646, 78.024 
	L 17.646, 73.772 
" />
<path d="M 17.646, 71.575 
	L 17.646, 71.576 
	L 17.646, 67.324 
" />
<path d="M 17.646, 65.197 
	L 17.646, 65.198 
	L 17.646, 60.946 
" />
<path d="M 17.646, 58.748 
	L 17.646, 58.749 
	L 17.646, 54.497 
" />
<path d="M 17.646, 52.370 
	L 17.646, 52.371 
	L 17.646, 48.119 
" />
<path d="M 17.646, 45.992 
	L 17.646, 45.993 
	L 17.646, 41.670 
" />
<path d="M 17.646, 39.543 
	L 17.646, 39.544 
	L 17.646, 35.292 
" />
<path d="M 17.646, 33.165 
	L 17.646, 33.166 
	L 17.646, 28.843 
" />
<path d="M 8.930, 106.370 
	L 8.929, 106.371 
	L 8.929, 108.284 
" />
<path d="M 9.072, 108.283 
	L 9.071, 108.284 
	L 9.071, 106.371 
" />
<path d="M 9.213, 106.795 
	L 9.213, 106.796 
	L 9.071, 107.221 
" />
<path d="M 9.213, 106.795 
	L 9.213, 106.796 
	L 9.425, 106.513 
	L 9.709, 106.371 
	L 10.134, 106.371 
	L 10.276, 106.513 
	L 10.276, 106.654 
	L 10.134, 106.796 
	L 9.992, 106.654 
	L 10.134, 106.513 
" />
<path d="M 9.072, 106.370 
	L 9.071, 106.371 
	L 8.504, 106.371 
" />
<path d="M 7.300, 106.512 
	L 7.299, 106.513 
	L 7.441, 106.654 
	L 7.583, 106.938 
	L 7.583, 107.859 
	L 7.724, 108.142 
	L 7.866, 108.284 
	L 7.937, 108.284 
" />
<path d="M 7.867, 108.283 
	L 7.866, 108.284 
	L 7.583, 108.142 
	L 7.441, 107.859 
	L 7.157, 108.142 
	L 6.874, 108.284 
	L 6.449, 108.284 
	L 6.236, 108.142 
	L 6.094, 107.859 
	L 6.094, 107.646 
	L 6.236, 107.363 
	L 6.449, 107.221 
" />
<path d="M 6.449, 107.221 
	L 6.094, 107.363 
	L 5.953, 107.646 
	L 5.953, 107.859 
	L 6.094, 108.142 
	L 6.449, 108.284 
" />
<path d="M 6.450, 107.220 
	L 6.449, 107.221 
	L 7.299, 107.079 
	L 7.441, 106.938 
" />
<path d="M 7.442, 106.654 
	L 7.441, 106.654 
	L 7.441, 107.859 
" />
<path d="M 8.505, 108.283 
	L 8.504, 108.284 
	L 9.425, 108.284 
" />
<path d="M 11.339, 108.142 
	L 11.339, 108.142 
	L 11.622, 108.284 
	L 11.906, 108.284 
	L 12.189, 108.142 
	L 12.331, 107.859 
" />
<path d="M 13.111, 107.858 
	L 13.110, 107.859 
	L 13.394, 108.142 
	L 13.819, 108.284 
	L 14.031, 108.284 
	L 14.457, 108.142 
	L 14.740, 107.859 
" />
<path d="M 14.741, 107.220 
	L 14.740, 107.221 
	L 14.740, 106.938 
	L 14.598, 106.654 
	L 14.457, 106.513 
	L 14.173, 106.371 
	L 13.819, 106.371 
	L 13.394, 106.513 
	L 13.110, 106.796 
	L 12.969, 107.221 
	L 12.969, 107.505 
	L 13.110, 107.859 
" />
<path d="M 13.110, 107.859 
" />
<path d="M 13.253, 107.858 
	L 13.252, 107.859 
	L 13.535, 108.142 
	L 13.819, 108.284 
" />
<path d="M 13.253, 107.858 
	L 13.252, 107.859 
	L 13.110, 107.505 
	L 13.110, 107.221 
	L 14.740, 107.221 
" />
<path d="M 14.599, 107.220 
	L 14.598, 107.221 
	L 14.598, 106.796 
	L 14.457, 106.513 
" />
<path d="M 13.820, 106.370 
	L 13.819, 106.371 
	L 13.535, 106.513 
	L 13.252, 106.796 
	L 13.110, 107.221 
" />
<path d="M 11.906, 106.370 
	L 11.906, 106.371 
	L 10.843, 106.371 
" />
<path d="M 11.198, 105.449 
	L 11.197, 105.450 
	L 11.197, 107.717 
	L 11.339, 108.142 
" />
<path d="M 11.481, 108.142 
	L 11.480, 108.142 
	L 11.622, 108.284 
" />
<path d="M 11.481, 108.142 
	L 11.480, 108.142 
	L 11.339, 107.717 
	L 11.339, 105.450 
" />
<path d="M 15.450, 106.370 
	L 15.449, 106.371 
	L 15.945, 106.371 
	L 15.945, 108.284 
" />
<path d="M 15.804, 108.283 
	L 15.803, 108.284 
	L 15.803, 106.371 
" />
<path d="M 16.087, 106.795 
	L 16.087, 106.796 
	L 16.370, 106.513 
	L 16.654, 106.371 
	L 17.079, 106.371 
	L 17.150, 106.513 
	L 17.150, 106.654 
	L 17.079, 106.796 
	L 16.937, 106.654 
	L 17.079, 106.513 
" />
<path d="M 16.087, 106.795 
	L 16.087, 106.796 
	L 15.945, 107.221 
" />
<path d="M 16.371, 108.283 
	L 16.370, 108.284 
	L 15.449, 108.284 
" />
<path d="M 20.552, 108.283 
	L 20.551, 108.284 
	L 21.543, 108.284 
" />
<path d="M 21.119, 108.283 
	L 21.118, 108.284 
	L 21.118, 105.450 
" />
<path d="M 20.977, 105.449 
	L 20.976, 105.450 
	L 20.976, 108.284 
" />
<path d="M 22.465, 108.142 
	L 22.465, 108.142 
	L 22.606, 108.284 
	L 22.890, 108.284 
	L 23.031, 108.001 
	L 23.031, 107.859 
" />
<path d="M 23.032, 108.000 
	L 23.031, 108.001 
	L 22.890, 108.142 
	L 22.748, 108.142 
	L 22.606, 108.001 
	L 22.181, 107.079 
	L 22.039, 106.938 
	L 22.181, 107.221 
	L 22.465, 108.142 
" />
<path d="M 22.465, 106.654 
	L 22.465, 106.654 
	L 22.181, 106.796 
	L 21.118, 106.796 
" />
<path d="M 21.757, 106.795 
	L 21.756, 106.796 
	L 22.039, 106.938 
" />
<path d="M 22.182, 106.795 
	L 22.181, 106.796 
	L 22.606, 106.654 
	L 22.748, 106.513 
	L 22.890, 106.229 
	L 22.890, 106.016 
	L 22.748, 105.733 
	L 22.606, 105.591 
	L 22.181, 105.450 
	L 22.465, 105.591 
	L 22.606, 105.733 
	L 22.748, 106.016 
" />
<path d="M 22.748, 106.016 
	L 22.748, 106.229 
	L 22.606, 106.513 
	L 22.465, 106.654 
" />
<path d="M 23.812, 106.795 
	L 23.811, 106.796 
	L 23.669, 107.221 
	L 23.669, 107.505 
	L 23.811, 107.859 
	L 24.094, 108.142 
	L 24.520, 108.284 
	L 24.732, 108.284 
	L 25.157, 108.142 
	L 25.441, 107.859 
	L 25.583, 107.505 
	L 25.583, 107.221 
" />
<path d="M 25.583, 107.221 
	L 25.441, 106.796 
	L 25.157, 106.513 
	L 24.732, 106.371 
	L 24.520, 106.371 
	L 24.236, 106.513 
	L 23.953, 106.796 
	L 23.811, 107.221 
	L 23.811, 107.505 
	L 23.953, 107.859 
	L 24.236, 108.142 
	L 24.520, 108.284 
" />
<path d="M 24.520, 108.284 
" />
<path d="M 24.733, 108.283 
	L 24.732, 108.284 
	L 25.016, 108.142 
	L 25.299, 107.859 
	L 25.441, 107.505 
	L 25.441, 107.221 
	L 25.299, 106.796 
	L 25.016, 106.513 
	L 24.732, 106.371 
" />
<path d="M 24.520, 106.370 
	L 24.520, 106.371 
	L 24.094, 106.513 
	L 23.811, 106.796 
" />
<path d="M 26.505, 106.795 
	L 26.504, 106.796 
	L 26.362, 107.221 
	L 26.362, 107.505 
	L 26.504, 107.859 
	L 26.787, 108.142 
	L 27.213, 108.284 
	L 27.496, 108.284 
	L 27.850, 108.142 
	L 28.134, 107.859 
" />
<path d="M 27.993, 107.079 
	L 27.992, 107.079 
	L 28.134, 106.938 
	L 28.134, 106.796 
	L 27.850, 106.513 
	L 27.638, 106.371 
	L 27.213, 106.371 
	L 26.787, 106.513 
	L 26.504, 106.796 
" />
<path d="M 26.646, 106.795 
	L 26.646, 106.796 
	L 26.504, 107.221 
	L 26.504, 107.505 
	L 26.646, 107.859 
	L 26.929, 108.142 
	L 27.213, 108.284 
" />
<path d="M 28.843, 108.283 
	L 28.843, 108.284 
	L 29.764, 108.284 
" />
<path d="M 29.339, 108.283 
	L 29.339, 108.284 
	L 29.339, 105.450 
	L 28.843, 105.450 
" />
<path d="M 29.268, 105.449 
	L 29.268, 105.450 
	L 29.268, 108.284 
" />
<path d="M 29.339, 107.717 
	L 29.339, 107.717 
	L 30.756, 106.371 
" />
<path d="M 31.111, 106.370 
	L 31.110, 106.371 
	L 30.331, 106.371 
" />
<path d="M 30.048, 107.220 
	L 30.047, 107.221 
	L 30.898, 108.284 
" />
<path d="M 30.757, 108.283 
	L 30.756, 108.284 
	L 29.906, 107.221 
" />
<path d="M 30.331, 108.283 
	L 30.331, 108.284 
	L 31.110, 108.284 
" />
<path d="M 27.993, 107.079 
	L 27.992, 107.079 
	L 27.850, 106.938 
	L 27.992, 106.796 
" />
<path d="M 27.213, 106.370 
	L 27.213, 106.371 
	L 26.929, 106.513 
	L 26.646, 106.796 
" />
<path d="M 22.182, 105.449 
	L 22.181, 105.450 
	L 20.551, 105.450 
" />
<path d="M 7.300, 106.512 
	L 7.299, 106.513 
	L 7.016, 106.371 
	L 6.449, 106.371 
	L 6.236, 106.513 
	L 6.094, 106.654 
	L 6.094, 106.796 
	L 6.236, 106.796 
	L 6.236, 106.654 
" />
<path d="M 4.820, 106.370 
	L 4.819, 106.371 
	L 4.819, 108.284 
" />
<path d="M 4.749, 108.283 
	L 4.748, 108.284 
	L 5.244, 108.284 
" />
<path d="M 4.749, 108.283 
	L 4.748, 108.284 
	L 4.748, 106.371 
" />
<path d="M 4.820, 106.370 
	L 4.819, 106.371 
	L 4.323, 106.371 
" />
<path d="M 3.331, 106.370 
	L 3.331, 106.371 
	L 3.331, 107.859 
	L 3.472, 108.142 
	L 3.756, 108.284 
	L 4.039, 108.284 
	L 4.465, 108.142 
	L 4.748, 107.859 
" />
<path d="M 3.757, 108.283 
	L 3.756, 108.284 
	L 3.331, 108.142 
	L 3.260, 107.859 
	L 3.260, 106.371 
" />
<path d="M 3.331, 106.370 
	L 3.331, 106.371 
	L 2.835, 106.371 
" />
<path d="M 2.127, 106.654 
	L 2.126, 106.654 
	L 1.984, 106.087 
	L 1.843, 105.875 
	L 1.630, 105.591 
	L 1.205, 105.450 
	L 0.921, 105.450 
	L 0.638, 105.591 
	L 0.354, 105.875 
	L 0.283, 106.087 
	L 0.142, 106.654 
	L 0.142, 107.079 
" />
<path d="M 0.142, 107.079 
	L 0.283, 107.646 
	L 0.354, 107.859 
	L 0.638, 108.142 
	L 0.921, 108.284 
	L 1.205, 108.284 
	L 1.630, 108.142 
	L 1.843, 107.859 
	L 1.984, 107.646 
	L 2.126, 107.079 
	L 2.126, 106.654 
" />
<path d="M 1.985, 106.654 
	L 1.984, 106.654 
	L 1.843, 106.087 
	L 1.772, 105.875 
	L 1.488, 105.591 
	L 1.205, 105.450 
" />
<path d="M 0.922, 105.449 
	L 0.921, 105.450 
	L 0.496, 105.591 
	L 0.283, 105.875 
	L 0.142, 106.087 
	L 0.000, 106.654 
	L 0.000, 107.079 
	L 0.142, 107.646 
	L 0.283, 107.859 
	L 0.496, 108.142 
	L 0.921, 108.284 
" />
<path d="M 1.205, 108.283 
	L 1.205, 108.284 
	L 1.488, 108.142 
	L 1.772, 107.859 
	L 1.843, 107.646 
	L 1.984, 107.079 
	L 1.984, 106.654 
" />
<path d="M 1.347, 107.646 
	L 1.346, 107.646 
	L 1.488, 107.859 
	L 1.630, 108.851 
	L 1.772, 108.993 
	L 1.984, 108.993 
	L 2.126, 108.709 
	L 2.126, 108.568 
" />
<path d="M 2.127, 108.709 
	L 2.126, 108.709 
	L 1.984, 108.851 
	L 1.843, 108.851 
	L 1.772, 108.709 
	L 1.630, 108.426 
	L 1.488, 107.859 
" />
<path d="M 1.347, 107.646 
	L 1.346, 107.646 
	L 1.063, 107.505 
	L 0.921, 107.505 
	L 0.638, 107.646 
	L 0.496, 107.859 
	L 0.496, 108.001 
" />
<path d="M 2.977, 95.457 
	L 2.976, 95.457 
	L 4.039, 96.450 
	L 5.173, 97.300 
	L 6.520, 97.938 
	L 7.937, 98.292 
	L 9.354, 98.434 
	L 10.772, 98.292 
	L 12.189, 97.938 
	L 13.465, 97.300 
	L 14.669, 96.450 
	L 15.661, 95.457 
	L 16.512, 94.253 
" />
<path d="M 16.512, 94.253 
	L 17.150, 92.977 
	L 17.504, 91.560 
	L 17.646, 90.142 
	L 17.504, 88.654 
	L 17.150, 87.308 
	L 16.512, 85.961 
	L 15.661, 84.757 
	L 14.669, 83.765 
	L 13.465, 82.914 
	L 12.189, 82.347 
	L 10.772, 81.922 
" />
<path d="M 10.772, 81.922 
	L 9.354, 81.851 
	L 7.937, 81.922 
	L 6.520, 82.347 
	L 5.173, 82.914 
	L 4.039, 83.765 
	L 2.976, 84.757 
	L 2.197, 85.961 
	L 1.559, 87.308 
	L 1.205, 88.654 
	L 1.063, 90.142 
	L 1.205, 91.560 
	L 1.559, 92.977 
" />
<path d="M 1.559, 92.977 
	L 2.197, 94.253 
	L 2.976, 95.457 
" />
<path d="M 15.308, 95.315 
	L 15.307, 95.316 
	L 16.724, 93.898 
" />
<path d="M 17.363, 92.268 
	L 17.362, 92.268 
	L 14.882, 94.749 
" />
<path d="M 14.528, 94.110 
	L 14.528, 94.111 
	L 17.575, 90.993 
" />
<path d="M 17.646, 89.929 
	L 17.646, 89.930 
	L 14.173, 93.402 
" />
<path d="M 13.890, 92.693 
	L 13.890, 92.694 
	L 17.575, 89.009 
" />
<path d="M 17.363, 88.157 
	L 17.362, 88.158 
	L 13.677, 91.914 
" />
<path d="M 13.536, 90.992 
	L 13.535, 90.993 
	L 17.150, 87.379 
" />
<path d="M 16.867, 86.669 
	L 16.866, 86.670 
	L 13.465, 90.072 
" />
<path d="M 13.536, 89.008 
	L 13.535, 89.009 
	L 16.512, 86.032 
" />
<path d="M 16.158, 85.394 
	L 16.157, 85.394 
	L 13.819, 87.662 
" />
<path d="M 14.670, 85.890 
	L 14.669, 85.890 
	L 15.732, 84.827 
" />
<path d="M 14.670, 22.819 
	L 14.669, 22.820 
	L 15.661, 21.827 
	L 16.512, 20.623 
	L 17.150, 19.347 
	L 17.504, 17.930 
	L 17.646, 16.513 
	L 17.504, 15.024 
	L 17.150, 13.678 
	L 16.512, 12.331 
	L 15.661, 11.127 
	L 14.669, 10.135 
" />
<path d="M 14.669, 10.135 
	L 13.465, 9.284 
	L 12.189, 8.717 
	L 10.772, 8.292 
	L 9.354, 8.221 
	L 7.937, 8.292 
	L 6.520, 8.717 
	L 5.173, 9.284 
	L 4.039, 10.135 
	L 2.976, 11.127 
	L 2.197, 12.331 
	L 1.559, 13.678 
	L 1.205, 15.024 
" />
<path d="M 1.205, 15.024 
	L 1.063, 16.513 
	L 1.205, 17.930 
	L 1.559, 19.347 
	L 2.197, 20.623 
	L 2.976, 21.827 
	L 4.039, 22.820 
	L 5.173, 23.670 
	L 6.520, 24.308 
	L 7.937, 24.662 
	L 9.354, 24.804 
	L 10.772, 24.662 
	L 12.189, 24.308 
" />
<path d="M 12.189, 24.308 
	L 13.465, 23.670 
	L 14.669, 22.820 
" />
</g><g style="stroke:rgb(255,255,255); fill:none; stroke-width:0.100mm" >
</g>
</svg>
