<?xml version="1.0" encoding="UTF-8" standalone="no" ?>
<svg width="100%" height="100%" viewBox="0 0 95.102 263.126" xmlns="http://www.w3.org/2000/svg"><g>
</g><g style="stroke:rgb(0,0,0); fill:none; stroke-width:1.000mm" >
</g><g style="stroke:rgb(0,0,0); fill:none; stroke-width:0.100mm" >
<path d="M 69.237, 5.314 
	L 69.236, 5.315 
	L 69.094, 2.693 
	L 68.740, 0.071 
	L 68.032, -2.409 
	L 67.110, -4.890 
	L 65.906, -7.228 
	L 64.488, -9.425 
	L 62.858, -11.409 
	L 61.016, -13.323 
	L 58.961, -14.953 
	L 56.764, -16.370 
" />
<path d="M 56.764, -16.370 
	L 54.425, -17.575 
	L 52.016, -18.496 
	L 49.465, -19.205 
	L 46.843, -19.559 
	L 44.220, -19.701 
	L 41.669, -19.559 
	L 39.047, -19.205 
	L 36.496, -18.496 
	L 34.087, -17.575 
	L 31.748, -16.370 
	L 29.551, -14.953 
" />
<path d="M 29.551, -14.953 
	L 27.496, -13.323 
	L 25.654, -11.409 
	L 24.024, -9.425 
	L 22.606, -7.228 
	L 21.402, -4.890 
	L 20.480, -2.409 
	L 19.772, 0.071 
	L 19.417, 2.693 
	L 19.276, 5.315 
	L 19.417, 7.937 
	L 19.772, 10.488 
" />
<path d="M 19.772, 10.488 
	L 20.480, 13.039 
	L 21.402, 15.449 
	L 22.606, 17.787 
	L 24.024, 19.984 
	L 25.654, 22.039 
	L 27.496, 23.882 
	L 29.551, 25.512 
	L 31.748, 26.929 
	L 34.087, 28.134 
	L 36.496, 29.055 
	L 39.047, 29.764 
" />
<path d="M 39.047, 29.764 
	L 41.669, 30.189 
	L 44.220, 30.331 
	L 46.843, 30.189 
	L 49.465, 29.764 
	L 52.016, 29.055 
	L 54.425, 28.134 
	L 56.764, 26.929 
	L 58.961, 25.512 
	L 61.016, 23.882 
	L 62.858, 22.039 
	L 64.488, 19.984 
" />
<path d="M 64.488, 19.984 
	L 65.906, 17.787 
	L 67.110, 15.449 
	L 68.032, 13.039 
	L 68.740, 10.488 
	L 69.094, 7.937 
	L 69.236, 5.315 
" />
<path d="M 47.906, -19.418 
	L 47.906, -19.417 
	L 19.488, 173.551 
	L 69.024, 173.551 
	L 40.606, -19.417 
	L 47.906, -19.417 
" />
<path d="M 5.316, 5.314 
	L 5.315, 5.315 
	L 1.488, 5.315 
" />
<path d="M 1.276, 13.110 
	L 1.276, 13.110 
	L 1.276, 77.669 
" />
<path d="M 1.276, 101.125 
	L 1.276, 101.126 
	L 1.276, 165.756 
	L 1.205, 165.756 
	L 1.205, 173.126 
	L 1.134, 172.701 
	L 1.134, 165.756 
	L 1.063, 165.756 
	L 1.063, 172.276 
	L 0.992, 171.850 
	L 0.992, 165.756 
	L 0.921, 165.756 
" />
<path d="M 0.921, 165.756 
	L 0.921, 171.425 
	L 0.850, 171.000 
	L 0.850, 165.756 
	L 0.780, 165.756 
	L 0.780, 170.575 
	L 0.709, 170.150 
	L 0.709, 165.756 
	L 0.638, 165.756 
	L 0.638, 169.724 
	L 0.567, 169.228 
	L 0.567, 165.756 
" />
<path d="M 0.567, 165.756 
	L 0.496, 165.756 
	L 0.496, 168.803 
	L 0.425, 168.378 
	L 0.425, 165.756 
	L 0.354, 165.756 
	L 0.354, 167.953 
	L 0.283, 167.528 
	L 0.283, 165.756 
	L 0.213, 165.756 
	L 0.213, 167.102 
	L 0.142, 166.677 
" />
<path d="M 0.142, 166.677 
	L 0.142, 165.756 
	L 0.071, 165.756 
	L 0.071, 166.252 
" />
<path d="M 0.001, 165.755 
	L 0.000, 165.756 
	L 1.276, 173.551 
	L 1.276, 165.756 
" />
<path d="M 1.347, 165.755 
	L 1.346, 165.756 
	L 1.346, 173.197 
	L 1.276, 173.551 
	L 2.622, 165.756 
	L 0.000, 165.756 
" />
<path d="M 1.347, 165.755 
	L 1.346, 165.756 
	L 1.417, 165.756 
	L 1.417, 172.772 
	L 1.488, 172.346 
	L 1.488, 165.756 
	L 1.559, 165.756 
	L 1.559, 171.921 
	L 1.630, 171.567 
	L 1.630, 165.756 
	L 1.701, 165.756 
	L 1.701, 171.142 
" />
<path d="M 1.701, 171.142 
	L 1.772, 170.717 
	L 1.772, 165.756 
	L 1.843, 165.756 
	L 1.843, 170.291 
	L 1.913, 169.866 
	L 1.913, 165.756 
	L 1.984, 165.756 
	L 1.984, 169.512 
	L 2.055, 169.087 
	L 2.055, 165.756 
	L 2.126, 165.756 
" />
<path d="M 2.126, 165.756 
	L 2.126, 168.661 
	L 2.197, 168.236 
	L 2.197, 165.756 
	L 2.268, 165.756 
	L 2.268, 167.811 
	L 2.339, 167.457 
	L 2.339, 165.756 
	L 2.409, 165.756 
	L 2.409, 167.032 
	L 2.480, 166.606 
	L 2.480, 165.756 
" />
<path d="M 2.480, 165.756 
	L 2.551, 165.756 
	L 2.551, 166.181 
" />
<path d="M 1.489, 173.550 
	L 1.488, 173.551 
	L 5.315, 173.551 
" />
<path d="M 19.418, 174.543 
	L 19.417, 174.543 
	L 19.276, 177.165 
	L 19.417, 179.787 
	L 19.772, 182.409 
	L 20.480, 184.890 
	L 21.402, 187.370 
	L 22.606, 189.709 
	L 24.024, 191.906 
	L 25.654, 193.890 
	L 27.496, 195.803 
	L 29.551, 197.433 
" />
<path d="M 29.551, 197.433 
	L 31.748, 198.850 
	L 34.087, 200.055 
	L 36.496, 200.976 
	L 39.047, 201.685 
	L 41.669, 202.039 
	L 44.220, 202.181 
	L 46.843, 202.039 
	L 49.465, 201.685 
	L 52.016, 200.976 
	L 54.425, 200.055 
	L 56.764, 198.850 
" />
<path d="M 56.764, 198.850 
	L 58.961, 197.433 
	L 61.016, 195.803 
	L 62.858, 193.890 
	L 64.488, 191.906 
	L 65.906, 189.709 
	L 67.110, 187.370 
	L 68.032, 184.890 
	L 68.740, 182.409 
	L 69.094, 179.787 
	L 69.236, 177.165 
	L 69.094, 174.543 
" />
<path d="M 69.094, 174.543 
	L 68.740, 171.992 
	L 68.032, 169.441 
	L 67.110, 167.032 
	L 65.906, 164.693 
	L 64.488, 162.496 
	L 62.858, 160.441 
	L 61.016, 158.598 
	L 58.961, 156.969 
	L 56.764, 155.551 
	L 54.425, 154.346 
	L 52.016, 153.425 
" />
<path d="M 52.016, 153.425 
	L 49.465, 152.717 
	L 46.843, 152.291 
	L 44.220, 152.150 
	L 41.669, 152.291 
	L 39.047, 152.717 
	L 36.496, 153.425 
	L 34.087, 154.346 
	L 31.748, 155.551 
	L 29.551, 156.969 
	L 27.496, 158.598 
	L 25.654, 160.441 
" />
<path d="M 25.654, 160.441 
	L 24.024, 162.496 
	L 22.606, 164.693 
	L 21.402, 167.032 
	L 20.480, 169.441 
	L 19.772, 171.992 
	L 19.417, 174.543 
" />
<path d="M 3.331, 93.330 
	L 3.331, 93.331 
	L 0.709, 93.331 
" />
<path d="M 1.843, 93.330 
	L 1.843, 93.331 
	L 1.843, 85.535 
" />
<path d="M 2.198, 85.535 
	L 2.197, 85.535 
	L 2.197, 93.331 
" />
<path d="M 2.198, 85.535 
	L 2.197, 85.535 
	L 0.709, 85.535 
" />
<path d="M 1.276, 20.905 
	L 1.276, 20.906 
	L 1.276, 13.110 
	L 1.276, 5.315 
	L 2.622, 13.110 
	L 0.000, 13.110 
	L 1.276, 5.315 
" />
<path d="M 1.489, 5.314 
	L 1.488, 5.315 
	L 5.315, 5.315 
" />
<path d="M 1.347, 5.739 
	L 1.346, 5.740 
	L 1.346, 13.110 
	L 1.276, 13.110 
" />
<path d="M 1.205, 13.110 
	L 1.205, 13.110 
	L 1.134, 13.110 
	L 1.134, 6.236 
	L 1.063, 6.661 
	L 1.063, 13.110 
	L 0.992, 13.110 
	L 0.992, 7.087 
	L 0.921, 7.512 
	L 0.921, 13.110 
	L 0.850, 13.110 
	L 0.850, 7.937 
	L 0.780, 8.362 
" />
<path d="M 0.780, 8.362 
	L 0.780, 13.110 
	L 0.709, 13.110 
	L 0.709, 8.787 
	L 0.638, 9.213 
	L 0.638, 13.110 
	L 0.567, 13.110 
	L 0.567, 9.709 
	L 0.496, 10.134 
	L 0.496, 13.110 
	L 0.425, 13.110 
	L 0.425, 10.559 
	L 0.354, 10.984 
" />
<path d="M 0.354, 10.984 
	L 0.354, 13.110 
	L 0.283, 13.110 
	L 0.283, 11.409 
	L 0.213, 11.835 
	L 0.213, 13.110 
	L 0.142, 13.110 
	L 0.142, 12.260 
	L 0.071, 12.685 
	L 0.071, 13.110 
" />
<path d="M 1.205, 13.110 
	L 1.205, 13.110 
	L 1.205, 5.811 
" />
<path d="M 1.347, 5.739 
	L 1.346, 5.740 
	L 1.417, 6.165 
	L 1.417, 13.110 
	L 1.488, 13.110 
	L 1.488, 6.591 
	L 1.559, 7.016 
	L 1.559, 13.110 
	L 1.630, 13.110 
	L 1.630, 7.370 
	L 1.701, 7.795 
	L 1.701, 13.110 
	L 1.772, 13.110 
" />
<path d="M 1.772, 13.110 
	L 1.772, 8.220 
	L 1.843, 8.646 
	L 1.843, 13.110 
	L 1.913, 13.110 
	L 1.913, 9.071 
	L 1.984, 9.425 
	L 1.984, 13.110 
	L 2.055, 13.110 
	L 2.055, 9.850 
	L 2.126, 10.276 
	L 2.126, 13.110 
	L 2.197, 13.110 
" />
<path d="M 2.197, 13.110 
	L 2.126, 13.110 
	L 2.126, 10.276 
	L 2.055, 9.850 
	L 2.055, 13.110 
	L 1.984, 13.110 
	L 1.984, 9.425 
	L 1.913, 9.071 
	L 1.913, 13.110 
	L 1.843, 13.110 
	L 1.843, 8.646 
	L 1.772, 8.220 
	L 1.772, 13.110 
" />
<path d="M 1.772, 13.110 
	L 1.701, 13.110 
	L 1.701, 7.795 
	L 1.630, 7.370 
	L 1.630, 13.110 
	L 1.559, 13.110 
	L 1.559, 7.016 
	L 1.488, 6.591 
	L 1.488, 13.110 
	L 1.417, 13.110 
	L 1.417, 6.165 
	L 1.346, 5.740 
	L 1.346, 13.110 
" />
<path d="M 1.346, 13.110 
	L 1.276, 13.110 
	L 1.276, 5.315 
" />
<path d="M 1.205, 5.810 
	L 1.205, 5.811 
	L 1.205, 13.110 
	L 1.134, 13.110 
	L 1.134, 6.236 
	L 1.063, 6.661 
	L 1.063, 13.110 
	L 0.992, 13.110 
	L 0.992, 7.087 
	L 0.921, 7.512 
	L 0.921, 13.110 
	L 0.850, 13.110 
	L 0.850, 7.937 
" />
<path d="M 0.850, 7.937 
	L 0.780, 8.362 
	L 0.780, 13.110 
	L 0.709, 13.110 
	L 0.709, 8.787 
	L 0.638, 9.213 
	L 0.638, 13.110 
	L 0.567, 13.110 
	L 0.567, 9.709 
	L 0.496, 10.134 
	L 0.496, 13.110 
	L 0.425, 13.110 
	L 0.425, 10.559 
" />
<path d="M 0.425, 10.559 
	L 0.354, 10.984 
	L 0.354, 13.110 
	L 0.283, 13.110 
	L 0.283, 11.409 
	L 0.213, 11.835 
	L 0.213, 13.110 
	L 0.142, 13.110 
	L 0.142, 12.260 
	L 0.071, 12.685 
	L 0.071, 13.110 
" />
<path d="M 0.001, 13.110 
	L 0.000, 13.110 
	L 2.622, 13.110 
" />
<path d="M 2.552, 13.110 
	L 2.551, 13.110 
	L 2.551, 12.756 
	L 2.480, 12.331 
	L 2.480, 13.110 
	L 2.409, 13.110 
	L 2.409, 11.906 
	L 2.339, 11.480 
	L 2.339, 13.110 
	L 2.268, 13.110 
	L 2.268, 11.126 
	L 2.197, 10.701 
	L 2.197, 13.110 
" />
<path d="M 2.197, 13.110 
	L 2.197, 10.701 
	L 2.268, 11.126 
	L 2.268, 13.110 
	L 2.339, 13.110 
	L 2.339, 11.480 
	L 2.409, 11.906 
	L 2.409, 13.110 
	L 2.480, 13.110 
	L 2.480, 12.331 
	L 2.551, 12.756 
	L 2.551, 13.110 
" />
<path d="M 2.623, 13.110 
	L 2.622, 13.110 
	L 1.276, 5.315 
	L 0.000, 13.110 
" />
<path d="M 1.276, -19.418 
	L 1.276, -19.417 
	L 1.276, -27.283 
	L 1.205, -27.283 
	L 1.205, -19.843 
	L 1.134, -20.268 
	L 1.134, -27.283 
	L 1.063, -27.283 
	L 1.063, -20.693 
	L 0.992, -21.118 
	L 0.992, -27.283 
	L 0.921, -27.283 
" />
<path d="M 0.921, -27.283 
	L 0.921, -21.543 
	L 0.850, -22.039 
	L 0.850, -27.283 
	L 0.780, -27.283 
	L 0.780, -22.465 
	L 0.709, -22.890 
	L 0.709, -27.283 
	L 0.638, -27.283 
	L 0.638, -23.315 
	L 0.567, -23.740 
	L 0.567, -27.283 
" />
<path d="M 0.567, -27.283 
	L 0.496, -27.283 
	L 0.496, -24.165 
	L 0.425, -24.661 
	L 0.425, -27.283 
	L 0.354, -27.283 
	L 0.354, -25.087 
	L 0.283, -25.512 
	L 0.283, -27.283 
	L 0.213, -27.283 
	L 0.213, -25.937 
	L 0.142, -26.362 
" />
<path d="M 0.142, -26.362 
	L 0.142, -27.283 
	L 0.071, -27.283 
	L 0.071, -26.787 
" />
<path d="M 0.001, -27.284 
	L 0.000, -27.283 
	L 1.276, -19.417 
	L 2.622, -27.283 
	L 0.000, -27.283 
" />
<path d="M 1.276, -27.284 
	L 1.276, -27.283 
	L 1.276, -35.079 
	L 9.142, -35.079 
" />
<path d="M 17.646, -36.426 
	L 17.646, -36.425 
	L 19.134, -36.425 
	L 19.134, -31.181 
" />
<path d="M 18.780, -31.182 
	L 18.780, -31.181 
	L 18.780, -36.425 
" />
<path d="M 19.560, -35.292 
	L 19.559, -35.291 
	L 20.268, -36.000 
	L 21.047, -36.425 
	L 22.110, -36.425 
	L 22.535, -36.000 
	L 22.535, -35.646 
	L 22.110, -35.291 
	L 21.756, -35.646 
	L 22.110, -36.000 
" />
<path d="M 19.560, -35.292 
	L 19.559, -35.291 
	L 19.134, -34.157 
" />
<path d="M 20.268, -31.182 
	L 20.268, -31.181 
	L 17.646, -31.181 
" />
<path d="M 2.552, -27.284 
	L 2.551, -27.283 
	L 2.480, -27.283 
	L 2.480, -26.433 
	L 2.409, -26.008 
	L 2.409, -27.283 
	L 2.339, -27.283 
	L 2.339, -25.583 
	L 2.268, -25.157 
	L 2.268, -27.283 
	L 2.197, -27.283 
	L 2.197, -24.732 
" />
<path d="M 2.197, -24.732 
	L 2.126, -24.378 
	L 2.126, -27.283 
	L 2.055, -27.283 
	L 2.055, -23.953 
	L 1.984, -23.528 
	L 1.984, -27.283 
	L 1.913, -27.283 
	L 1.913, -23.102 
	L 1.843, -22.677 
	L 1.843, -27.283 
	L 1.772, -27.283 
" />
<path d="M 1.772, -27.283 
	L 1.772, -22.252 
	L 1.701, -21.898 
	L 1.701, -27.283 
	L 1.630, -27.283 
	L 1.630, -21.472 
	L 1.559, -21.047 
	L 1.559, -27.283 
	L 1.488, -27.283 
	L 1.488, -20.622 
	L 1.417, -20.197 
	L 1.417, -27.283 
" />
<path d="M 1.417, -27.283 
	L 1.346, -27.283 
	L 1.346, -19.772 
	L 1.276, -19.417 
" />
<path d="M 1.489, -19.418 
	L 1.488, -19.417 
	L 5.315, -19.417 
" />
<path d="M 2.552, -26.859 
	L 2.551, -26.858 
	L 2.551, -27.283 
" />
<path d="M 19.489, 220.180 
	L 19.488, 220.181 
	L 27.354, 220.181 
	L 27.354, 220.252 
	L 19.913, 220.252 
	L 20.339, 220.323 
	L 27.354, 220.323 
	L 27.354, 220.394 
	L 20.764, 220.394 
	L 21.189, 220.465 
	L 27.354, 220.465 
	L 27.354, 220.535 
" />
<path d="M 27.354, 220.535 
	L 21.614, 220.535 
	L 22.110, 220.606 
	L 27.354, 220.606 
	L 27.354, 220.677 
	L 22.535, 220.677 
	L 22.961, 220.748 
	L 27.354, 220.748 
	L 27.354, 220.819 
	L 23.386, 220.819 
	L 23.811, 220.890 
	L 27.354, 220.890 
" />
<path d="M 27.354, 220.890 
	L 27.354, 220.961 
	L 24.236, 220.961 
	L 24.732, 221.032 
	L 27.354, 221.032 
	L 27.354, 221.102 
	L 25.157, 221.102 
	L 25.583, 221.173 
	L 27.354, 221.173 
	L 27.354, 221.244 
	L 26.008, 221.244 
	L 26.433, 221.315 
" />
<path d="M 26.433, 221.315 
	L 27.354, 221.315 
	L 27.354, 221.386 
	L 26.858, 221.386 
" />
<path d="M 27.355, 221.456 
	L 27.354, 221.457 
	L 27.354, 218.835 
	L 19.488, 220.181 
	L 27.354, 221.457 
" />
<path d="M 27.355, 220.180 
	L 27.354, 220.181 
	L 33.449, 220.181 
" />
<path d="M 27.355, 220.110 
	L 27.354, 220.110 
	L 19.843, 220.110 
" />
<path d="M 20.268, 220.039 
	L 20.268, 220.039 
	L 27.354, 220.039 
	L 27.354, 220.110 
" />
<path d="M 27.355, 219.968 
	L 27.354, 219.969 
	L 20.693, 219.969 
	L 20.268, 220.039 
" />
<path d="M 21.119, 219.897 
	L 21.118, 219.898 
	L 27.354, 219.898 
	L 27.354, 219.969 
" />
<path d="M 27.355, 219.826 
	L 27.354, 219.827 
	L 21.543, 219.827 
	L 21.118, 219.898 
" />
<path d="M 21.969, 219.755 
	L 21.969, 219.756 
	L 27.354, 219.756 
	L 27.354, 219.827 
" />
<path d="M 27.355, 219.684 
	L 27.354, 219.685 
	L 22.323, 219.685 
	L 21.969, 219.756 
" />
<path d="M 22.749, 219.613 
	L 22.748, 219.614 
	L 27.354, 219.614 
	L 27.354, 219.685 
" />
<path d="M 27.355, 219.543 
	L 27.354, 219.543 
	L 23.173, 219.543 
	L 22.748, 219.614 
" />
<path d="M 23.599, 219.472 
	L 23.598, 219.472 
	L 27.354, 219.472 
	L 27.354, 219.543 
" />
<path d="M 27.355, 219.401 
	L 27.354, 219.402 
	L 24.024, 219.402 
	L 23.598, 219.472 
" />
<path d="M 24.450, 219.330 
	L 24.449, 219.331 
	L 27.354, 219.331 
	L 27.354, 219.402 
" />
<path d="M 27.355, 219.259 
	L 27.354, 219.260 
	L 24.803, 219.260 
	L 24.449, 219.331 
" />
<path d="M 25.229, 219.188 
	L 25.228, 219.189 
	L 27.354, 219.189 
	L 27.354, 219.260 
" />
<path d="M 27.355, 219.117 
	L 27.354, 219.118 
	L 25.654, 219.118 
	L 25.228, 219.189 
" />
<path d="M 26.079, 219.047 
	L 26.079, 219.047 
	L 27.354, 219.047 
	L 27.354, 219.118 
" />
<path d="M 27.355, 218.976 
	L 27.354, 218.976 
	L 26.504, 218.976 
	L 26.079, 219.047 
" />
<path d="M 26.930, 218.905 
	L 26.929, 218.906 
	L 27.354, 218.906 
	L 27.354, 218.976 
" />
<path d="M 19.489, 220.393 
	L 19.488, 220.394 
	L 19.488, 224.150 
" />
<path d="M 42.733, 222.944 
	L 42.732, 222.945 
	L 43.512, 223.724 
	L 44.646, 224.079 
	L 45.354, 224.079 
	L 46.134, 223.724 
	L 46.843, 222.945 
" />
<path d="M 46.843, 224.078 
	L 46.843, 224.079 
	L 48.331, 224.079 
" />
<path d="M 47.268, 224.078 
	L 47.268, 224.079 
	L 47.268, 216.213 
	L 45.780, 216.213 
" />
<path d="M 46.843, 216.212 
	L 46.843, 216.213 
	L 46.843, 224.079 
" />
<path d="M 44.646, 224.078 
	L 44.646, 224.079 
	L 43.866, 223.724 
	L 43.157, 222.945 
	L 42.732, 221.811 
	L 42.732, 221.102 
	L 43.157, 219.969 
	L 43.866, 219.189 
	L 44.646, 218.835 
	L 43.512, 219.189 
	L 42.732, 219.969 
	L 42.378, 221.102 
" />
<path d="M 42.378, 221.102 
	L 42.378, 221.811 
	L 42.732, 222.945 
" />
<path d="M 44.646, 218.834 
	L 44.646, 218.835 
	L 45.354, 218.835 
	L 46.134, 219.189 
	L 46.843, 219.969 
" />
<path d="M 55.064, 220.180 
	L 55.063, 220.181 
	L 61.157, 220.181 
	L 69.024, 220.181 
	L 68.528, 220.252 
	L 61.157, 220.252 
	L 61.157, 220.323 
	L 68.102, 220.323 
	L 67.677, 220.394 
	L 61.157, 220.394 
	L 61.157, 220.465 
	L 67.252, 220.465 
" />
<path d="M 67.252, 220.465 
	L 66.827, 220.535 
	L 61.157, 220.535 
	L 61.157, 220.606 
	L 66.331, 220.606 
	L 65.906, 220.677 
	L 61.157, 220.677 
	L 61.157, 220.748 
	L 65.480, 220.748 
	L 65.055, 220.819 
	L 61.157, 220.819 
	L 61.157, 220.890 
" />
<path d="M 61.157, 220.890 
	L 64.630, 220.890 
	L 64.205, 220.961 
	L 61.157, 220.961 
	L 61.157, 221.032 
	L 63.709, 221.032 
	L 63.283, 221.102 
	L 61.157, 221.102 
	L 61.157, 221.173 
	L 62.858, 221.173 
	L 62.433, 221.244 
	L 61.157, 221.244 
" />
<path d="M 61.157, 221.244 
	L 61.157, 221.315 
	L 62.008, 221.315 
	L 61.583, 221.386 
	L 61.157, 221.386 
" />
<path d="M 61.158, 221.456 
	L 61.157, 221.457 
	L 61.157, 218.835 
	L 69.024, 220.181 
	L 61.157, 221.457 
" />
<path d="M 61.158, 220.180 
	L 61.157, 220.181 
	L 61.157, 220.110 
	L 68.598, 220.110 
	L 68.173, 220.039 
	L 61.157, 220.039 
	L 61.157, 219.969 
	L 67.748, 219.969 
	L 67.323, 219.898 
	L 61.157, 219.898 
	L 61.157, 219.827 
	L 66.898, 219.827 
" />
<path d="M 66.898, 219.827 
	L 66.472, 219.756 
	L 61.157, 219.756 
	L 61.157, 219.685 
	L 66.118, 219.685 
	L 65.693, 219.614 
	L 61.157, 219.614 
	L 61.157, 219.543 
	L 65.268, 219.543 
	L 64.843, 219.472 
	L 61.157, 219.472 
	L 61.157, 219.402 
" />
<path d="M 61.157, 219.402 
	L 64.417, 219.402 
	L 63.992, 219.331 
	L 61.157, 219.331 
	L 61.157, 219.260 
	L 63.638, 219.260 
	L 63.213, 219.189 
	L 61.157, 219.189 
	L 61.157, 219.118 
	L 62.787, 219.118 
	L 62.362, 219.047 
	L 61.157, 219.047 
" />
<path d="M 61.157, 219.047 
	L 61.157, 218.976 
	L 61.937, 218.976 
	L 61.512, 218.906 
	L 61.157, 218.906 
" />
<path d="M 69.024, 220.393 
	L 69.024, 220.394 
	L 69.024, 224.150 
" />
<path d="M 63.568, -37.701 
	L 63.567, -37.701 
	L 55.701, -37.701 
	L 47.906, -37.701 
	L 48.260, -37.630 
	L 55.701, -37.630 
	L 55.701, -37.559 
	L 48.685, -37.559 
	L 49.110, -37.488 
	L 55.701, -37.488 
	L 55.701, -37.417 
	L 49.535, -37.417 
" />
<path d="M 49.535, -37.417 
	L 49.890, -37.346 
	L 55.701, -37.346 
	L 55.701, -37.276 
	L 50.315, -37.276 
	L 50.740, -37.205 
	L 55.701, -37.205 
	L 55.701, -37.134 
	L 51.165, -37.134 
	L 51.591, -37.063 
	L 55.701, -37.063 
	L 55.701, -36.992 
" />
<path d="M 55.701, -36.992 
	L 51.945, -36.992 
	L 52.370, -36.921 
	L 55.701, -36.921 
	L 55.701, -36.850 
	L 52.795, -36.850 
	L 53.220, -36.780 
	L 55.701, -36.780 
	L 55.701, -36.709 
	L 53.646, -36.709 
	L 54.000, -36.638 
	L 55.701, -36.638 
" />
<path d="M 55.701, -36.638 
	L 55.701, -36.567 
	L 54.425, -36.567 
	L 54.850, -36.496 
	L 55.701, -36.496 
	L 55.701, -36.425 
	L 55.276, -36.425 
" />
<path d="M 55.702, -36.355 
	L 55.701, -36.354 
	L 55.701, -38.976 
	L 47.906, -37.701 
	L 55.701, -36.354 
" />
<path d="M 55.702, -37.701 
	L 55.701, -37.701 
	L 55.701, -37.772 
	L 48.331, -37.772 
	L 48.756, -37.843 
	L 55.701, -37.843 
	L 55.701, -37.913 
	L 49.181, -37.913 
	L 49.606, -37.984 
	L 55.701, -37.984 
	L 55.701, -38.055 
	L 50.032, -38.055 
" />
<path d="M 50.032, -38.055 
	L 50.457, -38.126 
	L 55.701, -38.126 
	L 55.701, -38.197 
	L 50.882, -38.197 
	L 51.307, -38.268 
	L 55.701, -38.268 
	L 55.701, -38.339 
	L 51.803, -38.339 
	L 52.228, -38.409 
	L 55.701, -38.409 
	L 55.701, -38.480 
" />
<path d="M 55.701, -38.480 
	L 52.654, -38.480 
	L 53.079, -38.551 
	L 55.701, -38.551 
	L 55.701, -38.622 
	L 53.504, -38.622 
	L 53.929, -38.693 
	L 55.701, -38.693 
	L 55.701, -38.764 
	L 54.354, -38.764 
	L 54.780, -38.835 
	L 55.701, -38.835 
" />
<path d="M 55.701, -38.835 
	L 55.701, -38.906 
	L 55.205, -38.906 
" />
<path d="M 47.906, -37.418 
	L 47.906, -37.417 
	L 47.906, -33.661 
" />
<path d="M 40.607, -33.662 
	L 40.606, -33.661 
	L 40.606, -37.417 
" />
<path d="M 40.607, -37.701 
	L 40.606, -37.701 
	L 32.811, -37.701 
	L 32.811, -37.630 
	L 40.181, -37.630 
	L 39.756, -37.559 
	L 32.811, -37.559 
	L 32.811, -37.488 
	L 39.331, -37.488 
	L 38.906, -37.417 
	L 32.811, -37.417 
	L 32.811, -37.346 
" />
<path d="M 32.811, -37.346 
	L 38.551, -37.346 
	L 38.126, -37.276 
	L 32.811, -37.276 
	L 32.811, -37.205 
	L 37.701, -37.205 
	L 37.276, -37.134 
	L 32.811, -37.134 
	L 32.811, -37.063 
	L 36.850, -37.063 
	L 36.496, -36.992 
	L 32.811, -36.992 
" />
<path d="M 32.811, -36.992 
	L 32.811, -36.921 
	L 36.071, -36.921 
	L 35.646, -36.850 
	L 32.811, -36.850 
	L 32.811, -36.780 
	L 35.220, -36.780 
	L 34.795, -36.709 
	L 32.811, -36.709 
	L 32.811, -36.638 
	L 34.441, -36.638 
	L 34.016, -36.567 
" />
<path d="M 34.016, -36.567 
	L 32.811, -36.567 
	L 32.811, -36.496 
	L 33.591, -36.496 
	L 33.165, -36.425 
	L 32.811, -36.425 
" />
<path d="M 32.812, -36.355 
	L 32.811, -36.354 
	L 32.811, -38.976 
	L 40.606, -37.701 
	L 32.811, -36.354 
" />
<path d="M 32.812, -37.701 
	L 32.811, -37.701 
	L 24.945, -37.701 
" />
<path d="M 32.812, -37.772 
	L 32.811, -37.772 
	L 40.110, -37.772 
" />
<path d="M 39.686, -37.843 
	L 39.685, -37.843 
	L 32.811, -37.843 
	L 32.811, -37.772 
" />
<path d="M 32.812, -37.914 
	L 32.811, -37.913 
	L 39.260, -37.913 
	L 39.685, -37.843 
" />
<path d="M 38.835, -37.985 
	L 38.835, -37.984 
	L 32.811, -37.984 
	L 32.811, -37.913 
" />
<path d="M 32.812, -38.056 
	L 32.811, -38.055 
	L 38.409, -38.055 
	L 38.835, -37.984 
" />
<path d="M 37.985, -38.127 
	L 37.984, -38.126 
	L 32.811, -38.126 
	L 32.811, -38.055 
" />
<path d="M 32.812, -38.198 
	L 32.811, -38.197 
	L 37.559, -38.197 
	L 37.984, -38.126 
" />
<path d="M 37.135, -38.268 
	L 37.134, -38.268 
	L 32.811, -38.268 
	L 32.811, -38.197 
" />
<path d="M 32.812, -38.339 
	L 32.811, -38.339 
	L 36.638, -38.339 
	L 37.134, -38.268 
" />
<path d="M 36.213, -38.410 
	L 36.213, -38.409 
	L 32.811, -38.409 
	L 32.811, -38.339 
" />
<path d="M 32.812, -38.481 
	L 32.811, -38.480 
	L 35.787, -38.480 
	L 36.213, -38.409 
" />
<path d="M 35.363, -38.552 
	L 35.362, -38.551 
	L 32.811, -38.551 
	L 32.811, -38.480 
" />
<path d="M 32.812, -38.623 
	L 32.811, -38.622 
	L 34.937, -38.622 
	L 35.362, -38.551 
" />
<path d="M 34.513, -38.694 
	L 34.512, -38.693 
	L 32.811, -38.693 
	L 32.811, -38.622 
" />
<path d="M 32.812, -38.764 
	L 32.811, -38.764 
	L 34.087, -38.764 
	L 34.512, -38.693 
" />
<path d="M 33.662, -38.835 
	L 33.661, -38.835 
	L 32.811, -38.835 
	L 32.811, -38.764 
" />
<path d="M 32.812, -38.906 
	L 32.811, -38.906 
	L 33.236, -38.906 
	L 33.661, -38.835 
" />
<path d="M 72.851, -38.268 
	L 72.850, -38.268 
	L 73.205, -38.622 
	L 73.984, -38.976 
	L 75.472, -38.976 
	L 76.181, -38.622 
	L 76.535, -38.268 
	L 76.961, -37.488 
	L 76.961, -34.866 
	L 77.315, -34.157 
	L 77.669, -33.732 
	L 78.024, -33.732 
" />
<path d="M 78.024, -33.732 
" />
<path d="M 77.670, -33.733 
	L 77.669, -33.732 
	L 76.961, -34.157 
	L 76.535, -34.866 
	L 75.827, -34.157 
	L 75.047, -33.732 
	L 73.984, -33.732 
	L 73.205, -34.157 
	L 72.850, -34.866 
	L 72.850, -35.646 
	L 73.205, -36.354 
	L 73.984, -36.709 
" />
<path d="M 73.984, -36.709 
	L 72.850, -36.354 
	L 72.496, -35.646 
	L 72.496, -34.866 
	L 72.850, -34.157 
	L 73.984, -33.732 
" />
<path d="M 73.985, -36.709 
	L 73.984, -36.709 
	L 76.181, -37.134 
	L 76.535, -37.488 
" />
<path d="M 76.536, -38.268 
	L 76.535, -38.268 
	L 76.535, -34.866 
" />
<path d="M 73.205, -37.843 
	L 73.205, -37.843 
	L 72.850, -37.843 
	L 72.850, -38.268 
" />
<path d="M 73.205, -38.268 
	L 73.205, -38.268 
	L 73.205, -37.843 
" />
<path d="M 78.379, -6.733 
	L 78.378, -6.732 
	L 90.213, -6.732 
	L 93.118, -5.740 
	L 94.110, -4.748 
	L 95.102, -2.764 
	L 95.102, -0.780 
	L 94.110, 1.134 
	L 93.118, 2.126 
	L 90.213, 3.118 
	L 93.118, 4.110 
	L 94.110, 5.102 
" />
<path d="M 94.110, 5.102 
	L 95.102, 7.016 
	L 95.102, 9.992 
	L 94.110, 11.976 
	L 93.118, 12.969 
	L 90.213, 13.890 
	L 78.378, 13.890 
" />
<path d="M 81.355, 13.889 
	L 81.354, 13.890 
	L 81.354, -6.732 
" />
<path d="M 82.347, -6.733 
	L 82.346, -6.732 
	L 82.346, 13.890 
" />
<path d="M 90.213, 13.889 
	L 90.213, 13.890 
	L 92.126, 12.969 
	L 93.118, 11.976 
	L 94.110, 9.992 
	L 94.110, 7.016 
	L 93.118, 5.102 
	L 92.126, 4.110 
	L 90.213, 3.118 
	L 92.126, 2.126 
	L 93.118, 1.134 
	L 94.110, -0.780 
	L 94.110, -2.764 
" />
<path d="M 94.110, -2.764 
	L 93.118, -4.748 
	L 92.126, -5.740 
	L 90.213, -6.732 
" />
<path d="M 90.213, 3.117 
	L 90.213, 3.118 
	L 82.346, 3.118 
" />
<path d="M 82.489, 163.133 
	L 82.488, 163.134 
	L 80.504, 165.118 
	L 79.583, 167.032 
	L 78.591, 170.008 
	L 78.591, 174.898 
	L 79.583, 177.874 
	L 80.504, 179.858 
	L 82.488, 181.772 
	L 85.465, 182.764 
	L 87.378, 182.764 
	L 90.354, 181.772 
" />
<path d="M 90.354, 181.772 
	L 92.339, 179.858 
	L 93.331, 177.874 
" />
<path d="M 93.331, 168.023 
	L 93.331, 168.024 
	L 93.331, 162.142 
	L 92.339, 165.118 
	L 90.354, 163.134 
	L 87.378, 162.142 
	L 85.465, 162.142 
	L 82.488, 163.134 
" />
<path d="M 83.481, 163.133 
	L 83.480, 163.134 
	L 81.496, 165.118 
	L 80.504, 167.032 
	L 79.583, 170.008 
	L 79.583, 174.898 
	L 80.504, 177.874 
	L 81.496, 179.858 
	L 83.480, 181.772 
	L 85.465, 182.764 
" />
<path d="M 85.465, 162.141 
	L 85.465, 162.142 
	L 83.480, 163.134 
" />
<path d="M 92.339, 165.117 
	L 92.339, 165.118 
	L 93.331, 168.024 
" />
</g><g style="stroke:rgb(255,255,255); fill:none; stroke-width:0.100mm" >
</g>
</svg>
