<?xml version="1.0" encoding="UTF-8" standalone="no" ?>
<svg width="100%" height="100%" viewBox="0 0 227.977 229.253" xmlns="http://www.w3.org/2000/svg"><g>
</g><g style="stroke:rgb(0,0,0); fill:none; stroke-width:1.000mm" >
</g><g style="stroke:rgb(0,0,0); fill:none; stroke-width:0.100mm" >
<path d="M 104.528, 28.913 
	L 104.528, 28.914 
	L 105.165, 33.166 
" />
<path d="M 105.591, 36.000 
	L 105.591, 36.001 
	L 106.441, 41.670 
" />
<path d="M 106.867, 44.504 
	L 106.866, 44.505 
	L 107.717, 50.174 
" />
<path d="M 108.142, 53.008 
	L 108.142, 53.009 
	L 108.992, 58.678 
" />
<path d="M 109.418, 58.677 
	L 109.417, 58.678 
	L 113.244, 60.591 
" />
<path d="M 113.599, 60.449 
	L 113.598, 60.450 
	L 109.488, 58.394 
" />
<path d="M 109.631, 58.110 
	L 109.630, 58.111 
	L 113.953, 60.308 
" />
<path d="M 114.379, 60.165 
	L 114.378, 60.166 
	L 109.701, 57.827 
" />
<path d="M 109.772, 57.543 
	L 109.772, 57.544 
	L 114.732, 60.095 
" />
<path d="M 115.158, 59.953 
	L 115.157, 59.953 
	L 109.913, 57.331 
" />
<path d="M 110.056, 57.047 
	L 110.055, 57.048 
	L 115.512, 59.812 
" />
<path d="M 115.938, 59.669 
	L 115.937, 59.670 
	L 110.197, 56.835 
" />
<path d="M 110.339, 56.551 
	L 110.339, 56.552 
	L 116.291, 59.528 
" />
<path d="M 116.788, 59.811 
	L 116.787, 59.812 
	L 122.173, 62.505 
" />
<path d="M 122.103, 62.787 
	L 122.102, 62.788 
	L 116.858, 60.166 
" />
<path d="M 116.646, 60.378 
	L 116.646, 60.379 
	L 121.961, 63.072 
" />
<path d="M 121.890, 63.142 
	L 121.890, 63.142 
	L 122.386, 61.938 
	L 122.598, 60.662 
	L 122.598, 59.316 
	L 122.315, 58.040 
	L 121.748, 56.835 
	L 120.969, 55.772 
	L 120.047, 54.922 
	L 118.913, 54.213 
	L 117.709, 53.717 
	L 116.433, 53.505 
" />
<path d="M 116.433, 53.505 
	L 115.157, 53.505 
	L 113.882, 53.788 
	L 112.677, 54.355 
	L 111.614, 55.135 
	L 110.693, 56.056 
	L 109.984, 57.190 
	L 109.488, 58.394 
	L 109.276, 59.670 
	L 109.346, 60.946 
	L 109.630, 62.221 
	L 110.126, 63.426 
" />
<path d="M 110.126, 63.426 
	L 110.906, 64.489 
	L 111.827, 65.410 
	L 112.961, 66.119 
	L 114.165, 66.615 
	L 115.441, 66.827 
	L 116.787, 66.757 
	L 118.063, 66.473 
	L 119.268, 65.977 
	L 120.331, 65.198 
	L 121.252, 64.276 
	L 121.890, 63.142 
" />
<path d="M 121.890, 63.142 
" />
<path d="M 121.820, 63.283 
	L 121.819, 63.284 
	L 116.291, 60.520 
" />
<path d="M 116.576, 60.449 
	L 116.575, 60.450 
	L 116.787, 60.237 
	L 116.858, 59.883 
	L 116.787, 59.812 
	L 116.575, 59.599 
	L 116.291, 59.528 
	L 112.252, 60.875 
	L 112.039, 61.087 
	L 112.039, 61.442 
	L 112.039, 61.513 
	L 112.252, 61.725 
" />
<path d="M 112.252, 61.725 
	L 112.606, 61.725 
	L 116.575, 60.450 
" />
<path d="M 115.938, 60.661 
	L 115.937, 60.662 
	L 121.677, 63.568 
" />
<path d="M 121.536, 63.780 
	L 121.535, 63.780 
	L 115.512, 60.804 
" />
<path d="M 115.158, 60.874 
	L 115.157, 60.875 
	L 121.394, 64.064 
" />
<path d="M 121.182, 64.276 
	L 121.181, 64.276 
	L 114.732, 61.016 
" />
<path d="M 114.379, 61.157 
	L 114.378, 61.158 
	L 121.039, 64.489 
" />
<path d="M 120.827, 64.701 
	L 120.827, 64.702 
	L 114.024, 61.300 
" />
<path d="M 113.599, 61.441 
	L 113.598, 61.442 
	L 120.614, 64.914 
" />
<path d="M 120.402, 65.126 
	L 120.402, 65.127 
	L 113.244, 61.513 
" />
<path d="M 112.820, 61.654 
	L 112.819, 61.654 
	L 120.118, 65.339 
" />
<path d="M 119.906, 65.551 
	L 119.906, 65.552 
	L 112.394, 61.796 
" />
<path d="M 112.111, 61.654 
	L 112.110, 61.654 
	L 109.276, 60.237 
" />
<path d="M 109.276, 60.520 
	L 109.276, 60.520 
	L 119.622, 65.694 
" />
<path d="M 119.339, 65.906 
	L 119.339, 65.906 
	L 109.346, 60.875 
" />
<path d="M 109.347, 61.228 
	L 109.346, 61.229 
	L 119.055, 66.048 
" />
<path d="M 118.702, 66.260 
	L 118.701, 66.261 
	L 109.417, 61.583 
" />
<path d="M 109.418, 61.512 
	L 109.417, 61.513 
	L 110.268, 67.182 
" />
<path d="M 110.694, 70.016 
	L 110.693, 70.016 
	L 111.543, 75.686 
" />
<path d="M 111.969, 78.520 
	L 111.969, 78.520 
	L 112.819, 84.190 
" />
<path d="M 113.174, 87.024 
	L 113.173, 87.024 
	L 114.024, 92.694 
" />
<path d="M 114.450, 95.528 
	L 114.449, 95.528 
	L 115.299, 101.198 
" />
<path d="M 115.725, 104.032 
	L 115.724, 104.032 
	L 116.575, 109.702 
" />
<path d="M 117.001, 112.535 
	L 117.000, 112.536 
	L 117.850, 118.205 
" />
<path d="M 118.276, 121.039 
	L 118.276, 121.040 
	L 119.126, 126.709 
" />
<path d="M 119.552, 129.543 
	L 119.551, 129.544 
	L 120.402, 135.213 
" />
<path d="M 120.827, 138.047 
	L 120.827, 138.048 
	L 121.677, 143.717 
" />
<path d="M 122.103, 146.551 
	L 122.102, 146.552 
	L 122.882, 152.221 
" />
<path d="M 123.308, 155.055 
	L 123.307, 155.056 
	L 123.945, 159.308 
" />
<path d="M 137.198, 157.323 
	L 137.197, 157.324 
	L 136.559, 153.072 
" />
<path d="M 136.135, 150.236 
	L 136.134, 150.237 
	L 135.283, 144.568 
" />
<path d="M 134.859, 141.732 
	L 134.858, 141.733 
	L 134.008, 136.064 
" />
<path d="M 133.583, 133.228 
	L 133.583, 133.229 
	L 132.732, 127.560 
" />
<path d="M 132.308, 124.724 
	L 132.307, 124.725 
	L 131.457, 119.056 
" />
<path d="M 131.032, 116.220 
	L 131.032, 116.221 
	L 130.181, 110.552 
" />
<path d="M 129.757, 107.717 
	L 129.756, 107.717 
	L 128.906, 102.048 
" />
<path d="M 128.552, 99.213 
	L 128.551, 99.213 
	L 127.701, 93.544 
" />
<path d="M 127.276, 90.709 
	L 127.276, 90.709 
	L 126.425, 85.040 
" />
<path d="M 126.001, 82.205 
	L 126.000, 82.205 
	L 125.150, 76.536 
" />
<path d="M 124.725, 73.701 
	L 124.724, 73.702 
	L 123.874, 68.032 
" />
<path d="M 123.450, 65.197 
	L 123.449, 65.198 
	L 122.598, 59.528 
	L 112.465, 54.426 
" />
<path d="M 112.253, 54.638 
	L 112.252, 54.639 
	L 122.598, 59.812 
" />
<path d="M 122.599, 60.165 
	L 122.598, 60.166 
	L 111.969, 54.780 
" />
<path d="M 111.686, 54.992 
	L 111.685, 54.993 
	L 122.598, 60.520 
" />
<path d="M 122.599, 60.803 
	L 122.598, 60.804 
	L 111.472, 55.205 
" />
<path d="M 111.261, 55.417 
	L 111.260, 55.418 
	L 122.528, 61.087 
" />
<path d="M 122.528, 61.370 
	L 122.528, 61.371 
	L 111.047, 55.631 
" />
<path d="M 110.835, 55.843 
	L 110.835, 55.843 
	L 122.457, 61.654 
" />
<path d="M 122.387, 61.937 
	L 122.386, 61.938 
	L 110.693, 56.056 
" />
<path d="M 110.481, 56.339 
	L 110.480, 56.339 
	L 122.315, 62.221 
" />
<path d="M 120.473, 61.795 
	L 120.472, 61.796 
	L 120.756, 60.804 
	L 120.756, 59.670 
	L 120.543, 58.607 
	L 120.118, 57.615 
	L 119.409, 56.764 
	L 118.630, 56.127 
	L 117.638, 55.631 
	L 116.575, 55.347 
	L 115.512, 55.347 
	L 114.449, 55.560 
" />
<path d="M 114.449, 55.560 
	L 113.457, 55.985 
	L 112.606, 56.694 
	L 111.898, 57.544 
	L 111.402, 58.465 
	L 111.189, 59.528 
	L 111.118, 60.591 
	L 111.331, 61.654 
	L 111.827, 62.646 
	L 112.465, 63.497 
	L 113.315, 64.205 
	L 114.307, 64.702 
" />
<path d="M 114.307, 64.702 
	L 115.299, 64.985 
	L 116.433, 64.985 
	L 117.496, 64.772 
	L 118.488, 64.276 
	L 119.339, 63.639 
	L 119.976, 62.788 
	L 120.472, 61.796 
" />
<path d="M 122.528, 59.173 
	L 122.528, 59.174 
	L 112.819, 54.284 
" />
<path d="M 113.103, 54.142 
	L 113.102, 54.142 
	L 122.457, 58.820 
" />
<path d="M 122.387, 58.465 
	L 122.386, 58.465 
	L 113.457, 54.001 
" />
<path d="M 113.812, 53.858 
	L 113.811, 53.859 
	L 122.315, 58.111 
" />
<path d="M 122.174, 57.685 
	L 122.173, 57.686 
	L 114.236, 53.717 
" />
<path d="M 114.379, 53.646 
	L 114.378, 53.646 
	L 110.126, 41.528 
" />
<path d="M 110.339, 41.386 
	L 110.339, 41.387 
	L 114.732, 53.576 
" />
<path d="M 114.662, 53.575 
	L 114.661, 53.576 
	L 121.961, 57.261 
" />
<path d="M 121.749, 56.835 
	L 121.748, 56.835 
	L 115.157, 53.505 
" />
<path d="M 115.300, 53.504 
	L 115.299, 53.505 
	L 110.835, 41.032 
" />
<path d="M 110.623, 41.173 
	L 110.622, 41.174 
	L 115.016, 53.576 
" />
<path d="M 114.946, 53.575 
	L 114.945, 53.576 
	L 116.220, 53.221 
	L 117.425, 52.654 
	L 118.488, 51.875 
	L 119.339, 50.953 
	L 120.047, 49.820 
	L 120.472, 48.615 
	L 120.685, 47.268 
	L 120.614, 45.993 
	L 120.260, 44.717 
	L 119.693, 43.513 
" />
<path d="M 119.693, 43.513 
	L 118.913, 42.520 
	L 117.992, 41.599 
	L 116.858, 40.961 
	L 115.654, 40.465 
	L 114.307, 40.324 
	L 113.032, 40.324 
	L 111.756, 40.678 
	L 110.551, 41.245 
	L 109.488, 42.024 
	L 108.638, 42.946 
	L 107.929, 44.079 
" />
<path d="M 107.929, 44.079 
	L 107.504, 45.284 
	L 107.291, 46.631 
	L 107.362, 47.906 
	L 107.717, 49.182 
	L 108.283, 50.387 
	L 109.063, 51.450 
	L 109.984, 52.300 
	L 111.118, 53.009 
	L 112.323, 53.434 
	L 113.669, 53.646 
	L 114.945, 53.576 
" />
<path d="M 114.945, 53.576 
" />
<path d="M 115.583, 53.433 
	L 115.583, 53.434 
	L 113.315, 47.127 
	L 117.142, 48.969 
	L 117.425, 48.969 
	L 117.709, 48.757 
	L 117.709, 48.686 
	L 117.780, 48.402 
	L 117.567, 48.119 
	L 113.740, 46.347 
	L 113.386, 46.276 
	L 113.173, 46.489 
" />
<path d="M 113.173, 46.489 
	L 113.173, 46.631 
	L 113.102, 46.914 
	L 113.315, 47.127 
" />
<path d="M 113.670, 47.339 
	L 113.669, 47.339 
	L 115.866, 53.363 
" />
<path d="M 115.725, 53.504 
	L 115.724, 53.505 
	L 121.465, 56.410 
" />
<path d="M 121.040, 55.843 
	L 121.039, 55.843 
	L 116.362, 53.505 
" />
<path d="M 116.363, 53.150 
	L 116.362, 53.150 
	L 114.449, 47.694 
" />
<path d="M 114.804, 47.835 
	L 114.803, 47.835 
	L 116.646, 53.079 
" />
<path d="M 116.930, 52.937 
	L 116.929, 52.938 
	L 115.157, 48.048 
" />
<path d="M 115.513, 48.189 
	L 115.512, 48.190 
	L 117.142, 52.796 
" />
<path d="M 117.426, 52.654 
	L 117.425, 52.654 
	L 115.866, 48.402 
" />
<path d="M 116.292, 48.543 
	L 116.291, 48.544 
	L 117.638, 52.513 
" />
<path d="M 117.922, 52.370 
	L 117.921, 52.371 
	L 116.646, 48.686 
" />
<path d="M 117.001, 48.898 
	L 117.000, 48.898 
	L 118.134, 52.158 
" />
<path d="M 118.418, 51.945 
	L 118.417, 51.946 
	L 117.354, 49.040 
" />
<path d="M 117.568, 48.898 
	L 117.567, 48.898 
	L 118.630, 51.733 
" />
<path d="M 118.843, 51.520 
	L 118.843, 51.520 
	L 117.780, 48.544 
" />
<path d="M 117.639, 48.260 
	L 117.638, 48.261 
	L 114.874, 40.324 
" />
<path d="M 115.158, 40.394 
	L 115.157, 40.394 
	L 119.055, 51.308 
" />
<path d="M 119.268, 51.024 
	L 119.268, 51.024 
	L 115.512, 40.465 
" />
<path d="M 115.867, 40.535 
	L 115.866, 40.536 
	L 119.480, 50.741 
" />
<path d="M 119.694, 50.457 
	L 119.693, 50.457 
	L 116.220, 40.678 
" />
<path d="M 116.576, 40.819 
	L 116.575, 40.820 
	L 119.835, 50.103 
" />
<path d="M 120.048, 49.748 
	L 120.047, 49.749 
	L 116.929, 40.961 
" />
<path d="M 117.284, 41.173 
	L 117.283, 41.174 
	L 120.189, 49.394 
" />
<path d="M 120.331, 48.969 
	L 120.331, 48.969 
	L 117.638, 41.387 
" />
<path d="M 118.064, 41.669 
	L 118.063, 41.670 
	L 120.472, 48.473 
" />
<path d="M 120.615, 47.906 
	L 120.614, 47.906 
	L 118.488, 42.024 
" />
<path d="M 118.985, 42.520 
	L 118.984, 42.520 
	L 120.685, 47.198 
" />
<path d="M 120.615, 46.276 
	L 120.614, 46.276 
	L 119.551, 43.300 
" />
<path d="M 120.048, 42.520 
	L 120.047, 42.520 
	L 120.898, 48.190 
" />
<path d="M 118.702, 47.976 
	L 118.701, 47.977 
	L 118.843, 46.914 
	L 118.701, 45.851 
	L 118.346, 44.859 
	L 117.780, 43.938 
	L 117.000, 43.158 
	L 116.079, 42.591 
	L 115.016, 42.237 
	L 113.953, 42.095 
	L 112.890, 42.237 
	L 111.898, 42.591 
" />
<path d="M 111.898, 42.591 
	L 110.976, 43.158 
	L 110.197, 43.938 
	L 109.630, 44.859 
	L 109.276, 45.922 
	L 109.134, 46.985 
	L 109.276, 48.048 
	L 109.630, 49.040 
	L 110.197, 49.961 
	L 110.976, 50.741 
	L 111.898, 51.308 
	L 112.961, 51.662 
" />
<path d="M 112.961, 51.662 
	L 114.024, 51.804 
	L 115.087, 51.662 
	L 116.079, 51.308 
	L 117.000, 50.741 
	L 117.780, 49.961 
	L 118.346, 49.040 
	L 118.701, 47.977 
" />
<path d="M 117.284, 48.047 
	L 117.283, 48.048 
	L 114.520, 40.324 
" />
<path d="M 114.237, 40.252 
	L 114.236, 40.253 
	L 116.929, 47.835 
" />
<path d="M 116.576, 47.693 
	L 116.575, 47.694 
	L 113.953, 40.253 
" />
<path d="M 113.599, 40.323 
	L 113.598, 40.324 
	L 116.220, 47.481 
" />
<path d="M 115.796, 47.339 
	L 115.795, 47.339 
	L 113.315, 40.324 
" />
<path d="M 113.032, 40.323 
	L 113.032, 40.324 
	L 115.441, 47.127 
" />
<path d="M 115.087, 46.984 
	L 115.087, 46.985 
	L 112.748, 40.394 
" />
<path d="M 112.465, 40.465 
	L 112.465, 40.465 
	L 114.732, 46.772 
" />
<path d="M 114.379, 46.630 
	L 114.378, 46.631 
	L 112.181, 40.536 
" />
<path d="M 111.898, 40.606 
	L 111.898, 40.607 
	L 114.024, 46.418 
" />
<path d="M 113.599, 46.276 
	L 113.598, 46.276 
	L 111.685, 40.678 
" />
<path d="M 111.402, 40.819 
	L 111.402, 40.820 
	L 113.315, 46.347 
" />
<path d="M 113.103, 46.630 
	L 113.102, 46.631 
	L 111.118, 40.961 
" />
<path d="M 109.843, 41.669 
	L 109.843, 41.670 
	L 114.095, 53.646 
" />
<path d="M 113.812, 53.646 
	L 113.811, 53.646 
	L 109.630, 41.883 
" />
<path d="M 109.418, 42.094 
	L 109.417, 42.095 
	L 113.528, 53.576 
" />
<path d="M 113.174, 53.575 
	L 113.173, 53.576 
	L 109.205, 42.308 
" />
<path d="M 108.993, 42.591 
	L 108.992, 42.591 
	L 112.890, 53.505 
" />
<path d="M 112.536, 53.433 
	L 112.535, 53.434 
	L 108.780, 42.804 
" />
<path d="M 108.568, 43.087 
	L 108.567, 43.087 
	L 112.181, 53.363 
" />
<path d="M 111.827, 53.291 
	L 111.827, 53.292 
	L 108.354, 43.371 
" />
<path d="M 108.142, 43.724 
	L 108.142, 43.725 
	L 111.472, 53.150 
" />
<path d="M 111.119, 53.008 
	L 111.118, 53.009 
	L 108.000, 44.079 
" />
<path d="M 107.788, 44.433 
	L 107.787, 44.434 
	L 110.764, 52.796 
" />
<path d="M 110.410, 52.583 
	L 110.409, 52.583 
	L 107.646, 44.859 
" />
<path d="M 107.505, 45.354 
	L 107.504, 45.355 
	L 109.984, 52.300 
" />
<path d="M 109.560, 51.945 
	L 109.559, 51.946 
	L 107.433, 45.851 
" />
<path d="M 107.363, 46.488 
	L 107.362, 46.489 
	L 109.063, 51.520 
" />
<path d="M 108.568, 50.811 
	L 108.567, 50.812 
	L 107.362, 47.410 
" />
<path d="M 114.095, 47.480 
	L 114.095, 47.481 
	L 116.079, 53.292 
" />
<path d="M 117.213, 53.575 
	L 117.213, 53.576 
	L 120.472, 55.205 
" />
<path d="M 122.174, 56.693 
	L 122.173, 56.694 
	L 121.323, 51.024 
" />
<path d="M 119.623, 39.685 
	L 119.622, 39.686 
	L 118.843, 34.016 
" />
<path d="M 118.418, 31.181 
	L 118.417, 31.182 
	L 117.780, 26.930 
" />
<path d="M 112.820, 60.732 
	L 112.819, 60.733 
	L 109.417, 58.961 
" />
<path d="M 109.347, 59.244 
	L 109.346, 59.245 
	L 112.465, 60.804 
" />
<path d="M 112.111, 61.016 
	L 112.110, 61.016 
	L 109.276, 59.599 
" />
<path d="M 109.276, 59.882 
	L 109.276, 59.883 
	L 111.969, 61.229 
" />
<path d="M 109.489, 61.937 
	L 109.488, 61.938 
	L 118.346, 66.402 
" />
<path d="M 117.993, 66.472 
	L 117.992, 66.473 
	L 109.630, 62.292 
" />
<path d="M 109.772, 62.717 
	L 109.772, 62.717 
	L 117.567, 66.615 
" />
<path d="M 117.142, 66.685 
	L 117.142, 66.686 
	L 109.984, 63.142 
" />
<path d="M 110.198, 63.567 
	L 110.197, 63.568 
	L 116.646, 66.757 
" />
<path d="M 116.079, 66.827 
	L 116.079, 66.827 
	L 110.551, 64.064 
" />
<path d="M 110.977, 64.559 
	L 110.976, 64.560 
	L 115.370, 66.827 
" />
<path d="M 114.450, 66.685 
	L 114.449, 66.686 
	L 111.614, 65.198 
" />
<path d="M 111.615, 131.315 
	L 111.614, 131.316 
	L 110.409, 131.883 
	L 109.417, 132.733 
	L 108.567, 133.725 
	L 107.858, 134.859 
	L 107.504, 136.064 
	L 107.291, 137.410 
	L 107.433, 138.686 
	L 107.787, 139.961 
	L 108.354, 141.095 
" />
<path d="M 108.354, 141.095 
	L 109.134, 142.158 
	L 110.126, 143.009 
	L 111.260, 143.646 
	L 112.535, 144.072 
	L 113.811, 144.213 
	L 115.087, 144.142 
	L 116.362, 143.788 
	L 117.567, 143.221 
	L 118.559, 142.371 
	L 119.409, 141.379 
" />
<path d="M 119.409, 141.379 
	L 120.118, 140.245 
	L 120.472, 139.040 
	L 120.685, 137.694 
	L 120.543, 136.418 
	L 120.189, 135.142 
	L 119.622, 134.009 
	L 118.843, 132.946 
	L 117.850, 132.095 
	L 116.717, 131.457 
	L 115.441, 131.032 
" />
<path d="M 115.441, 131.032 
	L 114.165, 130.890 
	L 112.890, 130.961 
	L 111.614, 131.316 
" />
<path d="M 111.686, 131.315 
	L 111.685, 131.316 
	L 120.189, 135.142 
" />
<path d="M 120.331, 135.496 
	L 120.331, 135.497 
	L 111.260, 131.457 
" />
<path d="M 110.977, 131.598 
	L 110.976, 131.599 
	L 120.472, 135.851 
" />
<path d="M 120.544, 136.205 
	L 120.543, 136.205 
	L 110.622, 131.812 
" />
<path d="M 110.339, 131.953 
	L 110.339, 131.953 
	L 120.614, 136.560 
" />
<path d="M 120.615, 136.843 
	L 120.614, 136.843 
	L 110.055, 132.166 
" />
<path d="M 109.772, 132.378 
	L 109.772, 132.379 
	L 117.425, 135.780 
" />
<path d="M 117.284, 135.780 
	L 117.283, 135.780 
	L 113.386, 137.339 
	L 113.102, 137.552 
	L 113.102, 137.835 
	L 113.173, 137.906 
	L 107.646, 135.497 
" />
<path d="M 107.576, 135.780 
	L 107.575, 135.780 
	L 119.622, 141.095 
" />
<path d="M 119.765, 140.882 
	L 119.764, 140.883 
	L 113.669, 138.190 
	L 117.638, 136.631 
	L 117.850, 136.418 
	L 117.850, 136.135 
	L 117.850, 136.064 
	L 117.638, 135.780 
	L 117.283, 135.780 
" />
<path d="M 117.001, 135.921 
	L 117.000, 135.922 
	L 109.559, 132.591 
" />
<path d="M 109.347, 132.803 
	L 109.346, 132.804 
	L 116.646, 136.064 
" />
<path d="M 116.292, 136.205 
	L 116.291, 136.205 
	L 109.134, 133.016 
" />
<path d="M 108.922, 133.228 
	L 108.921, 133.229 
	L 115.866, 136.347 
" />
<path d="M 115.513, 136.488 
	L 115.512, 136.489 
	L 108.709, 133.442 
" />
<path d="M 108.568, 133.654 
	L 108.567, 133.654 
	L 115.157, 136.631 
" />
<path d="M 114.733, 136.772 
	L 114.732, 136.772 
	L 108.354, 133.938 
" />
<path d="M 108.213, 134.150 
	L 108.213, 134.150 
	L 114.378, 136.914 
" />
<path d="M 114.024, 137.055 
	L 114.024, 137.056 
	L 108.071, 134.434 
" />
<path d="M 108.001, 134.646 
	L 108.000, 134.646 
	L 113.598, 137.198 
" />
<path d="M 113.245, 137.339 
	L 113.244, 137.339 
	L 107.858, 134.930 
" />
<path d="M 107.717, 135.213 
	L 107.717, 135.213 
	L 113.102, 137.623 
" />
<path d="M 113.174, 137.906 
	L 113.173, 137.906 
	L 113.386, 138.119 
	L 113.669, 138.190 
" />
<path d="M 114.024, 138.047 
	L 114.024, 138.048 
	L 119.906, 140.599 
" />
<path d="M 120.048, 140.386 
	L 120.047, 140.387 
	L 114.449, 137.906 
" />
<path d="M 114.804, 137.693 
	L 114.803, 137.694 
	L 120.118, 140.103 
" />
<path d="M 120.261, 139.819 
	L 120.260, 139.820 
	L 115.157, 137.552 
" />
<path d="M 115.583, 137.409 
	L 115.583, 137.410 
	L 120.331, 139.536 
" />
<path d="M 120.402, 139.323 
	L 120.402, 139.324 
	L 115.937, 137.268 
" />
<path d="M 116.292, 137.126 
	L 116.291, 137.127 
	L 120.472, 139.040 
" />
<path d="M 120.544, 138.685 
	L 120.543, 138.686 
	L 116.717, 136.985 
" />
<path d="M 117.072, 136.843 
	L 117.071, 136.843 
	L 120.614, 138.402 
" />
<path d="M 120.615, 138.118 
	L 120.614, 138.119 
	L 117.425, 136.702 
" />
<path d="M 117.780, 136.559 
	L 117.780, 136.560 
	L 120.685, 137.835 
" />
<path d="M 120.686, 137.480 
	L 120.685, 137.481 
	L 117.850, 136.276 
" />
<path d="M 117.709, 135.921 
	L 117.709, 135.922 
	L 120.685, 137.198 
" />
<path d="M 118.772, 136.843 
	L 118.772, 136.843 
	L 118.488, 135.851 
	L 117.992, 134.859 
	L 117.283, 134.009 
	L 116.433, 133.371 
	L 115.441, 132.946 
	L 114.378, 132.733 
	L 113.315, 132.733 
	L 112.252, 133.016 
	L 111.260, 133.513 
" />
<path d="M 111.260, 133.513 
	L 110.480, 134.221 
	L 109.843, 135.072 
	L 109.346, 136.064 
	L 109.134, 137.127 
	L 109.205, 138.261 
	L 109.488, 139.253 
	L 109.984, 140.245 
	L 110.693, 141.095 
	L 111.543, 141.733 
	L 112.535, 142.158 
" />
<path d="M 112.535, 142.158 
	L 113.598, 142.371 
	L 114.661, 142.371 
	L 115.724, 142.087 
	L 116.717, 141.591 
	L 117.496, 140.883 
	L 118.134, 140.032 
	L 118.630, 139.040 
	L 118.843, 137.977 
	L 118.772, 136.843 
" />
<path d="M 120.048, 134.717 
	L 120.047, 134.717 
	L 112.039, 131.174 
" />
<path d="M 112.465, 131.032 
	L 112.465, 131.032 
	L 119.835, 134.292 
" />
<path d="M 119.552, 133.866 
	L 119.551, 133.867 
	L 112.961, 130.961 
" />
<path d="M 113.528, 130.890 
	L 113.528, 130.890 
	L 119.197, 133.442 
" />
<path d="M 118.772, 132.874 
	L 118.772, 132.875 
	L 114.236, 130.890 
" />
<path d="M 115.158, 130.961 
	L 115.157, 130.961 
	L 118.063, 132.308 
" />
<path d="M 119.481, 141.378 
	L 119.480, 141.379 
	L 107.504, 136.064 
" />
<path d="M 107.434, 136.346 
	L 107.433, 136.347 
	L 119.268, 141.591 
" />
<path d="M 119.127, 141.803 
	L 119.126, 141.804 
	L 107.362, 136.631 
" />
<path d="M 107.363, 136.913 
	L 107.362, 136.914 
	L 118.913, 142.087 
" />
<path d="M 118.702, 142.299 
	L 118.701, 142.300 
	L 107.291, 137.198 
" />
<path d="M 107.292, 137.551 
	L 107.291, 137.552 
	L 118.488, 142.513 
" />
<path d="M 118.205, 142.724 
	L 118.205, 142.725 
	L 107.291, 137.835 
" />
<path d="M 107.363, 138.189 
	L 107.362, 138.190 
	L 117.992, 142.938 
" />
<path d="M 117.709, 143.079 
	L 117.709, 143.079 
	L 107.362, 138.473 
" />
<path d="M 107.434, 138.827 
	L 107.433, 138.828 
	L 117.425, 143.292 
" />
<path d="M 117.072, 143.433 
	L 117.071, 143.434 
	L 107.504, 139.182 
" />
<path d="M 107.646, 139.535 
	L 107.646, 139.536 
	L 116.787, 143.646 
" />
<path d="M 116.434, 143.787 
	L 116.433, 143.788 
	L 107.717, 139.890 
" />
<path d="M 107.930, 140.315 
	L 107.929, 140.316 
	L 116.008, 143.930 
" />
<path d="M 115.583, 144.000 
	L 115.583, 144.001 
	L 108.071, 140.670 
" />
<path d="M 108.355, 141.095 
	L 108.354, 141.095 
	L 115.087, 144.142 
" />
<path d="M 114.520, 144.213 
	L 114.520, 144.213 
	L 108.638, 141.591 
" />
<path d="M 109.064, 142.087 
	L 109.063, 142.087 
	L 113.882, 144.213 
" />
<path d="M 113.032, 144.142 
	L 113.032, 144.142 
	L 109.701, 142.654 
" />
<path d="M 104.457, 129.118 
	L 104.457, 129.119 
	L 103.606, 129.969 
	L 102.331, 130.394 
	L 97.937, 130.394 
" />
<path d="M 99.213, 130.394 
	L 99.213, 130.394 
	L 99.213, 121.253 
" />
<path d="M 99.709, 121.252 
	L 99.709, 121.253 
	L 99.709, 130.394 
" />
<path d="M 102.331, 130.394 
	L 102.331, 130.394 
	L 103.181, 129.969 
	L 104.032, 129.119 
	L 104.457, 128.268 
	L 104.882, 126.922 
	L 104.882, 124.725 
	L 104.457, 123.450 
	L 104.032, 122.528 
	L 103.181, 121.678 
	L 102.331, 121.253 
" />
<path d="M 102.331, 121.253 
	L 103.606, 121.678 
	L 104.457, 122.528 
	L 104.882, 123.450 
	L 105.378, 124.725 
	L 105.378, 126.922 
	L 104.882, 128.268 
	L 104.457, 129.119 
" />
<path d="M 102.331, 121.252 
	L 102.331, 121.253 
	L 97.937, 121.253 
" />
<path d="M 97.725, 68.315 
	L 97.724, 68.316 
	L 99.000, 68.741 
	L 99.921, 68.741 
	L 101.197, 68.316 
	L 102.118, 67.465 
	L 102.543, 66.615 
" />
<path d="M 102.544, 62.220 
	L 102.543, 62.221 
	L 102.543, 59.599 
	L 102.118, 60.946 
	L 101.197, 60.024 
	L 99.921, 59.599 
	L 99.000, 59.599 
	L 97.724, 60.024 
	L 96.874, 60.946 
	L 96.378, 61.796 
	L 95.953, 63.072 
	L 95.953, 65.268 
" />
<path d="M 95.953, 65.268 
	L 96.378, 66.615 
	L 96.874, 67.465 
	L 97.724, 68.316 
" />
<path d="M 98.150, 68.315 
	L 98.150, 68.316 
	L 99.000, 68.741 
" />
<path d="M 98.150, 68.315 
	L 98.150, 68.316 
	L 97.299, 67.465 
	L 96.874, 66.615 
	L 96.378, 65.268 
	L 96.378, 63.072 
	L 96.874, 61.796 
	L 97.299, 60.946 
	L 98.150, 60.024 
	L 99.000, 59.599 
" />
<path d="M 102.119, 60.945 
	L 102.118, 60.946 
	L 102.543, 62.221 
" />
<path d="M 104.245, 54.283 
	L 104.244, 54.284 
	L 99.425, 54.993 
	L 94.677, 55.985 
	L 89.929, 57.190 
	L 85.323, 58.749 
	L 80.787, 60.591 
	L 76.323, 62.646 
	L 72.071, 64.914 
	L 67.890, 67.465 
	L 63.921, 70.300 
	L 60.094, 73.347 
" />
<path d="M 60.094, 73.347 
	L 56.480, 76.536 
	L 53.008, 80.009 
	L 49.748, 83.623 
	L 46.701, 87.450 
	L 43.937, 91.489 
	L 41.386, 95.599 
	L 39.047, 99.922 
	L 36.992, 104.316 
	L 35.220, 108.851 
	L 33.661, 113.528 
	L 32.386, 118.205 
" />
<path d="M 32.386, 118.205 
	L 31.394, 123.024 
	L 30.685, 127.843 
	L 30.260, 132.662 
	L 30.118, 137.552 
	L 30.260, 142.442 
	L 30.685, 147.261 
	L 31.394, 152.079 
	L 32.386, 156.898 
	L 33.661, 161.576 
	L 35.220, 166.253 
	L 36.992, 170.788 
" />
<path d="M 36.992, 170.788 
	L 39.047, 175.182 
	L 41.386, 179.505 
	L 43.937, 183.615 
	L 46.701, 187.654 
	L 49.748, 191.481 
	L 53.008, 195.095 
	L 56.480, 198.568 
	L 60.094, 201.757 
	L 63.921, 204.804 
	L 67.890, 207.639 
	L 72.071, 210.190 
" />
<path d="M 72.071, 210.190 
	L 76.323, 212.457 
	L 80.787, 214.513 
	L 85.323, 216.355 
	L 89.929, 217.914 
	L 94.677, 219.119 
	L 99.425, 220.111 
	L 104.244, 220.820 
	L 109.134, 221.245 
	L 114.024, 221.387 
	L 118.843, 221.245 
" />
<path d="M 118.843, 221.245 
	L 123.732, 220.820 
	L 128.551, 220.111 
	L 133.299, 219.119 
	L 138.047, 217.914 
	L 142.654, 216.355 
	L 147.189, 214.513 
	L 151.654, 212.457 
	L 155.906, 210.190 
	L 160.087, 207.639 
	L 164.055, 204.804 
" />
<path d="M 164.055, 204.804 
	L 167.882, 201.757 
	L 171.496, 198.568 
	L 174.969, 195.095 
	L 178.228, 191.481 
	L 181.276, 187.654 
	L 184.039, 183.615 
	L 186.591, 179.505 
	L 188.929, 175.182 
	L 190.984, 170.788 
	L 192.756, 166.253 
" />
<path d="M 192.756, 166.253 
	L 194.315, 161.576 
	L 195.591, 156.898 
	L 196.583, 152.079 
	L 197.291, 147.261 
	L 197.717, 142.442 
	L 197.858, 137.552 
	L 197.717, 132.662 
	L 197.291, 127.843 
	L 196.583, 123.024 
	L 195.591, 118.205 
" />
<path d="M 195.591, 118.205 
	L 194.315, 113.528 
	L 192.756, 108.851 
	L 190.984, 104.316 
	L 188.929, 99.922 
	L 186.591, 95.599 
	L 184.039, 91.489 
	L 181.276, 87.450 
	L 178.228, 83.623 
	L 174.969, 80.009 
	L 171.496, 76.536 
" />
<path d="M 171.496, 76.536 
	L 167.882, 73.347 
	L 164.055, 70.300 
	L 160.087, 67.465 
	L 155.906, 64.914 
	L 151.654, 62.646 
	L 147.189, 60.591 
	L 142.654, 58.749 
	L 138.047, 57.190 
	L 133.299, 55.985 
	L 128.551, 54.993 
	L 123.732, 54.284 
" />
<path d="M 123.732, 54.284 
	L 118.843, 53.859 
	L 113.953, 53.717 
	L 109.134, 53.859 
	L 104.244, 54.284 
" />
<path d="M 106.016, 82.205 
	L 106.016, 82.205 
	L 102.118, 82.914 
	L 98.220, 83.906 
	L 94.465, 85.182 
	L 90.780, 86.670 
	L 87.165, 88.513 
	L 83.764, 90.497 
	L 80.504, 92.835 
	L 77.386, 95.316 
	L 74.480, 98.009 
	L 71.717, 100.914 
" />
<path d="M 71.717, 100.914 
	L 69.236, 104.032 
	L 66.969, 107.363 
	L 64.913, 110.765 
	L 63.142, 114.308 
	L 61.583, 117.993 
	L 60.378, 121.820 
	L 59.386, 125.646 
	L 58.677, 129.615 
	L 58.252, 133.583 
	L 58.110, 137.552 
	L 58.252, 141.520 
" />
<path d="M 58.252, 141.520 
	L 58.677, 145.489 
	L 59.386, 149.457 
	L 60.378, 153.284 
	L 61.583, 157.111 
	L 63.142, 160.796 
	L 64.913, 164.339 
	L 66.969, 167.741 
	L 69.236, 171.072 
	L 71.717, 174.190 
	L 74.480, 177.095 
	L 77.386, 179.788 
" />
<path d="M 77.386, 179.788 
	L 80.504, 182.268 
	L 83.764, 184.607 
	L 87.165, 186.591 
	L 90.780, 188.434 
	L 94.465, 189.922 
	L 98.220, 191.198 
	L 102.118, 192.190 
	L 106.016, 192.898 
	L 109.984, 193.324 
	L 114.024, 193.465 
" />
<path d="M 114.024, 193.465 
	L 117.992, 193.324 
	L 121.961, 192.898 
	L 125.858, 192.190 
	L 129.756, 191.198 
	L 133.512, 189.922 
	L 137.197, 188.434 
	L 140.811, 186.591 
	L 144.213, 184.607 
	L 147.472, 182.268 
	L 150.591, 179.788 
" />
<path d="M 150.591, 179.788 
	L 153.496, 177.095 
	L 156.260, 174.190 
	L 158.740, 171.072 
	L 161.008, 167.741 
	L 163.063, 164.339 
	L 164.835, 160.796 
	L 166.394, 157.111 
	L 167.598, 153.284 
	L 168.591, 149.457 
	L 169.299, 145.489 
" />
<path d="M 169.299, 145.489 
	L 169.724, 141.520 
	L 169.866, 137.552 
	L 169.724, 133.583 
	L 169.299, 129.615 
	L 168.591, 125.646 
	L 167.598, 121.820 
	L 166.394, 117.993 
	L 164.835, 114.308 
	L 163.063, 110.765 
	L 161.008, 107.363 
" />
<path d="M 161.008, 107.363 
	L 158.740, 104.032 
	L 156.260, 100.914 
	L 153.496, 98.009 
	L 150.591, 95.316 
	L 147.472, 92.835 
	L 144.213, 90.497 
	L 140.811, 88.513 
	L 137.197, 86.670 
	L 133.512, 85.182 
	L 129.756, 83.906 
" />
<path d="M 129.756, 83.906 
	L 125.858, 82.914 
	L 121.961, 82.205 
	L 117.992, 81.780 
	L 113.953, 81.639 
	L 109.984, 81.780 
	L 106.016, 82.205 
" />
<path d="M 105.875, 110.835 
	L 105.874, 110.835 
	L 103.323, 111.757 
	L 100.843, 112.890 
	L 98.433, 114.308 
	L 96.236, 115.938 
	L 94.252, 117.780 
	L 92.409, 119.835 
	L 90.780, 122.032 
	L 89.362, 124.371 
	L 88.157, 126.851 
" />
<path d="M 88.157, 126.851 
	L 87.236, 129.473 
	L 86.598, 132.095 
	L 86.173, 134.788 
	L 86.032, 137.552 
	L 86.173, 140.316 
	L 86.598, 143.009 
	L 87.236, 145.631 
	L 88.157, 148.253 
	L 89.362, 150.733 
	L 90.780, 153.072 
	L 92.409, 155.268 
" />
<path d="M 92.409, 155.268 
	L 94.252, 157.324 
	L 96.236, 159.166 
	L 98.433, 160.796 
	L 100.843, 162.213 
	L 103.323, 163.347 
	L 105.874, 164.268 
	L 108.567, 164.977 
	L 111.260, 165.402 
	L 113.953, 165.473 
	L 116.717, 165.402 
" />
<path d="M 116.717, 165.402 
	L 119.409, 164.977 
	L 122.102, 164.268 
	L 124.654, 163.347 
	L 127.134, 162.213 
	L 129.543, 160.796 
	L 131.740, 159.166 
	L 133.724, 157.324 
	L 135.567, 155.268 
	L 137.197, 153.072 
	L 138.614, 150.733 
" />
<path d="M 138.614, 150.733 
	L 139.819, 148.253 
	L 140.740, 145.631 
	L 141.378, 143.009 
	L 141.803, 140.316 
	L 141.945, 137.552 
	L 141.803, 134.788 
	L 141.378, 132.095 
	L 140.740, 129.473 
	L 139.819, 126.851 
	L 138.614, 124.371 
" />
<path d="M 138.614, 124.371 
	L 137.197, 122.032 
	L 135.567, 119.835 
	L 133.724, 117.780 
	L 131.740, 115.938 
	L 129.543, 114.308 
	L 127.134, 112.890 
	L 124.654, 111.757 
	L 122.102, 110.835 
	L 119.409, 110.127 
	L 116.717, 109.702 
" />
<path d="M 116.717, 109.702 
	L 114.024, 109.631 
	L 111.260, 109.702 
	L 108.567, 110.127 
	L 105.874, 110.835 
" />
<path d="M 109.064, 132.591 
	L 109.063, 132.591 
	L 108.213, 133.654 
	L 107.504, 134.859 
	L 107.150, 136.205 
	L 107.008, 137.552 
	L 107.150, 138.898 
	L 107.504, 140.245 
	L 108.213, 141.450 
	L 109.063, 142.513 
	L 110.126, 143.363 
" />
<path d="M 110.126, 143.363 
	L 111.331, 144.001 
	L 112.606, 144.426 
	L 113.953, 144.568 
	L 115.370, 144.426 
	L 116.646, 144.001 
	L 117.850, 143.363 
	L 118.913, 142.513 
	L 119.764, 141.450 
	L 120.472, 140.245 
	L 120.827, 138.898 
" />
<path d="M 120.827, 138.898 
	L 120.969, 137.552 
	L 120.827, 136.205 
	L 120.472, 134.859 
	L 119.764, 133.654 
	L 118.913, 132.591 
	L 117.850, 131.741 
	L 116.646, 131.103 
	L 115.370, 130.678 
	L 114.024, 130.536 
	L 112.606, 130.678 
" />
<path d="M 112.606, 130.678 
	L 111.331, 131.103 
	L 110.126, 131.741 
	L 109.063, 132.591 
" />
<path d="M 114.024, 229.252 
	L 114.024, 229.253 
	L 114.024, 0.001 
" />
<path d="M 126.355, 36.709 
	L 126.354, 36.709 
	L 131.598, 36.709 
	L 132.874, 37.135 
	L 133.299, 37.560 
	L 133.724, 38.410 
	L 133.724, 39.331 
	L 133.299, 40.182 
	L 132.874, 40.607 
	L 131.598, 41.032 
	L 132.874, 41.457 
	L 133.299, 41.953 
" />
<path d="M 133.299, 41.953 
	L 133.724, 42.804 
	L 133.724, 44.079 
	L 133.299, 45.001 
	L 132.874, 45.426 
	L 131.598, 45.851 
	L 126.354, 45.851 
" />
<path d="M 127.631, 45.850 
	L 127.630, 45.851 
	L 127.630, 36.709 
" />
<path d="M 128.056, 36.709 
	L 128.055, 36.709 
	L 128.055, 45.851 
" />
<path d="M 131.599, 45.850 
	L 131.598, 45.851 
	L 132.449, 45.426 
	L 132.874, 45.001 
	L 133.299, 44.079 
	L 133.299, 42.804 
	L 132.874, 41.953 
	L 132.449, 41.457 
	L 131.598, 41.032 
	L 132.449, 40.607 
	L 132.874, 40.182 
	L 133.299, 39.331 
" />
<path d="M 133.299, 39.331 
	L 133.299, 38.410 
	L 132.874, 37.560 
	L 132.449, 37.135 
	L 131.598, 36.709 
" />
<path d="M 131.599, 41.032 
	L 131.598, 41.032 
	L 128.055, 41.032 
" />
<path d="M 218.835, 0.000 
	L 218.835, 0.001 
	L 218.835, 229.253 
" />
<path d="M 227.977, 221.386 
	L 227.976, 221.387 
	L 0.000, 221.387 
" />
<path d="M 9.142, 229.252 
	L 9.142, 229.253 
	L 9.142, 0.001 
" />
<path d="M 0.001, 137.551 
	L 0.000, 137.552 
	L 227.976, 137.552 
" />
</g><g style="stroke:rgb(255,255,255); fill:none; stroke-width:0.100mm" >
</g>
</svg>
