<?xml version="1.0" encoding="UTF-8" standalone="no" ?>
<svg width="100%" height="100%" viewBox="0 0 171.992 195.945" xmlns="http://www.w3.org/2000/svg"><g>
</g><g style="stroke:rgb(0,0,0); fill:none; stroke-width:1.000mm" >
</g><g style="stroke:rgb(0,0,0); fill:none; stroke-width:0.100mm" >
<path d="M 104.670, 109.984 
	L 104.669, 109.984 
	L 104.528, 107.362 
	L 104.173, 104.811 
	L 103.465, 102.260 
	L 102.543, 99.850 
	L 101.339, 97.512 
	L 99.921, 95.315 
	L 98.291, 93.260 
	L 96.449, 91.417 
	L 94.394, 89.787 
	L 92.197, 88.370 
" />
<path d="M 92.197, 88.370 
	L 89.858, 87.165 
	L 87.449, 86.244 
	L 84.898, 85.535 
	L 82.276, 85.110 
	L 79.654, 84.969 
	L 77.102, 85.110 
	L 74.480, 85.535 
	L 71.929, 86.244 
	L 69.520, 87.165 
	L 67.181, 88.370 
	L 64.984, 89.787 
" />
<path d="M 64.984, 89.787 
	L 62.929, 91.417 
	L 61.087, 93.260 
	L 59.457, 95.315 
	L 58.039, 97.512 
	L 56.835, 99.850 
	L 55.913, 102.260 
	L 55.205, 104.811 
	L 54.780, 107.362 
	L 54.709, 109.984 
	L 54.780, 112.606 
	L 55.205, 115.228 
" />
<path d="M 55.205, 115.228 
	L 55.913, 117.709 
	L 56.835, 120.189 
	L 58.039, 122.528 
	L 59.457, 124.724 
	L 61.087, 126.709 
	L 62.929, 128.622 
	L 64.984, 130.252 
	L 67.181, 131.669 
	L 69.520, 132.874 
	L 71.929, 133.795 
	L 74.480, 134.504 
" />
<path d="M 74.480, 134.504 
	L 77.102, 134.858 
	L 79.654, 135.000 
	L 82.276, 134.858 
	L 84.898, 134.504 
	L 87.449, 133.795 
	L 89.858, 132.874 
	L 92.197, 131.669 
	L 94.394, 130.252 
	L 96.449, 128.622 
	L 98.291, 126.709 
	L 99.921, 124.724 
" />
<path d="M 99.921, 124.724 
	L 101.339, 122.528 
	L 102.543, 120.189 
	L 103.465, 117.709 
	L 104.173, 115.228 
	L 104.528, 112.606 
	L 104.669, 109.984 
" />
<path d="M 79.654, 109.984 
	L 79.654, 109.984 
	L 79.654, 113.882 
" />
<path d="M 79.654, 116.078 
	L 79.654, 116.079 
	L 79.654, 120.331 
" />
<path d="M 79.654, 122.527 
	L 79.654, 122.528 
	L 79.654, 126.780 
" />
<path d="M 79.654, 128.976 
	L 79.654, 128.976 
	L 79.654, 133.228 
" />
<path d="M 79.654, 135.425 
	L 79.654, 135.425 
	L 79.654, 139.677 
" />
<path d="M 79.654, 141.873 
	L 79.654, 141.874 
	L 79.654, 146.126 
" />
<path d="M 79.654, 148.322 
	L 79.654, 148.323 
	L 79.654, 152.575 
" />
<path d="M 79.654, 154.771 
	L 79.654, 154.772 
	L 79.654, 159.024 
" />
<path d="M 79.654, 161.220 
	L 79.654, 161.220 
	L 79.654, 165.472 
" />
<path d="M 79.654, 167.598 
	L 79.654, 167.598 
	L 79.654, 171.567 
" />
<path d="M 124.583, 166.110 
	L 124.583, 166.110 
	L 48.402, 70.937 
	L 0.000, 101.622 
" />
<path d="M 29.835, 87.661 
	L 29.835, 87.661 
	L 31.677, 89.504 
	L 33.732, 91.205 
	L 35.929, 92.622 
	L 38.268, 93.827 
	L 40.677, 94.748 
	L 43.228, 95.386 
	L 45.850, 95.811 
	L 48.402, 95.953 
	L 51.024, 95.811 
	L 53.646, 95.386 
" />
<path d="M 53.646, 95.386 
	L 56.126, 94.748 
	L 58.606, 93.827 
	L 60.945, 92.622 
	L 63.142, 91.205 
	L 65.197, 89.504 
	L 67.039, 87.661 
	L 68.669, 85.677 
	L 70.087, 83.480 
	L 71.291, 81.142 
	L 72.213, 78.661 
	L 72.921, 76.110 
" />
<path d="M 72.921, 76.110 
	L 73.276, 73.559 
	L 73.417, 70.937 
	L 73.276, 68.315 
	L 72.921, 65.764 
	L 72.213, 63.213 
	L 71.291, 60.803 
	L 70.087, 58.465 
	L 68.669, 56.268 
	L 67.039, 54.213 
	L 65.197, 52.370 
	L 63.142, 50.740 
" />
<path d="M 63.142, 50.740 
	L 60.945, 49.252 
	L 58.606, 48.118 
	L 56.126, 47.126 
	L 53.646, 46.488 
	L 51.024, 46.063 
	L 48.402, 45.921 
	L 45.850, 46.063 
	L 43.228, 46.488 
	L 40.677, 47.126 
	L 38.268, 48.118 
	L 35.929, 49.252 
" />
<path d="M 35.929, 49.252 
	L 33.732, 50.740 
	L 31.677, 52.370 
	L 29.835, 54.213 
	L 28.205, 56.268 
	L 26.787, 58.465 
	L 25.583, 60.803 
	L 24.661, 63.213 
	L 23.953, 65.764 
	L 23.528, 68.315 
	L 23.386, 70.937 
	L 23.528, 73.559 
" />
<path d="M 23.528, 73.559 
	L 23.953, 76.110 
	L 24.661, 78.661 
	L 25.583, 81.142 
	L 26.787, 83.480 
	L 28.205, 85.677 
	L 29.835, 87.661 
" />
<path d="M 19.489, 71.078 
	L 19.488, 71.079 
	L 18.709, 69.449 
	L 17.858, 68.598 
	L 15.378, 67.819 
	L 17.858, 66.969 
	L 18.709, 66.118 
	L 19.488, 64.488 
	L 19.488, 62.858 
	L 18.709, 61.228 
	L 17.858, 60.449 
	L 15.378, 59.598 
" />
<path d="M 15.378, 59.598 
	L 17.008, 60.449 
	L 17.858, 61.228 
	L 18.709, 62.858 
	L 18.709, 64.488 
	L 17.858, 66.118 
	L 17.008, 66.969 
	L 15.378, 67.819 
	L 17.008, 68.598 
	L 17.858, 69.449 
	L 18.709, 71.079 
	L 18.709, 73.488 
" />
<path d="M 18.709, 73.488 
	L 17.858, 75.189 
	L 17.008, 75.969 
	L 15.378, 76.819 
	L 5.598, 76.819 
" />
<path d="M 8.009, 76.818 
	L 8.008, 76.819 
	L 8.008, 59.598 
" />
<path d="M 8.859, 59.598 
	L 8.858, 59.598 
	L 8.858, 76.819 
" />
<path d="M 15.379, 76.818 
	L 15.378, 76.819 
	L 17.858, 75.969 
	L 18.709, 75.189 
	L 19.488, 73.488 
	L 19.488, 71.079 
" />
<path d="M 15.379, 67.818 
	L 15.378, 67.819 
	L 8.858, 67.819 
" />
<path d="M 5.599, 59.598 
	L 5.598, 59.598 
	L 15.378, 59.598 
" />
<path d="M 62.009, 49.535 
	L 62.008, 49.535 
	L 62.929, 50.457 
	L 64.984, 52.087 
	L 65.339, 52.370 
" />
<path d="M 67.182, 53.574 
	L 67.181, 53.575 
	L 69.520, 54.709 
	L 71.150, 55.346 
" />
<path d="M 73.205, 55.984 
	L 73.205, 55.984 
	L 74.480, 56.339 
	L 77.102, 56.764 
	L 77.528, 56.764 
" />
<path d="M 79.654, 56.905 
	L 79.654, 56.906 
	L 82.276, 56.764 
	L 84.047, 56.480 
" />
<path d="M 86.174, 55.984 
	L 86.173, 55.984 
	L 87.449, 55.701 
	L 89.858, 54.709 
	L 90.213, 54.567 
" />
<path d="M 92.198, 53.574 
	L 92.197, 53.575 
	L 94.394, 52.087 
	L 95.740, 51.024 
" />
<path d="M 97.371, 49.535 
	L 97.370, 49.535 
	L 98.291, 48.614 
	L 99.921, 46.559 
	L 100.134, 46.205 
" />
<path d="M 101.339, 44.362 
	L 101.339, 44.362 
	L 102.543, 42.024 
	L 103.181, 40.394 
" />
<path d="M 103.820, 38.338 
	L 103.819, 38.339 
	L 104.173, 37.063 
	L 104.528, 34.512 
	L 104.598, 34.087 
" />
<path d="M 104.670, 31.889 
	L 104.669, 31.890 
	L 104.528, 29.268 
	L 104.315, 27.567 
" />
<path d="M 103.820, 25.440 
	L 103.819, 25.441 
	L 103.465, 24.165 
	L 102.543, 21.685 
	L 102.331, 21.331 
" />
<path d="M 101.339, 19.346 
	L 101.339, 19.346 
	L 99.921, 17.150 
	L 98.787, 15.803 
" />
<path d="M 97.371, 14.243 
	L 97.370, 14.244 
	L 96.449, 13.323 
	L 94.394, 11.622 
	L 94.039, 11.409 
" />
<path d="M 92.198, 10.204 
	L 92.197, 10.205 
	L 89.858, 9.000 
	L 88.228, 8.433 
" />
<path d="M 86.174, 7.724 
	L 86.173, 7.724 
	L 84.898, 7.441 
	L 82.276, 7.016 
	L 81.850, 7.016 
" />
<path d="M 79.654, 6.873 
	L 79.654, 6.874 
	L 77.102, 7.016 
	L 75.331, 7.299 
" />
<path d="M 73.205, 7.724 
	L 73.205, 7.724 
	L 71.929, 8.079 
	L 69.520, 9.000 
	L 69.094, 9.213 
" />
<path d="M 67.182, 10.204 
	L 67.181, 10.205 
	L 64.984, 11.622 
	L 63.638, 12.756 
" />
<path d="M 62.009, 14.243 
	L 62.008, 14.244 
	L 61.087, 15.165 
	L 59.457, 17.150 
	L 59.244, 17.575 
" />
<path d="M 58.040, 19.346 
	L 58.039, 19.346 
	L 56.835, 21.685 
	L 56.197, 23.315 
" />
<path d="M 55.560, 25.440 
	L 55.559, 25.441 
	L 55.205, 26.717 
	L 54.780, 29.268 
	L 54.780, 29.693 
" />
<path d="M 54.709, 31.889 
	L 54.709, 31.890 
	L 54.780, 34.512 
	L 55.063, 36.213 
" />
<path d="M 55.560, 38.338 
	L 55.559, 38.339 
	L 55.913, 39.614 
	L 56.835, 42.024 
	L 57.047, 42.449 
" />
<path d="M 58.040, 44.362 
	L 58.039, 44.362 
	L 59.457, 46.559 
	L 60.520, 47.976 
" />
<path d="M 79.654, 31.889 
	L 79.654, 31.890 
	L 79.654, -14.811 
" />
<path d="M 119.127, 19.984 
	L 119.126, 19.984 
	L 113.457, 37.134 
" />
<path d="M 111.827, 37.133 
	L 111.827, 37.134 
	L 116.717, 37.134 
" />
<path d="M 121.607, 37.133 
	L 121.606, 37.134 
	L 126.496, 37.134 
" />
<path d="M 124.867, 37.133 
	L 124.866, 37.134 
	L 119.126, 19.984 
" />
<path d="M 119.127, 22.393 
	L 119.126, 22.394 
	L 124.087, 37.134 
" />
<path d="M 122.457, 32.243 
	L 122.457, 32.244 
	L 115.087, 32.244 
" />
<path d="M 115.583, 102.613 
	L 115.583, 102.614 
	L 113.102, 103.465 
	L 111.472, 105.095 
	L 110.693, 106.724 
	L 109.843, 109.134 
	L 109.843, 113.244 
	L 110.693, 115.724 
	L 111.472, 117.354 
	L 113.102, 118.984 
	L 115.583, 119.835 
" />
<path d="M 115.583, 119.835 
	L 117.213, 119.835 
	L 119.693, 118.984 
	L 121.323, 117.354 
	L 122.102, 115.724 
" />
<path d="M 122.103, 107.503 
	L 122.102, 107.504 
	L 122.102, 102.614 
	L 121.323, 105.095 
	L 119.693, 103.465 
	L 117.213, 102.614 
	L 115.583, 102.614 
	L 113.953, 103.465 
	L 112.323, 105.095 
	L 111.472, 106.724 
	L 110.693, 109.134 
" />
<path d="M 110.693, 109.134 
	L 110.693, 113.244 
	L 111.472, 115.724 
	L 112.323, 117.354 
	L 113.953, 118.984 
	L 115.583, 119.835 
" />
<path d="M 122.103, 107.503 
	L 122.102, 107.504 
	L 121.323, 105.095 
" />
<path d="M 123.308, 151.724 
	L 123.307, 151.724 
	L 124.937, 151.724 
	L 124.937, 157.465 
" />
<path d="M 124.583, 157.464 
	L 124.583, 157.465 
	L 124.583, 151.724 
" />
<path d="M 124.938, 152.928 
	L 124.937, 152.929 
	L 125.787, 152.079 
	L 126.992, 151.724 
	L 127.843, 151.724 
	L 129.047, 152.079 
	L 129.472, 152.929 
	L 129.472, 157.465 
" />
<path d="M 129.048, 157.464 
	L 129.047, 157.465 
	L 129.047, 152.929 
	L 128.622, 152.079 
	L 127.843, 151.724 
" />
<path d="M 127.843, 157.464 
	L 127.843, 157.465 
	L 130.677, 157.465 
" />
<path d="M 133.938, 157.039 
	L 133.937, 157.039 
	L 135.213, 157.465 
	L 135.992, 157.465 
	L 137.268, 157.039 
	L 138.047, 156.189 
	L 138.472, 154.984 
	L 138.472, 154.134 
	L 138.047, 152.929 
	L 137.268, 152.079 
	L 135.992, 151.724 
" />
<path d="M 135.992, 151.724 
	L 135.213, 151.724 
	L 134.362, 152.079 
	L 133.583, 152.929 
	L 133.158, 154.134 
	L 133.158, 154.984 
	L 133.583, 156.189 
	L 134.362, 157.039 
	L 135.213, 157.465 
" />
<path d="M 135.993, 157.464 
	L 135.992, 157.465 
	L 136.843, 157.039 
	L 137.622, 156.189 
	L 138.047, 154.984 
	L 138.047, 154.134 
	L 137.622, 152.929 
	L 136.843, 152.079 
	L 135.992, 151.724 
" />
<path d="M 135.213, 151.724 
	L 135.213, 151.724 
	L 133.937, 152.079 
	L 133.158, 152.929 
	L 132.732, 154.134 
	L 132.732, 154.984 
	L 133.158, 156.189 
	L 133.937, 157.039 
" />
<path d="M 140.528, 157.464 
	L 140.528, 157.465 
	L 143.362, 157.465 
" />
<path d="M 142.158, 157.464 
	L 142.158, 157.465 
	L 142.158, 151.724 
	L 140.528, 151.724 
" />
<path d="M 141.733, 151.724 
	L 141.732, 151.724 
	L 141.732, 157.465 
" />
<path d="M 142.158, 154.133 
	L 142.158, 154.134 
	L 142.583, 152.929 
	L 143.362, 152.079 
	L 144.213, 151.724 
	L 145.417, 151.724 
	L 145.843, 152.079 
	L 145.843, 152.504 
	L 145.417, 152.929 
	L 144.992, 152.504 
	L 145.417, 152.079 
" />
<path d="M 145.417, 152.079 
" />
<path d="M 147.473, 151.724 
	L 147.472, 151.724 
	L 149.102, 151.724 
	L 149.102, 157.465 
" />
<path d="M 148.678, 157.464 
	L 148.677, 157.465 
	L 148.677, 151.724 
" />
<path d="M 149.103, 152.928 
	L 149.102, 152.929 
	L 149.953, 152.079 
	L 151.158, 151.724 
	L 151.937, 151.724 
	L 153.213, 152.079 
	L 153.638, 152.929 
	L 153.638, 157.465 
" />
<path d="M 153.213, 157.464 
	L 153.213, 157.465 
	L 153.213, 152.929 
	L 152.787, 152.079 
	L 151.937, 151.724 
" />
<path d="M 154.418, 152.078 
	L 154.417, 152.079 
	L 155.622, 151.724 
	L 156.472, 151.724 
	L 157.677, 152.079 
	L 158.102, 152.929 
	L 158.102, 157.465 
" />
<path d="M 157.678, 157.464 
	L 157.677, 157.465 
	L 157.677, 152.929 
	L 157.252, 152.079 
	L 156.472, 151.724 
" />
<path d="M 154.418, 152.078 
	L 154.417, 152.079 
	L 153.638, 152.929 
" />
<path d="M 154.843, 157.464 
	L 154.843, 157.465 
	L 151.937, 157.465 
" />
<path d="M 150.308, 157.464 
	L 150.307, 157.465 
	L 147.472, 157.465 
" />
<path d="M 156.473, 157.464 
	L 156.472, 157.465 
	L 159.307, 157.465 
" />
<path d="M 161.788, 157.039 
	L 161.787, 157.039 
	L 162.992, 157.465 
	L 164.268, 157.465 
	L 165.047, 157.039 
	L 165.898, 156.189 
	L 166.323, 157.039 
	L 167.102, 157.465 
	L 167.528, 157.465 
" />
<path d="M 167.103, 157.464 
	L 167.102, 157.465 
	L 166.677, 157.039 
	L 166.323, 156.189 
	L 166.323, 153.354 
	L 165.898, 152.504 
	L 165.898, 156.189 
" />
<path d="M 165.898, 153.354 
	L 165.898, 153.354 
	L 165.472, 153.780 
	L 162.992, 154.134 
	L 161.787, 154.559 
	L 161.362, 155.409 
	L 161.362, 156.189 
	L 161.787, 157.039 
" />
<path d="M 162.213, 157.039 
	L 162.213, 157.039 
	L 162.992, 157.465 
" />
<path d="M 162.213, 157.039 
	L 162.213, 157.039 
	L 161.787, 156.189 
	L 161.787, 155.409 
	L 162.213, 154.559 
	L 162.992, 154.134 
" />
<path d="M 162.213, 152.928 
	L 162.213, 152.929 
	L 161.787, 152.929 
	L 161.787, 152.504 
	L 162.213, 152.079 
	L 162.992, 151.724 
	L 164.622, 151.724 
	L 165.472, 152.079 
	L 165.898, 152.504 
" />
<path d="M 162.213, 152.503 
	L 162.213, 152.504 
	L 162.213, 152.929 
" />
<path d="M 169.158, 148.818 
	L 169.158, 148.819 
	L 170.787, 148.819 
	L 170.787, 157.465 
" />
<path d="M 170.363, 157.464 
	L 170.362, 157.465 
	L 170.362, 148.819 
" />
<path d="M 169.158, 157.464 
	L 169.158, 157.465 
	L 171.992, 157.465 
" />
<path d="M 126.213, 157.464 
	L 126.213, 157.465 
	L 123.307, 157.465 
" />
<path d="M 77.599, 172.558 
	L 77.598, 172.559 
	L 77.598, 172.984 
	L 76.748, 172.984 
	L 77.598, 172.559 
" />
<path d="M 76.749, 172.984 
	L 76.748, 172.984 
	L 76.323, 173.339 
	L 75.898, 172.984 
	L 75.118, 172.559 
	L 74.268, 172.559 
	L 73.488, 172.984 
	L 73.063, 173.339 
	L 72.638, 174.189 
	L 72.638, 175.039 
	L 73.063, 175.819 
	L 73.488, 176.244 
" />
<path d="M 73.488, 176.244 
	L 74.268, 176.669 
	L 75.118, 176.669 
	L 75.898, 176.244 
	L 76.323, 175.819 
	L 76.748, 175.039 
	L 76.748, 174.189 
	L 76.323, 173.339 
" />
<path d="M 76.324, 173.763 
	L 76.323, 173.764 
	L 75.898, 172.984 
" />
<path d="M 76.324, 173.763 
	L 76.323, 173.764 
	L 76.323, 175.394 
	L 75.898, 176.244 
" />
<path d="M 75.898, 178.299 
	L 75.898, 178.299 
	L 77.173, 178.654 
	L 77.598, 179.504 
	L 77.598, 179.929 
	L 77.173, 180.709 
	L 75.898, 181.134 
	L 73.488, 181.134 
	L 72.213, 180.709 
	L 71.858, 179.929 
	L 71.858, 179.504 
	L 72.213, 178.654 
" />
<path d="M 72.213, 178.654 
	L 73.488, 178.299 
" />
<path d="M 73.914, 178.299 
	L 73.913, 178.299 
	L 75.898, 178.299 
" />
<path d="M 75.898, 178.653 
	L 75.898, 178.654 
	L 77.173, 179.079 
	L 77.598, 179.504 
" />
<path d="M 75.898, 178.653 
	L 75.898, 178.654 
	L 73.913, 178.654 
	L 72.638, 178.299 
	L 72.213, 177.449 
	L 72.638, 177.874 
	L 73.913, 178.299 
" />
<path d="M 73.489, 176.243 
	L 73.488, 176.244 
	L 73.063, 175.394 
	L 73.063, 173.764 
	L 73.488, 172.984 
" />
<path d="M 73.064, 175.818 
	L 73.063, 175.819 
	L 72.638, 176.244 
	L 72.213, 177.024 
	L 72.213, 177.449 
" />
<path d="M 70.229, 178.299 
	L 70.228, 178.299 
	L 69.803, 178.299 
	L 69.378, 177.874 
	L 68.953, 177.024 
	L 68.953, 174.189 
	L 68.598, 173.339 
	L 68.598, 177.024 
	L 68.953, 177.874 
	L 69.803, 178.299 
" />
<path d="M 67.749, 177.873 
	L 67.748, 177.874 
	L 68.598, 177.024 
" />
<path d="M 67.749, 177.873 
	L 67.748, 177.874 
	L 66.898, 178.299 
	L 65.693, 178.299 
	L 64.913, 177.874 
	L 64.488, 177.024 
	L 64.488, 176.244 
	L 64.913, 175.394 
	L 65.693, 175.039 
	L 64.488, 175.394 
	L 64.063, 176.244 
	L 64.063, 177.024 
" />
<path d="M 64.063, 177.024 
	L 64.488, 177.874 
	L 65.693, 178.299 
" />
<path d="M 65.694, 175.039 
	L 65.693, 175.039 
	L 68.173, 174.614 
	L 68.598, 174.189 
" />
<path d="M 68.599, 173.338 
	L 68.598, 173.339 
	L 68.173, 172.984 
	L 67.323, 172.559 
	L 65.693, 172.559 
	L 64.913, 172.984 
	L 64.488, 173.339 
	L 64.488, 173.764 
	L 64.913, 173.764 
	L 64.913, 173.339 
" />
<path d="M 62.009, 173.338 
	L 62.008, 173.339 
	L 61.583, 173.764 
	L 61.228, 173.339 
	L 61.583, 172.984 
" />
<path d="M 61.583, 172.558 
	L 61.583, 172.559 
	L 62.008, 172.984 
	L 62.008, 173.339 
" />
<path d="M 61.583, 172.558 
	L 61.583, 172.559 
	L 60.378, 172.559 
	L 59.528, 172.984 
	L 58.748, 173.764 
	L 58.323, 175.039 
" />
<path d="M 58.324, 172.558 
	L 58.323, 172.559 
	L 58.323, 178.299 
" />
<path d="M 57.898, 178.299 
	L 57.898, 178.299 
	L 57.898, 172.559 
" />
<path d="M 58.324, 172.558 
	L 58.323, 172.559 
	L 56.693, 172.559 
" />
<path d="M 54.639, 172.984 
	L 54.638, 172.984 
	L 54.638, 175.039 
	L 54.213, 176.244 
	L 53.858, 177.024 
	L 53.008, 177.874 
	L 51.803, 178.299 
	L 47.693, 178.299 
" />
<path d="M 48.898, 178.299 
	L 48.898, 178.299 
	L 48.898, 169.654 
" />
<path d="M 49.324, 169.653 
	L 49.323, 169.654 
	L 49.323, 178.299 
" />
<path d="M 51.804, 178.299 
	L 51.803, 178.299 
	L 52.583, 177.874 
	L 53.433, 177.024 
	L 53.858, 176.244 
	L 54.213, 175.039 
	L 54.213, 172.984 
	L 53.858, 171.709 
	L 53.433, 170.929 
	L 52.583, 170.079 
	L 51.803, 169.654 
	L 53.008, 170.079 
" />
<path d="M 53.008, 170.079 
	L 53.858, 170.929 
	L 54.213, 171.709 
	L 54.638, 172.984 
" />
<path d="M 51.804, 169.653 
	L 51.803, 169.654 
	L 47.693, 169.654 
" />
<path d="M 56.694, 178.299 
	L 56.693, 178.299 
	L 59.528, 178.299 
" />
</g><g style="stroke:rgb(255,255,255); fill:none; stroke-width:0.100mm" >
</g>
</svg>
