<?xml version="1.0" encoding="UTF-8" standalone="no" ?>
<svg width="100%" height="100%" viewBox="0 0 227.977 389.694" xmlns="http://www.w3.org/2000/svg"><g>
</g><g style="stroke:rgb(0,0,0); fill:none; stroke-width:1.000mm" >
</g><g style="stroke:rgb(0,0,0); fill:none; stroke-width:0.100mm" >
<path d="M 117.426, 12.756 
	L 117.425, 12.757 
	L 114.378, 18.142 
" />
<path d="M 114.450, 18.496 
	L 114.449, 18.497 
	L 117.638, 12.969 
" />
<path d="M 117.851, 13.110 
	L 117.850, 13.111 
	L 114.591, 18.922 
	L 113.457, 14.812 
	L 113.244, 14.599 
	L 112.961, 14.528 
	L 112.890, 14.528 
	L 112.606, 14.741 
	L 112.535, 15.095 
	L 113.669, 19.135 
	L 113.882, 19.347 
	L 114.165, 19.418 
" />
<path d="M 114.165, 19.418 
	L 114.307, 19.418 
	L 111.260, 24.662 
" />
<path d="M 111.544, 24.732 
	L 111.543, 24.733 
	L 118.134, 13.253 
" />
<path d="M 118.347, 13.465 
	L 118.346, 13.465 
	L 111.827, 24.804 
" />
<path d="M 111.898, 24.874 
	L 111.898, 24.875 
	L 113.173, 25.158 
	L 114.449, 25.158 
	L 115.724, 24.946 
	L 117.000, 24.520 
	L 118.063, 23.812 
	L 119.055, 22.890 
	L 119.764, 21.827 
	L 120.331, 20.623 
	L 120.614, 19.347 
	L 120.614, 18.072 
" />
<path d="M 120.614, 18.072 
	L 120.402, 16.796 
	L 119.976, 15.520 
	L 119.268, 14.457 
	L 118.346, 13.465 
	L 117.283, 12.757 
	L 116.079, 12.190 
	L 114.803, 11.906 
	L 113.528, 11.835 
	L 112.252, 12.119 
	L 110.976, 12.544 
	L 109.913, 13.253 
" />
<path d="M 109.913, 13.253 
	L 108.921, 14.174 
	L 108.213, 15.237 
	L 107.646, 16.442 
	L 107.362, 17.717 
	L 107.362, 18.993 
	L 107.575, 20.268 
	L 108.000, 21.473 
	L 108.709, 22.607 
	L 109.630, 23.528 
	L 110.693, 24.308 
	L 111.898, 24.875 
" />
<path d="M 111.898, 24.875 
" />
<path d="M 112.111, 24.945 
	L 112.110, 24.946 
	L 118.559, 13.678 
" />
<path d="M 118.772, 13.890 
	L 118.772, 13.890 
	L 112.394, 25.016 
" />
<path d="M 112.678, 25.087 
	L 112.677, 25.087 
	L 118.984, 14.103 
" />
<path d="M 119.198, 14.315 
	L 119.197, 14.316 
	L 112.961, 25.087 
" />
<path d="M 113.316, 25.157 
	L 113.315, 25.158 
	L 119.339, 14.528 
" />
<path d="M 119.552, 14.811 
	L 119.551, 14.812 
	L 113.598, 25.158 
" />
<path d="M 113.953, 25.228 
	L 113.953, 25.229 
	L 119.693, 15.095 
" />
<path d="M 119.906, 15.378 
	L 119.906, 15.379 
	L 114.307, 25.158 
" />
<path d="M 114.591, 25.157 
	L 114.591, 25.158 
	L 120.047, 15.662 
" />
<path d="M 120.190, 16.016 
	L 120.189, 16.016 
	L 114.945, 25.087 
" />
<path d="M 115.371, 25.087 
	L 115.370, 25.087 
	L 120.331, 16.371 
" />
<path d="M 120.402, 16.724 
	L 120.402, 16.725 
	L 115.724, 24.946 
" />
<path d="M 116.150, 24.874 
	L 116.150, 24.875 
	L 120.543, 17.150 
" />
<path d="M 120.615, 17.575 
	L 120.614, 17.575 
	L 116.504, 24.662 
" />
<path d="M 117.001, 24.449 
	L 117.000, 24.450 
	L 120.614, 18.072 
" />
<path d="M 120.686, 18.638 
	L 120.685, 18.638 
	L 117.496, 24.237 
" />
<path d="M 117.993, 23.882 
	L 117.992, 23.883 
	L 120.614, 19.276 
" />
<path d="M 120.473, 20.126 
	L 120.472, 20.127 
	L 118.630, 23.316 
" />
<path d="M 117.142, 22.181 
	L 117.142, 22.182 
	L 117.921, 21.402 
	L 118.417, 20.410 
	L 118.772, 19.418 
	L 118.843, 18.284 
	L 118.630, 17.221 
	L 118.276, 16.229 
	L 117.638, 15.379 
	L 116.858, 14.599 
	L 115.866, 14.103 
	L 114.874, 13.749 
" />
<path d="M 114.874, 13.749 
	L 113.811, 13.678 
	L 112.677, 13.890 
	L 111.685, 14.245 
	L 110.835, 14.883 
	L 110.055, 15.662 
	L 109.559, 16.583 
	L 109.205, 17.646 
	L 109.134, 18.709 
	L 109.346, 19.772 
	L 109.701, 20.835 
	L 110.339, 21.686 
" />
<path d="M 110.339, 21.686 
	L 111.118, 22.465 
	L 112.110, 22.961 
	L 113.102, 23.316 
	L 114.165, 23.387 
	L 115.299, 23.174 
	L 116.291, 22.820 
	L 117.142, 22.182 
" />
<path d="M 114.308, 19.417 
	L 114.307, 19.418 
	L 114.520, 19.205 
	L 114.591, 18.922 
" />
<path d="M 114.166, 18.992 
	L 114.165, 18.993 
	L 113.953, 27.355 
" />
<path d="M 113.245, 25.370 
	L 113.244, 25.371 
	L 112.961, 14.953 
" />
<path d="M 112.536, 14.882 
	L 112.535, 14.883 
	L 108.425, 22.182 
" />
<path d="M 108.568, 22.465 
	L 108.567, 22.465 
	L 112.606, 15.308 
" />
<path d="M 112.749, 15.732 
	L 112.748, 15.733 
	L 108.780, 22.678 
" />
<path d="M 108.993, 22.890 
	L 108.992, 22.890 
	L 112.819, 16.087 
" />
<path d="M 112.961, 16.512 
	L 112.961, 16.513 
	L 109.205, 23.174 
" />
<path d="M 109.418, 23.386 
	L 109.417, 23.387 
	L 113.102, 16.867 
" />
<path d="M 113.174, 17.291 
	L 113.173, 17.292 
	L 109.630, 23.528 
" />
<path d="M 109.843, 23.740 
	L 109.843, 23.741 
	L 113.315, 17.646 
" />
<path d="M 113.387, 18.071 
	L 113.386, 18.072 
	L 110.055, 23.883 
" />
<path d="M 110.268, 24.094 
	L 110.268, 24.095 
	L 113.528, 18.426 
" />
<path d="M 113.599, 18.850 
	L 113.598, 18.851 
	L 110.551, 24.237 
" />
<path d="M 110.765, 24.378 
	L 110.764, 24.379 
	L 113.740, 19.205 
" />
<path d="M 113.953, 19.417 
	L 113.953, 19.418 
	L 111.047, 24.520 
" />
<path d="M 108.213, 21.898 
	L 108.213, 21.898 
	L 113.953, 11.835 
" />
<path d="M 113.599, 11.835 
	L 113.598, 11.835 
	L 108.071, 21.615 
" />
<path d="M 107.930, 21.260 
	L 107.929, 21.261 
	L 113.315, 11.906 
" />
<path d="M 112.961, 11.906 
	L 112.961, 11.906 
	L 107.787, 20.977 
" />
<path d="M 107.646, 20.622 
	L 107.646, 20.623 
	L 112.535, 11.977 
" />
<path d="M 112.182, 12.118 
	L 112.181, 12.119 
	L 107.504, 20.198 
" />
<path d="M 107.434, 19.843 
	L 107.433, 19.843 
	L 111.756, 12.261 
" />
<path d="M 111.331, 12.402 
	L 111.331, 12.402 
	L 107.362, 19.347 
" />
<path d="M 107.292, 18.850 
	L 107.291, 18.851 
	L 110.906, 12.615 
" />
<path d="M 110.410, 12.898 
	L 110.409, 12.898 
	L 107.291, 18.284 
" />
<path d="M 107.363, 17.646 
	L 107.362, 17.646 
	L 109.843, 13.324 
" />
<path d="M 109.135, 13.890 
	L 109.134, 13.890 
	L 107.575, 16.725 
" />
<path d="M 113.953, 16.583 
	L 113.953, 16.583 
	L 116.362, 12.261 
" />
<path d="M 116.079, 12.189 
	L 116.079, 12.190 
	L 113.811, 16.158 
" />
<path d="M 113.741, 15.732 
	L 113.740, 15.733 
	L 115.795, 12.119 
" />
<path d="M 115.513, 12.047 
	L 115.512, 12.048 
	L 113.598, 15.379 
" />
<path d="M 113.528, 14.953 
	L 113.528, 14.953 
	L 115.228, 11.977 
" />
<path d="M 114.946, 11.906 
	L 114.945, 11.906 
	L 113.386, 14.670 
" />
<path d="M 113.103, 14.528 
	L 113.102, 14.528 
	L 114.591, 11.906 
" />
<path d="M 114.308, 11.835 
	L 114.307, 11.835 
	L 112.677, 14.599 
" />
<path d="M 114.024, 16.937 
	L 114.024, 16.938 
	L 116.646, 12.402 
" />
<path d="M 116.859, 12.543 
	L 116.858, 12.544 
	L 114.165, 17.363 
" />
<path d="M 114.237, 17.717 
	L 114.236, 17.717 
	L 117.142, 12.615 
" />
<path d="M 113.387, 29.622 
	L 113.386, 29.623 
	L 113.598, 38.198 
" />
<path d="M 113.670, 40.252 
	L 113.669, 40.253 
	L 113.882, 31.678 
" />
<path d="M 113.741, 42.520 
	L 113.740, 42.520 
	L 113.953, 51.095 
" />
<path d="M 113.316, 53.150 
	L 113.315, 53.150 
	L 113.528, 44.576 
" />
<path d="M 114.095, 55.417 
	L 114.095, 55.418 
	L 114.307, 63.993 
" />
<path d="M 113.032, 66.047 
	L 113.032, 66.048 
	L 113.244, 57.473 
" />
<path d="M 114.450, 68.315 
	L 114.449, 68.316 
	L 114.661, 76.890 
" />
<path d="M 112.678, 78.945 
	L 112.677, 78.946 
	L 112.890, 70.300 
" />
<path d="M 114.733, 81.213 
	L 114.732, 81.213 
	L 115.016, 89.788 
" />
<path d="M 115.087, 94.110 
	L 115.087, 94.111 
	L 115.370, 102.686 
" />
<path d="M 115.442, 107.008 
	L 115.441, 107.009 
	L 115.724, 115.583 
" />
<path d="M 115.796, 119.835 
	L 115.795, 119.835 
	L 116.079, 128.481 
" />
<path d="M 116.150, 132.732 
	L 116.150, 132.733 
	L 116.433, 141.379 
" />
<path d="M 116.505, 145.630 
	L 116.504, 145.631 
	L 116.787, 154.205 
" />
<path d="M 116.859, 158.528 
	L 116.858, 158.528 
	L 117.071, 167.103 
" />
<path d="M 117.213, 171.425 
	L 117.213, 171.426 
	L 117.425, 180.001 
" />
<path d="M 117.568, 184.323 
	L 117.567, 184.324 
	L 117.780, 192.898 
" />
<path d="M 117.922, 197.220 
	L 117.921, 197.221 
	L 118.134, 205.796 
" />
<path d="M 118.276, 210.118 
	L 118.276, 210.119 
	L 118.488, 218.694 
" />
<path d="M 118.631, 223.016 
	L 118.630, 223.016 
	L 118.843, 231.591 
" />
<path d="M 118.985, 235.843 
	L 118.984, 235.843 
	L 119.197, 244.489 
" />
<path d="M 119.339, 248.740 
	L 119.339, 248.741 
	L 119.551, 257.387 
" />
<path d="M 119.694, 261.638 
	L 119.693, 261.639 
	L 119.906, 270.213 
" />
<path d="M 120.048, 274.535 
	L 120.047, 274.536 
	L 120.260, 283.111 
" />
<path d="M 120.402, 287.433 
	L 120.402, 287.434 
	L 120.685, 297.851 
" />
<path d="M 120.686, 297.921 
	L 120.685, 297.922 
	L 108.071, 301.111 
" />
<path d="M 108.213, 301.394 
	L 108.213, 301.394 
	L 120.685, 298.205 
" />
<path d="M 120.686, 297.992 
	L 120.685, 297.993 
	L 120.543, 296.717 
	L 120.118, 295.442 
	L 119.551, 294.308 
	L 118.701, 293.316 
	L 117.709, 292.465 
	L 116.575, 291.828 
	L 115.299, 291.473 
	L 114.024, 291.331 
	L 112.677, 291.473 
" />
<path d="M 112.677, 291.473 
	L 111.402, 291.828 
	L 110.268, 292.465 
	L 109.276, 293.316 
	L 108.425, 294.308 
	L 107.858, 295.442 
	L 107.433, 296.717 
	L 107.291, 297.993 
	L 107.433, 299.268 
	L 107.858, 300.544 
	L 108.425, 301.678 
" />
<path d="M 108.425, 301.678 
	L 109.276, 302.741 
	L 110.268, 303.520 
	L 111.402, 304.158 
	L 112.677, 304.513 
	L 114.024, 304.654 
	L 115.299, 304.513 
	L 116.575, 304.158 
	L 117.709, 303.520 
	L 118.701, 302.741 
	L 119.551, 301.678 
" />
<path d="M 119.551, 301.678 
	L 120.118, 300.544 
	L 120.543, 299.268 
	L 120.685, 297.993 
" />
<path d="M 120.686, 297.638 
	L 120.685, 297.639 
	L 120.472, 296.363 
	L 119.976, 295.087 
	L 119.339, 294.024 
	L 118.417, 293.032 
	L 117.425, 292.253 
	L 116.220, 291.686 
	L 114.945, 291.402 
	L 113.598, 291.331 
	L 112.323, 291.544 
" />
<path d="M 112.323, 291.544 
	L 111.118, 291.969 
	L 109.984, 292.678 
	L 108.992, 293.528 
	L 108.283, 294.591 
	L 107.717, 295.796 
	L 107.362, 297.072 
	L 107.291, 298.347 
	L 107.504, 299.623 
	L 108.000, 300.898 
	L 108.638, 302.032 
" />
<path d="M 108.638, 302.032 
	L 109.559, 302.953 
	L 110.551, 303.733 
	L 111.756, 304.300 
	L 113.032, 304.583 
	L 114.378, 304.654 
	L 115.654, 304.442 
	L 116.858, 304.016 
	L 117.992, 303.308 
	L 118.984, 302.457 
	L 119.693, 301.394 
" />
<path d="M 119.693, 301.394 
	L 120.260, 300.190 
	L 120.614, 298.985 
	L 120.685, 297.639 
" />
<path d="M 120.615, 297.567 
	L 120.614, 297.568 
	L 107.929, 300.828 
" />
<path d="M 107.859, 300.543 
	L 107.858, 300.544 
	L 120.614, 297.284 
" />
<path d="M 120.615, 297.000 
	L 120.614, 297.001 
	L 114.095, 298.702 
	L 116.291, 295.016 
	L 116.291, 294.733 
	L 116.150, 294.450 
	L 116.079, 294.450 
	L 115.724, 294.379 
	L 115.512, 294.591 
	L 113.315, 298.205 
	L 113.315, 298.489 
" />
<path d="M 113.315, 298.489 
	L 113.457, 298.772 
	L 113.528, 298.843 
	L 113.882, 298.843 
	L 114.095, 298.702 
" />
<path d="M 114.308, 298.347 
	L 114.307, 298.347 
	L 120.543, 296.717 
" />
<path d="M 120.473, 296.433 
	L 120.472, 296.434 
	L 114.520, 297.993 
" />
<path d="M 114.733, 297.638 
	L 114.732, 297.639 
	L 120.402, 296.150 
" />
<path d="M 120.331, 295.937 
	L 120.331, 295.938 
	L 114.945, 297.284 
" />
<path d="M 115.158, 296.929 
	L 115.157, 296.930 
	L 120.260, 295.654 
" />
<path d="M 120.119, 295.370 
	L 120.118, 295.371 
	L 115.370, 296.576 
" />
<path d="M 115.583, 296.221 
	L 115.583, 296.221 
	L 119.976, 295.087 
" />
<path d="M 119.835, 294.874 
	L 119.835, 294.875 
	L 115.795, 295.867 
" />
<path d="M 116.009, 295.512 
	L 116.008, 295.513 
	L 119.693, 294.591 
" />
<path d="M 119.552, 294.307 
	L 119.551, 294.308 
	L 116.220, 295.158 
" />
<path d="M 116.363, 294.874 
	L 116.362, 294.875 
	L 119.409, 294.095 
" />
<path d="M 119.198, 293.811 
	L 119.197, 293.812 
	L 116.220, 294.591 
" />
<path d="M 115.938, 294.378 
	L 115.937, 294.379 
	L 118.984, 293.599 
" />
<path d="M 118.772, 293.315 
	L 118.772, 293.316 
	L 107.575, 296.221 
" />
<path d="M 107.505, 296.504 
	L 107.504, 296.505 
	L 115.583, 294.450 
" />
<path d="M 115.371, 294.803 
	L 115.370, 294.804 
	L 107.433, 296.859 
" />
<path d="M 107.363, 297.142 
	L 107.362, 297.142 
	L 115.157, 295.158 
" />
<path d="M 114.946, 295.512 
	L 114.945, 295.513 
	L 107.362, 297.426 
" />
<path d="M 107.292, 297.780 
	L 107.291, 297.780 
	L 114.732, 295.867 
" />
<path d="M 114.520, 296.221 
	L 114.520, 296.221 
	L 107.291, 298.064 
" />
<path d="M 107.292, 297.850 
	L 107.291, 297.851 
	L 107.504, 289.489 
" />
<path d="M 107.646, 285.165 
	L 107.646, 285.166 
	L 107.858, 276.591 
" />
<path d="M 107.930, 272.268 
	L 107.929, 272.268 
	L 108.142, 263.694 
" />
<path d="M 108.284, 259.370 
	L 108.283, 259.371 
	L 108.496, 250.796 
" />
<path d="M 108.568, 246.472 
	L 108.567, 246.473 
	L 108.780, 237.898 
" />
<path d="M 108.922, 233.646 
	L 108.921, 233.646 
	L 109.134, 225.001 
" />
<path d="M 109.205, 220.748 
	L 109.205, 220.749 
	L 109.417, 212.103 
" />
<path d="M 109.560, 207.850 
	L 109.559, 207.851 
	L 109.772, 199.205 
" />
<path d="M 109.843, 194.953 
	L 109.843, 194.953 
	L 110.055, 186.379 
" />
<path d="M 110.127, 182.055 
	L 110.126, 182.056 
	L 110.339, 173.481 
" />
<path d="M 110.481, 169.157 
	L 110.480, 169.158 
	L 110.693, 160.583 
" />
<path d="M 110.765, 156.260 
	L 110.764, 156.261 
	L 110.976, 147.686 
" />
<path d="M 111.119, 143.362 
	L 111.118, 143.363 
	L 111.331, 134.788 
" />
<path d="M 111.402, 130.465 
	L 111.402, 130.465 
	L 111.614, 121.890 
" />
<path d="M 111.757, 117.567 
	L 111.756, 117.568 
	L 111.969, 108.993 
" />
<path d="M 112.040, 104.740 
	L 112.039, 104.741 
	L 112.252, 96.095 
" />
<path d="M 112.394, 91.843 
	L 112.394, 91.843 
	L 112.606, 83.198 
" />
<path d="M 114.024, 0.000 
	L 114.024, 0.001 
	L 114.024, 389.694 
" />
<path d="M 113.812, 304.654 
	L 113.811, 304.654 
	L 117.354, 303.733 
" />
<path d="M 118.064, 303.307 
	L 118.063, 303.308 
	L 112.961, 304.583 
" />
<path d="M 112.324, 304.441 
	L 112.323, 304.442 
	L 118.559, 302.883 
" />
<path d="M 118.914, 302.457 
	L 118.913, 302.457 
	L 111.756, 304.300 
" />
<path d="M 111.331, 304.087 
	L 111.331, 304.087 
	L 119.268, 302.103 
" />
<path d="M 119.552, 301.748 
	L 119.551, 301.749 
	L 110.906, 303.946 
" />
<path d="M 110.552, 303.732 
	L 110.551, 303.733 
	L 119.764, 301.394 
" />
<path d="M 119.906, 301.039 
	L 119.906, 301.040 
	L 110.197, 303.520 
" />
<path d="M 109.914, 303.307 
	L 109.913, 303.308 
	L 120.118, 300.686 
" />
<path d="M 120.261, 300.402 
	L 120.260, 300.402 
	L 109.630, 303.095 
" />
<path d="M 109.418, 302.811 
	L 109.417, 302.812 
	L 120.331, 300.048 
" />
<path d="M 120.402, 299.693 
	L 120.402, 299.694 
	L 109.134, 302.599 
" />
<path d="M 108.922, 302.386 
	L 108.921, 302.387 
	L 120.543, 299.410 
" />
<path d="M 120.544, 299.126 
	L 120.543, 299.127 
	L 108.709, 302.103 
" />
<path d="M 108.568, 301.890 
	L 108.567, 301.891 
	L 120.614, 298.772 
" />
<path d="M 120.615, 298.488 
	L 120.614, 298.489 
	L 108.354, 301.607 
" />
<path d="M 107.717, 300.331 
	L 107.717, 300.331 
	L 113.598, 298.843 
" />
<path d="M 113.316, 298.559 
	L 113.315, 298.560 
	L 107.646, 300.048 
" />
<path d="M 107.576, 299.764 
	L 107.575, 299.765 
	L 113.315, 298.276 
" />
<path d="M 113.457, 297.921 
	L 113.457, 297.922 
	L 107.504, 299.481 
" />
<path d="M 107.434, 299.197 
	L 107.433, 299.198 
	L 113.669, 297.568 
" />
<path d="M 113.883, 297.284 
	L 113.882, 297.284 
	L 107.362, 298.914 
" />
<path d="M 107.363, 298.630 
	L 107.362, 298.631 
	L 114.095, 296.930 
" />
<path d="M 114.308, 296.575 
	L 114.307, 296.576 
	L 107.291, 298.347 
" />
<path d="M 109.205, 298.630 
	L 109.205, 298.631 
	L 109.488, 299.694 
	L 109.984, 300.686 
	L 110.622, 301.536 
	L 111.543, 302.174 
	L 112.535, 302.599 
	L 113.598, 302.812 
	L 114.661, 302.812 
	L 115.724, 302.528 
	L 116.646, 302.032 
" />
<path d="M 116.646, 302.032 
	L 117.496, 301.324 
	L 118.134, 300.473 
	L 118.559, 299.481 
	L 118.843, 298.418 
	L 118.772, 297.355 
	L 118.488, 296.292 
	L 117.992, 295.300 
	L 117.354, 294.520 
	L 116.433, 293.812 
	L 115.441, 293.387 
" />
<path d="M 115.441, 293.387 
	L 114.378, 293.174 
	L 113.315, 293.174 
	L 112.252, 293.457 
	L 111.331, 293.953 
	L 110.480, 294.662 
	L 109.843, 295.513 
	L 109.417, 296.505 
	L 109.134, 297.568 
	L 109.205, 298.631 
" />
<path d="M 107.646, 295.866 
	L 107.646, 295.867 
	L 118.559, 293.103 
" />
<path d="M 118.276, 292.890 
	L 118.276, 292.891 
	L 107.787, 295.583 
" />
<path d="M 107.930, 295.228 
	L 107.929, 295.229 
	L 117.992, 292.678 
" />
<path d="M 117.709, 292.465 
	L 117.709, 292.465 
	L 108.071, 294.875 
" />
<path d="M 108.284, 294.520 
	L 108.283, 294.520 
	L 117.354, 292.253 
" />
<path d="M 117.001, 292.039 
	L 117.000, 292.040 
	L 108.496, 294.166 
" />
<path d="M 108.780, 293.811 
	L 108.780, 293.812 
	L 116.575, 291.828 
" />
<path d="M 116.079, 291.685 
	L 116.079, 291.686 
	L 109.134, 293.457 
" />
<path d="M 109.489, 293.032 
	L 109.488, 293.032 
	L 115.512, 291.544 
" />
<path d="M 114.875, 291.402 
	L 114.874, 291.402 
	L 110.055, 292.607 
" />
<path d="M 110.835, 292.110 
	L 110.835, 292.111 
	L 113.953, 291.331 
" />
<path d="M 114.024, 214.157 
	L 114.024, 214.158 
	L 109.134, 214.300 
	L 104.244, 214.725 
	L 99.425, 215.434 
	L 94.677, 216.426 
	L 89.929, 217.702 
	L 85.323, 219.190 
	L 80.787, 221.032 
	L 76.323, 223.087 
	L 72.071, 225.426 
" />
<path d="M 72.071, 225.426 
	L 67.890, 227.977 
	L 63.921, 230.741 
	L 60.094, 233.788 
	L 56.480, 237.048 
	L 53.008, 240.450 
	L 49.748, 244.135 
	L 46.701, 247.961 
	L 43.937, 251.930 
	L 41.386, 256.111 
	L 39.047, 260.363 
	L 36.992, 264.828 
" />
<path d="M 36.992, 264.828 
	L 35.220, 269.292 
	L 33.661, 273.969 
	L 32.386, 278.646 
	L 31.394, 283.465 
	L 30.685, 288.284 
	L 30.260, 293.103 
	L 30.118, 297.993 
	L 30.260, 302.883 
	L 30.685, 307.702 
	L 31.394, 312.591 
	L 32.386, 317.339 
" />
<path d="M 32.386, 317.339 
	L 33.661, 322.016 
	L 35.220, 326.694 
	L 36.992, 331.229 
	L 39.047, 335.623 
	L 41.386, 339.946 
	L 43.937, 344.056 
	L 46.701, 348.095 
	L 49.748, 351.922 
	L 53.008, 355.536 
	L 56.480, 359.009 
	L 60.094, 362.198 
" />
<path d="M 60.094, 362.198 
	L 63.921, 365.245 
	L 67.890, 368.079 
	L 72.071, 370.631 
	L 76.323, 372.898 
	L 80.787, 374.954 
	L 85.323, 376.796 
	L 89.929, 378.355 
	L 94.677, 379.560 
	L 99.425, 380.552 
	L 104.244, 381.261 
	L 109.134, 381.686 
" />
<path d="M 109.134, 381.686 
	L 114.024, 381.828 
	L 118.843, 381.686 
	L 123.732, 381.261 
	L 128.551, 380.552 
	L 133.299, 379.560 
	L 138.047, 378.355 
	L 142.654, 376.796 
	L 147.189, 374.954 
	L 151.654, 372.898 
	L 155.906, 370.631 
" />
<path d="M 155.906, 370.631 
	L 160.087, 368.079 
	L 164.055, 365.245 
	L 167.882, 362.198 
	L 171.496, 359.009 
	L 174.969, 355.536 
	L 178.228, 351.922 
	L 181.276, 348.095 
	L 184.039, 344.056 
	L 186.591, 339.946 
	L 188.929, 335.623 
" />
<path d="M 188.929, 335.623 
	L 190.984, 331.229 
	L 192.756, 326.694 
	L 194.315, 322.016 
	L 195.591, 317.339 
	L 196.583, 312.591 
	L 197.291, 307.702 
	L 197.717, 302.883 
	L 197.858, 297.993 
	L 197.717, 293.103 
	L 197.291, 288.284 
" />
<path d="M 197.291, 288.284 
	L 196.583, 283.465 
	L 195.591, 278.646 
	L 194.315, 273.969 
	L 192.756, 269.292 
	L 190.984, 264.828 
	L 188.929, 260.363 
	L 186.591, 256.111 
	L 184.039, 251.930 
	L 181.276, 247.961 
	L 178.228, 244.135 
" />
<path d="M 178.228, 244.135 
	L 174.969, 240.450 
	L 171.496, 237.048 
	L 167.882, 233.788 
	L 164.055, 230.741 
	L 160.087, 227.977 
	L 155.906, 225.426 
	L 151.654, 223.087 
	L 147.189, 221.032 
	L 142.654, 219.190 
	L 138.047, 217.702 
" />
<path d="M 138.047, 217.702 
	L 133.299, 216.426 
	L 128.551, 215.434 
	L 123.732, 214.725 
	L 118.843, 214.300 
	L 114.024, 214.158 
" />
<path d="M 114.024, 242.079 
	L 114.024, 242.079 
	L 109.984, 242.221 
	L 106.016, 242.646 
	L 102.118, 243.355 
	L 98.220, 244.347 
	L 94.465, 245.623 
	L 90.780, 247.182 
	L 87.165, 248.953 
	L 83.764, 251.009 
	L 80.504, 253.276 
" />
<path d="M 80.504, 253.276 
	L 77.386, 255.757 
	L 74.480, 258.450 
	L 71.717, 261.426 
	L 69.236, 264.473 
	L 66.969, 267.804 
	L 64.913, 271.205 
	L 63.142, 274.749 
	L 61.583, 278.434 
	L 60.378, 282.261 
	L 59.386, 286.087 
	L 58.677, 290.056 
" />
<path d="M 58.677, 290.056 
	L 58.252, 294.024 
	L 58.110, 297.993 
	L 58.252, 301.961 
	L 58.677, 305.930 
	L 59.386, 309.898 
	L 60.378, 313.725 
	L 61.583, 317.552 
	L 63.142, 321.237 
	L 64.913, 324.780 
	L 66.969, 328.253 
	L 69.236, 331.513 
" />
<path d="M 69.236, 331.513 
	L 71.717, 334.631 
	L 74.480, 337.536 
	L 77.386, 340.229 
	L 80.504, 342.780 
	L 83.764, 345.048 
	L 87.165, 347.032 
	L 90.780, 348.875 
	L 94.465, 350.363 
	L 98.220, 351.639 
	L 102.118, 352.631 
	L 106.016, 353.339 
" />
<path d="M 106.016, 353.339 
	L 109.984, 353.765 
	L 114.024, 353.906 
	L 117.992, 353.765 
	L 121.961, 353.339 
	L 125.858, 352.631 
	L 129.756, 351.639 
	L 133.512, 350.363 
	L 137.197, 348.875 
	L 140.811, 347.032 
	L 144.213, 345.048 
" />
<path d="M 144.213, 345.048 
	L 147.472, 342.780 
	L 150.591, 340.229 
	L 153.496, 337.536 
	L 156.260, 334.631 
	L 158.740, 331.513 
	L 161.008, 328.253 
	L 163.063, 324.780 
	L 164.835, 321.237 
	L 166.394, 317.552 
	L 167.598, 313.725 
" />
<path d="M 167.598, 313.725 
	L 168.591, 309.898 
	L 169.299, 305.930 
	L 169.724, 301.961 
	L 169.866, 297.993 
	L 169.724, 294.024 
	L 169.299, 290.056 
	L 168.591, 286.087 
	L 167.598, 282.261 
	L 166.394, 278.434 
	L 164.835, 274.749 
" />
<path d="M 164.835, 274.749 
	L 163.063, 271.205 
	L 161.008, 267.804 
	L 158.740, 264.473 
	L 156.260, 261.426 
	L 153.496, 258.450 
	L 150.591, 255.757 
	L 147.472, 253.276 
	L 144.213, 251.009 
	L 140.811, 248.953 
	L 137.197, 247.182 
" />
<path d="M 137.197, 247.182 
	L 133.512, 245.623 
	L 129.756, 244.347 
	L 125.858, 243.355 
	L 121.961, 242.646 
	L 117.992, 242.221 
	L 114.024, 242.079 
" />
<path d="M 114.024, 270.071 
	L 114.024, 270.072 
	L 111.260, 270.213 
	L 108.567, 270.568 
	L 105.874, 271.276 
	L 103.323, 272.198 
	L 100.843, 273.331 
	L 98.433, 274.749 
	L 96.236, 276.379 
	L 94.252, 278.221 
	L 92.409, 280.276 
" />
<path d="M 92.409, 280.276 
	L 90.780, 282.473 
	L 89.362, 284.812 
	L 88.157, 287.292 
	L 87.236, 289.914 
	L 86.598, 292.536 
	L 86.173, 295.229 
	L 86.032, 297.993 
	L 86.173, 300.757 
	L 86.598, 303.450 
	L 87.236, 306.142 
	L 88.157, 308.694 
" />
<path d="M 88.157, 308.694 
	L 89.362, 311.174 
	L 90.780, 313.513 
	L 92.409, 315.709 
	L 94.252, 317.765 
	L 96.236, 319.607 
	L 98.433, 321.237 
	L 100.843, 322.654 
	L 103.323, 323.788 
	L 105.874, 324.780 
	L 108.567, 325.418 
" />
<path d="M 108.567, 325.418 
	L 111.260, 325.843 
	L 114.024, 325.914 
	L 116.717, 325.843 
	L 119.409, 325.418 
	L 122.102, 324.780 
	L 124.654, 323.788 
	L 127.134, 322.654 
	L 129.543, 321.237 
	L 131.740, 319.607 
	L 133.724, 317.765 
" />
<path d="M 133.724, 317.765 
	L 135.567, 315.709 
	L 137.197, 313.513 
	L 138.614, 311.174 
	L 139.819, 308.694 
	L 140.740, 306.142 
	L 141.378, 303.450 
	L 141.803, 300.757 
	L 141.945, 297.993 
	L 141.803, 295.229 
	L 141.378, 292.536 
" />
<path d="M 141.378, 292.536 
	L 140.740, 289.914 
	L 139.819, 287.292 
	L 138.614, 284.812 
	L 137.197, 282.473 
	L 135.567, 280.276 
	L 133.724, 278.221 
	L 131.740, 276.379 
	L 129.543, 274.749 
	L 127.134, 273.331 
	L 124.654, 272.198 
" />
<path d="M 124.654, 272.198 
	L 122.102, 271.276 
	L 119.409, 270.568 
	L 116.717, 270.213 
	L 114.024, 270.072 
" />
<path d="M 114.024, 291.047 
	L 114.024, 291.048 
	L 112.606, 291.119 
	L 111.331, 291.544 
	L 110.126, 292.182 
	L 109.063, 293.032 
	L 108.213, 294.095 
	L 107.504, 295.300 
	L 107.150, 296.646 
	L 107.008, 297.993 
	L 107.150, 299.339 
" />
<path d="M 107.150, 299.339 
	L 107.504, 300.686 
	L 108.213, 301.891 
	L 109.063, 302.953 
	L 110.126, 303.804 
	L 111.331, 304.442 
	L 112.606, 304.867 
	L 114.024, 305.009 
	L 115.370, 304.867 
	L 116.646, 304.442 
	L 117.850, 303.804 
" />
<path d="M 117.850, 303.804 
	L 118.913, 302.953 
	L 119.764, 301.891 
	L 120.472, 300.686 
	L 120.827, 299.339 
	L 120.969, 297.993 
	L 120.827, 296.646 
	L 120.472, 295.300 
	L 119.764, 294.095 
	L 118.913, 293.032 
	L 117.850, 292.182 
" />
<path d="M 117.850, 292.182 
	L 116.646, 291.544 
	L 115.370, 291.119 
	L 114.024, 291.048 
" />
<path d="M 227.977, 297.992 
	L 227.976, 297.993 
	L 0.000, 297.993 
" />
<path d="M 0.001, 381.827 
	L 0.000, 381.828 
	L 227.976, 381.828 
" />
<path d="M 218.835, 389.693 
	L 218.835, 389.694 
	L 218.835, 0.001 
" />
<path d="M 227.977, 4.535 
	L 227.976, 4.536 
	L 0.000, 4.536 
" />
<path d="M 9.142, 0.000 
	L 9.142, 0.001 
	L 9.142, 389.694 
" />
</g><g style="stroke:rgb(255,255,255); fill:none; stroke-width:0.100mm" >
</g>
</svg>
