<?xml version="1.0" encoding="UTF-8" standalone="no" ?>
<svg width="100%" height="100%" viewBox="0 0 227.977 297.993" xmlns="http://www.w3.org/2000/svg"><g>
</g><g style="stroke:rgb(0,0,0); fill:none; stroke-width:1.000mm" >
</g><g style="stroke:rgb(0,0,0); fill:none; stroke-width:0.100mm" >
<path d="M 120.473, 204.732 
	L 120.472, 204.733 
	L 114.520, 206.292 
" />
<path d="M 114.308, 206.646 
	L 114.307, 206.646 
	L 120.543, 205.016 
" />
<path d="M 120.615, 205.299 
	L 120.614, 205.300 
	L 114.095, 207.001 
	L 116.291, 203.316 
	L 116.291, 203.032 
	L 116.150, 202.749 
	L 116.079, 202.749 
	L 115.724, 202.678 
	L 115.512, 202.890 
	L 113.315, 206.505 
	L 113.315, 206.788 
" />
<path d="M 113.315, 206.788 
	L 113.457, 207.072 
	L 113.528, 207.142 
	L 113.882, 207.142 
	L 114.095, 207.001 
" />
<path d="M 113.599, 207.142 
	L 113.598, 207.142 
	L 107.717, 208.631 
" />
<path d="M 107.859, 208.843 
	L 107.858, 208.843 
	L 120.614, 205.583 
" />
<path d="M 120.615, 205.937 
	L 120.614, 205.938 
	L 107.929, 209.127 
" />
<path d="M 108.001, 209.197 
	L 108.000, 209.198 
	L 108.638, 210.331 
	L 109.559, 211.253 
	L 110.551, 212.032 
	L 111.756, 212.599 
	L 113.032, 212.883 
	L 114.378, 212.953 
	L 115.654, 212.741 
	L 116.858, 212.316 
	L 117.992, 211.678 
" />
<path d="M 117.992, 211.678 
	L 118.984, 210.757 
	L 119.693, 209.694 
	L 120.260, 208.489 
	L 120.614, 207.284 
	L 120.685, 205.938 
	L 120.472, 204.662 
	L 119.976, 203.457 
	L 119.339, 202.324 
	L 118.417, 201.331 
	L 117.425, 200.552 
" />
<path d="M 117.425, 200.552 
	L 116.220, 199.985 
	L 114.945, 199.702 
	L 113.598, 199.631 
	L 112.323, 199.843 
	L 111.118, 200.268 
	L 109.984, 200.977 
	L 108.992, 201.827 
	L 108.283, 202.890 
	L 107.717, 204.095 
	L 107.362, 205.371 
" />
<path d="M 107.362, 205.371 
	L 107.291, 206.646 
	L 107.504, 207.922 
	L 108.000, 209.198 
" />
<path d="M 108.072, 209.409 
	L 108.071, 209.410 
	L 120.685, 206.221 
" />
<path d="M 120.686, 206.504 
	L 120.685, 206.505 
	L 108.213, 209.694 
" />
<path d="M 108.355, 209.906 
	L 108.354, 209.906 
	L 120.614, 206.788 
" />
<path d="M 120.615, 207.071 
	L 120.614, 207.072 
	L 108.567, 210.190 
" />
<path d="M 108.709, 210.402 
	L 108.709, 210.402 
	L 120.543, 207.426 
" />
<path d="M 120.544, 207.709 
	L 120.543, 207.709 
	L 108.921, 210.686 
" />
<path d="M 109.135, 210.898 
	L 109.134, 210.898 
	L 120.402, 208.064 
" />
<path d="M 120.331, 208.346 
	L 120.331, 208.347 
	L 109.417, 211.111 
" />
<path d="M 109.631, 211.394 
	L 109.630, 211.394 
	L 120.260, 208.702 
" />
<path d="M 120.119, 208.984 
	L 120.118, 208.985 
	L 109.913, 211.607 
" />
<path d="M 110.198, 211.819 
	L 110.197, 211.820 
	L 119.906, 209.339 
" />
<path d="M 119.765, 209.693 
	L 119.764, 209.694 
	L 110.551, 212.032 
" />
<path d="M 110.906, 212.244 
	L 110.906, 212.245 
	L 119.551, 210.048 
" />
<path d="M 119.268, 210.402 
	L 119.268, 210.402 
	L 111.331, 212.387 
" />
<path d="M 111.757, 212.598 
	L 111.756, 212.599 
	L 118.913, 210.757 
" />
<path d="M 118.560, 211.181 
	L 118.559, 211.182 
	L 112.323, 212.741 
" />
<path d="M 112.961, 212.882 
	L 112.961, 212.883 
	L 118.063, 211.607 
" />
<path d="M 117.355, 212.102 
	L 117.354, 212.103 
	L 113.811, 212.953 
" />
<path d="M 113.599, 211.110 
	L 113.598, 211.111 
	L 114.661, 211.111 
	L 115.724, 210.827 
	L 116.646, 210.331 
	L 117.496, 209.623 
	L 118.134, 208.772 
	L 118.559, 207.780 
	L 118.843, 206.717 
	L 118.772, 205.654 
	L 118.488, 204.591 
" />
<path d="M 118.488, 204.591 
	L 117.992, 203.599 
	L 117.354, 202.820 
	L 116.433, 202.111 
	L 115.441, 201.686 
	L 114.378, 201.473 
	L 113.315, 201.544 
	L 112.252, 201.757 
	L 111.331, 202.253 
	L 110.480, 202.961 
	L 109.843, 203.812 
" />
<path d="M 109.843, 203.812 
	L 109.417, 204.804 
	L 109.134, 205.867 
	L 109.205, 207.001 
	L 109.488, 207.993 
	L 109.984, 208.985 
	L 110.622, 209.835 
	L 111.543, 210.473 
	L 112.535, 210.898 
	L 113.598, 211.111 
" />
<path d="M 113.316, 206.858 
	L 113.315, 206.859 
	L 107.646, 208.347 
" />
<path d="M 107.576, 208.063 
	L 107.575, 208.064 
	L 113.315, 206.576 
" />
<path d="M 113.457, 206.220 
	L 113.457, 206.221 
	L 107.504, 207.780 
" />
<path d="M 107.434, 207.496 
	L 107.433, 207.497 
	L 113.669, 205.938 
" />
<path d="M 113.883, 205.583 
	L 113.882, 205.583 
	L 107.362, 207.213 
" />
<path d="M 107.363, 206.929 
	L 107.362, 206.930 
	L 114.095, 205.229 
" />
<path d="M 114.308, 204.874 
	L 114.307, 204.875 
	L 107.291, 206.646 
" />
<path d="M 107.292, 206.362 
	L 107.291, 206.363 
	L 114.520, 204.520 
" />
<path d="M 114.733, 204.165 
	L 114.732, 204.166 
	L 107.291, 206.079 
" />
<path d="M 107.363, 205.724 
	L 107.362, 205.725 
	L 114.945, 203.812 
" />
<path d="M 115.158, 203.457 
	L 115.157, 203.457 
	L 107.362, 205.442 
" />
<path d="M 107.434, 205.157 
	L 107.433, 205.158 
	L 115.370, 203.103 
" />
<path d="M 115.583, 202.748 
	L 115.583, 202.749 
	L 107.504, 204.804 
" />
<path d="M 107.576, 204.520 
	L 107.575, 204.520 
	L 118.772, 201.686 
" />
<path d="M 118.985, 201.898 
	L 118.984, 201.898 
	L 115.937, 202.678 
" />
<path d="M 116.221, 202.890 
	L 116.220, 202.890 
	L 119.197, 202.111 
" />
<path d="M 119.410, 202.394 
	L 119.409, 202.394 
	L 116.362, 203.174 
" />
<path d="M 116.221, 203.457 
	L 116.220, 203.457 
	L 119.551, 202.607 
" />
<path d="M 119.694, 202.890 
	L 119.693, 202.890 
	L 116.008, 203.812 
" />
<path d="M 115.796, 204.165 
	L 115.795, 204.166 
	L 119.835, 203.174 
" />
<path d="M 119.977, 203.386 
	L 119.976, 203.387 
	L 115.583, 204.520 
" />
<path d="M 115.371, 204.874 
	L 115.370, 204.875 
	L 120.118, 203.670 
" />
<path d="M 120.261, 203.953 
	L 120.260, 203.953 
	L 115.157, 205.229 
" />
<path d="M 114.946, 205.583 
	L 114.945, 205.583 
	L 120.331, 204.237 
" />
<path d="M 120.402, 204.520 
	L 120.402, 204.520 
	L 114.732, 205.938 
" />
<path d="M 114.875, 199.701 
	L 114.874, 199.702 
	L 110.055, 200.906 
" />
<path d="M 109.489, 201.331 
	L 109.488, 201.331 
	L 115.512, 199.843 
" />
<path d="M 116.079, 199.984 
	L 116.079, 199.985 
	L 109.134, 201.757 
" />
<path d="M 108.780, 202.110 
	L 108.780, 202.111 
	L 116.575, 200.127 
" />
<path d="M 117.001, 200.339 
	L 117.000, 200.339 
	L 108.496, 202.465 
" />
<path d="M 108.284, 202.819 
	L 108.283, 202.820 
	L 117.354, 200.552 
" />
<path d="M 117.709, 200.764 
	L 117.709, 200.765 
	L 108.071, 203.174 
" />
<path d="M 107.930, 203.528 
	L 107.929, 203.528 
	L 117.992, 200.977 
" />
<path d="M 118.276, 201.189 
	L 118.276, 201.190 
	L 107.787, 203.883 
" />
<path d="M 107.646, 204.165 
	L 107.646, 204.166 
	L 118.559, 201.402 
" />
<path d="M 113.953, 199.630 
	L 113.953, 199.631 
	L 110.835, 200.410 
" />
<path d="M 110.835, 72.425 
	L 110.835, 72.426 
	L 111.756, 64.489 
" />
<path d="M 111.969, 64.772 
	L 111.969, 64.772 
	L 111.118, 72.568 
" />
<path d="M 111.402, 72.709 
	L 111.402, 72.709 
	L 112.252, 65.127 
" />
<path d="M 112.536, 65.409 
	L 112.535, 65.410 
	L 111.685, 72.851 
" />
<path d="M 111.898, 72.921 
	L 111.898, 72.922 
	L 112.748, 65.764 
" />
<path d="M 113.032, 66.047 
	L 113.032, 66.048 
	L 112.181, 72.993 
" />
<path d="M 111.969, 72.921 
	L 111.969, 72.922 
	L 113.244, 73.205 
	L 114.520, 73.205 
	L 115.795, 72.993 
	L 117.071, 72.497 
	L 118.134, 71.788 
	L 119.055, 70.867 
	L 119.835, 69.804 
	L 120.331, 68.599 
	L 120.614, 67.324 
	L 120.614, 66.048 
" />
<path d="M 120.614, 66.048 
	L 120.402, 64.701 
	L 119.906, 63.497 
	L 119.197, 62.434 
	L 118.276, 61.513 
	L 117.213, 60.733 
	L 116.008, 60.237 
	L 114.732, 59.953 
	L 113.457, 59.953 
	L 112.181, 60.166 
	L 110.906, 60.662 
	L 109.843, 61.371 
" />
<path d="M 109.843, 61.371 
	L 108.921, 62.221 
	L 108.142, 63.355 
	L 107.646, 64.560 
	L 107.362, 65.835 
	L 107.362, 67.111 
	L 107.575, 68.387 
	L 108.071, 69.591 
	L 108.780, 70.725 
	L 109.701, 71.646 
	L 110.764, 72.426 
	L 111.969, 72.922 
" />
<path d="M 111.969, 72.922 
" />
<path d="M 112.465, 73.063 
	L 112.465, 73.064 
	L 113.244, 66.402 
" />
<path d="M 113.528, 66.685 
	L 113.528, 66.686 
	L 112.748, 73.135 
" />
<path d="M 113.032, 73.205 
	L 113.032, 73.205 
	L 113.740, 67.040 
" />
<path d="M 113.953, 67.252 
	L 113.953, 67.253 
	L 114.236, 67.394 
	L 114.520, 67.324 
	L 114.591, 67.253 
	L 113.882, 73.205 
" />
<path d="M 113.599, 73.205 
	L 113.598, 73.205 
	L 114.307, 67.394 
" />
<path d="M 114.024, 67.323 
	L 114.024, 67.324 
	L 113.315, 73.205 
" />
<path d="M 114.237, 73.205 
	L 114.236, 73.205 
	L 115.724, 60.095 
" />
<path d="M 115.442, 60.024 
	L 115.441, 60.024 
	L 114.661, 66.686 
	L 112.039, 63.355 
	L 111.756, 63.213 
	L 111.472, 63.284 
	L 111.402, 63.355 
	L 111.260, 63.638 
	L 111.331, 63.922 
	L 113.953, 67.253 
" />
<path d="M 114.591, 67.252 
	L 114.591, 67.253 
	L 114.732, 66.969 
	L 114.661, 66.686 
" />
<path d="M 114.450, 66.331 
	L 114.449, 66.331 
	L 115.157, 60.024 
" />
<path d="M 114.875, 59.953 
	L 114.874, 59.953 
	L 114.165, 66.048 
" />
<path d="M 113.883, 65.764 
	L 113.882, 65.764 
	L 114.591, 59.953 
" />
<path d="M 114.308, 59.882 
	L 114.307, 59.883 
	L 113.669, 65.410 
" />
<path d="M 113.387, 65.126 
	L 113.386, 65.127 
	L 114.024, 59.883 
" />
<path d="M 113.741, 59.882 
	L 113.740, 59.883 
	L 113.173, 64.772 
" />
<path d="M 112.890, 64.488 
	L 112.890, 64.489 
	L 113.457, 59.953 
" />
<path d="M 113.103, 59.953 
	L 113.102, 59.953 
	L 112.677, 64.135 
" />
<path d="M 112.394, 63.850 
	L 112.394, 63.851 
	L 112.819, 60.024 
" />
<path d="M 112.536, 60.024 
	L 112.535, 60.024 
	L 112.110, 63.497 
" />
<path d="M 111.898, 63.283 
	L 111.898, 63.284 
	L 112.252, 60.095 
" />
<path d="M 111.969, 60.236 
	L 111.969, 60.237 
	L 111.614, 63.213 
" />
<path d="M 111.261, 63.496 
	L 111.260, 63.497 
	L 111.614, 60.308 
" />
<path d="M 111.331, 60.449 
	L 111.331, 60.450 
	L 110.055, 71.930 
" />
<path d="M 110.268, 72.142 
	L 110.268, 72.142 
	L 111.260, 63.780 
" />
<path d="M 111.473, 64.134 
	L 111.472, 64.135 
	L 110.551, 72.284 
" />
<path d="M 109.772, 71.717 
	L 109.772, 71.717 
	L 111.047, 60.591 
" />
<path d="M 110.765, 60.732 
	L 110.764, 60.733 
	L 109.488, 71.505 
" />
<path d="M 109.205, 71.220 
	L 109.205, 71.221 
	L 110.409, 60.946 
" />
<path d="M 110.127, 61.157 
	L 110.126, 61.158 
	L 108.992, 71.009 
" />
<path d="M 108.709, 70.654 
	L 108.709, 70.654 
	L 109.772, 61.371 
" />
<path d="M 109.489, 61.654 
	L 109.488, 61.654 
	L 108.496, 70.300 
" />
<path d="M 108.213, 69.945 
	L 108.213, 69.946 
	L 109.134, 62.009 
" />
<path d="M 108.851, 62.362 
	L 108.850, 62.363 
	L 108.000, 69.520 
" />
<path d="M 107.788, 68.953 
	L 107.787, 68.953 
	L 108.496, 62.788 
" />
<path d="M 108.142, 63.425 
	L 108.142, 63.426 
	L 107.575, 68.316 
" />
<path d="M 107.363, 67.394 
	L 107.362, 67.394 
	L 107.717, 64.205 
" />
<path d="M 109.631, 64.488 
	L 109.630, 64.489 
	L 109.276, 65.481 
	L 109.134, 66.544 
	L 109.276, 67.607 
	L 109.630, 68.670 
	L 110.197, 69.591 
	L 110.976, 70.371 
	L 111.898, 70.938 
	L 112.890, 71.292 
	L 113.953, 71.434 
	L 115.087, 71.292 
" />
<path d="M 115.087, 71.292 
	L 116.079, 70.938 
	L 117.000, 70.371 
	L 117.780, 69.591 
	L 118.346, 68.670 
	L 118.701, 67.678 
	L 118.843, 66.544 
	L 118.701, 65.481 
	L 118.346, 64.489 
	L 117.780, 63.568 
	L 117.000, 62.788 
	L 116.079, 62.221 
" />
<path d="M 116.079, 62.221 
	L 115.087, 61.867 
	L 114.024, 61.725 
	L 112.890, 61.867 
	L 111.898, 62.221 
	L 110.976, 62.788 
	L 110.197, 63.568 
	L 109.630, 64.489 
" />
<path d="M 114.024, 66.543 
	L 114.024, 66.544 
	L 113.528, 76.253 
" />
<path d="M 114.804, 76.394 
	L 114.803, 76.394 
	L 114.307, 66.969 
" />
<path d="M 114.520, 73.205 
	L 114.520, 73.205 
	L 116.008, 60.237 
" />
<path d="M 116.292, 60.307 
	L 116.291, 60.308 
	L 114.803, 73.205 
" />
<path d="M 115.087, 73.134 
	L 115.087, 73.135 
	L 116.504, 60.379 
" />
<path d="M 116.788, 60.520 
	L 116.787, 60.520 
	L 115.370, 73.064 
" />
<path d="M 115.654, 72.992 
	L 115.654, 72.993 
	L 117.071, 60.662 
" />
<path d="M 117.355, 60.803 
	L 117.354, 60.804 
	L 115.937, 72.922 
" />
<path d="M 116.292, 72.850 
	L 116.291, 72.851 
	L 117.638, 60.946 
" />
<path d="M 117.922, 61.157 
	L 117.921, 61.158 
	L 116.575, 72.709 
" />
<path d="M 116.859, 72.567 
	L 116.858, 72.568 
	L 118.134, 61.371 
" />
<path d="M 118.418, 61.583 
	L 118.417, 61.583 
	L 117.213, 72.426 
" />
<path d="M 117.497, 72.213 
	L 117.496, 72.213 
	L 118.701, 61.796 
" />
<path d="M 118.914, 62.079 
	L 118.913, 62.079 
	L 117.780, 72.072 
" />
<path d="M 118.135, 71.787 
	L 118.134, 71.788 
	L 119.197, 62.363 
" />
<path d="M 119.481, 62.717 
	L 119.480, 62.717 
	L 118.417, 71.576 
" />
<path d="M 118.772, 71.220 
	L 118.772, 71.221 
	L 119.693, 63.072 
" />
<path d="M 119.906, 63.496 
	L 119.906, 63.497 
	L 119.055, 70.867 
" />
<path d="M 119.410, 70.441 
	L 119.409, 70.442 
	L 120.189, 64.064 
" />
<path d="M 120.402, 64.630 
	L 120.402, 64.631 
	L 119.764, 69.875 
" />
<path d="M 120.190, 69.094 
	L 120.189, 69.095 
	L 120.543, 65.481 
" />
<path d="M 114.946, 80.717 
	L 114.945, 80.717 
	L 115.370, 89.292 
" />
<path d="M 112.890, 89.150 
	L 112.890, 89.150 
	L 113.315, 80.576 
" />
<path d="M 112.678, 93.402 
	L 112.677, 93.402 
	L 112.323, 101.977 
" />
<path d="M 115.938, 102.189 
	L 115.937, 102.190 
	L 115.583, 93.615 
" />
<path d="M 116.150, 106.441 
	L 116.150, 106.442 
	L 116.504, 115.087 
" />
<path d="M 116.717, 119.339 
	L 116.717, 119.339 
	L 117.142, 127.914 
" />
<path d="M 117.284, 132.236 
	L 117.283, 132.237 
	L 117.709, 140.812 
" />
<path d="M 117.922, 145.134 
	L 117.921, 145.135 
	L 118.276, 153.709 
" />
<path d="M 118.489, 157.961 
	L 118.488, 157.961 
	L 118.843, 166.607 
" />
<path d="M 119.056, 170.858 
	L 119.055, 170.859 
	L 119.480, 179.434 
" />
<path d="M 119.623, 183.756 
	L 119.622, 183.757 
	L 120.047, 192.331 
" />
<path d="M 120.261, 196.654 
	L 120.260, 196.654 
	L 120.685, 206.150 
" />
<path d="M 107.292, 206.150 
	L 107.291, 206.150 
	L 107.787, 196.442 
" />
<path d="M 108.001, 192.189 
	L 108.000, 192.190 
	L 108.425, 183.544 
" />
<path d="M 108.568, 179.291 
	L 108.567, 179.292 
	L 108.992, 170.717 
" />
<path d="M 109.205, 166.394 
	L 109.205, 166.394 
	L 109.630, 157.820 
" />
<path d="M 109.843, 153.496 
	L 109.843, 153.497 
	L 110.268, 144.922 
" />
<path d="M 110.481, 140.669 
	L 110.480, 140.670 
	L 110.835, 132.095 
" />
<path d="M 111.048, 127.772 
	L 111.047, 127.772 
	L 111.472, 119.198 
" />
<path d="M 111.686, 114.874 
	L 111.685, 114.875 
	L 112.110, 106.300 
" />
<path d="M 113.953, 122.457 
	L 113.953, 122.457 
	L 109.134, 122.599 
	L 104.244, 123.024 
	L 99.425, 123.733 
	L 94.677, 124.725 
	L 89.929, 126.001 
	L 85.323, 127.489 
	L 80.787, 129.331 
	L 76.323, 131.387 
	L 72.071, 133.725 
" />
<path d="M 72.071, 133.725 
	L 67.890, 136.276 
	L 63.921, 139.040 
	L 60.094, 142.087 
	L 56.480, 145.347 
	L 53.008, 148.749 
	L 49.748, 152.434 
	L 46.701, 156.261 
	L 43.937, 160.229 
	L 41.386, 164.410 
	L 39.047, 168.662 
	L 36.992, 173.127 
" />
<path d="M 36.992, 173.127 
	L 35.220, 177.662 
	L 33.661, 182.268 
	L 32.386, 186.946 
	L 31.394, 191.765 
	L 30.685, 196.583 
	L 30.260, 201.402 
	L 30.118, 206.292 
	L 30.260, 211.182 
	L 30.685, 216.072 
	L 31.394, 220.890 
	L 32.386, 225.639 
" />
<path d="M 32.386, 225.639 
	L 33.661, 230.316 
	L 35.220, 234.993 
	L 36.992, 239.528 
	L 39.047, 243.922 
	L 41.386, 248.245 
	L 43.937, 252.355 
	L 46.701, 256.394 
	L 49.748, 260.221 
	L 53.008, 263.835 
	L 56.480, 267.308 
	L 60.094, 270.497 
" />
<path d="M 60.094, 270.497 
	L 63.921, 273.544 
	L 67.890, 276.379 
	L 72.071, 278.930 
	L 76.323, 281.198 
	L 80.787, 283.253 
	L 85.323, 285.095 
	L 89.929, 286.654 
	L 94.677, 287.859 
	L 99.425, 288.851 
	L 104.244, 289.560 
	L 109.134, 289.985 
" />
<path d="M 109.134, 289.985 
	L 114.024, 290.127 
	L 118.843, 289.985 
	L 123.732, 289.560 
	L 128.551, 288.851 
	L 133.299, 287.859 
	L 138.047, 286.654 
	L 142.654, 285.095 
	L 147.189, 283.253 
	L 151.654, 281.198 
	L 155.906, 278.930 
" />
<path d="M 155.906, 278.930 
	L 160.087, 276.379 
	L 164.055, 273.544 
	L 167.882, 270.497 
	L 171.496, 267.308 
	L 174.969, 263.835 
	L 178.228, 260.221 
	L 181.276, 256.394 
	L 184.039, 252.355 
	L 186.591, 248.245 
	L 188.929, 243.922 
" />
<path d="M 188.929, 243.922 
	L 190.984, 239.528 
	L 192.756, 234.993 
	L 194.315, 230.316 
	L 195.591, 225.639 
	L 196.583, 220.890 
	L 197.291, 216.072 
	L 197.717, 211.182 
	L 197.858, 206.292 
	L 197.717, 201.402 
	L 197.291, 196.583 
" />
<path d="M 197.291, 196.583 
	L 196.583, 191.765 
	L 195.591, 186.946 
	L 194.315, 182.268 
	L 192.756, 177.662 
	L 190.984, 173.127 
	L 188.929, 168.662 
	L 186.591, 164.410 
	L 184.039, 160.229 
	L 181.276, 156.261 
	L 178.228, 152.434 
" />
<path d="M 178.228, 152.434 
	L 174.969, 148.749 
	L 171.496, 145.347 
	L 167.882, 142.087 
	L 164.055, 139.040 
	L 160.087, 136.276 
	L 155.906, 133.725 
	L 151.654, 131.387 
	L 147.189, 129.331 
	L 142.654, 127.489 
	L 138.047, 126.001 
" />
<path d="M 138.047, 126.001 
	L 133.299, 124.725 
	L 128.551, 123.733 
	L 123.732, 123.024 
	L 118.843, 122.599 
	L 113.953, 122.457 
" />
<path d="M 113.953, 150.378 
	L 113.953, 150.379 
	L 109.984, 150.520 
	L 106.016, 150.946 
	L 102.118, 151.654 
	L 98.220, 152.646 
	L 94.465, 153.922 
	L 90.780, 155.481 
	L 87.165, 157.253 
	L 83.764, 159.308 
	L 80.504, 161.576 
" />
<path d="M 80.504, 161.576 
	L 77.386, 164.056 
	L 74.480, 166.749 
	L 71.717, 169.725 
	L 69.236, 172.772 
	L 66.969, 176.103 
	L 64.913, 179.505 
	L 63.142, 183.119 
	L 61.583, 186.804 
	L 60.378, 190.560 
	L 59.386, 194.387 
	L 58.677, 198.355 
" />
<path d="M 58.677, 198.355 
	L 58.252, 202.324 
	L 58.110, 206.292 
	L 58.252, 210.261 
	L 58.677, 214.229 
	L 59.386, 218.198 
	L 60.378, 222.024 
	L 61.583, 225.851 
	L 63.142, 229.536 
	L 64.913, 233.079 
	L 66.969, 236.552 
	L 69.236, 239.812 
" />
<path d="M 69.236, 239.812 
	L 71.717, 242.930 
	L 74.480, 245.835 
	L 77.386, 248.528 
	L 80.504, 251.079 
	L 83.764, 253.347 
	L 87.165, 255.331 
	L 90.780, 257.174 
	L 94.465, 258.662 
	L 98.220, 259.938 
	L 102.118, 260.930 
	L 106.016, 261.639 
" />
<path d="M 106.016, 261.639 
	L 109.984, 262.064 
	L 114.024, 262.205 
	L 117.992, 262.064 
	L 121.961, 261.639 
	L 125.858, 260.930 
	L 129.756, 259.938 
	L 133.512, 258.662 
	L 137.197, 257.174 
	L 140.811, 255.331 
	L 144.213, 253.347 
" />
<path d="M 144.213, 253.347 
	L 147.472, 251.079 
	L 150.591, 248.528 
	L 153.496, 245.835 
	L 156.260, 242.930 
	L 158.740, 239.812 
	L 161.008, 236.552 
	L 163.063, 233.079 
	L 164.835, 229.536 
	L 166.394, 225.851 
	L 167.598, 222.024 
" />
<path d="M 167.598, 222.024 
	L 168.591, 218.198 
	L 169.299, 214.229 
	L 169.724, 210.261 
	L 169.866, 206.292 
	L 169.724, 202.324 
	L 169.299, 198.355 
	L 168.591, 194.387 
	L 167.598, 190.560 
	L 166.394, 186.804 
	L 164.835, 183.119 
" />
<path d="M 164.835, 183.119 
	L 163.063, 179.505 
	L 161.008, 176.103 
	L 158.740, 172.772 
	L 156.260, 169.725 
	L 153.496, 166.749 
	L 150.591, 164.056 
	L 147.472, 161.576 
	L 144.213, 159.308 
	L 140.811, 157.253 
	L 137.197, 155.481 
" />
<path d="M 137.197, 155.481 
	L 133.512, 153.922 
	L 129.756, 152.646 
	L 125.858, 151.654 
	L 121.961, 150.946 
	L 117.992, 150.520 
	L 113.953, 150.379 
" />
<path d="M 114.024, 178.370 
	L 114.024, 178.371 
	L 111.260, 178.513 
	L 108.567, 178.867 
	L 105.874, 179.576 
	L 103.323, 180.497 
	L 100.843, 181.631 
	L 98.433, 183.048 
	L 96.236, 184.678 
	L 94.252, 186.520 
	L 92.409, 188.576 
" />
<path d="M 92.409, 188.576 
	L 90.780, 190.772 
	L 89.362, 193.111 
	L 88.157, 195.591 
	L 87.236, 198.213 
	L 86.598, 200.835 
	L 86.173, 203.528 
	L 86.032, 206.292 
	L 86.173, 209.056 
	L 86.598, 211.749 
	L 87.236, 214.442 
	L 88.157, 216.993 
" />
<path d="M 88.157, 216.993 
	L 89.362, 219.473 
	L 90.780, 221.812 
	L 92.409, 224.009 
	L 94.252, 226.064 
	L 96.236, 227.906 
	L 98.433, 229.536 
	L 100.843, 230.953 
	L 103.323, 232.087 
	L 105.874, 233.079 
	L 108.567, 233.717 
" />
<path d="M 108.567, 233.717 
	L 111.260, 234.142 
	L 113.953, 234.284 
	L 116.717, 234.142 
	L 119.409, 233.717 
	L 122.102, 233.079 
	L 124.654, 232.087 
	L 127.134, 230.953 
	L 129.543, 229.536 
	L 131.740, 227.906 
	L 133.724, 226.064 
" />
<path d="M 133.724, 226.064 
	L 135.567, 224.009 
	L 137.197, 221.812 
	L 138.614, 219.473 
	L 139.819, 216.993 
	L 140.740, 214.442 
	L 141.378, 211.749 
	L 141.803, 209.056 
	L 141.945, 206.292 
	L 141.803, 203.528 
	L 141.378, 200.835 
" />
<path d="M 141.378, 200.835 
	L 140.740, 198.213 
	L 139.819, 195.591 
	L 138.614, 193.111 
	L 137.197, 190.772 
	L 135.567, 188.576 
	L 133.724, 186.520 
	L 131.740, 184.678 
	L 129.543, 183.048 
	L 127.134, 181.631 
	L 124.654, 180.497 
" />
<path d="M 124.654, 180.497 
	L 122.102, 179.576 
	L 119.409, 178.867 
	L 116.717, 178.513 
	L 114.024, 178.371 
" />
<path d="M 114.024, 199.346 
	L 114.024, 199.347 
	L 112.606, 199.418 
	L 111.331, 199.843 
	L 110.126, 200.481 
	L 109.063, 201.331 
	L 108.213, 202.394 
	L 107.504, 203.599 
	L 107.150, 204.946 
	L 107.008, 206.292 
	L 107.150, 207.639 
" />
<path d="M 107.150, 207.639 
	L 107.504, 208.985 
	L 108.213, 210.190 
	L 109.063, 211.253 
	L 110.126, 212.103 
	L 111.331, 212.741 
	L 112.606, 213.166 
	L 113.953, 213.308 
	L 115.370, 213.166 
	L 116.646, 212.741 
	L 117.850, 212.103 
" />
<path d="M 117.850, 212.103 
	L 118.913, 211.253 
	L 119.764, 210.190 
	L 120.472, 208.985 
	L 120.827, 207.639 
	L 120.969, 206.292 
	L 120.827, 204.946 
	L 120.472, 203.599 
	L 119.764, 202.394 
	L 118.913, 201.331 
	L 117.850, 200.481 
" />
<path d="M 117.850, 200.481 
	L 116.646, 199.843 
	L 115.370, 199.418 
	L 114.024, 199.347 
" />
<path d="M 114.024, 297.992 
	L 114.024, 297.993 
	L 114.024, 0.001 
" />
<path d="M 218.835, 0.000 
	L 218.835, 0.001 
	L 218.835, 297.993 
" />
<path d="M 227.977, 290.126 
	L 227.976, 290.127 
	L 0.000, 290.127 
" />
<path d="M 9.142, 297.992 
	L 9.142, 297.993 
	L 9.142, 0.001 
" />
<path d="M 0.001, 206.291 
	L 0.000, 206.292 
	L 227.976, 206.292 
" />
</g><g style="stroke:rgb(255,255,255); fill:none; stroke-width:0.100mm" >
</g>
</svg>
