<?xml version="1.0" encoding="UTF-8" standalone="no" ?>
<svg width="100%" height="100%" viewBox="0 0 227.977 275.103" xmlns="http://www.w3.org/2000/svg"><g>
</g><g style="stroke:rgb(0,0,0); fill:none; stroke-width:1.000mm" >
</g><g style="stroke:rgb(0,0,0); fill:none; stroke-width:0.100mm" >
<path d="M 128.977, 183.402 
	L 128.976, 183.402 
	L 130.890, 177.591 
" />
<path d="M 131.032, 177.945 
	L 131.032, 177.946 
	L 129.260, 183.473 
" />
<path d="M 129.119, 183.472 
	L 129.118, 183.473 
	L 130.394, 183.757 
	L 131.669, 183.757 
	L 132.945, 183.544 
	L 134.220, 183.048 
	L 135.283, 182.339 
	L 136.205, 181.418 
	L 136.984, 180.355 
	L 137.480, 179.150 
	L 137.764, 177.875 
" />
<path d="M 137.764, 177.875 
	L 137.764, 176.528 
	L 137.551, 175.253 
	L 137.055, 174.048 
	L 136.346, 172.985 
	L 135.425, 171.993 
	L 134.362, 171.284 
	L 133.158, 170.717 
	L 131.882, 170.505 
	L 130.606, 170.434 
	L 129.331, 170.717 
" />
<path d="M 129.331, 170.717 
	L 128.055, 171.142 
	L 126.992, 171.851 
	L 126.071, 172.772 
	L 125.291, 173.835 
	L 124.795, 175.040 
	L 124.512, 176.316 
	L 124.512, 177.662 
	L 124.724, 178.938 
	L 125.220, 180.142 
	L 125.929, 181.276 
" />
<path d="M 125.929, 181.276 
	L 126.850, 182.198 
	L 127.913, 182.906 
	L 129.118, 183.473 
" />
<path d="M 128.694, 183.331 
	L 128.693, 183.331 
	L 130.677, 177.237 
" />
<path d="M 130.536, 176.882 
	L 130.535, 176.883 
	L 132.449, 180.639 
	L 132.661, 180.851 
	L 133.016, 180.780 
	L 133.087, 180.780 
	L 133.299, 180.497 
	L 133.228, 180.213 
	L 131.315, 176.457 
	L 131.102, 176.245 
	L 130.748, 176.245 
" />
<path d="M 130.748, 176.245 
	L 130.677, 176.316 
	L 132.520, 170.576 
" />
<path d="M 132.237, 170.504 
	L 132.236, 170.505 
	L 128.197, 183.119 
" />
<path d="M 128.481, 183.189 
	L 128.480, 183.190 
	L 130.465, 176.883 
" />
<path d="M 130.536, 176.882 
	L 130.535, 176.883 
	L 130.465, 176.528 
	L 130.677, 176.316 
" />
<path d="M 131.032, 176.244 
	L 131.032, 176.245 
	L 132.803, 170.646 
" />
<path d="M 133.087, 170.717 
	L 133.087, 170.717 
	L 131.244, 176.387 
" />
<path d="M 131.457, 176.669 
	L 131.457, 176.670 
	L 133.370, 170.788 
" />
<path d="M 133.583, 170.929 
	L 133.583, 170.930 
	L 131.669, 177.095 
" />
<path d="M 131.812, 177.449 
	L 131.811, 177.450 
	L 133.866, 171.001 
" />
<path d="M 134.150, 171.142 
	L 134.150, 171.142 
	L 132.024, 177.804 
" />
<path d="M 132.166, 178.158 
	L 132.165, 178.158 
	L 134.362, 171.284 
" />
<path d="M 134.646, 171.425 
	L 134.646, 171.426 
	L 132.378, 178.513 
" />
<path d="M 132.591, 178.866 
	L 132.591, 178.867 
	L 134.929, 171.568 
" />
<path d="M 135.142, 171.780 
	L 135.142, 171.780 
	L 132.732, 179.221 
" />
<path d="M 132.946, 179.575 
	L 132.945, 179.576 
	L 135.354, 171.922 
" />
<path d="M 135.639, 172.134 
	L 135.638, 172.135 
	L 133.087, 179.930 
" />
<path d="M 133.300, 180.354 
	L 133.299, 180.355 
	L 135.850, 172.347 
" />
<path d="M 136.064, 172.630 
	L 136.063, 172.631 
	L 132.520, 183.615 
" />
<path d="M 132.237, 183.685 
	L 132.236, 183.686 
	L 133.158, 180.639 
" />
<path d="M 132.804, 180.850 
	L 132.803, 180.851 
	L 131.882, 183.757 
" />
<path d="M 131.599, 183.756 
	L 131.598, 183.757 
	L 132.591, 180.780 
" />
<path d="M 132.379, 180.496 
	L 132.378, 180.497 
	L 131.315, 183.757 
" />
<path d="M 130.961, 183.756 
	L 130.961, 183.757 
	L 132.165, 180.072 
" />
<path d="M 131.953, 179.717 
	L 131.953, 179.717 
	L 130.677, 183.757 
" />
<path d="M 130.394, 183.756 
	L 130.394, 183.757 
	L 131.811, 179.363 
" />
<path d="M 131.599, 179.008 
	L 131.598, 179.009 
	L 130.110, 183.686 
" />
<path d="M 129.828, 183.614 
	L 129.827, 183.615 
	L 131.457, 178.654 
" />
<path d="M 131.245, 178.299 
	L 131.244, 178.300 
	L 129.543, 183.615 
" />
<path d="M 127.914, 182.976 
	L 127.913, 182.977 
	L 131.953, 170.505 
" />
<path d="M 131.670, 170.433 
	L 131.669, 170.434 
	L 127.701, 182.835 
" />
<path d="M 127.418, 182.622 
	L 127.417, 182.623 
	L 131.386, 170.434 
" />
<path d="M 131.032, 170.433 
	L 131.032, 170.434 
	L 127.205, 182.481 
" />
<path d="M 126.922, 182.268 
	L 126.921, 182.268 
	L 130.748, 170.434 
" />
<path d="M 130.465, 170.433 
	L 130.465, 170.434 
	L 126.709, 182.127 
" />
<path d="M 126.497, 181.843 
	L 126.496, 181.843 
	L 130.110, 170.505 
" />
<path d="M 129.828, 170.575 
	L 129.827, 170.576 
	L 126.283, 181.631 
" />
<path d="M 126.001, 181.417 
	L 126.000, 181.418 
	L 129.472, 170.646 
" />
<path d="M 129.119, 170.717 
	L 129.118, 170.717 
	L 125.787, 181.135 
" />
<path d="M 125.576, 180.850 
	L 125.575, 180.851 
	L 128.835, 170.859 
" />
<path d="M 128.481, 171.000 
	L 128.480, 171.001 
	L 125.433, 180.497 
" />
<path d="M 125.221, 180.213 
	L 125.220, 180.213 
	L 128.126, 171.142 
" />
<path d="M 127.772, 171.354 
	L 127.772, 171.355 
	L 125.008, 179.788 
" />
<path d="M 124.867, 179.362 
	L 124.866, 179.363 
	L 127.346, 171.568 
" />
<path d="M 126.993, 171.921 
	L 126.992, 171.922 
	L 124.724, 178.938 
" />
<path d="M 124.583, 178.370 
	L 124.583, 178.371 
	L 126.567, 172.276 
" />
<path d="M 126.142, 172.701 
	L 126.142, 172.702 
	L 124.512, 177.733 
" />
<path d="M 124.442, 176.882 
	L 124.441, 176.883 
	L 125.575, 173.410 
" />
<path d="M 128.056, 173.409 
	L 128.055, 173.410 
	L 127.276, 174.190 
	L 126.709, 175.111 
	L 126.425, 176.174 
	L 126.283, 177.237 
	L 126.425, 178.300 
	L 126.850, 179.292 
	L 127.417, 180.213 
	L 128.197, 180.993 
	L 129.189, 181.489 
" />
<path d="M 129.189, 181.489 
	L 130.181, 181.843 
	L 131.244, 181.914 
	L 132.307, 181.772 
	L 133.370, 181.418 
	L 134.220, 180.780 
	L 135.000, 180.001 
	L 135.567, 179.079 
	L 135.850, 178.087 
	L 135.992, 176.953 
	L 135.850, 175.891 
" />
<path d="M 135.850, 175.891 
	L 135.425, 174.898 
	L 134.858, 173.977 
	L 134.079, 173.268 
	L 133.158, 172.702 
	L 132.095, 172.347 
	L 131.032, 172.276 
	L 129.969, 172.418 
	L 128.906, 172.772 
	L 128.055, 173.410 
" />
<path d="M 136.702, 173.409 
	L 136.701, 173.410 
	L 133.512, 183.331 
" />
<path d="M 133.229, 183.472 
	L 133.228, 183.473 
	L 136.488, 173.127 
" />
<path d="M 136.276, 172.843 
	L 136.276, 172.843 
	L 132.874, 183.544 
" />
<path d="M 133.867, 183.189 
	L 133.866, 183.190 
	L 136.913, 173.765 
" />
<path d="M 137.127, 174.118 
	L 137.126, 174.119 
	L 134.220, 182.977 
" />
<path d="M 134.576, 182.835 
	L 134.575, 182.835 
	L 137.268, 174.473 
" />
<path d="M 137.410, 174.898 
	L 137.409, 174.898 
	L 135.000, 182.552 
" />
<path d="M 135.355, 182.268 
	L 135.354, 182.268 
	L 137.622, 175.394 
" />
<path d="M 137.694, 175.961 
	L 137.693, 175.961 
	L 135.780, 181.843 
" />
<path d="M 136.276, 181.346 
	L 136.276, 181.347 
	L 137.764, 176.599 
" />
<path d="M 137.765, 177.591 
	L 137.764, 177.591 
	L 136.843, 180.639 
" />
<path d="M 104.316, 181.346 
	L 104.315, 181.347 
	L 98.008, 192.757 
" />
<path d="M 97.796, 192.685 
	L 97.795, 192.686 
	L 99.071, 192.969 
	L 100.346, 192.969 
	L 101.693, 192.686 
	L 102.898, 192.261 
	L 103.961, 191.552 
	L 104.882, 190.631 
	L 105.661, 189.497 
	L 106.157, 188.363 
	L 106.441, 187.016 
" />
<path d="M 106.441, 187.016 
	L 106.441, 185.741 
	L 106.228, 184.465 
	L 105.732, 183.261 
	L 105.024, 182.127 
	L 104.102, 181.205 
	L 103.039, 180.497 
	L 101.835, 179.930 
	L 100.559, 179.646 
	L 99.283, 179.646 
	L 97.937, 179.930 
" />
<path d="M 97.937, 179.930 
	L 96.732, 180.355 
	L 95.669, 181.064 
	L 94.677, 181.985 
	L 93.969, 183.048 
	L 93.472, 184.253 
	L 93.189, 185.528 
	L 93.189, 186.875 
	L 93.402, 188.150 
	L 93.898, 189.355 
	L 94.606, 190.489 
	L 95.528, 191.410 
" />
<path d="M 95.528, 191.410 
	L 96.591, 192.119 
	L 97.795, 192.686 
" />
<path d="M 97.725, 192.685 
	L 97.724, 192.686 
	L 104.102, 181.205 
" />
<path d="M 103.890, 180.992 
	L 103.890, 180.993 
	L 97.441, 192.544 
" />
<path d="M 97.229, 192.472 
	L 97.228, 192.473 
	L 100.134, 187.158 
	L 100.346, 186.946 
	L 100.417, 186.662 
	L 103.606, 180.851 
" />
<path d="M 103.394, 180.638 
	L 103.394, 180.639 
	L 100.276, 186.308 
" />
<path d="M 100.418, 186.661 
	L 100.417, 186.662 
	L 99.213, 182.623 
	L 99.000, 182.339 
	L 98.717, 182.339 
	L 98.646, 182.339 
	L 98.362, 182.552 
	L 98.362, 182.835 
	L 99.496, 186.946 
	L 99.709, 187.158 
	L 99.992, 187.229 
	L 100.134, 187.158 
" />
<path d="M 100.134, 187.158 
" />
<path d="M 99.780, 187.228 
	L 99.780, 187.229 
	L 96.945, 192.331 
" />
<path d="M 96.662, 192.189 
	L 96.661, 192.190 
	L 99.567, 187.016 
" />
<path d="M 99.426, 186.661 
	L 99.425, 186.662 
	L 96.449, 192.048 
" />
<path d="M 96.166, 191.906 
	L 96.165, 191.906 
	L 99.283, 186.237 
" />
<path d="M 99.213, 185.882 
	L 99.213, 185.883 
	L 95.953, 191.765 
" />
<path d="M 95.741, 191.551 
	L 95.740, 191.552 
	L 99.071, 185.457 
" />
<path d="M 99.001, 185.102 
	L 99.000, 185.103 
	L 95.528, 191.410 
" />
<path d="M 95.245, 191.197 
	L 95.244, 191.198 
	L 98.858, 184.678 
" />
<path d="M 98.788, 184.323 
	L 98.787, 184.324 
	L 95.032, 190.985 
" />
<path d="M 94.890, 190.772 
	L 94.890, 190.772 
	L 98.646, 183.898 
" />
<path d="M 98.505, 183.543 
	L 98.504, 183.544 
	L 94.677, 190.560 
" />
<path d="M 94.465, 190.276 
	L 94.465, 190.276 
	L 98.433, 183.119 
" />
<path d="M 98.363, 182.693 
	L 98.362, 182.694 
	L 94.252, 190.064 
" />
<path d="M 94.111, 189.780 
	L 94.110, 189.780 
	L 99.709, 179.646 
" />
<path d="M 99.993, 179.646 
	L 99.992, 179.646 
	L 98.504, 182.410 
" />
<path d="M 98.859, 182.339 
	L 98.858, 182.339 
	L 100.346, 179.646 
" />
<path d="M 100.631, 179.717 
	L 100.630, 179.717 
	L 99.142, 182.410 
" />
<path d="M 99.284, 182.764 
	L 99.283, 182.765 
	L 100.984, 179.717 
" />
<path d="M 101.268, 179.787 
	L 101.268, 179.788 
	L 99.354, 183.190 
" />
<path d="M 99.497, 183.543 
	L 99.496, 183.544 
	L 101.551, 179.859 
" />
<path d="M 101.835, 179.929 
	L 101.835, 179.930 
	L 99.638, 183.969 
" />
<path d="M 99.709, 184.323 
	L 99.709, 184.324 
	L 102.118, 180.001 
" />
<path d="M 102.331, 180.142 
	L 102.331, 180.142 
	L 99.850, 184.749 
" />
<path d="M 99.922, 185.102 
	L 99.921, 185.103 
	L 102.614, 180.284 
" />
<path d="M 102.898, 180.354 
	L 102.898, 180.355 
	L 100.063, 185.528 
" />
<path d="M 100.205, 185.882 
	L 100.205, 185.883 
	L 103.110, 180.497 
" />
<path d="M 102.615, 182.339 
	L 102.614, 182.339 
	L 101.693, 181.843 
	L 100.630, 181.560 
	L 99.567, 181.489 
	L 98.504, 181.631 
	L 97.441, 182.056 
	L 96.591, 182.694 
	L 95.882, 183.473 
	L 95.315, 184.465 
	L 95.032, 185.528 
" />
<path d="M 95.032, 185.528 
	L 94.961, 186.591 
	L 95.173, 187.654 
	L 95.598, 188.646 
	L 96.236, 189.497 
	L 97.016, 190.276 
	L 97.937, 190.772 
	L 99.000, 191.056 
	L 100.063, 191.127 
	L 101.126, 190.985 
	L 102.118, 190.560 
	L 103.039, 189.922 
" />
<path d="M 103.039, 189.922 
	L 103.748, 189.072 
	L 104.315, 188.150 
	L 104.598, 187.087 
	L 104.669, 186.024 
	L 104.457, 184.961 
	L 104.032, 183.969 
	L 103.394, 183.048 
	L 102.614, 182.339 
" />
<path d="M 105.095, 182.268 
	L 105.095, 182.268 
	L 99.213, 192.969 
" />
<path d="M 99.568, 192.969 
	L 99.567, 192.969 
	L 105.307, 182.552 
" />
<path d="M 105.450, 182.764 
	L 105.449, 182.765 
	L 99.850, 192.969 
" />
<path d="M 100.205, 192.969 
	L 100.205, 192.969 
	L 105.661, 183.048 
" />
<path d="M 105.804, 183.402 
	L 105.803, 183.402 
	L 100.559, 192.969 
" />
<path d="M 100.914, 192.898 
	L 100.913, 192.898 
	L 105.945, 183.686 
" />
<path d="M 106.087, 184.039 
	L 106.087, 184.040 
	L 101.268, 192.828 
" />
<path d="M 101.623, 192.756 
	L 101.622, 192.757 
	L 106.228, 184.394 
" />
<path d="M 106.300, 184.819 
	L 106.299, 184.820 
	L 102.047, 192.615 
" />
<path d="M 102.473, 192.402 
	L 102.472, 192.402 
	L 106.370, 185.245 
" />
<path d="M 106.442, 185.740 
	L 106.441, 185.741 
	L 102.898, 192.261 
" />
<path d="M 103.394, 191.976 
	L 103.394, 191.977 
	L 106.512, 186.308 
" />
<path d="M 106.442, 186.945 
	L 106.441, 186.946 
	L 103.890, 191.552 
" />
<path d="M 104.528, 190.984 
	L 104.528, 190.985 
	L 106.299, 187.796 
" />
<path d="M 104.953, 182.055 
	L 104.953, 182.056 
	L 98.929, 192.898 
" />
<path d="M 98.576, 192.898 
	L 98.575, 192.898 
	L 104.740, 181.772 
" />
<path d="M 104.528, 181.559 
	L 104.528, 181.560 
	L 98.291, 192.828 
" />
<path d="M 93.969, 189.496 
	L 93.969, 189.497 
	L 99.354, 179.646 
" />
<path d="M 99.001, 179.646 
	L 99.000, 179.646 
	L 93.756, 189.142 
" />
<path d="M 93.615, 188.858 
	L 93.614, 188.859 
	L 98.646, 179.717 
" />
<path d="M 98.292, 179.787 
	L 98.291, 179.788 
	L 93.472, 188.505 
" />
<path d="M 93.402, 188.079 
	L 93.402, 188.079 
	L 97.937, 179.930 
" />
<path d="M 97.513, 180.071 
	L 97.512, 180.072 
	L 93.260, 187.654 
" />
<path d="M 93.190, 187.228 
	L 93.189, 187.229 
	L 97.087, 180.213 
" />
<path d="M 96.662, 180.425 
	L 96.661, 180.426 
	L 93.118, 186.733 
" />
<path d="M 93.119, 186.165 
	L 93.118, 186.166 
	L 96.165, 180.709 
" />
<path d="M 95.599, 181.134 
	L 95.598, 181.135 
	L 93.189, 185.457 
" />
<path d="M 93.402, 184.606 
	L 93.402, 184.607 
	L 94.890, 181.772 
" />
<path d="M 73.631, 193.819 
	L 73.630, 193.820 
	L 72.638, 192.969 
	L 71.433, 192.402 
	L 70.228, 192.048 
	L 68.882, 191.906 
	L 67.606, 192.048 
	L 66.331, 192.402 
	L 65.197, 193.040 
	L 64.205, 193.891 
	L 63.354, 194.883 
	L 62.787, 196.087 
" />
<path d="M 62.787, 196.087 
	L 62.362, 197.292 
	L 62.291, 198.639 
	L 62.433, 199.914 
	L 62.787, 201.190 
	L 63.425, 202.324 
	L 64.276, 203.316 
	L 65.268, 204.166 
	L 66.402, 204.733 
	L 67.677, 205.158 
	L 68.953, 205.229 
	L 70.299, 205.087 
" />
<path d="M 70.299, 205.087 
	L 71.504, 204.733 
	L 72.709, 204.095 
	L 73.701, 203.245 
	L 74.480, 202.253 
	L 75.118, 201.119 
	L 75.472, 199.843 
	L 75.614, 198.497 
	L 75.472, 197.221 
	L 75.118, 195.946 
	L 74.480, 194.812 
	L 73.630, 193.820 
" />
<path d="M 73.630, 193.820 
" />
<path d="M 73.489, 193.748 
	L 73.488, 193.749 
	L 68.811, 205.229 
" />
<path d="M 68.528, 205.228 
	L 68.528, 205.229 
	L 73.276, 193.536 
" />
<path d="M 73.064, 193.323 
	L 73.063, 193.324 
	L 68.244, 205.229 
" />
<path d="M 67.961, 205.158 
	L 67.961, 205.158 
	L 72.780, 193.111 
" />
<path d="M 72.568, 192.969 
	L 72.567, 192.969 
	L 67.606, 205.087 
" />
<path d="M 67.324, 205.087 
	L 67.323, 205.087 
	L 72.354, 192.828 
" />
<path d="M 72.072, 192.685 
	L 72.071, 192.686 
	L 69.591, 198.851 
	L 67.890, 194.953 
	L 67.677, 194.741 
	L 67.394, 194.741 
	L 67.323, 194.812 
	L 67.039, 195.024 
	L 67.039, 195.308 
	L 68.740, 199.205 
	L 68.953, 199.418 
	L 69.236, 199.418 
" />
<path d="M 69.236, 199.418 
	L 69.307, 199.418 
	L 69.591, 199.205 
	L 69.591, 198.851 
" />
<path d="M 69.379, 198.496 
	L 69.378, 198.497 
	L 71.787, 192.544 
" />
<path d="M 71.576, 192.472 
	L 71.575, 192.473 
	L 69.236, 198.142 
" />
<path d="M 69.095, 197.717 
	L 69.094, 197.717 
	L 71.291, 192.331 
" />
<path d="M 71.009, 192.260 
	L 71.008, 192.261 
	L 68.953, 197.363 
" />
<path d="M 68.741, 197.008 
	L 68.740, 197.009 
	L 70.724, 192.119 
" />
<path d="M 70.442, 192.047 
	L 70.441, 192.048 
	L 68.598, 196.654 
" />
<path d="M 68.457, 196.228 
	L 68.457, 196.229 
	L 70.157, 192.048 
" />
<path d="M 69.875, 191.976 
	L 69.874, 191.977 
	L 68.315, 195.875 
" />
<path d="M 68.174, 195.520 
	L 68.173, 195.520 
	L 69.591, 191.906 
" />
<path d="M 69.308, 191.906 
	L 69.307, 191.906 
	L 67.961, 195.166 
" />
<path d="M 67.820, 194.811 
	L 67.819, 194.812 
	L 68.953, 191.906 
" />
<path d="M 68.670, 191.906 
	L 68.669, 191.906 
	L 67.535, 194.741 
" />
<path d="M 67.182, 194.882 
	L 67.181, 194.883 
	L 68.386, 191.906 
" />
<path d="M 68.032, 191.976 
	L 68.032, 191.977 
	L 63.709, 202.678 
" />
<path d="M 63.497, 202.394 
	L 63.496, 202.394 
	L 67.677, 192.048 
" />
<path d="M 67.394, 192.118 
	L 67.394, 192.119 
	L 63.283, 202.111 
" />
<path d="M 63.072, 201.827 
	L 63.071, 201.828 
	L 67.039, 192.190 
" />
<path d="M 66.686, 192.331 
	L 66.685, 192.331 
	L 62.929, 201.473 
" />
<path d="M 62.788, 201.118 
	L 62.787, 201.119 
	L 66.260, 192.473 
" />
<path d="M 65.906, 192.614 
	L 65.906, 192.615 
	L 62.646, 200.694 
" />
<path d="M 62.505, 200.268 
	L 62.504, 200.268 
	L 65.480, 192.828 
" />
<path d="M 65.056, 193.110 
	L 65.055, 193.111 
	L 62.362, 199.772 
" />
<path d="M 62.292, 199.205 
	L 62.291, 199.205 
	L 64.630, 193.465 
" />
<path d="M 64.135, 193.961 
	L 64.134, 193.961 
	L 62.291, 198.568 
" />
<path d="M 62.363, 197.646 
	L 62.362, 197.646 
	L 63.567, 194.670 
" />
<path d="M 65.339, 195.378 
	L 65.339, 195.379 
	L 64.701, 196.300 
	L 64.276, 197.292 
	L 64.134, 198.355 
	L 64.205, 199.418 
	L 64.488, 200.481 
	L 64.984, 201.402 
	L 65.764, 202.182 
	L 66.614, 202.820 
	L 67.606, 203.245 
	L 68.669, 203.387 
" />
<path d="M 68.669, 203.387 
	L 69.803, 203.316 
	L 70.795, 203.032 
	L 71.787, 202.536 
	L 72.567, 201.757 
	L 73.205, 200.906 
	L 73.630, 199.914 
	L 73.772, 198.780 
	L 73.701, 197.717 
	L 73.417, 196.725 
	L 72.850, 195.733 
	L 72.142, 194.953 
" />
<path d="M 72.142, 194.953 
	L 71.220, 194.316 
	L 70.228, 193.891 
	L 69.165, 193.749 
	L 68.102, 193.820 
	L 67.039, 194.103 
	L 66.118, 194.670 
	L 65.339, 195.379 
" />
<path d="M 67.040, 195.165 
	L 67.039, 195.166 
	L 63.921, 202.961 
" />
<path d="M 64.135, 203.173 
	L 64.134, 203.174 
	L 67.181, 195.591 
" />
<path d="M 67.324, 195.945 
	L 67.323, 195.946 
	L 64.346, 203.387 
" />
<path d="M 64.560, 203.598 
	L 64.559, 203.599 
	L 67.465, 196.371 
" />
<path d="M 67.678, 196.724 
	L 67.677, 196.725 
	L 64.772, 203.812 
" />
<path d="M 64.985, 203.953 
	L 64.984, 203.953 
	L 67.819, 197.079 
" />
<path d="M 67.961, 197.433 
	L 67.961, 197.434 
	L 65.268, 204.166 
" />
<path d="M 65.481, 204.307 
	L 65.480, 204.308 
	L 68.102, 197.859 
" />
<path d="M 68.316, 198.213 
	L 68.315, 198.213 
	L 65.764, 204.450 
" />
<path d="M 65.977, 204.591 
	L 65.976, 204.591 
	L 68.457, 198.568 
" />
<path d="M 68.599, 198.921 
	L 68.598, 198.922 
	L 66.260, 204.662 
" />
<path d="M 66.544, 204.803 
	L 66.543, 204.804 
	L 68.740, 199.276 
" />
<path d="M 69.024, 199.488 
	L 69.024, 199.489 
	L 66.827, 204.875 
" />
<path d="M 67.111, 205.016 
	L 67.110, 205.016 
	L 69.378, 199.418 
" />
<path d="M 69.450, 205.228 
	L 69.449, 205.229 
	L 73.913, 194.174 
" />
<path d="M 74.127, 194.386 
	L 74.126, 194.387 
	L 69.803, 205.229 
" />
<path d="M 70.087, 205.158 
	L 70.087, 205.158 
	L 74.339, 194.670 
" />
<path d="M 74.552, 194.953 
	L 74.551, 194.953 
	L 70.441, 205.087 
" />
<path d="M 70.796, 205.016 
	L 70.795, 205.016 
	L 74.764, 195.237 
" />
<path d="M 74.906, 195.591 
	L 74.906, 195.591 
	L 71.150, 204.875 
" />
<path d="M 71.505, 204.732 
	L 71.504, 204.733 
	L 75.047, 195.946 
" />
<path d="M 75.261, 196.370 
	L 75.260, 196.371 
	L 71.858, 204.591 
" />
<path d="M 72.284, 204.378 
	L 72.283, 204.379 
	L 75.331, 196.796 
" />
<path d="M 75.473, 197.221 
	L 75.472, 197.221 
	L 72.709, 204.095 
" />
<path d="M 73.135, 203.740 
	L 73.134, 203.741 
	L 75.543, 197.788 
" />
<path d="M 75.615, 198.425 
	L 75.614, 198.426 
	L 73.630, 203.316 
" />
<path d="M 74.198, 202.677 
	L 74.197, 202.678 
	L 75.543, 199.276 
" />
<path d="M 73.702, 193.961 
	L 73.701, 193.961 
	L 69.165, 205.229 
" />
<path d="M 126.497, 112.890 
	L 126.496, 112.890 
	L 136.417, 112.182 
" />
<path d="M 136.205, 112.465 
	L 136.205, 112.465 
	L 136.913, 111.402 
	L 137.480, 110.198 
	L 137.764, 108.922 
	L 137.764, 107.576 
	L 137.551, 106.300 
	L 137.126, 105.095 
	L 136.417, 103.961 
	L 135.496, 103.040 
	L 134.433, 102.261 
" />
<path d="M 134.433, 102.261 
	L 133.228, 101.765 
	L 131.953, 101.481 
	L 130.677, 101.410 
	L 129.402, 101.623 
	L 128.126, 102.119 
	L 127.063, 102.827 
	L 126.071, 103.678 
	L 125.362, 104.741 
	L 124.795, 105.946 
	L 124.512, 107.221 
" />
<path d="M 124.512, 107.221 
	L 124.512, 108.568 
	L 124.724, 109.843 
	L 125.150, 111.048 
	L 125.858, 112.182 
	L 126.780, 113.103 
	L 127.843, 113.883 
	L 129.047, 114.379 
	L 130.323, 114.733 
	L 131.598, 114.733 
	L 132.874, 114.520 
" />
<path d="M 132.874, 114.520 
	L 134.150, 114.024 
	L 135.213, 113.387 
	L 136.205, 112.465 
" />
<path d="M 136.135, 112.465 
	L 136.134, 112.465 
	L 126.780, 113.174 
" />
<path d="M 127.135, 113.386 
	L 127.134, 113.387 
	L 135.850, 112.820 
" />
<path d="M 135.497, 113.102 
	L 135.496, 113.103 
	L 127.488, 113.670 
" />
<path d="M 127.914, 113.953 
	L 127.913, 113.953 
	L 135.142, 113.457 
" />
<path d="M 134.646, 113.740 
	L 134.646, 113.741 
	L 128.480, 114.166 
" />
<path d="M 129.119, 114.449 
	L 129.118, 114.450 
	L 134.079, 114.095 
" />
<path d="M 133.158, 114.449 
	L 133.158, 114.450 
	L 129.969, 114.662 
" />
<path d="M 129.898, 112.748 
	L 129.898, 112.749 
	L 130.961, 112.890 
	L 132.024, 112.820 
	L 133.087, 112.536 
	L 134.008, 111.969 
	L 134.787, 111.261 
	L 135.425, 110.339 
	L 135.780, 109.347 
	L 135.992, 108.284 
	L 135.921, 107.221 
" />
<path d="M 135.921, 107.221 
	L 135.567, 106.158 
	L 135.071, 105.237 
	L 134.291, 104.457 
	L 133.441, 103.820 
	L 132.378, 103.394 
	L 131.315, 103.253 
	L 130.252, 103.324 
	L 129.189, 103.607 
	L 128.268, 104.174 
	L 127.488, 104.883 
" />
<path d="M 127.488, 104.883 
	L 126.850, 105.804 
	L 126.496, 106.796 
	L 126.283, 107.859 
	L 126.354, 108.993 
	L 126.709, 109.985 
	L 127.205, 110.906 
	L 127.984, 111.757 
	L 128.835, 112.324 
	L 129.898, 112.749 
" />
<path d="M 129.261, 110.976 
	L 129.260, 110.977 
	L 137.409, 110.410 
" />
<path d="M 137.481, 110.126 
	L 137.480, 110.127 
	L 129.472, 110.694 
" />
<path d="M 129.757, 110.339 
	L 129.756, 110.339 
	L 137.551, 109.843 
" />
<path d="M 137.623, 109.488 
	L 137.622, 109.489 
	L 130.039, 110.056 
" />
<path d="M 130.324, 109.772 
	L 130.323, 109.772 
	L 137.693, 109.205 
" />
<path d="M 137.765, 108.921 
	L 137.764, 108.922 
	L 130.535, 109.418 
" />
<path d="M 130.820, 109.134 
	L 130.819, 109.135 
	L 137.764, 108.639 
" />
<path d="M 137.835, 108.354 
	L 137.835, 108.355 
	L 131.102, 108.851 
" />
<path d="M 131.387, 108.496 
	L 131.386, 108.497 
	L 137.835, 108.072 
" />
<path d="M 137.835, 107.787 
	L 137.835, 107.788 
	L 131.598, 108.213 
" />
<path d="M 131.812, 108.000 
	L 131.811, 108.001 
	L 131.882, 107.717 
	L 131.740, 107.434 
	L 131.740, 107.363 
	L 131.386, 107.292 
	L 131.102, 107.434 
	L 128.339, 110.552 
	L 128.268, 110.906 
	L 128.409, 111.190 
	L 128.480, 111.261 
" />
<path d="M 128.480, 111.261 
	L 128.764, 111.331 
	L 129.047, 111.190 
	L 131.811, 108.001 
" />
<path d="M 131.883, 107.929 
	L 131.882, 107.930 
	L 137.764, 107.505 
" />
<path d="M 137.765, 107.220 
	L 137.764, 107.221 
	L 131.882, 107.646 
" />
<path d="M 131.670, 107.362 
	L 131.669, 107.363 
	L 137.693, 106.938 
" />
<path d="M 137.623, 106.654 
	L 137.622, 106.654 
	L 124.512, 107.576 
" />
<path d="M 124.513, 107.291 
	L 124.512, 107.292 
	L 137.622, 106.371 
" />
<path d="M 137.481, 106.087 
	L 137.480, 106.087 
	L 124.583, 107.009 
" />
<path d="M 124.583, 106.724 
	L 124.583, 106.725 
	L 137.409, 105.804 
" />
<path d="M 137.268, 105.520 
	L 137.268, 105.520 
	L 124.654, 106.442 
" />
<path d="M 124.796, 106.087 
	L 124.795, 106.087 
	L 137.197, 105.237 
" />
<path d="M 137.056, 104.953 
	L 137.055, 104.953 
	L 124.866, 105.804 
" />
<path d="M 125.009, 105.520 
	L 125.008, 105.520 
	L 136.913, 104.670 
" />
<path d="M 136.702, 104.386 
	L 136.701, 104.387 
	L 125.079, 105.237 
" />
<path d="M 125.221, 104.953 
	L 125.220, 104.953 
	L 136.488, 104.174 
" />
<path d="M 136.347, 103.890 
	L 136.346, 103.890 
	L 125.433, 104.670 
" />
<path d="M 125.646, 104.315 
	L 125.646, 104.316 
	L 136.063, 103.607 
" />
<path d="M 135.851, 103.323 
	L 135.850, 103.324 
	L 125.858, 104.032 
" />
<path d="M 126.072, 103.748 
	L 126.071, 103.749 
	L 135.567, 103.040 
" />
<path d="M 135.213, 102.827 
	L 135.213, 102.827 
	L 126.354, 103.394 
" />
<path d="M 126.709, 103.110 
	L 126.709, 103.111 
	L 134.858, 102.544 
" />
<path d="M 134.434, 102.260 
	L 134.433, 102.261 
	L 127.063, 102.827 
" />
<path d="M 127.489, 102.472 
	L 127.488, 102.473 
	L 133.937, 102.048 
" />
<path d="M 133.300, 101.764 
	L 133.299, 101.765 
	L 128.055, 102.119 
" />
<path d="M 128.835, 101.835 
	L 128.835, 101.835 
	L 132.520, 101.552 
" />
<path d="M 132.379, 99.283 
	L 132.378, 99.284 
	L 135.638, 97.654 
" />
<path d="M 135.213, 98.008 
	L 135.213, 98.009 
	L 136.205, 97.087 
	L 136.913, 96.024 
	L 137.480, 94.820 
	L 137.764, 93.544 
	L 137.764, 92.268 
	L 137.551, 90.993 
	L 137.126, 89.717 
	L 136.417, 88.654 
	L 135.496, 87.662 
	L 134.433, 86.953 
" />
<path d="M 134.433, 86.953 
	L 133.228, 86.387 
	L 131.953, 86.103 
	L 130.677, 86.103 
	L 129.331, 86.316 
	L 128.126, 86.812 
	L 127.063, 87.450 
	L 126.071, 88.371 
	L 125.362, 89.434 
	L 124.795, 90.639 
	L 124.512, 91.914 
	L 124.512, 93.261 
" />
<path d="M 124.512, 93.261 
	L 124.724, 94.536 
	L 125.150, 95.741 
	L 125.858, 96.875 
	L 126.780, 97.796 
	L 127.843, 98.576 
	L 129.047, 99.072 
	L 130.323, 99.355 
	L 131.598, 99.426 
	L 132.945, 99.142 
	L 134.150, 98.717 
	L 135.213, 98.009 
" />
<path d="M 135.213, 98.009 
" />
<path d="M 136.276, 97.016 
	L 136.276, 97.016 
	L 131.528, 99.426 
" />
<path d="M 130.890, 99.425 
	L 130.890, 99.426 
	L 136.630, 96.520 
" />
<path d="M 136.914, 96.024 
	L 136.913, 96.024 
	L 130.323, 99.355 
" />
<path d="M 129.828, 99.283 
	L 129.827, 99.284 
	L 137.126, 95.599 
" />
<path d="M 137.339, 95.173 
	L 137.339, 95.174 
	L 129.402, 99.213 
" />
<path d="M 129.048, 99.071 
	L 129.047, 99.072 
	L 137.480, 94.820 
" />
<path d="M 137.623, 94.465 
	L 137.622, 94.465 
	L 128.622, 98.930 
" />
<path d="M 128.339, 98.787 
	L 128.339, 98.788 
	L 137.693, 94.040 
" />
<path d="M 137.765, 93.756 
	L 137.764, 93.757 
	L 127.984, 98.646 
" />
<path d="M 127.702, 98.433 
	L 127.701, 98.434 
	L 137.764, 93.402 
" />
<path d="M 137.835, 93.047 
	L 137.835, 93.048 
	L 127.417, 98.292 
" />
<path d="M 127.135, 98.079 
	L 127.134, 98.079 
	L 137.835, 92.694 
" />
<path d="M 137.835, 92.409 
	L 137.835, 92.410 
	L 126.921, 97.867 
" />
<path d="M 126.639, 97.654 
	L 126.638, 97.654 
	L 137.764, 92.127 
" />
<path d="M 137.765, 91.772 
	L 137.764, 91.772 
	L 126.425, 97.442 
" />
<path d="M 126.213, 97.228 
	L 126.213, 97.229 
	L 137.693, 91.489 
" />
<path d="M 137.623, 91.205 
	L 137.622, 91.205 
	L 126.000, 97.016 
" />
<path d="M 125.859, 96.803 
	L 125.858, 96.804 
	L 137.551, 90.922 
" />
<path d="M 137.481, 90.638 
	L 137.480, 90.639 
	L 125.646, 96.591 
" />
<path d="M 125.505, 96.307 
	L 125.504, 96.308 
	L 130.890, 93.615 
	L 131.244, 93.615 
	L 131.386, 93.331 
	L 132.732, 89.363 
	L 132.732, 89.079 
	L 132.449, 88.867 
	L 132.378, 88.796 
	L 132.095, 88.867 
	L 131.882, 89.079 
	L 130.535, 93.048 
" />
<path d="M 130.535, 93.048 
	L 130.535, 93.402 
	L 130.819, 93.615 
	L 130.890, 93.615 
" />
<path d="M 130.607, 93.472 
	L 130.606, 93.473 
	L 125.362, 96.095 
" />
<path d="M 125.221, 95.811 
	L 125.220, 95.812 
	L 130.535, 93.190 
" />
<path d="M 130.607, 92.835 
	L 130.606, 92.835 
	L 125.079, 95.599 
" />
<path d="M 125.009, 95.315 
	L 125.008, 95.316 
	L 130.748, 92.410 
" />
<path d="M 130.890, 92.055 
	L 130.890, 92.056 
	L 124.866, 95.032 
" />
<path d="M 124.796, 94.748 
	L 124.795, 94.749 
	L 131.032, 91.631 
" />
<path d="M 131.174, 91.276 
	L 131.173, 91.276 
	L 124.724, 94.465 
" />
<path d="M 124.654, 94.181 
	L 124.654, 94.182 
	L 131.244, 90.851 
" />
<path d="M 131.387, 90.496 
	L 131.386, 90.497 
	L 124.583, 93.898 
" />
<path d="M 124.513, 93.614 
	L 124.512, 93.615 
	L 131.528, 90.142 
" />
<path d="M 131.670, 89.717 
	L 131.669, 89.717 
	L 124.512, 93.331 
" />
<path d="M 124.442, 92.976 
	L 124.441, 92.977 
	L 131.811, 89.363 
" />
<path d="M 131.953, 88.937 
	L 131.953, 88.938 
	L 124.441, 92.694 
" />
<path d="M 124.513, 92.339 
	L 124.512, 92.339 
	L 134.787, 87.166 
" />
<path d="M 134.505, 87.024 
	L 134.504, 87.024 
	L 124.512, 92.056 
" />
<path d="M 124.583, 91.701 
	L 124.583, 91.702 
	L 134.220, 86.812 
" />
<path d="M 133.938, 86.669 
	L 133.937, 86.670 
	L 124.583, 91.347 
" />
<path d="M 124.725, 90.992 
	L 124.724, 90.993 
	L 133.583, 86.528 
" />
<path d="M 133.158, 86.386 
	L 133.158, 86.387 
	L 124.795, 90.568 
" />
<path d="M 125.009, 90.213 
	L 125.008, 90.213 
	L 132.803, 86.245 
" />
<path d="M 132.308, 86.173 
	L 132.307, 86.174 
	L 125.150, 89.788 
" />
<path d="M 125.434, 89.362 
	L 125.433, 89.363 
	L 131.811, 86.103 
" />
<path d="M 131.245, 86.102 
	L 131.244, 86.103 
	L 125.717, 88.867 
" />
<path d="M 126.142, 88.299 
	L 126.142, 88.300 
	L 130.606, 86.103 
" />
<path d="M 129.686, 86.244 
	L 129.685, 86.245 
	L 126.780, 87.662 
" />
<path d="M 127.631, 89.362 
	L 127.630, 89.363 
	L 126.992, 90.213 
	L 126.567, 91.205 
	L 126.354, 92.268 
	L 126.354, 93.331 
	L 126.567, 94.394 
	L 127.063, 95.387 
	L 127.772, 96.237 
	L 128.622, 96.875 
	L 129.614, 97.371 
	L 130.677, 97.583 
" />
<path d="M 130.677, 97.583 
	L 131.740, 97.513 
	L 132.803, 97.300 
	L 133.795, 96.804 
	L 134.646, 96.095 
	L 135.283, 95.245 
	L 135.709, 94.253 
	L 135.921, 93.190 
	L 135.921, 92.127 
	L 135.709, 91.064 
	L 135.213, 90.072 
	L 134.504, 89.292 
" />
<path d="M 134.504, 89.292 
	L 133.654, 88.583 
	L 132.661, 88.158 
	L 131.598, 87.946 
	L 130.535, 87.946 
	L 129.472, 88.229 
	L 128.480, 88.654 
	L 127.630, 89.363 
" />
<path d="M 132.662, 89.504 
	L 132.661, 89.505 
	L 135.780, 87.946 
" />
<path d="M 135.568, 87.732 
	L 135.567, 87.733 
	L 132.732, 89.150 
" />
<path d="M 132.591, 88.937 
	L 132.591, 88.938 
	L 135.354, 87.520 
" />
<path d="M 135.072, 87.378 
	L 135.071, 87.379 
	L 132.236, 88.796 
" />
<path d="M 132.591, 89.929 
	L 132.591, 89.930 
	L 135.992, 88.158 
" />
<path d="M 136.205, 88.370 
	L 136.205, 88.371 
	L 132.449, 90.284 
" />
<path d="M 132.308, 90.709 
	L 132.307, 90.709 
	L 136.417, 88.654 
" />
<path d="M 136.560, 88.866 
	L 136.559, 88.867 
	L 132.165, 91.064 
" />
<path d="M 132.024, 91.417 
	L 132.024, 91.418 
	L 136.701, 89.079 
" />
<path d="M 136.914, 89.362 
	L 136.913, 89.363 
	L 131.953, 91.843 
" />
<path d="M 131.812, 92.197 
	L 131.811, 92.198 
	L 137.055, 89.576 
" />
<path d="M 137.127, 89.858 
	L 137.126, 89.859 
	L 131.669, 92.623 
" />
<path d="M 131.528, 92.976 
	L 131.528, 92.977 
	L 137.268, 90.142 
" />
<path d="M 137.410, 90.354 
	L 137.409, 90.355 
	L 131.386, 93.402 
" />
<path d="M 131.103, 107.362 
	L 131.102, 107.363 
	L 124.441, 107.859 
" />
<path d="M 124.442, 108.142 
	L 124.441, 108.142 
	L 130.890, 107.717 
" />
<path d="M 130.607, 108.000 
	L 130.606, 108.001 
	L 124.512, 108.426 
" />
<path d="M 124.513, 108.709 
	L 124.512, 108.709 
	L 130.323, 108.284 
" />
<path d="M 130.040, 108.638 
	L 130.039, 108.639 
	L 124.512, 108.993 
" />
<path d="M 124.583, 109.276 
	L 124.583, 109.276 
	L 129.827, 108.922 
" />
<path d="M 129.544, 109.205 
	L 129.543, 109.205 
	L 124.654, 109.560 
" />
<path d="M 124.725, 109.843 
	L 124.724, 109.843 
	L 129.260, 109.560 
" />
<path d="M 128.977, 109.843 
	L 128.976, 109.843 
	L 124.795, 110.127 
" />
<path d="M 124.867, 110.409 
	L 124.866, 110.410 
	L 128.764, 110.127 
" />
<path d="M 128.481, 110.480 
	L 128.480, 110.481 
	L 125.008, 110.694 
" />
<path d="M 125.150, 110.976 
	L 125.150, 110.977 
	L 128.268, 110.765 
" />
<path d="M 128.268, 111.047 
	L 128.268, 111.048 
	L 125.291, 111.261 
" />
<path d="M 125.434, 111.543 
	L 125.433, 111.544 
	L 128.622, 111.331 
" />
<path d="M 128.906, 111.260 
	L 128.906, 111.261 
	L 137.268, 110.694 
" />
<path d="M 137.127, 110.976 
	L 137.126, 110.977 
	L 125.575, 111.827 
" />
<path d="M 125.788, 112.110 
	L 125.787, 112.111 
	L 136.984, 111.261 
" />
<path d="M 136.843, 111.614 
	L 136.843, 111.615 
	L 126.000, 112.324 
" />
<path d="M 126.284, 112.606 
	L 126.283, 112.607 
	L 136.630, 111.898 
" />
<path d="M 105.591, 111.472 
	L 105.591, 111.473 
	L 98.150, 109.631 
" />
<path d="M 97.796, 109.843 
	L 97.795, 109.843 
	L 105.378, 111.686 
" />
<path d="M 105.237, 111.969 
	L 105.236, 111.969 
	L 97.441, 110.056 
" />
<path d="M 97.087, 110.268 
	L 97.087, 110.268 
	L 105.024, 112.182 
" />
<path d="M 105.166, 112.039 
	L 105.165, 112.040 
	L 105.874, 110.906 
	L 106.299, 109.702 
	L 106.512, 108.426 
	L 106.441, 107.079 
	L 106.087, 105.804 
	L 105.520, 104.670 
	L 104.740, 103.607 
	L 103.748, 102.686 
	L 102.685, 102.048 
" />
<path d="M 102.685, 102.048 
	L 101.409, 101.623 
	L 100.134, 101.410 
	L 98.787, 101.481 
	L 97.583, 101.835 
	L 96.378, 102.331 
	L 95.315, 103.182 
	L 94.465, 104.103 
	L 93.756, 105.237 
	L 93.331, 106.442 
	L 93.118, 107.788 
" />
<path d="M 93.118, 107.788 
	L 93.189, 109.064 
	L 93.543, 110.339 
	L 94.110, 111.544 
	L 94.890, 112.607 
	L 95.882, 113.457 
	L 96.945, 114.095 
	L 98.220, 114.591 
	L 99.496, 114.733 
	L 100.772, 114.662 
	L 102.047, 114.379 
	L 103.252, 113.812 
" />
<path d="M 103.252, 113.812 
	L 104.315, 113.032 
	L 105.165, 112.040 
" />
<path d="M 104.812, 112.465 
	L 104.811, 112.465 
	L 96.732, 110.410 
" />
<path d="M 96.875, 110.409 
	L 96.874, 110.410 
	L 100.488, 108.213 
	L 100.701, 107.930 
	L 100.630, 107.646 
	L 100.559, 107.576 
	L 106.441, 108.993 
" />
<path d="M 106.442, 108.709 
	L 106.441, 108.709 
	L 93.614, 105.520 
" />
<path d="M 93.757, 105.307 
	L 93.756, 105.308 
	L 106.441, 108.426 
" />
<path d="M 106.513, 108.142 
	L 106.512, 108.142 
	L 93.898, 105.024 
" />
<path d="M 94.040, 104.740 
	L 94.039, 104.741 
	L 106.512, 107.859 
" />
<path d="M 106.442, 107.575 
	L 106.441, 107.576 
	L 94.181, 104.528 
" />
<path d="M 94.324, 104.244 
	L 94.323, 104.245 
	L 106.441, 107.221 
" />
<path d="M 106.371, 106.937 
	L 106.370, 106.938 
	L 94.535, 104.032 
" />
<path d="M 94.749, 103.748 
	L 94.748, 103.749 
	L 106.299, 106.654 
" />
<path d="M 106.229, 106.299 
	L 106.228, 106.300 
	L 94.961, 103.536 
" />
<path d="M 95.174, 103.252 
	L 95.173, 103.253 
	L 106.157, 106.016 
" />
<path d="M 106.016, 105.661 
	L 106.016, 105.662 
	L 95.457, 103.040 
" />
<path d="M 95.741, 102.827 
	L 95.740, 102.827 
	L 105.874, 105.308 
" />
<path d="M 105.733, 105.024 
	L 105.732, 105.024 
	L 96.024, 102.615 
" />
<path d="M 96.379, 102.402 
	L 96.378, 102.402 
	L 105.520, 104.670 
" />
<path d="M 105.308, 104.315 
	L 105.307, 104.316 
	L 96.732, 102.190 
" />
<path d="M 97.087, 101.976 
	L 97.087, 101.977 
	L 105.024, 103.961 
" />
<path d="M 104.741, 103.606 
	L 104.740, 103.607 
	L 97.583, 101.765 
" />
<path d="M 98.079, 101.622 
	L 98.079, 101.623 
	L 104.315, 103.182 
" />
<path d="M 103.820, 102.756 
	L 103.819, 102.757 
	L 98.717, 101.481 
" />
<path d="M 99.568, 101.409 
	L 99.567, 101.410 
	L 103.110, 102.261 
" />
<path d="M 102.473, 104.032 
	L 102.472, 104.032 
	L 101.480, 103.536 
	L 100.417, 103.253 
	L 99.354, 103.253 
	L 98.291, 103.465 
	L 97.299, 103.961 
	L 96.449, 104.599 
	L 95.740, 105.450 
	L 95.244, 106.371 
	L 95.032, 107.434 
" />
<path d="M 95.032, 107.434 
	L 94.961, 108.568 
	L 95.244, 109.560 
	L 95.669, 110.552 
	L 96.307, 111.402 
	L 97.157, 112.111 
	L 98.150, 112.607 
	L 99.213, 112.890 
	L 100.276, 112.890 
	L 101.339, 112.678 
	L 102.331, 112.253 
	L 103.181, 111.544 
" />
<path d="M 103.181, 111.544 
	L 103.890, 110.765 
	L 104.315, 109.772 
	L 104.598, 108.709 
	L 104.598, 107.646 
	L 104.386, 106.583 
	L 103.961, 105.591 
	L 103.323, 104.741 
	L 102.472, 104.032 
" />
<path d="M 99.993, 103.465 
	L 99.992, 103.465 
	L 99.992, 109.205 
" />
<path d="M 99.851, 108.567 
	L 99.850, 108.568 
	L 106.157, 110.127 
" />
<path d="M 106.087, 110.409 
	L 106.087, 110.410 
	L 99.567, 108.780 
" />
<path d="M 99.213, 108.992 
	L 99.213, 108.993 
	L 105.945, 110.694 
" />
<path d="M 105.875, 110.906 
	L 105.874, 110.906 
	L 98.858, 109.205 
" />
<path d="M 98.505, 109.417 
	L 98.504, 109.418 
	L 105.732, 111.190 
" />
<path d="M 106.229, 109.843 
	L 106.228, 109.843 
	L 100.205, 108.355 
" />
<path d="M 100.560, 108.142 
	L 100.559, 108.142 
	L 106.299, 109.560 
" />
<path d="M 106.371, 109.276 
	L 106.370, 109.276 
	L 100.701, 107.859 
" />
<path d="M 100.560, 107.575 
	L 100.559, 107.576 
	L 100.346, 107.363 
	L 99.992, 107.434 
	L 93.543, 105.804 
" />
<path d="M 93.473, 106.087 
	L 93.472, 106.087 
	L 99.638, 107.646 
" />
<path d="M 99.355, 107.858 
	L 99.354, 107.859 
	L 93.331, 106.371 
" />
<path d="M 93.331, 106.654 
	L 93.331, 106.654 
	L 99.000, 108.072 
" />
<path d="M 98.646, 108.283 
	L 98.646, 108.284 
	L 93.260, 106.938 
" />
<path d="M 93.190, 107.220 
	L 93.189, 107.221 
	L 98.291, 108.497 
" />
<path d="M 97.938, 108.709 
	L 97.937, 108.709 
	L 93.189, 107.505 
" />
<path d="M 93.119, 107.787 
	L 93.118, 107.788 
	L 97.583, 108.922 
" />
<path d="M 97.229, 109.063 
	L 97.228, 109.064 
	L 93.118, 108.072 
" />
<path d="M 93.119, 108.354 
	L 93.118, 108.355 
	L 96.874, 109.276 
" />
<path d="M 96.520, 109.488 
	L 96.520, 109.489 
	L 93.189, 108.709 
" />
<path d="M 93.190, 108.992 
	L 93.189, 108.993 
	L 96.236, 109.772 
" />
<path d="M 96.237, 109.843 
	L 96.236, 109.843 
	L 96.236, 110.198 
	L 96.307, 110.268 
	L 96.520, 110.410 
	L 96.874, 110.410 
" />
<path d="M 96.379, 110.339 
	L 96.378, 110.339 
	L 93.331, 109.631 
" />
<path d="M 93.402, 109.913 
	L 93.402, 109.914 
	L 104.598, 112.678 
" />
<path d="M 104.387, 112.961 
	L 104.386, 112.961 
	L 93.472, 110.268 
" />
<path d="M 93.615, 110.551 
	L 93.614, 110.552 
	L 104.102, 113.174 
" />
<path d="M 103.820, 113.386 
	L 103.819, 113.387 
	L 93.756, 110.906 
" />
<path d="M 93.898, 111.260 
	L 93.898, 111.261 
	L 103.535, 113.599 
" />
<path d="M 103.182, 113.811 
	L 103.181, 113.812 
	L 94.110, 111.544 
" />
<path d="M 94.324, 111.898 
	L 94.323, 111.898 
	L 102.827, 114.024 
" />
<path d="M 102.402, 114.236 
	L 102.402, 114.237 
	L 94.606, 112.324 
" />
<path d="M 94.961, 112.677 
	L 94.961, 112.678 
	L 101.976, 114.379 
" />
<path d="M 101.410, 114.591 
	L 101.409, 114.591 
	L 95.386, 113.032 
" />
<path d="M 95.883, 113.457 
	L 95.882, 113.457 
	L 100.701, 114.662 
" />
<path d="M 99.780, 114.732 
	L 99.780, 114.733 
	L 96.732, 113.953 
" />
<path d="M 96.166, 110.055 
	L 96.165, 110.056 
	L 93.260, 109.276 
" />
<path d="M 96.379, 109.630 
	L 96.378, 109.631 
	L 96.236, 109.843 
" />
<path d="M 96.379, 109.630 
	L 96.378, 109.631 
	L 99.992, 107.434 
" />
<path d="M 99.993, 112.039 
	L 99.992, 112.040 
	L 99.992, 117.780 
" />
<path d="M 99.993, 120.614 
	L 99.992, 120.615 
	L 99.992, 126.355 
" />
<path d="M 99.993, 129.260 
	L 99.992, 129.261 
	L 99.992, 135.001 
" />
<path d="M 99.993, 137.835 
	L 99.992, 137.835 
	L 99.992, 143.576 
" />
<path d="M 99.993, 146.409 
	L 99.992, 146.410 
	L 99.992, 152.150 
" />
<path d="M 99.993, 155.055 
	L 99.992, 155.056 
	L 99.992, 160.796 
" />
<path d="M 99.993, 163.630 
	L 99.992, 163.631 
	L 99.992, 169.371 
" />
<path d="M 99.993, 172.205 
	L 99.992, 172.205 
	L 99.992, 177.946 
" />
<path d="M 99.993, 180.850 
	L 99.992, 180.851 
	L 99.992, 186.804 
" />
<path d="M 68.953, 186.732 
	L 68.953, 186.733 
	L 68.953, 192.473 
" />
<path d="M 68.953, 195.307 
	L 68.953, 195.308 
	L 68.953, 198.568 
" />
<path d="M 68.953, 183.827 
	L 68.953, 183.828 
	L 68.953, 178.158 
" />
<path d="M 68.953, 175.252 
	L 68.953, 175.253 
	L 68.953, 169.513 
" />
<path d="M 68.953, 166.677 
	L 68.953, 166.678 
	L 68.953, 160.938 
" />
<path d="M 68.953, 158.102 
	L 68.953, 158.103 
	L 68.953, 152.363 
" />
<path d="M 68.953, 149.457 
	L 68.953, 149.457 
	L 68.953, 143.717 
" />
<path d="M 68.953, 140.882 
	L 68.953, 140.883 
	L 68.953, 135.142 
" />
<path d="M 68.953, 132.307 
	L 68.953, 132.308 
	L 68.953, 126.568 
" />
<path d="M 68.953, 123.661 
	L 68.953, 123.662 
	L 68.953, 117.922 
" />
<path d="M 68.953, 115.087 
	L 68.953, 115.087 
	L 68.953, 109.347 
" />
<path d="M 68.953, 106.512 
	L 68.953, 106.513 
	L 68.953, 100.772 
" />
<path d="M 68.953, 97.866 
	L 68.953, 97.867 
	L 68.953, 92.127 
" />
<path d="M 68.953, 89.291 
	L 68.953, 89.292 
	L 68.953, 83.552 
" />
<path d="M 68.953, 80.717 
	L 68.953, 80.717 
	L 68.953, 74.977 
" />
<path d="M 68.953, 72.071 
	L 68.953, 72.072 
	L 68.953, 66.402 
" />
<path d="M 68.953, 63.496 
	L 68.953, 63.497 
	L 68.953, 57.757 
" />
<path d="M 68.953, 54.921 
	L 68.953, 54.922 
	L 68.953, 49.182 
" />
<path d="M 68.953, 46.276 
	L 68.953, 46.276 
	L 68.953, 40.607 
" />
<path d="M 68.953, 37.701 
	L 68.953, 37.702 
	L 68.953, 34.442 
" />
<path d="M 69.166, 34.441 
	L 69.165, 34.442 
	L 69.165, 25.300 
	L 67.819, 26.576 
	L 66.969, 27.001 
" />
<path d="M 68.741, 25.724 
	L 68.740, 25.725 
	L 68.740, 34.442 
" />
<path d="M 66.969, 34.441 
	L 66.969, 34.442 
	L 70.937, 34.442 
" />
<path d="M 96.946, 34.441 
	L 96.945, 34.442 
	L 96.945, 33.166 
	L 97.370, 31.820 
	L 98.220, 30.969 
	L 99.142, 30.544 
	L 100.843, 29.623 
	L 102.189, 28.772 
	L 102.614, 27.922 
	L 102.614, 27.001 
	L 102.189, 26.150 
	L 101.764, 25.725 
" />
<path d="M 101.764, 25.725 
	L 100.843, 25.300 
	L 102.189, 25.725 
	L 102.614, 26.150 
	L 103.039, 27.001 
	L 103.039, 27.922 
	L 102.614, 28.772 
	L 101.339, 29.623 
	L 99.142, 30.544 
" />
<path d="M 98.221, 33.165 
	L 98.220, 33.166 
	L 100.417, 34.016 
	L 101.764, 34.016 
	L 102.614, 33.591 
	L 103.039, 33.166 
	L 103.039, 32.245 
" />
<path d="M 103.040, 33.165 
	L 103.039, 33.166 
	L 102.614, 34.016 
	L 102.189, 34.442 
	L 100.417, 34.442 
	L 98.220, 33.166 
	L 97.370, 33.166 
	L 96.945, 33.591 
" />
<path d="M 99.993, 34.441 
	L 99.992, 34.442 
	L 99.992, 40.394 
" />
<path d="M 99.993, 43.299 
	L 99.992, 43.300 
	L 99.992, 49.040 
" />
<path d="M 99.993, 51.874 
	L 99.992, 51.875 
	L 99.992, 57.615 
" />
<path d="M 99.993, 60.449 
	L 99.992, 60.450 
	L 99.992, 66.190 
" />
<path d="M 99.993, 69.094 
	L 99.992, 69.095 
	L 99.992, 74.765 
" />
<path d="M 99.993, 77.669 
	L 99.992, 77.670 
	L 99.992, 83.410 
" />
<path d="M 99.993, 86.244 
	L 99.992, 86.245 
	L 99.992, 91.985 
" />
<path d="M 99.993, 94.890 
	L 99.992, 94.890 
	L 99.992, 100.560 
" />
<path d="M 131.174, 100.063 
	L 131.173, 100.064 
	L 131.173, 94.324 
" />
<path d="M 131.174, 91.417 
	L 131.173, 91.418 
	L 131.173, 85.749 
" />
<path d="M 131.174, 82.843 
	L 131.173, 82.843 
	L 131.173, 77.103 
" />
<path d="M 131.174, 74.268 
	L 131.173, 74.268 
	L 131.173, 68.528 
" />
<path d="M 131.174, 65.693 
	L 131.173, 65.694 
	L 131.173, 59.953 
" />
<path d="M 131.174, 57.047 
	L 131.173, 57.048 
	L 131.173, 51.308 
" />
<path d="M 131.174, 48.472 
	L 131.173, 48.473 
	L 131.173, 42.733 
" />
<path d="M 131.174, 39.898 
	L 131.173, 39.898 
	L 131.173, 34.442 
" />
<path d="M 132.024, 34.441 
	L 132.024, 34.442 
	L 130.252, 34.442 
	L 128.976, 34.016 
	L 128.551, 33.591 
	L 128.055, 32.741 
	L 128.055, 32.245 
	L 128.551, 31.820 
	L 128.976, 32.245 
	L 128.551, 32.741 
" />
<path d="M 128.552, 27.921 
	L 128.551, 27.922 
	L 128.055, 27.497 
	L 128.055, 27.001 
	L 128.551, 26.150 
	L 128.976, 25.725 
	L 130.252, 25.300 
	L 132.024, 25.300 
	L 133.299, 25.725 
	L 133.724, 26.576 
	L 133.724, 27.922 
	L 133.299, 28.772 
" />
<path d="M 133.299, 28.772 
	L 132.024, 29.198 
	L 130.677, 29.198 
" />
<path d="M 132.024, 29.197 
	L 132.024, 29.198 
	L 132.874, 29.623 
	L 133.724, 30.544 
	L 134.220, 31.394 
	L 134.220, 32.741 
	L 133.724, 33.591 
	L 133.299, 34.016 
	L 132.024, 34.442 
	L 132.874, 34.016 
	L 133.299, 33.591 
	L 133.724, 32.741 
" />
<path d="M 133.724, 32.741 
	L 133.724, 31.394 
	L 133.299, 30.119 
" />
<path d="M 132.875, 28.772 
	L 132.874, 28.772 
	L 132.024, 29.198 
" />
<path d="M 132.875, 28.772 
	L 132.874, 28.772 
	L 133.299, 27.922 
	L 133.299, 26.576 
	L 132.874, 25.725 
	L 132.024, 25.300 
" />
<path d="M 128.552, 27.000 
	L 128.551, 27.001 
	L 128.976, 27.497 
	L 128.551, 27.922 
" />
<path d="M 100.843, 25.299 
	L 100.843, 25.300 
	L 99.142, 25.300 
	L 97.795, 25.725 
	L 97.370, 26.150 
	L 96.945, 27.001 
	L 96.945, 27.497 
	L 97.370, 27.922 
	L 97.795, 27.497 
	L 97.370, 27.001 
" />
<path d="M 114.024, 0.000 
	L 114.024, 0.001 
	L 114.024, 275.103 
" />
<path d="M 103.111, 204.591 
	L 103.110, 204.591 
	L 102.685, 205.016 
	L 101.339, 205.442 
	L 96.095, 205.442 
" />
<path d="M 97.442, 205.441 
	L 97.441, 205.442 
	L 97.441, 196.300 
" />
<path d="M 97.867, 196.299 
	L 97.866, 196.300 
	L 97.866, 205.442 
" />
<path d="M 101.339, 205.441 
	L 101.339, 205.442 
	L 102.189, 205.016 
	L 102.685, 204.591 
	L 103.110, 203.741 
	L 103.110, 202.394 
	L 102.685, 201.544 
	L 102.189, 201.119 
	L 101.339, 200.694 
	L 102.685, 201.119 
	L 103.110, 201.544 
" />
<path d="M 103.110, 201.544 
	L 103.535, 202.394 
	L 103.535, 203.741 
	L 103.110, 204.591 
" />
<path d="M 103.111, 199.772 
	L 103.110, 199.772 
	L 102.685, 200.198 
	L 101.339, 200.694 
	L 102.189, 200.198 
	L 102.685, 199.772 
	L 103.110, 198.922 
	L 103.110, 198.072 
	L 102.685, 197.150 
	L 102.189, 196.725 
	L 101.339, 196.300 
" />
<path d="M 101.339, 196.300 
	L 102.685, 196.725 
	L 103.110, 197.150 
	L 103.535, 198.072 
	L 103.535, 198.922 
	L 103.110, 199.772 
" />
<path d="M 101.339, 200.693 
	L 101.339, 200.694 
	L 97.866, 200.694 
" />
<path d="M 96.095, 196.299 
	L 96.095, 196.300 
	L 101.339, 196.300 
" />
<path d="M 128.765, 196.512 
	L 128.764, 196.513 
	L 129.614, 197.363 
	L 130.961, 197.788 
	L 131.811, 197.788 
	L 133.087, 197.363 
	L 134.008, 196.513 
	L 134.433, 195.591 
" />
<path d="M 134.434, 191.268 
	L 134.433, 191.268 
	L 134.433, 188.646 
	L 134.008, 189.922 
	L 133.087, 189.072 
	L 131.811, 188.646 
	L 130.961, 188.646 
	L 129.614, 189.072 
	L 128.764, 189.922 
	L 128.339, 190.843 
	L 127.843, 192.119 
" />
<path d="M 127.843, 192.119 
	L 127.843, 194.316 
	L 128.339, 195.591 
	L 128.764, 196.513 
" />
<path d="M 129.190, 196.512 
	L 129.189, 196.513 
	L 130.039, 197.363 
	L 130.961, 197.788 
" />
<path d="M 129.190, 196.512 
	L 129.189, 196.513 
	L 128.764, 195.591 
	L 128.339, 194.316 
	L 128.339, 192.119 
	L 128.764, 190.843 
	L 129.189, 189.922 
	L 130.039, 189.072 
	L 130.961, 188.646 
" />
<path d="M 134.009, 189.921 
	L 134.008, 189.922 
	L 134.433, 191.268 
" />
<path d="M 131.174, 177.095 
	L 131.173, 177.095 
	L 131.173, 171.709 
" />
<path d="M 131.174, 168.803 
	L 131.173, 168.804 
	L 131.173, 163.064 
" />
<path d="M 131.174, 160.228 
	L 131.173, 160.229 
	L 131.173, 154.489 
" />
<path d="M 131.174, 151.654 
	L 131.173, 151.654 
	L 131.173, 145.914 
" />
<path d="M 131.174, 143.008 
	L 131.173, 143.009 
	L 131.173, 137.268 
" />
<path d="M 131.174, 134.433 
	L 131.173, 134.434 
	L 131.173, 128.694 
" />
<path d="M 131.174, 125.858 
	L 131.173, 125.859 
	L 131.173, 120.119 
" />
<path d="M 131.174, 117.213 
	L 131.173, 117.213 
	L 131.173, 111.544 
" />
<path d="M 131.174, 108.638 
	L 131.173, 108.639 
	L 131.173, 102.898 
" />
<path d="M 133.300, 101.835 
	L 133.299, 101.835 
	L 128.551, 100.843 
	L 123.732, 100.135 
	L 118.843, 99.709 
	L 113.953, 99.568 
	L 109.134, 99.709 
	L 104.244, 100.135 
	L 99.425, 100.843 
	L 94.677, 101.835 
	L 89.929, 103.040 
" />
<path d="M 89.929, 103.040 
	L 85.323, 104.599 
	L 80.787, 106.442 
	L 76.323, 108.497 
	L 72.071, 110.765 
	L 67.890, 113.316 
	L 63.921, 116.150 
	L 60.094, 119.198 
	L 56.480, 122.387 
	L 53.008, 125.859 
	L 49.748, 129.473 
	L 46.701, 133.300 
" />
<path d="M 46.701, 133.300 
	L 43.937, 137.339 
	L 41.386, 141.450 
	L 39.047, 145.772 
	L 36.992, 150.166 
	L 35.220, 154.702 
	L 33.661, 159.379 
	L 32.386, 164.056 
	L 31.394, 168.875 
	L 30.685, 173.694 
	L 30.260, 178.513 
	L 30.118, 183.402 
" />
<path d="M 30.118, 183.402 
	L 30.260, 188.292 
	L 30.685, 193.111 
	L 31.394, 197.930 
	L 32.386, 202.749 
	L 33.661, 207.426 
	L 35.220, 212.103 
	L 36.992, 216.639 
	L 39.047, 221.032 
	L 41.386, 225.355 
	L 43.937, 229.465 
	L 46.701, 233.505 
" />
<path d="M 46.701, 233.505 
	L 49.748, 237.331 
	L 53.008, 240.946 
	L 56.480, 244.418 
	L 60.094, 247.607 
	L 63.921, 250.654 
	L 67.890, 253.489 
	L 72.071, 256.040 
	L 76.323, 258.308 
	L 80.787, 260.363 
	L 85.323, 262.205 
	L 89.929, 263.765 
" />
<path d="M 89.929, 263.765 
	L 94.677, 264.969 
	L 99.425, 265.961 
	L 104.244, 266.670 
	L 109.134, 267.095 
	L 114.024, 267.237 
	L 118.843, 267.095 
	L 123.732, 266.670 
	L 128.551, 265.961 
	L 133.299, 264.969 
	L 138.047, 263.765 
" />
<path d="M 138.047, 263.765 
	L 142.654, 262.205 
	L 147.189, 260.363 
	L 151.654, 258.308 
	L 155.906, 256.040 
	L 160.087, 253.489 
	L 164.055, 250.654 
	L 167.882, 247.607 
	L 171.496, 244.418 
	L 174.969, 240.946 
	L 178.228, 237.331 
" />
<path d="M 178.228, 237.331 
	L 181.276, 233.505 
	L 184.039, 229.465 
	L 186.591, 225.355 
	L 188.929, 221.032 
	L 190.984, 216.639 
	L 192.756, 212.103 
	L 194.315, 207.426 
	L 195.591, 202.749 
	L 196.583, 197.930 
	L 197.291, 193.111 
" />
<path d="M 197.291, 193.111 
	L 197.717, 188.292 
	L 197.858, 183.402 
	L 197.717, 178.513 
	L 197.291, 173.694 
	L 196.583, 168.875 
	L 195.591, 164.056 
	L 194.315, 159.379 
	L 192.756, 154.702 
	L 190.984, 150.166 
	L 188.929, 145.772 
" />
<path d="M 188.929, 145.772 
	L 186.591, 141.450 
	L 184.039, 137.339 
	L 181.276, 133.300 
	L 178.228, 129.473 
	L 174.969, 125.859 
	L 171.496, 122.387 
	L 167.882, 119.198 
	L 164.055, 116.150 
	L 160.087, 113.316 
	L 155.906, 110.765 
" />
<path d="M 155.906, 110.765 
	L 151.654, 108.497 
	L 147.189, 106.442 
	L 142.654, 104.599 
	L 138.047, 103.040 
	L 133.299, 101.835 
" />
<path d="M 133.513, 131.032 
	L 133.512, 131.032 
	L 129.756, 129.757 
	L 125.858, 128.765 
	L 121.961, 128.056 
	L 117.992, 127.631 
	L 113.953, 127.489 
	L 109.984, 127.631 
	L 106.016, 128.056 
	L 102.118, 128.765 
	L 98.220, 129.757 
" />
<path d="M 98.220, 129.757 
	L 94.465, 131.032 
	L 90.780, 132.520 
	L 87.165, 134.363 
	L 83.764, 136.347 
	L 80.504, 138.686 
	L 77.386, 141.166 
	L 74.480, 143.859 
	L 71.717, 146.765 
	L 69.236, 149.883 
	L 66.969, 153.213 
	L 64.913, 156.615 
" />
<path d="M 64.913, 156.615 
	L 63.142, 160.158 
	L 61.583, 163.843 
	L 60.378, 167.670 
	L 59.386, 171.497 
	L 58.677, 175.465 
	L 58.252, 179.434 
	L 58.110, 183.402 
	L 58.252, 187.371 
	L 58.677, 191.339 
	L 59.386, 195.308 
	L 60.378, 199.135 
" />
<path d="M 60.378, 199.135 
	L 61.583, 202.961 
	L 63.142, 206.646 
	L 64.913, 210.190 
	L 66.969, 213.591 
	L 69.236, 216.922 
	L 71.717, 220.040 
	L 74.480, 222.946 
	L 77.386, 225.639 
	L 80.504, 228.119 
	L 83.764, 230.457 
	L 87.165, 232.442 
" />
<path d="M 87.165, 232.442 
	L 90.780, 234.284 
	L 94.465, 235.772 
	L 98.220, 237.048 
	L 102.118, 238.040 
	L 106.016, 238.749 
	L 109.984, 239.174 
	L 114.024, 239.316 
	L 117.992, 239.174 
	L 121.961, 238.749 
	L 125.858, 238.040 
" />
<path d="M 125.858, 238.040 
	L 129.756, 237.048 
	L 133.512, 235.772 
	L 137.197, 234.284 
	L 140.811, 232.442 
	L 144.213, 230.457 
	L 147.472, 228.119 
	L 150.591, 225.639 
	L 153.496, 222.946 
	L 156.260, 220.040 
	L 158.740, 216.922 
" />
<path d="M 158.740, 216.922 
	L 161.008, 213.591 
	L 163.063, 210.190 
	L 164.835, 206.646 
	L 166.394, 202.961 
	L 167.598, 199.135 
	L 168.591, 195.308 
	L 169.299, 191.339 
	L 169.724, 187.371 
	L 169.866, 183.402 
	L 169.724, 179.434 
" />
<path d="M 169.724, 179.434 
	L 169.299, 175.465 
	L 168.591, 171.497 
	L 167.598, 167.670 
	L 166.394, 163.843 
	L 164.835, 160.158 
	L 163.063, 156.615 
	L 161.008, 153.213 
	L 158.740, 149.883 
	L 156.260, 146.765 
	L 153.496, 143.859 
" />
<path d="M 153.496, 143.859 
	L 150.591, 141.166 
	L 147.472, 138.686 
	L 144.213, 136.347 
	L 140.811, 134.363 
	L 137.197, 132.520 
	L 133.512, 131.032 
" />
<path d="M 131.741, 161.787 
	L 131.740, 161.788 
	L 129.543, 160.158 
	L 127.134, 158.741 
	L 124.654, 157.607 
	L 122.102, 156.686 
	L 119.409, 155.977 
	L 116.717, 155.552 
	L 114.024, 155.481 
	L 111.260, 155.552 
	L 108.567, 155.977 
" />
<path d="M 108.567, 155.977 
	L 105.874, 156.686 
	L 103.323, 157.607 
	L 100.843, 158.741 
	L 98.433, 160.158 
	L 96.236, 161.788 
	L 94.252, 163.631 
	L 92.409, 165.686 
	L 90.780, 167.883 
	L 89.362, 170.221 
	L 88.157, 172.702 
" />
<path d="M 88.157, 172.702 
	L 87.236, 175.324 
	L 86.598, 177.946 
	L 86.173, 180.639 
	L 86.032, 183.402 
	L 86.173, 186.166 
	L 86.598, 188.859 
	L 87.236, 191.481 
	L 88.157, 194.103 
	L 89.362, 196.583 
	L 90.780, 198.922 
	L 92.409, 201.119 
" />
<path d="M 92.409, 201.119 
	L 94.252, 203.174 
	L 96.236, 205.016 
	L 98.433, 206.646 
	L 100.843, 208.064 
	L 103.323, 209.198 
	L 105.874, 210.119 
	L 108.567, 210.828 
	L 111.260, 211.253 
	L 113.953, 211.324 
	L 116.717, 211.253 
" />
<path d="M 116.717, 211.253 
	L 119.409, 210.828 
	L 122.102, 210.119 
	L 124.654, 209.198 
	L 127.134, 208.064 
	L 129.543, 206.646 
	L 131.740, 205.016 
	L 133.724, 203.174 
	L 135.567, 201.119 
	L 137.197, 198.922 
	L 138.614, 196.583 
" />
<path d="M 138.614, 196.583 
	L 139.819, 194.103 
	L 140.740, 191.481 
	L 141.378, 188.859 
	L 141.803, 186.166 
	L 141.945, 183.402 
	L 141.803, 180.639 
	L 141.378, 177.946 
	L 140.740, 175.324 
	L 139.819, 172.702 
	L 138.614, 170.221 
" />
<path d="M 138.614, 170.221 
	L 137.197, 167.883 
	L 135.567, 165.686 
	L 133.724, 163.631 
	L 131.740, 161.788 
" />
<path d="M 118.914, 178.441 
	L 118.913, 178.442 
	L 117.850, 177.591 
	L 116.646, 176.953 
	L 115.370, 176.528 
	L 114.024, 176.387 
	L 112.606, 176.528 
	L 111.331, 176.953 
	L 110.126, 177.591 
	L 109.063, 178.442 
	L 108.213, 179.505 
" />
<path d="M 108.213, 179.505 
	L 107.504, 180.709 
	L 107.150, 182.056 
	L 107.008, 183.402 
	L 107.150, 184.749 
	L 107.504, 186.095 
	L 108.213, 187.300 
	L 109.063, 188.363 
	L 110.126, 189.213 
	L 111.331, 189.851 
	L 112.606, 190.276 
" />
<path d="M 112.606, 190.276 
	L 113.953, 190.418 
	L 115.370, 190.276 
	L 116.646, 189.851 
	L 117.850, 189.213 
	L 118.913, 188.363 
	L 119.764, 187.300 
	L 120.472, 186.095 
	L 120.827, 184.749 
	L 120.969, 183.402 
	L 120.827, 182.056 
" />
<path d="M 120.827, 182.056 
	L 120.472, 180.709 
	L 119.764, 179.505 
	L 118.913, 178.442 
" />
<path d="M 68.528, 210.898 
	L 68.528, 210.898 
	L 65.409, 220.040 
" />
<path d="M 64.560, 220.039 
	L 64.559, 220.040 
	L 67.181, 220.040 
" />
<path d="M 69.804, 220.039 
	L 69.803, 220.040 
	L 72.425, 220.040 
" />
<path d="M 71.576, 220.039 
	L 71.575, 220.040 
	L 68.528, 210.898 
" />
<path d="M 68.528, 212.173 
	L 68.528, 212.174 
	L 71.150, 220.040 
" />
<path d="M 70.229, 217.417 
	L 70.228, 217.418 
	L 66.331, 217.418 
" />
<path d="M 0.001, 183.402 
	L 0.000, 183.402 
	L 227.976, 183.402 
" />
<path d="M 227.977, 267.236 
	L 227.976, 267.237 
	L 0.000, 267.237 
" />
<path d="M 9.142, 275.102 
	L 9.142, 275.103 
	L 9.142, 0.001 
" />
<path d="M 218.835, 0.000 
	L 218.835, 0.001 
	L 218.835, 275.103 
" />
</g><g style="stroke:rgb(255,255,255); fill:none; stroke-width:0.100mm" >
</g>
</svg>
