<?xml version="1.0" encoding="UTF-8" standalone="no" ?>
<svg width="100%" height="100%" viewBox="0 0 114.307 159.024" xmlns="http://www.w3.org/2000/svg"><g>
</g><g style="stroke:rgb(0,0,0); fill:none; stroke-width:1.000mm" >
</g><g style="stroke:rgb(0,0,0); fill:none; stroke-width:0.100mm" >
<path d="M 51.662, -17.787 
	L 51.661, -17.787 
	L 51.661, -14.456 
" />
<path d="M 51.662, -18.000 
	L 51.661, -17.999 
	L 44.787, -17.999 
	L 44.787, -17.928 
	L 51.165, -17.928 
	L 50.740, -17.858 
	L 44.787, -17.858 
	L 44.787, -17.787 
	L 50.315, -17.787 
	L 49.890, -17.716 
	L 44.787, -17.716 
	L 44.787, -17.645 
" />
<path d="M 44.787, -17.645 
	L 49.465, -17.645 
	L 49.039, -17.574 
	L 44.787, -17.574 
	L 44.787, -17.503 
	L 48.614, -17.503 
	L 48.189, -17.432 
	L 44.787, -17.432 
	L 44.787, -17.361 
	L 47.764, -17.361 
	L 47.339, -17.291 
	L 44.787, -17.291 
" />
<path d="M 44.787, -17.291 
	L 44.787, -17.220 
	L 46.913, -17.220 
	L 46.488, -17.149 
	L 44.787, -17.149 
	L 44.787, -17.078 
	L 46.063, -17.078 
	L 45.638, -17.007 
	L 44.787, -17.007 
	L 44.787, -16.936 
	L 45.213, -16.936 
" />
<path d="M 44.788, -16.866 
	L 44.787, -16.865 
	L 44.787, -19.133 
	L 51.661, -17.999 
	L 44.787, -16.865 
" />
<path d="M 44.788, -18.000 
	L 44.787, -17.999 
	L 37.913, -17.999 
" />
<path d="M 44.788, -18.071 
	L 44.787, -18.070 
	L 51.165, -18.070 
" />
<path d="M 50.741, -18.142 
	L 50.740, -18.141 
	L 44.787, -18.141 
	L 44.787, -18.070 
" />
<path d="M 44.788, -18.213 
	L 44.787, -18.212 
	L 50.315, -18.212 
	L 50.740, -18.141 
" />
<path d="M 49.890, -18.283 
	L 49.890, -18.283 
	L 44.787, -18.283 
	L 44.787, -18.212 
" />
<path d="M 44.788, -18.354 
	L 44.787, -18.354 
	L 49.465, -18.354 
	L 49.890, -18.283 
" />
<path d="M 49.040, -18.425 
	L 49.039, -18.424 
	L 44.787, -18.424 
	L 44.787, -18.354 
" />
<path d="M 44.788, -18.496 
	L 44.787, -18.495 
	L 48.614, -18.495 
	L 49.039, -18.424 
" />
<path d="M 48.190, -18.567 
	L 48.189, -18.566 
	L 44.787, -18.566 
	L 44.787, -18.495 
" />
<path d="M 44.788, -18.638 
	L 44.787, -18.637 
	L 47.764, -18.637 
	L 48.189, -18.566 
" />
<path d="M 47.339, -18.709 
	L 47.339, -18.708 
	L 44.787, -18.708 
	L 44.787, -18.637 
" />
<path d="M 44.788, -18.780 
	L 44.787, -18.779 
	L 46.913, -18.779 
	L 47.339, -18.708 
" />
<path d="M 46.489, -18.850 
	L 46.488, -18.850 
	L 44.787, -18.850 
	L 44.787, -18.779 
" />
<path d="M 44.788, -18.921 
	L 44.787, -18.921 
	L 46.063, -18.921 
	L 46.488, -18.850 
" />
<path d="M 45.639, -18.992 
	L 45.638, -18.991 
	L 44.787, -18.991 
	L 44.787, -18.921 
" />
<path d="M 44.788, -19.063 
	L 44.787, -19.062 
	L 45.213, -19.062 
	L 45.638, -18.991 
" />
<path d="M 62.646, -18.000 
	L 62.646, -17.999 
	L 63.071, -17.928 
	L 69.520, -17.928 
	L 69.520, -17.858 
	L 63.496, -17.858 
	L 63.921, -17.787 
	L 69.520, -17.787 
	L 69.520, -17.716 
	L 64.346, -17.716 
	L 64.772, -17.645 
	L 69.520, -17.645 
" />
<path d="M 69.520, -17.645 
	L 69.520, -17.574 
	L 65.197, -17.574 
	L 65.622, -17.503 
	L 69.520, -17.503 
	L 69.520, -17.432 
	L 66.047, -17.432 
	L 66.472, -17.361 
	L 69.520, -17.361 
	L 69.520, -17.291 
	L 66.898, -17.291 
	L 67.323, -17.220 
" />
<path d="M 67.323, -17.220 
	L 69.520, -17.220 
	L 69.520, -17.149 
	L 67.748, -17.149 
	L 68.173, -17.078 
	L 69.520, -17.078 
	L 69.520, -17.007 
	L 68.598, -17.007 
	L 69.024, -16.936 
	L 69.520, -16.936 
" />
<path d="M 69.520, -16.866 
	L 69.520, -16.865 
	L 69.520, -19.133 
	L 62.646, -17.999 
	L 69.520, -16.865 
" />
<path d="M 69.520, -18.000 
	L 69.520, -17.999 
	L 76.394, -17.999 
" />
<path d="M 69.520, -18.000 
	L 69.520, -17.999 
	L 62.646, -17.999 
" />
<path d="M 62.646, -17.787 
	L 62.646, -17.787 
	L 62.646, -14.456 
" />
<path d="M 63.072, -18.071 
	L 63.071, -18.070 
	L 69.520, -18.070 
	L 69.520, -17.999 
" />
<path d="M 69.520, -18.142 
	L 69.520, -18.141 
	L 63.496, -18.141 
	L 63.071, -18.070 
" />
<path d="M 63.922, -18.213 
	L 63.921, -18.212 
	L 69.520, -18.212 
	L 69.520, -18.141 
" />
<path d="M 69.520, -18.283 
	L 69.520, -18.283 
	L 64.346, -18.283 
	L 63.921, -18.212 
" />
<path d="M 64.772, -18.354 
	L 64.772, -18.354 
	L 69.520, -18.354 
	L 69.520, -18.283 
" />
<path d="M 69.520, -18.425 
	L 69.520, -18.424 
	L 65.197, -18.424 
	L 64.772, -18.354 
" />
<path d="M 65.623, -18.496 
	L 65.622, -18.495 
	L 69.520, -18.495 
	L 69.520, -18.424 
" />
<path d="M 69.520, -18.567 
	L 69.520, -18.566 
	L 66.047, -18.566 
	L 65.622, -18.495 
" />
<path d="M 66.473, -18.638 
	L 66.472, -18.637 
	L 69.520, -18.637 
	L 69.520, -18.566 
" />
<path d="M 69.520, -18.709 
	L 69.520, -18.708 
	L 66.898, -18.708 
	L 66.472, -18.637 
" />
<path d="M 67.324, -18.780 
	L 67.323, -18.779 
	L 69.520, -18.779 
	L 69.520, -18.708 
" />
<path d="M 69.520, -18.850 
	L 69.520, -18.850 
	L 67.748, -18.850 
	L 67.323, -18.779 
" />
<path d="M 68.174, -18.921 
	L 68.173, -18.921 
	L 69.520, -18.921 
	L 69.520, -18.850 
" />
<path d="M 69.520, -18.992 
	L 69.520, -18.991 
	L 68.598, -18.991 
	L 68.173, -18.921 
" />
<path d="M 69.024, -19.063 
	L 69.024, -19.062 
	L 69.520, -19.062 
	L 69.520, -18.991 
" />
<path d="M 84.190, -18.142 
	L 84.189, -18.141 
	L 84.898, -18.779 
	L 85.819, -19.133 
	L 86.811, -19.133 
	L 87.803, -18.779 
	L 88.441, -18.141 
	L 88.795, -17.149 
	L 88.795, -16.511 
	L 88.441, -15.519 
	L 87.803, -14.881 
	L 86.811, -14.527 
" />
<path d="M 86.811, -14.527 
	L 85.819, -14.527 
	L 84.898, -14.881 
	L 84.543, -15.165 
	L 84.189, -15.873 
	L 84.189, -16.157 
	L 84.543, -16.511 
	L 84.898, -16.157 
	L 84.543, -15.873 
" />
<path d="M 84.190, -18.142 
	L 84.189, -18.141 
	L 84.898, -21.401 
	L 88.157, -21.401 
	L 86.528, -21.117 
	L 84.898, -21.117 
" />
<path d="M 86.812, -19.134 
	L 86.811, -19.133 
	L 87.520, -18.779 
	L 88.157, -18.141 
	L 88.441, -17.149 
	L 88.441, -16.511 
	L 88.157, -15.519 
	L 87.520, -14.881 
	L 86.811, -14.527 
" />
<path d="M 90.426, -14.528 
	L 90.425, -14.527 
	L 92.693, -14.527 
" />
<path d="M 91.772, -14.528 
	L 91.772, -14.527 
	L 91.772, -20.409 
	L 92.055, -21.117 
	L 92.409, -21.401 
	L 91.772, -21.117 
	L 91.417, -20.409 
	L 91.417, -14.527 
" />
<path d="M 96.024, -14.882 
	L 96.024, -14.881 
	L 96.661, -14.527 
	L 97.299, -14.527 
	L 97.937, -14.881 
	L 98.291, -15.519 
" />
<path d="M 96.024, -15.874 
	L 96.024, -15.873 
	L 96.307, -14.881 
	L 96.661, -14.527 
" />
<path d="M 96.024, -14.882 
	L 96.024, -14.881 
	L 95.669, -15.873 
	L 95.669, -21.401 
" />
<path d="M 96.024, -21.402 
	L 96.024, -21.401 
	L 96.024, -15.873 
" />
<path d="M 97.300, -19.134 
	L 97.299, -19.133 
	L 94.677, -19.133 
" />
<path d="M 93.048, -19.134 
	L 93.047, -19.133 
	L 90.425, -19.133 
" />
<path d="M 92.694, -20.764 
	L 92.693, -20.763 
	L 93.047, -20.409 
	L 93.402, -20.763 
	L 93.402, -21.117 
	L 93.047, -21.401 
	L 92.409, -21.401 
" />
<path d="M 93.048, -21.118 
	L 93.047, -21.117 
	L 92.693, -20.763 
" />
<path d="M 73.631, -4.252 
	L 73.630, -4.251 
	L 66.756, -4.251 
	L 59.882, -4.251 
	L 60.307, -4.180 
	L 66.756, -4.180 
	L 66.756, -4.110 
	L 60.732, -4.110 
	L 61.157, -4.039 
	L 66.756, -4.039 
	L 66.756, -3.968 
	L 61.583, -3.968 
" />
<path d="M 61.583, -3.968 
	L 62.008, -3.897 
	L 66.756, -3.897 
	L 66.756, -3.826 
	L 62.433, -3.826 
	L 62.858, -3.755 
	L 66.756, -3.755 
	L 66.756, -3.684 
	L 63.283, -3.684 
	L 63.709, -3.613 
	L 66.756, -3.613 
	L 66.756, -3.543 
" />
<path d="M 66.756, -3.543 
	L 64.134, -3.543 
	L 64.559, -3.472 
	L 66.756, -3.472 
	L 66.756, -3.401 
	L 64.984, -3.401 
	L 65.409, -3.330 
	L 66.756, -3.330 
	L 66.756, -3.259 
	L 65.835, -3.259 
	L 66.260, -3.188 
	L 66.756, -3.188 
" />
<path d="M 66.756, -3.188 
" />
<path d="M 66.757, -3.118 
	L 66.756, -3.117 
	L 66.756, -5.385 
	L 59.882, -4.251 
	L 66.756, -3.117 
" />
<path d="M 66.757, -4.252 
	L 66.756, -4.251 
	L 66.756, -4.322 
	L 60.307, -4.322 
	L 60.732, -4.393 
	L 66.756, -4.393 
	L 66.756, -4.464 
	L 61.157, -4.464 
	L 61.583, -4.535 
	L 66.756, -4.535 
	L 66.756, -4.606 
	L 62.008, -4.606 
" />
<path d="M 62.008, -4.606 
	L 62.433, -4.676 
	L 66.756, -4.676 
	L 66.756, -4.747 
	L 62.858, -4.747 
	L 63.283, -4.818 
	L 66.756, -4.818 
	L 66.756, -4.889 
	L 63.709, -4.889 
	L 64.134, -4.960 
	L 66.756, -4.960 
	L 66.756, -5.031 
" />
<path d="M 66.756, -5.031 
	L 64.559, -5.031 
	L 64.984, -5.102 
	L 66.756, -5.102 
	L 66.756, -5.173 
	L 65.409, -5.173 
	L 65.835, -5.243 
	L 66.756, -5.243 
	L 66.756, -5.314 
	L 66.260, -5.314 
" />
<path d="M 59.883, -4.039 
	L 59.882, -4.039 
	L 59.882, -0.708 
" />
<path d="M 54.426, -0.709 
	L 54.425, -0.708 
	L 54.425, -4.039 
" />
<path d="M 54.426, -4.252 
	L 54.425, -4.251 
	L 47.551, -4.251 
	L 47.551, -4.180 
	L 53.929, -4.180 
	L 53.504, -4.110 
	L 47.551, -4.110 
	L 47.551, -4.039 
	L 53.079, -4.039 
	L 52.654, -3.968 
	L 47.551, -3.968 
	L 47.551, -3.897 
" />
<path d="M 47.551, -3.897 
	L 52.228, -3.897 
	L 51.803, -3.826 
	L 47.551, -3.826 
	L 47.551, -3.755 
	L 51.378, -3.755 
	L 50.953, -3.684 
	L 47.551, -3.684 
	L 47.551, -3.613 
	L 50.528, -3.613 
	L 50.102, -3.543 
	L 47.551, -3.543 
" />
<path d="M 47.551, -3.543 
	L 47.551, -3.472 
	L 49.677, -3.472 
	L 49.252, -3.401 
	L 47.551, -3.401 
	L 47.551, -3.330 
	L 48.827, -3.330 
	L 48.402, -3.259 
	L 47.551, -3.259 
	L 47.551, -3.188 
	L 47.976, -3.188 
" />
<path d="M 47.552, -3.118 
	L 47.551, -3.117 
	L 47.551, -5.385 
	L 54.425, -4.251 
	L 47.551, -3.117 
" />
<path d="M 47.552, -4.252 
	L 47.551, -4.251 
	L 40.677, -4.251 
" />
<path d="M 47.552, -4.323 
	L 47.551, -4.322 
	L 53.929, -4.322 
" />
<path d="M 53.505, -4.394 
	L 53.504, -4.393 
	L 47.551, -4.393 
	L 47.551, -4.322 
" />
<path d="M 47.552, -4.465 
	L 47.551, -4.464 
	L 53.079, -4.464 
	L 53.504, -4.393 
" />
<path d="M 52.654, -4.535 
	L 52.654, -4.535 
	L 47.551, -4.535 
	L 47.551, -4.464 
" />
<path d="M 47.552, -4.606 
	L 47.551, -4.606 
	L 52.228, -4.606 
	L 52.654, -4.535 
" />
<path d="M 51.804, -4.677 
	L 51.803, -4.676 
	L 47.551, -4.676 
	L 47.551, -4.606 
" />
<path d="M 47.552, -4.748 
	L 47.551, -4.747 
	L 51.378, -4.747 
	L 51.803, -4.676 
" />
<path d="M 50.953, -4.819 
	L 50.953, -4.818 
	L 47.551, -4.818 
	L 47.551, -4.747 
" />
<path d="M 47.552, -4.890 
	L 47.551, -4.889 
	L 50.528, -4.889 
	L 50.953, -4.818 
" />
<path d="M 50.103, -4.961 
	L 50.102, -4.960 
	L 47.551, -4.960 
	L 47.551, -4.889 
" />
<path d="M 47.552, -5.031 
	L 47.551, -5.031 
	L 49.677, -5.031 
	L 50.102, -4.960 
" />
<path d="M 49.253, -5.102 
	L 49.252, -5.102 
	L 47.551, -5.102 
	L 47.551, -5.031 
" />
<path d="M 47.552, -5.173 
	L 47.551, -5.173 
	L 48.827, -5.173 
	L 49.252, -5.102 
" />
<path d="M 48.402, -5.244 
	L 48.402, -5.243 
	L 47.551, -5.243 
	L 47.551, -5.173 
" />
<path d="M 47.552, -5.315 
	L 47.551, -5.314 
	L 47.976, -5.314 
	L 48.402, -5.243 
" />
<path d="M 48.898, 9.496 
	L 48.898, 9.497 
	L 42.024, 9.497 
" />
<path d="M 55.772, 9.709 
	L 55.772, 9.709 
	L 55.772, 13.040 
" />
<path d="M 58.536, 13.039 
	L 58.535, 13.040 
	L 58.535, 9.709 
" />
<path d="M 58.536, 9.496 
	L 58.535, 9.497 
	L 58.890, 9.568 
	L 65.409, 9.568 
	L 65.409, 9.639 
	L 59.315, 9.639 
	L 59.740, 9.709 
	L 65.409, 9.709 
	L 65.409, 9.780 
	L 60.094, 9.780 
	L 60.520, 9.851 
	L 65.409, 9.851 
	L 65.409, 9.922 
" />
<path d="M 65.409, 9.922 
	L 60.945, 9.922 
	L 61.299, 9.993 
	L 65.409, 9.993 
	L 65.409, 10.064 
	L 61.724, 10.064 
	L 62.150, 10.135 
	L 65.409, 10.135 
	L 65.409, 10.205 
	L 62.575, 10.205 
	L 62.929, 10.276 
	L 65.409, 10.276 
" />
<path d="M 65.409, 10.276 
	L 65.409, 10.347 
	L 63.354, 10.347 
	L 63.780, 10.418 
	L 65.409, 10.418 
	L 65.409, 10.489 
	L 64.134, 10.489 
	L 64.559, 10.560 
	L 65.409, 10.560 
	L 65.409, 10.631 
	L 64.984, 10.631 
" />
<path d="M 65.410, 10.701 
	L 65.409, 10.701 
	L 65.409, 8.363 
	L 58.535, 9.497 
	L 65.409, 10.701 
" />
<path d="M 65.410, 9.496 
	L 65.409, 9.497 
	L 72.283, 9.497 
" />
<path d="M 65.410, 9.496 
	L 65.409, 9.497 
	L 58.535, 9.497 
" />
<path d="M 58.961, 9.425 
	L 58.961, 9.426 
	L 65.409, 9.426 
	L 65.409, 9.497 
" />
<path d="M 65.410, 9.354 
	L 65.409, 9.355 
	L 59.386, 9.355 
	L 58.961, 9.426 
" />
<path d="M 59.812, 9.283 
	L 59.811, 9.284 
	L 65.409, 9.284 
	L 65.409, 9.355 
" />
<path d="M 65.410, 9.213 
	L 65.409, 9.213 
	L 60.236, 9.213 
	L 59.811, 9.284 
" />
<path d="M 60.662, 9.142 
	L 60.661, 9.142 
	L 65.409, 9.142 
	L 65.409, 9.213 
" />
<path d="M 65.410, 9.071 
	L 65.409, 9.072 
	L 61.087, 9.072 
	L 60.661, 9.142 
" />
<path d="M 61.513, 9.000 
	L 61.512, 9.001 
	L 65.409, 9.001 
	L 65.409, 9.072 
" />
<path d="M 65.410, 8.929 
	L 65.409, 8.930 
	L 61.937, 8.930 
	L 61.512, 9.001 
" />
<path d="M 62.363, 8.858 
	L 62.362, 8.859 
	L 65.409, 8.859 
	L 65.409, 8.930 
" />
<path d="M 65.410, 8.787 
	L 65.409, 8.788 
	L 62.787, 8.788 
	L 62.362, 8.859 
" />
<path d="M 63.213, 8.717 
	L 63.213, 8.717 
	L 65.409, 8.717 
	L 65.409, 8.788 
" />
<path d="M 65.410, 8.646 
	L 65.409, 8.646 
	L 63.638, 8.646 
	L 63.213, 8.717 
" />
<path d="M 64.064, 8.575 
	L 64.063, 8.576 
	L 65.409, 8.576 
	L 65.409, 8.646 
" />
<path d="M 65.410, 8.504 
	L 65.409, 8.505 
	L 64.488, 8.505 
	L 64.063, 8.576 
" />
<path d="M 64.914, 8.433 
	L 64.913, 8.434 
	L 65.409, 8.434 
	L 65.409, 8.505 
" />
<path d="M 55.772, 9.496 
	L 55.772, 9.497 
	L 48.898, 9.497 
	L 48.898, 9.568 
	L 55.346, 9.568 
	L 54.921, 9.639 
	L 48.898, 9.639 
	L 48.898, 9.709 
	L 54.496, 9.709 
	L 54.142, 9.780 
	L 48.898, 9.780 
	L 48.898, 9.851 
	L 53.717, 9.851 
" />
<path d="M 53.717, 9.851 
	L 53.291, 9.922 
	L 48.898, 9.922 
	L 48.898, 9.993 
	L 52.937, 9.993 
	L 52.512, 10.064 
	L 48.898, 10.064 
	L 48.898, 10.135 
	L 52.087, 10.135 
	L 51.661, 10.205 
	L 48.898, 10.205 
	L 48.898, 10.276 
" />
<path d="M 48.898, 10.276 
	L 51.307, 10.276 
	L 50.882, 10.347 
	L 48.898, 10.347 
	L 48.898, 10.418 
	L 50.457, 10.418 
	L 50.102, 10.489 
	L 48.898, 10.489 
	L 48.898, 10.560 
	L 49.677, 10.560 
	L 49.252, 10.631 
	L 48.898, 10.631 
" />
<path d="M 48.898, 10.631 
" />
<path d="M 48.898, 10.701 
	L 48.898, 10.701 
	L 48.898, 8.363 
	L 55.772, 9.497 
	L 48.898, 10.701 
" />
<path d="M 48.898, 9.425 
	L 48.898, 9.426 
	L 55.276, 9.426 
" />
<path d="M 54.851, 9.354 
	L 54.850, 9.355 
	L 48.898, 9.355 
	L 48.898, 9.426 
" />
<path d="M 48.898, 9.283 
	L 48.898, 9.284 
	L 54.425, 9.284 
	L 54.850, 9.355 
" />
<path d="M 54.001, 9.213 
	L 54.000, 9.213 
	L 48.898, 9.213 
	L 48.898, 9.284 
" />
<path d="M 48.898, 9.142 
	L 48.898, 9.142 
	L 53.575, 9.142 
	L 54.000, 9.213 
" />
<path d="M 53.150, 9.071 
	L 53.150, 9.072 
	L 48.898, 9.072 
	L 48.898, 9.142 
" />
<path d="M 48.898, 9.000 
	L 48.898, 9.001 
	L 52.724, 9.001 
	L 53.150, 9.072 
" />
<path d="M 52.300, 8.929 
	L 52.299, 8.930 
	L 48.898, 8.930 
	L 48.898, 9.001 
" />
<path d="M 48.898, 8.858 
	L 48.898, 8.859 
	L 51.874, 8.859 
	L 52.299, 8.930 
" />
<path d="M 51.450, 8.787 
	L 51.449, 8.788 
	L 48.898, 8.788 
	L 48.898, 8.859 
" />
<path d="M 48.898, 8.717 
	L 48.898, 8.717 
	L 51.024, 8.717 
	L 51.449, 8.788 
" />
<path d="M 50.599, 8.646 
	L 50.598, 8.646 
	L 48.898, 8.646 
	L 48.898, 8.717 
" />
<path d="M 48.898, 8.575 
	L 48.898, 8.576 
	L 50.173, 8.576 
	L 50.598, 8.646 
" />
<path d="M 49.749, 8.504 
	L 49.748, 8.505 
	L 48.898, 8.505 
	L 48.898, 8.576 
" />
<path d="M 48.898, 8.433 
	L 48.898, 8.434 
	L 49.323, 8.434 
	L 49.748, 8.505 
" />
<path d="M 80.434, 8.079 
	L 80.433, 8.079 
	L 80.150, 7.725 
	L 80.150, 7.371 
	L 80.433, 6.733 
	L 80.787, 6.379 
	L 81.780, 6.095 
	L 83.055, 6.095 
	L 84.047, 6.379 
	L 84.402, 6.733 
	L 84.685, 7.371 
	L 84.685, 8.079 
	L 84.402, 8.717 
" />
<path d="M 84.402, 8.717 
	L 83.409, 9.355 
	L 81.780, 9.993 
	L 81.071, 10.347 
	L 80.433, 10.985 
	L 80.150, 11.977 
	L 80.150, 12.969 
" />
<path d="M 80.150, 12.331 
	L 80.150, 12.331 
	L 80.433, 11.977 
	L 81.071, 11.977 
	L 82.772, 12.615 
	L 83.693, 12.615 
	L 84.402, 12.331 
	L 84.685, 11.977 
	L 84.685, 11.339 
" />
<path d="M 84.686, 11.976 
	L 84.685, 11.977 
	L 84.402, 12.615 
	L 84.047, 12.969 
	L 82.772, 12.969 
	L 81.071, 11.977 
" />
<path d="M 81.780, 9.992 
	L 81.780, 9.993 
	L 83.055, 9.355 
	L 84.047, 8.717 
	L 84.402, 8.079 
	L 84.402, 7.371 
	L 84.047, 6.733 
	L 83.693, 6.379 
	L 83.055, 6.095 
" />
<path d="M 80.434, 7.370 
	L 80.433, 7.371 
	L 80.787, 7.725 
	L 80.433, 8.079 
" />
<path d="M 86.670, 9.000 
	L 86.669, 9.001 
	L 86.669, 9.993 
	L 87.024, 11.623 
	L 87.661, 12.615 
	L 88.654, 12.969 
	L 89.291, 12.969 
	L 90.283, 12.615 
	L 90.921, 11.623 
	L 91.276, 9.993 
	L 91.276, 9.001 
	L 90.921, 7.371 
" />
<path d="M 90.921, 7.371 
	L 90.283, 6.379 
	L 89.291, 6.095 
	L 88.654, 6.095 
	L 87.945, 6.379 
	L 87.661, 6.733 
	L 87.307, 7.371 
	L 87.024, 9.001 
	L 87.024, 9.993 
	L 87.307, 11.623 
	L 87.661, 12.331 
	L 87.945, 12.615 
	L 88.654, 12.969 
" />
<path d="M 88.654, 12.969 
" />
<path d="M 89.292, 12.969 
	L 89.291, 12.969 
	L 89.929, 12.615 
	L 90.283, 12.331 
	L 90.567, 11.623 
	L 90.921, 9.993 
	L 90.921, 9.001 
	L 90.567, 7.371 
	L 90.283, 6.733 
	L 89.929, 6.379 
	L 89.291, 6.095 
" />
<path d="M 88.654, 6.094 
	L 88.654, 6.095 
	L 87.661, 6.379 
	L 87.024, 7.371 
	L 86.669, 9.001 
" />
<path d="M 92.906, 8.362 
	L 92.906, 8.363 
	L 95.528, 8.363 
" />
<path d="M 95.528, 7.087 
	L 95.528, 7.087 
	L 95.811, 6.733 
	L 95.811, 6.379 
	L 95.528, 6.095 
	L 94.819, 6.095 
	L 94.181, 6.379 
	L 93.898, 7.087 
	L 93.898, 12.969 
" />
<path d="M 94.182, 12.969 
	L 94.181, 12.969 
	L 94.181, 7.087 
	L 94.535, 6.379 
	L 94.819, 6.095 
" />
<path d="M 95.528, 6.378 
	L 95.528, 6.379 
	L 95.173, 6.733 
	L 95.528, 7.087 
" />
<path d="M 97.158, 8.362 
	L 97.157, 8.363 
	L 99.780, 8.363 
" />
<path d="M 98.434, 6.094 
	L 98.433, 6.095 
	L 98.433, 11.623 
	L 98.787, 12.615 
	L 99.071, 12.969 
	L 99.780, 12.969 
	L 100.417, 12.615 
	L 100.772, 11.977 
" />
<path d="M 99.072, 12.969 
	L 99.071, 12.969 
	L 98.433, 12.615 
	L 98.150, 11.623 
	L 98.150, 6.095 
" />
<path d="M 96.520, -0.780 
	L 96.520, -0.779 
	L 94.252, -0.779 
" />
<path d="M 95.245, -0.780 
	L 95.244, -0.779 
	L 95.244, -6.661 
	L 95.528, -7.369 
	L 96.236, -7.653 
	L 95.882, -7.369 
	L 95.528, -6.661 
	L 95.528, -0.779 
" />
<path d="M 91.631, -1.134 
	L 91.630, -1.133 
	L 92.268, -2.125 
	L 92.622, -3.755 
	L 92.622, -4.747 
	L 92.268, -6.377 
	L 91.630, -7.369 
	L 90.638, -7.653 
	L 90.000, -7.653 
	L 89.362, -7.369 
	L 89.008, -7.015 
	L 88.654, -6.377 
" />
<path d="M 88.654, -6.377 
	L 88.370, -4.747 
	L 88.370, -3.755 
	L 88.654, -2.125 
	L 89.008, -1.417 
	L 89.362, -1.133 
	L 90.000, -0.779 
	L 90.638, -0.779 
	L 91.630, -1.133 
" />
<path d="M 91.631, -1.417 
	L 91.630, -1.417 
	L 91.984, -2.125 
	L 92.268, -3.755 
	L 92.268, -4.747 
	L 91.984, -6.377 
	L 91.630, -7.015 
	L 91.276, -7.369 
	L 90.638, -7.653 
" />
<path d="M 90.001, -7.654 
	L 90.000, -7.653 
	L 89.008, -7.369 
	L 88.370, -6.377 
	L 88.016, -4.747 
	L 88.016, -3.755 
	L 88.370, -2.125 
	L 89.008, -1.133 
	L 90.000, -0.779 
" />
<path d="M 90.639, -0.780 
	L 90.638, -0.779 
	L 91.276, -1.133 
	L 91.630, -1.417 
" />
<path d="M 94.253, -5.386 
	L 94.252, -5.385 
	L 96.874, -5.385 
" />
<path d="M 96.875, -6.661 
	L 96.874, -6.661 
	L 97.228, -7.015 
	L 97.228, -7.369 
	L 96.874, -7.653 
	L 96.236, -7.653 
" />
<path d="M 96.875, -7.370 
	L 96.874, -7.369 
	L 96.520, -7.015 
	L 96.874, -6.661 
" />
<path d="M 98.505, -5.386 
	L 98.504, -5.385 
	L 101.126, -5.385 
" />
<path d="M 99.851, -7.654 
	L 99.850, -7.653 
	L 99.850, -2.125 
	L 100.134, -1.133 
	L 100.488, -0.779 
	L 101.126, -0.779 
	L 101.764, -1.133 
	L 102.118, -1.771 
" />
<path d="M 100.489, -0.780 
	L 100.488, -0.779 
	L 99.850, -1.133 
	L 99.496, -2.125 
	L 99.496, -7.653 
" />
<path d="M 84.119, -7.654 
	L 84.118, -7.653 
	L 84.118, -0.779 
" />
<path d="M 83.765, -0.780 
	L 83.764, -0.779 
	L 83.764, -7.369 
" />
<path d="M 84.119, -7.654 
	L 84.118, -7.653 
	L 83.126, -6.661 
	L 82.488, -6.377 
" />
<path d="M 82.489, -0.780 
	L 82.488, -0.779 
	L 85.394, -0.779 
" />
<path d="M 92.906, 12.969 
	L 92.906, 12.969 
	L 95.173, 12.969 
" />
<path d="M 93.331, 36.142 
	L 93.331, 36.142 
	L 90.213, 33.804 
	L 86.953, 31.678 
	L 83.551, 29.764 
	L 80.079, 28.064 
	L 76.394, 26.646 
	L 72.709, 25.442 
	L 68.882, 24.520 
	L 65.055, 23.812 
	L 61.157, 23.387 
	L 57.260, 23.245 
" />
<path d="M 57.260, 23.245 
	L 53.362, 23.387 
	L 49.465, 23.812 
	L 45.638, 24.450 
	L 41.882, 25.371 
	L 38.126, 26.505 
	L 34.512, 27.922 
	L 30.969, 29.623 
	L 27.567, 31.536 
	L 24.307, 33.662 
	L 21.189, 36.001 
	L 18.213, 38.552 
" />
<path d="M 18.213, 38.552 
	L 15.449, 41.316 
	L 12.898, 44.292 
	L 10.559, 47.339 
	L 8.362, 50.599 
	L 6.449, 54.001 
	L 4.748, 57.544 
	L 3.331, 61.158 
	L 2.126, 64.914 
	L 1.205, 68.670 
	L 0.567, 72.568 
	L 0.142, 76.394 
	L 0.000, 80.292 
" />
<path d="M 0.000, 80.292 
	L 0.142, 84.190 
	L 0.496, 88.087 
	L 1.134, 91.985 
	L 2.055, 95.741 
	L 3.260, 99.497 
	L 4.677, 103.111 
	L 6.307, 106.654 
	L 8.220, 110.056 
	L 10.346, 113.316 
	L 12.756, 116.434 
	L 15.307, 119.410 
" />
<path d="M 15.307, 119.410 
	L 18.071, 122.174 
	L 20.976, 124.725 
	L 24.094, 127.064 
	L 27.354, 129.261 
	L 30.756, 131.174 
	L 34.228, 132.875 
	L 37.913, 134.292 
	L 41.598, 135.497 
	L 45.425, 136.418 
	L 49.252, 137.056 
	L 53.150, 137.481 
" />
<path d="M 53.150, 137.481 
	L 57.047, 137.623 
	L 60.945, 137.481 
	L 64.843, 137.127 
	L 68.669, 136.489 
	L 72.425, 135.568 
	L 76.181, 134.363 
	L 79.795, 132.946 
	L 83.339, 131.245 
	L 86.740, 129.402 
	L 90.000, 127.205 
	L 93.118, 124.867 
" />
<path d="M 93.118, 124.867 
	L 96.095, 122.316 
	L 98.858, 119.552 
	L 101.409, 116.646 
	L 103.748, 113.528 
	L 105.945, 110.268 
	L 107.858, 106.867 
	L 109.559, 103.324 
	L 110.976, 99.709 
	L 112.181, 96.024 
	L 113.102, 92.198 
" />
<path d="M 113.102, 92.198 
	L 113.740, 88.371 
	L 114.165, 84.473 
	L 114.307, 80.576 
	L 114.165, 76.678 
	L 113.811, 72.780 
	L 113.173, 68.953 
	L 112.252, 65.127 
	L 111.047, 61.442 
	L 109.630, 57.757 
	L 108.000, 54.284 
	L 106.087, 50.883 
" />
<path d="M 106.087, 50.883 
	L 103.961, 47.552 
	L 101.551, 44.434 
	L 99.000, 41.528 
	L 96.236, 38.764 
	L 93.331, 36.142 
" />
<path d="M 86.387, 51.024 
	L 86.386, 51.024 
	L 83.835, 48.757 
	L 81.142, 46.631 
	L 78.236, 44.788 
	L 75.260, 43.158 
	L 72.071, 41.741 
	L 68.882, 40.678 
	L 65.551, 39.827 
	L 62.150, 39.261 
	L 58.748, 39.048 
	L 55.276, 39.048 
" />
<path d="M 55.276, 39.048 
	L 51.874, 39.331 
	L 48.543, 39.898 
	L 45.213, 40.749 
	L 41.953, 41.883 
	L 38.835, 43.229 
	L 35.858, 44.930 
	L 32.953, 46.772 
	L 30.260, 48.898 
	L 27.780, 51.237 
	L 25.441, 53.717 
	L 23.315, 56.481 
" />
<path d="M 23.315, 56.481 
	L 21.472, 59.316 
	L 19.843, 62.363 
	L 18.496, 65.481 
	L 17.362, 68.741 
	L 16.583, 72.072 
	L 16.016, 75.473 
	L 15.732, 78.875 
	L 15.732, 82.276 
	L 16.016, 85.678 
	L 16.583, 89.079 
	L 17.433, 92.410 
" />
<path d="M 17.433, 92.410 
	L 18.567, 95.670 
	L 19.984, 98.788 
	L 21.614, 101.765 
	L 23.528, 104.670 
	L 25.583, 107.363 
	L 27.921, 109.843 
	L 30.472, 112.182 
	L 33.165, 114.237 
	L 36.071, 116.150 
	L 39.047, 117.780 
	L 42.236, 119.127 
" />
<path d="M 42.236, 119.127 
	L 45.425, 120.190 
	L 48.756, 121.040 
	L 52.157, 121.607 
	L 55.559, 121.890 
	L 59.032, 121.890 
	L 62.433, 121.607 
	L 65.764, 120.969 
	L 69.094, 120.119 
	L 72.354, 119.056 
	L 75.472, 117.639 
	L 78.449, 116.009 
" />
<path d="M 78.449, 116.009 
	L 81.354, 114.095 
	L 84.047, 111.969 
	L 86.528, 109.702 
	L 88.866, 107.150 
	L 90.992, 104.457 
	L 92.835, 101.552 
	L 94.465, 98.576 
	L 95.811, 95.387 
	L 96.945, 92.127 
	L 97.724, 88.796 
	L 98.291, 85.465 
" />
<path d="M 98.291, 85.465 
	L 98.575, 82.064 
	L 98.575, 78.591 
	L 98.291, 75.190 
	L 97.724, 71.788 
	L 96.874, 68.457 
	L 95.740, 65.268 
	L 94.323, 62.150 
	L 92.693, 59.103 
	L 90.780, 56.268 
	L 88.724, 53.576 
	L 86.386, 51.024 
" />
<path d="M 86.386, 51.024 
" />
<path d="M 63.639, 80.362 
	L 63.638, 80.363 
	L 62.929, 79.725 
	L 33.449, 58.820 
	L 32.669, 58.394 
	L 31.748, 58.182 
	L 30.827, 58.253 
	L 29.976, 58.536 
	L 29.197, 58.961 
	L 28.559, 59.670 
	L 28.063, 60.308 
	L 27.638, 61.158 
" />
<path d="M 27.638, 61.158 
	L 27.425, 62.009 
	L 27.496, 62.930 
	L 27.780, 63.851 
	L 28.276, 64.631 
	L 28.913, 65.268 
	L 58.394, 86.174 
	L 59.244, 86.599 
	L 60.094, 86.812 
	L 61.016, 86.741 
	L 61.937, 86.457 
	L 62.717, 85.961 
" />
<path d="M 62.717, 85.961 
	L 63.354, 85.324 
	L 63.780, 84.686 
	L 64.205, 83.835 
	L 64.417, 82.985 
	L 64.417, 82.064 
	L 64.134, 81.142 
	L 63.638, 80.363 
" />
<path d="M 62.646, 79.512 
	L 62.646, 79.513 
	L 63.567, 84.969 
" />
<path d="M 61.371, 86.669 
	L 61.370, 86.670 
	L 59.811, 77.528 
" />
<path d="M 56.977, 75.472 
	L 56.976, 75.473 
	L 58.819, 86.387 
" />
<path d="M 55.985, 84.472 
	L 55.984, 84.473 
	L 54.142, 73.489 
" />
<path d="M 51.308, 71.504 
	L 51.307, 71.505 
	L 53.150, 82.418 
" />
<path d="M 50.316, 80.433 
	L 50.315, 80.434 
	L 48.472, 69.450 
" />
<path d="M 45.639, 67.465 
	L 45.638, 67.465 
	L 47.480, 78.450 
" />
<path d="M 44.646, 76.394 
	L 44.646, 76.394 
	L 42.803, 65.481 
" />
<path d="M 39.969, 63.425 
	L 39.969, 63.426 
	L 41.811, 74.410 
" />
<path d="M 38.977, 72.425 
	L 38.976, 72.426 
	L 37.134, 61.442 
" />
<path d="M 34.300, 59.457 
	L 34.299, 59.457 
	L 36.142, 70.371 
" />
<path d="M 33.379, 68.386 
	L 33.378, 68.387 
	L 31.606, 58.182 
" />
<path d="M 29.268, 58.961 
	L 29.268, 58.961 
	L 30.543, 66.331 
" />
</g><g style="stroke:rgb(255,255,255); fill:none; stroke-width:0.100mm" >
</g>
</svg>
