<?xml version="1.0" encoding="UTF-8" standalone="no" ?>
<svg width="100%" height="100%" viewBox="0 0 227.977 240.662" xmlns="http://www.w3.org/2000/svg"><g>
</g><g style="stroke:rgb(0,0,0); fill:none; stroke-width:1.000mm" >
</g><g style="stroke:rgb(0,0,0); fill:none; stroke-width:0.100mm" >
<path d="M 148.394, 22.890 
	L 148.394, 22.890 
	L 148.394, 25.796 
" />
<path d="M 148.394, 28.630 
	L 148.394, 28.631 
	L 148.394, 34.371 
" />
<path d="M 148.394, 37.276 
	L 148.394, 37.276 
	L 148.394, 42.946 
" />
<path d="M 148.394, 45.850 
	L 148.394, 45.851 
	L 148.394, 51.591 
" />
<path d="M 148.394, 54.425 
	L 148.394, 54.426 
	L 148.394, 60.166 
" />
<path d="M 148.394, 63.000 
	L 148.394, 63.001 
	L 148.394, 68.741 
" />
<path d="M 148.394, 71.646 
	L 148.394, 71.646 
	L 148.394, 77.387 
" />
<path d="M 148.394, 80.220 
	L 148.394, 80.221 
	L 148.394, 85.961 
" />
<path d="M 148.394, 88.795 
	L 148.394, 88.796 
	L 148.394, 91.702 
	L 145.701, 96.166 
" />
<path d="M 145.205, 97.583 
	L 145.205, 97.583 
	L 144.071, 96.946 
	L 142.795, 96.591 
	L 141.520, 96.450 
	L 140.173, 96.591 
	L 138.969, 96.946 
	L 137.835, 97.583 
	L 136.772, 98.434 
	L 135.992, 99.426 
	L 135.354, 100.560 
	L 135.000, 101.835 
" />
<path d="M 135.000, 101.835 
	L 134.858, 103.111 
	L 135.000, 104.457 
	L 135.354, 105.662 
	L 135.992, 106.796 
	L 136.772, 107.859 
	L 137.835, 108.639 
	L 138.969, 109.276 
	L 140.173, 109.631 
	L 141.520, 109.772 
	L 142.795, 109.631 
" />
<path d="M 142.795, 109.631 
	L 144.071, 109.276 
	L 145.205, 108.639 
	L 146.197, 107.859 
	L 147.047, 106.796 
	L 147.685, 105.662 
	L 148.039, 104.457 
	L 148.181, 103.111 
	L 148.039, 101.835 
	L 147.685, 100.560 
	L 147.047, 99.426 
" />
<path d="M 147.047, 99.426 
	L 146.197, 98.434 
	L 145.205, 97.583 
" />
<path d="M 144.213, 98.646 
	L 144.213, 98.646 
	L 141.236, 103.536 
" />
<path d="M 139.820, 106.016 
	L 139.819, 106.016 
	L 136.843, 110.906 
" />
<path d="M 137.906, 108.709 
	L 137.906, 108.709 
	L 122.740, 99.639 
" />
<path d="M 122.103, 108.638 
	L 122.102, 108.639 
	L 117.496, 116.363 
" />
<path d="M 132.450, 118.276 
	L 132.449, 118.276 
	L 135.354, 113.387 
" />
<path d="M 130.961, 120.756 
	L 130.961, 120.757 
	L 127.984, 125.646 
" />
<path d="M 126.497, 128.126 
	L 126.496, 128.127 
	L 123.591, 133.016 
" />
<path d="M 122.103, 135.496 
	L 122.102, 135.497 
	L 119.126, 140.387 
" />
<path d="M 117.639, 142.866 
	L 117.638, 142.867 
	L 114.732, 147.757 
" />
<path d="M 113.245, 150.236 
	L 113.244, 150.237 
	L 110.551, 154.702 
" />
<path d="M 110.339, 154.559 
	L 110.339, 154.560 
	L 95.173, 145.489 
" />
<path d="M 101.623, 144.283 
	L 101.622, 144.284 
	L 101.622, 140.245 
	L 101.693, 140.032 
	L 101.693, 144.213 
	L 101.764, 144.142 
	L 101.764, 140.103 
	L 101.835, 140.174 
	L 101.835, 144.001 
	L 101.906, 143.930 
	L 101.906, 140.174 
" />
<path d="M 101.906, 140.174 
	L 101.976, 140.245 
	L 101.976, 143.859 
	L 102.047, 143.788 
	L 102.047, 140.316 
	L 102.118, 140.316 
	L 102.118, 143.717 
	L 102.189, 143.646 
	L 102.189, 140.387 
	L 102.260, 140.387 
	L 102.260, 143.505 
" />
<path d="M 102.260, 143.505 
	L 102.331, 143.434 
	L 102.331, 140.457 
	L 102.402, 140.528 
	L 102.402, 143.363 
	L 102.472, 143.292 
	L 102.472, 140.528 
	L 102.543, 140.599 
	L 102.543, 143.221 
	L 102.614, 143.150 
	L 102.614, 140.599 
" />
<path d="M 102.614, 140.599 
	L 102.685, 140.670 
	L 102.685, 143.079 
	L 102.756, 142.938 
	L 102.756, 140.741 
	L 102.827, 140.741 
	L 102.827, 142.867 
	L 102.898, 142.796 
	L 102.898, 140.812 
	L 102.969, 140.812 
	L 102.969, 142.725 
" />
<path d="M 102.969, 142.725 
	L 103.039, 142.654 
	L 103.039, 140.883 
	L 103.110, 140.953 
	L 103.110, 142.583 
	L 103.181, 142.442 
	L 103.181, 140.953 
	L 103.252, 141.024 
	L 103.252, 142.371 
	L 103.323, 142.300 
	L 103.323, 141.024 
" />
<path d="M 103.323, 141.024 
	L 103.394, 141.095 
	L 103.394, 142.229 
	L 103.465, 142.158 
	L 103.465, 141.166 
	L 103.535, 141.166 
	L 103.535, 142.087 
	L 103.606, 141.946 
	L 103.606, 141.237 
	L 103.677, 141.237 
	L 103.677, 141.875 
" />
<path d="M 103.677, 141.875 
	L 103.748, 141.804 
	L 103.748, 141.308 
	L 103.819, 141.379 
	L 103.819, 141.733 
	L 103.890, 141.662 
	L 103.890, 141.379 
	L 103.961, 141.450 
	L 103.961, 141.591 
" />
<path d="M 102.898, 140.740 
	L 102.898, 140.741 
	L 107.504, 133.016 
" />
<path d="M 101.552, 140.457 
	L 101.551, 140.457 
	L 101.480, 140.599 
	L 101.480, 144.426 
	L 101.409, 144.497 
	L 101.409, 140.812 
	L 101.339, 140.953 
	L 101.339, 144.639 
	L 101.268, 144.709 
	L 101.268, 141.166 
	L 101.197, 141.308 
" />
<path d="M 101.197, 141.308 
	L 101.197, 144.780 
	L 101.126, 144.851 
	L 101.126, 141.520 
	L 101.055, 141.662 
	L 101.055, 144.922 
	L 100.984, 144.993 
	L 100.984, 141.875 
	L 100.913, 142.087 
	L 100.913, 145.135 
	L 100.843, 145.205 
" />
<path d="M 100.843, 145.205 
	L 100.843, 142.229 
	L 100.772, 142.442 
	L 100.772, 145.276 
	L 100.701, 145.347 
	L 100.701, 142.583 
	L 100.630, 142.796 
	L 100.630, 145.418 
	L 100.559, 145.489 
	L 100.559, 142.938 
	L 100.488, 143.150 
" />
<path d="M 100.488, 143.150 
	L 100.488, 145.560 
	L 100.417, 145.702 
	L 100.417, 143.292 
	L 100.346, 143.505 
	L 100.346, 145.772 
	L 100.276, 145.843 
	L 100.276, 143.646 
	L 100.205, 143.859 
	L 100.205, 145.914 
	L 100.134, 145.985 
" />
<path d="M 100.134, 145.985 
	L 100.134, 144.072 
	L 100.063, 144.213 
	L 100.063, 146.056 
	L 99.992, 146.198 
	L 99.992, 144.426 
	L 99.921, 144.568 
	L 99.921, 146.268 
	L 99.850, 146.339 
	L 99.850, 144.780 
	L 99.780, 144.922 
" />
<path d="M 99.780, 144.922 
	L 99.780, 146.410 
	L 99.709, 146.481 
	L 99.709, 145.135 
	L 99.638, 145.276 
	L 99.638, 146.552 
	L 99.567, 146.694 
	L 99.567, 145.489 
	L 99.496, 145.631 
	L 99.496, 146.765 
	L 99.425, 146.835 
	L 99.425, 145.843 
" />
<path d="M 99.425, 145.843 
	L 99.354, 146.056 
	L 99.354, 146.906 
	L 99.283, 146.977 
	L 99.283, 146.198 
	L 99.213, 146.410 
	L 99.213, 147.048 
	L 99.142, 147.190 
	L 99.142, 146.552 
	L 99.071, 146.765 
	L 99.071, 147.261 
	L 99.000, 147.331 
" />
<path d="M 99.000, 147.331 
	L 99.000, 146.906 
	L 98.929, 147.119 
	L 98.929, 147.402 
	L 98.858, 147.473 
	L 98.858, 147.261 
	L 98.787, 147.473 
	L 98.787, 147.544 
" />
<path d="M 98.717, 147.614 
	L 98.717, 147.615 
	L 104.032, 141.450 
	L 101.693, 140.032 
	L 98.717, 147.615 
" />
<path d="M 101.552, 144.354 
	L 101.551, 144.355 
	L 101.551, 140.457 
" />
<path d="M 101.623, 144.283 
	L 101.622, 144.284 
	L 101.551, 144.355 
" />
<path d="M 123.804, 108.142 
	L 123.803, 108.142 
	L 123.874, 107.930 
	L 123.874, 104.599 
	L 123.945, 104.528 
	L 123.945, 107.788 
	L 124.016, 107.576 
	L 124.016, 104.457 
	L 124.087, 104.316 
	L 124.087, 107.363 
	L 124.157, 107.221 
" />
<path d="M 124.157, 107.221 
	L 124.157, 104.245 
	L 124.228, 104.174 
	L 124.228, 107.009 
	L 124.299, 106.867 
	L 124.299, 104.103 
	L 124.370, 104.032 
	L 124.370, 106.654 
	L 124.441, 106.513 
	L 124.441, 103.961 
	L 124.512, 103.820 
" />
<path d="M 124.512, 103.820 
	L 124.512, 106.300 
	L 124.583, 106.158 
	L 124.583, 103.749 
	L 124.654, 103.678 
	L 124.654, 105.946 
	L 124.724, 105.804 
	L 124.724, 103.607 
	L 124.795, 103.536 
	L 124.795, 105.591 
	L 124.866, 105.379 
" />
<path d="M 124.866, 105.379 
	L 124.866, 103.465 
	L 124.937, 103.394 
	L 124.937, 105.237 
	L 125.008, 105.024 
	L 125.008, 103.253 
	L 125.079, 103.182 
	L 125.079, 104.883 
	L 125.150, 104.670 
	L 125.150, 103.111 
	L 125.220, 103.040 
" />
<path d="M 125.220, 103.040 
	L 125.220, 104.528 
	L 125.291, 104.316 
	L 125.291, 102.969 
	L 125.362, 102.898 
	L 125.362, 104.174 
	L 125.433, 103.961 
	L 125.433, 102.757 
	L 125.504, 102.686 
	L 125.504, 103.820 
	L 125.575, 103.607 
" />
<path d="M 125.575, 103.607 
	L 125.575, 102.615 
	L 125.646, 102.544 
	L 125.646, 103.394 
	L 125.717, 103.253 
	L 125.717, 102.473 
	L 125.787, 102.402 
	L 125.787, 103.040 
	L 125.858, 102.898 
	L 125.858, 102.261 
	L 125.929, 102.190 
" />
<path d="M 125.929, 102.190 
	L 125.929, 102.686 
	L 126.000, 102.544 
	L 126.000, 102.119 
	L 126.071, 102.048 
	L 126.071, 102.331 
	L 126.142, 102.190 
	L 126.142, 101.977 
	L 126.213, 101.906 
	L 126.213, 101.977 
" />
<path d="M 123.804, 104.669 
	L 123.803, 104.670 
	L 123.732, 104.741 
	L 123.732, 108.284 
	L 123.661, 108.497 
	L 123.661, 104.812 
	L 123.591, 104.953 
	L 123.591, 108.639 
	L 123.520, 108.851 
	L 123.520, 105.024 
	L 123.449, 105.095 
" />
<path d="M 123.449, 105.095 
	L 123.449, 108.993 
	L 123.378, 109.205 
	L 123.378, 105.166 
	L 123.307, 105.237 
	L 123.307, 109.347 
	L 120.969, 107.930 
	L 126.283, 101.765 
	L 123.307, 109.347 
" />
<path d="M 123.237, 109.346 
	L 123.236, 109.347 
	L 123.236, 105.308 
	L 123.165, 105.450 
	L 123.165, 109.276 
	L 123.095, 109.276 
	L 123.095, 105.520 
	L 123.024, 105.591 
	L 123.024, 109.205 
	L 122.953, 109.135 
	L 122.953, 105.662 
" />
<path d="M 122.953, 105.662 
	L 122.882, 105.733 
	L 122.882, 109.135 
	L 122.811, 109.064 
	L 122.811, 105.804 
	L 122.740, 105.875 
	L 122.740, 109.064 
	L 122.669, 108.993 
	L 122.669, 106.016 
	L 122.598, 106.087 
	L 122.598, 108.922 
" />
<path d="M 122.598, 108.922 
	L 122.528, 108.922 
	L 122.528, 106.158 
	L 122.457, 106.229 
	L 122.457, 108.851 
	L 122.386, 108.851 
	L 122.386, 106.300 
	L 122.315, 106.371 
	L 122.315, 108.780 
	L 122.244, 108.709 
	L 122.244, 106.513 
" />
<path d="M 122.244, 106.513 
	L 122.173, 106.583 
	L 122.173, 108.709 
	L 122.102, 108.639 
	L 122.102, 106.654 
	L 122.032, 106.725 
	L 122.032, 108.639 
	L 121.961, 108.568 
	L 121.961, 106.796 
	L 121.890, 106.867 
	L 121.890, 108.497 
" />
<path d="M 121.890, 108.497 
	L 121.819, 108.497 
	L 121.819, 107.009 
	L 121.748, 107.079 
	L 121.748, 108.426 
	L 121.677, 108.426 
	L 121.677, 107.150 
	L 121.606, 107.221 
	L 121.606, 108.355 
	L 121.535, 108.284 
	L 121.535, 107.292 
" />
<path d="M 121.535, 107.292 
	L 121.465, 107.363 
	L 121.465, 108.284 
	L 121.394, 108.213 
	L 121.394, 107.505 
	L 121.323, 107.576 
	L 121.323, 108.213 
	L 121.252, 108.142 
	L 121.252, 107.646 
	L 121.181, 107.717 
	L 121.181, 108.072 
" />
<path d="M 121.181, 108.072 
	L 121.110, 108.072 
	L 121.110, 107.788 
	L 121.039, 107.859 
	L 121.039, 108.001 
" />
<path d="M 123.804, 108.142 
	L 123.803, 108.142 
	L 123.803, 104.670 
" />
<path d="M 112.890, 120.685 
	L 112.890, 120.686 
	L 110.197, 128.694 
" />
<path d="M 109.418, 128.693 
	L 109.417, 128.694 
	L 111.756, 128.694 
" />
<path d="M 114.024, 128.693 
	L 114.024, 128.694 
	L 116.291, 128.694 
" />
<path d="M 115.583, 128.693 
	L 115.583, 128.694 
	L 112.890, 120.686 
" />
<path d="M 112.890, 121.819 
	L 112.890, 121.820 
	L 115.157, 128.694 
" />
<path d="M 114.450, 126.425 
	L 114.449, 126.426 
	L 110.976, 126.426 
" />
<path d="M 161.717, 126.142 
	L 161.717, 126.142 
	L 161.717, 120.402 
" />
<path d="M 161.717, 117.567 
	L 161.717, 117.568 
	L 161.717, 111.827 
" />
<path d="M 161.717, 108.921 
	L 161.717, 108.922 
	L 161.717, 103.182 
" />
<path d="M 161.717, 100.346 
	L 161.717, 100.347 
	L 161.717, 96.450 
	L 161.717, 91.205 
" />
<path d="M 161.717, 88.370 
	L 161.717, 88.371 
	L 161.717, 82.631 
" />
<path d="M 161.717, 79.724 
	L 161.717, 79.725 
	L 161.717, 73.985 
" />
<path d="M 161.717, 71.150 
	L 161.717, 71.150 
	L 161.717, 65.410 
" />
<path d="M 161.717, 62.575 
	L 161.717, 62.576 
	L 161.717, 56.835 
" />
<path d="M 161.717, 53.929 
	L 161.717, 53.930 
	L 161.717, 48.261 
" />
<path d="M 161.717, 45.354 
	L 161.717, 45.355 
	L 161.717, 39.615 
" />
<path d="M 161.717, 36.780 
	L 161.717, 36.780 
	L 161.717, 31.040 
" />
<path d="M 161.717, 28.205 
	L 161.717, 28.205 
	L 161.717, 22.890 
" />
<path d="M 161.930, 96.449 
	L 161.929, 96.450 
	L 175.181, 96.450 
" />
<path d="M 171.001, 96.449 
	L 171.000, 96.450 
	L 170.929, 96.946 
	L 170.929, 104.457 
	L 170.858, 104.457 
	L 170.858, 97.371 
	L 170.787, 97.796 
	L 170.787, 104.457 
	L 170.717, 104.457 
	L 170.717, 98.292 
	L 170.646, 98.717 
" />
<path d="M 170.646, 98.717 
	L 170.646, 104.457 
	L 170.575, 104.457 
	L 170.575, 99.142 
	L 170.504, 99.568 
	L 170.504, 104.457 
	L 170.433, 104.457 
	L 170.433, 100.064 
	L 170.362, 100.489 
	L 170.362, 104.457 
	L 170.291, 104.457 
" />
<path d="M 170.291, 104.457 
	L 170.291, 100.914 
	L 170.220, 101.410 
	L 170.220, 104.457 
	L 170.150, 104.457 
	L 170.150, 101.835 
	L 170.079, 102.261 
	L 170.079, 104.457 
	L 170.008, 104.457 
	L 170.008, 102.686 
	L 169.937, 103.182 
" />
<path d="M 169.937, 103.182 
	L 169.937, 104.457 
	L 169.866, 104.457 
	L 169.866, 103.607 
	L 169.795, 104.032 
	L 169.795, 104.457 
" />
<path d="M 169.725, 104.457 
	L 169.724, 104.457 
	L 172.346, 104.457 
	L 171.000, 96.450 
	L 169.724, 104.457 
" />
<path d="M 169.087, 104.102 
	L 169.087, 104.103 
	L 164.197, 101.198 
" />
<path d="M 161.717, 99.709 
	L 161.717, 99.709 
	L 156.827, 96.733 
" />
<path d="M 154.347, 95.244 
	L 154.346, 95.245 
	L 148.394, 91.702 
" />
<path d="M 171.001, 96.449 
	L 171.000, 96.450 
	L 171.000, 104.457 
	L 171.000, 133.442 
" />
<path d="M 161.717, 134.717 
	L 161.717, 134.717 
	L 161.717, 128.977 
" />
<path d="M 161.717, 137.622 
	L 161.717, 137.623 
	L 161.717, 143.292 
" />
<path d="M 161.717, 146.197 
	L 161.717, 146.198 
	L 161.717, 150.095 
	L 161.717, 153.709 
" />
<path d="M 161.717, 156.543 
	L 161.717, 156.544 
	L 161.717, 162.284 
" />
<path d="M 161.717, 165.118 
	L 161.717, 165.119 
	L 161.717, 170.859 
" />
<path d="M 161.717, 173.764 
	L 161.717, 173.765 
	L 161.717, 179.505 
" />
<path d="M 161.717, 182.339 
	L 161.717, 182.339 
	L 161.717, 188.079 
" />
<path d="M 161.717, 190.913 
	L 161.717, 190.914 
	L 161.717, 194.528 
" />
<path d="M 161.930, 194.528 
	L 161.929, 194.528 
	L 175.181, 194.528 
" />
<path d="M 171.001, 194.528 
	L 171.000, 194.528 
	L 171.000, 186.520 
	L 170.929, 186.520 
	L 170.929, 194.103 
	L 170.858, 193.678 
	L 170.858, 186.520 
	L 170.787, 186.520 
	L 170.787, 193.253 
	L 170.717, 192.757 
	L 170.717, 186.520 
" />
<path d="M 170.717, 186.520 
	L 170.646, 186.520 
	L 170.646, 192.331 
	L 170.575, 191.906 
	L 170.575, 186.520 
	L 170.504, 186.520 
	L 170.504, 191.481 
	L 170.433, 190.985 
	L 170.433, 186.520 
	L 170.362, 186.520 
	L 170.362, 190.560 
" />
<path d="M 170.362, 190.560 
	L 170.291, 190.135 
	L 170.291, 186.520 
	L 170.220, 186.520 
	L 170.220, 189.639 
	L 170.150, 189.213 
	L 170.150, 186.520 
	L 170.079, 186.520 
	L 170.079, 188.788 
	L 170.008, 188.363 
	L 170.008, 186.520 
" />
<path d="M 170.008, 186.520 
	L 169.937, 186.520 
	L 169.937, 187.867 
	L 169.866, 187.442 
	L 169.866, 186.520 
	L 169.795, 186.520 
	L 169.795, 187.016 
" />
<path d="M 169.725, 186.520 
	L 169.724, 186.520 
	L 172.346, 186.520 
	L 171.000, 194.528 
	L 169.724, 186.520 
" />
<path d="M 171.001, 186.520 
	L 171.000, 186.520 
	L 171.000, 157.536 
" />
<path d="M 170.859, 149.102 
	L 170.858, 149.103 
	L 171.992, 149.528 
	L 172.772, 149.528 
	L 173.906, 149.103 
	L 174.685, 148.394 
	L 175.039, 147.615 
" />
<path d="M 175.040, 143.787 
	L 175.039, 143.788 
	L 175.039, 141.520 
	L 174.685, 142.654 
	L 173.906, 141.875 
	L 172.772, 141.520 
	L 171.992, 141.520 
	L 170.858, 141.875 
	L 170.079, 142.654 
	L 169.724, 143.434 
	L 169.299, 144.568 
" />
<path d="M 169.299, 144.568 
	L 169.299, 146.481 
	L 169.724, 147.615 
	L 170.079, 148.394 
	L 170.858, 149.103 
" />
<path d="M 171.213, 149.102 
	L 171.213, 149.103 
	L 171.992, 149.528 
" />
<path d="M 171.213, 149.102 
	L 171.213, 149.103 
	L 170.433, 148.394 
	L 170.079, 147.615 
	L 169.724, 146.481 
	L 169.724, 144.568 
	L 170.079, 143.434 
	L 170.433, 142.654 
	L 171.213, 141.875 
	L 171.992, 141.520 
" />
<path d="M 174.686, 142.654 
	L 174.685, 142.654 
	L 175.039, 143.788 
" />
<path d="M 176.457, 108.567 
	L 176.457, 108.568 
	L 171.567, 105.591 
" />
<path d="M 171.568, 104.457 
	L 171.567, 104.457 
	L 171.567, 99.851 
	L 171.496, 99.426 
	L 171.496, 104.457 
	L 171.425, 104.457 
	L 171.425, 99.001 
	L 171.354, 98.576 
	L 171.354, 104.457 
	L 171.283, 104.457 
	L 171.283, 98.150 
" />
<path d="M 171.283, 98.150 
	L 171.213, 97.725 
	L 171.213, 104.457 
	L 171.142, 104.457 
	L 171.142, 97.300 
	L 171.071, 96.875 
	L 171.071, 104.457 
	L 171.000, 104.457 
" />
<path d="M 171.568, 104.457 
	L 171.567, 104.457 
	L 171.638, 104.457 
	L 171.638, 100.276 
	L 171.709, 100.702 
	L 171.709, 104.457 
	L 171.780, 104.457 
	L 171.780, 101.127 
	L 171.850, 101.552 
	L 171.850, 104.457 
	L 171.921, 104.457 
" />
<path d="M 171.921, 104.457 
	L 171.921, 101.977 
	L 171.992, 102.402 
	L 171.992, 104.457 
	L 172.063, 104.457 
	L 172.063, 102.827 
	L 172.134, 103.253 
	L 172.134, 104.457 
	L 172.205, 104.457 
	L 172.205, 103.678 
	L 172.276, 104.103 
" />
<path d="M 172.276, 104.103 
	L 172.276, 104.457 
" />
<path d="M 178.938, 109.984 
	L 178.937, 109.985 
	L 183.827, 112.961 
" />
<path d="M 186.308, 114.449 
	L 186.307, 114.450 
	L 192.260, 117.993 
" />
<path d="M 146.056, 108.000 
	L 146.055, 108.001 
	L 148.181, 103.182 
" />
<path d="M 148.182, 102.543 
	L 148.181, 102.544 
	L 145.559, 108.426 
" />
<path d="M 145.135, 108.709 
	L 145.134, 108.709 
	L 148.110, 101.977 
" />
<path d="M 147.969, 101.480 
	L 147.969, 101.481 
	L 144.709, 108.993 
" />
<path d="M 145.064, 108.780 
	L 145.063, 108.780 
	L 143.929, 109.347 
	L 142.654, 109.702 
	L 141.378, 109.772 
	L 140.032, 109.631 
	L 145.276, 97.654 
" />
<path d="M 145.064, 97.512 
	L 145.063, 97.513 
	L 139.748, 109.560 
" />
<path d="M 140.032, 109.630 
	L 140.032, 109.631 
	L 138.827, 109.205 
	L 137.693, 108.568 
	L 140.598, 101.977 
" />
<path d="M 140.457, 101.622 
	L 140.457, 101.623 
	L 137.409, 108.426 
" />
<path d="M 137.198, 108.213 
	L 137.197, 108.213 
	L 140.315, 101.198 
" />
<path d="M 140.103, 100.843 
	L 140.102, 100.843 
	L 136.984, 108.001 
" />
<path d="M 136.772, 107.787 
	L 136.772, 107.788 
	L 139.961, 100.489 
" />
<path d="M 139.820, 100.063 
	L 139.819, 100.064 
	L 136.559, 107.576 
" />
<path d="M 136.702, 107.717 
	L 136.701, 107.717 
	L 137.693, 108.568 
" />
<path d="M 137.906, 108.709 
	L 137.906, 108.709 
	L 140.740, 102.331 
" />
<path d="M 140.883, 102.756 
	L 140.882, 102.757 
	L 138.118, 108.851 
" />
<path d="M 138.402, 108.992 
	L 138.402, 108.993 
	L 141.024, 103.111 
" />
<path d="M 141.166, 103.465 
	L 141.165, 103.465 
	L 138.685, 109.135 
" />
<path d="M 138.898, 109.276 
	L 138.898, 109.276 
	L 141.307, 103.820 
" />
<path d="M 141.520, 104.032 
	L 141.520, 104.032 
	L 139.181, 109.347 
" />
<path d="M 139.465, 109.488 
	L 139.465, 109.489 
	L 141.874, 103.961 
" />
<path d="M 142.158, 103.465 
	L 142.158, 103.465 
	L 144.850, 97.300 
" />
<path d="M 144.568, 97.157 
	L 144.567, 97.158 
	L 141.945, 103.040 
" />
<path d="M 141.804, 102.685 
	L 141.803, 102.686 
	L 144.283, 97.087 
" />
<path d="M 144.213, 97.016 
	L 144.213, 97.016 
	L 142.937, 96.591 
	L 141.661, 96.450 
	L 140.386, 96.520 
	L 139.110, 96.875 
	L 137.906, 97.513 
	L 136.913, 98.292 
	L 136.063, 99.284 
	L 135.425, 100.418 
	L 135.000, 101.694 
	L 134.858, 102.969 
" />
<path d="M 134.858, 102.969 
	L 134.929, 104.245 
	L 135.283, 105.520 
	L 135.850, 106.725 
	L 136.701, 107.717 
" />
<path d="M 136.347, 107.291 
	L 136.346, 107.292 
	L 139.748, 99.639 
" />
<path d="M 139.749, 99.496 
	L 139.748, 99.497 
	L 139.748, 99.851 
	L 141.236, 103.749 
	L 141.449, 103.961 
	L 141.803, 103.961 
	L 141.874, 103.961 
	L 142.087, 103.749 
	L 142.087, 103.394 
	L 140.598, 99.497 
	L 140.386, 99.284 
" />
<path d="M 140.386, 99.284 
	L 140.032, 99.284 
	L 139.961, 99.284 
	L 139.748, 99.497 
" />
<path d="M 139.820, 99.354 
	L 139.819, 99.355 
	L 141.165, 96.450 
" />
<path d="M 141.450, 96.449 
	L 141.449, 96.450 
	L 140.244, 99.213 
" />
<path d="M 140.457, 99.354 
	L 140.457, 99.355 
	L 141.732, 96.450 
" />
<path d="M 142.087, 96.449 
	L 142.087, 96.450 
	L 140.669, 99.639 
" />
<path d="M 140.812, 100.063 
	L 140.811, 100.064 
	L 142.370, 96.520 
" />
<path d="M 142.654, 96.520 
	L 142.654, 96.520 
	L 140.953, 100.418 
" />
<path d="M 141.095, 100.772 
	L 141.095, 100.772 
	L 142.937, 96.591 
" />
<path d="M 143.221, 96.661 
	L 143.220, 96.662 
	L 141.236, 101.198 
" />
<path d="M 141.379, 101.551 
	L 141.378, 101.552 
	L 143.504, 96.733 
" />
<path d="M 143.788, 96.874 
	L 143.787, 96.875 
	L 141.520, 101.906 
" />
<path d="M 141.662, 102.331 
	L 141.661, 102.331 
	L 144.071, 96.946 
" />
<path d="M 144.213, 97.016 
	L 144.213, 97.016 
	L 145.346, 97.654 
	L 146.339, 98.505 
	L 147.118, 99.568 
	L 147.756, 100.702 
	L 143.858, 109.347 
" />
<path d="M 143.505, 109.488 
	L 143.504, 109.489 
	L 147.543, 100.347 
" />
<path d="M 147.402, 99.992 
	L 147.402, 99.993 
	L 143.150, 109.560 
" />
<path d="M 142.796, 109.630 
	L 142.795, 109.631 
	L 147.260, 99.709 
" />
<path d="M 147.048, 99.425 
	L 147.047, 99.426 
	L 142.441, 109.702 
" />
<path d="M 142.158, 109.772 
	L 142.158, 109.772 
	L 146.835, 99.142 
" />
<path d="M 146.623, 98.858 
	L 146.622, 98.859 
	L 141.803, 109.772 
" />
<path d="M 141.520, 109.772 
	L 141.520, 109.772 
	L 146.409, 98.646 
" />
<path d="M 146.198, 98.433 
	L 146.197, 98.434 
	L 141.165, 109.772 
" />
<path d="M 140.883, 109.772 
	L 140.882, 109.772 
	L 145.984, 98.221 
" />
<path d="M 145.772, 98.008 
	L 145.772, 98.009 
	L 140.598, 109.702 
" />
<path d="M 140.316, 109.701 
	L 140.315, 109.702 
	L 145.559, 97.796 
" />
<path d="M 144.851, 99.567 
	L 144.850, 99.568 
	L 143.929, 98.930 
	L 142.937, 98.505 
	L 141.874, 98.292 
	L 140.811, 98.363 
	L 139.748, 98.646 
	L 138.827, 99.142 
	L 137.976, 99.780 
	L 137.339, 100.702 
	L 136.913, 101.694 
	L 136.701, 102.757 
" />
<path d="M 136.701, 102.757 
	L 136.701, 103.820 
	L 136.984, 104.883 
	L 137.480, 105.804 
	L 138.189, 106.654 
	L 139.039, 107.292 
	L 140.032, 107.717 
	L 141.095, 107.930 
	L 142.228, 107.930 
	L 143.291, 107.646 
	L 144.213, 107.150 
" />
<path d="M 144.213, 107.150 
	L 145.063, 106.442 
	L 145.701, 105.591 
	L 146.126, 104.599 
	L 146.339, 103.536 
	L 146.268, 102.402 
	L 146.055, 101.410 
	L 145.488, 100.418 
	L 144.850, 99.568 
" />
<path d="M 147.757, 100.701 
	L 147.756, 100.702 
	L 148.110, 101.977 
	L 148.181, 103.253 
	L 148.039, 104.599 
	L 147.614, 105.804 
	L 146.976, 106.938 
	L 146.126, 107.930 
	L 145.063, 108.780 
" />
<path d="M 144.284, 109.205 
	L 144.283, 109.205 
	L 147.827, 101.056 
" />
<path d="M 148.111, 104.032 
	L 148.110, 104.032 
	L 146.622, 107.363 
" />
<path d="M 136.135, 107.079 
	L 136.134, 107.079 
	L 140.811, 96.520 
" />
<path d="M 140.457, 96.520 
	L 140.457, 96.520 
	L 135.921, 106.796 
" />
<path d="M 135.780, 106.512 
	L 135.780, 106.513 
	L 140.102, 96.591 
" />
<path d="M 139.749, 96.661 
	L 139.748, 96.662 
	L 135.567, 106.158 
" />
<path d="M 135.426, 105.874 
	L 135.425, 105.875 
	L 139.394, 96.804 
" />
<path d="M 139.040, 96.945 
	L 139.039, 96.946 
	L 135.283, 105.450 
" />
<path d="M 135.142, 105.095 
	L 135.142, 105.095 
	L 138.685, 97.087 
" />
<path d="M 138.261, 97.299 
	L 138.260, 97.300 
	L 135.000, 104.670 
" />
<path d="M 134.930, 104.173 
	L 134.929, 104.174 
	L 137.835, 97.583 
" />
<path d="M 137.339, 97.866 
	L 137.339, 97.867 
	L 134.858, 103.607 
" />
<path d="M 134.859, 102.898 
	L 134.858, 102.898 
	L 136.843, 98.363 
" />
<path d="M 136.205, 99.071 
	L 136.205, 99.072 
	L 134.929, 101.977 
" />
<path d="M 154.205, 94.890 
	L 154.205, 94.890 
	L 167.740, 72.072 
" />
<path d="M 167.741, 76.465 
	L 167.740, 76.465 
	L 166.606, 76.465 
	L 166.677, 76.536 
	L 167.953, 76.536 
	L 168.165, 76.607 
	L 166.748, 76.607 
	L 166.819, 76.678 
	L 168.307, 76.678 
	L 168.520, 76.749 
	L 166.961, 76.749 
	L 167.032, 76.820 
" />
<path d="M 167.032, 76.820 
	L 168.661, 76.820 
	L 168.874, 76.890 
	L 167.102, 76.890 
	L 167.173, 76.961 
	L 169.016, 76.961 
	L 169.228, 77.032 
	L 167.244, 77.032 
	L 167.315, 77.103 
	L 169.441, 77.103 
	L 169.583, 77.174 
	L 167.457, 77.174 
" />
<path d="M 167.457, 77.174 
	L 167.528, 77.245 
	L 169.795, 77.245 
	L 169.937, 77.316 
	L 167.598, 77.316 
	L 167.669, 77.387 
	L 170.150, 77.387 
	L 170.291, 77.457 
	L 167.740, 77.457 
	L 167.882, 77.528 
	L 170.504, 77.528 
	L 170.717, 77.599 
" />
<path d="M 170.717, 77.599 
	L 167.953, 77.599 
	L 168.024, 77.670 
	L 170.858, 77.670 
	L 171.071, 77.741 
	L 168.095, 77.741 
	L 168.165, 77.812 
	L 171.213, 77.812 
	L 171.425, 77.883 
	L 168.307, 77.883 
	L 168.378, 77.953 
	L 171.567, 77.953 
" />
<path d="M 171.567, 77.953 
	L 171.780, 78.024 
	L 168.449, 78.024 
	L 168.520, 78.095 
	L 171.992, 78.095 
	L 172.134, 78.166 
	L 168.591, 78.166 
	L 168.732, 78.237 
	L 172.346, 78.237 
	L 172.488, 78.308 
	L 168.803, 78.308 
	L 168.874, 78.379 
" />
<path d="M 168.874, 78.379 
	L 172.701, 78.379 
	L 172.843, 78.450 
	L 168.945, 78.450 
	L 169.016, 78.520 
	L 173.055, 78.520 
	L 173.268, 78.591 
	L 169.087, 78.591 
	L 169.228, 78.662 
	L 173.197, 78.662 
	L 173.126, 78.733 
	L 169.299, 78.733 
" />
<path d="M 169.299, 78.733 
	L 169.370, 78.804 
	L 173.126, 78.804 
	L 173.055, 78.875 
	L 169.441, 78.875 
	L 169.512, 78.946 
	L 172.984, 78.946 
	L 172.984, 79.016 
	L 169.654, 79.016 
	L 169.724, 79.087 
	L 172.913, 79.087 
	L 172.913, 79.158 
" />
<path d="M 172.913, 79.158 
	L 169.795, 79.158 
	L 169.866, 79.229 
	L 172.843, 79.229 
	L 172.772, 79.300 
	L 169.937, 79.300 
	L 170.079, 79.371 
	L 172.772, 79.371 
	L 172.701, 79.442 
	L 170.150, 79.442 
	L 170.220, 79.513 
	L 172.630, 79.513 
" />
<path d="M 172.630, 79.513 
	L 172.630, 79.583 
	L 170.291, 79.583 
	L 170.362, 79.654 
	L 172.559, 79.654 
	L 172.559, 79.725 
	L 170.433, 79.725 
	L 170.575, 79.796 
	L 172.488, 79.796 
	L 172.417, 79.867 
	L 170.646, 79.867 
	L 170.717, 79.938 
" />
<path d="M 170.717, 79.938 
	L 172.417, 79.938 
	L 172.346, 80.009 
	L 170.787, 80.009 
	L 170.858, 80.079 
	L 172.276, 80.079 
	L 172.276, 80.150 
	L 171.000, 80.150 
	L 171.071, 80.221 
	L 172.205, 80.221 
	L 172.205, 80.292 
	L 171.142, 80.292 
" />
<path d="M 171.142, 80.292 
	L 171.213, 80.363 
	L 172.134, 80.363 
	L 172.063, 80.434 
	L 171.283, 80.434 
	L 171.425, 80.505 
	L 172.063, 80.505 
	L 171.992, 80.576 
	L 171.496, 80.576 
	L 171.567, 80.646 
	L 171.921, 80.646 
	L 171.921, 80.717 
" />
<path d="M 171.921, 80.717 
	L 171.638, 80.717 
	L 171.709, 80.788 
	L 171.850, 80.788 
" />
<path d="M 171.851, 80.858 
	L 171.850, 80.859 
	L 173.268, 78.591 
	L 165.614, 75.615 
	L 171.850, 80.859 
" />
<path d="M 172.560, 79.724 
	L 172.559, 79.725 
	L 173.764, 80.434 
" />
<path d="M 167.741, 76.465 
	L 167.740, 76.465 
	L 167.598, 76.394 
	L 166.535, 76.394 
	L 166.394, 76.324 
	L 167.386, 76.324 
	L 167.244, 76.253 
	L 166.323, 76.253 
	L 166.252, 76.182 
	L 167.032, 76.182 
	L 166.890, 76.111 
	L 166.181, 76.111 
" />
<path d="M 166.181, 76.111 
	L 166.110, 76.040 
	L 166.677, 76.040 
	L 166.465, 75.969 
	L 165.969, 75.969 
	L 165.898, 75.898 
	L 166.323, 75.898 
	L 166.110, 75.827 
	L 165.827, 75.827 
	L 165.756, 75.757 
	L 165.969, 75.757 
	L 165.756, 75.686 
" />
<path d="M 165.756, 75.686 
	L 165.685, 75.686 
" />
<path d="M 195.875, 93.543 
	L 195.874, 93.544 
	L 197.079, 94.253 
" />
<path d="M 197.079, 94.181 
	L 197.079, 94.182 
	L 198.921, 94.182 
	L 199.063, 94.253 
	L 197.008, 94.253 
	L 196.937, 94.324 
	L 199.134, 94.324 
	L 199.205, 94.394 
	L 196.937, 94.394 
	L 196.866, 94.465 
	L 199.276, 94.465 
	L 199.346, 94.536 
" />
<path d="M 199.346, 94.536 
	L 196.866, 94.536 
	L 196.795, 94.607 
	L 199.417, 94.607 
	L 199.559, 94.678 
	L 196.724, 94.678 
	L 196.724, 94.749 
	L 199.630, 94.749 
	L 199.701, 94.820 
	L 196.654, 94.820 
	L 196.654, 94.890 
	L 199.772, 94.890 
" />
<path d="M 199.772, 94.890 
	L 199.843, 94.961 
	L 196.583, 94.961 
	L 196.512, 95.032 
	L 199.984, 95.032 
	L 200.055, 95.103 
	L 196.512, 95.103 
	L 196.441, 95.174 
	L 200.126, 95.174 
	L 200.197, 95.245 
	L 196.441, 95.245 
	L 196.370, 95.316 
" />
<path d="M 196.370, 95.316 
	L 200.268, 95.316 
	L 200.409, 95.387 
	L 196.370, 95.387 
	L 196.512, 95.457 
	L 200.480, 95.457 
	L 200.551, 95.528 
	L 196.724, 95.528 
	L 196.866, 95.599 
	L 200.622, 95.599 
	L 200.693, 95.670 
	L 197.079, 95.670 
" />
<path d="M 197.079, 95.670 
	L 197.221, 95.741 
	L 200.835, 95.741 
	L 200.906, 95.812 
	L 197.433, 95.812 
	L 197.575, 95.883 
	L 200.976, 95.883 
	L 201.047, 95.953 
	L 197.787, 95.953 
	L 197.929, 96.024 
	L 201.118, 96.024 
	L 201.189, 96.095 
" />
<path d="M 201.189, 96.095 
	L 198.142, 96.095 
	L 198.354, 96.166 
	L 201.331, 96.166 
	L 201.402, 96.237 
	L 198.496, 96.237 
	L 198.709, 96.308 
	L 201.472, 96.308 
	L 201.543, 96.379 
	L 198.850, 96.379 
	L 199.063, 96.450 
	L 201.614, 96.450 
" />
<path d="M 201.614, 96.450 
	L 201.756, 96.520 
	L 199.205, 96.520 
	L 199.417, 96.591 
	L 201.827, 96.591 
	L 201.898, 96.662 
	L 199.559, 96.662 
	L 199.772, 96.733 
	L 201.969, 96.733 
	L 202.039, 96.804 
	L 199.913, 96.804 
	L 200.126, 96.875 
" />
<path d="M 200.126, 96.875 
	L 202.181, 96.875 
	L 202.252, 96.946 
	L 200.339, 96.946 
	L 200.480, 97.016 
	L 202.323, 97.016 
	L 202.394, 97.087 
	L 200.693, 97.087 
	L 200.835, 97.158 
	L 202.465, 97.158 
	L 202.535, 97.229 
	L 201.047, 97.229 
" />
<path d="M 201.047, 97.229 
	L 201.189, 97.300 
	L 202.677, 97.300 
	L 202.748, 97.371 
	L 201.402, 97.371 
	L 201.543, 97.442 
	L 202.819, 97.442 
	L 202.890, 97.513 
	L 201.756, 97.513 
	L 201.898, 97.583 
	L 202.961, 97.583 
	L 203.102, 97.654 
" />
<path d="M 203.102, 97.654 
	L 202.110, 97.654 
	L 202.323, 97.725 
	L 203.173, 97.725 
	L 203.244, 97.796 
	L 202.465, 97.796 
	L 202.677, 97.867 
	L 203.315, 97.867 
	L 203.386, 97.938 
	L 202.819, 97.938 
	L 203.032, 98.009 
	L 203.528, 98.009 
" />
<path d="M 203.528, 98.009 
	L 203.598, 98.079 
	L 203.173, 98.079 
	L 203.386, 98.150 
	L 203.669, 98.150 
	L 203.740, 98.221 
	L 203.528, 98.221 
	L 203.740, 98.292 
	L 203.811, 98.292 
" />
<path d="M 203.953, 98.362 
	L 203.953, 98.363 
	L 196.370, 95.387 
	L 197.717, 93.119 
	L 203.953, 98.363 
" />
<path d="M 206.079, 94.819 
	L 206.079, 94.820 
	L 192.543, 117.639 
" />
<path d="M 197.079, 94.181 
	L 197.079, 94.182 
	L 197.079, 94.111 
	L 198.850, 94.111 
	L 198.780, 94.040 
	L 197.150, 94.040 
	L 197.150, 93.969 
	L 198.709, 93.969 
	L 198.638, 93.898 
	L 197.221, 93.898 
	L 197.291, 93.827 
	L 198.496, 93.827 
" />
<path d="M 198.496, 93.827 
	L 198.425, 93.757 
	L 197.291, 93.757 
	L 197.362, 93.686 
	L 198.354, 93.686 
	L 198.283, 93.615 
	L 197.362, 93.615 
	L 197.433, 93.544 
	L 198.213, 93.544 
	L 198.071, 93.473 
	L 197.504, 93.473 
	L 197.504, 93.402 
" />
<path d="M 197.504, 93.402 
	L 198.000, 93.402 
	L 197.929, 93.331 
	L 197.575, 93.331 
	L 197.575, 93.261 
	L 197.858, 93.261 
	L 197.787, 93.190 
	L 197.646, 93.190 
" />
<path d="M 188.079, 90.638 
	L 188.079, 90.639 
	L 186.874, 90.993 
	L 182.339, 90.993 
" />
<path d="M 183.473, 90.992 
	L 183.472, 90.993 
	L 183.472, 82.985 
" />
<path d="M 183.828, 82.984 
	L 183.827, 82.985 
	L 183.827, 90.993 
" />
<path d="M 186.875, 90.992 
	L 186.874, 90.993 
	L 187.654, 90.639 
	L 188.079, 90.213 
	L 188.433, 89.505 
	L 188.433, 88.300 
	L 188.079, 87.591 
	L 187.654, 87.166 
	L 186.874, 86.812 
	L 188.079, 87.166 
	L 188.433, 87.591 
	L 188.787, 88.300 
" />
<path d="M 188.787, 88.300 
	L 188.787, 89.505 
	L 188.433, 90.213 
	L 188.079, 90.639 
" />
<path d="M 188.079, 86.386 
	L 188.079, 86.387 
	L 186.874, 86.812 
	L 187.654, 86.387 
	L 188.079, 86.032 
	L 188.433, 85.253 
	L 188.433, 84.544 
	L 188.079, 83.765 
	L 187.654, 83.339 
	L 186.874, 82.985 
	L 188.079, 83.339 
	L 188.433, 83.765 
" />
<path d="M 188.433, 83.765 
	L 188.787, 84.544 
	L 188.787, 85.253 
	L 188.433, 86.032 
	L 188.079, 86.387 
" />
<path d="M 186.875, 86.811 
	L 186.874, 86.812 
	L 183.827, 86.812 
" />
<path d="M 182.339, 82.984 
	L 182.339, 82.985 
	L 186.874, 82.985 
" />
<path d="M 186.591, 107.929 
	L 186.591, 107.930 
	L 185.244, 108.072 
	L 183.969, 108.426 
	L 182.835, 109.064 
	L 181.843, 109.843 
	L 180.992, 110.906 
	L 180.425, 112.040 
	L 180.000, 113.316 
	L 179.858, 114.591 
	L 180.000, 115.867 
" />
<path d="M 180.000, 115.867 
	L 180.425, 117.142 
	L 180.992, 118.276 
	L 181.843, 119.268 
	L 182.835, 120.119 
	L 183.969, 120.757 
	L 185.244, 121.111 
	L 186.591, 121.253 
	L 187.866, 121.111 
	L 189.142, 120.757 
	L 190.276, 120.119 
" />
<path d="M 190.276, 120.119 
	L 191.268, 119.268 
	L 192.118, 118.276 
	L 192.756, 117.142 
	L 193.110, 115.867 
	L 193.252, 114.591 
	L 193.110, 113.316 
	L 192.756, 112.040 
	L 192.118, 110.906 
	L 191.268, 109.843 
	L 190.276, 109.064 
" />
<path d="M 190.276, 109.064 
	L 189.142, 108.426 
	L 187.866, 108.072 
	L 186.591, 107.930 
" />
<path d="M 186.591, 107.079 
	L 186.591, 107.079 
	L 184.039, 102.898 
	L 181.276, 98.930 
	L 178.228, 95.103 
	L 174.969, 91.418 
	L 171.496, 88.016 
	L 167.882, 84.757 
	L 164.055, 81.709 
	L 160.087, 78.946 
	L 155.906, 76.394 
" />
<path d="M 155.906, 76.394 
	L 151.654, 74.056 
	L 147.189, 72.001 
	L 142.654, 70.229 
	L 138.047, 68.670 
	L 133.299, 67.394 
	L 128.551, 66.402 
	L 123.732, 65.694 
	L 118.843, 65.268 
	L 113.953, 65.127 
	L 109.134, 65.268 
	L 104.244, 65.694 
" />
<path d="M 104.244, 65.694 
	L 99.425, 66.402 
	L 94.677, 67.394 
	L 89.929, 68.670 
	L 85.323, 70.229 
	L 80.787, 72.001 
	L 76.323, 74.056 
	L 72.071, 76.394 
	L 67.890, 78.946 
	L 63.921, 81.709 
	L 60.094, 84.757 
	L 56.480, 88.016 
" />
<path d="M 56.480, 88.016 
	L 53.008, 91.418 
	L 49.748, 95.103 
	L 46.701, 98.930 
	L 43.937, 102.898 
	L 41.386, 107.079 
	L 39.047, 111.331 
	L 36.992, 115.796 
	L 35.220, 120.331 
	L 33.661, 124.938 
	L 32.386, 129.615 
	L 31.394, 134.434 
" />
<path d="M 31.394, 134.434 
	L 30.685, 139.253 
	L 30.260, 144.142 
	L 30.118, 148.961 
	L 30.260, 153.851 
	L 30.685, 158.741 
	L 31.394, 163.560 
	L 32.386, 168.308 
	L 33.661, 173.056 
	L 35.220, 177.662 
	L 36.992, 182.198 
	L 39.047, 186.591 
" />
<path d="M 39.047, 186.591 
	L 41.386, 190.914 
	L 43.937, 195.024 
	L 46.701, 199.064 
	L 49.748, 202.891 
	L 53.008, 206.505 
	L 56.480, 209.977 
	L 60.094, 213.166 
	L 63.921, 216.213 
	L 67.890, 219.048 
	L 72.071, 221.599 
	L 76.323, 223.867 
" />
<path d="M 76.323, 223.867 
	L 80.787, 225.993 
	L 85.323, 227.765 
	L 89.929, 229.324 
	L 94.677, 230.528 
	L 99.425, 231.520 
	L 104.244, 232.229 
	L 109.134, 232.654 
	L 114.024, 232.796 
	L 118.843, 232.654 
	L 123.732, 232.229 
" />
<path d="M 123.732, 232.229 
	L 128.551, 231.520 
	L 133.299, 230.528 
	L 138.047, 229.324 
	L 142.654, 227.765 
	L 147.189, 225.993 
	L 151.654, 223.867 
	L 155.906, 221.599 
	L 160.087, 219.048 
	L 164.055, 216.213 
	L 167.882, 213.166 
" />
<path d="M 167.882, 213.166 
	L 171.496, 209.977 
	L 174.969, 206.505 
	L 178.228, 202.891 
	L 181.276, 199.064 
	L 184.039, 195.024 
	L 186.591, 190.914 
	L 188.929, 186.591 
	L 190.984, 182.198 
	L 192.756, 177.662 
	L 194.315, 173.056 
" />
<path d="M 194.315, 173.056 
	L 195.591, 168.308 
	L 196.583, 163.560 
	L 197.291, 158.741 
	L 197.717, 153.851 
	L 197.858, 148.961 
	L 197.717, 144.142 
	L 197.291, 139.253 
	L 196.583, 134.434 
	L 195.591, 129.615 
	L 194.315, 124.938 
" />
<path d="M 194.315, 124.938 
	L 192.756, 120.331 
	L 190.984, 115.796 
	L 188.929, 111.331 
	L 186.591, 107.079 
" />
<path d="M 153.497, 109.488 
	L 153.496, 109.489 
	L 150.591, 106.725 
	L 147.472, 104.245 
	L 144.213, 101.977 
	L 140.811, 99.922 
	L 137.197, 98.150 
	L 133.512, 96.591 
	L 129.756, 95.387 
	L 125.858, 94.394 
	L 121.961, 93.686 
" />
<path d="M 121.961, 93.686 
	L 117.992, 93.261 
	L 113.953, 93.119 
	L 109.984, 93.261 
	L 106.016, 93.686 
	L 102.118, 94.394 
	L 98.220, 95.387 
	L 94.465, 96.591 
	L 90.780, 98.150 
	L 87.165, 99.922 
	L 83.764, 101.977 
	L 80.504, 104.245 
" />
<path d="M 80.504, 104.245 
	L 77.386, 106.725 
	L 74.480, 109.489 
	L 71.717, 112.394 
	L 69.236, 115.513 
	L 66.969, 118.772 
	L 64.913, 122.174 
	L 63.142, 125.788 
	L 61.583, 129.473 
	L 60.378, 133.229 
	L 59.386, 137.127 
	L 58.677, 141.024 
" />
<path d="M 58.677, 141.024 
	L 58.252, 144.993 
	L 58.110, 148.961 
	L 58.252, 153.001 
	L 58.677, 156.969 
	L 59.386, 160.867 
	L 60.378, 164.694 
	L 61.583, 168.520 
	L 63.142, 172.205 
	L 64.913, 175.749 
	L 66.969, 179.221 
	L 69.236, 182.481 
" />
<path d="M 69.236, 182.481 
	L 71.717, 185.599 
	L 74.480, 188.505 
	L 77.386, 191.198 
	L 80.504, 193.749 
	L 83.764, 196.016 
	L 87.165, 198.001 
	L 90.780, 199.843 
	L 94.465, 201.331 
	L 98.220, 202.607 
	L 102.118, 203.599 
	L 106.016, 204.308 
" />
<path d="M 106.016, 204.308 
	L 109.984, 204.733 
	L 114.024, 204.875 
	L 117.992, 204.733 
	L 121.961, 204.308 
	L 125.858, 203.599 
	L 129.756, 202.607 
	L 133.512, 201.331 
	L 137.197, 199.843 
	L 140.811, 198.001 
	L 144.213, 196.016 
" />
<path d="M 144.213, 196.016 
	L 147.472, 193.749 
	L 150.591, 191.198 
	L 153.496, 188.505 
	L 156.260, 185.599 
	L 158.740, 182.481 
	L 161.008, 179.221 
	L 163.063, 175.749 
	L 164.835, 172.205 
	L 166.394, 168.520 
	L 167.598, 164.694 
" />
<path d="M 167.598, 164.694 
	L 168.591, 160.867 
	L 169.299, 156.969 
	L 169.724, 153.001 
	L 169.866, 148.961 
	L 169.724, 144.993 
	L 169.299, 141.024 
	L 168.591, 137.127 
	L 167.598, 133.229 
	L 166.394, 129.473 
	L 164.835, 125.788 
" />
<path d="M 164.835, 125.788 
	L 163.063, 122.174 
	L 161.008, 118.772 
	L 158.740, 115.513 
	L 156.260, 112.394 
	L 153.496, 109.489 
" />
<path d="M 133.725, 129.189 
	L 133.724, 129.190 
	L 131.740, 127.347 
	L 129.543, 125.717 
	L 127.134, 124.371 
	L 124.654, 123.166 
	L 122.102, 122.245 
	L 119.409, 121.607 
	L 116.717, 121.182 
	L 114.024, 121.040 
	L 111.260, 121.182 
" />
<path d="M 111.260, 121.182 
	L 108.567, 121.607 
	L 105.874, 122.245 
	L 103.323, 123.166 
	L 100.843, 124.371 
	L 98.433, 125.717 
	L 96.236, 127.347 
	L 94.252, 129.190 
	L 92.409, 131.245 
	L 90.780, 133.442 
	L 89.362, 135.780 
" />
<path d="M 89.362, 135.780 
	L 88.157, 138.261 
	L 87.236, 140.883 
	L 86.598, 143.505 
	L 86.173, 146.268 
	L 86.032, 148.961 
	L 86.173, 151.725 
	L 86.598, 154.418 
	L 87.236, 157.111 
	L 88.157, 159.662 
	L 89.362, 162.142 
	L 90.780, 164.481 
" />
<path d="M 90.780, 164.481 
	L 92.409, 166.678 
	L 94.252, 168.733 
	L 96.236, 170.576 
	L 98.433, 172.205 
	L 100.843, 173.623 
	L 103.323, 174.828 
	L 105.874, 175.749 
	L 108.567, 176.387 
	L 111.260, 176.812 
	L 113.953, 176.953 
" />
<path d="M 113.953, 176.953 
	L 116.717, 176.812 
	L 119.409, 176.387 
	L 122.102, 175.749 
	L 124.654, 174.828 
	L 127.134, 173.623 
	L 129.543, 172.205 
	L 131.740, 170.576 
	L 133.724, 168.733 
	L 135.567, 166.678 
	L 137.197, 164.481 
" />
<path d="M 137.197, 164.481 
	L 138.614, 162.142 
	L 139.819, 159.662 
	L 140.740, 157.111 
	L 141.378, 154.418 
	L 141.803, 151.725 
	L 141.945, 148.961 
	L 141.803, 146.268 
	L 141.378, 143.505 
	L 140.740, 140.883 
	L 139.819, 138.261 
" />
<path d="M 139.819, 138.261 
	L 138.614, 135.780 
	L 137.197, 133.442 
	L 135.567, 131.245 
	L 133.724, 129.190 
" />
<path d="M 118.914, 144.071 
	L 118.913, 144.072 
	L 117.850, 143.150 
	L 116.646, 142.513 
	L 115.370, 142.158 
	L 114.024, 142.016 
	L 112.606, 142.158 
	L 111.331, 142.513 
	L 110.126, 143.150 
	L 109.063, 144.072 
	L 108.213, 145.135 
" />
<path d="M 108.213, 145.135 
	L 107.504, 146.339 
	L 107.150, 147.615 
	L 107.008, 148.961 
	L 107.150, 150.379 
	L 107.504, 151.654 
	L 108.213, 152.859 
	L 109.063, 153.922 
	L 110.126, 154.772 
	L 111.331, 155.410 
	L 112.606, 155.835 
" />
<path d="M 112.606, 155.835 
	L 113.953, 155.977 
	L 115.370, 155.835 
	L 116.646, 155.410 
	L 117.850, 154.772 
	L 118.913, 153.922 
	L 119.764, 152.859 
	L 120.472, 151.654 
	L 120.827, 150.379 
	L 120.969, 148.961 
	L 120.827, 147.615 
" />
<path d="M 120.827, 147.615 
	L 120.472, 146.339 
	L 119.764, 145.135 
	L 118.913, 144.072 
" />
<path d="M 156.969, 183.189 
	L 156.969, 183.190 
	L 156.189, 184.182 
	L 155.551, 185.316 
	L 155.197, 186.591 
	L 155.055, 187.867 
	L 155.197, 189.213 
	L 155.551, 190.418 
	L 156.189, 191.552 
	L 156.969, 192.615 
	L 158.032, 193.394 
" />
<path d="M 158.032, 193.394 
	L 159.165, 194.032 
	L 160.441, 194.387 
	L 161.717, 194.528 
	L 162.992, 194.387 
	L 164.268, 194.032 
	L 165.402, 193.394 
	L 166.465, 192.615 
	L 167.244, 191.552 
	L 167.882, 190.418 
	L 168.236, 189.213 
" />
<path d="M 168.236, 189.213 
	L 168.378, 187.867 
	L 168.236, 186.591 
	L 167.882, 185.316 
	L 167.244, 184.182 
	L 166.465, 183.190 
	L 165.402, 182.339 
	L 164.268, 181.702 
	L 162.992, 181.347 
	L 161.717, 181.205 
	L 160.441, 181.347 
" />
<path d="M 160.441, 181.347 
	L 159.165, 181.702 
	L 158.032, 182.339 
	L 156.969, 183.190 
" />
<path d="M 171.072, 186.520 
	L 171.071, 186.520 
	L 171.071, 194.174 
" />
<path d="M 171.142, 193.748 
	L 171.142, 193.749 
	L 171.142, 186.520 
	L 171.071, 186.520 
" />
<path d="M 171.213, 186.520 
	L 171.213, 186.520 
	L 171.213, 193.324 
	L 171.142, 193.749 
" />
<path d="M 171.284, 192.898 
	L 171.283, 192.898 
	L 171.283, 186.520 
	L 171.213, 186.520 
" />
<path d="M 171.355, 186.520 
	L 171.354, 186.520 
	L 171.354, 192.473 
	L 171.283, 192.898 
" />
<path d="M 171.426, 192.047 
	L 171.425, 192.048 
	L 171.425, 186.520 
	L 171.354, 186.520 
" />
<path d="M 171.497, 186.520 
	L 171.496, 186.520 
	L 171.496, 191.623 
	L 171.425, 192.048 
" />
<path d="M 171.568, 191.197 
	L 171.567, 191.198 
	L 171.567, 186.520 
	L 171.496, 186.520 
" />
<path d="M 171.639, 186.520 
	L 171.638, 186.520 
	L 171.638, 190.772 
	L 171.567, 191.198 
" />
<path d="M 171.709, 190.346 
	L 171.709, 190.347 
	L 171.709, 186.520 
	L 171.638, 186.520 
" />
<path d="M 171.780, 186.520 
	L 171.780, 186.520 
	L 171.780, 189.922 
	L 171.709, 190.347 
" />
<path d="M 171.851, 189.496 
	L 171.850, 189.497 
	L 171.850, 186.520 
	L 171.780, 186.520 
" />
<path d="M 171.922, 186.520 
	L 171.921, 186.520 
	L 171.921, 189.072 
	L 171.850, 189.497 
" />
<path d="M 171.993, 188.646 
	L 171.992, 188.646 
	L 171.992, 186.520 
	L 171.921, 186.520 
" />
<path d="M 172.064, 186.520 
	L 172.063, 186.520 
	L 172.063, 188.221 
	L 171.992, 188.646 
" />
<path d="M 172.135, 187.795 
	L 172.134, 187.796 
	L 172.134, 186.520 
	L 172.063, 186.520 
" />
<path d="M 172.205, 186.520 
	L 172.205, 186.520 
	L 172.205, 187.371 
	L 172.134, 187.796 
" />
<path d="M 172.276, 186.945 
	L 172.276, 186.946 
	L 172.276, 186.520 
	L 172.205, 186.520 
" />
<path d="M 227.977, 148.961 
	L 227.976, 148.961 
	L 0.000, 148.961 
" />
<path d="M 0.001, 232.795 
	L 0.000, 232.796 
	L 227.976, 232.796 
" />
<path d="M 218.835, 240.661 
	L 218.835, 240.662 
	L 218.835, 0.001 
" />
<path d="M 114.024, 0.000 
	L 114.024, 0.001 
	L 114.024, 240.662 
" />
<path d="M 9.142, 240.661 
	L 9.142, 240.662 
	L 9.142, 0.001 
" />
</g><g style="stroke:rgb(255,255,255); fill:none; stroke-width:0.100mm" >
</g>
</svg>
