<?xml version="1.0" encoding="UTF-8" standalone="no" ?>
<svg width="100%" height="100%" viewBox="0 0 227.977 206.292" xmlns="http://www.w3.org/2000/svg"><g>
</g><g style="stroke:rgb(0,0,0); fill:none; stroke-width:1.000mm" >
</g><g style="stroke:rgb(0,0,0); fill:none; stroke-width:0.100mm" >
<path d="M 120.473, 113.102 
	L 120.472, 113.103 
	L 114.520, 114.591 
" />
<path d="M 114.308, 114.945 
	L 114.307, 114.946 
	L 120.543, 113.316 
" />
<path d="M 120.615, 113.598 
	L 120.614, 113.599 
	L 114.095, 115.300 
	L 116.291, 111.615 
	L 116.291, 111.331 
	L 116.150, 111.048 
	L 116.079, 111.048 
	L 115.724, 110.977 
	L 115.512, 111.190 
	L 113.315, 114.804 
	L 113.315, 115.087 
" />
<path d="M 113.315, 115.087 
	L 113.457, 115.371 
	L 113.528, 115.442 
	L 113.882, 115.442 
	L 114.095, 115.300 
" />
<path d="M 113.599, 115.441 
	L 113.598, 115.442 
	L 107.717, 116.930 
" />
<path d="M 107.646, 116.646 
	L 107.646, 116.646 
	L 113.315, 115.158 
" />
<path d="M 113.316, 114.874 
	L 113.315, 114.875 
	L 107.575, 116.363 
" />
<path d="M 107.505, 116.220 
	L 107.504, 116.221 
	L 108.000, 117.497 
	L 108.638, 118.631 
	L 109.559, 119.552 
	L 110.551, 120.331 
	L 111.756, 120.898 
	L 113.032, 121.182 
	L 114.378, 121.253 
	L 115.654, 121.040 
	L 116.858, 120.615 
" />
<path d="M 116.858, 120.615 
	L 117.992, 119.977 
	L 118.984, 119.056 
	L 119.693, 117.993 
	L 120.260, 116.859 
	L 120.614, 115.583 
	L 120.685, 114.237 
	L 120.472, 112.961 
	L 119.976, 111.757 
	L 119.339, 110.623 
	L 118.417, 109.631 
" />
<path d="M 118.417, 109.631 
	L 117.425, 108.851 
	L 116.220, 108.284 
	L 114.945, 108.001 
	L 113.598, 107.930 
	L 112.323, 108.142 
	L 111.118, 108.568 
	L 109.984, 109.276 
	L 108.992, 110.127 
	L 108.283, 111.190 
	L 107.717, 112.394 
" />
<path d="M 107.717, 112.394 
	L 107.362, 113.670 
	L 107.291, 114.946 
	L 107.504, 116.221 
" />
<path d="M 107.505, 116.079 
	L 107.504, 116.079 
	L 113.457, 114.591 
" />
<path d="M 113.670, 114.236 
	L 113.669, 114.237 
	L 107.433, 115.796 
" />
<path d="M 107.363, 115.512 
	L 107.362, 115.513 
	L 113.882, 113.883 
" />
<path d="M 114.095, 113.528 
	L 114.095, 113.528 
	L 107.362, 115.229 
" />
<path d="M 107.292, 114.945 
	L 107.291, 114.946 
	L 114.307, 113.174 
" />
<path d="M 114.520, 112.819 
	L 114.520, 112.820 
	L 107.291, 114.662 
" />
<path d="M 107.292, 114.378 
	L 107.291, 114.379 
	L 114.732, 112.465 
" />
<path d="M 114.946, 112.110 
	L 114.945, 112.111 
	L 107.362, 114.024 
" />
<path d="M 107.363, 113.740 
	L 107.362, 113.741 
	L 115.157, 111.757 
" />
<path d="M 115.371, 111.402 
	L 115.370, 111.402 
	L 107.433, 113.457 
" />
<path d="M 107.505, 113.102 
	L 107.504, 113.103 
	L 115.583, 111.048 
" />
<path d="M 115.938, 110.976 
	L 115.937, 110.977 
	L 118.984, 110.198 
" />
<path d="M 118.772, 109.984 
	L 118.772, 109.985 
	L 107.575, 112.820 
" />
<path d="M 107.646, 112.465 
	L 107.646, 112.465 
	L 118.559, 109.702 
" />
<path d="M 118.276, 109.488 
	L 118.276, 109.489 
	L 107.787, 112.182 
" />
<path d="M 107.930, 111.827 
	L 107.929, 111.827 
	L 117.992, 109.276 
" />
<path d="M 117.709, 109.063 
	L 117.709, 109.064 
	L 108.071, 111.473 
" />
<path d="M 108.284, 111.118 
	L 108.283, 111.119 
	L 117.354, 108.851 
" />
<path d="M 117.001, 108.638 
	L 117.000, 108.639 
	L 108.496, 110.765 
" />
<path d="M 108.780, 110.409 
	L 108.780, 110.410 
	L 116.575, 108.426 
" />
<path d="M 116.079, 108.283 
	L 116.079, 108.284 
	L 109.134, 110.056 
" />
<path d="M 109.489, 109.630 
	L 109.488, 109.631 
	L 115.512, 108.142 
" />
<path d="M 114.875, 108.000 
	L 114.874, 108.001 
	L 110.055, 109.205 
" />
<path d="M 110.835, 108.709 
	L 110.835, 108.709 
	L 113.953, 107.930 
" />
<path d="M 114.379, 109.772 
	L 114.378, 109.772 
	L 113.315, 109.843 
	L 112.252, 110.056 
	L 111.331, 110.552 
	L 110.480, 111.261 
	L 109.843, 112.111 
	L 109.417, 113.103 
	L 109.134, 114.166 
	L 109.205, 115.300 
	L 109.488, 116.292 
" />
<path d="M 109.488, 116.292 
	L 109.984, 117.284 
	L 110.622, 118.135 
	L 111.543, 118.772 
	L 112.535, 119.198 
	L 113.598, 119.410 
	L 114.661, 119.410 
	L 115.724, 119.127 
	L 116.646, 118.631 
	L 117.496, 117.922 
	L 118.134, 117.072 
" />
<path d="M 118.134, 117.072 
	L 118.559, 116.079 
	L 118.843, 115.016 
	L 118.772, 113.953 
	L 118.488, 112.890 
	L 117.992, 111.898 
	L 117.354, 111.119 
	L 116.433, 110.481 
	L 115.441, 109.985 
	L 114.378, 109.772 
" />
<path d="M 116.221, 111.189 
	L 116.220, 111.190 
	L 119.197, 110.410 
" />
<path d="M 119.410, 110.693 
	L 119.409, 110.694 
	L 116.362, 111.473 
" />
<path d="M 116.221, 111.827 
	L 116.220, 111.827 
	L 119.551, 110.906 
" />
<path d="M 119.694, 111.189 
	L 119.693, 111.190 
	L 116.008, 112.111 
" />
<path d="M 115.796, 112.465 
	L 115.795, 112.465 
	L 119.835, 111.473 
" />
<path d="M 119.977, 111.685 
	L 119.976, 111.686 
	L 115.583, 112.820 
" />
<path d="M 115.371, 113.173 
	L 115.370, 113.174 
	L 120.118, 111.969 
" />
<path d="M 120.261, 112.252 
	L 120.260, 112.253 
	L 115.157, 113.528 
" />
<path d="M 114.946, 113.882 
	L 114.945, 113.883 
	L 120.331, 112.536 
" />
<path d="M 120.402, 112.819 
	L 120.402, 112.820 
	L 114.732, 114.237 
" />
<path d="M 120.615, 114.236 
	L 120.614, 114.237 
	L 107.929, 117.426 
" />
<path d="M 107.859, 117.213 
	L 107.858, 117.213 
	L 120.614, 113.953 
" />
<path d="M 120.686, 114.520 
	L 120.685, 114.520 
	L 108.071, 117.709 
" />
<path d="M 108.213, 117.992 
	L 108.213, 117.993 
	L 120.685, 114.804 
" />
<path d="M 120.615, 115.087 
	L 120.614, 115.087 
	L 108.354, 118.205 
" />
<path d="M 108.568, 118.488 
	L 108.567, 118.489 
	L 120.614, 115.371 
" />
<path d="M 120.544, 115.724 
	L 120.543, 115.725 
	L 108.709, 118.702 
" />
<path d="M 108.922, 118.984 
	L 108.921, 118.985 
	L 120.543, 116.009 
" />
<path d="M 120.402, 116.362 
	L 120.402, 116.363 
	L 109.134, 119.198 
" />
<path d="M 109.418, 119.409 
	L 109.417, 119.410 
	L 120.331, 116.646 
" />
<path d="M 120.261, 117.000 
	L 120.260, 117.001 
	L 109.630, 119.694 
" />
<path d="M 109.914, 119.906 
	L 109.913, 119.906 
	L 120.118, 117.284 
" />
<path d="M 119.906, 117.638 
	L 119.906, 117.639 
	L 110.197, 120.119 
" />
<path d="M 110.552, 120.331 
	L 110.551, 120.331 
	L 119.764, 117.993 
" />
<path d="M 119.552, 118.346 
	L 119.551, 118.347 
	L 110.906, 120.544 
" />
<path d="M 111.331, 120.756 
	L 111.331, 120.757 
	L 119.268, 118.702 
" />
<path d="M 118.914, 119.055 
	L 118.913, 119.056 
	L 111.756, 120.898 
" />
<path d="M 112.324, 121.039 
	L 112.323, 121.040 
	L 118.559, 119.481 
" />
<path d="M 118.064, 119.906 
	L 118.063, 119.906 
	L 112.961, 121.182 
" />
<path d="M 113.812, 121.252 
	L 113.811, 121.253 
	L 117.354, 120.402 
" />
<path d="M 117.001, 50.740 
	L 117.000, 50.741 
	L 111.685, 51.024 
" />
<path d="M 111.827, 51.024 
	L 111.827, 51.024 
	L 113.102, 51.379 
	L 114.378, 51.379 
	L 115.654, 51.166 
	L 116.929, 50.741 
	L 117.992, 50.032 
	L 118.984, 49.182 
	L 119.764, 48.119 
	L 120.260, 46.914 
	L 120.614, 45.639 
	L 120.614, 44.363 
" />
<path d="M 120.614, 44.363 
	L 120.472, 43.087 
	L 119.976, 41.812 
	L 119.339, 40.749 
	L 118.417, 39.757 
	L 117.354, 38.977 
	L 116.150, 38.410 
	L 114.874, 38.127 
	L 113.598, 38.056 
	L 112.323, 38.268 
	L 111.047, 38.764 
	L 109.984, 39.402 
" />
<path d="M 109.984, 39.402 
	L 108.992, 40.324 
	L 108.213, 41.387 
	L 107.717, 42.520 
	L 107.362, 43.796 
	L 107.362, 45.142 
	L 107.504, 46.418 
	L 108.000, 47.623 
	L 108.638, 48.757 
	L 109.559, 49.749 
	L 110.622, 50.528 
	L 111.827, 51.024 
" />
<path d="M 111.827, 51.024 
" />
<path d="M 112.536, 51.236 
	L 112.535, 51.237 
	L 116.220, 51.024 
" />
<path d="M 117.568, 50.386 
	L 117.567, 50.387 
	L 111.118, 50.741 
" />
<path d="M 110.623, 50.528 
	L 110.622, 50.528 
	L 117.992, 50.103 
" />
<path d="M 118.347, 49.748 
	L 118.346, 49.749 
	L 110.197, 50.245 
" />
<path d="M 109.843, 49.961 
	L 109.843, 49.961 
	L 118.701, 49.465 
" />
<path d="M 118.985, 49.181 
	L 118.984, 49.182 
	L 109.559, 49.678 
" />
<path d="M 109.276, 49.465 
	L 109.276, 49.465 
	L 119.268, 48.827 
" />
<path d="M 119.481, 48.543 
	L 119.480, 48.544 
	L 108.992, 49.182 
" />
<path d="M 108.780, 48.898 
	L 108.780, 48.898 
	L 119.693, 48.261 
" />
<path d="M 119.835, 47.976 
	L 119.835, 47.977 
	L 108.567, 48.615 
" />
<path d="M 108.355, 48.331 
	L 108.354, 48.331 
	L 119.976, 47.694 
" />
<path d="M 120.119, 47.339 
	L 120.118, 47.339 
	L 108.213, 48.048 
" />
<path d="M 108.072, 47.764 
	L 108.071, 47.764 
	L 120.260, 47.056 
" />
<path d="M 120.331, 46.772 
	L 120.331, 46.772 
	L 107.929, 47.481 
" />
<path d="M 107.788, 47.197 
	L 107.787, 47.198 
	L 120.402, 46.489 
" />
<path d="M 120.473, 46.205 
	L 120.472, 46.205 
	L 107.717, 46.914 
" />
<path d="M 107.576, 46.630 
	L 107.575, 46.631 
	L 120.543, 45.922 
" />
<path d="M 120.615, 45.638 
	L 120.614, 45.639 
	L 107.504, 46.347 
" />
<path d="M 107.434, 46.063 
	L 107.433, 46.064 
	L 120.614, 45.355 
" />
<path d="M 120.686, 45.071 
	L 120.685, 45.072 
	L 114.024, 45.426 
	L 116.787, 42.308 
	L 116.929, 41.953 
	L 116.787, 41.670 
	L 116.717, 41.599 
	L 116.433, 41.528 
	L 116.150, 41.670 
	L 113.315, 44.788 
	L 113.173, 45.142 
	L 113.315, 45.426 
" />
<path d="M 113.315, 45.426 
	L 113.386, 45.426 
	L 113.740, 45.568 
	L 114.024, 45.426 
" />
<path d="M 114.237, 45.142 
	L 114.236, 45.142 
	L 120.685, 44.788 
" />
<path d="M 120.686, 44.433 
	L 120.685, 44.434 
	L 114.520, 44.859 
" />
<path d="M 114.024, 44.717 
	L 114.024, 44.717 
	L 114.661, 51.804 
" />
<path d="M 112.961, 51.945 
	L 112.961, 51.946 
	L 113.598, 45.072 
" />
<path d="M 113.245, 44.929 
	L 113.244, 44.930 
	L 107.362, 45.213 
" />
<path d="M 107.363, 45.496 
	L 107.362, 45.497 
	L 113.244, 45.213 
" />
<path d="M 113.387, 45.496 
	L 113.386, 45.497 
	L 107.433, 45.780 
" />
<path d="M 107.292, 44.929 
	L 107.291, 44.930 
	L 113.528, 44.576 
" />
<path d="M 113.741, 44.291 
	L 113.740, 44.292 
	L 107.291, 44.646 
" />
<path d="M 107.292, 44.362 
	L 107.291, 44.363 
	L 114.024, 44.009 
" />
<path d="M 114.308, 43.654 
	L 114.307, 43.654 
	L 107.362, 44.079 
" />
<path d="M 107.363, 43.795 
	L 107.362, 43.796 
	L 114.591, 43.371 
" />
<path d="M 114.875, 43.087 
	L 114.874, 43.087 
	L 107.433, 43.513 
" />
<path d="M 107.505, 43.228 
	L 107.504, 43.229 
	L 115.087, 42.804 
" />
<path d="M 115.371, 42.449 
	L 115.370, 42.450 
	L 107.575, 42.946 
" />
<path d="M 107.646, 42.661 
	L 107.646, 42.662 
	L 115.654, 42.166 
" />
<path d="M 115.938, 41.882 
	L 115.937, 41.883 
	L 107.787, 42.379 
" />
<path d="M 107.859, 42.024 
	L 107.858, 42.024 
	L 116.220, 41.599 
" />
<path d="M 116.576, 41.528 
	L 116.575, 41.528 
	L 119.764, 41.387 
" />
<path d="M 119.906, 41.669 
	L 119.906, 41.670 
	L 116.858, 41.812 
" />
<path d="M 116.859, 42.094 
	L 116.858, 42.095 
	L 120.047, 41.953 
" />
<path d="M 120.190, 42.165 
	L 120.189, 42.166 
	L 116.717, 42.379 
" />
<path d="M 116.434, 42.732 
	L 116.433, 42.733 
	L 120.260, 42.450 
" />
<path d="M 120.331, 42.732 
	L 120.331, 42.733 
	L 116.150, 43.016 
" />
<path d="M 115.867, 43.299 
	L 115.866, 43.300 
	L 120.472, 43.016 
" />
<path d="M 120.544, 43.299 
	L 120.543, 43.300 
	L 115.583, 43.583 
" />
<path d="M 115.371, 43.937 
	L 115.370, 43.938 
	L 120.543, 43.583 
" />
<path d="M 120.615, 43.866 
	L 120.614, 43.867 
	L 115.087, 44.221 
" />
<path d="M 114.804, 44.504 
	L 114.803, 44.505 
	L 120.614, 44.150 
" />
<path d="M 118.772, 43.937 
	L 118.772, 43.938 
	L 118.488, 42.875 
	L 117.921, 41.953 
	L 117.213, 41.103 
	L 116.291, 40.536 
	L 115.299, 40.111 
	L 114.236, 39.898 
	L 113.173, 39.969 
	L 112.110, 40.253 
	L 111.189, 40.820 
	L 110.339, 41.528 
" />
<path d="M 110.339, 41.528 
	L 109.772, 42.379 
	L 109.346, 43.442 
	L 109.134, 44.505 
	L 109.205, 45.568 
	L 109.488, 46.631 
	L 110.055, 47.552 
	L 110.764, 48.331 
	L 111.685, 48.969 
	L 112.677, 49.394 
	L 113.740, 49.607 
	L 114.803, 49.536 
" />
<path d="M 114.803, 49.536 
	L 115.866, 49.182 
	L 116.787, 48.686 
	L 117.638, 47.977 
	L 118.205, 47.056 
	L 118.630, 46.064 
	L 118.843, 45.001 
	L 118.772, 43.938 
" />
<path d="M 119.552, 41.102 
	L 119.551, 41.103 
	L 108.000, 41.741 
" />
<path d="M 108.213, 41.457 
	L 108.213, 41.457 
	L 119.409, 40.820 
" />
<path d="M 119.198, 40.535 
	L 119.197, 40.536 
	L 108.354, 41.174 
" />
<path d="M 108.568, 40.890 
	L 108.567, 40.890 
	L 118.913, 40.253 
" />
<path d="M 118.702, 39.969 
	L 118.701, 39.969 
	L 108.780, 40.536 
" />
<path d="M 109.064, 40.252 
	L 109.063, 40.253 
	L 118.346, 39.757 
" />
<path d="M 118.064, 39.472 
	L 118.063, 39.473 
	L 109.346, 39.969 
" />
<path d="M 109.702, 39.685 
	L 109.701, 39.686 
	L 117.709, 39.190 
" />
<path d="M 117.284, 38.906 
	L 117.283, 38.906 
	L 110.055, 39.331 
" />
<path d="M 110.552, 39.047 
	L 110.551, 39.048 
	L 116.717, 38.694 
" />
<path d="M 116.079, 38.409 
	L 116.079, 38.410 
	L 111.118, 38.694 
" />
<path d="M 112.040, 38.339 
	L 112.039, 38.339 
	L 115.228, 38.198 
" />
<path d="M 113.953, 30.756 
	L 113.953, 30.757 
	L 109.134, 30.898 
	L 104.244, 31.324 
	L 99.425, 32.032 
	L 94.677, 33.024 
	L 89.929, 34.300 
	L 85.323, 35.859 
	L 80.787, 37.631 
	L 76.323, 39.686 
	L 72.071, 42.024 
	L 67.890, 44.576 
" />
<path d="M 67.890, 44.576 
	L 63.921, 47.339 
	L 60.094, 50.387 
	L 56.480, 53.646 
	L 53.008, 57.048 
	L 49.748, 60.733 
	L 46.701, 64.560 
	L 43.937, 68.528 
	L 41.386, 72.709 
	L 39.047, 76.961 
	L 36.992, 81.426 
	L 35.220, 85.961 
" />
<path d="M 35.220, 85.961 
	L 33.661, 90.568 
	L 32.386, 95.245 
	L 31.394, 100.064 
	L 30.685, 104.883 
	L 30.260, 109.702 
	L 30.118, 114.591 
	L 30.260, 119.481 
	L 30.685, 124.371 
	L 31.394, 129.190 
	L 32.386, 133.938 
	L 33.661, 138.686 
" />
<path d="M 33.661, 138.686 
	L 35.220, 143.292 
	L 36.992, 147.828 
	L 39.047, 152.221 
	L 41.386, 156.544 
	L 43.937, 160.654 
	L 46.701, 164.694 
	L 49.748, 168.520 
	L 53.008, 172.135 
	L 56.480, 175.607 
	L 60.094, 178.796 
	L 63.921, 181.843 
" />
<path d="M 63.921, 181.843 
	L 67.890, 184.678 
	L 72.071, 187.229 
	L 76.323, 189.497 
	L 80.787, 191.552 
	L 85.323, 193.394 
	L 89.929, 194.953 
	L 94.677, 196.158 
	L 99.425, 197.150 
	L 104.244, 197.859 
	L 109.134, 198.284 
	L 114.024, 198.426 
" />
<path d="M 114.024, 198.426 
	L 118.843, 198.284 
	L 123.732, 197.859 
	L 128.551, 197.150 
	L 133.299, 196.158 
	L 138.047, 194.953 
	L 142.654, 193.394 
	L 147.189, 191.552 
	L 151.654, 189.497 
	L 155.906, 187.229 
	L 160.087, 184.678 
" />
<path d="M 160.087, 184.678 
	L 164.055, 181.843 
	L 167.882, 178.796 
	L 171.496, 175.607 
	L 174.969, 172.135 
	L 178.228, 168.520 
	L 181.276, 164.694 
	L 184.039, 160.654 
	L 186.591, 156.544 
	L 188.929, 152.221 
	L 190.984, 147.828 
" />
<path d="M 190.984, 147.828 
	L 192.756, 143.292 
	L 194.315, 138.686 
	L 195.591, 133.938 
	L 196.583, 129.190 
	L 197.291, 124.371 
	L 197.717, 119.481 
	L 197.858, 114.591 
	L 197.717, 109.702 
	L 197.291, 104.883 
	L 196.583, 100.064 
" />
<path d="M 196.583, 100.064 
	L 195.591, 95.245 
	L 194.315, 90.568 
	L 192.756, 85.961 
	L 190.984, 81.426 
	L 188.929, 76.961 
	L 186.591, 72.709 
	L 184.039, 68.528 
	L 181.276, 64.560 
	L 178.228, 60.733 
	L 174.969, 57.048 
	L 171.496, 53.646 
" />
<path d="M 171.496, 53.646 
	L 167.882, 50.387 
	L 164.055, 47.339 
	L 160.087, 44.576 
	L 155.906, 42.024 
	L 151.654, 39.686 
	L 147.189, 37.631 
	L 142.654, 35.859 
	L 138.047, 34.300 
	L 133.299, 33.024 
	L 128.551, 32.032 
	L 123.732, 31.324 
" />
<path d="M 123.732, 31.324 
	L 118.843, 30.898 
	L 113.953, 30.757 
" />
<path d="M 115.087, 56.055 
	L 115.087, 56.056 
	L 115.866, 64.631 
" />
<path d="M 111.827, 64.772 
	L 111.827, 64.772 
	L 112.606, 56.198 
" />
<path d="M 113.953, 58.748 
	L 113.953, 58.749 
	L 109.984, 58.890 
	L 106.016, 59.316 
	L 102.118, 60.024 
	L 98.220, 60.946 
	L 94.465, 62.221 
	L 90.780, 63.780 
	L 87.165, 65.552 
	L 83.764, 67.607 
	L 80.504, 69.875 
	L 77.386, 72.355 
" />
<path d="M 77.386, 72.355 
	L 74.480, 75.119 
	L 71.717, 78.024 
	L 69.236, 81.142 
	L 66.969, 84.402 
	L 64.913, 87.804 
	L 63.142, 91.418 
	L 61.583, 95.103 
	L 60.378, 98.859 
	L 59.386, 102.757 
	L 58.677, 106.654 
	L 58.252, 110.623 
" />
<path d="M 58.252, 110.623 
	L 58.110, 114.591 
	L 58.252, 118.560 
	L 58.677, 122.528 
	L 59.386, 126.497 
	L 60.378, 130.324 
	L 61.583, 134.150 
	L 63.142, 137.835 
	L 64.913, 141.379 
	L 66.969, 144.851 
	L 69.236, 148.111 
	L 71.717, 151.229 
" />
<path d="M 71.717, 151.229 
	L 74.480, 154.135 
	L 77.386, 156.828 
	L 80.504, 159.379 
	L 83.764, 161.646 
	L 87.165, 163.631 
	L 90.780, 165.473 
	L 94.465, 166.961 
	L 98.220, 168.237 
	L 102.118, 169.229 
	L 106.016, 169.938 
	L 109.984, 170.363 
" />
<path d="M 109.984, 170.363 
	L 114.024, 170.505 
	L 117.992, 170.363 
	L 121.961, 169.938 
	L 125.858, 169.229 
	L 129.756, 168.237 
	L 133.512, 166.961 
	L 137.197, 165.473 
	L 140.811, 163.631 
	L 144.213, 161.646 
	L 147.472, 159.379 
" />
<path d="M 147.472, 159.379 
	L 150.591, 156.828 
	L 153.496, 154.135 
	L 156.260, 151.229 
	L 158.740, 148.111 
	L 161.008, 144.851 
	L 163.063, 141.379 
	L 164.835, 137.835 
	L 166.394, 134.150 
	L 167.598, 130.324 
	L 168.591, 126.497 
" />
<path d="M 168.591, 126.497 
	L 169.299, 122.528 
	L 169.724, 118.560 
	L 169.866, 114.591 
	L 169.724, 110.623 
	L 169.299, 106.654 
	L 168.591, 102.757 
	L 167.598, 98.859 
	L 166.394, 95.103 
	L 164.835, 91.418 
	L 163.063, 87.804 
" />
<path d="M 163.063, 87.804 
	L 161.008, 84.402 
	L 158.740, 81.142 
	L 156.260, 78.024 
	L 153.496, 75.119 
	L 150.591, 72.355 
	L 147.472, 69.875 
	L 144.213, 67.607 
	L 140.811, 65.552 
	L 137.197, 63.780 
	L 133.512, 62.221 
	L 129.756, 60.946 
" />
<path d="M 129.756, 60.946 
	L 125.858, 60.024 
	L 121.961, 59.316 
	L 117.992, 58.890 
	L 113.953, 58.749 
" />
<path d="M 116.292, 68.882 
	L 116.291, 68.883 
	L 117.142, 77.457 
" />
<path d="M 117.497, 81.709 
	L 117.496, 81.709 
	L 118.346, 90.284 
" />
<path d="M 119.410, 87.165 
	L 119.409, 87.166 
	L 116.717, 86.812 
	L 114.024, 86.670 
	L 111.260, 86.812 
	L 108.567, 87.166 
	L 105.874, 87.875 
	L 103.323, 88.796 
	L 100.843, 89.930 
	L 98.433, 91.347 
	L 96.236, 92.977 
	L 94.252, 94.820 
" />
<path d="M 94.252, 94.820 
	L 92.409, 96.875 
	L 90.780, 99.072 
	L 89.362, 101.410 
	L 88.157, 103.890 
	L 87.236, 106.513 
	L 86.598, 109.135 
	L 86.173, 111.898 
	L 86.032, 114.591 
	L 86.173, 117.355 
	L 86.598, 120.048 
	L 87.236, 122.741 
" />
<path d="M 87.236, 122.741 
	L 88.157, 125.292 
	L 89.362, 127.772 
	L 90.780, 130.111 
	L 92.409, 132.308 
	L 94.252, 134.363 
	L 96.236, 136.205 
	L 98.433, 137.835 
	L 100.843, 139.253 
	L 103.323, 140.457 
	L 105.874, 141.379 
	L 108.567, 142.016 
" />
<path d="M 108.567, 142.016 
	L 111.260, 142.442 
	L 113.953, 142.583 
	L 116.717, 142.442 
	L 119.409, 142.016 
	L 122.102, 141.379 
	L 124.654, 140.457 
	L 127.134, 139.253 
	L 129.543, 137.835 
	L 131.740, 136.205 
	L 133.724, 134.363 
" />
<path d="M 133.724, 134.363 
	L 135.567, 132.308 
	L 137.197, 130.111 
	L 138.614, 127.772 
	L 139.819, 125.292 
	L 140.740, 122.741 
	L 141.378, 120.048 
	L 141.803, 117.355 
	L 141.945, 114.591 
	L 141.803, 111.898 
	L 141.378, 109.135 
" />
<path d="M 141.378, 109.135 
	L 140.740, 106.513 
	L 139.819, 103.890 
	L 138.614, 101.410 
	L 137.197, 99.072 
	L 135.567, 96.875 
	L 133.724, 94.820 
	L 131.740, 92.977 
	L 129.543, 91.347 
	L 127.134, 89.930 
	L 124.654, 88.796 
" />
<path d="M 124.654, 88.796 
	L 122.102, 87.875 
	L 119.409, 87.166 
" />
<path d="M 118.772, 94.535 
	L 118.772, 94.536 
	L 119.551, 103.111 
" />
<path d="M 119.977, 107.362 
	L 119.976, 107.363 
	L 120.685, 114.450 
" />
<path d="M 120.969, 114.591 
	L 120.969, 114.591 
	L 120.827, 113.245 
	L 120.472, 111.898 
	L 119.764, 110.694 
	L 118.913, 109.702 
	L 117.850, 108.780 
	L 116.646, 108.142 
	L 115.370, 107.788 
	L 114.024, 107.646 
	L 112.606, 107.788 
" />
<path d="M 112.606, 107.788 
	L 111.331, 108.142 
	L 110.126, 108.780 
	L 109.063, 109.702 
	L 108.213, 110.694 
	L 107.504, 111.898 
	L 107.150, 113.245 
	L 107.008, 114.591 
	L 107.150, 115.938 
	L 107.504, 117.284 
	L 108.213, 118.489 
" />
<path d="M 108.213, 118.489 
	L 109.063, 119.552 
	L 110.126, 120.402 
	L 111.331, 121.040 
	L 112.606, 121.465 
	L 113.953, 121.607 
	L 115.370, 121.465 
	L 116.646, 121.040 
	L 117.850, 120.402 
	L 118.913, 119.552 
	L 119.764, 118.489 
" />
<path d="M 119.764, 118.489 
	L 120.472, 117.284 
	L 120.827, 115.938 
	L 120.969, 114.591 
" />
<path d="M 107.292, 114.449 
	L 107.291, 114.450 
	L 107.929, 107.576 
" />
<path d="M 108.355, 103.323 
	L 108.354, 103.324 
	L 109.134, 94.749 
" />
<path d="M 109.489, 90.496 
	L 109.488, 90.497 
	L 110.268, 81.922 
" />
<path d="M 110.694, 77.598 
	L 110.693, 77.599 
	L 111.472, 69.095 
" />
<path d="M 114.024, 0.000 
	L 114.024, 0.001 
	L 114.024, 206.292 
" />
<path d="M 218.835, 206.291 
	L 218.835, 206.292 
	L 218.835, 0.001 
" />
<path d="M 227.977, 114.591 
	L 227.976, 114.591 
	L 0.000, 114.591 
" />
<path d="M 0.001, 198.425 
	L 0.000, 198.426 
	L 227.976, 198.426 
" />
<path d="M 9.142, 206.291 
	L 9.142, 206.292 
	L 9.142, 0.001 
" />
</g><g style="stroke:rgb(255,255,255); fill:none; stroke-width:0.100mm" >
</g>
</svg>
