<?xml version="1.0" encoding="UTF-8" standalone="no" ?>
<svg width="100%" height="100%" viewBox="0 0 227.977 224.646" xmlns="http://www.w3.org/2000/svg"><g>
</g><g style="stroke:rgb(0,0,0); fill:none; stroke-width:1.000mm" >
</g><g style="stroke:rgb(0,0,0); fill:none; stroke-width:0.100mm" >
<path d="M 113.741, 133.370 
	L 113.740, 133.371 
	L 118.205, 131.387 
" />
<path d="M 119.906, 130.819 
	L 119.906, 130.820 
	L 119.268, 129.686 
	L 118.417, 128.694 
	L 117.425, 127.843 
	L 116.291, 127.205 
	L 115.016, 126.851 
	L 113.740, 126.709 
	L 112.394, 126.851 
	L 111.189, 127.205 
	L 109.984, 127.843 
" />
<path d="M 109.984, 127.843 
	L 108.992, 128.694 
	L 108.142, 129.686 
	L 107.575, 130.820 
	L 107.150, 132.095 
	L 107.079, 133.371 
	L 107.150, 134.717 
	L 107.575, 135.922 
	L 108.142, 137.056 
	L 108.992, 138.119 
	L 109.984, 138.898 
" />
<path d="M 109.984, 138.898 
	L 111.189, 139.536 
	L 112.394, 139.961 
	L 113.740, 140.032 
	L 115.016, 139.961 
	L 116.291, 139.536 
	L 117.425, 138.898 
	L 118.417, 138.119 
	L 119.268, 137.056 
	L 119.906, 135.922 
	L 120.260, 134.717 
" />
<path d="M 120.260, 134.717 
	L 120.402, 133.371 
	L 120.260, 132.095 
	L 119.906, 130.820 
" />
<path d="M 120.898, 130.252 
	L 120.898, 130.253 
	L 126.142, 127.985 
" />
<path d="M 128.765, 126.850 
	L 128.764, 126.851 
	L 134.008, 124.513 
" />
<path d="M 136.631, 123.378 
	L 136.630, 123.379 
	L 141.874, 121.111 
" />
<path d="M 140.953, 121.323 
	L 140.953, 121.324 
	L 141.591, 122.528 
	L 142.370, 123.520 
	L 143.433, 124.371 
	L 144.567, 124.938 
	L 145.843, 125.363 
	L 147.118, 125.434 
	L 148.394, 125.363 
	L 149.669, 124.938 
	L 150.803, 124.371 
" />
<path d="M 150.803, 124.371 
	L 151.866, 123.520 
	L 152.646, 122.528 
	L 153.283, 121.324 
	L 153.638, 120.119 
	L 153.780, 118.772 
	L 153.638, 117.497 
	L 153.283, 116.221 
	L 152.646, 115.087 
	L 151.866, 114.095 
	L 150.803, 113.245 
" />
<path d="M 150.803, 113.245 
	L 149.669, 112.607 
	L 148.394, 112.253 
	L 147.118, 112.111 
	L 145.843, 112.253 
	L 144.567, 112.607 
	L 143.433, 113.245 
	L 142.370, 114.095 
	L 141.591, 115.087 
	L 140.953, 116.221 
	L 140.598, 117.497 
" />
<path d="M 140.598, 117.497 
	L 140.457, 118.772 
	L 140.598, 120.119 
	L 140.953, 121.324 
" />
<path d="M 144.497, 119.906 
	L 144.496, 119.906 
	L 149.740, 117.639 
" />
<path d="M 147.828, 118.772 
	L 147.827, 118.772 
	L 146.976, 112.111 
" />
<path d="M 147.261, 112.110 
	L 147.260, 112.111 
	L 148.890, 125.221 
" />
<path d="M 149.174, 125.150 
	L 149.173, 125.150 
	L 147.543, 112.111 
" />
<path d="M 147.898, 112.181 
	L 147.898, 112.182 
	L 149.457, 125.009 
" />
<path d="M 149.741, 124.937 
	L 149.740, 124.938 
	L 148.181, 112.182 
" />
<path d="M 148.465, 112.252 
	L 148.465, 112.253 
	L 150.024, 124.796 
" />
<path d="M 150.237, 124.654 
	L 150.236, 124.654 
	L 148.748, 112.324 
" />
<path d="M 149.032, 112.394 
	L 149.032, 112.394 
	L 150.520, 124.513 
" />
<path d="M 150.804, 124.370 
	L 150.803, 124.371 
	L 149.386, 112.465 
" />
<path d="M 149.670, 112.606 
	L 149.669, 112.607 
	L 151.087, 124.158 
" />
<path d="M 151.300, 123.945 
	L 151.299, 123.946 
	L 149.953, 112.749 
" />
<path d="M 150.237, 112.890 
	L 150.236, 112.890 
	L 151.583, 123.733 
" />
<path d="M 151.867, 123.520 
	L 151.866, 123.520 
	L 150.591, 113.103 
" />
<path d="M 150.875, 113.315 
	L 150.874, 113.316 
	L 152.079, 123.237 
" />
<path d="M 152.363, 122.953 
	L 152.362, 122.953 
	L 151.228, 113.528 
" />
<path d="M 151.513, 113.811 
	L 151.512, 113.812 
	L 152.575, 122.599 
" />
<path d="M 152.859, 122.173 
	L 152.858, 122.174 
	L 151.866, 114.095 
" />
<path d="M 152.221, 114.449 
	L 152.220, 114.450 
	L 153.071, 121.749 
" />
<path d="M 153.284, 121.252 
	L 153.283, 121.253 
	L 152.504, 114.875 
" />
<path d="M 152.859, 115.441 
	L 152.858, 115.442 
	L 153.496, 120.686 
" />
<path d="M 153.709, 119.835 
	L 153.709, 119.835 
	L 153.283, 116.221 
" />
<path d="M 152.363, 116.504 
	L 152.362, 116.505 
	L 157.606, 114.166 
" />
<path d="M 160.229, 113.032 
	L 160.228, 113.032 
	L 165.472, 110.765 
" />
<path d="M 168.095, 109.630 
	L 168.095, 109.631 
	L 173.409, 107.292 
" />
<path d="M 174.331, 106.724 
	L 174.331, 106.725 
	L 174.969, 107.930 
	L 175.819, 108.922 
	L 176.811, 109.772 
	L 177.945, 110.339 
	L 179.221, 110.765 
	L 180.496, 110.835 
	L 181.843, 110.765 
	L 183.047, 110.339 
	L 184.252, 109.772 
" />
<path d="M 184.252, 109.772 
	L 185.244, 108.922 
	L 186.095, 107.930 
	L 186.661, 106.725 
	L 187.087, 105.520 
	L 187.228, 104.174 
	L 187.087, 102.898 
	L 186.661, 101.623 
	L 186.095, 100.489 
	L 185.244, 99.497 
	L 184.252, 98.646 
" />
<path d="M 184.252, 98.646 
	L 183.047, 98.009 
	L 181.843, 97.654 
	L 180.496, 97.513 
	L 179.221, 97.654 
	L 177.945, 98.009 
	L 176.811, 98.646 
	L 175.819, 99.497 
	L 174.969, 100.489 
	L 174.331, 101.623 
	L 173.976, 102.898 
	L 173.835, 104.174 
" />
<path d="M 173.835, 104.174 
	L 173.976, 105.520 
	L 174.331, 106.725 
" />
<path d="M 176.032, 106.157 
	L 176.032, 106.158 
	L 180.496, 104.174 
" />
<path d="M 182.268, 94.890 
	L 182.268, 94.890 
	L 117.496, 138.898 
" />
<path d="M 118.418, 138.118 
	L 118.417, 138.119 
	L 147.118, 109.347 
" />
<path d="M 146.694, 112.110 
	L 146.693, 112.111 
	L 147.472, 118.489 
" />
<path d="M 147.190, 118.276 
	L 147.189, 118.276 
	L 146.409, 112.182 
" />
<path d="M 146.339, 112.181 
	L 146.339, 112.182 
	L 145.063, 112.465 
	L 143.858, 112.961 
	L 142.795, 113.741 
	L 141.874, 114.662 
	L 141.165, 115.796 
	L 140.669, 117.001 
	L 140.457, 118.276 
	L 140.528, 119.623 
	L 140.811, 120.898 
" />
<path d="M 140.811, 120.898 
	L 141.307, 122.103 
	L 142.087, 123.166 
	L 143.008, 124.016 
	L 144.142, 124.725 
	L 145.346, 125.221 
	L 146.622, 125.434 
	L 147.969, 125.434 
	L 149.244, 125.150 
	L 150.378, 124.583 
	L 151.441, 123.875 
" />
<path d="M 151.441, 123.875 
	L 152.362, 122.883 
	L 153.071, 121.820 
	L 153.567, 120.544 
	L 153.780, 119.268 
	L 153.780, 117.993 
	L 153.425, 116.717 
	L 152.929, 115.513 
	L 152.150, 114.450 
	L 151.228, 113.528 
	L 150.095, 112.820 
" />
<path d="M 150.095, 112.820 
	L 148.890, 112.324 
	L 147.614, 112.111 
	L 146.339, 112.182 
" />
<path d="M 146.127, 112.181 
	L 146.126, 112.182 
	L 146.835, 117.993 
" />
<path d="M 146.552, 117.709 
	L 146.551, 117.709 
	L 145.843, 112.253 
" />
<path d="M 145.560, 112.323 
	L 145.559, 112.324 
	L 146.197, 117.497 
" />
<path d="M 145.914, 117.213 
	L 145.913, 117.213 
	L 145.276, 112.394 
" />
<path d="M 144.993, 112.465 
	L 144.992, 112.465 
	L 145.559, 117.001 
" />
<path d="M 145.276, 116.717 
	L 145.276, 116.717 
	L 144.709, 112.536 
" />
<path d="M 144.497, 112.677 
	L 144.496, 112.678 
	L 144.921, 116.505 
" />
<path d="M 144.639, 116.220 
	L 144.638, 116.221 
	L 144.213, 112.820 
" />
<path d="M 143.930, 112.961 
	L 143.929, 112.961 
	L 144.283, 116.079 
" />
<path d="M 144.142, 116.079 
	L 144.142, 116.079 
	L 143.929, 116.221 
	L 143.858, 116.292 
	L 143.787, 116.576 
	L 143.929, 116.859 
	L 147.260, 119.481 
	L 147.543, 119.552 
	L 147.827, 119.410 
	L 147.898, 119.339 
	L 148.606, 125.292 
" />
<path d="M 148.606, 125.292 
" />
<path d="M 148.324, 125.362 
	L 148.323, 125.363 
	L 147.614, 119.552 
" />
<path d="M 147.331, 119.480 
	L 147.331, 119.481 
	L 148.039, 125.363 
" />
<path d="M 147.757, 125.433 
	L 147.756, 125.434 
	L 146.976, 119.268 
" />
<path d="M 146.694, 119.055 
	L 146.693, 119.056 
	L 147.472, 125.434 
" />
<path d="M 147.190, 125.433 
	L 147.189, 125.434 
	L 146.339, 118.772 
" />
<path d="M 146.056, 118.559 
	L 146.055, 118.560 
	L 146.906, 125.434 
" />
<path d="M 146.623, 125.433 
	L 146.622, 125.434 
	L 145.701, 118.276 
" />
<path d="M 145.418, 118.063 
	L 145.417, 118.064 
	L 146.339, 125.434 
" />
<path d="M 146.056, 125.362 
	L 146.055, 125.363 
	L 145.063, 117.780 
" />
<path d="M 144.780, 117.567 
	L 144.780, 117.568 
	L 145.701, 125.292 
" />
<path d="M 145.418, 125.220 
	L 145.417, 125.221 
	L 144.425, 117.284 
" />
<path d="M 144.142, 117.000 
	L 144.142, 117.001 
	L 145.134, 125.150 
" />
<path d="M 144.851, 125.079 
	L 144.850, 125.079 
	L 143.787, 116.717 
" />
<path d="M 143.788, 116.433 
	L 143.787, 116.434 
	L 143.362, 113.245 
" />
<path d="M 143.150, 113.457 
	L 143.150, 113.457 
	L 144.496, 124.938 
" />
<path d="M 144.213, 124.795 
	L 144.213, 124.796 
	L 142.866, 113.670 
" />
<path d="M 142.583, 113.882 
	L 142.583, 113.883 
	L 143.929, 124.654 
" />
<path d="M 143.576, 124.441 
	L 143.575, 124.442 
	L 142.370, 114.166 
" />
<path d="M 142.087, 114.449 
	L 142.087, 114.450 
	L 143.291, 124.229 
" />
<path d="M 142.938, 124.016 
	L 142.937, 124.016 
	L 141.803, 114.733 
" />
<path d="M 141.591, 115.087 
	L 141.591, 115.087 
	L 142.654, 123.733 
" />
<path d="M 142.300, 123.449 
	L 142.299, 123.450 
	L 141.307, 115.442 
" />
<path d="M 141.095, 115.866 
	L 141.095, 115.867 
	L 142.016, 123.024 
" />
<path d="M 141.662, 122.598 
	L 141.661, 122.599 
	L 140.882, 116.434 
" />
<path d="M 140.670, 117.071 
	L 140.669, 117.072 
	L 141.307, 122.032 
" />
<path d="M 140.883, 121.181 
	L 140.882, 121.182 
	L 140.528, 117.993 
" />
<path d="M 142.371, 117.780 
	L 142.370, 117.780 
	L 142.299, 118.843 
	L 142.441, 119.906 
	L 142.795, 120.898 
	L 143.362, 121.820 
	L 144.142, 122.599 
	L 145.063, 123.166 
	L 146.126, 123.520 
	L 147.189, 123.591 
	L 148.252, 123.520 
" />
<path d="M 148.252, 123.520 
	L 149.244, 123.095 
	L 150.165, 122.528 
	L 150.945, 121.749 
	L 151.512, 120.827 
	L 151.866, 119.835 
	L 151.937, 118.772 
	L 151.795, 117.639 
	L 151.441, 116.646 
	L 150.874, 115.725 
	L 150.095, 114.946 
" />
<path d="M 150.095, 114.946 
	L 149.173, 114.379 
	L 148.181, 114.095 
	L 147.047, 113.953 
	L 145.984, 114.095 
	L 144.992, 114.450 
	L 144.071, 115.016 
	L 143.291, 115.796 
	L 142.724, 116.717 
	L 142.370, 117.780 
" />
<path d="M 144.001, 116.079 
	L 144.000, 116.079 
	L 143.646, 113.103 
" />
<path d="M 144.142, 116.079 
	L 144.142, 116.079 
	L 144.496, 116.150 
	L 147.827, 118.772 
	L 147.969, 118.985 
	L 147.898, 119.339 
" />
<path d="M 156.544, 118.772 
	L 156.543, 118.772 
	L 137.693, 99.922 
" />
<path d="M 137.694, 102.189 
	L 137.693, 102.190 
	L 137.693, 96.450 
" />
<path d="M 137.694, 93.614 
	L 137.693, 93.615 
	L 137.693, 87.875 
" />
<path d="M 137.694, 85.039 
	L 137.693, 85.040 
	L 137.693, 79.300 
" />
<path d="M 137.694, 76.394 
	L 137.693, 76.394 
	L 137.693, 70.654 
" />
<path d="M 137.694, 67.819 
	L 137.693, 67.820 
	L 137.693, 62.079 
" />
<path d="M 137.694, 59.244 
	L 137.693, 59.245 
	L 137.693, 53.505 
" />
<path d="M 137.694, 50.598 
	L 137.693, 50.599 
	L 137.693, 44.930 
" />
<path d="M 137.694, 42.024 
	L 137.693, 42.024 
	L 137.693, 36.284 
" />
<path d="M 137.694, 33.449 
	L 137.693, 33.450 
	L 137.693, 27.709 
" />
<path d="M 137.694, 24.874 
	L 137.693, 24.875 
	L 137.693, 20.552 
" />
<path d="M 173.056, 20.551 
	L 173.055, 20.552 
	L 173.055, 25.300 
" />
<path d="M 173.056, 28.205 
	L 173.055, 28.205 
	L 173.055, 33.946 
" />
<path d="M 173.056, 36.780 
	L 173.055, 36.780 
	L 173.055, 42.520 
" />
<path d="M 173.056, 45.354 
	L 173.055, 45.355 
	L 173.055, 51.095 
" />
<path d="M 173.056, 54.000 
	L 173.055, 54.001 
	L 173.055, 59.741 
" />
<path d="M 173.056, 62.575 
	L 173.055, 62.576 
	L 173.055, 68.316 
" />
<path d="M 173.056, 71.150 
	L 173.055, 71.150 
	L 173.055, 76.890 
" />
<path d="M 173.056, 79.795 
	L 173.055, 79.796 
	L 173.055, 85.536 
" />
<path d="M 173.056, 88.370 
	L 173.055, 88.371 
	L 173.055, 93.119 
" />
<path d="M 174.828, 83.906 
	L 174.827, 83.906 
	L 189.780, 105.946 
" />
<path d="M 137.694, 105.095 
	L 137.693, 105.095 
	L 137.693, 109.347 
" />
<path d="M 118.135, 128.339 
	L 118.134, 128.339 
	L 114.165, 133.442 
" />
<path d="M 114.237, 133.795 
	L 114.236, 133.796 
	L 113.669, 129.615 
	L 113.528, 129.402 
	L 113.244, 129.261 
	L 113.173, 129.331 
	L 112.890, 129.473 
	L 112.819, 129.757 
	L 113.315, 133.938 
	L 113.457, 134.221 
	L 113.811, 134.292 
" />
<path d="M 113.811, 134.292 
	L 113.882, 134.292 
	L 110.197, 139.040 
" />
<path d="M 109.985, 138.898 
	L 109.984, 138.898 
	L 113.528, 134.221 
" />
<path d="M 113.387, 134.008 
	L 113.386, 134.009 
	L 109.701, 138.757 
" />
<path d="M 109.631, 138.685 
	L 109.630, 138.686 
	L 110.764, 139.394 
	L 111.969, 139.820 
	L 113.244, 140.032 
	L 114.591, 140.032 
	L 115.866, 139.678 
	L 117.071, 139.182 
	L 118.134, 138.402 
	L 118.984, 137.481 
	L 119.693, 136.347 
" />
<path d="M 119.693, 136.347 
	L 120.189, 135.142 
	L 120.402, 133.867 
	L 120.331, 132.520 
	L 120.047, 131.245 
	L 119.480, 130.040 
	L 118.772, 128.977 
	L 117.780, 128.127 
	L 116.717, 127.418 
	L 115.441, 126.922 
	L 114.165, 126.709 
" />
<path d="M 114.165, 126.709 
	L 112.890, 126.780 
	L 111.614, 127.064 
	L 110.409, 127.631 
	L 109.346, 128.339 
	L 108.425, 129.331 
	L 107.717, 130.394 
	L 107.291, 131.670 
	L 107.079, 132.946 
	L 107.079, 134.221 
	L 107.362, 135.497 
" />
<path d="M 107.362, 135.497 
	L 107.929, 136.702 
	L 108.709, 137.765 
	L 109.630, 138.686 
" />
<path d="M 109.489, 138.543 
	L 109.488, 138.544 
	L 113.315, 133.654 
" />
<path d="M 113.245, 133.228 
	L 113.244, 133.229 
	L 109.276, 138.402 
" />
<path d="M 109.064, 138.189 
	L 109.063, 138.190 
	L 113.173, 132.875 
" />
<path d="M 113.103, 132.449 
	L 113.102, 132.450 
	L 108.850, 137.977 
" />
<path d="M 108.709, 137.764 
	L 108.709, 137.765 
	L 113.102, 132.024 
" />
<path d="M 113.032, 131.669 
	L 113.032, 131.670 
	L 108.496, 137.552 
" />
<path d="M 108.284, 137.268 
	L 108.283, 137.268 
	L 112.961, 131.245 
" />
<path d="M 112.961, 130.819 
	L 112.961, 130.820 
	L 108.142, 137.056 
" />
<path d="M 108.001, 136.772 
	L 108.000, 136.772 
	L 112.890, 130.465 
" />
<path d="M 112.820, 130.039 
	L 112.819, 130.040 
	L 107.858, 136.489 
" />
<path d="M 107.717, 136.205 
	L 107.717, 136.205 
	L 112.819, 129.615 
" />
<path d="M 112.961, 129.331 
	L 112.961, 129.331 
	L 114.945, 126.851 
" />
<path d="M 115.229, 126.921 
	L 115.228, 126.922 
	L 113.386, 129.261 
" />
<path d="M 113.599, 129.472 
	L 113.598, 129.473 
	L 115.583, 126.993 
" />
<path d="M 115.867, 127.063 
	L 115.866, 127.064 
	L 113.740, 129.828 
" />
<path d="M 113.741, 130.181 
	L 113.740, 130.182 
	L 116.150, 127.135 
" />
<path d="M 116.434, 127.276 
	L 116.433, 127.276 
	L 113.811, 130.607 
" />
<path d="M 113.883, 131.032 
	L 113.882, 131.032 
	L 116.646, 127.418 
" />
<path d="M 116.930, 127.559 
	L 116.929, 127.560 
	L 113.953, 131.387 
" />
<path d="M 113.953, 131.811 
	L 113.953, 131.812 
	L 117.213, 127.702 
" />
<path d="M 117.426, 127.843 
	L 117.425, 127.843 
	L 114.024, 132.237 
" />
<path d="M 114.095, 132.591 
	L 114.095, 132.591 
	L 117.638, 127.985 
" />
<path d="M 117.851, 128.197 
	L 117.850, 128.198 
	L 114.165, 133.016 
" />
<path d="M 114.237, 133.795 
	L 114.236, 133.796 
	L 114.165, 134.150 
	L 113.882, 134.292 
" />
<path d="M 114.237, 133.866 
	L 114.236, 133.867 
	L 118.346, 128.552 
" />
<path d="M 118.489, 128.764 
	L 118.488, 128.765 
	L 110.480, 139.182 
" />
<path d="M 110.694, 139.323 
	L 110.693, 139.324 
	L 118.701, 128.977 
" />
<path d="M 118.914, 129.189 
	L 118.913, 129.190 
	L 110.976, 139.465 
" />
<path d="M 111.261, 139.606 
	L 111.260, 139.607 
	L 119.055, 129.402 
" />
<path d="M 119.268, 129.685 
	L 119.268, 129.686 
	L 111.543, 139.678 
" />
<path d="M 111.827, 139.748 
	L 111.827, 139.749 
	L 119.409, 129.898 
" />
<path d="M 119.552, 130.181 
	L 119.551, 130.182 
	L 112.110, 139.890 
" />
<path d="M 112.465, 139.961 
	L 112.465, 139.961 
	L 119.693, 130.465 
" />
<path d="M 119.835, 130.748 
	L 119.835, 130.749 
	L 112.748, 139.961 
" />
<path d="M 113.103, 140.032 
	L 113.102, 140.032 
	L 119.976, 131.103 
" />
<path d="M 120.119, 131.386 
	L 120.118, 131.387 
	L 113.457, 140.032 
" />
<path d="M 113.812, 140.032 
	L 113.811, 140.032 
	L 120.189, 131.741 
" />
<path d="M 120.261, 132.095 
	L 120.260, 132.095 
	L 114.165, 140.032 
" />
<path d="M 114.520, 140.032 
	L 114.520, 140.032 
	L 120.331, 132.520 
" />
<path d="M 120.402, 132.945 
	L 120.402, 132.946 
	L 114.945, 139.961 
" />
<path d="M 115.371, 139.819 
	L 115.370, 139.820 
	L 120.402, 133.371 
" />
<path d="M 120.402, 133.866 
	L 120.402, 133.867 
	L 115.866, 139.678 
" />
<path d="M 116.363, 139.535 
	L 116.362, 139.536 
	L 120.331, 134.434 
" />
<path d="M 120.190, 135.071 
	L 120.189, 135.072 
	L 116.929, 139.182 
" />
<path d="M 117.709, 138.756 
	L 117.709, 138.757 
	L 119.906, 135.851 
" />
<path d="M 117.851, 135.921 
	L 117.850, 135.922 
	L 118.346, 134.930 
	L 118.559, 133.867 
	L 118.488, 132.733 
	L 118.276, 131.741 
	L 117.780, 130.749 
	L 117.071, 129.898 
	L 116.220, 129.261 
	L 115.228, 128.765 
	L 114.165, 128.552 
" />
<path d="M 114.165, 128.552 
	L 113.102, 128.552 
	L 112.039, 128.835 
	L 111.047, 129.331 
	L 110.268, 130.040 
	L 109.559, 130.890 
	L 109.134, 131.883 
	L 108.921, 132.946 
	L 108.921, 134.009 
	L 109.205, 135.072 
	L 109.630, 135.993 
" />
<path d="M 109.630, 135.993 
	L 110.339, 136.843 
	L 111.189, 137.552 
	L 112.181, 137.977 
	L 113.244, 138.190 
	L 114.307, 138.190 
	L 115.370, 137.906 
	L 116.362, 137.410 
	L 117.213, 136.772 
	L 117.850, 135.922 
" />
<path d="M 107.576, 135.921 
	L 107.575, 135.922 
	L 114.591, 126.780 
" />
<path d="M 114.308, 126.709 
	L 114.307, 126.709 
	L 107.433, 135.639 
" />
<path d="M 107.292, 135.283 
	L 107.291, 135.284 
	L 113.953, 126.709 
" />
<path d="M 113.599, 126.709 
	L 113.598, 126.709 
	L 107.220, 134.930 
" />
<path d="M 107.150, 134.575 
	L 107.150, 134.576 
	L 113.173, 126.709 
" />
<path d="M 112.820, 126.780 
	L 112.819, 126.780 
	L 107.079, 134.150 
" />
<path d="M 107.079, 133.724 
	L 107.079, 133.725 
	L 112.394, 126.851 
" />
<path d="M 111.969, 126.921 
	L 111.969, 126.922 
	L 107.079, 133.300 
" />
<path d="M 107.079, 132.803 
	L 107.079, 132.804 
	L 111.472, 127.135 
" />
<path d="M 110.977, 127.346 
	L 110.976, 127.347 
	L 107.150, 132.237 
" />
<path d="M 107.292, 131.598 
	L 107.291, 131.599 
	L 110.339, 127.631 
" />
<path d="M 109.560, 128.126 
	L 109.559, 128.127 
	L 107.646, 130.678 
" />
<path d="M 175.394, 108.496 
	L 175.394, 108.497 
	L 179.221, 106.654 
" />
<path d="M 179.079, 107.008 
	L 179.079, 107.009 
	L 175.606, 108.709 
" />
<path d="M 175.820, 108.921 
	L 175.819, 108.922 
	L 178.937, 107.363 
" />
<path d="M 178.867, 107.575 
	L 178.866, 107.576 
	L 178.866, 107.859 
	L 179.150, 108.072 
	L 179.221, 108.072 
	L 179.504, 108.072 
	L 179.717, 107.859 
	L 181.134, 103.890 
	L 181.134, 103.536 
	L 180.850, 103.324 
	L 180.780, 103.324 
" />
<path d="M 180.780, 103.324 
	L 186.165, 100.702 
" />
<path d="M 186.308, 100.913 
	L 186.307, 100.914 
	L 181.063, 103.465 
" />
<path d="M 181.135, 103.748 
	L 181.134, 103.749 
	L 186.449, 101.198 
" />
<path d="M 186.520, 101.268 
	L 186.520, 101.268 
	L 185.811, 100.135 
	L 184.961, 99.213 
	L 183.898, 98.434 
	L 182.693, 97.867 
	L 181.417, 97.583 
	L 180.142, 97.513 
	L 178.866, 97.725 
	L 177.591, 98.221 
	L 176.528, 98.859 
" />
<path d="M 176.528, 98.859 
	L 175.535, 99.780 
	L 174.756, 100.843 
	L 174.189, 101.977 
	L 173.906, 103.253 
	L 173.835, 104.599 
	L 174.047, 105.875 
	L 174.543, 107.079 
	L 175.181, 108.213 
	L 176.102, 109.205 
	L 177.165, 109.985 
" />
<path d="M 177.165, 109.985 
	L 178.370, 110.481 
	L 179.646, 110.835 
	L 180.921, 110.835 
	L 182.197, 110.623 
	L 183.472, 110.198 
	L 184.535, 109.489 
	L 185.528, 108.639 
	L 186.307, 107.576 
	L 186.803, 106.371 
	L 187.158, 105.095 
" />
<path d="M 187.158, 105.095 
	L 187.158, 103.820 
	L 186.945, 102.473 
	L 186.520, 101.268 
" />
<path d="M 186.591, 101.409 
	L 186.591, 101.410 
	L 180.992, 104.174 
" />
<path d="M 180.922, 104.528 
	L 180.921, 104.528 
	L 186.732, 101.694 
" />
<path d="M 186.804, 101.976 
	L 186.803, 101.977 
	L 180.780, 104.883 
" />
<path d="M 180.639, 105.307 
	L 180.638, 105.308 
	L 186.874, 102.261 
" />
<path d="M 187.016, 102.543 
	L 187.016, 102.544 
	L 180.496, 105.662 
" />
<path d="M 180.355, 106.087 
	L 180.354, 106.087 
	L 187.087, 102.827 
" />
<path d="M 187.087, 103.110 
	L 187.087, 103.111 
	L 180.213, 106.442 
" />
<path d="M 180.072, 106.795 
	L 180.071, 106.796 
	L 187.158, 103.394 
" />
<path d="M 187.158, 103.677 
	L 187.158, 103.678 
	L 180.000, 107.221 
" />
<path d="M 179.859, 107.575 
	L 179.858, 107.576 
	L 187.228, 104.032 
" />
<path d="M 187.229, 104.315 
	L 187.228, 104.316 
	L 179.646, 108.001 
" />
<path d="M 179.363, 108.142 
	L 179.362, 108.142 
	L 176.528, 109.489 
" />
<path d="M 176.741, 109.701 
	L 176.740, 109.702 
	L 187.158, 104.670 
" />
<path d="M 187.158, 105.024 
	L 187.158, 105.024 
	L 177.024, 109.914 
" />
<path d="M 177.379, 110.055 
	L 177.378, 110.056 
	L 187.087, 105.308 
" />
<path d="M 187.016, 105.661 
	L 187.016, 105.662 
	L 177.661, 110.198 
" />
<path d="M 178.016, 110.409 
	L 178.016, 110.410 
	L 186.945, 106.087 
" />
<path d="M 186.804, 106.441 
	L 186.803, 106.442 
	L 178.370, 110.481 
" />
<path d="M 178.796, 110.622 
	L 178.795, 110.623 
	L 186.661, 106.796 
" />
<path d="M 186.450, 107.220 
	L 186.449, 107.221 
	L 179.221, 110.765 
" />
<path d="M 179.717, 110.835 
	L 179.717, 110.835 
	L 186.236, 107.646 
" />
<path d="M 185.883, 108.142 
	L 185.882, 108.142 
	L 180.283, 110.835 
" />
<path d="M 180.993, 110.835 
	L 180.992, 110.835 
	L 185.457, 108.709 
" />
<path d="M 184.820, 109.346 
	L 184.819, 109.347 
	L 181.913, 110.694 
" />
<path d="M 182.127, 108.780 
	L 182.126, 108.780 
	L 183.118, 108.284 
	L 183.969, 107.576 
	L 184.606, 106.725 
	L 185.102, 105.804 
	L 185.315, 104.741 
	L 185.315, 103.607 
	L 185.102, 102.615 
	L 184.606, 101.623 
	L 183.969, 100.772 
" />
<path d="M 183.969, 100.772 
	L 183.118, 100.064 
	L 182.126, 99.639 
	L 181.063, 99.355 
	L 180.000, 99.355 
	L 178.937, 99.639 
	L 177.945, 100.135 
	L 177.095, 100.772 
	L 176.386, 101.623 
	L 175.961, 102.615 
	L 175.748, 103.678 
" />
<path d="M 175.748, 103.678 
	L 175.748, 104.741 
	L 175.961, 105.804 
	L 176.457, 106.796 
	L 177.095, 107.646 
	L 177.945, 108.284 
	L 178.937, 108.780 
	L 180.000, 108.993 
	L 181.063, 108.993 
	L 182.126, 108.780 
" />
<path d="M 179.009, 108.000 
	L 179.008, 108.001 
	L 176.244, 109.347 
" />
<path d="M 176.032, 109.134 
	L 176.032, 109.135 
	L 178.866, 107.717 
" />
<path d="M 178.867, 107.575 
	L 178.866, 107.576 
	L 180.283, 103.536 
	L 180.496, 103.324 
	L 180.780, 103.324 
" />
<path d="M 180.284, 103.535 
	L 180.283, 103.536 
	L 174.260, 106.442 
" />
<path d="M 174.190, 106.228 
	L 174.189, 106.229 
	L 186.024, 100.418 
" />
<path d="M 185.883, 100.205 
	L 185.882, 100.205 
	L 174.047, 105.946 
" />
<path d="M 173.977, 105.661 
	L 173.976, 105.662 
	L 185.669, 99.993 
" />
<path d="M 185.528, 99.709 
	L 185.528, 99.709 
	L 173.976, 105.379 
" />
<path d="M 173.906, 105.024 
	L 173.906, 105.024 
	L 185.315, 99.497 
" />
<path d="M 185.103, 99.283 
	L 185.102, 99.284 
	L 173.906, 104.741 
" />
<path d="M 173.835, 104.457 
	L 173.835, 104.457 
	L 184.819, 99.072 
" />
<path d="M 184.607, 98.929 
	L 184.606, 98.930 
	L 173.835, 104.103 
" />
<path d="M 173.835, 103.819 
	L 173.835, 103.820 
	L 184.323, 98.717 
" />
<path d="M 184.040, 98.504 
	L 184.039, 98.505 
	L 173.906, 103.465 
" />
<path d="M 173.906, 103.110 
	L 173.906, 103.111 
	L 183.756, 98.363 
" />
<path d="M 183.473, 98.220 
	L 183.472, 98.221 
	L 173.976, 102.757 
" />
<path d="M 174.119, 102.402 
	L 174.118, 102.402 
	L 183.118, 98.009 
" />
<path d="M 182.765, 97.866 
	L 182.764, 97.867 
	L 174.189, 102.048 
" />
<path d="M 174.331, 101.622 
	L 174.331, 101.623 
	L 182.339, 97.796 
" />
<path d="M 181.914, 97.654 
	L 181.913, 97.654 
	L 174.543, 101.268 
" />
<path d="M 174.757, 100.772 
	L 174.756, 100.772 
	L 181.417, 97.583 
" />
<path d="M 180.851, 97.512 
	L 180.850, 97.513 
	L 175.110, 100.347 
" />
<path d="M 175.465, 99.850 
	L 175.465, 99.851 
	L 180.213, 97.513 
" />
<path d="M 179.363, 97.654 
	L 179.362, 97.654 
	L 176.102, 99.213 
" />
<path d="M 180.142, 103.961 
	L 180.142, 103.961 
	L 174.331, 106.725 
" />
<path d="M 174.473, 107.008 
	L 174.472, 107.009 
	L 180.000, 104.316 
" />
<path d="M 179.859, 104.740 
	L 179.858, 104.741 
	L 174.614, 107.292 
" />
<path d="M 174.757, 107.504 
	L 174.756, 107.505 
	L 179.717, 105.095 
" />
<path d="M 179.576, 105.449 
	L 179.575, 105.450 
	L 174.898, 107.788 
" />
<path d="M 175.040, 108.000 
	L 175.039, 108.001 
	L 179.433, 105.875 
" />
<path d="M 179.363, 106.228 
	L 179.362, 106.229 
	L 175.181, 108.213 
" />
<path d="M 184.961, 110.764 
	L 184.961, 110.765 
	L 181.843, 119.977 
" />
<path d="M 180.993, 119.976 
	L 180.992, 119.977 
	L 183.614, 119.977 
" />
<path d="M 186.237, 119.976 
	L 186.236, 119.977 
	L 188.858, 119.977 
" />
<path d="M 188.009, 119.976 
	L 188.008, 119.977 
	L 184.961, 110.765 
" />
<path d="M 184.961, 112.110 
	L 184.961, 112.111 
	L 187.583, 119.977 
" />
<path d="M 186.662, 117.354 
	L 186.661, 117.355 
	L 182.764, 117.355 
" />
<path d="M 196.583, 118.417 
	L 196.583, 118.418 
	L 195.591, 113.599 
	L 194.315, 108.922 
	L 192.756, 104.245 
	L 190.984, 99.780 
	L 188.929, 95.316 
	L 186.591, 91.064 
	L 184.039, 86.883 
	L 181.276, 82.914 
	L 178.228, 79.087 
" />
<path d="M 178.228, 79.087 
	L 174.969, 75.402 
	L 171.496, 72.001 
	L 167.882, 68.741 
	L 164.055, 65.694 
	L 160.087, 62.930 
	L 155.906, 60.379 
	L 151.654, 58.040 
	L 147.189, 55.985 
	L 142.654, 54.142 
	L 138.047, 52.654 
	L 133.299, 51.379 
" />
<path d="M 133.299, 51.379 
	L 128.551, 50.387 
	L 123.732, 49.678 
	L 118.843, 49.253 
	L 113.953, 49.111 
	L 109.134, 49.253 
	L 104.244, 49.678 
	L 99.425, 50.387 
	L 94.677, 51.379 
	L 89.929, 52.654 
	L 85.323, 54.142 
	L 80.787, 55.985 
" />
<path d="M 80.787, 55.985 
	L 76.323, 58.040 
	L 72.071, 60.379 
	L 67.890, 62.930 
	L 63.921, 65.694 
	L 60.094, 68.741 
	L 56.480, 72.001 
	L 53.008, 75.402 
	L 49.748, 79.087 
	L 46.701, 82.914 
	L 43.937, 86.883 
	L 41.386, 91.064 
" />
<path d="M 41.386, 91.064 
	L 39.047, 95.316 
	L 36.992, 99.780 
	L 35.220, 104.245 
	L 33.661, 108.922 
	L 32.386, 113.599 
	L 31.394, 118.418 
	L 30.685, 123.237 
	L 30.260, 128.056 
	L 30.118, 132.946 
	L 30.260, 137.835 
	L 30.685, 142.654 
" />
<path d="M 30.685, 142.654 
	L 31.394, 147.544 
	L 32.386, 152.292 
	L 33.661, 156.969 
	L 35.220, 161.646 
	L 36.992, 166.182 
	L 39.047, 170.576 
	L 41.386, 174.898 
	L 43.937, 179.009 
	L 46.701, 183.048 
	L 49.748, 186.875 
	L 53.008, 190.489 
" />
<path d="M 53.008, 190.489 
	L 56.480, 193.961 
	L 60.094, 197.150 
	L 63.921, 200.198 
	L 67.890, 203.032 
	L 72.071, 205.583 
	L 76.323, 207.851 
	L 80.787, 209.906 
	L 85.323, 211.749 
	L 89.929, 213.308 
	L 94.677, 214.513 
	L 99.425, 215.505 
" />
<path d="M 99.425, 215.505 
	L 104.244, 216.213 
	L 109.134, 216.639 
	L 113.953, 216.780 
	L 118.843, 216.639 
	L 123.732, 216.213 
	L 128.551, 215.505 
	L 133.299, 214.513 
	L 138.047, 213.308 
	L 142.654, 211.749 
	L 147.189, 209.906 
" />
<path d="M 147.189, 209.906 
	L 151.654, 207.851 
	L 155.906, 205.583 
	L 160.087, 203.032 
	L 164.055, 200.198 
	L 167.882, 197.150 
	L 171.496, 193.961 
	L 174.969, 190.489 
	L 178.228, 186.875 
	L 181.276, 183.048 
	L 184.039, 179.009 
" />
<path d="M 184.039, 179.009 
	L 186.591, 174.898 
	L 188.929, 170.576 
	L 190.984, 166.182 
	L 192.756, 161.646 
	L 194.315, 156.969 
	L 195.591, 152.292 
	L 196.583, 147.544 
	L 197.291, 142.654 
	L 197.717, 137.835 
	L 197.858, 132.946 
" />
<path d="M 197.858, 132.946 
	L 197.717, 128.056 
	L 197.291, 123.237 
	L 196.583, 118.418 
" />
<path d="M 167.599, 117.213 
	L 167.598, 117.213 
	L 166.394, 113.387 
	L 164.835, 109.702 
	L 163.063, 106.158 
	L 161.008, 102.757 
	L 158.740, 99.426 
	L 156.260, 96.379 
	L 153.496, 93.402 
	L 150.591, 90.709 
	L 147.472, 88.229 
" />
<path d="M 147.472, 88.229 
	L 144.213, 85.961 
	L 140.811, 83.906 
	L 137.197, 82.135 
	L 133.512, 80.576 
	L 129.756, 79.300 
	L 125.858, 78.308 
	L 121.961, 77.599 
	L 117.992, 77.174 
	L 113.953, 77.032 
	L 109.984, 77.174 
	L 106.016, 77.599 
" />
<path d="M 106.016, 77.599 
	L 102.118, 78.308 
	L 98.220, 79.300 
	L 94.465, 80.576 
	L 90.780, 82.135 
	L 87.165, 83.906 
	L 83.764, 85.961 
	L 80.504, 88.229 
	L 77.386, 90.709 
	L 74.480, 93.402 
	L 71.717, 96.379 
	L 69.236, 99.426 
" />
<path d="M 69.236, 99.426 
	L 66.969, 102.757 
	L 64.913, 106.158 
	L 63.142, 109.702 
	L 61.583, 113.387 
	L 60.378, 117.213 
	L 59.386, 121.040 
	L 58.677, 125.009 
	L 58.252, 128.977 
	L 58.110, 132.946 
	L 58.252, 136.914 
	L 58.677, 140.883 
" />
<path d="M 58.677, 140.883 
	L 59.386, 144.851 
	L 60.378, 148.678 
	L 61.583, 152.505 
	L 63.142, 156.190 
	L 64.913, 159.733 
	L 66.969, 163.205 
	L 69.236, 166.465 
	L 71.717, 169.583 
	L 74.480, 172.489 
	L 77.386, 175.182 
	L 80.504, 177.733 
" />
<path d="M 80.504, 177.733 
	L 83.764, 180.001 
	L 87.165, 181.985 
	L 90.780, 183.828 
	L 94.465, 185.316 
	L 98.220, 186.591 
	L 102.118, 187.583 
	L 106.016, 188.292 
	L 109.984, 188.717 
	L 113.953, 188.859 
	L 117.992, 188.717 
" />
<path d="M 117.992, 188.717 
	L 121.961, 188.292 
	L 125.858, 187.583 
	L 129.756, 186.591 
	L 133.512, 185.316 
	L 137.197, 183.828 
	L 140.811, 181.985 
	L 144.213, 180.001 
	L 147.472, 177.733 
	L 150.591, 175.182 
	L 153.496, 172.489 
" />
<path d="M 153.496, 172.489 
	L 156.260, 169.583 
	L 158.740, 166.465 
	L 161.008, 163.205 
	L 163.063, 159.733 
	L 164.835, 156.190 
	L 166.394, 152.505 
	L 167.598, 148.678 
	L 168.591, 144.851 
	L 169.299, 140.883 
	L 169.724, 136.914 
" />
<path d="M 169.724, 136.914 
	L 169.866, 132.946 
	L 169.724, 128.977 
	L 169.299, 125.009 
	L 168.591, 121.040 
	L 167.598, 117.213 
" />
<path d="M 153.497, 127.417 
	L 153.496, 127.418 
	L 153.921, 127.914 
	L 154.346, 128.765 
	L 154.346, 129.615 
	L 153.921, 130.536 
	L 153.496, 130.961 
	L 152.220, 131.387 
	L 153.496, 131.812 
	L 153.921, 132.237 
	L 154.346, 133.158 
" />
<path d="M 154.346, 133.158 
	L 154.346, 134.434 
	L 153.921, 135.284 
	L 153.496, 135.709 
	L 152.220, 136.205 
	L 146.976, 136.205 
" />
<path d="M 148.253, 136.205 
	L 148.252, 136.205 
	L 148.252, 126.993 
" />
<path d="M 148.678, 126.992 
	L 148.677, 126.993 
	L 148.677, 136.205 
" />
<path d="M 152.221, 136.205 
	L 152.220, 136.205 
	L 153.071, 135.709 
	L 153.496, 135.284 
	L 153.921, 134.434 
	L 153.921, 133.158 
	L 153.496, 132.237 
	L 153.071, 131.812 
	L 152.220, 131.387 
	L 153.071, 130.961 
	L 153.496, 130.536 
" />
<path d="M 153.496, 130.536 
	L 153.921, 129.615 
	L 153.921, 128.765 
	L 153.496, 127.914 
	L 153.071, 127.418 
	L 152.220, 126.993 
	L 153.496, 127.418 
" />
<path d="M 152.221, 126.992 
	L 152.220, 126.993 
	L 146.976, 126.993 
" />
<path d="M 148.678, 131.386 
	L 148.677, 131.387 
	L 152.220, 131.387 
" />
<path d="M 141.804, 130.181 
	L 141.803, 130.182 
	L 141.378, 127.489 
	L 140.740, 124.867 
	L 139.819, 122.245 
	L 138.614, 119.765 
	L 137.197, 117.426 
	L 135.567, 115.229 
	L 133.724, 113.174 
	L 131.740, 111.331 
	L 129.543, 109.702 
" />
<path d="M 129.543, 109.702 
	L 127.134, 108.284 
	L 124.654, 107.150 
	L 122.102, 106.229 
	L 119.409, 105.520 
	L 116.717, 105.166 
	L 113.953, 105.024 
	L 111.260, 105.166 
	L 108.567, 105.520 
	L 105.874, 106.229 
	L 103.323, 107.150 
" />
<path d="M 103.323, 107.150 
	L 100.843, 108.284 
	L 98.433, 109.702 
	L 96.236, 111.331 
	L 94.252, 113.174 
	L 92.409, 115.229 
	L 90.780, 117.426 
	L 89.362, 119.765 
	L 88.157, 122.245 
	L 87.236, 124.867 
	L 86.598, 127.489 
	L 86.173, 130.182 
" />
<path d="M 86.173, 130.182 
	L 86.032, 132.946 
	L 86.173, 135.709 
	L 86.598, 138.402 
	L 87.236, 141.095 
	L 88.157, 143.646 
	L 89.362, 146.127 
	L 90.780, 148.465 
	L 92.409, 150.662 
	L 94.252, 152.717 
	L 96.236, 154.560 
	L 98.433, 156.190 
" />
<path d="M 98.433, 156.190 
	L 100.843, 157.607 
	L 103.323, 158.741 
	L 105.874, 159.733 
	L 108.567, 160.371 
	L 111.260, 160.796 
	L 113.953, 160.867 
	L 116.717, 160.796 
	L 119.409, 160.371 
	L 122.102, 159.733 
	L 124.654, 158.741 
" />
<path d="M 124.654, 158.741 
	L 127.134, 157.607 
	L 129.543, 156.190 
	L 131.740, 154.560 
	L 133.724, 152.717 
	L 135.567, 150.662 
	L 137.197, 148.465 
	L 138.614, 146.127 
	L 139.819, 143.646 
	L 140.740, 141.095 
	L 141.378, 138.402 
" />
<path d="M 141.378, 138.402 
	L 141.803, 135.709 
	L 141.945, 132.946 
	L 141.803, 130.182 
" />
<path d="M 120.473, 130.252 
	L 120.472, 130.253 
	L 119.764, 129.048 
	L 118.913, 127.985 
	L 117.850, 127.135 
	L 116.646, 126.497 
	L 115.370, 126.072 
	L 113.953, 126.001 
	L 112.606, 126.072 
	L 111.331, 126.497 
	L 110.126, 127.135 
" />
<path d="M 110.126, 127.135 
	L 109.063, 127.985 
	L 108.213, 129.048 
	L 107.504, 130.253 
	L 107.150, 131.599 
	L 107.008, 132.946 
	L 107.150, 134.292 
	L 107.504, 135.639 
	L 108.213, 136.843 
	L 109.063, 137.906 
	L 110.126, 138.757 
" />
<path d="M 110.126, 138.757 
	L 111.331, 139.394 
	L 112.606, 139.820 
	L 113.953, 139.961 
	L 115.370, 139.820 
	L 116.646, 139.394 
	L 117.850, 138.757 
	L 118.913, 137.906 
	L 119.764, 136.843 
	L 120.472, 135.639 
	L 120.827, 134.292 
" />
<path d="M 120.827, 134.292 
	L 120.969, 132.946 
	L 120.827, 131.599 
	L 120.472, 130.253 
" />
<path d="M 120.119, 141.591 
	L 120.118, 141.591 
	L 118.772, 141.095 
	L 117.921, 141.095 
	L 116.575, 141.591 
	L 115.724, 142.442 
	L 115.299, 143.292 
	L 114.874, 144.639 
	L 114.874, 146.835 
	L 115.299, 148.111 
	L 115.724, 148.961 
" />
<path d="M 115.724, 148.961 
	L 116.575, 149.883 
	L 117.921, 150.308 
	L 118.772, 150.308 
	L 120.118, 149.883 
	L 120.969, 148.961 
	L 121.394, 148.111 
" />
<path d="M 121.394, 143.717 
	L 121.394, 143.717 
	L 121.394, 141.095 
	L 120.969, 142.442 
	L 120.118, 141.591 
" />
<path d="M 120.969, 142.441 
	L 120.969, 142.442 
	L 121.394, 143.717 
" />
<path d="M 117.922, 141.095 
	L 117.921, 141.095 
	L 117.071, 141.591 
	L 116.150, 142.442 
	L 115.724, 143.292 
	L 115.299, 144.639 
	L 115.299, 146.835 
	L 115.724, 148.111 
	L 116.150, 148.961 
	L 117.071, 149.883 
	L 117.921, 150.308 
" />
<path d="M 117.921, 150.308 
" />
<path d="M 137.056, 109.984 
	L 137.055, 109.985 
	L 138.047, 109.560 
" />
<path d="M 137.906, 109.984 
	L 137.906, 109.985 
	L 137.339, 110.198 
" />
<path d="M 137.056, 109.701 
	L 137.055, 109.702 
	L 138.260, 109.205 
" />
<path d="M 138.402, 108.850 
	L 138.402, 108.851 
	L 137.197, 109.347 
" />
<path d="M 137.339, 108.992 
	L 137.339, 108.993 
	L 138.543, 108.426 
" />
<path d="M 138.686, 108.071 
	L 138.685, 108.072 
	L 137.480, 108.568 
" />
<path d="M 137.623, 108.213 
	L 137.622, 108.213 
	L 138.827, 107.717 
" />
<path d="M 138.969, 107.291 
	L 138.969, 107.292 
	L 137.764, 107.859 
" />
<path d="M 137.906, 107.433 
	L 137.906, 107.434 
	L 139.110, 106.938 
" />
<path d="M 139.253, 106.583 
	L 139.252, 106.583 
	L 138.047, 107.079 
" />
<path d="M 138.190, 106.724 
	L 138.189, 106.725 
	L 139.394, 106.158 
" />
<path d="M 139.465, 105.803 
	L 139.465, 105.804 
	L 138.331, 106.300 
" />
<path d="M 138.473, 105.945 
	L 138.472, 105.946 
	L 139.323, 105.591 
" />
<path d="M 131.457, 106.937 
	L 131.457, 106.938 
	L 131.102, 108.213 
	L 131.032, 109.489 
	L 131.173, 110.835 
	L 131.598, 112.040 
	L 132.236, 113.174 
	L 133.087, 114.166 
	L 134.079, 115.016 
	L 135.283, 115.583 
	L 136.488, 115.938 
" />
<path d="M 136.488, 115.938 
	L 137.835, 116.009 
	L 139.110, 115.867 
	L 140.386, 115.442 
	L 141.520, 114.804 
	L 142.512, 113.953 
	L 143.291, 112.961 
	L 143.858, 111.757 
	L 144.213, 110.481 
	L 144.354, 109.205 
	L 144.213, 107.930 
" />
<path d="M 144.213, 107.930 
	L 143.787, 106.654 
	L 143.150, 105.520 
	L 142.299, 104.528 
	L 141.236, 103.749 
	L 140.102, 103.111 
	L 138.827, 102.827 
	L 137.551, 102.686 
	L 136.205, 102.827 
	L 135.000, 103.253 
	L 133.866, 103.890 
" />
<path d="M 133.866, 103.890 
	L 132.874, 104.741 
	L 132.024, 105.804 
	L 131.457, 106.938 
" />
<path d="M 137.056, 109.701 
	L 137.055, 109.702 
	L 137.055, 109.985 
	L 137.268, 110.198 
	L 137.409, 110.268 
	L 137.693, 110.198 
	L 137.906, 109.985 
	L 139.465, 106.087 
	L 139.465, 105.733 
	L 139.181, 105.520 
	L 139.110, 105.520 
" />
<path d="M 139.110, 105.520 
	L 138.827, 105.520 
	L 138.614, 105.733 
	L 137.055, 109.702 
" />
<path d="M 132.875, 109.772 
	L 132.874, 109.772 
	L 133.087, 110.835 
	L 133.512, 111.827 
	L 134.150, 112.678 
	L 134.929, 113.387 
	L 135.921, 113.883 
	L 136.984, 114.166 
	L 138.047, 114.166 
	L 139.110, 113.953 
	L 140.102, 113.528 
" />
<path d="M 140.102, 113.528 
	L 140.953, 112.890 
	L 141.661, 112.040 
	L 142.158, 111.119 
	L 142.441, 110.056 
	L 142.512, 108.993 
	L 142.299, 107.930 
	L 141.874, 106.938 
	L 141.236, 106.087 
	L 140.386, 105.379 
	L 139.394, 104.883 
" />
<path d="M 139.394, 104.883 
	L 138.402, 104.599 
	L 137.268, 104.528 
	L 136.205, 104.741 
	L 135.213, 105.166 
	L 134.362, 105.804 
	L 133.654, 106.654 
	L 133.158, 107.646 
	L 132.874, 108.639 
	L 132.874, 109.772 
" />
<path d="M 168.166, 97.724 
	L 168.165, 97.725 
	L 169.158, 98.576 
	L 170.291, 99.213 
	L 171.567, 99.639 
	L 172.843, 99.851 
	L 174.118, 99.709 
	L 175.394, 99.355 
	L 176.598, 98.788 
	L 177.591, 98.009 
	L 178.441, 97.016 
	L 179.150, 95.883 
" />
<path d="M 179.150, 95.883 
	L 179.504, 94.678 
	L 179.717, 93.331 
	L 179.646, 92.056 
	L 179.291, 90.780 
	L 178.724, 89.646 
	L 177.874, 88.583 
	L 176.882, 87.733 
	L 175.748, 87.095 
	L 174.543, 86.670 
	L 173.268, 86.457 
	L 171.921, 86.599 
" />
<path d="M 171.921, 86.599 
	L 170.646, 86.883 
	L 169.512, 87.520 
	L 168.449, 88.300 
	L 167.598, 89.292 
	L 166.961, 90.426 
	L 166.535, 91.631 
	L 166.394, 92.977 
	L 166.465, 94.253 
	L 166.819, 95.528 
	L 167.386, 96.662 
	L 168.165, 97.725 
" />
<path d="M 168.165, 97.725 
" />
<path d="M 169.300, 96.236 
	L 169.299, 96.237 
	L 170.150, 97.016 
	L 171.071, 97.583 
	L 172.063, 97.867 
	L 173.126, 98.009 
	L 174.260, 97.867 
	L 175.252, 97.442 
	L 176.173, 96.875 
	L 176.882, 96.095 
	L 177.449, 95.103 
	L 177.803, 94.111 
" />
<path d="M 177.803, 94.111 
	L 177.874, 93.048 
	L 177.732, 91.985 
	L 177.307, 90.922 
	L 176.740, 90.001 
	L 175.961, 89.292 
	L 175.039, 88.725 
	L 173.976, 88.442 
	L 172.913, 88.300 
	L 171.850, 88.442 
	L 170.787, 88.867 
	L 169.937, 89.434 
" />
<path d="M 169.937, 89.434 
	L 169.158, 90.213 
	L 168.591, 91.135 
	L 168.307, 92.198 
	L 168.165, 93.261 
	L 168.378, 94.324 
	L 168.732, 95.387 
	L 169.299, 96.237 
" />
<path d="M 172.418, 93.402 
	L 172.417, 93.402 
	L 172.205, 92.765 
	L 172.417, 92.481 
	L 172.772, 92.552 
	L 176.598, 94.253 
	L 176.811, 94.465 
	L 176.811, 94.820 
	L 176.811, 94.890 
	L 176.528, 95.103 
	L 176.244, 95.103 
	L 172.417, 93.331 
" />
<path d="M 172.417, 93.331 
	L 172.134, 93.119 
	L 172.205, 92.835 
	L 172.205, 92.765 
" />
<path d="M 172.418, 92.551 
	L 172.417, 92.552 
	L 172.772, 93.544 
" />
<path d="M 173.198, 93.685 
	L 173.197, 93.686 
	L 172.701, 92.481 
" />
<path d="M 173.056, 92.693 
	L 173.055, 92.694 
	L 173.551, 93.898 
" />
<path d="M 173.906, 94.039 
	L 173.906, 94.040 
	L 173.409, 92.835 
" />
<path d="M 173.835, 92.976 
	L 173.835, 92.977 
	L 174.260, 94.182 
" />
<path d="M 174.615, 94.394 
	L 174.614, 94.394 
	L 174.189, 93.190 
" />
<path d="M 174.544, 93.331 
	L 174.543, 93.331 
	L 175.039, 94.536 
" />
<path d="M 175.394, 94.677 
	L 175.394, 94.678 
	L 174.898, 93.473 
" />
<path d="M 175.324, 93.685 
	L 175.323, 93.686 
	L 175.748, 94.890 
" />
<path d="M 176.103, 95.032 
	L 176.102, 95.032 
	L 175.677, 93.827 
" />
<path d="M 176.032, 93.969 
	L 176.032, 93.969 
	L 176.457, 95.103 
" />
<path d="M 176.741, 94.961 
	L 176.740, 94.961 
	L 176.386, 94.182 
" />
<path d="M 227.977, 132.945 
	L 227.976, 132.946 
	L 0.000, 132.946 
" />
<path d="M 0.001, 216.780 
	L 0.000, 216.780 
	L 227.976, 216.780 
" />
<path d="M 218.835, 224.646 
	L 218.835, 224.646 
	L 218.835, 0.001 
" />
<path d="M 113.953, 0.000 
	L 113.953, 0.001 
	L 113.953, 224.646 
" />
<path d="M 9.142, 224.646 
	L 9.142, 224.646 
	L 9.142, 0.001 
" />
</g><g style="stroke:rgb(255,255,255); fill:none; stroke-width:0.100mm" >
</g>
</svg>
