<?xml version="1.0" encoding="UTF-8" standalone="no" ?>
<svg width="100%" height="100%" viewBox="0 0 227.977 263.623" xmlns="http://www.w3.org/2000/svg"><g>
</g><g style="stroke:rgb(0,0,0); fill:none; stroke-width:1.000mm" >
</g><g style="stroke:rgb(0,0,0); fill:none; stroke-width:0.100mm" >
<path d="M 80.859, 114.095 
	L 80.858, 114.095 
	L 80.858, 109.560 
" />
<path d="M 80.859, 106.654 
	L 80.858, 106.654 
	L 80.858, 100.914 
" />
<path d="M 80.859, 98.079 
	L 80.858, 98.079 
	L 80.858, 92.339 
" />
<path d="M 80.859, 89.504 
	L 80.858, 89.505 
	L 80.858, 83.765 
" />
<path d="M 80.859, 80.858 
	L 80.858, 80.859 
	L 80.858, 75.119 
" />
<path d="M 80.859, 72.283 
	L 80.858, 72.284 
	L 80.858, 66.544 
" />
<path d="M 80.859, 63.709 
	L 80.858, 63.709 
	L 80.858, 57.969 
" />
<path d="M 80.859, 55.063 
	L 80.858, 55.064 
	L 80.858, 49.324 
" />
<path d="M 80.859, 46.488 
	L 80.858, 46.489 
	L 80.858, 40.749 
" />
<path d="M 80.859, 37.913 
	L 80.858, 37.914 
	L 80.858, 32.174 
" />
<path d="M 80.859, 29.268 
	L 80.858, 29.268 
	L 80.858, 24.733 
" />
<path d="M 88.229, 65.835 
	L 88.228, 65.835 
	L 87.520, 66.969 
	L 87.024, 68.174 
	L 86.740, 69.450 
	L 86.669, 70.725 
	L 86.953, 72.001 
	L 87.378, 73.205 
	L 88.087, 74.339 
	L 89.008, 75.261 
	L 90.071, 76.040 
	L 91.276, 76.536 
" />
<path d="M 91.276, 76.536 
	L 92.551, 76.820 
	L 93.898, 76.820 
	L 95.173, 76.607 
	L 96.378, 76.111 
	L 97.512, 75.402 
	L 98.433, 74.481 
	L 99.142, 73.418 
	L 99.709, 72.213 
	L 99.992, 70.938 
	L 99.992, 69.662 
	L 99.780, 68.387 
" />
<path d="M 99.780, 68.387 
	L 99.283, 67.111 
	L 98.575, 66.048 
	L 97.654, 65.127 
	L 96.591, 64.347 
	L 95.386, 63.851 
	L 94.110, 63.568 
	L 92.835, 63.568 
	L 91.488, 63.780 
	L 90.283, 64.276 
	L 89.220, 64.985 
	L 88.228, 65.835 
" />
<path d="M 88.228, 65.835 
" />
<path d="M 88.371, 65.764 
	L 88.370, 65.764 
	L 95.244, 63.780 
" />
<path d="M 94.678, 63.638 
	L 94.677, 63.639 
	L 88.724, 65.339 
" />
<path d="M 89.221, 64.913 
	L 89.220, 64.914 
	L 94.039, 63.568 
" />
<path d="M 93.119, 63.496 
	L 93.118, 63.497 
	L 90.000, 64.418 
" />
<path d="M 90.568, 66.260 
	L 90.567, 66.261 
	L 89.717, 66.969 
	L 89.079, 67.820 
	L 88.724, 68.812 
	L 88.512, 69.875 
	L 88.583, 71.009 
	L 88.866, 72.001 
	L 89.362, 72.993 
	L 90.071, 73.772 
	L 90.992, 74.410 
	L 91.984, 74.835 
" />
<path d="M 91.984, 74.835 
	L 93.047, 75.048 
	L 94.110, 74.977 
	L 95.173, 74.694 
	L 96.095, 74.127 
	L 96.945, 73.418 
	L 97.583, 72.568 
	L 98.008, 71.576 
	L 98.150, 70.442 
	L 98.079, 69.379 
	L 97.795, 68.387 
	L 97.299, 67.394 
" />
<path d="M 97.299, 67.394 
	L 96.591, 66.615 
	L 95.669, 65.977 
	L 94.677, 65.552 
	L 93.614, 65.339 
	L 92.551, 65.410 
	L 91.488, 65.694 
	L 90.567, 66.261 
" />
<path d="M 88.016, 66.189 
	L 88.016, 66.190 
	L 95.740, 63.993 
" />
<path d="M 96.166, 64.134 
	L 96.165, 64.135 
	L 87.732, 66.544 
" />
<path d="M 87.520, 66.898 
	L 87.520, 66.898 
	L 96.520, 64.347 
" />
<path d="M 96.875, 64.559 
	L 96.874, 64.560 
	L 87.378, 67.253 
" />
<path d="M 87.166, 67.606 
	L 87.165, 67.607 
	L 97.157, 64.772 
" />
<path d="M 97.513, 64.984 
	L 97.512, 64.985 
	L 87.095, 67.890 
" />
<path d="M 86.953, 68.244 
	L 86.953, 68.245 
	L 97.724, 65.198 
" />
<path d="M 98.009, 65.409 
	L 98.008, 65.410 
	L 86.882, 68.599 
" />
<path d="M 86.812, 68.882 
	L 86.811, 68.883 
	L 94.819, 66.615 
" />
<path d="M 94.961, 66.543 
	L 94.961, 66.544 
	L 94.748, 66.757 
	L 92.693, 70.442 
	L 92.693, 70.725 
	L 92.835, 70.938 
	L 92.906, 71.009 
	L 87.165, 72.639 
" />
<path d="M 87.237, 72.921 
	L 87.236, 72.922 
	L 99.921, 69.308 
" />
<path d="M 99.922, 69.024 
	L 99.921, 69.024 
	L 93.472, 70.867 
	L 95.528, 67.182 
	L 95.598, 66.827 
	L 95.386, 66.615 
	L 95.315, 66.544 
	L 94.961, 66.544 
" />
<path d="M 95.174, 66.543 
	L 95.173, 66.544 
	L 98.220, 65.623 
" />
<path d="M 98.434, 65.906 
	L 98.433, 65.906 
	L 95.528, 66.686 
" />
<path d="M 95.599, 66.969 
	L 95.598, 66.969 
	L 98.646, 66.119 
" />
<path d="M 98.788, 66.331 
	L 98.787, 66.331 
	L 95.457, 67.324 
" />
<path d="M 95.245, 67.677 
	L 95.244, 67.678 
	L 99.000, 66.615 
" />
<path d="M 99.142, 66.898 
	L 99.142, 66.898 
	L 95.102, 68.032 
" />
<path d="M 94.890, 68.386 
	L 94.890, 68.387 
	L 99.283, 67.111 
" />
<path d="M 99.426, 67.394 
	L 99.425, 67.394 
	L 94.677, 68.741 
" />
<path d="M 94.465, 69.094 
	L 94.465, 69.095 
	L 99.496, 67.678 
" />
<path d="M 99.639, 67.890 
	L 99.638, 67.890 
	L 94.252, 69.450 
" />
<path d="M 94.111, 69.803 
	L 94.110, 69.804 
	L 99.709, 68.174 
" />
<path d="M 99.780, 68.457 
	L 99.780, 68.457 
	L 93.898, 70.158 
" />
<path d="M 93.686, 70.512 
	L 93.685, 70.513 
	L 99.850, 68.741 
" />
<path d="M 99.993, 69.591 
	L 99.992, 69.591 
	L 87.378, 73.205 
" />
<path d="M 87.520, 73.488 
	L 87.520, 73.489 
	L 99.992, 69.875 
" />
<path d="M 99.993, 70.228 
	L 99.992, 70.229 
	L 87.661, 73.702 
" />
<path d="M 87.804, 73.984 
	L 87.803, 73.985 
	L 99.992, 70.513 
" />
<path d="M 99.993, 70.795 
	L 99.992, 70.796 
	L 88.016, 74.198 
" />
<path d="M 88.229, 74.480 
	L 88.228, 74.481 
	L 99.921, 71.079 
" />
<path d="M 99.922, 71.433 
	L 99.921, 71.434 
	L 88.441, 74.694 
" />
<path d="M 88.654, 74.906 
	L 88.654, 74.906 
	L 99.850, 71.717 
" />
<path d="M 99.780, 72.071 
	L 99.780, 72.072 
	L 88.866, 75.119 
" />
<path d="M 89.150, 75.402 
	L 89.150, 75.402 
	L 99.638, 72.355 
" />
<path d="M 99.497, 72.709 
	L 99.496, 72.709 
	L 89.433, 75.615 
" />
<path d="M 89.717, 75.827 
	L 89.717, 75.827 
	L 99.354, 73.064 
" />
<path d="M 99.213, 73.417 
	L 99.213, 73.418 
	L 90.071, 76.040 
" />
<path d="M 90.426, 76.181 
	L 90.425, 76.182 
	L 99.000, 73.772 
" />
<path d="M 98.717, 74.126 
	L 98.717, 74.127 
	L 90.850, 76.394 
" />
<path d="M 91.276, 76.535 
	L 91.276, 76.536 
	L 98.433, 74.552 
" />
<path d="M 98.009, 74.906 
	L 98.008, 74.906 
	L 91.843, 76.678 
" />
<path d="M 92.481, 76.819 
	L 92.480, 76.820 
	L 97.583, 75.331 
" />
<path d="M 96.875, 75.827 
	L 96.874, 75.827 
	L 93.331, 76.890 
" />
<path d="M 93.261, 71.079 
	L 93.260, 71.079 
	L 93.472, 70.867 
" />
<path d="M 93.261, 71.079 
	L 93.260, 71.079 
	L 92.906, 71.009 
" />
<path d="M 92.694, 70.795 
	L 92.693, 70.796 
	L 87.024, 72.426 
" />
<path d="M 86.953, 72.142 
	L 86.953, 72.142 
	L 92.622, 70.513 
" />
<path d="M 92.835, 70.157 
	L 92.835, 70.158 
	L 86.882, 71.859 
" />
<path d="M 86.812, 71.575 
	L 86.811, 71.576 
	L 93.047, 69.804 
" />
<path d="M 93.261, 69.449 
	L 93.260, 69.450 
	L 86.740, 71.292 
" />
<path d="M 86.741, 71.008 
	L 86.740, 71.009 
	L 93.402, 69.095 
" />
<path d="M 93.615, 68.740 
	L 93.614, 68.741 
	L 86.669, 70.725 
" />
<path d="M 86.670, 70.441 
	L 86.669, 70.442 
	L 93.827, 68.387 
" />
<path d="M 94.040, 68.032 
	L 94.039, 68.032 
	L 86.669, 70.087 
" />
<path d="M 86.670, 69.803 
	L 86.669, 69.804 
	L 94.181, 67.678 
" />
<path d="M 94.394, 67.323 
	L 94.394, 67.324 
	L 86.669, 69.520 
" />
<path d="M 86.741, 69.236 
	L 86.740, 69.237 
	L 94.606, 66.969 
" />
<path d="M 74.339, 67.181 
	L 74.339, 67.182 
	L 73.630, 66.119 
	L 72.709, 65.127 
	L 71.646, 64.418 
	L 70.441, 63.851 
	L 69.165, 63.568 
	L 67.890, 63.568 
	L 66.543, 63.780 
	L 65.339, 64.205 
	L 64.276, 64.914 
	L 63.283, 65.835 
" />
<path d="M 63.283, 65.835 
	L 62.575, 66.898 
	L 62.008, 68.103 
	L 61.724, 69.379 
	L 61.724, 70.654 
	L 61.937, 71.930 
	L 62.362, 73.205 
	L 63.071, 74.268 
	L 63.992, 75.261 
	L 65.055, 75.969 
	L 66.260, 76.536 
	L 67.535, 76.820 
" />
<path d="M 67.535, 76.820 
	L 68.811, 76.820 
	L 70.157, 76.607 
	L 71.362, 76.182 
	L 72.425, 75.473 
	L 73.417, 74.552 
	L 74.126, 73.489 
	L 74.693, 72.284 
	L 74.976, 71.009 
	L 74.976, 69.733 
	L 74.764, 68.387 
	L 74.339, 67.182 
" />
<path d="M 74.339, 67.182 
" />
<path d="M 72.426, 67.535 
	L 72.425, 67.536 
	L 71.717, 66.686 
	L 70.866, 66.048 
	L 69.874, 65.623 
	L 68.811, 65.339 
	L 67.748, 65.410 
	L 66.685, 65.623 
	L 65.693, 66.119 
	L 64.843, 66.827 
	L 64.205, 67.678 
	L 63.780, 68.670 
" />
<path d="M 63.780, 68.670 
	L 63.567, 69.733 
	L 63.567, 70.796 
	L 63.780, 71.859 
	L 64.276, 72.851 
	L 64.984, 73.702 
	L 65.835, 74.339 
	L 66.827, 74.765 
	L 67.890, 74.977 
	L 68.953, 74.977 
	L 70.016, 74.765 
	L 71.008, 74.268 
" />
<path d="M 71.008, 74.268 
	L 71.858, 73.560 
	L 72.496, 72.709 
	L 72.921, 71.717 
	L 73.134, 70.654 
	L 73.134, 69.591 
	L 72.921, 68.528 
	L 72.425, 67.536 
" />
<path d="M 72.639, 65.055 
	L 72.638, 65.056 
	L 74.976, 69.804 
" />
<path d="M 75.048, 70.441 
	L 75.047, 70.442 
	L 72.142, 64.702 
" />
<path d="M 71.646, 64.417 
	L 71.646, 64.418 
	L 74.976, 71.009 
" />
<path d="M 74.906, 71.504 
	L 74.906, 71.505 
	L 71.220, 64.135 
" />
<path d="M 70.796, 63.992 
	L 70.795, 63.993 
	L 74.764, 71.930 
" />
<path d="M 74.694, 72.283 
	L 74.693, 72.284 
	L 70.441, 63.851 
" />
<path d="M 70.016, 63.709 
	L 70.016, 63.709 
	L 74.551, 72.709 
" />
<path d="M 74.410, 72.992 
	L 74.409, 72.993 
	L 69.661, 63.639 
" />
<path d="M 69.308, 63.567 
	L 69.307, 63.568 
	L 74.197, 73.347 
" />
<path d="M 74.056, 73.630 
	L 74.055, 73.631 
	L 68.953, 63.568 
" />
<path d="M 68.670, 63.496 
	L 68.669, 63.497 
	L 73.913, 73.914 
" />
<path d="M 73.702, 74.197 
	L 73.701, 74.198 
	L 68.315, 63.497 
" />
<path d="M 68.032, 63.496 
	L 68.032, 63.497 
	L 73.488, 74.410 
" />
<path d="M 73.276, 74.693 
	L 73.276, 74.694 
	L 67.677, 63.568 
" />
<path d="M 67.394, 63.567 
	L 67.394, 63.568 
	L 73.063, 74.906 
" />
<path d="M 72.851, 75.118 
	L 72.850, 75.119 
	L 67.110, 63.639 
" />
<path d="M 66.827, 63.709 
	L 66.827, 63.709 
	L 72.638, 75.331 
" />
<path d="M 72.426, 75.472 
	L 72.425, 75.473 
	L 66.543, 63.780 
" />
<path d="M 66.261, 63.850 
	L 66.260, 63.851 
	L 72.213, 75.686 
" />
<path d="M 71.930, 75.827 
	L 71.929, 75.827 
	L 69.236, 70.442 
	L 69.236, 70.087 
	L 68.953, 69.946 
	L 65.976, 63.922 
" />
<path d="M 65.694, 64.063 
	L 65.693, 64.064 
	L 68.598, 69.804 
" />
<path d="M 68.953, 69.945 
	L 68.953, 69.946 
	L 64.984, 68.599 
	L 64.630, 68.599 
	L 64.417, 68.883 
	L 64.417, 68.953 
	L 64.417, 69.237 
	L 64.701, 69.450 
	L 68.669, 70.796 
	L 69.024, 70.796 
	L 69.236, 70.513 
	L 69.236, 70.442 
" />
<path d="M 69.236, 70.442 
" />
<path d="M 69.095, 70.724 
	L 69.094, 70.725 
	L 71.717, 75.969 
" />
<path d="M 71.434, 76.110 
	L 71.433, 76.111 
	L 68.811, 70.796 
" />
<path d="M 68.387, 70.724 
	L 68.386, 70.725 
	L 71.220, 76.253 
" />
<path d="M 70.938, 76.323 
	L 70.937, 76.324 
	L 68.032, 70.583 
" />
<path d="M 67.607, 70.441 
	L 67.606, 70.442 
	L 70.654, 76.465 
" />
<path d="M 70.371, 76.535 
	L 70.370, 76.536 
	L 67.252, 70.300 
" />
<path d="M 66.898, 70.157 
	L 66.898, 70.158 
	L 70.087, 76.607 
" />
<path d="M 69.804, 76.677 
	L 69.803, 76.678 
	L 66.472, 70.087 
" />
<path d="M 66.119, 69.945 
	L 66.118, 69.946 
	L 69.520, 76.749 
" />
<path d="M 69.237, 76.819 
	L 69.236, 76.820 
	L 65.693, 69.804 
" />
<path d="M 65.339, 69.661 
	L 65.339, 69.662 
	L 68.953, 76.820 
" />
<path d="M 68.599, 76.890 
	L 68.598, 76.890 
	L 64.913, 69.520 
" />
<path d="M 64.560, 69.378 
	L 64.559, 69.379 
	L 68.315, 76.890 
" />
<path d="M 67.961, 76.819 
	L 67.961, 76.820 
	L 62.787, 66.544 
" />
<path d="M 62.576, 66.827 
	L 62.575, 66.827 
	L 67.606, 76.820 
" />
<path d="M 67.324, 76.748 
	L 67.323, 76.749 
	L 62.433, 67.111 
" />
<path d="M 62.292, 67.394 
	L 62.291, 67.394 
	L 66.969, 76.678 
" />
<path d="M 66.544, 76.606 
	L 66.543, 76.607 
	L 62.150, 67.749 
" />
<path d="M 62.009, 68.173 
	L 62.008, 68.174 
	L 66.189, 76.536 
" />
<path d="M 65.835, 76.323 
	L 65.835, 76.324 
	L 61.866, 68.528 
" />
<path d="M 61.796, 69.024 
	L 61.795, 69.024 
	L 65.409, 76.182 
" />
<path d="M 64.914, 75.898 
	L 64.913, 75.898 
	L 61.724, 69.520 
" />
<path d="M 61.654, 70.087 
	L 61.654, 70.087 
	L 64.488, 75.615 
" />
<path d="M 63.922, 75.189 
	L 63.921, 75.190 
	L 61.724, 70.725 
" />
<path d="M 61.867, 71.646 
	L 61.866, 71.646 
	L 63.283, 74.552 
" />
<path d="M 64.418, 69.094 
	L 64.417, 69.095 
	L 63.000, 66.261 
" />
<path d="M 63.142, 65.976 
	L 63.142, 65.977 
	L 64.559, 68.741 
" />
<path d="M 64.772, 68.598 
	L 64.772, 68.599 
	L 63.354, 65.764 
" />
<path d="M 63.568, 65.551 
	L 63.567, 65.552 
	L 65.126, 68.670 
" />
<path d="M 65.552, 68.740 
	L 65.551, 68.741 
	L 63.780, 65.339 
" />
<path d="M 63.993, 65.126 
	L 63.992, 65.127 
	L 65.906, 68.883 
" />
<path d="M 66.261, 69.024 
	L 66.260, 69.024 
	L 64.205, 64.914 
" />
<path d="M 64.489, 64.772 
	L 64.488, 64.772 
	L 66.685, 69.166 
" />
<path d="M 67.040, 69.307 
	L 67.039, 69.308 
	L 64.701, 64.631 
" />
<path d="M 64.985, 64.417 
	L 64.984, 64.418 
	L 67.465, 69.379 
" />
<path d="M 67.820, 69.520 
	L 67.819, 69.520 
	L 65.197, 64.276 
" />
<path d="M 65.481, 64.205 
	L 65.480, 64.205 
	L 68.244, 69.662 
" />
<path d="M 74.906, 68.953 
	L 74.906, 68.953 
	L 73.276, 65.694 
" />
<path d="M 76.324, 97.016 
	L 76.323, 97.016 
	L 72.071, 99.284 
	L 67.890, 101.906 
	L 63.921, 104.670 
	L 60.094, 107.717 
	L 56.480, 110.906 
	L 53.008, 114.379 
	L 49.748, 118.064 
	L 46.701, 121.890 
	L 43.937, 125.859 
	L 41.386, 130.040 
" />
<path d="M 41.386, 130.040 
	L 39.047, 134.292 
	L 36.992, 138.686 
	L 35.220, 143.221 
	L 33.661, 147.898 
	L 32.386, 152.576 
	L 31.394, 157.394 
	L 30.685, 162.213 
	L 30.260, 167.032 
	L 30.118, 171.922 
	L 30.260, 176.812 
	L 30.685, 181.631 
" />
<path d="M 30.685, 181.631 
	L 31.394, 186.520 
	L 32.386, 191.268 
	L 33.661, 195.946 
	L 35.220, 200.623 
	L 36.992, 205.158 
	L 39.047, 209.552 
	L 41.386, 213.875 
	L 43.937, 217.985 
	L 46.701, 222.024 
	L 49.748, 225.851 
	L 53.008, 229.465 
" />
<path d="M 53.008, 229.465 
	L 56.480, 232.938 
	L 60.094, 236.127 
	L 63.921, 239.174 
	L 67.890, 242.009 
	L 72.071, 244.560 
	L 76.323, 246.828 
	L 80.787, 248.883 
	L 85.323, 250.725 
	L 89.929, 252.284 
	L 94.677, 253.489 
	L 99.425, 254.481 
" />
<path d="M 99.425, 254.481 
	L 104.244, 255.190 
	L 109.134, 255.615 
	L 114.024, 255.757 
	L 118.843, 255.615 
	L 123.732, 255.190 
	L 128.551, 254.481 
	L 133.299, 253.489 
	L 138.047, 252.284 
	L 142.654, 250.725 
	L 147.189, 248.883 
" />
<path d="M 147.189, 248.883 
	L 151.654, 246.828 
	L 155.906, 244.560 
	L 160.087, 242.009 
	L 164.055, 239.174 
	L 167.882, 236.127 
	L 171.496, 232.938 
	L 174.969, 229.465 
	L 178.228, 225.851 
	L 181.276, 222.024 
	L 184.039, 217.985 
" />
<path d="M 184.039, 217.985 
	L 186.591, 213.875 
	L 188.929, 209.552 
	L 190.984, 205.158 
	L 192.756, 200.623 
	L 194.315, 195.946 
	L 195.591, 191.268 
	L 196.583, 186.520 
	L 197.291, 181.631 
	L 197.717, 176.812 
	L 197.858, 171.922 
" />
<path d="M 197.858, 171.922 
	L 197.717, 167.032 
	L 197.291, 162.213 
	L 196.583, 157.394 
	L 195.591, 152.576 
	L 194.315, 147.898 
	L 192.756, 143.221 
	L 190.984, 138.686 
	L 188.929, 134.292 
	L 186.591, 130.040 
	L 184.039, 125.859 
" />
<path d="M 184.039, 125.859 
	L 181.276, 121.890 
	L 178.228, 118.064 
	L 174.969, 114.379 
	L 171.496, 110.906 
	L 167.882, 107.717 
	L 164.055, 104.670 
	L 160.087, 101.906 
	L 155.906, 99.284 
	L 151.654, 97.016 
	L 147.189, 94.961 
" />
<path d="M 147.189, 94.961 
	L 142.654, 93.119 
	L 138.047, 91.631 
	L 133.299, 90.355 
	L 128.551, 89.363 
	L 123.732, 88.654 
	L 118.843, 88.229 
	L 113.953, 88.087 
	L 109.134, 88.229 
	L 104.244, 88.654 
	L 99.425, 89.363 
	L 94.677, 90.355 
" />
<path d="M 94.677, 90.355 
	L 89.929, 91.631 
	L 85.323, 93.119 
	L 80.787, 94.961 
	L 76.323, 97.016 
" />
<path d="M 77.528, 108.354 
	L 77.528, 108.355 
	L 78.307, 107.930 
	L 79.512, 107.576 
	L 80.858, 107.434 
	L 82.134, 107.576 
	L 82.913, 107.788 
" />
<path d="M 85.324, 109.134 
	L 85.323, 109.135 
	L 85.535, 109.347 
	L 86.386, 110.410 
	L 87.024, 111.544 
	L 87.378, 112.820 
	L 87.520, 114.095 
" />
<path d="M 86.953, 116.787 
	L 86.953, 116.788 
	L 86.386, 117.780 
	L 85.535, 118.843 
	L 84.543, 119.623 
	L 83.409, 120.261 
	L 82.913, 120.402 
" />
<path d="M 80.150, 120.685 
	L 80.150, 120.686 
	L 79.512, 120.615 
	L 78.307, 120.261 
	L 77.102, 119.623 
	L 76.110, 118.843 
	L 75.472, 117.993 
" />
<path d="M 74.339, 115.512 
	L 74.339, 115.513 
	L 74.268, 115.371 
	L 74.197, 114.095 
	L 74.268, 112.820 
	L 74.693, 111.544 
	L 75.331, 110.410 
	L 75.472, 110.198 
" />
<path d="M 77.387, 129.685 
	L 77.386, 129.686 
	L 74.480, 132.379 
	L 71.717, 135.355 
	L 69.236, 138.402 
	L 66.969, 141.733 
	L 64.913, 145.135 
	L 63.142, 148.678 
	L 61.583, 152.363 
	L 60.378, 156.190 
	L 59.386, 160.016 
	L 58.677, 163.985 
" />
<path d="M 58.677, 163.985 
	L 58.252, 167.953 
	L 58.110, 171.922 
	L 58.252, 175.891 
	L 58.677, 179.859 
	L 59.386, 183.828 
	L 60.378, 187.654 
	L 61.583, 191.481 
	L 63.142, 195.166 
	L 64.913, 198.709 
	L 66.969, 202.182 
	L 69.236, 205.442 
" />
<path d="M 69.236, 205.442 
	L 71.717, 208.560 
	L 74.480, 211.465 
	L 77.386, 214.158 
	L 80.504, 216.709 
	L 83.764, 218.977 
	L 87.165, 220.961 
	L 90.780, 222.804 
	L 94.465, 224.292 
	L 98.220, 225.568 
	L 102.118, 226.560 
	L 106.016, 227.268 
" />
<path d="M 106.016, 227.268 
	L 109.984, 227.694 
	L 114.024, 227.835 
	L 117.992, 227.694 
	L 121.961, 227.268 
	L 125.858, 226.560 
	L 129.756, 225.568 
	L 133.512, 224.292 
	L 137.197, 222.804 
	L 140.811, 220.961 
	L 144.213, 218.977 
" />
<path d="M 144.213, 218.977 
	L 147.472, 216.709 
	L 150.591, 214.158 
	L 153.496, 211.465 
	L 156.260, 208.560 
	L 158.740, 205.442 
	L 161.008, 202.182 
	L 163.063, 198.709 
	L 164.835, 195.166 
	L 166.394, 191.481 
	L 167.598, 187.654 
" />
<path d="M 167.598, 187.654 
	L 168.591, 183.828 
	L 169.299, 179.859 
	L 169.724, 175.891 
	L 169.866, 171.922 
	L 169.724, 167.953 
	L 169.299, 163.985 
	L 168.591, 160.016 
	L 167.598, 156.190 
	L 166.394, 152.363 
	L 164.835, 148.678 
" />
<path d="M 164.835, 148.678 
	L 163.063, 145.135 
	L 161.008, 141.733 
	L 158.740, 138.402 
	L 156.260, 135.355 
	L 153.496, 132.379 
	L 150.591, 129.686 
	L 147.472, 127.205 
	L 144.213, 124.938 
	L 140.811, 122.883 
	L 137.197, 121.111 
" />
<path d="M 137.197, 121.111 
	L 133.512, 119.552 
	L 129.756, 118.276 
	L 125.858, 117.284 
	L 121.961, 116.576 
	L 117.992, 116.150 
	L 113.953, 116.009 
	L 109.984, 116.150 
	L 106.016, 116.576 
	L 102.118, 117.284 
	L 98.220, 118.276 
" />
<path d="M 98.220, 118.276 
	L 94.465, 119.552 
	L 90.780, 121.111 
	L 87.165, 122.883 
	L 83.764, 124.938 
	L 80.504, 127.205 
	L 77.386, 129.686 
" />
<path d="M 94.253, 152.150 
	L 94.252, 152.150 
	L 92.409, 154.205 
	L 90.780, 156.402 
	L 89.362, 158.741 
	L 88.157, 161.221 
	L 87.236, 163.843 
	L 86.598, 166.465 
	L 86.173, 169.158 
	L 86.032, 171.922 
	L 86.173, 174.686 
	L 86.598, 177.379 
" />
<path d="M 86.598, 177.379 
	L 87.236, 180.072 
	L 88.157, 182.623 
	L 89.362, 185.103 
	L 90.780, 187.442 
	L 92.409, 189.639 
	L 94.252, 191.694 
	L 96.236, 193.536 
	L 98.433, 195.166 
	L 100.843, 196.583 
	L 103.323, 197.717 
	L 105.874, 198.639 
" />
<path d="M 105.874, 198.639 
	L 108.567, 199.347 
	L 111.260, 199.772 
	L 113.953, 199.843 
	L 116.717, 199.772 
	L 119.409, 199.347 
	L 122.102, 198.639 
	L 124.654, 197.717 
	L 127.134, 196.583 
	L 129.543, 195.166 
	L 131.740, 193.536 
" />
<path d="M 131.740, 193.536 
	L 133.724, 191.694 
	L 135.567, 189.639 
	L 137.197, 187.442 
	L 138.614, 185.103 
	L 139.819, 182.623 
	L 140.740, 180.072 
	L 141.378, 177.379 
	L 141.803, 174.686 
	L 141.945, 171.922 
	L 141.803, 169.158 
" />
<path d="M 141.803, 169.158 
	L 141.378, 166.465 
	L 140.740, 163.843 
	L 139.819, 161.221 
	L 138.614, 158.741 
	L 137.197, 156.402 
	L 135.567, 154.205 
	L 133.724, 152.150 
	L 131.740, 150.308 
	L 129.543, 148.678 
	L 127.134, 147.261 
" />
<path d="M 127.134, 147.261 
	L 124.654, 146.127 
	L 122.102, 145.205 
	L 119.409, 144.497 
	L 116.717, 144.142 
	L 114.024, 144.001 
	L 111.260, 144.142 
	L 108.567, 144.497 
	L 105.874, 145.205 
	L 103.323, 146.127 
	L 100.843, 147.261 
" />
<path d="M 100.843, 147.261 
	L 98.433, 148.678 
	L 96.236, 150.308 
	L 94.252, 152.150 
" />
<path d="M 109.064, 166.961 
	L 109.063, 166.961 
	L 108.213, 168.024 
	L 107.504, 169.229 
	L 107.150, 170.576 
	L 107.008, 171.922 
	L 107.150, 173.268 
	L 107.504, 174.615 
	L 108.213, 175.820 
	L 109.063, 176.883 
	L 110.126, 177.733 
" />
<path d="M 110.126, 177.733 
	L 111.331, 178.371 
	L 112.606, 178.796 
	L 113.953, 178.938 
	L 115.370, 178.796 
	L 116.646, 178.371 
	L 117.850, 177.733 
	L 118.913, 176.883 
	L 119.764, 175.820 
	L 120.472, 174.615 
	L 120.827, 173.268 
" />
<path d="M 120.827, 173.268 
	L 120.969, 171.922 
	L 120.827, 170.576 
	L 120.472, 169.229 
	L 119.764, 168.024 
	L 118.913, 166.961 
	L 117.850, 166.111 
	L 116.646, 165.473 
	L 115.370, 165.048 
	L 114.024, 164.906 
	L 112.606, 165.048 
" />
<path d="M 112.606, 165.048 
	L 111.331, 165.473 
	L 110.126, 166.111 
	L 109.063, 166.961 
" />
<path d="M 114.024, 263.622 
	L 114.024, 263.623 
	L 114.024, 0.001 
" />
<path d="M 218.835, 0.000 
	L 218.835, 0.001 
	L 218.835, 263.623 
" />
<path d="M 227.977, 255.756 
	L 227.976, 255.757 
	L 0.000, 255.757 
" />
<path d="M 9.142, 263.622 
	L 9.142, 263.623 
	L 9.142, 0.001 
" />
<path d="M 0.001, 171.921 
	L 0.000, 171.922 
	L 227.976, 171.922 
" />
</g><g style="stroke:rgb(255,255,255); fill:none; stroke-width:0.100mm" >
</g>
</svg>
