<?xml version="1.0" encoding="UTF-8" standalone="no" ?>
<svg width="100%" height="100%" viewBox="0 0 227.977 263.623" xmlns="http://www.w3.org/2000/svg"><g>
</g><g style="stroke:rgb(0,0,0); fill:none; stroke-width:1.000mm" >
</g><g style="stroke:rgb(0,0,0); fill:none; stroke-width:0.100mm" >
<path d="M 141.662, 72.142 
	L 141.661, 72.142 
	L 135.850, 70.229 
" />
<path d="M 135.497, 70.370 
	L 135.496, 70.371 
	L 141.591, 72.426 
" />
<path d="M 141.450, 72.709 
	L 141.449, 72.709 
	L 135.142, 70.583 
	L 138.898, 68.670 
	L 139.110, 68.457 
	L 139.110, 68.103 
	L 139.039, 68.032 
	L 138.827, 67.820 
	L 138.543, 67.890 
	L 134.717, 69.733 
	L 134.504, 69.946 
	L 134.575, 70.300 
" />
<path d="M 134.575, 70.300 
	L 134.575, 70.371 
	L 128.906, 68.457 
" />
<path d="M 128.835, 68.740 
	L 128.835, 68.741 
	L 141.378, 72.922 
" />
<path d="M 141.237, 73.205 
	L 141.236, 73.205 
	L 128.764, 69.024 
" />
<path d="M 128.765, 69.094 
	L 128.764, 69.095 
	L 128.764, 70.371 
	L 128.976, 71.646 
	L 129.402, 72.922 
	L 130.110, 73.985 
	L 131.032, 74.977 
	L 132.095, 75.686 
	L 133.299, 76.253 
	L 134.575, 76.536 
	L 135.850, 76.607 
	L 137.126, 76.394 
" />
<path d="M 137.126, 76.394 
	L 138.402, 75.898 
	L 139.465, 75.190 
	L 140.457, 74.339 
	L 141.165, 73.205 
	L 141.732, 72.072 
	L 142.016, 70.796 
	L 142.087, 69.450 
	L 141.803, 68.174 
	L 141.378, 66.969 
	L 140.669, 65.835 
	L 139.748, 64.914 
" />
<path d="M 139.748, 64.914 
	L 138.685, 64.135 
	L 137.551, 63.568 
	L 136.276, 63.284 
	L 134.929, 63.284 
	L 133.654, 63.497 
	L 132.449, 63.922 
	L 131.315, 64.631 
	L 130.394, 65.552 
	L 129.614, 66.615 
	L 129.047, 67.820 
	L 128.764, 69.095 
" />
<path d="M 128.764, 69.095 
" />
<path d="M 128.765, 69.307 
	L 128.764, 69.308 
	L 141.095, 73.489 
" />
<path d="M 140.883, 73.701 
	L 140.882, 73.702 
	L 128.764, 69.591 
" />
<path d="M 128.694, 69.945 
	L 128.693, 69.946 
	L 140.740, 73.914 
" />
<path d="M 140.528, 74.197 
	L 140.528, 74.198 
	L 128.764, 70.229 
" />
<path d="M 128.765, 70.512 
	L 128.764, 70.513 
	L 140.315, 74.410 
" />
<path d="M 140.103, 74.622 
	L 140.102, 74.623 
	L 128.764, 70.867 
" />
<path d="M 128.835, 71.150 
	L 128.835, 71.150 
	L 139.890, 74.835 
" />
<path d="M 139.607, 75.118 
	L 139.606, 75.119 
	L 128.906, 71.505 
" />
<path d="M 128.977, 71.787 
	L 128.976, 71.788 
	L 139.323, 75.331 
" />
<path d="M 139.040, 75.472 
	L 139.039, 75.473 
	L 129.118, 72.142 
" />
<path d="M 129.261, 72.496 
	L 129.260, 72.497 
	L 138.756, 75.686 
" />
<path d="M 138.402, 75.898 
	L 138.402, 75.898 
	L 129.402, 72.851 
" />
<path d="M 129.615, 73.205 
	L 129.614, 73.205 
	L 138.047, 76.040 
" />
<path d="M 137.623, 76.252 
	L 137.622, 76.253 
	L 129.827, 73.631 
" />
<path d="M 130.111, 73.984 
	L 130.110, 73.985 
	L 137.126, 76.394 
" />
<path d="M 136.560, 76.465 
	L 136.559, 76.465 
	L 130.465, 74.410 
" />
<path d="M 130.961, 74.906 
	L 130.961, 74.906 
	L 135.921, 76.607 
" />
<path d="M 135.072, 76.606 
	L 135.071, 76.607 
	L 131.598, 75.402 
" />
<path d="M 131.670, 72.992 
	L 131.669, 72.993 
	L 132.449, 73.772 
	L 133.370, 74.339 
	L 134.362, 74.623 
	L 135.425, 74.765 
	L 136.559, 74.623 
	L 137.551, 74.268 
	L 138.472, 73.702 
	L 139.252, 72.922 
	L 139.819, 72.001 
	L 140.102, 70.938 
" />
<path d="M 140.102, 70.938 
	L 140.244, 69.875 
	L 140.102, 68.812 
	L 139.748, 67.749 
	L 139.110, 66.827 
	L 138.402, 66.119 
	L 137.409, 65.552 
	L 136.417, 65.198 
	L 135.354, 65.056 
	L 134.291, 65.198 
	L 133.228, 65.623 
	L 132.307, 66.190 
" />
<path d="M 132.307, 66.190 
	L 131.598, 66.969 
	L 131.032, 67.890 
	L 130.677, 68.883 
	L 130.535, 70.016 
	L 130.677, 71.079 
	L 131.032, 72.072 
	L 131.669, 72.993 
" />
<path d="M 134.576, 70.370 
	L 134.575, 70.371 
	L 134.858, 70.583 
	L 135.142, 70.583 
" />
<path d="M 135.001, 69.591 
	L 135.000, 69.591 
	L 129.118, 67.607 
" />
<path d="M 129.261, 67.394 
	L 129.260, 67.394 
	L 135.354, 69.450 
" />
<path d="M 135.709, 69.236 
	L 135.709, 69.237 
	L 129.331, 67.111 
" />
<path d="M 129.473, 66.827 
	L 129.472, 66.827 
	L 136.063, 69.095 
" />
<path d="M 136.489, 68.882 
	L 136.488, 68.883 
	L 129.614, 66.615 
" />
<path d="M 129.757, 66.331 
	L 129.756, 66.331 
	L 136.843, 68.670 
" />
<path d="M 137.198, 68.528 
	L 137.197, 68.528 
	L 129.969, 66.119 
" />
<path d="M 130.111, 65.835 
	L 130.110, 65.835 
	L 137.551, 68.316 
" />
<path d="M 137.906, 68.173 
	L 137.906, 68.174 
	L 130.323, 65.623 
" />
<path d="M 130.536, 65.409 
	L 130.535, 65.410 
	L 138.260, 67.961 
" />
<path d="M 138.686, 67.819 
	L 138.685, 67.820 
	L 130.748, 65.127 
" />
<path d="M 130.961, 64.913 
	L 130.961, 64.914 
	L 141.945, 68.599 
" />
<path d="M 141.875, 68.315 
	L 141.874, 68.316 
	L 131.244, 64.702 
" />
<path d="M 131.528, 64.488 
	L 131.528, 64.489 
	L 141.803, 67.961 
" />
<path d="M 141.662, 67.606 
	L 141.661, 67.607 
	L 131.811, 64.276 
" />
<path d="M 132.095, 64.134 
	L 132.095, 64.135 
	L 141.520, 67.253 
" />
<path d="M 141.379, 66.898 
	L 141.378, 66.898 
	L 132.449, 63.922 
" />
<path d="M 132.875, 63.780 
	L 132.874, 63.780 
	L 141.165, 66.544 
" />
<path d="M 140.883, 66.118 
	L 140.882, 66.119 
	L 133.299, 63.568 
" />
<path d="M 133.796, 63.425 
	L 133.795, 63.426 
	L 140.598, 65.764 
" />
<path d="M 140.245, 65.339 
	L 140.244, 65.339 
	L 134.362, 63.355 
" />
<path d="M 135.001, 63.283 
	L 135.000, 63.284 
	L 139.748, 64.843 
" />
<path d="M 138.969, 64.276 
	L 138.969, 64.276 
	L 135.921, 63.284 
" />
<path d="M 136.205, 70.016 
	L 136.205, 70.016 
	L 141.803, 71.859 
" />
<path d="M 141.875, 71.575 
	L 141.874, 71.576 
	L 136.630, 69.804 
" />
<path d="M 136.985, 69.661 
	L 136.984, 69.662 
	L 141.945, 71.292 
" />
<path d="M 141.946, 71.008 
	L 141.945, 71.009 
	L 137.339, 69.450 
" />
<path d="M 137.694, 69.307 
	L 137.693, 69.308 
	L 142.016, 70.725 
" />
<path d="M 142.016, 70.441 
	L 142.016, 70.442 
	L 138.047, 69.095 
" />
<path d="M 138.402, 68.953 
	L 138.402, 68.953 
	L 142.087, 70.158 
" />
<path d="M 142.087, 69.874 
	L 142.087, 69.875 
	L 138.756, 68.741 
" />
<path d="M 139.111, 68.528 
	L 139.110, 68.528 
	L 142.087, 69.591 
" />
<path d="M 142.016, 69.236 
	L 142.016, 69.237 
	L 139.181, 68.245 
" />
<path d="M 138.969, 67.890 
	L 138.969, 67.890 
	L 142.016, 68.953 
" />
<path d="M 134.646, 69.803 
	L 134.646, 69.804 
	L 129.047, 67.890 
" />
<path d="M 128.977, 68.173 
	L 128.976, 68.174 
	L 134.504, 70.016 
" />
<path d="M 98.009, 70.016 
	L 98.008, 70.016 
	L 93.756, 70.158 
" />
<path d="M 94.040, 69.874 
	L 94.039, 69.875 
	L 97.866, 69.733 
" />
<path d="M 97.796, 69.449 
	L 97.795, 69.450 
	L 94.323, 69.591 
" />
<path d="M 94.394, 69.449 
	L 94.394, 69.450 
	L 94.535, 69.166 
	L 94.394, 68.883 
	L 94.323, 68.812 
	L 94.039, 68.741 
	L 93.756, 68.812 
	L 90.850, 71.930 
	L 90.780, 72.213 
	L 90.921, 72.497 
	L 90.992, 72.568 
	L 84.969, 72.780 
" />
<path d="M 84.969, 72.780 
" />
<path d="M 84.969, 73.063 
	L 84.969, 73.064 
	L 98.150, 72.639 
" />
<path d="M 98.150, 72.921 
	L 98.150, 72.922 
	L 85.039, 73.347 
" />
<path d="M 85.040, 73.417 
	L 85.039, 73.418 
	L 85.465, 74.623 
	L 86.102, 75.757 
	L 87.024, 76.749 
	L 88.016, 77.528 
	L 89.220, 78.095 
	L 90.496, 78.450 
	L 91.772, 78.520 
	L 93.047, 78.379 
	L 94.323, 77.953 
	L 95.457, 77.316 
" />
<path d="M 95.457, 77.316 
	L 96.449, 76.394 
	L 97.228, 75.402 
	L 97.795, 74.198 
	L 98.150, 72.922 
	L 98.220, 71.646 
	L 98.079, 70.371 
	L 97.654, 69.095 
	L 96.945, 67.961 
	L 96.095, 66.969 
	L 95.102, 66.190 
	L 93.898, 65.623 
" />
<path d="M 93.898, 65.623 
	L 92.622, 65.268 
	L 91.346, 65.198 
	L 90.000, 65.410 
	L 88.795, 65.764 
	L 87.661, 66.473 
	L 86.669, 67.324 
	L 85.890, 68.387 
	L 85.323, 69.520 
	L 84.969, 70.796 
	L 84.898, 72.072 
	L 85.039, 73.418 
" />
<path d="M 85.039, 73.418 
" />
<path d="M 85.111, 73.630 
	L 85.110, 73.631 
	L 98.079, 73.205 
" />
<path d="M 98.009, 73.488 
	L 98.008, 73.489 
	L 85.181, 73.914 
" />
<path d="M 85.324, 74.197 
	L 85.323, 74.198 
	L 97.937, 73.772 
" />
<path d="M 97.867, 74.055 
	L 97.866, 74.056 
	L 85.394, 74.481 
" />
<path d="M 85.536, 74.764 
	L 85.535, 74.765 
	L 97.724, 74.339 
" />
<path d="M 97.654, 74.622 
	L 97.654, 74.623 
	L 85.677, 75.048 
" />
<path d="M 85.820, 75.331 
	L 85.819, 75.331 
	L 97.512, 74.906 
" />
<path d="M 97.300, 75.260 
	L 97.299, 75.261 
	L 86.032, 75.615 
" />
<path d="M 86.245, 75.898 
	L 86.244, 75.898 
	L 97.157, 75.544 
" />
<path d="M 96.946, 75.827 
	L 96.945, 75.827 
	L 86.457, 76.182 
" />
<path d="M 86.670, 76.465 
	L 86.669, 76.465 
	L 96.732, 76.111 
" />
<path d="M 96.450, 76.394 
	L 96.449, 76.394 
	L 86.953, 76.749 
" />
<path d="M 87.308, 77.032 
	L 87.307, 77.032 
	L 96.165, 76.678 
" />
<path d="M 95.812, 77.032 
	L 95.811, 77.032 
	L 87.661, 77.245 
" />
<path d="M 88.016, 77.528 
	L 88.016, 77.528 
	L 95.457, 77.316 
" />
<path d="M 94.961, 77.598 
	L 94.961, 77.599 
	L 88.512, 77.812 
" />
<path d="M 89.150, 78.095 
	L 89.150, 78.095 
	L 94.394, 77.883 
" />
<path d="M 93.615, 78.236 
	L 93.614, 78.237 
	L 89.929, 78.379 
" />
<path d="M 90.142, 76.465 
	L 90.142, 76.465 
	L 91.205, 76.678 
	L 92.268, 76.678 
	L 93.331, 76.394 
	L 94.252, 75.898 
	L 95.102, 75.190 
	L 95.740, 74.339 
	L 96.165, 73.347 
	L 96.378, 72.284 
	L 96.307, 71.150 
	L 96.095, 70.087 
" />
<path d="M 96.095, 70.087 
	L 95.528, 69.166 
	L 94.890, 68.316 
	L 93.969, 67.678 
	L 92.976, 67.253 
	L 91.913, 67.040 
	L 90.850, 67.111 
	L 89.787, 67.394 
	L 88.866, 67.890 
	L 88.016, 68.599 
	L 87.378, 69.450 
	L 86.953, 70.442 
" />
<path d="M 86.953, 70.442 
	L 86.740, 71.505 
	L 86.740, 72.568 
	L 87.024, 73.631 
	L 87.520, 74.552 
	L 88.228, 75.402 
	L 89.150, 76.040 
	L 90.142, 76.465 
" />
<path d="M 90.993, 72.567 
	L 90.992, 72.568 
	L 91.276, 72.709 
	L 91.559, 72.568 
	L 98.220, 72.355 
" />
<path d="M 98.221, 72.071 
	L 98.220, 72.072 
	L 91.843, 72.284 
" />
<path d="M 91.560, 72.567 
	L 91.559, 72.568 
	L 94.394, 69.450 
" />
<path d="M 94.536, 69.307 
	L 94.535, 69.308 
	L 97.654, 69.166 
" />
<path d="M 97.513, 68.882 
	L 97.512, 68.883 
	L 94.465, 69.024 
" />
<path d="M 94.182, 68.740 
	L 94.181, 68.741 
	L 97.370, 68.599 
" />
<path d="M 97.229, 68.386 
	L 97.228, 68.387 
	L 85.677, 68.741 
" />
<path d="M 85.820, 68.457 
	L 85.819, 68.457 
	L 97.016, 68.103 
" />
<path d="M 96.804, 67.819 
	L 96.803, 67.820 
	L 86.032, 68.174 
" />
<path d="M 86.245, 67.890 
	L 86.244, 67.890 
	L 96.591, 67.536 
" />
<path d="M 96.379, 67.252 
	L 96.378, 67.253 
	L 86.457, 67.536 
" />
<path d="M 86.741, 67.252 
	L 86.740, 67.253 
	L 96.095, 66.969 
" />
<path d="M 95.741, 66.685 
	L 95.740, 66.686 
	L 87.024, 66.969 
" />
<path d="M 87.379, 66.685 
	L 87.378, 66.686 
	L 95.386, 66.402 
" />
<path d="M 94.961, 66.118 
	L 94.961, 66.119 
	L 87.732, 66.402 
" />
<path d="M 88.229, 66.047 
	L 88.228, 66.048 
	L 94.465, 65.835 
" />
<path d="M 93.827, 65.622 
	L 93.827, 65.623 
	L 88.866, 65.764 
" />
<path d="M 89.717, 65.480 
	L 89.717, 65.481 
	L 92.906, 65.339 
" />
<path d="M 93.544, 69.024 
	L 93.543, 69.024 
	L 85.394, 69.308 
" />
<path d="M 85.536, 69.024 
	L 85.535, 69.024 
	L 93.898, 68.741 
" />
<path d="M 93.261, 69.378 
	L 93.260, 69.379 
	L 85.252, 69.591 
" />
<path d="M 85.182, 69.874 
	L 85.181, 69.875 
	L 92.976, 69.662 
" />
<path d="M 92.765, 69.945 
	L 92.764, 69.946 
	L 85.110, 70.229 
" />
<path d="M 85.040, 70.512 
	L 85.039, 70.513 
	L 92.480, 70.229 
" />
<path d="M 92.198, 70.512 
	L 92.197, 70.513 
	L 84.969, 70.796 
" />
<path d="M 84.898, 71.079 
	L 84.898, 71.079 
	L 91.913, 70.796 
" />
<path d="M 91.631, 71.150 
	L 91.630, 71.150 
	L 84.898, 71.363 
" />
<path d="M 84.898, 71.646 
	L 84.898, 71.646 
	L 91.346, 71.434 
" />
<path d="M 91.064, 71.717 
	L 91.063, 71.717 
	L 84.898, 71.930 
" />
<path d="M 84.898, 72.213 
	L 84.898, 72.213 
	L 90.780, 72.001 
" />
<path d="M 90.780, 72.283 
	L 90.780, 72.284 
	L 84.898, 72.497 
" />
<path d="M 92.127, 72.000 
	L 92.126, 72.001 
	L 98.220, 71.788 
" />
<path d="M 98.221, 71.504 
	L 98.220, 71.505 
	L 92.339, 71.646 
" />
<path d="M 92.623, 71.362 
	L 92.622, 71.363 
	L 98.220, 71.221 
" />
<path d="M 98.150, 70.866 
	L 98.150, 70.867 
	L 92.906, 71.079 
" />
<path d="M 93.190, 70.795 
	L 93.189, 70.796 
	L 98.079, 70.583 
" />
<path d="M 98.079, 70.299 
	L 98.079, 70.300 
	L 93.472, 70.513 
" />
<path d="M 108.426, 62.929 
	L 108.425, 62.930 
	L 113.244, 67.394 
" />
<path d="M 115.300, 69.307 
	L 115.299, 69.308 
	L 120.189, 73.843 
	L 118.205, 77.741 
" />
<path d="M 118.985, 79.512 
	L 118.984, 79.513 
	L 120.189, 73.843 
	L 120.118, 80.150 
" />
<path d="M 121.324, 80.433 
	L 121.323, 80.434 
	L 122.315, 86.103 
" />
<path d="M 122.812, 88.937 
	L 122.811, 88.938 
	L 123.803, 94.536 
" />
<path d="M 124.300, 97.370 
	L 124.299, 97.371 
	L 125.291, 103.040 
" />
<path d="M 125.788, 105.874 
	L 125.787, 105.875 
	L 126.780, 111.473 
" />
<path d="M 127.276, 114.307 
	L 127.276, 114.308 
	L 128.268, 119.977 
" />
<path d="M 128.765, 122.811 
	L 128.764, 122.812 
	L 129.756, 128.410 
" />
<path d="M 130.253, 131.244 
	L 130.252, 131.245 
	L 131.244, 136.914 
" />
<path d="M 131.741, 139.748 
	L 131.740, 139.749 
	L 132.732, 145.347 
" />
<path d="M 133.229, 148.181 
	L 133.228, 148.182 
	L 134.220, 153.851 
" />
<path d="M 134.717, 156.685 
	L 134.717, 156.686 
	L 135.709, 162.284 
" />
<path d="M 136.205, 165.118 
	L 136.205, 165.119 
	L 137.197, 170.788 
" />
<path d="M 137.694, 173.622 
	L 137.693, 173.623 
	L 138.614, 179.221 
" />
<path d="M 139.111, 182.055 
	L 139.110, 182.056 
	L 140.102, 187.725 
" />
<path d="M 140.599, 190.559 
	L 140.598, 190.560 
	L 141.591, 196.158 
" />
<path d="M 142.087, 198.992 
	L 142.087, 198.993 
	L 143.079, 204.662 
" />
<path d="M 143.576, 207.496 
	L 143.575, 207.497 
	L 144.567, 213.095 
" />
<path d="M 145.064, 215.929 
	L 145.063, 215.930 
	L 146.055, 221.599 
" />
<path d="M 146.552, 224.433 
	L 146.551, 224.434 
	L 147.543, 230.032 
" />
<path d="M 148.040, 232.866 
	L 148.039, 232.867 
	L 149.032, 238.536 
" />
<path d="M 149.528, 241.299 
	L 149.528, 241.300 
	L 150.520, 246.969 
" />
<path d="M 151.016, 249.803 
	L 151.016, 249.804 
	L 152.008, 255.473 
" />
<path d="M 152.505, 258.236 
	L 152.504, 258.237 
	L 153.142, 262.064 
" />
<path d="M 197.930, 263.622 
	L 197.929, 263.623 
	L 195.449, 257.528 
" />
<path d="M 194.387, 254.906 
	L 194.386, 254.906 
	L 192.189, 249.591 
" />
<path d="M 191.127, 246.969 
	L 191.126, 246.969 
	L 188.929, 241.654 
" />
<path d="M 187.867, 238.961 
	L 187.866, 238.961 
	L 185.669, 233.717 
" />
<path d="M 184.607, 231.024 
	L 184.606, 231.024 
	L 182.409, 225.709 
" />
<path d="M 181.347, 223.087 
	L 181.346, 223.087 
	L 179.150, 217.772 
" />
<path d="M 178.087, 215.150 
	L 178.087, 215.150 
	L 175.890, 209.835 
" />
<path d="M 174.828, 207.142 
	L 174.827, 207.142 
	L 172.630, 201.898 
" />
<path d="M 171.568, 199.205 
	L 171.567, 199.205 
	L 169.370, 193.891 
" />
<path d="M 168.308, 191.268 
	L 168.307, 191.268 
	L 166.110, 185.953 
" />
<path d="M 165.048, 183.331 
	L 165.047, 183.331 
	L 162.850, 178.016 
" />
<path d="M 161.788, 175.323 
	L 161.787, 175.324 
	L 159.591, 170.079 
" />
<path d="M 158.528, 167.386 
	L 158.528, 167.387 
	L 156.331, 162.072 
" />
<path d="M 155.268, 159.449 
	L 155.268, 159.450 
	L 153.071, 154.135 
" />
<path d="M 152.009, 151.512 
	L 152.008, 151.513 
	L 149.811, 146.198 
" />
<path d="M 148.749, 143.504 
	L 148.748, 143.505 
	L 146.551, 138.261 
" />
<path d="M 145.489, 135.567 
	L 145.488, 135.568 
	L 143.291, 130.253 
" />
<path d="M 142.229, 127.630 
	L 142.228, 127.631 
	L 140.032, 122.316 
" />
<path d="M 138.969, 119.693 
	L 138.969, 119.694 
	L 136.772, 114.379 
" />
<path d="M 135.709, 111.685 
	L 135.709, 111.686 
	L 133.512, 106.442 
" />
<path d="M 132.450, 103.748 
	L 132.449, 103.749 
	L 130.252, 98.434 
" />
<path d="M 129.190, 95.811 
	L 129.189, 95.812 
	L 126.992, 90.497 
" />
<path d="M 125.930, 87.874 
	L 125.929, 87.875 
	L 123.732, 82.560 
" />
<path d="M 122.670, 79.866 
	L 122.669, 79.867 
	L 120.189, 73.843 
	L 120.827, 77.599 
" />
<path d="M 120.119, 82.984 
	L 120.118, 82.985 
	L 120.118, 88.725 
" />
<path d="M 120.048, 91.630 
	L 120.047, 91.631 
	L 120.047, 97.371 
" />
<path d="M 120.048, 100.205 
	L 120.047, 100.205 
	L 119.976, 105.946 
" />
<path d="M 119.977, 108.780 
	L 119.976, 108.780 
	L 119.976, 114.520 
" />
<path d="M 119.906, 117.425 
	L 119.906, 117.426 
	L 119.906, 123.166 
" />
<path d="M 119.906, 126.000 
	L 119.906, 126.001 
	L 119.835, 131.741 
" />
<path d="M 119.835, 134.575 
	L 119.835, 134.576 
	L 119.835, 140.316 
" />
<path d="M 119.765, 143.220 
	L 119.764, 143.221 
	L 119.764, 148.890 
" />
<path d="M 119.765, 151.795 
	L 119.764, 151.796 
	L 119.693, 157.536 
" />
<path d="M 119.694, 160.370 
	L 119.693, 160.371 
	L 119.622, 166.111 
" />
<path d="M 119.623, 168.945 
	L 119.622, 168.946 
	L 119.622, 174.686 
" />
<path d="M 119.623, 177.591 
	L 119.622, 177.591 
	L 119.551, 183.331 
" />
<path d="M 119.552, 186.165 
	L 119.551, 186.166 
	L 119.480, 191.906 
" />
<path d="M 119.481, 194.740 
	L 119.480, 194.741 
	L 119.480, 201.119 
" />
<path d="M 126.142, 201.118 
	L 126.142, 201.119 
	L 112.819, 201.048 
" />
<path d="M 109.418, 156.685 
	L 109.417, 156.686 
	L 96.307, 153.922 
" />
<path d="M 102.827, 155.268 
	L 102.827, 155.268 
	L 104.102, 149.599 
" />
<path d="M 104.670, 146.764 
	L 104.669, 146.765 
	L 105.874, 141.166 
" />
<path d="M 106.442, 138.402 
	L 106.441, 138.402 
	L 107.646, 132.804 
" />
<path d="M 108.213, 129.969 
	L 108.213, 129.969 
	L 109.417, 124.371 
" />
<path d="M 110.056, 121.535 
	L 110.055, 121.536 
	L 111.189, 115.938 
" />
<path d="M 111.827, 113.173 
	L 111.827, 113.174 
	L 113.032, 107.576 
" />
<path d="M 113.599, 104.740 
	L 113.598, 104.741 
	L 114.803, 99.142 
" />
<path d="M 115.371, 96.307 
	L 115.370, 96.308 
	L 116.575, 90.709 
" />
<path d="M 117.142, 87.945 
	L 117.142, 87.946 
	L 118.346, 82.347 
" />
<path d="M 116.859, 80.291 
	L 116.858, 80.292 
	L 114.236, 85.394 
" />
<path d="M 112.961, 87.874 
	L 112.961, 87.875 
	L 110.339, 92.977 
" />
<path d="M 108.993, 95.528 
	L 108.992, 95.528 
	L 106.370, 100.631 
" />
<path d="M 105.095, 103.181 
	L 105.095, 103.182 
	L 102.472, 108.284 
" />
<path d="M 101.198, 110.835 
	L 101.197, 110.835 
	L 99.142, 114.733 
" />
<path d="M 98.079, 107.079 
	L 98.079, 107.079 
	L 97.157, 107.930 
	L 95.882, 108.426 
	L 94.535, 108.426 
	L 93.260, 107.930 
	L 92.835, 107.505 
	L 92.339, 106.654 
	L 92.339, 106.229 
	L 92.835, 105.804 
	L 93.260, 106.229 
	L 92.835, 106.654 
" />
<path d="M 92.835, 106.654 
" />
<path d="M 92.339, 103.606 
	L 92.339, 103.607 
	L 93.260, 102.757 
	L 94.535, 102.261 
	L 95.882, 102.261 
	L 97.157, 102.757 
	L 98.079, 103.607 
	L 98.504, 104.883 
	L 98.504, 105.804 
	L 98.079, 107.079 
" />
<path d="M 97.583, 107.079 
	L 97.583, 107.079 
	L 96.732, 107.930 
	L 95.882, 108.426 
" />
<path d="M 97.583, 107.079 
	L 97.583, 107.079 
	L 98.079, 105.804 
	L 98.079, 104.883 
	L 97.583, 103.607 
	L 96.732, 102.757 
	L 95.882, 102.261 
" />
<path d="M 95.457, 99.638 
	L 95.457, 99.639 
	L 97.583, 99.213 
	L 93.260, 99.213 
	L 92.339, 103.607 
" />
<path d="M 93.261, 99.638 
	L 93.260, 99.639 
	L 95.457, 99.639 
" />
<path d="M 93.261, 111.685 
	L 93.260, 111.686 
	L 105.095, 117.780 
" />
<path d="M 97.158, 135.992 
	L 97.157, 135.993 
	L 97.157, 145.135 
" />
<path d="M 96.733, 145.134 
	L 96.732, 145.135 
	L 96.732, 136.843 
" />
<path d="M 97.158, 135.992 
	L 97.157, 135.993 
	L 92.339, 142.513 
	L 99.354, 142.513 
" />
<path d="M 98.505, 145.134 
	L 98.504, 145.135 
	L 95.386, 145.135 
" />
<path d="M 105.520, 185.386 
	L 105.520, 185.387 
	L 106.795, 184.961 
	L 108.567, 184.961 
	L 109.843, 185.387 
	L 110.339, 186.308 
	L 110.339, 187.583 
	L 109.843, 188.505 
	L 108.567, 188.930 
	L 107.220, 188.930 
" />
<path d="M 108.568, 188.929 
	L 108.567, 188.930 
	L 109.417, 189.355 
	L 110.339, 190.205 
	L 110.764, 191.127 
	L 110.764, 192.402 
	L 110.339, 193.253 
	L 109.843, 193.678 
	L 108.567, 194.174 
	L 106.795, 194.174 
	L 105.520, 193.678 
" />
<path d="M 105.520, 193.678 
	L 105.095, 193.253 
	L 104.598, 192.402 
	L 104.598, 191.977 
	L 105.095, 191.552 
	L 105.520, 191.977 
	L 105.095, 192.402 
" />
<path d="M 105.095, 187.583 
	L 105.095, 187.583 
	L 104.598, 187.158 
	L 104.598, 186.733 
	L 105.095, 185.883 
	L 105.520, 185.387 
" />
<path d="M 105.095, 186.732 
	L 105.095, 186.733 
	L 105.520, 187.158 
	L 105.095, 187.583 
" />
<path d="M 109.843, 187.583 
	L 109.843, 187.583 
	L 109.417, 188.505 
	L 108.567, 188.930 
" />
<path d="M 109.843, 189.780 
	L 109.843, 189.780 
	L 110.339, 191.127 
	L 110.339, 192.402 
	L 109.843, 193.253 
	L 109.417, 193.678 
	L 108.567, 194.174 
" />
<path d="M 109.843, 187.583 
	L 109.843, 187.583 
	L 109.843, 186.308 
	L 109.417, 185.387 
	L 108.567, 184.961 
" />
<path d="M 139.253, 234.000 
	L 139.252, 234.001 
	L 139.677, 233.576 
	L 141.024, 233.079 
	L 142.724, 233.079 
	L 144.071, 233.576 
	L 144.496, 234.001 
	L 144.921, 234.851 
	L 144.921, 235.702 
	L 144.496, 236.623 
	L 143.220, 237.473 
" />
<path d="M 143.220, 237.473 
	L 141.024, 238.324 
	L 140.102, 238.749 
	L 139.252, 239.670 
	L 138.827, 240.946 
	L 138.827, 242.292 
" />
<path d="M 138.828, 241.370 
	L 138.827, 241.371 
	L 139.252, 240.946 
	L 140.102, 240.946 
	L 142.299, 241.867 
	L 143.646, 241.867 
	L 144.496, 241.371 
	L 144.921, 240.946 
	L 144.921, 240.095 
" />
<path d="M 144.922, 240.945 
	L 144.921, 240.946 
	L 144.496, 241.867 
	L 144.071, 242.292 
	L 142.299, 242.292 
	L 140.102, 240.946 
" />
<path d="M 141.024, 238.323 
	L 141.024, 238.324 
	L 142.724, 237.473 
	L 144.071, 236.623 
	L 144.496, 235.702 
	L 144.496, 234.851 
	L 144.071, 234.001 
	L 143.646, 233.576 
	L 142.724, 233.079 
" />
<path d="M 139.253, 234.000 
	L 139.252, 234.001 
	L 138.827, 234.851 
	L 138.827, 235.276 
	L 139.252, 235.702 
	L 139.677, 235.276 
	L 139.252, 234.851 
" />
<path d="M 180.355, 241.866 
	L 180.354, 241.867 
	L 181.276, 241.442 
	L 182.551, 240.095 
	L 182.551, 249.308 
" />
<path d="M 182.127, 249.307 
	L 182.126, 249.308 
	L 182.126, 240.520 
" />
<path d="M 180.355, 249.307 
	L 180.354, 249.308 
	L 184.323, 249.308 
" />
<path d="M 218.835, 263.622 
	L 218.835, 263.623 
	L 218.835, 0.001 
" />
<path d="M 114.024, 0.000 
	L 114.024, 0.001 
	L 114.024, 263.623 
" />
<path d="M 9.142, 263.622 
	L 9.142, 263.623 
	L 9.142, 0.001 
" />
<path d="M 108.426, 23.528 
	L 108.425, 23.528 
	L 108.425, 28.914 
" />
<path d="M 108.426, 31.748 
	L 108.425, 31.749 
	L 108.425, 37.489 
" />
<path d="M 108.426, 40.323 
	L 108.425, 40.324 
	L 108.425, 46.064 
" />
<path d="M 108.426, 48.969 
	L 108.425, 48.969 
	L 108.425, 54.709 
" />
<path d="M 108.426, 57.543 
	L 108.425, 57.544 
	L 108.425, 62.930 
" />
<path d="M 93.048, 60.732 
	L 93.047, 60.733 
	L 93.898, 59.812 
	L 94.323, 58.961 
" />
<path d="M 93.048, 60.732 
	L 93.047, 60.733 
	L 91.701, 61.158 
	L 90.850, 61.158 
	L 90.000, 60.733 
	L 89.079, 59.812 
	L 88.654, 58.961 
	L 88.228, 57.686 
	L 88.228, 55.489 
	L 88.654, 54.142 
	L 89.079, 53.292 
	L 90.000, 52.442 
" />
<path d="M 90.000, 52.442 
	L 90.850, 51.946 
	L 89.504, 52.442 
	L 88.654, 53.292 
	L 88.228, 54.142 
	L 87.803, 55.489 
	L 87.803, 57.686 
	L 88.228, 58.961 
	L 88.654, 59.812 
	L 89.504, 60.733 
	L 90.850, 61.158 
" />
<path d="M 90.851, 51.945 
	L 90.850, 51.946 
	L 91.701, 51.946 
	L 93.047, 52.442 
	L 93.898, 53.292 
	L 94.323, 54.568 
	L 94.323, 51.946 
	L 93.898, 53.292 
" />
<path d="M 94.678, 90.354 
	L 94.677, 90.355 
	L 89.929, 91.631 
	L 85.323, 93.119 
	L 80.787, 94.961 
	L 76.323, 97.016 
	L 72.071, 99.284 
	L 67.890, 101.906 
	L 63.921, 104.670 
	L 60.094, 107.717 
	L 56.480, 110.906 
	L 53.008, 114.379 
" />
<path d="M 53.008, 114.379 
	L 49.748, 118.064 
	L 46.701, 121.890 
	L 43.937, 125.859 
	L 41.386, 130.040 
	L 39.047, 134.292 
	L 36.992, 138.686 
	L 35.220, 143.221 
	L 33.661, 147.898 
	L 32.386, 152.576 
	L 31.394, 157.394 
	L 30.685, 162.213 
" />
<path d="M 30.685, 162.213 
	L 30.260, 167.032 
	L 30.118, 171.922 
	L 30.260, 176.812 
	L 30.685, 181.631 
	L 31.394, 186.520 
	L 32.386, 191.268 
	L 33.661, 195.946 
	L 35.220, 200.623 
	L 36.992, 205.158 
	L 39.047, 209.552 
	L 41.386, 213.875 
" />
<path d="M 41.386, 213.875 
	L 43.937, 217.985 
	L 46.701, 222.024 
	L 49.748, 225.851 
	L 53.008, 229.465 
	L 56.480, 232.938 
	L 60.094, 236.127 
	L 63.921, 239.174 
	L 67.890, 242.009 
	L 72.071, 244.560 
	L 76.323, 246.828 
	L 80.787, 248.883 
" />
<path d="M 80.787, 248.883 
	L 85.323, 250.725 
	L 89.929, 252.284 
	L 94.677, 253.489 
	L 99.425, 254.481 
	L 104.244, 255.190 
	L 109.134, 255.615 
	L 114.024, 255.757 
	L 118.843, 255.615 
	L 123.732, 255.190 
	L 128.551, 254.481 
" />
<path d="M 128.551, 254.481 
	L 133.299, 253.489 
	L 138.047, 252.284 
	L 142.654, 250.725 
	L 147.189, 248.883 
	L 151.654, 246.828 
	L 155.906, 244.560 
	L 160.087, 242.009 
	L 164.055, 239.174 
	L 167.882, 236.127 
	L 171.496, 232.938 
" />
<path d="M 171.496, 232.938 
	L 174.969, 229.465 
	L 178.228, 225.851 
	L 181.276, 222.024 
	L 184.039, 217.985 
	L 186.591, 213.875 
	L 188.929, 209.552 
	L 190.984, 205.158 
	L 192.756, 200.623 
	L 194.315, 195.946 
	L 195.591, 191.268 
" />
<path d="M 195.591, 191.268 
	L 196.583, 186.520 
	L 197.291, 181.631 
	L 197.717, 176.812 
	L 197.858, 171.922 
	L 197.717, 167.032 
	L 197.291, 162.213 
	L 196.583, 157.394 
	L 195.591, 152.576 
	L 194.315, 147.898 
	L 192.756, 143.221 
" />
<path d="M 192.756, 143.221 
	L 190.984, 138.686 
	L 188.929, 134.292 
	L 186.591, 130.040 
	L 184.039, 125.859 
	L 181.276, 121.890 
	L 178.228, 118.064 
	L 174.969, 114.379 
	L 171.496, 110.906 
	L 167.882, 107.717 
	L 164.055, 104.670 
" />
<path d="M 164.055, 104.670 
	L 160.087, 101.906 
	L 155.906, 99.284 
	L 151.654, 97.016 
	L 147.189, 94.961 
	L 142.654, 93.119 
	L 138.047, 91.631 
	L 133.299, 90.355 
	L 128.551, 89.363 
	L 123.732, 88.654 
	L 118.843, 88.229 
	L 113.953, 88.087 
" />
<path d="M 113.953, 88.087 
	L 109.134, 88.229 
	L 104.244, 88.654 
	L 99.425, 89.363 
	L 94.677, 90.355 
" />
<path d="M 94.465, 119.551 
	L 94.465, 119.552 
	L 90.780, 121.111 
	L 87.165, 122.883 
	L 83.764, 124.938 
	L 80.504, 127.205 
	L 77.386, 129.686 
	L 74.480, 132.379 
	L 71.717, 135.355 
	L 69.236, 138.402 
	L 66.969, 141.733 
	L 64.913, 145.135 
" />
<path d="M 64.913, 145.135 
	L 63.142, 148.678 
	L 61.583, 152.363 
	L 60.378, 156.190 
	L 59.386, 160.016 
	L 58.677, 163.985 
	L 58.252, 167.953 
	L 58.110, 171.922 
	L 58.252, 175.891 
	L 58.677, 179.859 
	L 59.386, 183.828 
	L 60.378, 187.654 
" />
<path d="M 60.378, 187.654 
	L 61.583, 191.481 
	L 63.142, 195.166 
	L 64.913, 198.709 
	L 66.969, 202.182 
	L 69.236, 205.442 
	L 71.717, 208.560 
	L 74.480, 211.465 
	L 77.386, 214.158 
	L 80.504, 216.709 
	L 83.764, 218.977 
	L 87.165, 220.961 
" />
<path d="M 87.165, 220.961 
	L 90.780, 222.804 
	L 94.465, 224.292 
	L 98.220, 225.568 
	L 102.118, 226.560 
	L 106.016, 227.268 
	L 109.984, 227.694 
	L 114.024, 227.835 
	L 117.992, 227.694 
	L 121.961, 227.268 
	L 125.858, 226.560 
" />
<path d="M 125.858, 226.560 
	L 129.756, 225.568 
	L 133.512, 224.292 
	L 137.197, 222.804 
	L 140.811, 220.961 
	L 144.213, 218.977 
	L 147.472, 216.709 
	L 150.591, 214.158 
	L 153.496, 211.465 
	L 156.260, 208.560 
	L 158.740, 205.442 
" />
<path d="M 158.740, 205.442 
	L 161.008, 202.182 
	L 163.063, 198.709 
	L 164.835, 195.166 
	L 166.394, 191.481 
	L 167.598, 187.654 
	L 168.591, 183.828 
	L 169.299, 179.859 
	L 169.724, 175.891 
	L 169.866, 171.922 
	L 169.724, 167.953 
" />
<path d="M 169.724, 167.953 
	L 169.299, 163.985 
	L 168.591, 160.016 
	L 167.598, 156.190 
	L 166.394, 152.363 
	L 164.835, 148.678 
	L 163.063, 145.135 
	L 161.008, 141.733 
	L 158.740, 138.402 
	L 156.260, 135.355 
	L 153.496, 132.379 
" />
<path d="M 153.496, 132.379 
	L 150.591, 129.686 
	L 147.472, 127.205 
	L 144.213, 124.938 
	L 140.811, 122.883 
	L 137.197, 121.111 
	L 133.512, 119.552 
	L 129.756, 118.276 
	L 125.858, 117.284 
	L 121.961, 116.576 
	L 117.992, 116.150 
" />
<path d="M 117.992, 116.150 
	L 113.953, 116.009 
	L 109.984, 116.150 
	L 106.016, 116.576 
	L 102.118, 117.284 
	L 98.220, 118.276 
	L 94.465, 119.552 
" />
<path d="M 96.237, 150.307 
	L 96.236, 150.308 
	L 94.252, 152.150 
	L 92.409, 154.205 
	L 90.780, 156.402 
	L 89.362, 158.741 
	L 88.157, 161.221 
	L 87.236, 163.843 
	L 86.598, 166.465 
	L 86.173, 169.158 
	L 86.032, 171.922 
	L 86.173, 174.686 
" />
<path d="M 86.173, 174.686 
	L 86.598, 177.379 
	L 87.236, 180.072 
	L 88.157, 182.623 
	L 89.362, 185.103 
	L 90.780, 187.442 
	L 92.409, 189.639 
	L 94.252, 191.694 
	L 96.236, 193.536 
	L 98.433, 195.166 
	L 100.843, 196.583 
	L 103.323, 197.717 
" />
<path d="M 103.323, 197.717 
	L 105.874, 198.639 
	L 108.567, 199.347 
	L 111.260, 199.772 
	L 113.953, 199.843 
	L 116.717, 199.772 
	L 119.409, 199.347 
	L 122.102, 198.639 
	L 124.654, 197.717 
	L 127.134, 196.583 
	L 129.543, 195.166 
" />
<path d="M 129.543, 195.166 
	L 131.740, 193.536 
	L 133.724, 191.694 
	L 135.567, 189.639 
	L 137.197, 187.442 
	L 138.614, 185.103 
	L 139.819, 182.623 
	L 140.740, 180.072 
	L 141.378, 177.379 
	L 141.803, 174.686 
	L 141.945, 171.922 
" />
<path d="M 141.945, 171.922 
	L 141.803, 169.158 
	L 141.378, 166.465 
	L 140.740, 163.843 
	L 139.819, 161.221 
	L 138.614, 158.741 
	L 137.197, 156.402 
	L 135.567, 154.205 
	L 133.724, 152.150 
	L 131.740, 150.308 
	L 129.543, 148.678 
" />
<path d="M 129.543, 148.678 
	L 127.134, 147.261 
	L 124.654, 146.127 
	L 122.102, 145.205 
	L 119.409, 144.497 
	L 116.717, 144.142 
	L 114.024, 144.001 
	L 111.260, 144.142 
	L 108.567, 144.497 
	L 105.874, 145.205 
	L 103.323, 146.127 
" />
<path d="M 103.323, 146.127 
	L 100.843, 147.261 
	L 98.433, 148.678 
	L 96.236, 150.308 
" />
<path d="M 109.064, 166.961 
	L 109.063, 166.961 
	L 108.213, 168.024 
	L 107.504, 169.229 
	L 107.150, 170.576 
	L 107.008, 171.922 
	L 107.150, 173.268 
	L 107.504, 174.615 
	L 108.213, 175.820 
	L 109.063, 176.883 
	L 110.126, 177.733 
" />
<path d="M 110.126, 177.733 
	L 111.331, 178.371 
	L 112.606, 178.796 
	L 113.953, 178.938 
	L 115.370, 178.796 
	L 116.646, 178.371 
	L 117.850, 177.733 
	L 118.913, 176.883 
	L 119.764, 175.820 
	L 120.472, 174.615 
	L 120.827, 173.268 
" />
<path d="M 120.827, 173.268 
	L 120.969, 171.922 
	L 120.827, 170.576 
	L 120.472, 169.229 
	L 119.764, 168.024 
	L 118.913, 166.961 
	L 117.850, 166.111 
	L 116.646, 165.473 
	L 115.370, 165.048 
	L 114.024, 164.906 
	L 112.606, 165.048 
" />
<path d="M 112.606, 165.048 
	L 111.331, 165.473 
	L 110.126, 166.111 
	L 109.063, 166.961 
" />
<path d="M 0.001, 171.921 
	L 0.000, 171.922 
	L 227.976, 171.922 
" />
<path d="M 227.977, 255.756 
	L 227.976, 255.757 
	L 0.000, 255.757 
" />
<path d="M 131.387, 59.386 
	L 131.386, 59.387 
	L 136.630, 59.387 
	L 137.480, 58.961 
	L 137.906, 58.536 
	L 138.402, 57.686 
	L 138.402, 56.339 
	L 137.906, 55.489 
	L 137.480, 55.064 
	L 136.630, 54.568 
	L 137.906, 55.064 
	L 138.402, 55.489 
" />
<path d="M 138.402, 55.489 
	L 138.827, 56.339 
	L 138.827, 57.686 
	L 138.402, 58.536 
	L 137.906, 58.961 
	L 136.630, 59.387 
" />
<path d="M 133.158, 59.386 
	L 133.158, 59.387 
	L 133.158, 50.245 
" />
<path d="M 132.662, 50.244 
	L 132.661, 50.245 
	L 132.661, 59.387 
" />
<path d="M 133.158, 54.567 
	L 133.158, 54.568 
	L 136.630, 54.568 
	L 137.906, 54.142 
	L 138.402, 53.717 
	L 138.827, 52.867 
	L 138.827, 51.946 
	L 138.402, 51.095 
	L 137.906, 50.670 
	L 136.630, 50.245 
	L 137.480, 50.670 
	L 137.906, 51.095 
" />
<path d="M 137.906, 51.095 
	L 138.402, 51.946 
	L 138.402, 52.867 
	L 137.906, 53.717 
	L 137.480, 54.142 
	L 136.630, 54.568 
" />
<path d="M 136.631, 50.244 
	L 136.630, 50.245 
	L 131.386, 50.245 
" />
</g><g style="stroke:rgb(255,255,255); fill:none; stroke-width:0.100mm" >
</g>
</svg>
