<?xml version="1.0" encoding="UTF-8" standalone="no" ?>
<svg width="100%" height="100%" viewBox="0 0 227.977 389.694" xmlns="http://www.w3.org/2000/svg"><g>
</g><g style="stroke:rgb(0,0,0); fill:none; stroke-width:1.000mm" >
</g><g style="stroke:rgb(0,0,0); fill:none; stroke-width:0.100mm" >
<path d="M 111.331, 304.087 
	L 111.331, 304.087 
	L 113.669, 298.418 
" />
<path d="M 113.528, 298.063 
	L 113.528, 298.064 
	L 111.047, 304.016 
" />
<path d="M 110.835, 303.874 
	L 110.835, 303.875 
	L 113.386, 297.709 
	L 115.016, 301.607 
	L 115.228, 301.820 
	L 115.512, 301.820 
	L 115.583, 301.820 
	L 115.795, 301.607 
	L 115.795, 301.253 
	L 114.236, 297.355 
	L 114.024, 297.142 
" />
<path d="M 114.024, 297.142 
	L 113.669, 297.142 
	L 113.598, 297.142 
	L 115.866, 291.615 
" />
<path d="M 115.654, 291.543 
	L 115.654, 291.544 
	L 110.551, 303.733 
" />
<path d="M 110.339, 303.591 
	L 110.339, 303.591 
	L 115.370, 291.473 
" />
<path d="M 115.300, 291.472 
	L 115.299, 291.473 
	L 114.024, 291.331 
	L 112.677, 291.473 
	L 111.472, 291.828 
	L 110.268, 292.465 
	L 109.276, 293.245 
	L 108.425, 294.308 
	L 107.858, 295.442 
	L 107.433, 296.717 
	L 107.291, 297.993 
" />
<path d="M 107.291, 297.993 
	L 107.433, 299.268 
	L 107.787, 300.544 
	L 108.425, 301.678 
	L 109.276, 302.741 
	L 110.268, 303.520 
	L 111.402, 304.158 
	L 112.677, 304.513 
	L 113.953, 304.654 
	L 115.299, 304.513 
	L 116.504, 304.158 
" />
<path d="M 116.504, 304.158 
	L 117.709, 303.520 
	L 118.701, 302.741 
	L 119.551, 301.678 
	L 120.118, 300.544 
	L 120.543, 299.339 
	L 120.685, 297.993 
	L 120.543, 296.717 
	L 120.189, 295.442 
	L 119.551, 294.308 
	L 118.701, 293.316 
" />
<path d="M 118.701, 293.316 
	L 117.709, 292.465 
	L 116.575, 291.828 
	L 115.299, 291.473 
" />
<path d="M 115.016, 291.402 
	L 115.016, 291.402 
	L 110.055, 303.379 
" />
<path d="M 109.843, 303.236 
	L 109.843, 303.237 
	L 114.732, 291.402 
" />
<path d="M 114.450, 291.331 
	L 114.449, 291.331 
	L 109.630, 303.024 
" />
<path d="M 109.347, 302.811 
	L 109.346, 302.812 
	L 114.165, 291.331 
" />
<path d="M 113.812, 291.331 
	L 113.811, 291.331 
	L 109.134, 302.599 
" />
<path d="M 108.922, 302.386 
	L 108.921, 302.387 
	L 113.528, 291.331 
" />
<path d="M 113.174, 291.402 
	L 113.173, 291.402 
	L 108.709, 302.103 
" />
<path d="M 108.568, 301.890 
	L 108.567, 301.891 
	L 112.890, 291.402 
" />
<path d="M 112.536, 291.472 
	L 112.535, 291.473 
	L 108.354, 301.536 
" />
<path d="M 108.142, 301.252 
	L 108.142, 301.253 
	L 112.181, 291.544 
" />
<path d="M 111.827, 291.685 
	L 111.827, 291.686 
	L 108.000, 300.898 
" />
<path d="M 107.859, 300.543 
	L 107.858, 300.544 
	L 111.472, 291.828 
" />
<path d="M 111.119, 291.969 
	L 111.118, 291.969 
	L 107.717, 300.190 
" />
<path d="M 107.576, 299.764 
	L 107.575, 299.765 
	L 110.693, 292.182 
" />
<path d="M 110.268, 292.465 
	L 110.268, 292.465 
	L 107.433, 299.268 
" />
<path d="M 107.363, 298.701 
	L 107.362, 298.702 
	L 109.843, 292.820 
" />
<path d="M 109.347, 293.244 
	L 109.346, 293.245 
	L 107.291, 298.064 
" />
<path d="M 107.363, 297.213 
	L 107.362, 297.213 
	L 108.780, 293.883 
" />
<path d="M 111.190, 294.024 
	L 111.189, 294.024 
	L 110.409, 294.804 
	L 109.772, 295.654 
	L 109.346, 296.646 
	L 109.134, 297.709 
	L 109.205, 298.772 
	L 109.488, 299.835 
	L 110.055, 300.828 
	L 110.764, 301.607 
	L 111.614, 302.245 
" />
<path d="M 111.614, 302.245 
	L 112.677, 302.670 
	L 113.740, 302.812 
	L 114.803, 302.741 
	L 115.866, 302.457 
	L 116.787, 301.961 
	L 117.567, 301.253 
	L 118.205, 300.331 
	L 118.630, 299.339 
	L 118.843, 298.276 
	L 118.772, 297.213 
" />
<path d="M 118.772, 297.213 
	L 118.488, 296.150 
	L 117.921, 295.229 
	L 117.213, 294.379 
	L 116.362, 293.741 
	L 115.299, 293.387 
	L 114.236, 293.174 
	L 113.173, 293.245 
	L 112.110, 293.528 
	L 111.189, 294.024 
" />
<path d="M 113.599, 297.142 
	L 113.598, 297.142 
	L 113.386, 297.426 
	L 113.386, 297.709 
" />
<path d="M 114.308, 297.638 
	L 114.307, 297.639 
	L 116.717, 291.898 
" />
<path d="M 116.434, 291.827 
	L 116.433, 291.828 
	L 114.165, 297.284 
" />
<path d="M 113.953, 297.142 
	L 113.953, 297.142 
	L 116.150, 291.686 
" />
<path d="M 117.001, 292.039 
	L 117.000, 292.040 
	L 114.520, 297.993 
" />
<path d="M 114.662, 298.347 
	L 114.661, 298.347 
	L 117.213, 292.182 
" />
<path d="M 117.497, 292.323 
	L 117.496, 292.324 
	L 114.803, 298.772 
" />
<path d="M 114.946, 299.126 
	L 114.945, 299.127 
	L 117.709, 292.465 
" />
<path d="M 117.922, 292.606 
	L 117.921, 292.607 
	L 115.087, 299.481 
" />
<path d="M 115.229, 299.906 
	L 115.228, 299.906 
	L 118.205, 292.820 
" />
<path d="M 118.418, 293.032 
	L 118.417, 293.032 
	L 115.441, 300.261 
" />
<path d="M 115.583, 300.614 
	L 115.583, 300.615 
	L 118.630, 293.245 
" />
<path d="M 118.843, 293.457 
	L 118.843, 293.457 
	L 115.724, 300.969 
" />
<path d="M 115.867, 301.394 
	L 115.866, 301.394 
	L 119.055, 293.670 
" />
<path d="M 119.268, 293.953 
	L 119.268, 293.953 
	L 114.874, 304.583 
" />
<path d="M 115.158, 304.583 
	L 115.157, 304.583 
	L 119.480, 294.237 
" />
<path d="M 119.694, 294.520 
	L 119.693, 294.520 
	L 115.512, 304.513 
" />
<path d="M 115.867, 304.370 
	L 115.866, 304.371 
	L 119.835, 294.804 
" />
<path d="M 120.048, 295.158 
	L 120.047, 295.158 
	L 116.220, 304.300 
" />
<path d="M 116.576, 304.158 
	L 116.575, 304.158 
	L 120.189, 295.513 
" />
<path d="M 120.331, 295.937 
	L 120.331, 295.938 
	L 117.000, 303.946 
" />
<path d="M 117.355, 303.732 
	L 117.354, 303.733 
	L 120.472, 296.363 
" />
<path d="M 120.544, 296.858 
	L 120.543, 296.859 
	L 117.780, 303.450 
" />
<path d="M 118.276, 303.165 
	L 118.276, 303.166 
	L 120.614, 297.426 
" />
<path d="M 120.686, 298.063 
	L 120.685, 298.064 
	L 118.772, 302.670 
" />
<path d="M 119.339, 301.961 
	L 119.339, 301.961 
	L 120.614, 298.985 
" />
<path d="M 113.953, 299.197 
	L 113.953, 299.198 
	L 111.827, 304.300 
" />
<path d="M 111.615, 304.228 
	L 111.614, 304.229 
	L 113.811, 298.843 
" />
<path d="M 114.166, 299.551 
	L 114.165, 299.552 
	L 112.110, 304.442 
" />
<path d="M 112.394, 304.512 
	L 112.394, 304.513 
	L 114.307, 299.977 
" />
<path d="M 114.450, 300.331 
	L 114.449, 300.331 
	L 112.677, 304.513 
" />
<path d="M 112.961, 304.583 
	L 112.961, 304.583 
	L 114.591, 300.686 
" />
<path d="M 114.733, 301.039 
	L 114.732, 301.040 
	L 113.315, 304.654 
" />
<path d="M 113.599, 304.654 
	L 113.598, 304.654 
	L 114.945, 301.465 
" />
<path d="M 115.087, 301.748 
	L 115.087, 301.749 
	L 113.882, 304.654 
" />
<path d="M 114.166, 304.654 
	L 114.165, 304.654 
	L 115.370, 301.891 
" />
<path d="M 115.725, 301.677 
	L 115.724, 301.678 
	L 114.520, 304.654 
" />
<path d="M 114.591, 29.551 
	L 114.591, 29.552 
	L 115.441, 26.221 
" />
<path d="M 115.513, 26.362 
	L 115.512, 26.363 
	L 115.795, 26.505 
	L 116.079, 26.505 
	L 116.150, 26.434 
	L 116.362, 26.150 
	L 116.291, 25.867 
	L 114.095, 22.253 
	L 113.882, 22.040 
	L 113.528, 22.111 
	L 113.457, 22.182 
	L 114.874, 16.300 
" />
<path d="M 114.874, 16.300 
" />
<path d="M 114.591, 16.299 
	L 114.591, 16.300 
	L 111.472, 29.127 
" />
<path d="M 111.757, 29.197 
	L 111.756, 29.198 
	L 113.315, 22.749 
	L 115.512, 26.363 
" />
<path d="M 115.654, 26.504 
	L 115.654, 26.505 
	L 114.945, 29.552 
" />
<path d="M 115.016, 29.551 
	L 115.016, 29.552 
	L 116.291, 29.198 
	L 117.425, 28.631 
	L 118.488, 27.851 
	L 119.409, 26.859 
	L 120.047, 25.725 
	L 120.472, 24.520 
	L 120.685, 23.174 
	L 120.614, 21.898 
	L 120.260, 20.623 
	L 119.693, 19.489 
" />
<path d="M 119.693, 19.489 
	L 118.913, 18.426 
	L 117.921, 17.505 
	L 116.787, 16.867 
	L 115.583, 16.442 
	L 114.236, 16.229 
	L 112.961, 16.300 
	L 111.685, 16.654 
	L 110.551, 17.221 
	L 109.488, 18.001 
	L 108.567, 18.993 
	L 107.929, 20.127 
" />
<path d="M 107.929, 20.127 
	L 107.504, 21.331 
	L 107.291, 22.607 
	L 107.362, 23.953 
	L 107.717, 25.229 
	L 108.283, 26.363 
	L 109.063, 27.426 
	L 110.055, 28.276 
	L 111.189, 28.985 
	L 112.394, 29.410 
	L 113.740, 29.623 
	L 115.016, 29.552 
" />
<path d="M 115.016, 29.552 
" />
<path d="M 115.229, 29.480 
	L 115.228, 29.481 
	L 115.937, 26.505 
" />
<path d="M 116.292, 26.291 
	L 116.291, 26.292 
	L 115.512, 29.410 
" />
<path d="M 115.867, 29.339 
	L 115.866, 29.339 
	L 118.559, 18.072 
" />
<path d="M 118.347, 17.858 
	L 118.346, 17.859 
	L 116.362, 26.009 
" />
<path d="M 116.150, 25.583 
	L 116.150, 25.583 
	L 118.134, 17.646 
" />
<path d="M 117.851, 17.504 
	L 117.850, 17.505 
	L 115.937, 25.300 
" />
<path d="M 115.725, 24.945 
	L 115.724, 24.946 
	L 117.567, 17.292 
" />
<path d="M 117.355, 17.150 
	L 117.354, 17.150 
	L 115.512, 24.591 
" />
<path d="M 115.300, 24.236 
	L 115.299, 24.237 
	L 117.071, 17.009 
" />
<path d="M 116.788, 16.866 
	L 116.787, 16.867 
	L 115.087, 23.883 
" />
<path d="M 114.875, 23.528 
	L 114.874, 23.528 
	L 116.575, 16.796 
" />
<path d="M 116.292, 16.654 
	L 116.291, 16.654 
	L 114.661, 23.174 
" />
<path d="M 114.450, 22.819 
	L 114.449, 22.820 
	L 116.008, 16.583 
" />
<path d="M 115.725, 16.512 
	L 115.724, 16.513 
	L 114.236, 22.536 
" />
<path d="M 114.024, 22.181 
	L 114.024, 22.182 
	L 115.441, 16.442 
" />
<path d="M 115.158, 16.370 
	L 115.157, 16.371 
	L 113.811, 22.040 
" />
<path d="M 113.457, 22.181 
	L 113.457, 22.182 
	L 113.315, 22.394 
	L 113.315, 22.749 
" />
<path d="M 113.528, 23.102 
	L 113.528, 23.103 
	L 112.039, 29.268 
" />
<path d="M 112.324, 29.409 
	L 112.323, 29.410 
	L 113.740, 23.387 
" />
<path d="M 113.953, 23.740 
	L 113.953, 23.741 
	L 112.606, 29.481 
" />
<path d="M 112.890, 29.480 
	L 112.890, 29.481 
	L 114.165, 24.095 
" />
<path d="M 114.379, 24.449 
	L 114.378, 24.450 
	L 113.173, 29.552 
" />
<path d="M 113.457, 29.551 
	L 113.457, 29.552 
	L 114.591, 24.804 
" />
<path d="M 114.804, 25.157 
	L 114.803, 25.158 
	L 113.740, 29.623 
" />
<path d="M 114.024, 29.622 
	L 114.024, 29.623 
	L 115.016, 25.513 
" />
<path d="M 115.229, 25.866 
	L 115.228, 25.867 
	L 114.307, 29.623 
" />
<path d="M 114.308, 29.906 
	L 114.307, 29.906 
	L 109.417, 31.749 
" />
<path d="M 108.922, 32.244 
	L 108.921, 32.245 
	L 114.945, 29.977 
" />
<path d="M 115.513, 30.118 
	L 115.512, 30.119 
	L 108.567, 32.670 
" />
<path d="M 108.284, 33.094 
	L 108.283, 33.095 
	L 116.008, 30.261 
" />
<path d="M 116.434, 30.402 
	L 116.433, 30.402 
	L 108.071, 33.450 
" />
<path d="M 107.930, 33.874 
	L 107.929, 33.875 
	L 116.787, 30.544 
" />
<path d="M 117.142, 30.685 
	L 117.142, 30.686 
	L 107.787, 34.229 
" />
<path d="M 107.646, 34.583 
	L 107.646, 34.583 
	L 117.496, 30.898 
" />
<path d="M 117.780, 31.110 
	L 117.780, 31.111 
	L 107.504, 34.867 
" />
<path d="M 107.434, 35.220 
	L 107.433, 35.221 
	L 118.063, 31.324 
" />
<path d="M 118.276, 31.535 
	L 118.276, 31.536 
	L 107.362, 35.576 
" />
<path d="M 107.363, 35.858 
	L 107.362, 35.859 
	L 118.559, 31.749 
" />
<path d="M 118.772, 31.961 
	L 118.772, 31.961 
	L 107.362, 36.213 
" />
<path d="M 107.292, 36.496 
	L 107.291, 36.497 
	L 118.984, 32.174 
" />
<path d="M 119.198, 32.386 
	L 119.197, 32.387 
	L 107.291, 36.780 
" />
<path d="M 107.363, 37.134 
	L 107.362, 37.135 
	L 119.339, 32.670 
" />
<path d="M 119.552, 32.882 
	L 119.551, 32.883 
	L 107.362, 37.418 
" />
<path d="M 107.434, 37.701 
	L 107.433, 37.701 
	L 119.693, 33.166 
" />
<path d="M 119.835, 33.378 
	L 119.835, 33.379 
	L 107.433, 37.985 
" />
<path d="M 107.505, 38.268 
	L 107.504, 38.268 
	L 113.811, 35.930 
" />
<path d="M 113.599, 36.283 
	L 113.598, 36.284 
	L 107.575, 38.552 
" />
<path d="M 107.717, 38.835 
	L 107.717, 38.835 
	L 113.457, 36.709 
" />
<path d="M 113.245, 37.063 
	L 113.244, 37.064 
	L 107.787, 39.048 
" />
<path d="M 107.930, 39.331 
	L 107.929, 39.331 
	L 113.102, 37.418 
" />
<path d="M 112.961, 37.772 
	L 112.961, 37.772 
	L 108.000, 39.615 
" />
<path d="M 108.142, 39.827 
	L 108.142, 39.827 
	L 112.748, 38.127 
" />
<path d="M 112.607, 38.551 
	L 112.606, 38.552 
	L 108.283, 40.111 
" />
<path d="M 108.497, 40.323 
	L 108.496, 40.324 
	L 112.465, 38.906 
" />
<path d="M 112.253, 39.260 
	L 112.252, 39.261 
	L 108.638, 40.607 
" />
<path d="M 108.851, 40.819 
	L 108.850, 40.820 
	L 112.110, 39.615 
" />
<path d="M 111.969, 39.969 
	L 111.969, 39.969 
	L 109.063, 41.032 
" />
<path d="M 109.276, 41.315 
	L 109.276, 41.316 
	L 112.110, 40.253 
" />
<path d="M 112.465, 40.394 
	L 112.465, 40.394 
	L 109.488, 41.528 
" />
<path d="M 109.702, 41.740 
	L 109.701, 41.741 
	L 120.543, 37.701 
" />
<path d="M 120.473, 38.055 
	L 120.472, 38.056 
	L 109.984, 41.953 
" />
<path d="M 110.268, 42.165 
	L 110.268, 42.166 
	L 120.402, 38.339 
" />
<path d="M 120.473, 38.126 
	L 120.472, 38.127 
	L 120.685, 36.851 
	L 120.543, 35.505 
	L 120.260, 34.300 
	L 119.693, 33.095 
	L 118.913, 32.032 
	L 117.921, 31.182 
	L 116.787, 30.544 
	L 115.512, 30.119 
	L 114.236, 29.906 
	L 112.961, 29.977 
" />
<path d="M 112.961, 29.977 
	L 111.685, 30.331 
	L 110.480, 30.898 
	L 109.417, 31.678 
	L 108.567, 32.670 
	L 107.929, 33.804 
	L 107.504, 35.079 
	L 107.291, 36.355 
	L 107.433, 37.631 
	L 107.717, 38.906 
	L 108.283, 40.111 
	L 109.063, 41.103 
" />
<path d="M 109.063, 41.103 
	L 110.055, 42.024 
	L 111.189, 42.662 
	L 112.465, 43.087 
	L 113.740, 43.229 
	L 115.016, 43.158 
	L 116.291, 42.875 
	L 117.496, 42.308 
	L 118.559, 41.457 
	L 119.409, 40.536 
	L 120.047, 39.402 
	L 120.472, 38.127 
" />
<path d="M 120.472, 38.127 
" />
<path d="M 120.331, 38.693 
	L 120.331, 38.694 
	L 110.551, 42.308 
" />
<path d="M 110.906, 42.520 
	L 110.906, 42.520 
	L 120.189, 39.048 
" />
<path d="M 120.048, 39.402 
	L 120.047, 39.402 
	L 111.260, 42.662 
" />
<path d="M 111.615, 42.874 
	L 111.614, 42.875 
	L 119.835, 39.827 
" />
<path d="M 119.623, 40.181 
	L 119.622, 40.182 
	L 112.110, 43.016 
" />
<path d="M 112.536, 43.087 
	L 112.535, 43.087 
	L 119.339, 40.607 
" />
<path d="M 118.985, 41.032 
	L 118.984, 41.032 
	L 113.102, 43.229 
" />
<path d="M 113.812, 43.299 
	L 113.811, 43.300 
	L 118.488, 41.528 
" />
<path d="M 117.709, 42.094 
	L 117.709, 42.095 
	L 114.732, 43.229 
" />
<path d="M 112.749, 40.323 
	L 112.748, 40.324 
	L 120.614, 37.347 
" />
<path d="M 120.615, 37.063 
	L 120.614, 37.064 
	L 112.961, 39.898 
" />
<path d="M 112.890, 40.181 
	L 112.890, 40.182 
	L 114.591, 36.355 
	L 114.661, 36.001 
	L 114.378, 35.788 
	L 114.307, 35.717 
	L 119.976, 33.662 
" />
<path d="M 120.119, 33.874 
	L 120.118, 33.875 
	L 114.591, 35.930 
" />
<path d="M 114.662, 36.213 
	L 114.661, 36.213 
	L 120.189, 34.158 
" />
<path d="M 120.331, 34.441 
	L 120.331, 34.442 
	L 114.520, 36.568 
" />
<path d="M 114.308, 36.992 
	L 114.307, 36.993 
	L 120.402, 34.725 
" />
<path d="M 120.473, 35.008 
	L 120.472, 35.009 
	L 114.165, 37.347 
" />
<path d="M 113.953, 37.701 
	L 113.953, 37.701 
	L 120.543, 35.292 
" />
<path d="M 120.615, 35.575 
	L 120.614, 35.576 
	L 113.811, 38.056 
" />
<path d="M 113.670, 38.409 
	L 113.669, 38.410 
	L 120.614, 35.859 
" />
<path d="M 120.615, 36.142 
	L 120.614, 36.142 
	L 113.457, 38.835 
" />
<path d="M 113.316, 39.189 
	L 113.315, 39.190 
	L 120.685, 36.426 
" />
<path d="M 120.686, 36.780 
	L 120.685, 36.780 
	L 113.173, 39.544 
" />
<path d="M 112.890, 40.181 
	L 112.890, 40.182 
	L 112.606, 40.394 
	L 112.323, 40.394 
	L 112.252, 40.324 
	L 112.039, 40.111 
	L 112.039, 39.757 
	L 113.811, 35.930 
	L 114.024, 35.717 
	L 114.307, 35.717 
" />
<path d="M 114.024, 36.567 
	L 114.024, 36.568 
	L 113.315, 44.576 
" />
<path d="M 113.032, 41.315 
	L 113.032, 41.316 
	L 114.095, 41.457 
	L 115.157, 41.316 
	L 116.150, 40.890 
	L 117.071, 40.324 
	L 117.850, 39.544 
	L 118.417, 38.623 
	L 118.701, 37.560 
	L 118.843, 36.497 
	L 118.701, 35.434 
	L 118.276, 34.442 
" />
<path d="M 118.276, 34.442 
	L 117.709, 33.520 
	L 116.929, 32.741 
	L 116.008, 32.174 
	L 114.945, 31.890 
	L 113.882, 31.749 
	L 112.819, 31.890 
	L 111.827, 32.245 
	L 110.906, 32.883 
	L 110.126, 33.662 
	L 109.559, 34.583 
	L 109.276, 35.576 
" />
<path d="M 109.276, 35.576 
	L 109.134, 36.709 
	L 109.276, 37.772 
	L 109.701, 38.764 
	L 110.268, 39.686 
	L 111.047, 40.465 
	L 111.969, 40.961 
	L 113.032, 41.316 
" />
<path d="M 114.024, 44.079 
	L 114.024, 44.079 
	L 114.024, 36.568 
	L 114.661, 44.576 
" />
<path d="M 114.024, 49.819 
	L 114.024, 49.820 
	L 114.024, 61.300 
" />
<path d="M 116.221, 61.654 
	L 116.220, 61.654 
	L 115.157, 50.245 
" />
<path d="M 112.820, 50.244 
	L 112.819, 50.245 
	L 111.756, 61.654 
" />
<path d="M 111.261, 67.394 
	L 111.260, 67.394 
	L 110.268, 78.804 
" />
<path d="M 114.024, 78.449 
	L 114.024, 78.450 
	L 114.024, 67.040 
" />
<path d="M 116.717, 67.394 
	L 116.717, 67.394 
	L 117.709, 78.804 
" />
<path d="M 118.205, 84.543 
	L 118.205, 84.544 
	L 119.197, 95.953 
" />
<path d="M 114.024, 95.669 
	L 114.024, 95.670 
	L 114.024, 84.190 
" />
<path d="M 109.772, 84.543 
	L 109.772, 84.544 
	L 108.780, 95.953 
" />
<path d="M 108.284, 101.622 
	L 108.283, 101.623 
	L 107.291, 113.032 
" />
<path d="M 106.796, 118.772 
	L 106.795, 118.772 
	L 105.803, 130.182 
" />
<path d="M 105.308, 135.921 
	L 105.307, 135.922 
	L 104.244, 147.331 
" />
<path d="M 103.749, 153.000 
	L 103.748, 153.001 
	L 102.756, 164.410 
" />
<path d="M 102.261, 170.150 
	L 102.260, 170.150 
	L 101.268, 181.560 
" />
<path d="M 100.772, 187.299 
	L 100.772, 187.300 
	L 99.780, 198.709 
" />
<path d="M 99.284, 204.378 
	L 99.283, 204.379 
	L 98.291, 215.859 
" />
<path d="M 97.796, 221.528 
	L 97.795, 221.528 
	L 96.803, 232.938 
" />
<path d="M 96.237, 238.677 
	L 96.236, 238.678 
	L 95.244, 250.087 
" />
<path d="M 94.749, 255.756 
	L 94.748, 255.757 
	L 93.756, 267.237 
" />
<path d="M 93.261, 272.906 
	L 93.260, 272.906 
	L 92.268, 284.316 
" />
<path d="M 91.772, 290.055 
	L 91.772, 290.056 
	L 91.063, 297.993 
" />
<path d="M 114.024, 297.992 
	L 114.024, 297.993 
	L 114.024, 290.481 
" />
<path d="M 114.024, 284.811 
	L 114.024, 284.812 
	L 114.024, 273.331 
" />
<path d="M 114.024, 267.591 
	L 114.024, 267.591 
	L 114.024, 256.111 
" />
<path d="M 114.024, 250.370 
	L 114.024, 250.371 
	L 114.024, 238.961 
" />
<path d="M 114.024, 233.220 
	L 114.024, 233.221 
	L 114.024, 221.741 
" />
<path d="M 114.024, 216.000 
	L 114.024, 216.001 
	L 114.024, 204.520 
" />
<path d="M 114.024, 198.850 
	L 114.024, 198.851 
	L 114.024, 187.371 
" />
<path d="M 114.024, 181.630 
	L 114.024, 181.631 
	L 114.024, 170.150 
" />
<path d="M 114.024, 164.409 
	L 114.024, 164.410 
	L 114.024, 153.001 
" />
<path d="M 114.024, 147.260 
	L 114.024, 147.261 
	L 114.024, 135.780 
" />
<path d="M 114.024, 130.039 
	L 114.024, 130.040 
	L 114.024, 118.560 
" />
<path d="M 114.024, 112.890 
	L 114.024, 112.890 
	L 114.024, 101.410 
" />
<path d="M 119.694, 101.622 
	L 119.693, 101.623 
	L 120.685, 113.032 
" />
<path d="M 121.182, 118.772 
	L 121.181, 118.772 
	L 122.173, 130.182 
" />
<path d="M 122.670, 135.921 
	L 122.669, 135.922 
	L 123.732, 147.331 
" />
<path d="M 124.229, 153.000 
	L 124.228, 153.001 
	L 125.220, 164.410 
" />
<path d="M 125.717, 170.150 
	L 125.717, 170.150 
	L 126.709, 181.560 
" />
<path d="M 127.205, 187.299 
	L 127.205, 187.300 
	L 128.197, 198.709 
" />
<path d="M 128.694, 204.378 
	L 128.693, 204.379 
	L 129.685, 215.859 
" />
<path d="M 130.182, 221.528 
	L 130.181, 221.528 
	L 131.173, 232.938 
" />
<path d="M 131.741, 238.677 
	L 131.740, 238.678 
	L 132.732, 250.087 
" />
<path d="M 133.229, 255.756 
	L 133.228, 255.757 
	L 134.220, 267.237 
" />
<path d="M 134.717, 272.906 
	L 134.717, 272.906 
	L 135.709, 284.316 
" />
<path d="M 136.205, 290.055 
	L 136.205, 290.056 
	L 136.913, 297.993 
" />
<path d="M 135.639, 35.858 
	L 135.638, 35.859 
	L 135.638, 32.599 
	L 135.071, 34.229 
	L 134.008, 33.095 
	L 132.378, 32.599 
	L 131.244, 32.599 
	L 129.614, 33.095 
	L 128.551, 34.229 
	L 127.984, 35.292 
	L 127.417, 36.922 
	L 127.417, 39.686 
" />
<path d="M 127.417, 39.686 
	L 127.984, 41.316 
	L 128.551, 42.379 
	L 129.614, 43.513 
	L 131.244, 44.009 
	L 132.378, 44.009 
	L 134.008, 43.513 
	L 135.071, 42.379 
	L 135.638, 41.316 
" />
<path d="M 135.639, 35.858 
	L 135.638, 35.859 
	L 135.071, 34.229 
" />
<path d="M 131.245, 32.598 
	L 131.244, 32.599 
	L 130.181, 33.095 
	L 129.047, 34.229 
	L 128.551, 35.292 
	L 127.984, 36.922 
	L 127.984, 39.686 
	L 128.551, 41.316 
	L 129.047, 42.379 
	L 130.181, 43.513 
	L 131.244, 44.009 
" />
<path d="M 132.450, 25.087 
	L 132.449, 25.087 
	L 125.858, 25.087 
" />
<path d="M 127.489, 25.087 
	L 127.488, 25.087 
	L 127.488, 13.607 
" />
<path d="M 128.056, 13.606 
	L 128.055, 13.607 
	L 128.055, 25.087 
" />
<path d="M 132.450, 25.087 
	L 132.449, 25.087 
	L 134.079, 24.520 
	L 134.575, 23.953 
	L 135.142, 22.890 
	L 135.142, 21.261 
	L 134.575, 20.127 
	L 134.079, 19.631 
	L 132.449, 19.064 
	L 133.512, 19.631 
	L 134.079, 20.127 
	L 134.575, 21.261 
" />
<path d="M 134.575, 21.261 
	L 134.575, 22.890 
	L 134.079, 23.953 
	L 133.512, 24.520 
	L 132.449, 25.087 
" />
<path d="M 132.450, 19.063 
	L 132.449, 19.064 
	L 134.079, 18.497 
	L 134.575, 17.930 
	L 135.142, 16.867 
	L 135.142, 15.804 
	L 134.575, 14.670 
	L 134.079, 14.174 
	L 132.449, 13.607 
	L 133.512, 14.174 
	L 134.079, 14.670 
	L 134.575, 15.804 
" />
<path d="M 134.575, 15.804 
	L 134.575, 16.867 
	L 134.079, 17.930 
	L 133.512, 18.497 
	L 132.449, 19.064 
	L 128.055, 19.064 
" />
<path d="M 125.859, 13.606 
	L 125.858, 13.607 
	L 132.449, 13.607 
" />
<path d="M 118.843, 18.354 
	L 118.843, 18.355 
	L 116.150, 29.198 
" />
<path d="M 116.505, 29.126 
	L 116.504, 29.127 
	L 119.055, 18.568 
" />
<path d="M 119.268, 18.850 
	L 119.268, 18.851 
	L 116.858, 28.985 
" />
<path d="M 117.142, 28.772 
	L 117.142, 28.772 
	L 119.480, 19.135 
" />
<path d="M 119.694, 19.488 
	L 119.693, 19.489 
	L 117.496, 28.560 
" />
<path d="M 117.851, 28.346 
	L 117.850, 28.347 
	L 119.906, 19.843 
" />
<path d="M 120.119, 20.268 
	L 120.118, 20.268 
	L 118.205, 28.064 
" />
<path d="M 118.631, 27.780 
	L 118.630, 27.780 
	L 120.331, 20.764 
" />
<path d="M 120.473, 21.331 
	L 120.472, 21.331 
	L 118.984, 27.355 
" />
<path d="M 119.410, 26.787 
	L 119.409, 26.788 
	L 120.614, 21.969 
" />
<path d="M 120.686, 22.890 
	L 120.685, 22.890 
	L 119.906, 26.009 
" />
<path d="M 118.064, 25.583 
	L 118.063, 25.583 
	L 118.559, 24.591 
	L 118.772, 23.528 
	L 118.772, 22.465 
	L 118.559, 21.402 
	L 118.134, 20.410 
	L 117.425, 19.560 
	L 116.646, 18.851 
	L 115.654, 18.355 
	L 114.591, 18.142 
	L 113.528, 18.142 
" />
<path d="M 113.528, 18.142 
	L 112.465, 18.355 
	L 111.472, 18.780 
	L 110.622, 19.489 
	L 109.913, 20.268 
	L 109.417, 21.261 
	L 109.205, 22.324 
	L 109.205, 23.387 
	L 109.417, 24.450 
	L 109.843, 25.442 
	L 110.551, 26.292 
	L 111.331, 27.001 
" />
<path d="M 111.331, 27.001 
	L 112.323, 27.497 
	L 113.386, 27.709 
	L 114.449, 27.709 
	L 115.512, 27.497 
	L 116.504, 27.072 
	L 117.354, 26.363 
	L 118.063, 25.583 
" />
<path d="M 113.457, 29.976 
	L 113.457, 29.977 
	L 110.055, 31.182 
" />
<path d="M 110.198, 28.417 
	L 110.197, 28.418 
	L 113.102, 16.300 
" />
<path d="M 112.820, 16.370 
	L 112.819, 16.371 
	L 109.913, 28.205 
" />
<path d="M 109.702, 27.992 
	L 109.701, 27.993 
	L 112.535, 16.442 
" />
<path d="M 112.182, 16.512 
	L 112.181, 16.513 
	L 109.417, 27.780 
" />
<path d="M 109.205, 27.567 
	L 109.205, 27.568 
	L 111.898, 16.583 
" />
<path d="M 111.544, 16.724 
	L 111.543, 16.725 
	L 108.992, 27.355 
" />
<path d="M 108.709, 27.071 
	L 108.709, 27.072 
	L 111.189, 16.867 
" />
<path d="M 110.906, 17.008 
	L 110.906, 17.009 
	L 108.496, 26.717 
" />
<path d="M 108.284, 26.433 
	L 108.283, 26.434 
	L 110.551, 17.221 
" />
<path d="M 110.198, 17.433 
	L 110.197, 17.434 
	L 108.071, 26.079 
" />
<path d="M 107.930, 25.654 
	L 107.929, 25.654 
	L 109.843, 17.717 
" />
<path d="M 109.489, 18.000 
	L 109.488, 18.001 
	L 107.717, 25.229 
" />
<path d="M 107.576, 24.661 
	L 107.575, 24.662 
	L 109.063, 18.426 
" />
<path d="M 108.639, 18.921 
	L 108.638, 18.922 
	L 107.433, 24.024 
" />
<path d="M 107.292, 23.173 
	L 107.291, 23.174 
	L 108.213, 19.631 
" />
<path d="M 113.457, 16.299 
	L 113.457, 16.300 
	L 110.409, 28.560 
" />
<path d="M 110.694, 28.701 
	L 110.693, 28.701 
	L 113.740, 16.229 
" />
<path d="M 114.024, 16.228 
	L 114.024, 16.229 
	L 110.976, 28.843 
" />
<path d="M 111.190, 28.984 
	L 111.189, 28.985 
	L 114.307, 16.229 
" />
<path d="M 111.402, 195.520 
	L 111.402, 195.520 
	L 111.969, 196.087 
	L 112.465, 197.150 
	L 112.465, 198.284 
	L 111.969, 199.347 
	L 110.339, 200.481 
	L 107.575, 201.544 
	L 106.512, 202.111 
	L 105.378, 203.174 
	L 104.811, 204.804 
" />
<path d="M 104.811, 204.804 
	L 104.811, 206.434 
" />
<path d="M 104.812, 205.370 
	L 104.811, 205.371 
	L 105.378, 204.804 
	L 106.512, 204.804 
	L 109.205, 205.938 
	L 110.835, 205.938 
	L 111.969, 205.371 
	L 112.465, 204.804 
	L 112.465, 203.741 
" />
<path d="M 112.465, 204.803 
	L 112.465, 204.804 
	L 111.969, 205.938 
	L 111.402, 206.434 
	L 109.205, 206.434 
	L 106.512, 204.804 
" />
<path d="M 107.576, 201.543 
	L 107.575, 201.544 
	L 109.772, 200.481 
	L 111.402, 199.347 
	L 111.969, 198.284 
	L 111.969, 197.150 
	L 111.402, 196.087 
	L 110.835, 195.520 
	L 109.772, 195.024 
	L 111.402, 195.520 
" />
<path d="M 109.772, 195.024 
	L 109.772, 195.024 
	L 107.575, 195.024 
	L 105.945, 195.520 
	L 105.378, 196.087 
	L 104.811, 197.150 
	L 104.811, 197.717 
	L 105.378, 198.284 
	L 105.945, 197.717 
	L 105.378, 197.150 
" />
<path d="M 96.095, 194.882 
	L 96.095, 194.883 
	L 91.205, 194.883 
" />
<path d="M 93.331, 194.882 
	L 93.331, 194.883 
	L 93.331, 183.969 
" />
<path d="M 93.898, 183.402 
	L 93.898, 183.402 
	L 93.898, 194.883 
" />
<path d="M 92.268, 185.032 
	L 92.268, 185.032 
	L 93.898, 183.402 
" />
<path d="M 92.268, 185.032 
	L 92.268, 185.032 
	L 91.205, 185.599 
" />
<path d="M 89.930, 217.701 
	L 89.929, 217.702 
	L 85.323, 219.190 
	L 80.787, 221.032 
	L 76.323, 223.087 
	L 72.071, 225.426 
	L 67.890, 227.977 
	L 63.921, 230.741 
	L 60.094, 233.788 
	L 56.480, 237.048 
	L 53.008, 240.450 
	L 49.748, 244.135 
" />
<path d="M 49.748, 244.135 
	L 46.701, 247.961 
	L 43.937, 251.930 
	L 41.386, 256.111 
	L 39.047, 260.363 
	L 36.992, 264.828 
	L 35.220, 269.292 
	L 33.661, 273.969 
	L 32.386, 278.646 
	L 31.394, 283.465 
	L 30.685, 288.284 
	L 30.260, 293.103 
" />
<path d="M 30.260, 293.103 
	L 30.118, 297.993 
	L 30.260, 302.883 
	L 30.685, 307.702 
	L 31.394, 312.591 
	L 32.386, 317.339 
	L 33.661, 322.016 
	L 35.220, 326.694 
	L 36.992, 331.229 
	L 39.047, 335.623 
	L 41.386, 339.946 
	L 43.937, 344.056 
" />
<path d="M 43.937, 344.056 
	L 46.701, 348.095 
	L 49.748, 351.922 
	L 53.008, 355.536 
	L 56.480, 359.009 
	L 60.094, 362.198 
	L 63.921, 365.245 
	L 67.890, 368.079 
	L 72.071, 370.631 
	L 76.323, 372.898 
	L 80.787, 374.954 
	L 85.323, 376.796 
" />
<path d="M 85.323, 376.796 
	L 89.929, 378.355 
	L 94.677, 379.560 
	L 99.425, 380.552 
	L 104.244, 381.261 
	L 109.134, 381.686 
	L 114.024, 381.828 
	L 118.843, 381.686 
	L 123.732, 381.261 
	L 128.551, 380.552 
	L 133.299, 379.560 
" />
<path d="M 133.299, 379.560 
	L 138.047, 378.355 
	L 142.654, 376.796 
	L 147.189, 374.954 
	L 151.654, 372.898 
	L 155.906, 370.631 
	L 160.087, 368.079 
	L 164.055, 365.245 
	L 167.882, 362.198 
	L 171.496, 359.009 
	L 174.969, 355.536 
" />
<path d="M 174.969, 355.536 
	L 178.228, 351.922 
	L 181.276, 348.095 
	L 184.039, 344.056 
	L 186.591, 339.946 
	L 188.929, 335.623 
	L 190.984, 331.229 
	L 192.756, 326.694 
	L 194.315, 322.016 
	L 195.591, 317.339 
	L 196.583, 312.591 
" />
<path d="M 196.583, 312.591 
	L 197.291, 307.702 
	L 197.717, 302.883 
	L 197.858, 297.993 
	L 197.717, 293.103 
	L 197.291, 288.284 
	L 196.583, 283.465 
	L 195.591, 278.646 
	L 194.315, 273.969 
	L 192.756, 269.292 
	L 190.984, 264.828 
" />
<path d="M 190.984, 264.828 
	L 188.929, 260.363 
	L 186.591, 256.111 
	L 184.039, 251.930 
	L 181.276, 247.961 
	L 178.228, 244.135 
	L 174.969, 240.450 
	L 171.496, 237.048 
	L 167.882, 233.788 
	L 164.055, 230.741 
	L 160.087, 227.977 
" />
<path d="M 160.087, 227.977 
	L 155.906, 225.426 
	L 151.654, 223.087 
	L 147.189, 221.032 
	L 142.654, 219.190 
	L 138.047, 217.702 
	L 133.299, 216.426 
	L 128.551, 215.434 
	L 123.732, 214.725 
	L 118.843, 214.300 
	L 114.024, 214.158 
" />
<path d="M 114.024, 214.158 
	L 109.134, 214.300 
	L 104.244, 214.725 
	L 99.425, 215.434 
	L 94.677, 216.426 
	L 89.929, 217.702 
" />
<path d="M 90.780, 247.181 
	L 90.780, 247.182 
	L 87.165, 248.953 
	L 83.764, 251.009 
	L 80.504, 253.276 
	L 77.386, 255.757 
	L 74.480, 258.450 
	L 71.717, 261.426 
	L 69.236, 264.473 
	L 66.969, 267.804 
	L 64.913, 271.205 
	L 63.142, 274.749 
" />
<path d="M 63.142, 274.749 
	L 61.583, 278.434 
	L 60.378, 282.261 
	L 59.386, 286.087 
	L 58.677, 290.056 
	L 58.252, 294.024 
	L 58.110, 297.993 
	L 58.252, 301.961 
	L 58.677, 305.930 
	L 59.386, 309.898 
	L 60.378, 313.725 
	L 61.583, 317.552 
" />
<path d="M 61.583, 317.552 
	L 63.142, 321.237 
	L 64.913, 324.780 
	L 66.969, 328.253 
	L 69.236, 331.513 
	L 71.717, 334.631 
	L 74.480, 337.536 
	L 77.386, 340.229 
	L 80.504, 342.780 
	L 83.764, 345.048 
	L 87.165, 347.032 
	L 90.780, 348.875 
" />
<path d="M 90.780, 348.875 
	L 94.465, 350.363 
	L 98.220, 351.639 
	L 102.118, 352.631 
	L 106.016, 353.339 
	L 109.984, 353.765 
	L 114.024, 353.906 
	L 117.992, 353.765 
	L 121.961, 353.339 
	L 125.858, 352.631 
	L 129.756, 351.639 
" />
<path d="M 129.756, 351.639 
	L 133.512, 350.363 
	L 137.197, 348.875 
	L 140.811, 347.032 
	L 144.213, 345.048 
	L 147.472, 342.780 
	L 150.591, 340.229 
	L 153.496, 337.536 
	L 156.260, 334.631 
	L 158.740, 331.513 
	L 161.008, 328.253 
" />
<path d="M 161.008, 328.253 
	L 163.063, 324.780 
	L 164.835, 321.237 
	L 166.394, 317.552 
	L 167.598, 313.725 
	L 168.591, 309.898 
	L 169.299, 305.930 
	L 169.724, 301.961 
	L 169.866, 297.993 
	L 169.724, 294.024 
	L 169.299, 290.056 
" />
<path d="M 169.299, 290.056 
	L 168.591, 286.087 
	L 167.598, 282.261 
	L 166.394, 278.434 
	L 164.835, 274.749 
	L 163.063, 271.205 
	L 161.008, 267.804 
	L 158.740, 264.473 
	L 156.260, 261.426 
	L 153.496, 258.450 
	L 150.591, 255.757 
" />
<path d="M 150.591, 255.757 
	L 147.472, 253.276 
	L 144.213, 251.009 
	L 140.811, 248.953 
	L 137.197, 247.182 
	L 133.512, 245.623 
	L 129.756, 244.347 
	L 125.858, 243.355 
	L 121.961, 242.646 
	L 117.992, 242.221 
	L 114.024, 242.079 
" />
<path d="M 114.024, 242.079 
	L 109.984, 242.221 
	L 106.016, 242.646 
	L 102.118, 243.355 
	L 98.220, 244.347 
	L 94.465, 245.623 
	L 90.780, 247.182 
" />
<path d="M 94.253, 278.220 
	L 94.252, 278.221 
	L 92.409, 280.276 
	L 90.780, 282.473 
	L 89.362, 284.812 
	L 88.157, 287.292 
	L 87.236, 289.914 
	L 86.598, 292.536 
	L 86.173, 295.229 
	L 86.032, 297.993 
	L 86.173, 300.757 
	L 86.598, 303.450 
" />
<path d="M 86.598, 303.450 
	L 87.236, 306.142 
	L 88.157, 308.694 
	L 89.362, 311.174 
	L 90.780, 313.513 
	L 92.409, 315.709 
	L 94.252, 317.765 
	L 96.236, 319.607 
	L 98.433, 321.237 
	L 100.843, 322.654 
	L 103.323, 323.788 
	L 105.874, 324.780 
" />
<path d="M 105.874, 324.780 
	L 108.567, 325.418 
	L 111.260, 325.843 
	L 114.024, 325.914 
	L 116.717, 325.843 
	L 119.409, 325.418 
	L 122.102, 324.780 
	L 124.654, 323.788 
	L 127.134, 322.654 
	L 129.543, 321.237 
	L 131.740, 319.607 
" />
<path d="M 131.740, 319.607 
	L 133.724, 317.765 
	L 135.567, 315.709 
	L 137.197, 313.513 
	L 138.614, 311.174 
	L 139.819, 308.694 
	L 140.740, 306.142 
	L 141.378, 303.450 
	L 141.803, 300.757 
	L 141.945, 297.993 
	L 141.803, 295.229 
" />
<path d="M 141.803, 295.229 
	L 141.378, 292.536 
	L 140.740, 289.914 
	L 139.819, 287.292 
	L 138.614, 284.812 
	L 137.197, 282.473 
	L 135.567, 280.276 
	L 133.724, 278.221 
	L 131.740, 276.379 
	L 129.543, 274.749 
	L 127.134, 273.331 
" />
<path d="M 127.134, 273.331 
	L 124.654, 272.198 
	L 122.102, 271.276 
	L 119.409, 270.568 
	L 116.717, 270.213 
	L 114.024, 270.072 
	L 111.260, 270.213 
	L 108.567, 270.568 
	L 105.874, 271.276 
	L 103.323, 272.198 
	L 100.843, 273.331 
" />
<path d="M 100.843, 273.331 
	L 98.433, 274.749 
	L 96.236, 276.379 
	L 94.252, 278.221 
" />
<path d="M 109.064, 293.032 
	L 109.063, 293.032 
	L 108.213, 294.095 
	L 107.504, 295.300 
	L 107.150, 296.646 
	L 107.008, 297.993 
	L 107.150, 299.339 
	L 107.504, 300.686 
	L 108.213, 301.891 
	L 109.063, 302.953 
	L 110.126, 303.804 
" />
<path d="M 110.126, 303.804 
	L 111.331, 304.442 
	L 112.606, 304.867 
	L 114.024, 305.009 
	L 115.370, 304.867 
	L 116.646, 304.442 
	L 117.850, 303.804 
	L 118.913, 302.953 
	L 119.764, 301.891 
	L 120.472, 300.686 
	L 120.827, 299.339 
" />
<path d="M 120.827, 299.339 
	L 120.969, 297.993 
	L 120.827, 296.646 
	L 120.472, 295.300 
	L 119.764, 294.095 
	L 118.913, 293.032 
	L 117.850, 292.182 
	L 116.646, 291.544 
	L 115.370, 291.119 
	L 114.024, 291.048 
	L 112.606, 291.119 
" />
<path d="M 112.606, 291.119 
	L 111.331, 291.544 
	L 110.126, 292.182 
	L 109.063, 293.032 
" />
<path d="M 105.379, 305.787 
	L 105.378, 305.788 
	L 106.441, 306.851 
	L 107.008, 307.985 
	L 107.575, 309.615 
	L 107.575, 312.308 
	L 107.008, 314.009 
	L 106.441, 315.072 
	L 105.378, 316.135 
	L 103.748, 316.702 
	L 98.291, 316.702 
" />
<path d="M 98.291, 316.702 
" />
<path d="M 99.922, 316.701 
	L 99.921, 316.702 
	L 99.921, 305.221 
" />
<path d="M 100.489, 305.221 
	L 100.488, 305.221 
	L 100.488, 316.702 
" />
<path d="M 103.749, 316.701 
	L 103.748, 316.702 
	L 104.811, 316.135 
	L 105.945, 315.072 
	L 106.441, 314.009 
	L 107.008, 312.308 
	L 107.008, 309.615 
	L 106.441, 307.985 
	L 105.945, 306.851 
	L 104.811, 305.788 
	L 103.748, 305.221 
" />
<path d="M 103.748, 305.221 
	L 105.378, 305.788 
" />
<path d="M 103.749, 305.221 
	L 103.748, 305.221 
	L 98.291, 305.221 
" />
<path d="M 114.024, 389.693 
	L 114.024, 389.694 
	L 114.024, 0.001 
" />
<path d="M 218.835, 0.000 
	L 218.835, 0.001 
	L 218.835, 389.694 
" />
<path d="M 227.977, 381.827 
	L 227.976, 381.828 
	L 0.000, 381.828 
" />
<path d="M 9.142, 389.693 
	L 9.142, 389.694 
	L 9.142, 0.001 
" />
<path d="M 0.001, 4.535 
	L 0.000, 4.536 
	L 227.976, 4.536 
" />
<path d="M 141.237, 183.969 
	L 141.236, 183.969 
	L 141.803, 185.032 
	L 141.803, 186.733 
	L 141.236, 187.796 
	L 139.606, 188.363 
	L 137.976, 188.363 
" />
<path d="M 139.607, 188.362 
	L 139.606, 188.363 
	L 140.669, 188.859 
	L 141.803, 189.993 
	L 142.299, 191.056 
	L 142.299, 192.686 
	L 141.803, 193.820 
	L 141.236, 194.316 
	L 139.606, 194.883 
	L 137.409, 194.883 
	L 135.780, 194.316 
" />
<path d="M 135.780, 194.316 
	L 135.213, 193.820 
	L 134.646, 192.686 
	L 134.646, 192.190 
	L 135.213, 191.623 
	L 135.780, 192.190 
	L 135.213, 192.686 
" />
<path d="M 135.213, 186.732 
	L 135.213, 186.733 
	L 134.646, 186.166 
	L 134.646, 185.599 
	L 135.213, 184.536 
	L 135.780, 183.969 
	L 137.409, 183.402 
	L 139.606, 183.402 
	L 141.236, 183.969 
" />
<path d="M 140.670, 183.969 
	L 140.669, 183.969 
	L 141.236, 185.032 
	L 141.236, 186.733 
	L 140.669, 187.796 
	L 139.606, 188.363 
" />
<path d="M 141.237, 189.425 
	L 141.236, 189.426 
	L 141.803, 191.056 
	L 141.803, 192.686 
	L 141.236, 193.820 
	L 140.669, 194.316 
	L 139.606, 194.883 
" />
<path d="M 139.607, 183.402 
	L 139.606, 183.402 
	L 140.669, 183.969 
" />
<path d="M 135.213, 185.598 
	L 135.213, 185.599 
	L 135.780, 186.166 
	L 135.213, 186.733 
" />
<path d="M 227.977, 297.992 
	L 227.976, 297.993 
	L 0.000, 297.993 
" />
</g><g style="stroke:rgb(255,255,255); fill:none; stroke-width:0.100mm" >
</g>
</svg>
