<?xml version="1.0" encoding="UTF-8" standalone="no" ?>
<svg width="100%" height="100%" viewBox="0 0 227.977 240.662" xmlns="http://www.w3.org/2000/svg"><g>
</g><g style="stroke:rgb(0,0,0); fill:none; stroke-width:1.000mm" >
</g><g style="stroke:rgb(0,0,0); fill:none; stroke-width:0.100mm" >
<path d="M 165.473, 54.921 
	L 165.472, 54.922 
	L 167.032, 49.040 
" />
<path d="M 166.820, 48.685 
	L 166.819, 48.686 
	L 165.189, 54.851 
" />
<path d="M 164.977, 54.780 
	L 164.976, 54.780 
	L 166.606, 48.331 
	L 168.803, 51.946 
	L 169.016, 52.158 
	L 169.299, 52.087 
	L 169.441, 52.087 
	L 169.583, 51.804 
	L 169.583, 51.520 
	L 167.457, 47.835 
	L 167.173, 47.694 
	L 166.890, 47.694 
" />
<path d="M 166.890, 47.694 
	L 166.819, 47.764 
	L 166.606, 47.977 
	L 166.606, 48.331 
" />
<path d="M 166.749, 47.764 
	L 166.748, 47.764 
	L 168.307, 41.953 
" />
<path d="M 168.591, 41.953 
	L 168.591, 41.953 
	L 167.102, 47.694 
" />
<path d="M 167.387, 47.764 
	L 167.386, 47.764 
	L 168.874, 42.024 
" />
<path d="M 168.946, 42.094 
	L 168.945, 42.095 
	L 167.669, 41.883 
	L 166.394, 41.953 
	L 165.118, 42.237 
	L 163.913, 42.804 
	L 162.850, 43.513 
	L 162.000, 44.505 
	L 161.291, 45.639 
	L 160.866, 46.843 
	L 160.654, 48.119 
	L 160.654, 49.465 
" />
<path d="M 160.654, 49.465 
	L 161.008, 50.741 
	L 161.504, 51.875 
	L 162.283, 52.938 
	L 163.276, 53.859 
	L 164.339, 54.497 
	L 165.614, 54.993 
	L 166.890, 55.205 
	L 168.165, 55.135 
	L 169.441, 54.851 
	L 170.646, 54.284 
	L 171.709, 53.505 
" />
<path d="M 171.709, 53.505 
	L 172.630, 52.583 
	L 173.268, 51.450 
	L 173.764, 50.245 
	L 173.976, 48.898 
	L 173.906, 47.623 
	L 173.622, 46.347 
	L 173.055, 45.142 
	L 172.276, 44.079 
	L 171.283, 43.229 
	L 170.220, 42.520 
	L 168.945, 42.095 
" />
<path d="M 168.945, 42.095 
" />
<path d="M 169.158, 42.094 
	L 169.158, 42.095 
	L 167.598, 48.119 
" />
<path d="M 167.812, 48.472 
	L 167.811, 48.473 
	L 169.441, 42.237 
" />
<path d="M 169.654, 42.307 
	L 169.654, 42.308 
	L 167.953, 48.827 
" />
<path d="M 168.166, 49.181 
	L 168.165, 49.182 
	L 169.937, 42.379 
" />
<path d="M 170.221, 42.520 
	L 170.220, 42.520 
	L 168.378, 49.536 
" />
<path d="M 168.591, 49.890 
	L 168.591, 49.890 
	L 170.504, 42.662 
" />
<path d="M 170.717, 42.803 
	L 170.717, 42.804 
	L 168.803, 50.245 
" />
<path d="M 169.016, 50.528 
	L 169.016, 50.528 
	L 171.000, 42.946 
" />
<path d="M 171.213, 43.157 
	L 171.213, 43.158 
	L 169.228, 50.883 
" />
<path d="M 169.442, 51.236 
	L 169.441, 51.237 
	L 171.496, 43.371 
" />
<path d="M 171.709, 43.583 
	L 171.709, 43.583 
	L 169.583, 51.662 
" />
<path d="M 169.513, 51.945 
	L 169.512, 51.946 
	L 168.732, 55.064 
" />
<path d="M 169.016, 54.992 
	L 169.016, 54.993 
	L 171.992, 43.796 
" />
<path d="M 172.205, 44.008 
	L 172.205, 44.009 
	L 169.370, 54.851 
" />
<path d="M 169.725, 54.780 
	L 169.724, 54.780 
	L 172.417, 44.292 
" />
<path d="M 172.631, 44.575 
	L 172.630, 44.576 
	L 170.008, 54.639 
" />
<path d="M 170.363, 54.425 
	L 170.362, 54.426 
	L 172.843, 44.859 
" />
<path d="M 173.056, 45.213 
	L 173.055, 45.213 
	L 170.717, 54.284 
" />
<path d="M 171.072, 54.000 
	L 171.071, 54.001 
	L 173.268, 45.568 
" />
<path d="M 173.481, 45.992 
	L 173.480, 45.993 
	L 171.425, 53.788 
" />
<path d="M 171.780, 53.433 
	L 171.780, 53.434 
	L 173.622, 46.489 
" />
<path d="M 173.765, 46.984 
	L 173.764, 46.985 
	L 172.205, 53.009 
" />
<path d="M 172.631, 52.512 
	L 172.630, 52.513 
	L 173.906, 47.694 
" />
<path d="M 173.977, 48.614 
	L 173.976, 48.615 
	L 173.126, 51.733 
" />
<path d="M 171.284, 51.236 
	L 171.283, 51.237 
	L 171.780, 50.245 
	L 172.063, 49.253 
	L 172.134, 48.119 
	L 171.921, 47.056 
	L 171.496, 46.064 
	L 170.787, 45.213 
	L 170.008, 44.505 
	L 169.016, 44.009 
	L 167.953, 43.725 
	L 166.890, 43.725 
" />
<path d="M 166.890, 43.725 
	L 165.827, 43.938 
	L 164.835, 44.363 
	L 163.984, 45.001 
	L 163.276, 45.851 
	L 162.780, 46.772 
	L 162.496, 47.835 
	L 162.496, 48.898 
	L 162.709, 49.961 
	L 163.134, 50.953 
	L 163.772, 51.875 
	L 164.622, 52.513 
" />
<path d="M 164.622, 52.513 
	L 165.543, 53.009 
	L 166.606, 53.292 
	L 167.669, 53.363 
	L 168.732, 53.150 
	L 169.724, 52.725 
	L 170.575, 52.087 
	L 171.283, 51.237 
" />
<path d="M 168.450, 51.449 
	L 168.449, 51.450 
	L 167.528, 55.205 
" />
<path d="M 167.812, 55.205 
	L 167.811, 55.205 
	L 168.661, 51.804 
" />
<path d="M 168.875, 52.087 
	L 168.874, 52.087 
	L 168.095, 55.135 
" />
<path d="M 168.450, 55.134 
	L 168.449, 55.135 
	L 169.158, 52.158 
" />
<path d="M 168.308, 51.094 
	L 168.307, 51.095 
	L 167.173, 55.205 
" />
<path d="M 166.890, 55.205 
	L 166.890, 55.205 
	L 168.095, 50.741 
" />
<path d="M 167.883, 50.386 
	L 167.882, 50.387 
	L 166.606, 55.135 
" />
<path d="M 166.324, 55.134 
	L 166.323, 55.135 
	L 167.669, 50.032 
" />
<path d="M 167.457, 49.748 
	L 167.457, 49.749 
	L 166.039, 55.064 
" />
<path d="M 165.757, 54.992 
	L 165.756, 54.993 
	L 167.244, 49.394 
" />
<path d="M 160.725, 49.535 
	L 160.724, 49.536 
	L 162.000, 44.434 
" />
<path d="M 162.426, 43.937 
	L 162.425, 43.938 
	L 160.795, 50.174 
" />
<path d="M 161.009, 50.669 
	L 161.008, 50.670 
	L 162.850, 43.583 
" />
<path d="M 163.205, 43.228 
	L 163.205, 43.229 
	L 161.150, 51.166 
" />
<path d="M 161.363, 51.591 
	L 161.362, 51.591 
	L 163.559, 42.946 
" />
<path d="M 163.914, 42.732 
	L 163.913, 42.733 
	L 161.575, 51.946 
" />
<path d="M 161.788, 52.228 
	L 161.787, 52.229 
	L 164.268, 42.591 
" />
<path d="M 164.623, 42.378 
	L 164.622, 42.379 
	L 162.000, 52.583 
" />
<path d="M 162.213, 52.866 
	L 162.213, 52.867 
	L 164.976, 42.308 
" />
<path d="M 165.261, 42.165 
	L 165.260, 42.166 
	L 162.425, 53.079 
" />
<path d="M 162.639, 53.362 
	L 162.638, 53.363 
	L 165.614, 42.095 
" />
<path d="M 165.898, 42.024 
	L 165.898, 42.024 
	L 162.921, 53.576 
" />
<path d="M 162.780, 53.858 
	L 162.780, 53.859 
	L 154.913, 57.615 
" />
<path d="M 155.127, 57.260 
	L 155.126, 57.261 
	L 162.354, 53.788 
" />
<path d="M 162.001, 53.717 
	L 162.000, 53.717 
	L 160.654, 53.646 
	L 159.378, 53.859 
	L 158.173, 54.284 
	L 157.039, 54.993 
	L 156.047, 55.843 
	L 155.268, 56.906 
	L 154.772, 58.111 
	L 154.417, 59.387 
	L 154.346, 60.662 
	L 154.559, 61.938 
" />
<path d="M 154.559, 61.938 
	L 154.984, 63.213 
	L 155.693, 64.276 
	L 156.543, 65.268 
	L 157.606, 66.048 
	L 158.811, 66.615 
	L 160.087, 66.898 
	L 161.362, 66.969 
	L 162.709, 66.757 
	L 163.913, 66.331 
	L 165.047, 65.694 
	L 165.969, 64.772 
" />
<path d="M 165.969, 64.772 
	L 166.748, 63.709 
	L 167.315, 62.576 
	L 167.669, 61.300 
	L 167.669, 59.953 
	L 167.528, 58.678 
	L 167.032, 57.473 
	L 166.394, 56.339 
	L 165.472, 55.347 
	L 164.409, 54.568 
	L 163.276, 54.001 
	L 162.000, 53.717 
" />
<path d="M 162.000, 53.717 
" />
<path d="M 161.859, 53.717 
	L 161.858, 53.717 
	L 155.339, 56.764 
" />
<path d="M 155.694, 56.339 
	L 155.693, 56.339 
	L 161.291, 53.646 
" />
<path d="M 160.583, 53.646 
	L 160.583, 53.646 
	L 156.118, 55.772 
" />
<path d="M 156.828, 55.134 
	L 156.827, 55.135 
	L 159.661, 53.788 
" />
<path d="M 159.450, 55.772 
	L 159.449, 55.772 
	L 158.457, 56.198 
	L 157.606, 56.906 
	L 156.969, 57.757 
	L 156.472, 58.678 
	L 156.260, 59.741 
	L 156.189, 60.875 
	L 156.472, 61.867 
	L 156.898, 62.859 
	L 157.606, 63.709 
	L 158.457, 64.418 
" />
<path d="M 158.457, 64.418 
	L 159.449, 64.843 
	L 160.441, 65.127 
	L 161.575, 65.127 
	L 162.638, 64.914 
	L 163.559, 64.418 
	L 164.409, 63.780 
	L 165.118, 62.930 
	L 165.614, 61.938 
	L 165.827, 60.875 
	L 165.827, 59.812 
	L 165.614, 58.749 
" />
<path d="M 165.614, 58.749 
	L 165.118, 57.757 
	L 164.480, 56.906 
	L 163.630, 56.198 
	L 162.638, 55.772 
	L 161.575, 55.489 
	L 160.512, 55.489 
	L 159.449, 55.772 
" />
<path d="M 161.930, 56.551 
	L 161.929, 56.552 
	L 154.346, 60.166 
" />
<path d="M 154.347, 60.449 
	L 154.346, 60.450 
	L 161.717, 56.906 
" />
<path d="M 161.859, 56.693 
	L 161.858, 56.694 
	L 160.441, 60.662 
	L 160.441, 60.946 
	L 160.654, 61.158 
	L 160.795, 61.229 
	L 155.339, 63.780 
" />
<path d="M 155.198, 63.567 
	L 155.197, 63.568 
	L 160.512, 61.016 
" />
<path d="M 160.442, 60.732 
	L 160.441, 60.733 
	L 155.055, 63.284 
" />
<path d="M 154.914, 63.000 
	L 154.913, 63.001 
	L 160.512, 60.379 
" />
<path d="M 160.654, 59.953 
	L 160.654, 59.953 
	L 154.843, 62.788 
" />
<path d="M 154.702, 62.504 
	L 154.701, 62.505 
	L 160.795, 59.599 
" />
<path d="M 160.938, 59.244 
	L 160.937, 59.245 
	L 154.630, 62.221 
" />
<path d="M 154.560, 61.937 
	L 154.559, 61.938 
	L 161.079, 58.820 
" />
<path d="M 161.221, 58.465 
	L 161.220, 58.465 
	L 154.488, 61.654 
" />
<path d="M 154.418, 61.370 
	L 154.417, 61.371 
	L 161.362, 58.040 
" />
<path d="M 161.505, 57.685 
	L 161.504, 57.686 
	L 154.417, 61.087 
" />
<path d="M 154.347, 60.732 
	L 154.346, 60.733 
	L 161.646, 57.331 
" />
<path d="M 161.859, 56.693 
	L 161.858, 56.694 
	L 162.071, 56.410 
	L 162.354, 56.410 
	L 162.425, 56.410 
	L 162.709, 56.623 
	L 162.709, 56.977 
	L 161.291, 60.946 
	L 161.079, 61.158 
	L 160.795, 61.229 
" />
<path d="M 161.292, 60.945 
	L 161.291, 60.946 
	L 167.315, 58.111 
" />
<path d="M 167.387, 58.323 
	L 167.386, 58.324 
	L 155.480, 64.064 
" />
<path d="M 155.694, 64.276 
	L 155.693, 64.276 
	L 167.457, 58.607 
" />
<path d="M 167.528, 58.890 
	L 167.528, 58.890 
	L 155.835, 64.489 
" />
<path d="M 156.048, 64.701 
	L 156.047, 64.702 
	L 167.598, 59.174 
" />
<path d="M 167.670, 59.528 
	L 167.669, 59.528 
	L 156.260, 64.985 
" />
<path d="M 156.473, 65.197 
	L 156.472, 65.198 
	L 167.669, 59.812 
" />
<path d="M 167.670, 60.094 
	L 167.669, 60.095 
	L 156.685, 65.339 
" />
<path d="M 156.898, 65.551 
	L 156.898, 65.552 
	L 167.740, 60.450 
" />
<path d="M 167.670, 60.732 
	L 167.669, 60.733 
	L 157.181, 65.764 
" />
<path d="M 157.465, 65.976 
	L 157.465, 65.977 
	L 167.669, 61.087 
" />
<path d="M 167.599, 61.441 
	L 167.598, 61.442 
	L 157.748, 66.119 
" />
<path d="M 158.103, 66.260 
	L 158.102, 66.261 
	L 167.528, 61.796 
" />
<path d="M 167.457, 62.150 
	L 167.457, 62.150 
	L 158.386, 66.473 
" />
<path d="M 158.812, 66.614 
	L 158.811, 66.615 
	L 167.315, 62.505 
" />
<path d="M 167.174, 62.929 
	L 167.173, 62.930 
	L 159.165, 66.757 
" />
<path d="M 159.591, 66.827 
	L 159.591, 66.827 
	L 167.032, 63.284 
" />
<path d="M 166.749, 63.709 
	L 166.748, 63.709 
	L 160.087, 66.898 
" />
<path d="M 160.654, 66.969 
	L 160.654, 66.969 
	L 166.465, 64.205 
" />
<path d="M 166.040, 64.701 
	L 166.039, 64.702 
	L 161.291, 66.969 
" />
<path d="M 162.142, 66.898 
	L 162.142, 66.898 
	L 165.472, 65.339 
" />
<path d="M 161.434, 60.591 
	L 161.433, 60.591 
	L 167.244, 57.827 
" />
<path d="M 167.103, 57.543 
	L 167.102, 57.544 
	L 161.575, 60.166 
" />
<path d="M 161.717, 59.811 
	L 161.717, 59.812 
	L 166.961, 57.261 
" />
<path d="M 166.820, 57.047 
	L 166.819, 57.048 
	L 161.858, 59.457 
" />
<path d="M 162.001, 59.032 
	L 162.000, 59.032 
	L 166.677, 56.764 
" />
<path d="M 166.536, 56.551 
	L 166.535, 56.552 
	L 162.142, 58.678 
" />
<path d="M 162.213, 58.252 
	L 162.213, 58.253 
	L 166.394, 56.339 
" />
<path d="M 166.182, 56.055 
	L 166.181, 56.056 
	L 162.354, 57.898 
" />
<path d="M 162.497, 57.543 
	L 162.496, 57.544 
	L 165.969, 55.843 
" />
<path d="M 165.757, 55.630 
	L 165.756, 55.631 
	L 162.638, 57.119 
" />
<path d="M 162.709, 56.764 
	L 162.709, 56.764 
	L 165.543, 55.418 
" />
<path d="M 165.331, 55.205 
	L 165.331, 55.205 
	L 162.567, 56.552 
" />
<path d="M 162.213, 56.409 
	L 162.213, 56.410 
	L 165.118, 54.993 
" />
<path d="M 164.835, 54.850 
	L 164.835, 54.851 
	L 154.346, 59.812 
" />
<path d="M 154.418, 59.457 
	L 154.417, 59.457 
	L 164.551, 54.639 
" />
<path d="M 164.694, 54.638 
	L 164.693, 54.639 
	L 168.024, 41.883 
" />
<path d="M 167.741, 41.882 
	L 167.740, 41.883 
	L 164.409, 54.568 
" />
<path d="M 164.268, 54.496 
	L 164.268, 54.497 
	L 154.488, 59.103 
" />
<path d="M 154.560, 58.748 
	L 154.559, 58.749 
	L 163.913, 54.284 
	L 167.173, 41.883 
" />
<path d="M 167.457, 41.882 
	L 167.457, 41.883 
	L 164.126, 54.426 
" />
<path d="M 163.631, 54.142 
	L 163.630, 54.142 
	L 166.819, 41.883 
" />
<path d="M 166.536, 41.882 
	L 166.535, 41.883 
	L 163.417, 53.930 
" />
<path d="M 163.205, 54.000 
	L 163.205, 54.001 
	L 154.772, 58.040 
" />
<path d="M 154.631, 58.394 
	L 154.630, 58.394 
	L 163.559, 54.142 
" />
<path d="M 163.135, 53.787 
	L 163.134, 53.788 
	L 166.252, 41.953 
" />
<path d="M 161.576, 45.142 
	L 161.575, 45.142 
	L 160.583, 48.686 
" />
<path d="M 118.914, 144.425 
	L 118.913, 144.426 
	L 117.213, 154.772 
" />
<path d="M 117.568, 154.630 
	L 117.567, 154.631 
	L 119.126, 144.709 
" />
<path d="M 119.339, 145.063 
	L 119.339, 145.064 
	L 117.921, 154.418 
" />
<path d="M 117.922, 154.346 
	L 117.921, 154.347 
	L 118.913, 153.497 
	L 119.693, 152.434 
	L 120.260, 151.300 
	L 120.543, 150.024 
	L 120.685, 148.749 
	L 120.472, 147.402 
	L 120.047, 146.198 
	L 119.409, 145.064 
	L 118.488, 144.072 
" />
<path d="M 118.488, 144.072 
	L 117.496, 143.292 
	L 116.291, 142.725 
	L 115.016, 142.371 
	L 113.740, 142.300 
	L 112.465, 142.513 
	L 111.189, 142.938 
	L 110.055, 143.576 
	L 109.063, 144.426 
	L 108.283, 145.489 
	L 107.717, 146.694 
" />
<path d="M 107.717, 146.694 
	L 107.433, 147.969 
	L 107.291, 149.245 
	L 107.504, 150.520 
	L 107.929, 151.796 
	L 108.567, 152.930 
	L 109.488, 153.851 
	L 110.480, 154.702 
	L 111.685, 155.268 
	L 112.961, 155.552 
	L 114.236, 155.623 
" />
<path d="M 114.236, 155.623 
	L 115.512, 155.481 
	L 116.787, 155.056 
	L 117.921, 154.347 
" />
<path d="M 118.205, 154.134 
	L 118.205, 154.135 
	L 119.622, 145.347 
" />
<path d="M 119.835, 145.772 
	L 119.835, 145.772 
	L 118.559, 153.851 
" />
<path d="M 118.914, 153.496 
	L 118.913, 153.497 
	L 120.047, 146.198 
" />
<path d="M 120.261, 146.693 
	L 120.260, 146.694 
	L 119.268, 153.072 
" />
<path d="M 119.623, 152.575 
	L 119.622, 152.576 
	L 120.472, 147.331 
" />
<path d="M 120.615, 148.181 
	L 120.614, 148.182 
	L 120.047, 151.796 
" />
<path d="M 118.276, 151.299 
	L 118.276, 151.300 
	L 118.630, 150.237 
	L 118.843, 149.174 
	L 118.772, 148.111 
	L 118.417, 147.048 
	L 117.921, 146.127 
	L 117.142, 145.347 
	L 116.291, 144.709 
	L 115.299, 144.284 
	L 114.236, 144.142 
" />
<path d="M 114.236, 144.142 
	L 113.102, 144.213 
	L 112.110, 144.568 
	L 111.118, 145.064 
	L 110.339, 145.772 
	L 109.701, 146.694 
	L 109.346, 147.686 
	L 109.134, 148.749 
	L 109.205, 149.812 
	L 109.559, 150.875 
	L 110.055, 151.796 
" />
<path d="M 110.055, 151.796 
	L 110.835, 152.646 
	L 111.685, 153.213 
	L 112.677, 153.639 
	L 113.740, 153.780 
	L 114.874, 153.709 
	L 115.866, 153.426 
	L 116.858, 152.930 
	L 117.638, 152.150 
	L 118.276, 151.300 
" />
<path d="M 116.930, 154.984 
	L 116.929, 154.985 
	L 118.630, 144.213 
" />
<path d="M 118.347, 143.929 
	L 118.346, 143.930 
	L 116.646, 155.127 
" />
<path d="M 116.292, 155.268 
	L 116.291, 155.268 
	L 118.134, 143.717 
" />
<path d="M 117.851, 143.575 
	L 117.850, 143.576 
	L 116.008, 155.339 
" />
<path d="M 115.725, 155.409 
	L 115.724, 155.410 
	L 117.567, 143.363 
" />
<path d="M 117.355, 143.220 
	L 117.354, 143.221 
	L 115.370, 155.481 
" />
<path d="M 115.087, 155.551 
	L 115.087, 155.552 
	L 117.071, 143.079 
" />
<path d="M 116.788, 142.937 
	L 116.787, 142.938 
	L 114.803, 155.623 
" />
<path d="M 114.520, 155.622 
	L 114.520, 155.623 
	L 116.504, 142.796 
" />
<path d="M 116.292, 142.724 
	L 116.291, 142.725 
	L 114.236, 155.623 
" />
<path d="M 113.883, 155.622 
	L 113.882, 155.623 
	L 116.008, 142.583 
" />
<path d="M 115.725, 142.512 
	L 115.724, 142.513 
	L 114.661, 149.103 
	L 112.181, 145.702 
	L 111.898, 145.560 
	L 111.614, 145.631 
	L 111.543, 145.702 
	L 111.331, 145.914 
	L 111.402, 146.268 
	L 113.882, 149.670 
	L 114.165, 149.812 
" />
<path d="M 114.165, 149.812 
	L 114.520, 149.741 
	L 114.591, 149.670 
	L 113.598, 155.623 
" />
<path d="M 113.316, 155.622 
	L 113.315, 155.623 
	L 114.236, 149.812 
" />
<path d="M 113.953, 149.740 
	L 113.953, 149.741 
	L 113.032, 155.623 
" />
<path d="M 112.749, 155.551 
	L 112.748, 155.552 
	L 113.740, 149.457 
" />
<path d="M 113.883, 149.173 
	L 113.882, 149.174 
	L 116.575, 144.142 
" />
<path d="M 115.442, 142.441 
	L 115.441, 142.442 
	L 114.449, 148.820 
" />
<path d="M 114.662, 149.102 
	L 114.661, 149.103 
	L 114.732, 149.457 
	L 114.591, 149.670 
" />
<path d="M 113.528, 149.102 
	L 113.528, 149.103 
	L 112.465, 155.481 
" />
<path d="M 112.182, 155.409 
	L 112.181, 155.410 
	L 113.244, 148.749 
" />
<path d="M 113.032, 148.465 
	L 113.032, 148.465 
	L 111.969, 155.339 
" />
<path d="M 111.686, 155.268 
	L 111.685, 155.268 
	L 112.819, 148.111 
" />
<path d="M 112.536, 147.756 
	L 112.535, 147.757 
	L 111.402, 155.127 
" />
<path d="M 111.119, 154.984 
	L 111.118, 154.985 
	L 112.323, 147.473 
" />
<path d="M 112.111, 147.118 
	L 112.110, 147.119 
	L 110.835, 154.843 
" />
<path d="M 110.552, 154.701 
	L 110.551, 154.702 
	L 111.827, 146.835 
" />
<path d="M 111.615, 146.480 
	L 111.614, 146.481 
	L 110.339, 154.560 
" />
<path d="M 110.056, 154.346 
	L 110.055, 154.347 
	L 111.402, 146.127 
" />
<path d="M 111.402, 145.772 
	L 111.402, 145.772 
	L 111.898, 142.654 
" />
<path d="M 111.615, 142.724 
	L 111.614, 142.725 
	L 109.772, 154.205 
" />
<path d="M 109.560, 153.921 
	L 109.559, 153.922 
	L 111.331, 142.867 
" />
<path d="M 110.977, 143.008 
	L 110.976, 143.009 
	L 109.276, 153.709 
" />
<path d="M 109.064, 153.425 
	L 109.063, 153.426 
	L 110.693, 143.221 
" />
<path d="M 110.339, 143.362 
	L 110.339, 143.363 
	L 108.780, 153.142 
" />
<path d="M 108.568, 152.858 
	L 108.567, 152.859 
	L 110.055, 143.646 
" />
<path d="M 109.702, 143.858 
	L 109.701, 143.859 
	L 108.354, 152.505 
" />
<path d="M 108.072, 152.079 
	L 108.071, 152.079 
	L 109.346, 144.213 
" />
<path d="M 108.993, 144.567 
	L 108.992, 144.568 
	L 107.858, 151.654 
" />
<path d="M 107.646, 151.158 
	L 107.646, 151.158 
	L 108.638, 144.993 
" />
<path d="M 108.284, 145.559 
	L 108.283, 145.560 
	L 107.504, 150.450 
" />
<path d="M 107.363, 149.528 
	L 107.362, 149.528 
	L 107.858, 146.410 
" />
<path d="M 111.757, 145.559 
	L 111.756, 145.560 
	L 112.252, 142.583 
" />
<path d="M 112.536, 142.441 
	L 112.535, 142.442 
	L 112.039, 145.560 
" />
<path d="M 112.253, 145.843 
	L 112.252, 145.843 
	L 112.819, 142.442 
" />
<path d="M 113.103, 142.370 
	L 113.102, 142.371 
	L 112.535, 146.198 
" />
<path d="M 112.749, 146.480 
	L 112.748, 146.481 
	L 113.386, 142.300 
" />
<path d="M 113.741, 142.299 
	L 113.740, 142.300 
	L 112.961, 146.835 
" />
<path d="M 113.245, 147.189 
	L 113.244, 147.190 
	L 114.024, 142.300 
" />
<path d="M 114.308, 142.299 
	L 114.307, 142.300 
	L 113.457, 147.473 
" />
<path d="M 113.741, 147.827 
	L 113.740, 147.828 
	L 114.591, 142.371 
" />
<path d="M 114.875, 142.370 
	L 114.874, 142.371 
	L 113.953, 148.111 
" />
<path d="M 114.166, 148.465 
	L 114.165, 148.465 
	L 115.157, 142.442 
" />
<path d="M 117.922, 141.591 
	L 117.921, 141.591 
	L 120.614, 136.560 
" />
<path d="M 121.961, 134.008 
	L 121.961, 134.009 
	L 124.583, 128.977 
" />
<path d="M 125.930, 126.425 
	L 125.929, 126.426 
	L 128.622, 121.394 
" />
<path d="M 129.969, 118.843 
	L 129.969, 118.843 
	L 132.661, 113.741 
" />
<path d="M 134.009, 111.260 
	L 134.008, 111.261 
	L 136.701, 106.158 
" />
<path d="M 138.048, 103.677 
	L 138.047, 103.678 
	L 140.740, 98.576 
" />
<path d="M 142.087, 96.024 
	L 142.087, 96.024 
	L 144.780, 90.993 
" />
<path d="M 146.127, 88.441 
	L 146.126, 88.442 
	L 148.819, 83.410 
" />
<path d="M 150.095, 80.858 
	L 150.095, 80.859 
	L 152.787, 75.827 
" />
<path d="M 154.135, 73.276 
	L 154.134, 73.276 
	L 156.827, 68.245 
" />
<path d="M 158.174, 65.693 
	L 158.173, 65.694 
	L 160.866, 60.591 
" />
<path d="M 162.213, 58.110 
	L 162.213, 58.111 
	L 164.906, 53.009 
" />
<path d="M 166.253, 50.528 
	L 166.252, 50.528 
	L 168.945, 45.426 
" />
<path d="M 170.292, 42.874 
	L 170.291, 42.875 
	L 172.984, 37.843 
" />
<path d="M 175.536, 39.118 
	L 175.535, 39.119 
	L 180.567, 43.371 
" />
<path d="M 175.961, 43.795 
	L 175.961, 43.796 
	L 180.213, 38.694 
" />
<path d="M 174.331, 35.291 
	L 174.331, 35.292 
	L 176.882, 30.402 
" />
<path d="M 159.520, 33.236 
	L 159.520, 33.237 
	L 159.945, 33.662 
	L 160.370, 34.513 
	L 160.370, 35.434 
	L 159.945, 36.284 
	L 159.520, 36.709 
	L 158.173, 37.135 
	L 159.520, 37.560 
	L 159.945, 38.056 
	L 160.370, 38.906 
	L 160.370, 40.182 
" />
<path d="M 160.370, 40.182 
	L 159.945, 41.103 
	L 159.520, 41.528 
	L 158.173, 41.953 
	L 153.000, 41.953 
" />
<path d="M 154.276, 41.953 
	L 154.276, 41.953 
	L 154.276, 32.812 
" />
<path d="M 154.702, 32.811 
	L 154.701, 32.812 
	L 154.701, 41.953 
" />
<path d="M 158.174, 41.953 
	L 158.173, 41.953 
	L 159.095, 41.528 
	L 159.520, 41.103 
	L 159.945, 40.182 
	L 159.945, 38.906 
	L 159.520, 38.056 
	L 159.095, 37.560 
	L 158.173, 37.135 
	L 159.095, 36.709 
	L 159.520, 36.284 
	L 159.945, 35.434 
" />
<path d="M 159.945, 35.434 
	L 159.945, 34.513 
	L 159.520, 33.662 
	L 159.095, 33.237 
	L 158.173, 32.812 
	L 159.520, 33.237 
" />
<path d="M 158.174, 32.811 
	L 158.173, 32.812 
	L 153.000, 32.812 
" />
<path d="M 154.702, 37.134 
	L 154.701, 37.135 
	L 158.173, 37.135 
" />
<path d="M 150.308, 59.811 
	L 150.307, 59.812 
	L 149.882, 61.087 
	L 148.961, 60.237 
	L 147.685, 59.812 
	L 146.764, 59.812 
	L 145.488, 60.237 
	L 144.638, 61.087 
	L 144.142, 62.009 
	L 143.717, 63.284 
	L 143.717, 65.481 
	L 144.142, 66.827 
" />
<path d="M 144.142, 66.827 
	L 144.638, 67.678 
	L 145.488, 68.528 
	L 146.764, 68.953 
	L 147.685, 68.953 
	L 148.961, 68.528 
	L 149.882, 67.678 
	L 150.307, 66.827 
" />
<path d="M 150.308, 62.433 
	L 150.307, 62.434 
	L 150.307, 59.812 
" />
<path d="M 149.883, 61.087 
	L 149.882, 61.087 
	L 150.307, 62.434 
" />
<path d="M 144.639, 62.008 
	L 144.638, 62.009 
	L 144.142, 63.284 
	L 144.142, 65.481 
	L 144.638, 66.827 
	L 145.063, 67.678 
	L 145.913, 68.528 
	L 146.764, 68.953 
" />
<path d="M 147.190, 72.000 
	L 147.189, 72.001 
	L 142.654, 70.229 
	L 138.047, 68.670 
	L 133.299, 67.394 
	L 128.551, 66.402 
	L 123.732, 65.694 
	L 118.843, 65.268 
	L 113.953, 65.127 
	L 109.134, 65.268 
	L 104.244, 65.694 
	L 99.425, 66.402 
" />
<path d="M 99.425, 66.402 
	L 94.677, 67.394 
	L 89.929, 68.670 
	L 85.323, 70.229 
	L 80.787, 72.001 
	L 76.323, 74.056 
	L 72.071, 76.394 
	L 67.890, 78.946 
	L 63.921, 81.709 
	L 60.094, 84.757 
	L 56.480, 88.016 
	L 53.008, 91.418 
" />
<path d="M 53.008, 91.418 
	L 49.748, 95.103 
	L 46.701, 98.930 
	L 43.937, 102.898 
	L 41.386, 107.079 
	L 39.047, 111.331 
	L 36.992, 115.796 
	L 35.220, 120.331 
	L 33.661, 124.938 
	L 32.386, 129.615 
	L 31.394, 134.434 
	L 30.685, 139.253 
" />
<path d="M 30.685, 139.253 
	L 30.260, 144.142 
	L 30.118, 148.961 
	L 30.260, 153.851 
	L 30.685, 158.741 
	L 31.394, 163.560 
	L 32.386, 168.308 
	L 33.661, 173.056 
	L 35.220, 177.662 
	L 36.992, 182.198 
	L 39.047, 186.591 
	L 41.386, 190.914 
" />
<path d="M 41.386, 190.914 
	L 43.937, 195.024 
	L 46.701, 199.064 
	L 49.748, 202.891 
	L 53.008, 206.505 
	L 56.480, 209.977 
	L 60.094, 213.166 
	L 63.921, 216.213 
	L 67.890, 219.048 
	L 72.071, 221.599 
	L 76.323, 223.867 
	L 80.787, 225.993 
" />
<path d="M 80.787, 225.993 
	L 85.323, 227.765 
	L 89.929, 229.324 
	L 94.677, 230.528 
	L 99.425, 231.520 
	L 104.244, 232.229 
	L 109.134, 232.654 
	L 114.024, 232.796 
	L 118.843, 232.654 
	L 123.732, 232.229 
	L 128.551, 231.520 
" />
<path d="M 128.551, 231.520 
	L 133.299, 230.528 
	L 138.047, 229.324 
	L 142.654, 227.765 
	L 147.189, 225.993 
	L 151.654, 223.867 
	L 155.906, 221.599 
	L 160.087, 219.048 
	L 164.055, 216.213 
	L 167.882, 213.166 
	L 171.496, 209.977 
" />
<path d="M 171.496, 209.977 
	L 174.969, 206.505 
	L 178.228, 202.891 
	L 181.276, 199.064 
	L 184.039, 195.024 
	L 186.591, 190.914 
	L 188.929, 186.591 
	L 190.984, 182.198 
	L 192.756, 177.662 
	L 194.315, 173.056 
	L 195.591, 168.308 
" />
<path d="M 195.591, 168.308 
	L 196.583, 163.560 
	L 197.291, 158.741 
	L 197.717, 153.851 
	L 197.858, 148.961 
	L 197.717, 144.142 
	L 197.291, 139.253 
	L 196.583, 134.434 
	L 195.591, 129.615 
	L 194.315, 124.938 
	L 192.756, 120.331 
" />
<path d="M 192.756, 120.331 
	L 190.984, 115.796 
	L 188.929, 111.331 
	L 186.591, 107.079 
	L 184.039, 102.898 
	L 181.276, 98.930 
	L 178.228, 95.103 
	L 174.969, 91.418 
	L 171.496, 88.016 
	L 167.882, 84.757 
	L 164.055, 81.709 
" />
<path d="M 164.055, 81.709 
	L 160.087, 78.946 
	L 155.906, 76.394 
	L 151.654, 74.056 
	L 147.189, 72.001 
" />
<path d="M 144.639, 62.008 
	L 144.638, 62.009 
	L 145.063, 61.087 
	L 145.913, 60.237 
	L 146.764, 59.812 
" />
<path d="M 144.213, 101.976 
	L 144.213, 101.977 
	L 140.811, 99.922 
	L 137.197, 98.150 
	L 133.512, 96.591 
	L 129.756, 95.387 
	L 125.858, 94.394 
	L 121.961, 93.686 
	L 117.992, 93.261 
	L 113.953, 93.119 
	L 109.984, 93.261 
	L 106.016, 93.686 
" />
<path d="M 106.016, 93.686 
	L 102.118, 94.394 
	L 98.220, 95.387 
	L 94.465, 96.591 
	L 90.780, 98.150 
	L 87.165, 99.922 
	L 83.764, 101.977 
	L 80.504, 104.245 
	L 77.386, 106.725 
	L 74.480, 109.489 
	L 71.717, 112.394 
	L 69.236, 115.513 
" />
<path d="M 69.236, 115.513 
	L 66.969, 118.772 
	L 64.913, 122.174 
	L 63.142, 125.788 
	L 61.583, 129.473 
	L 60.378, 133.229 
	L 59.386, 137.127 
	L 58.677, 141.024 
	L 58.252, 144.993 
	L 58.110, 148.961 
	L 58.252, 153.001 
	L 58.677, 156.969 
" />
<path d="M 58.677, 156.969 
	L 59.386, 160.867 
	L 60.378, 164.694 
	L 61.583, 168.520 
	L 63.142, 172.205 
	L 64.913, 175.749 
	L 66.969, 179.221 
	L 69.236, 182.481 
	L 71.717, 185.599 
	L 74.480, 188.505 
	L 77.386, 191.198 
	L 80.504, 193.749 
" />
<path d="M 80.504, 193.749 
	L 83.764, 196.016 
	L 87.165, 198.001 
	L 90.780, 199.843 
	L 94.465, 201.331 
	L 98.220, 202.607 
	L 102.118, 203.599 
	L 106.016, 204.308 
	L 109.984, 204.733 
	L 114.024, 204.875 
	L 117.992, 204.733 
" />
<path d="M 117.992, 204.733 
	L 121.961, 204.308 
	L 125.858, 203.599 
	L 129.756, 202.607 
	L 133.512, 201.331 
	L 137.197, 199.843 
	L 140.811, 198.001 
	L 144.213, 196.016 
	L 147.472, 193.749 
	L 150.591, 191.198 
	L 153.496, 188.505 
" />
<path d="M 153.496, 188.505 
	L 156.260, 185.599 
	L 158.740, 182.481 
	L 161.008, 179.221 
	L 163.063, 175.749 
	L 164.835, 172.205 
	L 166.394, 168.520 
	L 167.598, 164.694 
	L 168.591, 160.867 
	L 169.299, 156.969 
	L 169.724, 153.001 
" />
<path d="M 169.724, 153.001 
	L 169.866, 148.961 
	L 169.724, 144.993 
	L 169.299, 141.024 
	L 168.591, 137.127 
	L 167.598, 133.229 
	L 166.394, 129.473 
	L 164.835, 125.788 
	L 163.063, 122.174 
	L 161.008, 118.772 
	L 158.740, 115.513 
" />
<path d="M 158.740, 115.513 
	L 156.260, 112.394 
	L 153.496, 109.489 
	L 150.591, 106.725 
	L 147.472, 104.245 
	L 144.213, 101.977 
" />
<path d="M 133.725, 129.189 
	L 133.724, 129.190 
	L 131.740, 127.347 
	L 129.543, 125.717 
	L 127.134, 124.371 
	L 124.654, 123.166 
	L 122.102, 122.245 
	L 119.409, 121.607 
	L 116.717, 121.182 
	L 114.024, 121.040 
	L 111.260, 121.182 
" />
<path d="M 111.260, 121.182 
	L 108.567, 121.607 
	L 105.874, 122.245 
	L 103.323, 123.166 
	L 100.843, 124.371 
	L 98.433, 125.717 
	L 96.236, 127.347 
	L 94.252, 129.190 
	L 92.409, 131.245 
	L 90.780, 133.442 
	L 89.362, 135.780 
" />
<path d="M 89.362, 135.780 
	L 88.157, 138.261 
	L 87.236, 140.883 
	L 86.598, 143.505 
	L 86.173, 146.268 
	L 86.032, 148.961 
	L 86.173, 151.725 
	L 86.598, 154.418 
	L 87.236, 157.111 
	L 88.157, 159.662 
	L 89.362, 162.142 
	L 90.780, 164.481 
" />
<path d="M 90.780, 164.481 
	L 92.409, 166.678 
	L 94.252, 168.733 
	L 96.236, 170.576 
	L 98.433, 172.205 
	L 100.843, 173.623 
	L 103.323, 174.828 
	L 105.874, 175.749 
	L 108.567, 176.387 
	L 111.260, 176.812 
	L 113.953, 176.953 
" />
<path d="M 113.953, 176.953 
	L 116.717, 176.812 
	L 119.409, 176.387 
	L 122.102, 175.749 
	L 124.654, 174.828 
	L 127.134, 173.623 
	L 129.543, 172.205 
	L 131.740, 170.576 
	L 133.724, 168.733 
	L 135.567, 166.678 
	L 137.197, 164.481 
" />
<path d="M 137.197, 164.481 
	L 138.614, 162.142 
	L 139.819, 159.662 
	L 140.740, 157.111 
	L 141.378, 154.418 
	L 141.803, 151.725 
	L 141.945, 148.961 
	L 141.803, 146.268 
	L 141.378, 143.505 
	L 140.740, 140.883 
	L 139.819, 138.261 
" />
<path d="M 139.819, 138.261 
	L 138.614, 135.780 
	L 137.197, 133.442 
	L 135.567, 131.245 
	L 133.724, 129.190 
" />
<path d="M 118.914, 144.071 
	L 118.913, 144.072 
	L 117.850, 143.150 
	L 116.646, 142.513 
	L 115.370, 142.158 
	L 114.024, 142.016 
	L 112.606, 142.158 
	L 111.331, 142.513 
	L 110.126, 143.150 
	L 109.063, 144.072 
	L 108.213, 145.135 
" />
<path d="M 108.213, 145.135 
	L 107.504, 146.339 
	L 107.150, 147.615 
	L 107.008, 148.961 
	L 107.150, 150.379 
	L 107.504, 151.654 
	L 108.213, 152.859 
	L 109.063, 153.922 
	L 110.126, 154.772 
	L 111.331, 155.410 
	L 112.606, 155.835 
" />
<path d="M 112.606, 155.835 
	L 113.953, 155.977 
	L 115.370, 155.835 
	L 116.646, 155.410 
	L 117.850, 154.772 
	L 118.913, 153.922 
	L 119.764, 152.859 
	L 120.472, 151.654 
	L 120.827, 150.379 
	L 120.969, 148.961 
	L 120.827, 147.615 
" />
<path d="M 120.827, 147.615 
	L 120.472, 146.339 
	L 119.764, 145.135 
	L 118.913, 144.072 
" />
<path d="M 112.536, 151.724 
	L 112.535, 151.725 
	L 109.843, 156.828 
" />
<path d="M 108.497, 159.307 
	L 108.496, 159.308 
	L 105.874, 164.268 
" />
<path d="M 102.827, 140.669 
	L 102.827, 140.670 
	L 101.976, 141.520 
	L 100.630, 141.946 
	L 96.307, 141.946 
" />
<path d="M 97.583, 141.945 
	L 97.583, 141.946 
	L 97.583, 132.804 
" />
<path d="M 98.009, 132.803 
	L 98.008, 132.804 
	L 98.008, 141.946 
" />
<path d="M 100.631, 141.945 
	L 100.630, 141.946 
	L 101.551, 141.520 
	L 102.402, 140.670 
	L 102.827, 139.820 
	L 103.252, 138.473 
	L 103.252, 136.276 
	L 102.827, 135.001 
	L 102.402, 134.079 
	L 101.551, 133.229 
	L 100.630, 132.804 
" />
<path d="M 100.630, 132.804 
	L 101.976, 133.229 
	L 102.827, 134.079 
	L 103.252, 135.001 
	L 103.677, 136.276 
	L 103.677, 138.473 
	L 103.252, 139.820 
	L 102.827, 140.670 
" />
<path d="M 100.631, 132.803 
	L 100.630, 132.804 
	L 96.307, 132.804 
" />
<path d="M 0.001, 148.961 
	L 0.000, 148.961 
	L 227.976, 148.961 
" />
<path d="M 227.977, 232.795 
	L 227.976, 232.796 
	L 0.000, 232.796 
" />
<path d="M 9.142, 240.661 
	L 9.142, 240.662 
	L 9.142, 0.001 
" />
<path d="M 114.024, 0.000 
	L 114.024, 0.001 
	L 114.024, 240.662 
" />
<path d="M 218.835, 240.661 
	L 218.835, 240.662 
	L 218.835, 0.001 
" />
</g><g style="stroke:rgb(255,255,255); fill:none; stroke-width:0.100mm" >
</g>
</svg>
