<?xml version="1.0" encoding="UTF-8" standalone="no" ?>
<svg width="100%" height="100%" viewBox="0 0 227.977 240.662" xmlns="http://www.w3.org/2000/svg"><g>
</g><g style="stroke:rgb(0,0,0); fill:none; stroke-width:1.000mm" >
</g><g style="stroke:rgb(0,0,0); fill:none; stroke-width:0.100mm" >
<path d="M 110.906, 154.913 
	L 110.906, 154.914 
	L 113.669, 149.387 
" />
<path d="M 113.528, 149.032 
	L 113.528, 149.032 
	L 110.622, 154.772 
" />
<path d="M 110.410, 154.630 
	L 110.409, 154.631 
	L 113.386, 148.607 
" />
<path d="M 113.387, 148.677 
	L 113.386, 148.678 
	L 114.732, 152.646 
	L 114.945, 152.859 
	L 115.228, 152.930 
	L 115.370, 152.859 
	L 115.583, 152.646 
	L 115.583, 152.363 
	L 114.236, 148.324 
	L 114.024, 148.111 
	L 113.740, 148.111 
" />
<path d="M 113.740, 148.111 
	L 113.669, 148.111 
	L 116.362, 142.725 
" />
<path d="M 116.079, 142.654 
	L 116.079, 142.654 
	L 110.197, 154.418 
" />
<path d="M 109.914, 154.276 
	L 109.913, 154.276 
	L 115.795, 142.583 
" />
<path d="M 115.725, 142.512 
	L 115.724, 142.513 
	L 114.449, 142.300 
	L 113.173, 142.371 
	L 111.898, 142.654 
	L 110.693, 143.221 
	L 109.630, 143.930 
	L 108.709, 144.922 
	L 108.000, 145.985 
	L 107.575, 147.190 
	L 107.362, 148.536 
" />
<path d="M 107.362, 148.536 
	L 107.362, 149.812 
	L 107.646, 151.087 
	L 108.213, 152.292 
	L 108.921, 153.355 
	L 109.913, 154.276 
	L 110.976, 154.914 
	L 112.252, 155.410 
	L 113.528, 155.623 
	L 114.803, 155.623 
	L 116.079, 155.339 
" />
<path d="M 116.079, 155.339 
	L 117.283, 154.772 
	L 118.346, 153.993 
	L 119.268, 153.072 
	L 119.976, 151.938 
	L 120.402, 150.733 
	L 120.614, 149.457 
	L 120.614, 148.182 
	L 120.331, 146.906 
	L 119.764, 145.702 
	L 119.055, 144.639 
" />
<path d="M 119.055, 144.639 
	L 118.063, 143.717 
	L 117.000, 143.009 
	L 115.724, 142.513 
" />
<path d="M 115.513, 142.512 
	L 115.512, 142.513 
	L 109.701, 154.064 
" />
<path d="M 109.489, 153.921 
	L 109.488, 153.922 
	L 115.228, 142.442 
" />
<path d="M 114.946, 142.370 
	L 114.945, 142.371 
	L 109.276, 153.709 
" />
<path d="M 109.064, 153.496 
	L 109.063, 153.497 
	L 114.591, 142.371 
" />
<path d="M 114.308, 142.299 
	L 114.307, 142.300 
	L 108.850, 153.213 
" />
<path d="M 108.639, 153.000 
	L 108.638, 153.001 
	L 114.024, 142.300 
" />
<path d="M 113.670, 142.299 
	L 113.669, 142.300 
	L 108.496, 152.717 
" />
<path d="M 108.284, 152.433 
	L 108.283, 152.434 
	L 113.315, 142.371 
" />
<path d="M 113.032, 142.370 
	L 113.032, 142.371 
	L 108.142, 152.150 
" />
<path d="M 107.930, 151.795 
	L 107.929, 151.796 
	L 112.677, 142.442 
" />
<path d="M 112.253, 142.512 
	L 112.252, 142.513 
	L 107.787, 151.513 
" />
<path d="M 107.646, 151.087 
	L 107.646, 151.087 
	L 111.898, 142.654 
" />
<path d="M 111.544, 142.795 
	L 111.543, 142.796 
	L 107.575, 150.733 
" />
<path d="M 107.434, 150.307 
	L 107.433, 150.308 
	L 111.118, 142.938 
" />
<path d="M 110.694, 143.220 
	L 110.693, 143.221 
	L 107.362, 149.812 
" />
<path d="M 107.292, 149.244 
	L 107.291, 149.245 
	L 110.197, 143.505 
" />
<path d="M 109.702, 143.858 
	L 109.701, 143.859 
	L 107.291, 148.607 
" />
<path d="M 107.434, 147.756 
	L 107.433, 147.757 
	L 109.063, 144.497 
" />
<path d="M 110.623, 145.488 
	L 110.622, 145.489 
	L 109.913, 146.339 
	L 109.417, 147.331 
	L 109.205, 148.394 
	L 109.205, 149.457 
	L 109.417, 150.520 
	L 109.843, 151.513 
	L 110.551, 152.363 
	L 111.331, 153.072 
	L 112.323, 153.497 
" />
<path d="M 112.323, 153.497 
	L 113.386, 153.780 
	L 114.449, 153.780 
	L 115.512, 153.568 
	L 116.504, 153.142 
	L 117.354, 152.434 
	L 118.063, 151.583 
	L 118.559, 150.662 
	L 118.772, 149.599 
	L 118.772, 148.536 
	L 118.559, 147.473 
" />
<path d="M 118.559, 147.473 
	L 118.134, 146.481 
	L 117.425, 145.631 
	L 116.646, 144.922 
	L 115.654, 144.426 
	L 114.591, 144.213 
	L 113.528, 144.142 
	L 112.465, 144.426 
	L 111.472, 144.851 
	L 110.622, 145.489 
" />
<path d="M 113.387, 148.323 
	L 113.386, 148.324 
	L 113.386, 148.678 
" />
<path d="M 113.387, 148.323 
	L 113.386, 148.324 
	L 113.669, 148.111 
" />
<path d="M 113.953, 148.110 
	L 113.953, 148.111 
	L 116.575, 142.867 
" />
<path d="M 116.859, 142.937 
	L 116.858, 142.938 
	L 114.236, 148.253 
" />
<path d="M 114.379, 148.606 
	L 114.378, 148.607 
	L 117.142, 143.079 
" />
<path d="M 117.355, 143.220 
	L 117.354, 143.221 
	L 114.449, 149.032 
" />
<path d="M 114.591, 149.386 
	L 114.591, 149.387 
	L 117.638, 143.363 
" />
<path d="M 117.851, 143.575 
	L 117.850, 143.576 
	L 114.732, 149.812 
" />
<path d="M 114.875, 150.165 
	L 114.874, 150.166 
	L 118.063, 143.717 
" />
<path d="M 118.347, 143.929 
	L 118.346, 143.930 
	L 115.016, 150.591 
" />
<path d="M 115.158, 150.945 
	L 115.157, 150.946 
	L 118.559, 144.072 
" />
<path d="M 118.772, 144.283 
	L 118.772, 144.284 
	L 115.228, 151.300 
" />
<path d="M 115.371, 151.724 
	L 115.370, 151.725 
	L 118.984, 144.568 
" />
<path d="M 119.198, 144.780 
	L 119.197, 144.780 
	L 115.512, 152.079 
" />
<path d="M 115.583, 152.504 
	L 115.583, 152.505 
	L 119.339, 145.064 
" />
<path d="M 119.552, 145.276 
	L 119.551, 145.276 
	L 114.378, 155.623 
" />
<path d="M 114.733, 155.622 
	L 114.732, 155.623 
	L 119.693, 145.560 
" />
<path d="M 119.906, 145.913 
	L 119.906, 145.914 
	L 115.087, 155.552 
" />
<path d="M 115.442, 155.480 
	L 115.441, 155.481 
	L 120.047, 146.198 
" />
<path d="M 120.190, 146.551 
	L 120.189, 146.552 
	L 115.795, 155.410 
" />
<path d="M 116.150, 155.268 
	L 116.150, 155.268 
	L 120.331, 146.906 
" />
<path d="M 120.473, 147.331 
	L 120.472, 147.331 
	L 116.575, 155.127 
" />
<path d="M 116.930, 154.984 
	L 116.929, 154.985 
	L 120.543, 147.757 
" />
<path d="M 120.615, 148.252 
	L 120.614, 148.253 
	L 117.425, 154.702 
" />
<path d="M 117.851, 154.417 
	L 117.850, 154.418 
	L 120.685, 148.820 
" />
<path d="M 120.615, 149.528 
	L 120.614, 149.528 
	L 118.417, 153.993 
" />
<path d="M 119.056, 153.283 
	L 119.055, 153.284 
	L 120.472, 150.450 
" />
<path d="M 114.024, 150.591 
	L 114.024, 150.591 
	L 111.685, 155.268 
" />
<path d="M 111.969, 155.339 
	L 111.969, 155.339 
	L 114.165, 150.946 
" />
<path d="M 114.308, 151.299 
	L 114.307, 151.300 
	L 112.252, 155.410 
" />
<path d="M 112.536, 155.480 
	L 112.535, 155.481 
	L 114.449, 151.725 
" />
<path d="M 114.520, 152.079 
	L 114.520, 152.079 
	L 112.819, 155.552 
" />
<path d="M 113.103, 155.622 
	L 113.102, 155.623 
	L 114.661, 152.505 
" />
<path d="M 114.804, 152.787 
	L 114.803, 152.788 
	L 113.386, 155.623 
" />
<path d="M 113.741, 155.622 
	L 113.740, 155.623 
	L 115.087, 152.930 
" />
<path d="M 115.442, 152.787 
	L 115.441, 152.788 
	L 114.024, 155.623 
" />
<path d="M 111.402, 155.126 
	L 111.402, 155.127 
	L 113.882, 150.166 
" />
<path d="M 113.812, 149.811 
	L 113.811, 149.812 
	L 111.189, 155.056 
" />
<path d="M 144.709, 144.850 
	L 144.709, 144.851 
	L 145.772, 145.560 
	L 146.976, 146.127 
	L 148.252, 146.410 
	L 149.528, 146.481 
	L 150.803, 146.268 
	L 152.008, 145.843 
	L 153.142, 145.135 
	L 154.134, 144.213 
	L 154.913, 143.150 
" />
<path d="M 154.913, 143.150 
	L 155.409, 142.016 
	L 155.693, 140.741 
	L 155.764, 139.394 
	L 155.551, 138.119 
	L 155.126, 136.914 
	L 154.417, 135.780 
	L 153.496, 134.859 
	L 152.433, 134.079 
	L 151.299, 133.513 
	L 150.024, 133.229 
" />
<path d="M 150.024, 133.229 
	L 148.677, 133.158 
	L 147.402, 133.371 
	L 146.197, 133.867 
	L 145.063, 134.505 
	L 144.142, 135.426 
	L 143.362, 136.489 
	L 142.795, 137.694 
	L 142.512, 138.969 
	L 142.441, 140.245 
	L 142.654, 141.520 
" />
<path d="M 142.654, 141.520 
	L 143.150, 142.725 
	L 143.787, 143.859 
	L 144.709, 144.851 
" />
<path d="M 143.646, 143.646 
	L 143.646, 143.646 
	L 146.055, 145.772 
" />
<path d="M 146.906, 146.126 
	L 146.906, 146.127 
	L 143.150, 142.796 
" />
<path d="M 142.867, 142.228 
	L 142.866, 142.229 
	L 147.543, 146.339 
" />
<path d="M 148.111, 146.409 
	L 148.110, 146.410 
	L 142.724, 141.662 
" />
<path d="M 142.583, 141.165 
	L 142.583, 141.166 
	L 148.606, 146.481 
" />
<path d="M 149.032, 146.480 
	L 149.032, 146.481 
	L 142.512, 140.741 
" />
<path d="M 142.442, 140.315 
	L 142.441, 140.316 
	L 149.457, 146.481 
" />
<path d="M 149.883, 146.480 
	L 149.882, 146.481 
	L 142.441, 139.890 
" />
<path d="M 142.442, 139.535 
	L 142.441, 139.536 
	L 150.236, 146.410 
" />
<path d="M 150.591, 146.339 
	L 150.591, 146.339 
	L 142.441, 139.182 
" />
<path d="M 142.513, 138.827 
	L 142.512, 138.828 
	L 150.945, 146.268 
" />
<path d="M 151.229, 146.126 
	L 151.228, 146.127 
	L 142.583, 138.473 
" />
<path d="M 142.654, 138.189 
	L 142.654, 138.190 
	L 145.063, 140.316 
" />
<path d="M 145.135, 140.386 
	L 145.134, 140.387 
	L 145.417, 140.528 
	L 149.669, 140.245 
	L 149.953, 140.103 
	L 150.024, 139.820 
	L 150.024, 139.749 
	L 154.559, 143.717 
" />
<path d="M 154.702, 143.433 
	L 154.701, 143.434 
	L 144.780, 134.717 
" />
<path d="M 145.064, 134.575 
	L 145.063, 134.576 
	L 154.843, 143.221 
" />
<path d="M 154.985, 142.937 
	L 154.984, 142.938 
	L 145.276, 134.363 
" />
<path d="M 145.489, 134.220 
	L 145.488, 134.221 
	L 155.126, 142.725 
" />
<path d="M 155.268, 142.441 
	L 155.268, 142.442 
	L 145.772, 134.079 
" />
<path d="M 146.056, 133.937 
	L 146.055, 133.938 
	L 155.339, 142.158 
" />
<path d="M 155.481, 141.874 
	L 155.480, 141.875 
	L 146.339, 133.796 
" />
<path d="M 146.623, 133.654 
	L 146.622, 133.654 
	L 155.551, 141.520 
" />
<path d="M 155.623, 141.236 
	L 155.622, 141.237 
	L 146.906, 133.513 
" />
<path d="M 147.261, 133.441 
	L 147.260, 133.442 
	L 155.693, 140.883 
" />
<path d="M 155.765, 140.528 
	L 155.764, 140.528 
	L 147.543, 133.371 
" />
<path d="M 147.898, 133.299 
	L 147.898, 133.300 
	L 155.764, 140.174 
" />
<path d="M 155.765, 139.819 
	L 155.764, 139.820 
	L 148.252, 133.229 
" />
<path d="M 148.678, 133.158 
	L 148.677, 133.158 
	L 155.764, 139.465 
" />
<path d="M 155.765, 139.039 
	L 155.764, 139.040 
	L 149.102, 133.158 
" />
<path d="M 149.528, 133.158 
	L 149.528, 133.158 
	L 155.693, 138.615 
" />
<path d="M 155.552, 138.118 
	L 155.551, 138.119 
	L 150.024, 133.229 
" />
<path d="M 150.591, 133.299 
	L 150.591, 133.300 
	L 155.409, 137.552 
" />
<path d="M 155.127, 136.984 
	L 155.126, 136.985 
	L 151.158, 133.513 
" />
<path d="M 152.009, 133.795 
	L 152.008, 133.796 
	L 154.701, 136.205 
" />
<path d="M 152.717, 136.559 
	L 152.717, 136.560 
	L 151.866, 135.851 
	L 150.945, 135.355 
	L 149.882, 135.072 
	L 148.819, 135.001 
	L 147.756, 135.213 
	L 146.764, 135.639 
	L 145.843, 136.205 
	L 145.134, 137.056 
	L 144.638, 137.977 
" />
<path d="M 144.638, 137.977 
	L 144.354, 139.040 
	L 144.283, 140.103 
	L 144.496, 141.166 
	L 144.921, 142.158 
	L 145.488, 143.079 
	L 146.339, 143.788 
	L 147.260, 144.284 
	L 148.323, 144.568 
	L 149.386, 144.639 
	L 150.449, 144.497 
" />
<path d="M 150.449, 144.497 
	L 151.512, 144.072 
	L 152.362, 143.434 
	L 153.071, 142.583 
	L 153.567, 141.662 
	L 153.850, 140.599 
	L 153.921, 139.536 
	L 153.780, 138.473 
	L 153.354, 137.481 
	L 152.717, 136.560 
" />
<path d="M 149.883, 139.465 
	L 149.882, 139.465 
	L 149.598, 139.324 
	L 144.567, 134.930 
" />
<path d="M 144.355, 135.142 
	L 144.354, 135.142 
	L 149.173, 139.394 
" />
<path d="M 148.820, 139.394 
	L 148.819, 139.394 
	L 144.213, 135.355 
" />
<path d="M 144.001, 135.567 
	L 144.000, 135.568 
	L 148.394, 139.394 
" />
<path d="M 147.969, 139.465 
	L 147.969, 139.465 
	L 143.787, 135.780 
" />
<path d="M 143.646, 135.992 
	L 143.646, 135.993 
	L 147.543, 139.465 
" />
<path d="M 147.190, 139.465 
	L 147.189, 139.465 
	L 143.504, 136.205 
" />
<path d="M 143.363, 136.488 
	L 143.362, 136.489 
	L 146.764, 139.536 
" />
<path d="M 146.339, 139.535 
	L 146.339, 139.536 
	L 143.220, 136.772 
" />
<path d="M 143.079, 136.984 
	L 143.079, 136.985 
	L 145.984, 139.536 
" />
<path d="M 145.560, 139.606 
	L 145.559, 139.607 
	L 142.937, 137.268 
" />
<path d="M 142.796, 137.551 
	L 142.795, 137.552 
	L 145.205, 139.678 
" />
<path d="M 145.347, 139.606 
	L 145.346, 139.607 
	L 145.063, 139.749 
	L 144.992, 140.032 
	L 144.992, 140.103 
	L 145.134, 140.387 
" />
<path d="M 145.276, 140.528 
	L 145.276, 140.528 
	L 151.583, 146.056 
" />
<path d="M 151.867, 145.913 
	L 151.866, 145.914 
	L 145.701, 140.528 
" />
<path d="M 146.127, 140.457 
	L 146.126, 140.457 
	L 152.150, 145.772 
" />
<path d="M 152.363, 145.630 
	L 152.362, 145.631 
	L 146.551, 140.457 
" />
<path d="M 146.906, 140.457 
	L 146.906, 140.457 
	L 152.646, 145.489 
" />
<path d="M 152.930, 145.346 
	L 152.929, 145.347 
	L 147.331, 140.387 
" />
<path d="M 147.757, 140.386 
	L 147.756, 140.387 
	L 153.142, 145.135 
" />
<path d="M 153.355, 144.992 
	L 153.354, 144.993 
	L 148.110, 140.316 
" />
<path d="M 148.536, 140.315 
	L 148.535, 140.316 
	L 153.567, 144.780 
" />
<path d="M 153.780, 144.567 
	L 153.780, 144.568 
	L 148.961, 140.316 
" />
<path d="M 149.387, 140.244 
	L 149.386, 140.245 
	L 153.992, 144.355 
" />
<path d="M 154.205, 144.142 
	L 154.205, 144.142 
	L 149.740, 140.245 
" />
<path d="M 149.953, 140.032 
	L 149.953, 140.032 
	L 154.346, 143.930 
" />
<path d="M 150.024, 139.748 
	L 150.024, 139.749 
	L 149.882, 139.465 
" />
<path d="M 149.599, 139.323 
	L 149.598, 139.324 
	L 145.346, 139.607 
" />
<path d="M 144.993, 139.890 
	L 144.992, 139.890 
	L 142.724, 137.835 
" />
<path d="M 66.544, 116.575 
	L 66.543, 116.576 
	L 67.323, 115.583 
	L 67.961, 114.450 
	L 68.315, 113.174 
	L 68.457, 111.898 
	L 68.315, 110.552 
	L 67.961, 109.276 
	L 67.323, 108.142 
	L 66.543, 107.150 
	L 65.480, 106.300 
	L 64.346, 105.733 
" />
<path d="M 64.346, 105.733 
	L 63.071, 105.308 
	L 61.795, 105.166 
	L 60.520, 105.308 
	L 59.244, 105.733 
	L 58.110, 106.300 
	L 57.047, 107.150 
	L 56.268, 108.142 
	L 55.630, 109.276 
	L 55.276, 110.552 
	L 55.134, 111.898 
	L 55.276, 113.174 
" />
<path d="M 55.276, 113.174 
	L 55.630, 114.450 
	L 56.268, 115.583 
	L 57.047, 116.576 
	L 58.110, 117.426 
	L 59.244, 117.993 
	L 60.520, 118.418 
	L 61.795, 118.560 
	L 63.071, 118.418 
	L 64.346, 117.993 
	L 65.480, 117.426 
	L 66.543, 116.576 
" />
<path d="M 66.543, 116.576 
" />
<path d="M 65.268, 117.567 
	L 65.268, 117.568 
	L 67.535, 115.300 
" />
<path d="M 67.961, 114.449 
	L 67.961, 114.450 
	L 64.417, 117.993 
" />
<path d="M 63.780, 118.205 
	L 63.780, 118.205 
	L 68.173, 113.812 
" />
<path d="M 68.316, 113.315 
	L 68.315, 113.316 
	L 63.213, 118.347 
" />
<path d="M 62.717, 118.488 
	L 62.717, 118.489 
	L 68.386, 112.820 
" />
<path d="M 68.457, 112.323 
	L 68.457, 112.324 
	L 62.291, 118.489 
" />
<path d="M 61.867, 118.559 
	L 61.866, 118.560 
	L 68.457, 111.898 
" />
<path d="M 68.457, 111.543 
	L 68.457, 111.544 
	L 61.441, 118.560 
" />
<path d="M 61.087, 118.488 
	L 61.087, 118.489 
	L 68.457, 111.119 
" />
<path d="M 68.387, 110.764 
	L 68.386, 110.765 
	L 60.732, 118.418 
" />
<path d="M 60.379, 118.417 
	L 60.378, 118.418 
	L 68.315, 110.481 
" />
<path d="M 68.245, 110.126 
	L 68.244, 110.127 
	L 60.024, 118.276 
" />
<path d="M 59.741, 118.205 
	L 59.740, 118.205 
	L 62.008, 115.938 
" />
<path d="M 61.867, 116.008 
	L 61.866, 116.009 
	L 62.150, 115.867 
	L 62.220, 115.583 
	L 62.220, 111.331 
	L 62.150, 111.048 
	L 61.866, 110.977 
	L 61.724, 110.977 
	L 65.976, 106.654 
" />
<path d="M 65.764, 106.512 
	L 65.764, 106.513 
	L 56.409, 115.867 
" />
<path d="M 56.268, 115.583 
	L 56.268, 115.583 
	L 65.551, 106.371 
" />
<path d="M 65.268, 106.157 
	L 65.268, 106.158 
	L 56.126, 115.371 
" />
<path d="M 55.985, 115.087 
	L 55.984, 115.087 
	L 65.055, 106.016 
" />
<path d="M 64.772, 105.874 
	L 64.772, 105.875 
	L 55.843, 114.804 
" />
<path d="M 55.702, 114.591 
	L 55.701, 114.591 
	L 64.488, 105.733 
" />
<path d="M 64.205, 105.661 
	L 64.205, 105.662 
	L 55.559, 114.308 
" />
<path d="M 55.489, 113.953 
	L 55.488, 113.953 
	L 63.921, 105.520 
" />
<path d="M 63.568, 105.449 
	L 63.567, 105.450 
	L 55.346, 113.670 
" />
<path d="M 55.276, 113.315 
	L 55.276, 113.316 
	L 63.283, 105.379 
" />
<path d="M 62.930, 105.307 
	L 62.929, 105.308 
	L 55.205, 113.032 
" />
<path d="M 55.205, 112.677 
	L 55.205, 112.678 
	L 62.575, 105.237 
" />
<path d="M 62.221, 105.236 
	L 62.220, 105.237 
	L 55.134, 112.253 
" />
<path d="M 54.993, 112.181 
	L 54.992, 112.182 
	L 48.331, 112.536 
" />
<path d="M 48.615, 112.252 
	L 48.614, 112.253 
	L 54.992, 111.898 
" />
<path d="M 55.135, 111.898 
	L 55.134, 111.898 
	L 61.795, 105.166 
" />
<path d="M 61.442, 105.236 
	L 61.441, 105.237 
	L 55.134, 111.473 
" />
<path d="M 54.993, 111.614 
	L 54.992, 111.615 
	L 48.898, 111.969 
" />
<path d="M 49.111, 111.614 
	L 49.110, 111.615 
	L 54.992, 111.331 
" />
<path d="M 54.922, 111.047 
	L 54.921, 111.048 
	L 49.394, 111.331 
" />
<path d="M 49.678, 111.047 
	L 49.677, 111.048 
	L 54.921, 110.765 
" />
<path d="M 54.851, 110.480 
	L 54.850, 110.481 
	L 49.961, 110.765 
" />
<path d="M 50.245, 110.409 
	L 50.244, 110.410 
	L 54.780, 110.198 
" />
<path d="M 54.709, 109.913 
	L 54.709, 109.914 
	L 50.528, 110.127 
" />
<path d="M 50.741, 109.843 
	L 50.740, 109.843 
	L 54.638, 109.631 
" />
<path d="M 54.497, 109.346 
	L 54.496, 109.347 
	L 51.024, 109.560 
" />
<path d="M 51.237, 109.276 
	L 51.236, 109.276 
	L 54.425, 109.064 
" />
<path d="M 54.284, 108.780 
	L 54.283, 108.780 
	L 51.236, 108.993 
" />
<path d="M 50.953, 108.709 
	L 50.953, 108.709 
	L 54.142, 108.497 
" />
<path d="M 53.930, 108.213 
	L 53.929, 108.213 
	L 42.378, 108.851 
" />
<path d="M 42.237, 109.134 
	L 42.236, 109.135 
	L 50.598, 108.709 
" />
<path d="M 50.316, 108.992 
	L 50.315, 108.993 
	L 42.094, 109.418 
" />
<path d="M 42.024, 109.701 
	L 42.024, 109.702 
	L 50.032, 109.276 
" />
<path d="M 49.749, 109.630 
	L 49.748, 109.631 
	L 41.953, 109.985 
" />
<path d="M 41.812, 110.268 
	L 41.811, 110.268 
	L 49.465, 109.914 
" />
<path d="M 49.182, 110.197 
	L 49.181, 110.198 
	L 41.811, 110.623 
" />
<path d="M 41.741, 110.906 
	L 41.740, 110.906 
	L 48.969, 110.481 
" />
<path d="M 48.686, 110.835 
	L 48.685, 110.835 
	L 41.669, 111.190 
" />
<path d="M 41.670, 111.472 
	L 41.669, 111.473 
	L 48.402, 111.119 
" />
<path d="M 48.119, 111.402 
	L 48.118, 111.402 
	L 41.669, 111.757 
" />
<path d="M 41.670, 112.039 
	L 41.669, 112.040 
	L 47.835, 111.686 
" />
<path d="M 47.623, 112.039 
	L 47.622, 112.040 
	L 41.669, 112.324 
" />
<path d="M 41.670, 112.606 
	L 41.669, 112.607 
	L 47.551, 112.324 
" />
<path d="M 47.764, 112.606 
	L 47.764, 112.607 
	L 41.740, 112.890 
" />
<path d="M 41.812, 113.173 
	L 41.811, 113.174 
	L 54.992, 112.465 
" />
<path d="M 54.922, 112.819 
	L 54.921, 112.820 
	L 41.882, 113.457 
" />
<path d="M 41.883, 113.528 
	L 41.882, 113.528 
	L 42.307, 114.733 
	L 43.016, 115.867 
	L 43.866, 116.788 
	L 44.929, 117.568 
	L 46.063, 118.135 
	L 47.339, 118.489 
	L 48.685, 118.560 
	L 49.961, 118.347 
	L 51.165, 117.922 
	L 52.299, 117.213 
" />
<path d="M 52.299, 117.213 
	L 44.929, 117.568 
" />
<path d="M 44.505, 117.354 
	L 44.504, 117.355 
	L 52.654, 116.930 
" />
<path d="M 52.300, 117.213 
	L 52.299, 117.213 
	L 53.291, 116.363 
	L 54.071, 115.300 
	L 54.638, 114.095 
	L 54.921, 112.820 
	L 54.992, 111.544 
	L 54.780, 110.198 
	L 54.354, 108.993 
	L 53.717, 107.859 
	L 52.795, 106.938 
	L 51.732, 106.158 
" />
<path d="M 51.732, 106.158 
	L 50.598, 105.591 
	L 49.323, 105.237 
	L 47.976, 105.166 
	L 46.701, 105.379 
	L 45.496, 105.804 
	L 44.362, 106.513 
	L 43.370, 107.363 
	L 42.591, 108.426 
	L 42.024, 109.631 
	L 41.740, 110.906 
	L 41.669, 112.182 
" />
<path d="M 41.669, 112.182 
	L 41.882, 113.528 
" />
<path d="M 41.953, 113.740 
	L 41.953, 113.741 
	L 54.921, 113.103 
" />
<path d="M 54.851, 113.386 
	L 54.850, 113.387 
	L 42.024, 114.024 
" />
<path d="M 42.095, 114.307 
	L 42.094, 114.308 
	L 54.780, 113.670 
" />
<path d="M 54.639, 113.953 
	L 54.638, 113.953 
	L 42.236, 114.591 
" />
<path d="M 42.379, 114.874 
	L 42.378, 114.875 
	L 54.567, 114.237 
" />
<path d="M 54.426, 114.520 
	L 54.425, 114.520 
	L 42.520, 115.158 
" />
<path d="M 42.662, 115.441 
	L 42.661, 115.442 
	L 54.283, 114.804 
" />
<path d="M 54.142, 115.087 
	L 54.142, 115.087 
	L 42.874, 115.725 
" />
<path d="M 43.087, 116.008 
	L 43.087, 116.009 
	L 54.000, 115.442 
" />
<path d="M 53.788, 115.724 
	L 53.787, 115.725 
	L 43.299, 116.221 
" />
<path d="M 43.583, 116.504 
	L 43.583, 116.505 
	L 53.575, 116.009 
" />
<path d="M 53.292, 116.291 
	L 53.291, 116.292 
	L 43.866, 116.788 
" />
<path d="M 44.150, 117.071 
	L 44.150, 117.072 
	L 53.008, 116.646 
" />
<path d="M 51.875, 117.567 
	L 51.874, 117.568 
	L 45.425, 117.851 
" />
<path d="M 45.993, 118.134 
	L 45.992, 118.135 
	L 51.307, 117.851 
" />
<path d="M 50.457, 118.205 
	L 50.457, 118.205 
	L 46.843, 118.347 
" />
<path d="M 46.985, 116.504 
	L 46.984, 116.505 
	L 48.047, 116.717 
	L 49.110, 116.646 
	L 50.173, 116.363 
	L 51.094, 115.796 
	L 51.945, 115.087 
	L 52.583, 114.237 
	L 53.008, 113.245 
	L 53.150, 112.182 
	L 53.079, 111.048 
	L 52.795, 110.056 
" />
<path d="M 52.795, 110.056 
	L 52.299, 109.064 
	L 51.591, 108.284 
	L 50.669, 107.646 
	L 49.677, 107.221 
	L 48.614, 107.009 
	L 47.551, 107.079 
	L 46.488, 107.363 
	L 45.567, 107.930 
	L 44.717, 108.639 
	L 44.079, 109.489 
	L 43.654, 110.481 
" />
<path d="M 43.654, 110.481 
	L 43.512, 111.544 
	L 43.583, 112.678 
	L 43.866, 113.670 
	L 44.362, 114.662 
	L 45.071, 115.442 
	L 45.992, 116.079 
	L 46.984, 116.505 
" />
<path d="M 47.764, 112.606 
	L 47.764, 112.607 
	L 48.047, 112.678 
	L 48.331, 112.536 
	L 51.165, 109.418 
	L 51.236, 109.135 
	L 51.165, 108.851 
	L 51.094, 108.780 
	L 50.740, 108.639 
	L 50.457, 108.780 
	L 47.622, 111.898 
	L 47.551, 112.253 
" />
<path d="M 47.551, 112.253 
	L 47.693, 112.536 
	L 47.764, 112.607 
" />
<path d="M 46.418, 105.449 
	L 46.417, 105.450 
	L 49.606, 105.308 
" />
<path d="M 50.528, 105.520 
	L 50.528, 105.520 
	L 45.496, 105.804 
" />
<path d="M 44.930, 106.157 
	L 44.929, 106.158 
	L 51.165, 105.804 
" />
<path d="M 51.662, 106.087 
	L 51.661, 106.087 
	L 44.433, 106.442 
" />
<path d="M 44.079, 106.724 
	L 44.079, 106.725 
	L 52.087, 106.300 
" />
<path d="M 52.442, 106.583 
	L 52.441, 106.583 
	L 43.724, 107.079 
" />
<path d="M 43.442, 107.362 
	L 43.441, 107.363 
	L 52.724, 106.867 
" />
<path d="M 53.079, 107.150 
	L 53.079, 107.150 
	L 43.157, 107.646 
" />
<path d="M 42.946, 107.929 
	L 42.945, 107.930 
	L 53.291, 107.434 
" />
<path d="M 53.576, 107.717 
	L 53.575, 107.717 
	L 42.732, 108.213 
" />
<path d="M 42.520, 108.567 
	L 42.520, 108.568 
	L 53.717, 108.001 
" />
<path d="M 55.985, 108.638 
	L 55.984, 108.639 
	L 58.535, 106.016 
" />
<path d="M 59.316, 105.661 
	L 59.315, 105.662 
	L 55.630, 109.418 
" />
<path d="M 55.418, 109.984 
	L 55.417, 109.985 
	L 59.953, 105.450 
" />
<path d="M 60.450, 105.307 
	L 60.449, 105.308 
	L 55.276, 110.552 
" />
<path d="M 55.205, 111.047 
	L 55.205, 111.048 
	L 60.945, 105.237 
" />
<path d="M 60.733, 107.150 
	L 60.732, 107.150 
	L 59.669, 107.505 
	L 58.748, 108.072 
	L 58.039, 108.851 
	L 57.402, 109.772 
	L 57.047, 110.765 
	L 56.976, 111.898 
	L 57.047, 112.961 
	L 57.402, 113.953 
	L 58.039, 114.875 
	L 58.748, 115.654 
" />
<path d="M 58.748, 115.654 
	L 59.669, 116.221 
	L 60.732, 116.576 
	L 61.795, 116.717 
	L 62.858, 116.576 
	L 63.921, 116.221 
	L 64.843, 115.654 
	L 65.551, 114.875 
	L 66.189, 113.953 
	L 66.543, 112.961 
	L 66.614, 111.898 
	L 66.543, 110.765 
" />
<path d="M 66.543, 110.765 
	L 66.189, 109.772 
	L 65.551, 108.851 
	L 64.843, 108.072 
	L 63.921, 107.505 
	L 62.858, 107.150 
	L 61.795, 107.009 
	L 60.732, 107.150 
" />
<path d="M 61.442, 111.047 
	L 61.441, 111.048 
	L 61.370, 111.331 
	L 56.622, 116.079 
" />
<path d="M 56.835, 116.291 
	L 56.835, 116.292 
	L 61.370, 111.757 
" />
<path d="M 61.371, 111.331 
	L 61.370, 111.331 
	L 61.370, 115.583 
	L 61.441, 115.867 
	L 61.724, 116.009 
	L 61.866, 116.009 
" />
<path d="M 61.583, 115.937 
	L 61.583, 115.938 
	L 59.457, 118.135 
" />
<path d="M 59.174, 117.992 
	L 59.173, 117.993 
	L 61.370, 115.796 
" />
<path d="M 61.371, 115.370 
	L 61.370, 115.371 
	L 58.890, 117.851 
" />
<path d="M 58.607, 117.709 
	L 58.606, 117.709 
	L 61.370, 115.016 
" />
<path d="M 61.371, 114.591 
	L 61.370, 114.591 
	L 58.323, 117.568 
" />
<path d="M 58.111, 117.425 
	L 58.110, 117.426 
	L 61.370, 114.166 
" />
<path d="M 61.371, 113.811 
	L 61.370, 113.812 
	L 57.898, 117.284 
" />
<path d="M 57.615, 117.071 
	L 57.614, 117.072 
	L 61.370, 113.387 
" />
<path d="M 61.371, 112.961 
	L 61.370, 112.961 
	L 57.402, 116.859 
" />
<path d="M 57.190, 116.717 
	L 57.189, 116.717 
	L 61.370, 112.536 
" />
<path d="M 61.371, 112.181 
	L 61.370, 112.182 
	L 56.976, 116.505 
" />
<path d="M 62.221, 115.724 
	L 62.220, 115.725 
	L 68.173, 109.843 
" />
<path d="M 68.032, 109.488 
	L 68.032, 109.489 
	L 62.220, 115.300 
" />
<path d="M 62.221, 114.874 
	L 62.220, 114.875 
	L 67.890, 109.205 
" />
<path d="M 67.820, 108.921 
	L 67.819, 108.922 
	L 62.220, 114.520 
" />
<path d="M 62.221, 114.095 
	L 62.220, 114.095 
	L 67.677, 108.709 
" />
<path d="M 67.536, 108.425 
	L 67.535, 108.426 
	L 62.220, 113.670 
" />
<path d="M 62.221, 113.244 
	L 62.220, 113.245 
	L 67.323, 108.142 
" />
<path d="M 67.182, 107.929 
	L 67.181, 107.930 
	L 62.220, 112.890 
" />
<path d="M 62.221, 112.465 
	L 62.220, 112.465 
	L 67.039, 107.717 
" />
<path d="M 66.827, 107.504 
	L 66.827, 107.505 
	L 62.220, 112.040 
" />
<path d="M 62.221, 111.614 
	L 62.220, 111.615 
	L 66.614, 107.292 
" />
<path d="M 66.402, 107.079 
	L 66.402, 107.079 
	L 62.220, 111.261 
" />
<path d="M 62.079, 111.047 
	L 62.079, 111.048 
	L 66.189, 106.867 
" />
<path d="M 68.174, 103.394 
	L 68.173, 103.394 
	L 73.417, 103.394 
	L 74.339, 102.969 
	L 74.764, 102.544 
	L 75.189, 101.623 
	L 75.189, 100.347 
	L 74.764, 99.426 
	L 74.339, 99.001 
	L 73.417, 98.576 
	L 74.764, 99.001 
	L 75.189, 99.426 
" />
<path d="M 75.189, 99.426 
	L 75.614, 100.347 
	L 75.614, 101.623 
	L 75.189, 102.544 
	L 74.764, 102.969 
	L 73.417, 103.394 
" />
<path d="M 69.946, 103.394 
	L 69.945, 103.394 
	L 69.945, 94.182 
" />
<path d="M 69.520, 94.181 
	L 69.520, 94.182 
	L 69.520, 103.394 
" />
<path d="M 69.946, 98.575 
	L 69.945, 98.576 
	L 73.417, 98.576 
	L 74.764, 98.150 
	L 75.189, 97.725 
	L 75.614, 96.804 
	L 75.614, 95.953 
	L 75.189, 95.103 
	L 74.764, 94.678 
	L 73.417, 94.182 
	L 74.339, 94.678 
	L 74.764, 95.103 
" />
<path d="M 74.764, 95.103 
	L 75.189, 95.953 
	L 75.189, 96.804 
	L 74.764, 97.725 
	L 74.339, 98.150 
	L 73.417, 98.576 
" />
<path d="M 73.418, 94.181 
	L 73.417, 94.182 
	L 68.173, 94.182 
" />
<path d="M 61.725, 110.976 
	L 61.724, 110.977 
	L 61.441, 111.048 
" />
<path d="M 40.961, 102.969 
	L 40.961, 102.969 
	L 41.811, 102.048 
	L 42.236, 101.198 
" />
<path d="M 40.961, 102.969 
	L 40.961, 102.969 
	L 39.614, 103.394 
	L 38.764, 103.394 
	L 37.843, 102.969 
	L 36.992, 102.048 
	L 36.567, 101.198 
	L 36.142, 99.922 
	L 36.142, 97.725 
	L 36.567, 96.379 
	L 36.992, 95.528 
	L 37.843, 94.678 
" />
<path d="M 37.843, 94.678 
	L 38.764, 94.182 
	L 37.417, 94.678 
	L 36.567, 95.528 
	L 36.142, 96.379 
	L 35.717, 97.725 
	L 35.717, 99.922 
	L 36.142, 101.198 
	L 36.567, 102.048 
	L 37.417, 102.969 
	L 38.764, 103.394 
" />
<path d="M 43.938, 102.898 
	L 43.937, 102.898 
	L 41.386, 107.079 
	L 39.047, 111.331 
	L 36.992, 115.796 
	L 35.220, 120.331 
	L 33.661, 124.938 
	L 32.386, 129.615 
	L 31.394, 134.434 
	L 30.685, 139.253 
	L 30.260, 144.142 
	L 30.118, 148.961 
" />
<path d="M 30.118, 148.961 
	L 30.260, 153.851 
	L 30.685, 158.741 
	L 31.394, 163.560 
	L 32.386, 168.308 
	L 33.661, 173.056 
	L 35.220, 177.662 
	L 36.992, 182.198 
	L 39.047, 186.591 
	L 41.386, 190.914 
	L 43.937, 195.024 
	L 46.701, 199.064 
" />
<path d="M 46.701, 199.064 
	L 49.748, 202.891 
	L 53.008, 206.505 
	L 56.480, 209.977 
	L 60.094, 213.166 
	L 63.921, 216.213 
	L 67.890, 219.048 
	L 72.071, 221.599 
	L 76.323, 223.867 
	L 80.787, 225.993 
	L 85.323, 227.765 
	L 89.929, 229.324 
" />
<path d="M 89.929, 229.324 
	L 94.677, 230.528 
	L 99.425, 231.520 
	L 104.244, 232.229 
	L 109.134, 232.654 
	L 114.024, 232.796 
	L 118.843, 232.654 
	L 123.732, 232.229 
	L 128.551, 231.520 
	L 133.299, 230.528 
	L 138.047, 229.324 
" />
<path d="M 138.047, 229.324 
	L 142.654, 227.765 
	L 147.189, 225.993 
	L 151.654, 223.867 
	L 155.906, 221.599 
	L 160.087, 219.048 
	L 164.055, 216.213 
	L 167.882, 213.166 
	L 171.496, 209.977 
	L 174.969, 206.505 
	L 178.228, 202.891 
" />
<path d="M 178.228, 202.891 
	L 181.276, 199.064 
	L 184.039, 195.024 
	L 186.591, 190.914 
	L 188.929, 186.591 
	L 190.984, 182.198 
	L 192.756, 177.662 
	L 194.315, 173.056 
	L 195.591, 168.308 
	L 196.583, 163.560 
	L 197.291, 158.741 
" />
<path d="M 197.291, 158.741 
	L 197.717, 153.851 
	L 197.858, 148.961 
	L 197.717, 144.142 
	L 197.291, 139.253 
	L 196.583, 134.434 
	L 195.591, 129.615 
	L 194.315, 124.938 
	L 192.756, 120.331 
	L 190.984, 115.796 
	L 188.929, 111.331 
" />
<path d="M 188.929, 111.331 
	L 186.591, 107.079 
	L 184.039, 102.898 
	L 181.276, 98.930 
	L 178.228, 95.103 
	L 174.969, 91.418 
	L 171.496, 88.016 
	L 167.882, 84.757 
	L 164.055, 81.709 
	L 160.087, 78.946 
	L 155.906, 76.394 
" />
<path d="M 155.906, 76.394 
	L 151.654, 74.056 
	L 147.189, 72.001 
	L 142.654, 70.229 
	L 138.047, 68.670 
	L 133.299, 67.394 
	L 128.551, 66.402 
	L 123.732, 65.694 
	L 118.843, 65.268 
	L 113.953, 65.127 
	L 109.134, 65.268 
	L 104.244, 65.694 
" />
<path d="M 104.244, 65.694 
	L 99.425, 66.402 
	L 94.677, 67.394 
	L 89.929, 68.670 
	L 85.323, 70.229 
	L 80.787, 72.001 
	L 76.323, 74.056 
	L 72.071, 76.394 
	L 67.890, 78.946 
	L 63.921, 81.709 
	L 60.094, 84.757 
	L 56.480, 88.016 
" />
<path d="M 56.480, 88.016 
	L 53.008, 91.418 
	L 49.748, 95.103 
	L 46.701, 98.930 
	L 43.937, 102.898 
" />
<path d="M 42.237, 96.803 
	L 42.236, 96.804 
	L 42.236, 94.182 
	L 41.811, 95.528 
	L 40.961, 94.678 
	L 39.614, 94.182 
	L 38.764, 94.182 
" />
<path d="M 41.812, 95.528 
	L 41.811, 95.528 
	L 42.236, 96.804 
" />
<path d="M 74.481, 109.488 
	L 74.480, 109.489 
	L 71.717, 112.394 
	L 69.236, 115.513 
	L 66.969, 118.772 
	L 64.913, 122.174 
	L 63.142, 125.788 
	L 61.583, 129.473 
	L 60.378, 133.229 
	L 59.386, 137.127 
	L 58.677, 141.024 
	L 58.252, 144.993 
" />
<path d="M 58.252, 144.993 
	L 58.110, 148.961 
	L 58.252, 153.001 
	L 58.677, 156.969 
	L 59.386, 160.867 
	L 60.378, 164.694 
	L 61.583, 168.520 
	L 63.142, 172.205 
	L 64.913, 175.749 
	L 66.969, 179.221 
	L 69.236, 182.481 
	L 71.717, 185.599 
" />
<path d="M 71.717, 185.599 
	L 74.480, 188.505 
	L 77.386, 191.198 
	L 80.504, 193.749 
	L 83.764, 196.016 
	L 87.165, 198.001 
	L 90.780, 199.843 
	L 94.465, 201.331 
	L 98.220, 202.607 
	L 102.118, 203.599 
	L 106.016, 204.308 
	L 109.984, 204.733 
" />
<path d="M 109.984, 204.733 
	L 114.024, 204.875 
	L 117.992, 204.733 
	L 121.961, 204.308 
	L 125.858, 203.599 
	L 129.756, 202.607 
	L 133.512, 201.331 
	L 137.197, 199.843 
	L 140.811, 198.001 
	L 144.213, 196.016 
	L 147.472, 193.749 
" />
<path d="M 147.472, 193.749 
	L 150.591, 191.198 
	L 153.496, 188.505 
	L 156.260, 185.599 
	L 158.740, 182.481 
	L 161.008, 179.221 
	L 163.063, 175.749 
	L 164.835, 172.205 
	L 166.394, 168.520 
	L 167.598, 164.694 
	L 168.591, 160.867 
" />
<path d="M 168.591, 160.867 
	L 169.299, 156.969 
	L 169.724, 153.001 
	L 169.866, 148.961 
	L 169.724, 144.993 
	L 169.299, 141.024 
	L 168.591, 137.127 
	L 167.598, 133.229 
	L 166.394, 129.473 
	L 164.835, 125.788 
	L 163.063, 122.174 
" />
<path d="M 163.063, 122.174 
	L 161.008, 118.772 
	L 158.740, 115.513 
	L 156.260, 112.394 
	L 153.496, 109.489 
	L 150.591, 106.725 
	L 147.472, 104.245 
	L 144.213, 101.977 
	L 140.811, 99.922 
	L 137.197, 98.150 
	L 133.512, 96.591 
" />
<path d="M 133.512, 96.591 
	L 129.756, 95.387 
	L 125.858, 94.394 
	L 121.961, 93.686 
	L 117.992, 93.261 
	L 113.953, 93.119 
	L 109.984, 93.261 
	L 106.016, 93.686 
	L 102.118, 94.394 
	L 98.220, 95.387 
	L 94.465, 96.591 
	L 90.780, 98.150 
" />
<path d="M 90.780, 98.150 
	L 87.165, 99.922 
	L 83.764, 101.977 
	L 80.504, 104.245 
	L 77.386, 106.725 
	L 74.480, 109.489 
" />
<path d="M 94.253, 129.189 
	L 94.252, 129.190 
	L 92.409, 131.245 
	L 90.780, 133.442 
	L 89.362, 135.780 
	L 88.157, 138.261 
	L 87.236, 140.883 
	L 86.598, 143.505 
	L 86.173, 146.268 
	L 86.032, 148.961 
	L 86.173, 151.725 
	L 86.598, 154.418 
" />
<path d="M 86.598, 154.418 
	L 87.236, 157.111 
	L 88.157, 159.662 
	L 89.362, 162.142 
	L 90.780, 164.481 
	L 92.409, 166.678 
	L 94.252, 168.733 
	L 96.236, 170.576 
	L 98.433, 172.205 
	L 100.843, 173.623 
	L 103.323, 174.828 
	L 105.874, 175.749 
" />
<path d="M 105.874, 175.749 
	L 108.567, 176.387 
	L 111.260, 176.812 
	L 113.953, 176.953 
	L 116.717, 176.812 
	L 119.409, 176.387 
	L 122.102, 175.749 
	L 124.654, 174.828 
	L 127.134, 173.623 
	L 129.543, 172.205 
	L 131.740, 170.576 
" />
<path d="M 131.740, 170.576 
	L 133.724, 168.733 
	L 135.567, 166.678 
	L 137.197, 164.481 
	L 138.614, 162.142 
	L 139.819, 159.662 
	L 140.740, 157.111 
	L 141.378, 154.418 
	L 141.803, 151.725 
	L 141.945, 148.961 
	L 141.803, 146.268 
" />
<path d="M 141.803, 146.268 
	L 141.378, 143.505 
	L 140.740, 140.883 
	L 139.819, 138.261 
	L 138.614, 135.780 
	L 137.197, 133.442 
	L 135.567, 131.245 
	L 133.724, 129.190 
	L 131.740, 127.347 
	L 129.543, 125.717 
	L 127.134, 124.371 
" />
<path d="M 127.134, 124.371 
	L 124.654, 123.166 
	L 122.102, 122.245 
	L 119.409, 121.607 
	L 116.717, 121.182 
	L 114.024, 121.040 
	L 111.260, 121.182 
	L 108.567, 121.607 
	L 105.874, 122.245 
	L 103.323, 123.166 
	L 100.843, 124.371 
" />
<path d="M 100.843, 124.371 
	L 98.433, 125.717 
	L 96.236, 127.347 
	L 94.252, 129.190 
" />
<path d="M 99.497, 133.228 
	L 99.496, 133.229 
	L 106.441, 133.229 
	L 106.441, 135.780 
	L 106.016, 133.229 
" />
<path d="M 103.820, 135.780 
	L 103.819, 135.780 
	L 103.819, 139.324 
" />
<path d="M 103.820, 137.551 
	L 103.819, 137.552 
	L 101.197, 137.552 
" />
<path d="M 101.198, 133.228 
	L 101.197, 133.229 
	L 101.197, 142.371 
" />
<path d="M 100.772, 142.370 
	L 100.772, 142.371 
	L 100.772, 133.229 
" />
<path d="M 99.497, 142.370 
	L 99.496, 142.371 
	L 106.441, 142.371 
	L 106.441, 139.749 
	L 106.016, 142.371 
" />
<path d="M 109.064, 144.071 
	L 109.063, 144.072 
	L 108.213, 145.135 
	L 107.504, 146.339 
	L 107.150, 147.615 
	L 107.008, 148.961 
	L 107.150, 150.379 
	L 107.504, 151.654 
	L 108.213, 152.859 
	L 109.063, 153.922 
	L 110.126, 154.772 
" />
<path d="M 110.126, 154.772 
	L 111.331, 155.410 
	L 112.606, 155.835 
	L 113.953, 155.977 
	L 115.370, 155.835 
	L 116.646, 155.410 
	L 117.850, 154.772 
	L 118.913, 153.922 
	L 119.764, 152.859 
	L 120.472, 151.654 
	L 120.827, 150.379 
" />
<path d="M 120.827, 150.379 
	L 120.969, 148.961 
	L 120.827, 147.615 
	L 120.472, 146.339 
	L 119.764, 145.135 
	L 118.913, 144.072 
	L 117.850, 143.150 
	L 116.646, 142.513 
	L 115.370, 142.158 
	L 114.024, 142.016 
	L 112.606, 142.158 
" />
<path d="M 112.606, 142.158 
	L 111.331, 142.513 
	L 110.126, 143.150 
	L 109.063, 144.072 
" />
<path d="M 159.520, 133.866 
	L 159.520, 133.867 
	L 163.913, 133.867 
	L 164.764, 133.442 
	L 165.614, 132.591 
	L 166.110, 131.741 
	L 166.535, 130.394 
	L 166.535, 128.198 
	L 166.110, 126.922 
	L 165.614, 126.001 
	L 164.764, 125.150 
" />
<path d="M 164.764, 125.150 
	L 163.913, 124.725 
	L 165.189, 125.150 
	L 166.110, 126.001 
	L 166.535, 126.922 
	L 166.961, 128.198 
	L 166.961, 130.394 
	L 166.535, 131.741 
	L 166.110, 132.591 
	L 165.189, 133.442 
	L 163.913, 133.867 
" />
<path d="M 163.913, 133.867 
" />
<path d="M 161.292, 133.866 
	L 161.291, 133.867 
	L 161.291, 124.725 
" />
<path d="M 160.867, 124.724 
	L 160.866, 124.725 
	L 160.866, 133.867 
" />
<path d="M 159.520, 124.724 
	L 159.520, 124.725 
	L 163.913, 124.725 
" />
<path d="M 227.977, 148.961 
	L 227.976, 148.961 
	L 0.000, 148.961 
" />
<path d="M 0.001, 232.795 
	L 0.000, 232.796 
	L 227.976, 232.796 
" />
<path d="M 218.835, 240.661 
	L 218.835, 240.662 
	L 218.835, 0.001 
" />
<path d="M 114.024, 0.000 
	L 114.024, 0.001 
	L 114.024, 240.662 
" />
<path d="M 9.142, 240.661 
	L 9.142, 240.662 
	L 9.142, 0.001 
" />
</g><g style="stroke:rgb(255,255,255); fill:none; stroke-width:0.100mm" >
</g>
</svg>
