<?xml version="1.0" encoding="UTF-8" standalone="no" ?>
<svg width="100%" height="100%" viewBox="0 0 227.977 275.103" xmlns="http://www.w3.org/2000/svg"><g>
</g><g style="stroke:rgb(0,0,0); fill:none; stroke-width:1.000mm" >
</g><g style="stroke:rgb(0,0,0); fill:none; stroke-width:0.100mm" >
<path d="M 73.064, 81.567 
	L 73.063, 81.568 
	L 72.283, 75.473 
" />
<path d="M 72.001, 75.260 
	L 72.000, 75.261 
	L 72.780, 81.639 
" />
<path d="M 72.497, 81.638 
	L 72.496, 81.639 
	L 71.646, 74.977 
	L 74.976, 77.599 
	L 75.260, 77.670 
	L 75.543, 77.528 
	L 75.614, 77.457 
	L 75.685, 77.174 
	L 75.543, 76.890 
	L 72.213, 74.268 
	L 71.929, 74.198 
	L 71.646, 74.339 
" />
<path d="M 71.646, 74.339 
	L 71.575, 74.410 
	L 70.866, 68.457 
" />
<path d="M 70.583, 68.528 
	L 70.583, 68.528 
	L 72.213, 81.639 
" />
<path d="M 71.859, 81.638 
	L 71.858, 81.639 
	L 70.299, 68.599 
" />
<path d="M 70.229, 68.598 
	L 70.228, 68.599 
	L 69.094, 69.166 
	L 67.961, 69.875 
	L 67.110, 70.867 
	L 66.402, 71.930 
	L 65.906, 73.135 
	L 65.693, 74.481 
	L 65.693, 75.757 
	L 65.976, 77.032 
	L 66.543, 78.237 
	L 67.252, 79.300 
" />
<path d="M 67.252, 79.300 
	L 68.244, 80.221 
	L 69.307, 80.930 
	L 70.583, 81.355 
	L 71.858, 81.568 
	L 73.134, 81.568 
	L 74.409, 81.284 
	L 75.614, 80.788 
	L 76.677, 80.009 
	L 77.598, 79.087 
	L 78.307, 77.953 
	L 78.803, 76.749 
" />
<path d="M 78.803, 76.749 
	L 79.016, 75.473 
	L 78.945, 74.127 
	L 78.661, 72.851 
	L 78.165, 71.646 
	L 77.386, 70.583 
	L 76.465, 69.662 
	L 75.331, 69.024 
	L 74.126, 68.528 
	L 72.850, 68.316 
	L 71.504, 68.316 
	L 70.228, 68.599 
" />
<path d="M 70.228, 68.599 
" />
<path d="M 70.016, 68.669 
	L 70.016, 68.670 
	L 71.575, 81.568 
" />
<path d="M 71.292, 81.567 
	L 71.291, 81.568 
	L 69.732, 68.812 
" />
<path d="M 69.450, 68.953 
	L 69.449, 68.953 
	L 71.008, 81.497 
" />
<path d="M 70.725, 81.425 
	L 70.724, 81.426 
	L 69.165, 69.095 
" />
<path d="M 68.953, 69.236 
	L 68.953, 69.237 
	L 70.441, 81.355 
" />
<path d="M 70.087, 81.213 
	L 70.087, 81.213 
	L 68.669, 69.379 
" />
<path d="M 68.387, 69.591 
	L 68.386, 69.591 
	L 69.803, 81.142 
" />
<path d="M 69.520, 81.000 
	L 69.520, 81.001 
	L 68.102, 69.804 
" />
<path d="M 67.890, 70.016 
	L 67.890, 70.016 
	L 69.165, 80.859 
" />
<path d="M 68.883, 80.646 
	L 68.882, 80.646 
	L 67.606, 70.229 
" />
<path d="M 67.324, 70.512 
	L 67.323, 70.513 
	L 68.598, 80.434 
" />
<path d="M 68.245, 80.220 
	L 68.244, 80.221 
	L 67.110, 70.796 
" />
<path d="M 66.827, 71.150 
	L 66.827, 71.150 
	L 67.961, 79.938 
" />
<path d="M 67.607, 79.654 
	L 67.606, 79.654 
	L 66.614, 71.505 
" />
<path d="M 66.402, 71.929 
	L 66.402, 71.930 
	L 67.252, 79.300 
" />
<path d="M 66.898, 78.874 
	L 66.898, 78.875 
	L 66.118, 72.426 
" />
<path d="M 65.906, 73.063 
	L 65.906, 73.064 
	L 66.543, 78.308 
" />
<path d="M 66.190, 77.528 
	L 66.189, 77.528 
	L 65.764, 73.914 
" />
<path d="M 67.607, 73.913 
	L 67.606, 73.914 
	L 67.535, 74.977 
	L 67.606, 76.040 
	L 68.032, 77.103 
	L 68.598, 78.024 
	L 69.378, 78.733 
	L 70.299, 79.300 
	L 71.291, 79.654 
	L 72.354, 79.796 
	L 73.488, 79.654 
	L 74.480, 79.300 
" />
<path d="M 74.480, 79.300 
	L 75.402, 78.733 
	L 76.181, 77.953 
	L 76.748, 77.032 
	L 77.102, 75.969 
	L 77.173, 74.906 
	L 77.032, 73.843 
	L 76.677, 72.780 
	L 76.110, 71.930 
	L 75.331, 71.150 
	L 74.409, 70.583 
	L 73.346, 70.229 
" />
<path d="M 73.346, 70.229 
	L 72.283, 70.087 
	L 71.220, 70.229 
	L 70.228, 70.583 
	L 69.307, 71.221 
	L 68.528, 72.001 
	L 67.961, 72.922 
	L 67.606, 73.914 
" />
<path d="M 71.576, 74.409 
	L 71.575, 74.410 
	L 71.504, 74.694 
	L 71.646, 74.977 
" />
<path d="M 71.859, 74.197 
	L 71.858, 74.198 
	L 71.150, 68.387 
" />
<path d="M 71.434, 68.315 
	L 71.433, 68.316 
	L 72.142, 74.198 
" />
<path d="M 72.426, 74.480 
	L 72.425, 74.481 
	L 71.717, 68.316 
" />
<path d="M 72.001, 68.315 
	L 72.000, 68.316 
	L 72.780, 74.694 
" />
<path d="M 73.064, 74.976 
	L 73.063, 74.977 
	L 72.283, 68.245 
" />
<path d="M 72.568, 68.244 
	L 72.567, 68.245 
	L 73.417, 75.190 
" />
<path d="M 73.702, 75.472 
	L 73.701, 75.473 
	L 72.850, 68.316 
" />
<path d="M 73.135, 68.315 
	L 73.134, 68.316 
	L 74.055, 75.686 
" />
<path d="M 74.339, 75.969 
	L 74.339, 75.969 
	L 73.417, 68.387 
" />
<path d="M 73.772, 68.457 
	L 73.772, 68.457 
	L 74.693, 76.182 
" />
<path d="M 74.977, 76.465 
	L 74.976, 76.465 
	L 74.055, 68.528 
" />
<path d="M 74.339, 68.598 
	L 74.339, 68.599 
	L 75.331, 76.678 
" />
<path d="M 75.686, 76.961 
	L 75.685, 76.961 
	L 74.622, 68.670 
" />
<path d="M 74.977, 68.811 
	L 74.976, 68.812 
	L 76.323, 80.292 
" />
<path d="M 76.111, 80.504 
	L 76.110, 80.505 
	L 75.685, 77.316 
" />
<path d="M 75.473, 77.598 
	L 75.472, 77.599 
	L 75.827, 80.646 
" />
<path d="M 75.544, 80.787 
	L 75.543, 80.788 
	L 75.189, 77.670 
" />
<path d="M 74.835, 77.457 
	L 74.835, 77.457 
	L 75.260, 80.930 
" />
<path d="M 74.977, 81.071 
	L 74.976, 81.072 
	L 74.551, 77.245 
" />
<path d="M 74.198, 76.961 
	L 74.197, 76.961 
	L 74.693, 81.213 
" />
<path d="M 74.481, 81.283 
	L 74.480, 81.284 
	L 73.913, 76.749 
" />
<path d="M 73.560, 76.465 
	L 73.559, 76.465 
	L 74.197, 81.355 
" />
<path d="M 73.914, 81.425 
	L 73.913, 81.426 
	L 73.276, 76.253 
" />
<path d="M 72.922, 75.969 
	L 72.921, 75.969 
	L 73.630, 81.497 
" />
<path d="M 73.347, 81.567 
	L 73.346, 81.568 
	L 72.638, 75.757 
" />
<path d="M 78.946, 75.756 
	L 78.945, 75.757 
	L 78.591, 72.568 
" />
<path d="M 78.166, 71.717 
	L 78.165, 71.717 
	L 78.803, 76.678 
" />
<path d="M 78.591, 77.315 
	L 78.591, 77.316 
	L 77.811, 71.150 
" />
<path d="M 77.457, 70.724 
	L 77.457, 70.725 
	L 78.378, 77.812 
" />
<path d="M 78.095, 78.307 
	L 78.095, 78.308 
	L 77.173, 70.300 
" />
<path d="M 76.820, 70.016 
	L 76.819, 70.016 
	L 77.882, 78.662 
" />
<path d="M 77.599, 79.016 
	L 77.598, 79.016 
	L 76.465, 69.733 
" />
<path d="M 76.182, 69.520 
	L 76.181, 69.520 
	L 77.386, 79.300 
" />
<path d="M 77.103, 79.583 
	L 77.102, 79.583 
	L 75.898, 69.308 
" />
<path d="M 75.544, 69.094 
	L 75.543, 69.095 
	L 76.890, 79.867 
" />
<path d="M 76.607, 80.079 
	L 76.606, 80.079 
	L 75.260, 68.953 
" />
<path d="M 92.906, 69.945 
	L 92.906, 69.946 
	L 90.921, 76.890 
" />
<path d="M 90.993, 77.032 
	L 90.992, 77.032 
	L 91.488, 78.166 
	L 92.268, 79.300 
	L 93.189, 80.150 
	L 94.323, 80.859 
	L 95.528, 81.355 
	L 96.803, 81.568 
	L 98.079, 81.568 
	L 99.354, 81.284 
	L 100.559, 80.788 
	L 101.693, 80.009 
" />
<path d="M 101.693, 80.009 
	L 102.543, 79.087 
	L 103.252, 77.953 
	L 103.748, 76.749 
	L 103.961, 75.473 
	L 103.961, 74.198 
	L 103.677, 72.922 
	L 103.181, 71.717 
	L 102.402, 70.654 
	L 101.480, 69.733 
	L 100.346, 69.024 
	L 99.142, 68.528 
" />
<path d="M 99.142, 68.528 
	L 97.866, 68.316 
	L 96.591, 68.316 
	L 95.315, 68.599 
	L 94.110, 69.095 
	L 92.976, 69.875 
	L 92.126, 70.796 
	L 91.417, 71.930 
	L 90.921, 73.135 
	L 90.709, 74.410 
	L 90.709, 75.686 
	L 90.992, 77.032 
" />
<path d="M 90.992, 77.032 
" />
<path d="M 91.135, 77.315 
	L 91.134, 77.316 
	L 93.331, 69.662 
" />
<path d="M 93.686, 69.378 
	L 93.685, 69.379 
	L 91.276, 77.741 
" />
<path d="M 91.489, 78.165 
	L 91.488, 78.166 
	L 94.039, 69.166 
" />
<path d="M 94.394, 68.953 
	L 94.394, 68.953 
	L 91.701, 78.520 
" />
<path d="M 91.914, 78.803 
	L 91.913, 78.804 
	L 94.748, 68.812 
" />
<path d="M 95.032, 68.669 
	L 95.032, 68.670 
	L 92.126, 79.087 
" />
<path d="M 92.339, 79.370 
	L 92.339, 79.371 
	L 95.386, 68.599 
" />
<path d="M 95.741, 68.457 
	L 95.740, 68.457 
	L 92.551, 79.583 
" />
<path d="M 92.765, 79.866 
	L 92.764, 79.867 
	L 95.102, 71.788 
" />
<path d="M 95.103, 71.646 
	L 95.102, 71.646 
	L 95.102, 71.930 
	L 97.157, 75.615 
	L 97.441, 75.827 
	L 97.724, 75.757 
	L 97.795, 75.757 
	L 96.165, 81.497 
" />
<path d="M 95.883, 81.496 
	L 95.882, 81.497 
	L 97.512, 75.827 
" />
<path d="M 97.796, 75.756 
	L 97.795, 75.757 
	L 98.008, 75.473 
	L 98.008, 75.190 
	L 99.780, 68.741 
" />
<path d="M 99.568, 68.669 
	L 99.567, 68.670 
	L 97.795, 74.835 
" />
<path d="M 98.009, 75.189 
	L 98.008, 75.190 
	L 95.953, 71.505 
	L 95.669, 71.292 
	L 95.386, 71.292 
	L 95.315, 71.363 
	L 95.102, 71.646 
" />
<path d="M 95.174, 71.504 
	L 95.173, 71.505 
	L 96.024, 68.387 
" />
<path d="M 96.379, 68.315 
	L 96.378, 68.316 
	L 95.528, 71.292 
" />
<path d="M 95.812, 71.362 
	L 95.811, 71.363 
	L 96.661, 68.316 
" />
<path d="M 96.946, 68.315 
	L 96.945, 68.316 
	L 96.024, 71.646 
" />
<path d="M 96.237, 72.000 
	L 96.236, 72.001 
	L 97.228, 68.245 
" />
<path d="M 97.583, 68.244 
	L 97.583, 68.245 
	L 96.378, 72.355 
" />
<path d="M 96.591, 72.709 
	L 96.591, 72.709 
	L 97.866, 68.316 
" />
<path d="M 98.150, 68.315 
	L 98.150, 68.316 
	L 96.803, 73.064 
" />
<path d="M 97.016, 73.417 
	L 97.016, 73.418 
	L 98.433, 68.387 
" />
<path d="M 98.717, 68.386 
	L 98.717, 68.387 
	L 97.228, 73.772 
" />
<path d="M 97.371, 74.126 
	L 97.370, 74.127 
	L 99.000, 68.457 
" />
<path d="M 99.284, 68.528 
	L 99.283, 68.528 
	L 97.583, 74.481 
" />
<path d="M 96.662, 74.622 
	L 96.661, 74.623 
	L 94.819, 81.142 
" />
<path d="M 95.103, 81.213 
	L 95.102, 81.213 
	L 96.874, 74.977 
" />
<path d="M 97.016, 75.331 
	L 97.016, 75.331 
	L 95.315, 81.284 
" />
<path d="M 95.599, 81.425 
	L 95.598, 81.426 
	L 97.228, 75.686 
" />
<path d="M 96.450, 74.268 
	L 96.449, 74.268 
	L 94.535, 81.001 
" />
<path d="M 94.253, 80.858 
	L 94.252, 80.859 
	L 96.236, 73.914 
" />
<path d="M 96.024, 73.559 
	L 96.024, 73.560 
	L 94.039, 80.717 
" />
<path d="M 93.757, 80.575 
	L 93.756, 80.576 
	L 95.882, 73.205 
" />
<path d="M 95.670, 72.850 
	L 95.669, 72.851 
	L 93.543, 80.434 
" />
<path d="M 93.261, 80.220 
	L 93.260, 80.221 
	L 95.457, 72.497 
" />
<path d="M 95.245, 72.142 
	L 95.244, 72.142 
	L 93.047, 80.009 
" />
<path d="M 93.757, 78.165 
	L 93.756, 78.166 
	L 94.535, 78.875 
	L 95.528, 79.442 
	L 96.520, 79.725 
	L 97.654, 79.796 
	L 98.717, 79.583 
	L 99.709, 79.158 
	L 100.559, 78.520 
	L 101.268, 77.741 
	L 101.835, 76.749 
	L 102.118, 75.757 
" />
<path d="M 102.118, 75.757 
	L 102.189, 74.694 
	L 101.976, 73.560 
	L 101.551, 72.568 
	L 100.913, 71.717 
	L 100.134, 71.009 
	L 99.142, 70.442 
	L 98.150, 70.158 
	L 97.016, 70.087 
	L 95.953, 70.300 
	L 94.961, 70.725 
	L 94.110, 71.363 
" />
<path d="M 94.110, 71.363 
	L 93.402, 72.142 
	L 92.835, 73.135 
	L 92.551, 74.127 
	L 92.480, 75.261 
	L 92.693, 76.324 
	L 93.118, 77.316 
	L 93.756, 78.166 
" />
<path d="M 90.780, 76.323 
	L 90.780, 76.324 
	L 92.480, 70.371 
" />
<path d="M 92.056, 70.866 
	L 92.055, 70.867 
	L 90.709, 75.615 
" />
<path d="M 90.639, 74.693 
	L 90.638, 74.694 
	L 91.559, 71.646 
" />
<path d="M 87.379, 69.307 
	L 87.378, 69.308 
	L 85.748, 74.339 
" />
<path d="M 84.119, 74.339 
	L 84.118, 74.339 
	L 82.488, 69.308 
	L 87.024, 64.702 
	L 87.024, 61.087 
" />
<path d="M 87.024, 58.181 
	L 87.024, 58.182 
	L 87.024, 52.442 
" />
<path d="M 87.024, 49.606 
	L 87.024, 49.607 
	L 87.024, 43.867 
" />
<path d="M 87.024, 41.032 
	L 87.024, 41.032 
	L 87.024, 35.292 
" />
<path d="M 87.024, 32.386 
	L 87.024, 32.387 
	L 87.024, 28.772 
" />
<path d="M 82.843, 28.772 
	L 82.843, 28.772 
	L 82.843, 32.387 
" />
<path d="M 82.843, 35.291 
	L 82.843, 35.292 
	L 82.843, 41.032 
" />
<path d="M 82.843, 43.866 
	L 82.843, 43.867 
	L 82.843, 49.607 
" />
<path d="M 82.843, 52.441 
	L 82.843, 52.442 
	L 82.843, 58.182 
" />
<path d="M 82.843, 61.087 
	L 82.843, 61.087 
	L 82.843, 64.702 
	L 87.378, 69.308 
" />
<path d="M 84.969, 77.032 
	L 84.969, 77.032 
	L 86.811, 82.489 
" />
<path d="M 87.662, 85.252 
	L 87.661, 85.253 
	L 89.433, 90.639 
" />
<path d="M 90.355, 93.402 
	L 90.354, 93.402 
	L 92.126, 98.859 
" />
<path d="M 93.048, 101.551 
	L 93.047, 101.552 
	L 94.819, 107.009 
" />
<path d="M 95.670, 109.701 
	L 95.669, 109.702 
	L 97.441, 115.158 
" />
<path d="M 98.363, 117.921 
	L 98.362, 117.922 
	L 100.134, 123.379 
" />
<path d="M 101.056, 126.071 
	L 101.055, 126.072 
	L 102.827, 131.528 
" />
<path d="M 103.678, 134.220 
	L 103.677, 134.221 
	L 105.449, 139.678 
" />
<path d="M 106.371, 142.441 
	L 106.370, 142.442 
	L 108.142, 147.898 
" />
<path d="M 109.064, 150.591 
	L 109.063, 150.591 
	L 110.835, 156.048 
" />
<path d="M 111.686, 158.740 
	L 111.685, 158.741 
	L 113.528, 164.198 
" />
<path d="M 114.379, 166.961 
	L 114.378, 166.961 
	L 116.008, 171.922 
" />
<path d="M 119.977, 171.142 
	L 119.976, 171.142 
	L 119.976, 169.867 
	L 120.402, 168.520 
	L 121.323, 167.670 
	L 122.173, 167.245 
	L 123.945, 166.394 
	L 125.220, 165.473 
	L 125.646, 164.623 
	L 125.646, 163.772 
	L 125.220, 162.851 
" />
<path d="M 125.220, 162.851 
	L 124.795, 162.426 
	L 123.945, 162.001 
	L 125.220, 162.426 
	L 125.646, 162.851 
	L 126.142, 163.772 
	L 126.142, 164.623 
	L 125.646, 165.473 
	L 124.370, 166.394 
	L 122.173, 167.245 
" />
<path d="M 121.324, 169.866 
	L 121.323, 169.867 
	L 123.520, 170.717 
	L 124.795, 170.717 
	L 125.646, 170.292 
	L 126.142, 169.867 
	L 126.142, 169.016 
" />
<path d="M 126.142, 169.866 
	L 126.142, 169.867 
	L 125.646, 170.717 
	L 125.220, 171.142 
	L 123.520, 171.142 
	L 121.323, 169.867 
	L 120.402, 169.867 
	L 119.976, 170.292 
" />
<path d="M 120.402, 164.622 
	L 120.402, 164.623 
	L 119.976, 164.198 
	L 119.976, 163.772 
	L 120.402, 162.851 
	L 120.898, 162.426 
	L 122.173, 162.001 
	L 123.945, 162.001 
" />
<path d="M 120.898, 164.197 
	L 120.898, 164.198 
	L 120.402, 164.623 
" />
<path d="M 120.402, 163.772 
	L 120.402, 163.772 
	L 120.898, 164.198 
" />
<path d="M 56.410, 164.197 
	L 56.409, 164.198 
	L 58.181, 158.741 
" />
<path d="M 59.032, 156.047 
	L 59.032, 156.048 
	L 60.874, 150.591 
" />
<path d="M 61.725, 147.898 
	L 61.724, 147.898 
	L 63.496, 142.442 
" />
<path d="M 64.418, 139.677 
	L 64.417, 139.678 
	L 66.189, 134.221 
" />
<path d="M 67.040, 131.528 
	L 67.039, 131.528 
	L 68.882, 126.072 
" />
<path d="M 69.733, 123.378 
	L 69.732, 123.379 
	L 71.504, 117.922 
" />
<path d="M 72.426, 115.157 
	L 72.425, 115.158 
	L 74.197, 109.702 
" />
<path d="M 75.119, 107.008 
	L 75.118, 107.009 
	L 76.890, 101.552 
" />
<path d="M 77.741, 98.858 
	L 77.740, 98.859 
	L 79.512, 93.402 
" />
<path d="M 80.434, 90.638 
	L 80.433, 90.639 
	L 82.205, 85.253 
" />
<path d="M 83.127, 82.488 
	L 83.126, 82.489 
	L 84.898, 77.032 
" />
<path d="M 96.450, 81.567 
	L 96.449, 81.568 
	L 100.063, 68.883 
" />
<path d="M 100.347, 68.953 
	L 100.346, 68.953 
	L 96.732, 81.568 
" />
<path d="M 97.016, 81.638 
	L 97.016, 81.639 
	L 100.559, 69.095 
" />
<path d="M 100.843, 69.307 
	L 100.843, 69.308 
	L 97.370, 81.639 
" />
<path d="M 97.654, 81.638 
	L 97.654, 81.639 
	L 101.126, 69.450 
" />
<path d="M 101.339, 69.591 
	L 101.339, 69.591 
	L 97.937, 81.568 
" />
<path d="M 98.221, 81.567 
	L 98.220, 81.568 
	L 101.622, 69.804 
" />
<path d="M 101.835, 70.016 
	L 101.835, 70.016 
	L 98.575, 81.497 
" />
<path d="M 98.859, 81.425 
	L 98.858, 81.426 
	L 102.047, 70.229 
" />
<path d="M 102.261, 70.512 
	L 102.260, 70.513 
	L 99.213, 81.355 
" />
<path d="M 99.568, 81.213 
	L 99.567, 81.213 
	L 102.543, 70.725 
" />
<path d="M 102.757, 71.008 
	L 102.756, 71.009 
	L 99.850, 81.142 
" />
<path d="M 100.205, 81.000 
	L 100.205, 81.001 
	L 102.969, 71.363 
" />
<path d="M 103.182, 71.646 
	L 103.181, 71.646 
	L 100.559, 80.788 
" />
<path d="M 100.914, 80.575 
	L 100.913, 80.576 
	L 103.323, 72.072 
" />
<path d="M 103.536, 72.425 
	L 103.535, 72.426 
	L 101.268, 80.292 
" />
<path d="M 101.694, 80.008 
	L 101.693, 80.009 
	L 103.677, 72.922 
" />
<path d="M 103.820, 73.417 
	L 103.819, 73.418 
	L 102.047, 79.654 
" />
<path d="M 102.544, 79.157 
	L 102.543, 79.158 
	L 103.961, 74.056 
" />
<path d="M 104.032, 74.976 
	L 104.032, 74.977 
	L 103.039, 78.450 
" />
<path d="M 106.867, 69.307 
	L 106.866, 69.308 
	L 112.110, 69.308 
	L 112.961, 68.883 
	L 113.386, 68.457 
	L 113.882, 67.607 
	L 113.882, 66.261 
	L 113.386, 65.410 
	L 112.961, 64.985 
	L 112.110, 64.489 
	L 113.386, 64.985 
	L 113.882, 65.410 
" />
<path d="M 113.882, 65.410 
	L 114.307, 66.261 
	L 114.307, 67.607 
	L 113.882, 68.457 
	L 113.386, 68.883 
	L 112.110, 69.308 
" />
<path d="M 108.639, 69.307 
	L 108.638, 69.308 
	L 108.638, 60.166 
" />
<path d="M 108.142, 60.165 
	L 108.142, 60.166 
	L 108.142, 69.308 
" />
<path d="M 108.639, 64.488 
	L 108.638, 64.489 
	L 112.110, 64.489 
	L 113.386, 64.064 
	L 113.882, 63.639 
	L 114.307, 62.788 
	L 114.307, 61.938 
	L 113.882, 61.016 
	L 113.386, 60.591 
	L 112.110, 60.166 
	L 112.961, 60.591 
	L 113.386, 61.016 
" />
<path d="M 113.386, 61.016 
	L 113.882, 61.938 
	L 113.882, 62.788 
	L 113.386, 63.639 
	L 112.961, 64.064 
	L 112.110, 64.489 
" />
<path d="M 112.111, 60.165 
	L 112.110, 60.166 
	L 106.866, 60.166 
" />
<path d="M 109.135, 99.709 
	L 109.134, 99.709 
	L 104.244, 100.135 
	L 99.425, 100.843 
	L 94.677, 101.835 
	L 89.929, 103.040 
	L 85.323, 104.599 
	L 80.787, 106.442 
	L 76.323, 108.497 
	L 72.071, 110.765 
	L 67.890, 113.316 
	L 63.921, 116.150 
" />
<path d="M 63.921, 116.150 
	L 60.094, 119.198 
	L 56.480, 122.387 
	L 53.008, 125.859 
	L 49.748, 129.473 
	L 46.701, 133.300 
	L 43.937, 137.339 
	L 41.386, 141.450 
	L 39.047, 145.772 
	L 36.992, 150.166 
	L 35.220, 154.702 
	L 33.661, 159.379 
" />
<path d="M 33.661, 159.379 
	L 32.386, 164.056 
	L 31.394, 168.875 
	L 30.685, 173.694 
	L 30.260, 178.513 
	L 30.118, 183.402 
	L 30.260, 188.292 
	L 30.685, 193.111 
	L 31.394, 197.930 
	L 32.386, 202.749 
	L 33.661, 207.426 
	L 35.220, 212.103 
" />
<path d="M 35.220, 212.103 
	L 36.992, 216.639 
	L 39.047, 221.032 
	L 41.386, 225.355 
	L 43.937, 229.465 
	L 46.701, 233.505 
	L 49.748, 237.331 
	L 53.008, 240.946 
	L 56.480, 244.418 
	L 60.094, 247.607 
	L 63.921, 250.654 
	L 67.890, 253.489 
" />
<path d="M 67.890, 253.489 
	L 72.071, 256.040 
	L 76.323, 258.308 
	L 80.787, 260.363 
	L 85.323, 262.205 
	L 89.929, 263.765 
	L 94.677, 264.969 
	L 99.425, 265.961 
	L 104.244, 266.670 
	L 109.134, 267.095 
	L 114.024, 267.237 
	L 118.843, 267.095 
" />
<path d="M 118.843, 267.095 
	L 123.732, 266.670 
	L 128.551, 265.961 
	L 133.299, 264.969 
	L 138.047, 263.765 
	L 142.654, 262.205 
	L 147.189, 260.363 
	L 151.654, 258.308 
	L 155.906, 256.040 
	L 160.087, 253.489 
	L 164.055, 250.654 
" />
<path d="M 164.055, 250.654 
	L 167.882, 247.607 
	L 171.496, 244.418 
	L 174.969, 240.946 
	L 178.228, 237.331 
	L 181.276, 233.505 
	L 184.039, 229.465 
	L 186.591, 225.355 
	L 188.929, 221.032 
	L 190.984, 216.639 
	L 192.756, 212.103 
" />
<path d="M 192.756, 212.103 
	L 194.315, 207.426 
	L 195.591, 202.749 
	L 196.583, 197.930 
	L 197.291, 193.111 
	L 197.717, 188.292 
	L 197.858, 183.402 
	L 197.717, 178.513 
	L 197.291, 173.694 
	L 196.583, 168.875 
	L 195.591, 164.056 
" />
<path d="M 195.591, 164.056 
	L 194.315, 159.379 
	L 192.756, 154.702 
	L 190.984, 150.166 
	L 188.929, 145.772 
	L 186.591, 141.450 
	L 184.039, 137.339 
	L 181.276, 133.300 
	L 178.228, 129.473 
	L 174.969, 125.859 
	L 171.496, 122.387 
" />
<path d="M 171.496, 122.387 
	L 167.882, 119.198 
	L 164.055, 116.150 
	L 160.087, 113.316 
	L 155.906, 110.765 
	L 151.654, 108.497 
	L 147.189, 106.442 
	L 142.654, 104.599 
	L 138.047, 103.040 
	L 133.299, 101.835 
	L 128.551, 100.843 
" />
<path d="M 128.551, 100.843 
	L 123.732, 100.135 
	L 118.843, 99.709 
	L 113.953, 99.568 
	L 109.134, 99.709 
" />
<path d="M 109.985, 127.630 
	L 109.984, 127.631 
	L 106.016, 128.056 
	L 102.118, 128.765 
	L 98.220, 129.757 
	L 94.465, 131.032 
	L 90.780, 132.520 
	L 87.165, 134.363 
	L 83.764, 136.347 
	L 80.504, 138.686 
	L 77.386, 141.166 
" />
<path d="M 77.386, 141.166 
	L 74.480, 143.859 
	L 71.717, 146.765 
	L 69.236, 149.883 
	L 66.969, 153.213 
	L 64.913, 156.615 
	L 63.142, 160.158 
	L 61.583, 163.843 
	L 60.378, 167.670 
	L 59.386, 171.497 
	L 58.677, 175.465 
	L 58.252, 179.434 
" />
<path d="M 58.252, 179.434 
	L 58.110, 183.402 
	L 58.252, 187.371 
	L 58.677, 191.339 
	L 59.386, 195.308 
	L 60.378, 199.135 
	L 61.583, 202.961 
	L 63.142, 206.646 
	L 64.913, 210.190 
	L 66.969, 213.591 
	L 69.236, 216.922 
	L 71.717, 220.040 
" />
<path d="M 71.717, 220.040 
	L 74.480, 222.946 
	L 77.386, 225.639 
	L 80.504, 228.119 
	L 83.764, 230.457 
	L 87.165, 232.442 
	L 90.780, 234.284 
	L 94.465, 235.772 
	L 98.220, 237.048 
	L 102.118, 238.040 
	L 106.016, 238.749 
	L 109.984, 239.174 
" />
<path d="M 109.984, 239.174 
	L 114.024, 239.316 
	L 117.992, 239.174 
	L 121.961, 238.749 
	L 125.858, 238.040 
	L 129.756, 237.048 
	L 133.512, 235.772 
	L 137.197, 234.284 
	L 140.811, 232.442 
	L 144.213, 230.457 
	L 147.472, 228.119 
" />
<path d="M 147.472, 228.119 
	L 150.591, 225.639 
	L 153.496, 222.946 
	L 156.260, 220.040 
	L 158.740, 216.922 
	L 161.008, 213.591 
	L 163.063, 210.190 
	L 164.835, 206.646 
	L 166.394, 202.961 
	L 167.598, 199.135 
	L 168.591, 195.308 
" />
<path d="M 168.591, 195.308 
	L 169.299, 191.339 
	L 169.724, 187.371 
	L 169.866, 183.402 
	L 169.724, 179.434 
	L 169.299, 175.465 
	L 168.591, 171.497 
	L 167.598, 167.670 
	L 166.394, 163.843 
	L 164.835, 160.158 
	L 163.063, 156.615 
" />
<path d="M 163.063, 156.615 
	L 161.008, 153.213 
	L 158.740, 149.883 
	L 156.260, 146.765 
	L 153.496, 143.859 
	L 150.591, 141.166 
	L 147.472, 138.686 
	L 144.213, 136.347 
	L 140.811, 134.363 
	L 137.197, 132.520 
	L 133.512, 131.032 
" />
<path d="M 133.512, 131.032 
	L 129.756, 129.757 
	L 125.858, 128.765 
	L 121.961, 128.056 
	L 117.992, 127.631 
	L 113.953, 127.489 
	L 109.984, 127.631 
" />
<path d="M 111.261, 155.551 
	L 111.260, 155.552 
	L 108.567, 155.977 
	L 105.874, 156.686 
	L 103.323, 157.607 
	L 100.843, 158.741 
	L 98.433, 160.158 
	L 96.236, 161.788 
	L 94.252, 163.631 
	L 92.409, 165.686 
	L 90.780, 167.883 
" />
<path d="M 90.780, 167.883 
	L 89.362, 170.221 
	L 88.157, 172.702 
	L 87.236, 175.324 
	L 86.598, 177.946 
	L 86.173, 180.639 
	L 86.032, 183.402 
	L 86.173, 186.166 
	L 86.598, 188.859 
	L 87.236, 191.481 
	L 88.157, 194.103 
	L 89.362, 196.583 
" />
<path d="M 89.362, 196.583 
	L 90.780, 198.922 
	L 92.409, 201.119 
	L 94.252, 203.174 
	L 96.236, 205.016 
	L 98.433, 206.646 
	L 100.843, 208.064 
	L 103.323, 209.198 
	L 105.874, 210.119 
	L 108.567, 210.828 
	L 111.260, 211.253 
" />
<path d="M 111.260, 211.253 
	L 113.953, 211.324 
	L 116.717, 211.253 
	L 119.409, 210.828 
	L 122.102, 210.119 
	L 124.654, 209.198 
	L 127.134, 208.064 
	L 129.543, 206.646 
	L 131.740, 205.016 
	L 133.724, 203.174 
	L 135.567, 201.119 
" />
<path d="M 135.567, 201.119 
	L 137.197, 198.922 
	L 138.614, 196.583 
	L 139.819, 194.103 
	L 140.740, 191.481 
	L 141.378, 188.859 
	L 141.803, 186.166 
	L 141.945, 183.402 
	L 141.803, 180.639 
	L 141.378, 177.946 
	L 140.740, 175.324 
" />
<path d="M 140.740, 175.324 
	L 139.819, 172.702 
	L 138.614, 170.221 
	L 137.197, 167.883 
	L 135.567, 165.686 
	L 133.724, 163.631 
	L 131.740, 161.788 
	L 129.543, 160.158 
	L 127.134, 158.741 
	L 124.654, 157.607 
	L 122.102, 156.686 
" />
<path d="M 122.102, 156.686 
	L 119.409, 155.977 
	L 116.717, 155.552 
	L 114.024, 155.481 
	L 111.260, 155.552 
" />
<path d="M 111.331, 176.953 
	L 111.331, 176.953 
	L 110.126, 177.591 
	L 109.063, 178.442 
	L 108.213, 179.505 
	L 107.504, 180.709 
	L 107.150, 182.056 
	L 107.008, 183.402 
	L 107.150, 184.749 
	L 107.504, 186.095 
	L 108.213, 187.300 
" />
<path d="M 108.213, 187.300 
	L 109.063, 188.363 
	L 110.126, 189.213 
	L 111.331, 189.851 
	L 112.606, 190.276 
	L 113.953, 190.418 
	L 115.370, 190.276 
	L 116.646, 189.851 
	L 117.850, 189.213 
	L 118.913, 188.363 
	L 119.764, 187.300 
" />
<path d="M 119.764, 187.300 
	L 120.472, 186.095 
	L 120.827, 184.749 
	L 120.969, 183.402 
	L 120.827, 182.056 
	L 120.472, 180.709 
	L 119.764, 179.505 
	L 118.913, 178.442 
	L 117.850, 177.591 
	L 116.646, 176.953 
	L 115.370, 176.528 
" />
<path d="M 115.370, 176.528 
	L 114.024, 176.387 
	L 112.606, 176.528 
	L 111.331, 176.953 
" />
<path d="M 53.859, 171.921 
	L 53.858, 171.922 
	L 55.488, 166.961 
" />
<path d="M 50.670, 171.142 
	L 50.669, 171.142 
	L 46.772, 171.142 
" />
<path d="M 48.473, 171.142 
	L 48.472, 171.142 
	L 48.472, 162.426 
" />
<path d="M 48.969, 162.000 
	L 48.969, 162.001 
	L 48.969, 171.142 
" />
<path d="M 48.969, 162.000 
	L 48.969, 162.001 
	L 47.622, 163.276 
	L 46.772, 163.772 
" />
<path d="M 0.001, 183.402 
	L 0.000, 183.402 
	L 227.976, 183.402 
" />
<path d="M 227.977, 267.236 
	L 227.976, 267.237 
	L 0.000, 267.237 
" />
<path d="M 9.142, 275.102 
	L 9.142, 275.103 
	L 9.142, 0.001 
" />
<path d="M 114.024, 0.000 
	L 114.024, 0.001 
	L 114.024, 275.103 
" />
<path d="M 218.835, 275.102 
	L 218.835, 275.103 
	L 218.835, 0.001 
" />
<path d="M 62.505, 59.386 
	L 62.504, 59.387 
	L 62.008, 60.733 
	L 61.157, 59.812 
	L 59.882, 59.387 
	L 58.961, 59.387 
	L 57.685, 59.812 
	L 56.764, 60.733 
	L 56.339, 61.583 
	L 55.913, 62.859 
	L 55.913, 65.056 
	L 56.339, 66.402 
" />
<path d="M 56.339, 66.402 
	L 56.764, 67.253 
	L 57.685, 68.103 
	L 58.961, 68.528 
	L 59.882, 68.528 
	L 61.157, 68.103 
	L 62.008, 67.253 
	L 62.504, 66.402 
" />
<path d="M 62.505, 62.008 
	L 62.504, 62.009 
	L 62.504, 59.387 
" />
<path d="M 62.009, 60.732 
	L 62.008, 60.733 
	L 62.504, 62.009 
" />
<path d="M 58.961, 59.386 
	L 58.961, 59.387 
	L 58.110, 59.812 
	L 57.260, 60.733 
	L 56.764, 61.583 
	L 56.339, 62.859 
	L 56.339, 65.056 
	L 56.764, 66.402 
	L 57.260, 67.253 
	L 58.110, 68.103 
	L 58.961, 68.528 
" />
</g><g style="stroke:rgb(255,255,255); fill:none; stroke-width:0.100mm" >
</g>
</svg>
