<?xml version="1.0" encoding="UTF-8" standalone="no" ?>
<svg width="100%" height="100%" viewBox="0 0 248.032 395.646" xmlns="http://www.w3.org/2000/svg"><g>
</g><g style="stroke:rgb(0,0,0); fill:none; stroke-width:1.000mm" >
</g><g style="stroke:rgb(0,0,0); fill:none; stroke-width:0.100mm" >
<path d="M 19.135, 376.299 
	L 19.134, 376.300 
	L 1.772, 376.300 
" />
<path d="M 8.009, 376.299 
	L 8.008, 376.300 
	L 7.937, 375.946 
	L 7.937, 364.324 
	L 7.866, 364.324 
	L 7.866, 375.520 
	L 7.795, 375.095 
	L 7.795, 364.324 
	L 7.724, 364.324 
	L 7.724, 374.670 
	L 7.654, 374.245 
	L 7.654, 364.324 
" />
<path d="M 7.654, 364.324 
	L 7.583, 364.324 
	L 7.583, 373.891 
	L 7.512, 373.465 
	L 7.512, 364.324 
	L 7.441, 364.324 
	L 7.441, 373.040 
	L 7.370, 372.615 
	L 7.370, 364.324 
	L 7.299, 364.324 
	L 7.299, 372.190 
	L 7.228, 371.765 
" />
<path d="M 7.228, 371.765 
	L 7.228, 364.324 
	L 7.157, 364.324 
	L 7.157, 371.410 
	L 7.087, 370.985 
	L 7.087, 364.324 
	L 7.016, 364.324 
	L 7.016, 370.560 
	L 6.945, 370.135 
	L 6.945, 364.324 
	L 6.874, 364.324 
	L 6.874, 369.709 
" />
<path d="M 6.874, 369.709 
	L 6.803, 369.284 
	L 6.803, 364.324 
	L 6.732, 364.324 
	L 6.732, 368.930 
	L 6.661, 368.505 
	L 6.661, 364.324 
	L 6.591, 364.324 
	L 6.591, 368.079 
	L 6.520, 367.654 
	L 6.520, 364.324 
	L 6.449, 364.324 
" />
<path d="M 6.449, 364.324 
	L 6.449, 367.229 
	L 6.378, 366.804 
	L 6.378, 364.324 
	L 6.307, 364.324 
	L 6.307, 366.450 
	L 6.236, 366.024 
	L 6.236, 364.324 
	L 6.165, 364.324 
	L 6.165, 365.599 
	L 6.094, 365.174 
	L 6.094, 364.324 
" />
<path d="M 6.094, 364.324 
	L 6.024, 364.324 
	L 6.024, 364.749 
" />
<path d="M 5.953, 364.323 
	L 5.953, 364.324 
	L 9.992, 364.324 
	L 8.008, 376.300 
	L 5.953, 364.324 
" />
<path d="M 8.009, 364.323 
	L 8.008, 364.324 
	L 8.008, 352.489 
" />
<path d="M 8.009, 364.323 
	L 8.008, 364.324 
	L 8.008, 376.300 
" />
<path d="M 8.079, 375.874 
	L 8.079, 375.875 
	L 8.079, 364.324 
	L 8.008, 364.324 
" />
<path d="M 8.150, 364.323 
	L 8.150, 364.324 
	L 8.150, 375.450 
	L 8.079, 375.875 
" />
<path d="M 8.221, 375.024 
	L 8.220, 375.024 
	L 8.220, 364.324 
	L 8.150, 364.324 
" />
<path d="M 8.292, 364.323 
	L 8.291, 364.324 
	L 8.291, 374.599 
	L 8.220, 375.024 
" />
<path d="M 8.363, 374.173 
	L 8.362, 374.174 
	L 8.362, 364.324 
	L 8.291, 364.324 
" />
<path d="M 8.434, 364.323 
	L 8.433, 364.324 
	L 8.433, 373.749 
	L 8.362, 374.174 
" />
<path d="M 8.505, 373.323 
	L 8.504, 373.324 
	L 8.504, 364.324 
	L 8.433, 364.324 
" />
<path d="M 8.576, 364.323 
	L 8.575, 364.324 
	L 8.575, 372.898 
	L 8.504, 373.324 
" />
<path d="M 8.646, 372.472 
	L 8.646, 372.473 
	L 8.646, 364.324 
	L 8.575, 364.324 
" />
<path d="M 8.717, 364.323 
	L 8.717, 364.324 
	L 8.717, 372.048 
	L 8.646, 372.473 
" />
<path d="M 8.788, 371.622 
	L 8.787, 371.623 
	L 8.787, 364.324 
	L 8.717, 364.324 
" />
<path d="M 8.859, 364.323 
	L 8.858, 364.324 
	L 8.858, 371.198 
	L 8.787, 371.623 
" />
<path d="M 8.930, 370.772 
	L 8.929, 370.772 
	L 8.929, 364.324 
	L 8.858, 364.324 
" />
<path d="M 9.001, 364.323 
	L 9.000, 364.324 
	L 9.000, 370.347 
	L 8.929, 370.772 
" />
<path d="M 9.072, 369.921 
	L 9.071, 369.922 
	L 9.071, 364.324 
	L 9.000, 364.324 
" />
<path d="M 9.142, 364.323 
	L 9.142, 364.324 
	L 9.142, 369.497 
	L 9.071, 369.922 
" />
<path d="M 9.213, 369.071 
	L 9.213, 369.072 
	L 9.213, 364.324 
	L 9.142, 364.324 
" />
<path d="M 9.284, 364.323 
	L 9.283, 364.324 
	L 9.283, 368.646 
	L 9.213, 369.072 
" />
<path d="M 9.355, 368.221 
	L 9.354, 368.221 
	L 9.354, 364.324 
	L 9.283, 364.324 
" />
<path d="M 9.426, 364.323 
	L 9.425, 364.324 
	L 9.425, 367.796 
	L 9.354, 368.221 
" />
<path d="M 9.497, 367.370 
	L 9.496, 367.371 
	L 9.496, 364.324 
	L 9.425, 364.324 
" />
<path d="M 9.568, 364.323 
	L 9.567, 364.324 
	L 9.567, 366.946 
	L 9.496, 367.371 
" />
<path d="M 9.639, 366.520 
	L 9.638, 366.520 
	L 9.638, 364.324 
	L 9.567, 364.324 
" />
<path d="M 9.709, 364.323 
	L 9.709, 364.324 
	L 9.709, 366.095 
	L 9.638, 366.520 
" />
<path d="M 9.780, 365.669 
	L 9.780, 365.670 
	L 9.780, 364.324 
	L 9.709, 364.324 
" />
<path d="M 9.851, 364.323 
	L 9.850, 364.324 
	L 9.850, 365.245 
	L 9.780, 365.670 
" />
<path d="M 9.922, 364.819 
	L 9.921, 364.820 
	L 9.921, 364.324 
	L 9.850, 364.324 
" />
<path d="M 8.009, 316.347 
	L 8.008, 316.347 
	L 8.008, 304.513 
	L 7.937, 304.513 
	L 7.937, 292.891 
	L 7.866, 293.316 
	L 7.866, 304.513 
	L 7.795, 304.513 
	L 7.795, 293.741 
	L 7.724, 294.166 
	L 7.724, 304.513 
	L 7.654, 304.513 
" />
<path d="M 7.654, 304.513 
	L 7.654, 294.591 
	L 7.583, 295.016 
	L 7.583, 304.513 
	L 7.512, 304.513 
	L 7.512, 295.442 
	L 7.441, 295.796 
	L 7.441, 304.513 
	L 7.370, 304.513 
	L 7.370, 296.221 
	L 7.299, 296.646 
	L 7.299, 304.513 
" />
<path d="M 7.299, 304.513 
	L 7.228, 304.513 
	L 7.228, 297.072 
	L 7.157, 297.497 
	L 7.157, 304.513 
	L 7.087, 304.513 
	L 7.087, 297.922 
	L 7.016, 298.347 
	L 7.016, 304.513 
	L 6.945, 304.513 
	L 6.945, 298.702 
	L 6.874, 299.127 
" />
<path d="M 6.874, 299.127 
	L 6.874, 304.513 
	L 6.803, 304.513 
	L 6.803, 299.552 
	L 6.732, 299.977 
	L 6.732, 304.513 
	L 6.661, 304.513 
	L 6.661, 300.402 
	L 6.591, 300.828 
	L 6.591, 304.513 
	L 6.520, 304.513 
	L 6.520, 301.253 
" />
<path d="M 6.520, 301.253 
	L 6.449, 301.607 
	L 6.449, 304.513 
	L 6.378, 304.513 
	L 6.378, 302.032 
	L 6.307, 302.457 
	L 6.307, 304.513 
	L 6.236, 304.513 
	L 6.236, 302.883 
	L 6.165, 303.308 
	L 6.165, 304.513 
	L 6.094, 304.513 
" />
<path d="M 6.094, 304.513 
	L 6.094, 303.733 
	L 6.024, 304.158 
	L 6.024, 304.513 
" />
<path d="M 5.953, 304.512 
	L 5.953, 304.513 
	L 9.992, 304.513 
	L 8.008, 292.465 
	L 5.953, 304.513 
" />
<path d="M 8.009, 304.512 
	L 8.008, 304.513 
	L 8.008, 292.465 
" />
<path d="M 8.079, 292.961 
	L 8.079, 292.961 
	L 8.079, 304.513 
	L 8.150, 304.513 
	L 8.150, 293.387 
	L 8.220, 293.812 
	L 8.220, 304.513 
	L 8.291, 304.513 
	L 8.291, 294.237 
	L 8.362, 294.662 
	L 8.362, 304.513 
	L 8.433, 304.513 
" />
<path d="M 8.433, 304.513 
	L 8.433, 295.087 
	L 8.504, 295.513 
	L 8.504, 304.513 
	L 8.575, 304.513 
	L 8.575, 295.938 
	L 8.646, 296.363 
	L 8.646, 304.513 
	L 8.717, 304.513 
	L 8.717, 296.788 
	L 8.787, 297.213 
	L 8.787, 304.513 
" />
<path d="M 8.787, 304.513 
	L 8.858, 304.513 
	L 8.858, 297.639 
	L 8.929, 298.064 
	L 8.929, 304.513 
	L 9.000, 304.513 
	L 9.000, 298.560 
	L 9.071, 298.985 
	L 9.071, 304.513 
	L 9.142, 304.513 
	L 9.142, 299.410 
	L 9.213, 299.835 
" />
<path d="M 9.213, 299.835 
	L 9.213, 304.513 
	L 9.283, 304.513 
	L 9.283, 300.261 
	L 9.354, 300.686 
	L 9.354, 304.513 
	L 9.425, 304.513 
	L 9.425, 301.111 
	L 9.496, 301.536 
	L 9.496, 304.513 
	L 9.567, 304.513 
	L 9.567, 301.961 
" />
<path d="M 9.567, 301.961 
	L 9.638, 302.387 
	L 9.638, 304.513 
	L 9.709, 304.513 
	L 9.709, 302.812 
	L 9.780, 303.237 
	L 9.780, 304.513 
	L 9.850, 304.513 
	L 9.850, 303.662 
	L 9.921, 304.087 
	L 9.921, 304.513 
" />
<path d="M 8.292, 290.764 
	L 8.291, 290.765 
	L 8.291, 280.418 
	L 8.362, 280.418 
	L 8.362, 290.339 
	L 8.433, 289.914 
	L 8.433, 280.418 
	L 8.504, 280.418 
	L 8.504, 289.489 
	L 8.575, 289.064 
	L 8.575, 280.418 
	L 8.646, 280.418 
" />
<path d="M 8.646, 280.418 
	L 8.646, 288.639 
	L 8.717, 288.213 
	L 8.717, 280.418 
	L 8.787, 280.418 
	L 8.787, 287.788 
	L 8.858, 287.363 
	L 8.858, 280.418 
	L 8.929, 280.418 
	L 8.929, 286.938 
	L 9.000, 286.442 
	L 9.000, 280.418 
" />
<path d="M 9.000, 280.418 
	L 9.071, 280.418 
	L 9.071, 286.016 
	L 9.142, 285.591 
	L 9.142, 280.418 
	L 9.213, 280.418 
	L 9.213, 285.166 
	L 9.283, 284.741 
	L 9.283, 280.418 
	L 9.354, 280.418 
	L 9.354, 284.316 
	L 9.425, 283.890 
" />
<path d="M 9.425, 283.890 
	L 9.425, 280.418 
	L 9.496, 280.418 
	L 9.496, 283.465 
	L 9.567, 283.040 
	L 9.567, 280.418 
	L 9.638, 280.418 
	L 9.638, 282.615 
	L 9.709, 282.190 
	L 9.709, 280.418 
	L 9.780, 280.418 
	L 9.780, 281.765 
" />
<path d="M 9.780, 281.765 
	L 9.850, 281.339 
	L 9.850, 280.418 
	L 9.921, 280.418 
	L 9.921, 280.914 
" />
<path d="M 8.221, 280.417 
	L 8.220, 280.418 
	L 8.150, 280.418 
	L 8.150, 291.615 
	L 8.079, 292.040 
	L 8.079, 280.418 
	L 8.008, 280.418 
	L 8.008, 292.465 
	L 7.937, 292.111 
	L 7.937, 280.418 
	L 7.866, 280.418 
	L 7.866, 291.686 
" />
<path d="M 7.866, 291.686 
	L 7.795, 291.261 
	L 7.795, 280.418 
	L 7.724, 280.418 
	L 7.724, 290.835 
	L 7.654, 290.410 
	L 7.654, 280.418 
	L 7.583, 280.418 
	L 7.583, 289.985 
	L 7.512, 289.560 
	L 7.512, 280.418 
	L 7.441, 280.418 
" />
<path d="M 7.441, 280.418 
	L 7.441, 289.205 
	L 7.370, 288.780 
	L 7.370, 280.418 
	L 7.299, 280.418 
	L 7.299, 288.355 
	L 7.228, 287.930 
	L 7.228, 280.418 
	L 7.157, 280.418 
	L 7.157, 287.505 
	L 7.087, 287.079 
	L 7.087, 280.418 
" />
<path d="M 7.087, 280.418 
	L 7.016, 280.418 
	L 7.016, 286.654 
	L 6.945, 286.300 
	L 6.945, 280.418 
	L 6.874, 280.418 
	L 6.874, 285.875 
	L 6.803, 285.450 
	L 6.803, 280.418 
	L 6.732, 280.418 
	L 6.732, 285.024 
	L 6.661, 284.599 
" />
<path d="M 6.661, 284.599 
	L 6.661, 280.418 
	L 6.591, 280.418 
	L 6.591, 284.174 
	L 6.520, 283.749 
	L 6.520, 280.418 
	L 6.449, 280.418 
	L 6.449, 283.394 
	L 6.378, 282.969 
	L 6.378, 280.418 
	L 6.307, 280.418 
	L 6.307, 282.544 
" />
<path d="M 6.307, 282.544 
	L 6.236, 282.119 
	L 6.236, 280.418 
	L 6.165, 280.418 
	L 6.165, 281.694 
	L 6.094, 281.268 
	L 6.094, 280.418 
	L 6.024, 280.418 
	L 6.024, 280.843 
" />
<path d="M 5.953, 280.417 
	L 5.953, 280.418 
	L 9.992, 280.418 
	L 8.008, 292.465 
	L 5.953, 280.418 
" />
<path d="M 8.009, 280.417 
	L 8.008, 280.418 
	L 8.008, 268.583 
" />
<path d="M 8.221, 280.417 
	L 8.220, 280.418 
	L 8.220, 291.190 
	L 8.291, 290.765 
" />
<path d="M 1.772, 292.465 
	L 1.772, 292.465 
	L 19.134, 292.465 
	L 1.772, 292.465 
" />
<path d="M 5.387, 328.961 
	L 5.386, 328.961 
	L 4.252, 330.095 
	L 3.685, 331.229 
	L 3.118, 333.568 
	L 3.118, 336.969 
	L 3.685, 338.741 
	L 4.819, 339.875 
	L 6.591, 340.442 
	L 7.724, 340.442 
	L 9.425, 339.875 
	L 10.559, 338.741 
" />
<path d="M 10.559, 338.741 
	L 11.126, 336.969 
	L 11.126, 336.402 
	L 10.559, 334.702 
	L 9.425, 333.568 
	L 7.724, 333.001 
	L 7.157, 333.001 
	L 5.386, 333.568 
	L 4.252, 334.702 
	L 3.685, 336.402 
" />
<path d="M 3.686, 336.969 
	L 3.685, 336.969 
	L 4.252, 338.741 
	L 5.386, 339.875 
	L 6.591, 340.442 
" />
<path d="M 7.725, 340.441 
	L 7.724, 340.442 
	L 8.858, 339.875 
	L 9.992, 338.741 
	L 10.559, 336.969 
	L 10.559, 336.402 
	L 9.992, 334.702 
	L 8.858, 333.568 
	L 7.724, 333.001 
" />
<path d="M 9.426, 330.661 
	L 9.425, 330.662 
	L 9.992, 331.229 
	L 10.559, 330.662 
	L 10.559, 330.095 
	L 9.992, 328.961 
	L 8.858, 328.394 
	L 7.157, 328.394 
	L 5.386, 328.961 
" />
<path d="M 5.953, 328.961 
	L 5.953, 328.961 
	L 4.819, 330.095 
	L 4.252, 331.229 
	L 3.685, 333.568 
	L 3.685, 336.969 
" />
<path d="M 5.953, 328.961 
	L 5.953, 328.961 
	L 7.157, 328.394 
" />
<path d="M 9.993, 330.095 
	L 9.992, 330.095 
	L 9.425, 330.662 
" />
<path d="M 15.733, 331.228 
	L 15.732, 331.229 
	L 15.165, 331.796 
" />
<path d="M 15.733, 331.228 
	L 15.732, 331.229 
	L 16.299, 330.095 
	L 16.299, 328.961 
	L 15.732, 328.394 
	L 15.165, 328.961 
	L 15.732, 329.528 
" />
<path d="M 8.009, 232.512 
	L 8.008, 232.513 
	L 8.008, 220.678 
	L 7.937, 220.678 
	L 7.937, 209.056 
	L 7.866, 209.481 
	L 7.866, 220.678 
	L 7.795, 220.678 
	L 7.795, 209.906 
	L 7.724, 210.331 
	L 7.724, 220.678 
	L 7.654, 220.678 
" />
<path d="M 7.654, 220.678 
	L 7.654, 210.757 
	L 7.583, 211.182 
	L 7.583, 220.678 
	L 7.512, 220.678 
	L 7.512, 211.607 
	L 7.441, 211.961 
	L 7.441, 220.678 
	L 7.370, 220.678 
	L 7.370, 212.387 
	L 7.299, 212.812 
	L 7.299, 220.678 
" />
<path d="M 7.299, 220.678 
	L 7.228, 220.678 
	L 7.228, 213.237 
	L 7.157, 213.662 
	L 7.157, 220.678 
	L 7.087, 220.678 
	L 7.087, 214.087 
	L 7.016, 214.513 
	L 7.016, 220.678 
	L 6.945, 220.678 
	L 6.945, 214.867 
	L 6.874, 215.292 
" />
<path d="M 6.874, 215.292 
	L 6.874, 220.678 
	L 6.803, 220.678 
	L 6.803, 215.717 
	L 6.732, 216.142 
	L 6.732, 220.678 
	L 6.661, 220.678 
	L 6.661, 216.568 
	L 6.591, 216.993 
	L 6.591, 220.678 
	L 6.520, 220.678 
	L 6.520, 217.418 
" />
<path d="M 6.520, 217.418 
	L 6.449, 217.772 
	L 6.449, 220.678 
	L 6.378, 220.678 
	L 6.378, 218.198 
	L 6.307, 218.623 
	L 6.307, 220.678 
	L 6.236, 220.678 
	L 6.236, 219.048 
	L 6.165, 219.473 
	L 6.165, 220.678 
	L 6.094, 220.678 
" />
<path d="M 6.094, 220.678 
	L 6.094, 219.898 
	L 6.024, 220.324 
	L 6.024, 220.678 
" />
<path d="M 5.953, 220.677 
	L 5.953, 220.678 
	L 9.992, 220.678 
	L 8.008, 208.631 
	L 5.953, 220.678 
" />
<path d="M 8.009, 220.677 
	L 8.008, 220.678 
	L 8.008, 208.631 
" />
<path d="M 8.079, 209.126 
	L 8.079, 209.127 
	L 8.079, 220.678 
	L 8.150, 220.678 
	L 8.150, 209.552 
	L 8.220, 209.977 
	L 8.220, 220.678 
	L 8.291, 220.678 
	L 8.291, 210.402 
	L 8.362, 210.827 
	L 8.362, 220.678 
	L 8.433, 220.678 
" />
<path d="M 8.433, 220.678 
	L 8.433, 211.253 
	L 8.504, 211.678 
	L 8.504, 220.678 
	L 8.575, 220.678 
	L 8.575, 212.103 
	L 8.646, 212.528 
	L 8.646, 220.678 
	L 8.717, 220.678 
	L 8.717, 212.953 
	L 8.787, 213.379 
	L 8.787, 220.678 
" />
<path d="M 8.787, 220.678 
	L 8.858, 220.678 
	L 8.858, 213.804 
	L 8.929, 214.229 
	L 8.929, 220.678 
	L 9.000, 220.678 
	L 9.000, 214.725 
	L 9.071, 215.150 
	L 9.071, 220.678 
	L 9.142, 220.678 
	L 9.142, 215.576 
	L 9.213, 216.001 
" />
<path d="M 9.213, 216.001 
	L 9.213, 220.678 
	L 9.283, 220.678 
	L 9.283, 216.426 
	L 9.354, 216.851 
	L 9.354, 220.678 
	L 9.425, 220.678 
	L 9.425, 217.276 
	L 9.496, 217.702 
	L 9.496, 220.678 
	L 9.567, 220.678 
	L 9.567, 218.127 
" />
<path d="M 9.567, 218.127 
	L 9.638, 218.552 
	L 9.638, 220.678 
	L 9.709, 220.678 
	L 9.709, 218.977 
	L 9.780, 219.402 
	L 9.780, 220.678 
	L 9.850, 220.678 
	L 9.850, 219.827 
	L 9.921, 220.253 
	L 9.921, 220.678 
" />
<path d="M 8.292, 206.929 
	L 8.291, 206.930 
	L 8.291, 196.583 
	L 8.362, 196.583 
	L 8.362, 206.505 
	L 8.433, 206.079 
	L 8.433, 196.583 
	L 8.504, 196.583 
	L 8.504, 205.654 
	L 8.575, 205.229 
	L 8.575, 196.583 
	L 8.646, 196.583 
" />
<path d="M 8.646, 196.583 
	L 8.646, 204.804 
	L 8.717, 204.379 
	L 8.717, 196.583 
	L 8.787, 196.583 
	L 8.787, 203.953 
	L 8.858, 203.528 
	L 8.858, 196.583 
	L 8.929, 196.583 
	L 8.929, 203.103 
	L 9.000, 202.607 
	L 9.000, 196.583 
" />
<path d="M 9.000, 196.583 
	L 9.071, 196.583 
	L 9.071, 202.182 
	L 9.142, 201.757 
	L 9.142, 196.583 
	L 9.213, 196.583 
	L 9.213, 201.331 
	L 9.283, 200.906 
	L 9.283, 196.583 
	L 9.354, 196.583 
	L 9.354, 200.481 
	L 9.425, 200.056 
" />
<path d="M 9.425, 200.056 
	L 9.425, 196.583 
	L 9.496, 196.583 
	L 9.496, 199.631 
	L 9.567, 199.205 
	L 9.567, 196.583 
	L 9.638, 196.583 
	L 9.638, 198.780 
	L 9.709, 198.355 
	L 9.709, 196.583 
	L 9.780, 196.583 
	L 9.780, 197.930 
" />
<path d="M 9.780, 197.930 
	L 9.850, 197.505 
	L 9.850, 196.583 
	L 9.921, 196.583 
	L 9.921, 197.079 
" />
<path d="M 8.221, 196.583 
	L 8.220, 196.583 
	L 8.150, 196.583 
	L 8.150, 207.780 
	L 8.079, 208.205 
	L 8.079, 196.583 
	L 8.008, 196.583 
	L 8.008, 208.631 
	L 7.937, 208.276 
	L 7.937, 196.583 
	L 7.866, 196.583 
	L 7.866, 207.851 
" />
<path d="M 7.866, 207.851 
	L 7.795, 207.426 
	L 7.795, 196.583 
	L 7.724, 196.583 
	L 7.724, 207.001 
	L 7.654, 206.576 
	L 7.654, 196.583 
	L 7.583, 196.583 
	L 7.583, 206.150 
	L 7.512, 205.725 
	L 7.512, 196.583 
	L 7.441, 196.583 
" />
<path d="M 7.441, 196.583 
	L 7.441, 205.371 
	L 7.370, 204.946 
	L 7.370, 196.583 
	L 7.299, 196.583 
	L 7.299, 204.520 
	L 7.228, 204.095 
	L 7.228, 196.583 
	L 7.157, 196.583 
	L 7.157, 203.670 
	L 7.087, 203.245 
	L 7.087, 196.583 
" />
<path d="M 7.087, 196.583 
	L 7.016, 196.583 
	L 7.016, 202.820 
	L 6.945, 202.465 
	L 6.945, 196.583 
	L 6.874, 196.583 
	L 6.874, 202.040 
	L 6.803, 201.615 
	L 6.803, 196.583 
	L 6.732, 196.583 
	L 6.732, 201.190 
	L 6.661, 200.765 
" />
<path d="M 6.661, 200.765 
	L 6.661, 196.583 
	L 6.591, 196.583 
	L 6.591, 200.339 
	L 6.520, 199.914 
	L 6.520, 196.583 
	L 6.449, 196.583 
	L 6.449, 199.560 
	L 6.378, 199.135 
	L 6.378, 196.583 
	L 6.307, 196.583 
	L 6.307, 198.709 
" />
<path d="M 6.307, 198.709 
	L 6.236, 198.284 
	L 6.236, 196.583 
	L 6.165, 196.583 
	L 6.165, 197.859 
	L 6.094, 197.434 
	L 6.094, 196.583 
	L 6.024, 196.583 
	L 6.024, 197.009 
" />
<path d="M 5.953, 196.583 
	L 5.953, 196.583 
	L 9.992, 196.583 
	L 8.008, 208.631 
	L 5.953, 196.583 
" />
<path d="M 8.009, 196.583 
	L 8.008, 196.583 
	L 8.008, 121.890 
" />
<path d="M 8.009, 85.748 
	L 8.008, 85.749 
	L 8.008, 11.056 
" />
<path d="M 8.292, 11.055 
	L 8.291, 11.056 
	L 8.291, 0.780 
	L 8.362, 1.205 
	L 8.362, 11.056 
	L 8.433, 11.056 
	L 8.433, 1.631 
	L 8.504, 2.056 
	L 8.504, 11.056 
	L 8.575, 11.056 
	L 8.575, 2.481 
	L 8.646, 2.906 
	L 8.646, 11.056 
" />
<path d="M 8.646, 11.056 
	L 8.717, 11.056 
	L 8.717, 3.331 
	L 8.787, 3.757 
	L 8.787, 11.056 
	L 8.858, 11.056 
	L 8.858, 4.182 
	L 8.929, 4.607 
	L 8.929, 11.056 
	L 9.000, 11.056 
	L 9.000, 5.103 
	L 9.071, 5.528 
	L 9.071, 11.056 
" />
<path d="M 9.071, 11.056 
	L 9.142, 11.056 
	L 9.142, 5.953 
	L 9.213, 6.379 
	L 9.213, 11.056 
	L 9.283, 11.056 
	L 9.283, 6.804 
	L 9.354, 7.229 
	L 9.354, 11.056 
	L 9.425, 11.056 
	L 9.425, 7.654 
	L 9.496, 8.079 
	L 9.496, 11.056 
" />
<path d="M 9.496, 11.056 
	L 9.567, 11.056 
	L 9.567, 8.505 
	L 9.638, 8.930 
	L 9.638, 11.056 
	L 9.709, 11.056 
	L 9.709, 9.355 
	L 9.780, 9.780 
	L 9.780, 11.056 
	L 9.850, 11.056 
	L 9.850, 10.205 
	L 9.921, 10.631 
	L 9.921, 11.056 
" />
<path d="M 9.921, 11.056 
" />
<path d="M 8.292, 11.055 
	L 8.291, 11.056 
	L 8.220, 11.056 
	L 8.220, 0.355 
	L 8.150, -0.070 
	L 8.150, 11.056 
	L 8.079, 11.056 
	L 8.079, -0.495 
" />
<path d="M 7.938, -0.567 
	L 7.937, -0.566 
	L 7.866, -0.141 
	L 7.866, 11.056 
	L 7.795, 11.056 
	L 7.795, 0.284 
	L 7.724, 0.709 
	L 7.724, 11.056 
	L 7.654, 11.056 
	L 7.654, 1.135 
	L 7.583, 1.560 
	L 7.583, 11.056 
	L 7.512, 11.056 
" />
<path d="M 7.512, 11.056 
	L 7.512, 1.985 
	L 7.441, 2.339 
	L 7.441, 11.056 
	L 7.370, 11.056 
	L 7.370, 2.764 
	L 7.299, 3.190 
	L 7.299, 11.056 
	L 7.228, 11.056 
	L 7.228, 3.615 
	L 7.157, 4.040 
	L 7.157, 11.056 
	L 7.087, 11.056 
" />
<path d="M 7.087, 11.056 
	L 7.087, 4.465 
	L 7.016, 4.890 
	L 7.016, 11.056 
	L 6.945, 11.056 
	L 6.945, 5.245 
	L 6.874, 5.670 
	L 6.874, 11.056 
	L 6.803, 11.056 
	L 6.803, 6.095 
	L 6.732, 6.520 
	L 6.732, 11.056 
	L 6.661, 11.056 
" />
<path d="M 6.661, 11.056 
	L 6.661, 6.946 
	L 6.591, 7.371 
	L 6.591, 11.056 
	L 6.520, 11.056 
	L 6.520, 7.796 
	L 6.449, 8.150 
	L 6.449, 11.056 
	L 6.378, 11.056 
	L 6.378, 8.575 
	L 6.307, 9.001 
	L 6.307, 11.056 
	L 6.236, 11.056 
" />
<path d="M 6.236, 11.056 
	L 6.236, 9.426 
	L 6.165, 9.851 
	L 6.165, 11.056 
	L 6.094, 11.056 
	L 6.094, 10.276 
	L 6.024, 10.701 
	L 6.024, 11.056 
" />
<path d="M 5.953, 11.055 
	L 5.953, 11.056 
	L 9.992, 11.056 
	L 8.008, -0.991 
	L 5.953, 11.056 
" />
<path d="M 7.938, 11.055 
	L 7.937, 11.056 
	L 7.937, -0.566 
" />
<path d="M 8.009, -0.992 
	L 8.008, -0.991 
	L 8.008, 11.056 
	L 7.937, 11.056 
" />
<path d="M 1.772, -0.992 
	L 1.772, -0.991 
	L 19.134, -0.991 
" />
<path d="M 20.127, -0.992 
	L 20.126, -0.991 
	L 248.032, -0.991 
" />
<path d="M 238.891, -10.134 
	L 238.890, -10.133 
	L 238.890, 385.513 
" />
<path d="M 248.032, 376.299 
	L 248.032, 376.300 
	L 20.126, 376.300 
" />
<path d="M 29.268, 385.512 
	L 29.268, 385.513 
	L 29.268, -10.133 
" />
<path d="M 134.079, -10.134 
	L 134.079, -10.133 
	L 134.079, 385.513 
" />
<path d="M 217.914, 292.465 
	L 217.913, 292.465 
	L 217.772, 287.576 
	L 217.346, 282.757 
	L 216.638, 277.938 
	L 215.646, 273.119 
	L 214.370, 268.442 
	L 212.882, 263.835 
	L 211.039, 259.300 
	L 208.984, 254.835 
	L 206.717, 250.583 
" />
<path d="M 206.717, 250.583 
	L 204.095, 246.402 
	L 201.331, 242.434 
	L 198.283, 238.607 
	L 195.024, 234.922 
	L 191.622, 231.520 
	L 187.937, 228.261 
	L 184.110, 225.213 
	L 180.142, 222.450 
	L 175.961, 219.898 
	L 171.709, 217.560 
" />
<path d="M 171.709, 217.560 
	L 167.244, 215.505 
	L 162.780, 213.662 
	L 158.102, 212.174 
	L 153.425, 210.898 
	L 148.606, 209.906 
	L 143.787, 209.198 
	L 138.969, 208.772 
	L 134.079, 208.631 
	L 129.189, 208.772 
	L 124.370, 209.198 
" />
<path d="M 124.370, 209.198 
	L 119.480, 209.906 
	L 114.732, 210.898 
	L 110.055, 212.174 
	L 105.378, 213.662 
	L 100.843, 215.505 
	L 96.449, 217.560 
	L 92.126, 219.898 
	L 88.016, 222.450 
	L 83.976, 225.213 
	L 80.150, 228.261 
" />
<path d="M 80.150, 228.261 
	L 76.535, 231.520 
	L 73.063, 234.922 
	L 69.874, 238.607 
	L 66.827, 242.434 
	L 63.992, 246.402 
	L 61.441, 250.583 
	L 59.173, 254.835 
	L 57.047, 259.300 
	L 55.276, 263.835 
	L 53.717, 268.442 
	L 52.512, 273.119 
" />
<path d="M 52.512, 273.119 
	L 51.520, 277.938 
	L 50.811, 282.757 
	L 50.386, 287.576 
	L 50.244, 292.465 
	L 50.386, 297.355 
	L 50.811, 302.245 
	L 51.520, 307.064 
	L 52.512, 311.812 
	L 53.717, 316.560 
	L 55.276, 321.166 
	L 57.047, 325.702 
" />
<path d="M 57.047, 325.702 
	L 59.173, 330.095 
	L 61.441, 334.418 
	L 63.992, 338.528 
	L 66.827, 342.568 
	L 69.874, 346.394 
	L 73.063, 350.009 
	L 76.535, 353.481 
	L 80.150, 356.741 
	L 83.976, 359.717 
	L 88.016, 362.552 
	L 92.126, 365.103 
" />
<path d="M 92.126, 365.103 
	L 96.449, 367.442 
	L 100.843, 369.497 
	L 105.378, 371.268 
	L 110.055, 372.828 
	L 114.732, 374.103 
	L 119.480, 375.095 
	L 124.370, 375.733 
	L 129.189, 376.158 
	L 134.079, 376.300 
	L 138.969, 376.158 
" />
<path d="M 138.969, 376.158 
	L 143.787, 375.733 
	L 148.606, 375.095 
	L 153.425, 374.103 
	L 158.102, 372.828 
	L 162.780, 371.268 
	L 167.244, 369.497 
	L 171.709, 367.442 
	L 175.961, 365.103 
	L 180.142, 362.552 
	L 184.110, 359.717 
" />
<path d="M 184.110, 359.717 
	L 187.937, 356.741 
	L 191.622, 353.481 
	L 195.024, 350.009 
	L 198.283, 346.394 
	L 201.331, 342.568 
	L 204.095, 338.528 
	L 206.717, 334.418 
	L 208.984, 330.095 
	L 211.039, 325.702 
	L 212.882, 321.166 
" />
<path d="M 212.882, 321.166 
	L 214.370, 316.560 
	L 215.646, 311.812 
	L 216.638, 307.064 
	L 217.346, 302.245 
	L 217.772, 297.355 
	L 217.913, 292.465 
" />
<path d="M 189.993, 292.465 
	L 189.992, 292.465 
	L 189.850, 288.497 
	L 189.425, 284.528 
	L 188.717, 280.631 
	L 187.724, 276.733 
	L 186.449, 272.977 
	L 184.890, 269.292 
	L 183.118, 265.678 
	L 181.063, 262.276 
	L 178.795, 259.016 
" />
<path d="M 178.795, 259.016 
	L 176.315, 255.898 
	L 173.622, 252.922 
	L 170.646, 250.229 
	L 167.598, 247.749 
	L 164.268, 245.481 
	L 160.866, 243.426 
	L 157.323, 241.654 
	L 153.638, 240.095 
	L 149.811, 238.820 
	L 145.984, 237.828 
" />
<path d="M 145.984, 237.828 
	L 142.016, 237.119 
	L 138.047, 236.694 
	L 134.079, 236.552 
	L 130.110, 236.694 
	L 126.142, 237.119 
	L 122.173, 237.828 
	L 118.346, 238.820 
	L 114.520, 240.095 
	L 110.835, 241.654 
	L 107.291, 243.426 
" />
<path d="M 107.291, 243.426 
	L 103.819, 245.481 
	L 100.559, 247.749 
	L 97.441, 250.229 
	L 94.535, 252.922 
	L 91.843, 255.898 
	L 89.291, 259.016 
	L 87.024, 262.276 
	L 85.039, 265.678 
	L 83.197, 269.292 
	L 81.709, 272.977 
" />
<path d="M 81.709, 272.977 
	L 80.433, 276.733 
	L 79.441, 280.631 
	L 78.732, 284.528 
	L 78.307, 288.497 
	L 78.165, 292.465 
	L 78.307, 296.505 
	L 78.732, 300.473 
	L 79.441, 304.371 
	L 80.433, 308.198 
	L 81.709, 312.024 
	L 83.197, 315.709 
" />
<path d="M 83.197, 315.709 
	L 85.039, 319.253 
	L 87.024, 322.725 
	L 89.291, 325.985 
	L 91.843, 329.103 
	L 94.535, 332.009 
	L 97.441, 334.702 
	L 100.559, 337.253 
	L 103.819, 339.520 
	L 107.291, 341.576 
	L 110.835, 343.347 
" />
<path d="M 110.835, 343.347 
	L 114.520, 344.835 
	L 118.346, 346.111 
	L 122.173, 347.103 
	L 126.142, 347.812 
	L 130.110, 348.237 
	L 134.079, 348.379 
	L 138.047, 348.237 
	L 142.016, 347.812 
	L 145.984, 347.103 
	L 149.811, 346.111 
" />
<path d="M 149.811, 346.111 
	L 153.638, 344.835 
	L 157.323, 343.347 
	L 160.866, 341.576 
	L 164.268, 339.520 
	L 167.598, 337.253 
	L 170.646, 334.702 
	L 173.622, 332.009 
	L 176.315, 329.103 
	L 178.795, 325.985 
	L 181.063, 322.725 
" />
<path d="M 181.063, 322.725 
	L 183.118, 319.253 
	L 184.890, 315.709 
	L 186.449, 312.024 
	L 187.724, 308.198 
	L 188.717, 304.371 
	L 189.425, 300.473 
	L 189.850, 296.505 
	L 189.992, 292.465 
" />
<path d="M 162.001, 292.465 
	L 162.000, 292.465 
	L 161.858, 289.772 
	L 161.504, 287.009 
	L 160.795, 284.387 
	L 159.874, 281.765 
	L 158.740, 279.284 
	L 157.323, 276.946 
	L 155.693, 274.749 
	L 153.850, 272.694 
	L 151.795, 270.851 
" />
<path d="M 151.795, 270.851 
	L 149.598, 269.221 
	L 147.260, 267.804 
	L 144.780, 266.670 
	L 142.158, 265.749 
	L 139.535, 265.040 
	L 136.843, 264.686 
	L 134.079, 264.544 
	L 131.315, 264.686 
	L 128.622, 265.040 
	L 125.929, 265.749 
" />
<path d="M 125.929, 265.749 
	L 123.378, 266.670 
	L 120.898, 267.804 
	L 118.559, 269.221 
	L 116.362, 270.851 
	L 114.307, 272.694 
	L 112.465, 274.749 
	L 110.835, 276.946 
	L 109.417, 279.284 
	L 108.283, 281.765 
	L 107.291, 284.387 
" />
<path d="M 107.291, 284.387 
	L 106.654, 287.009 
	L 106.228, 289.772 
	L 106.087, 292.465 
	L 106.228, 295.229 
	L 106.654, 297.922 
	L 107.291, 300.615 
	L 108.283, 303.166 
	L 109.417, 305.646 
	L 110.835, 307.985 
	L 112.465, 310.182 
" />
<path d="M 112.465, 310.182 
	L 114.307, 312.237 
	L 116.362, 314.079 
	L 118.559, 315.709 
	L 120.898, 317.127 
	L 123.378, 318.331 
	L 125.929, 319.253 
	L 128.622, 319.891 
	L 131.315, 320.316 
	L 134.079, 320.457 
	L 136.843, 320.316 
" />
<path d="M 136.843, 320.316 
	L 139.535, 319.891 
	L 142.158, 319.253 
	L 144.780, 318.331 
	L 147.260, 317.127 
	L 149.598, 315.709 
	L 151.795, 314.079 
	L 153.850, 312.237 
	L 155.693, 310.182 
	L 157.323, 307.985 
	L 158.740, 305.646 
" />
<path d="M 158.740, 305.646 
	L 159.874, 303.166 
	L 160.795, 300.615 
	L 161.504, 297.922 
	L 161.858, 295.229 
	L 162.000, 292.465 
" />
<path d="M 141.024, 292.465 
	L 141.024, 292.465 
	L 140.953, 291.119 
	L 140.528, 289.843 
	L 139.890, 288.568 
	L 139.039, 287.576 
	L 137.976, 286.654 
	L 136.772, 286.016 
	L 135.425, 285.662 
	L 134.079, 285.520 
	L 132.732, 285.662 
" />
<path d="M 132.732, 285.662 
	L 131.386, 286.016 
	L 130.181, 286.654 
	L 129.118, 287.576 
	L 128.268, 288.568 
	L 127.630, 289.843 
	L 127.205, 291.119 
	L 127.063, 292.465 
	L 127.205, 293.812 
	L 127.630, 295.158 
	L 128.268, 296.363 
" />
<path d="M 128.268, 296.363 
	L 129.118, 297.426 
	L 130.181, 298.276 
	L 131.386, 298.914 
	L 132.732, 299.339 
	L 134.079, 299.481 
	L 135.425, 299.339 
	L 136.772, 298.914 
	L 137.976, 298.276 
	L 139.039, 297.426 
	L 139.890, 296.363 
" />
<path d="M 139.890, 296.363 
	L 140.528, 295.158 
	L 140.953, 293.812 
	L 141.024, 292.465 
" />
<path d="M 139.040, 287.575 
	L 139.039, 287.576 
	L 153.850, 272.694 
" />
<path d="M 149.387, 269.079 
	L 149.386, 269.079 
	L 132.874, 285.591 
" />
<path d="M 127.205, 291.260 
	L 127.205, 291.261 
	L 110.693, 307.772 
" />
<path d="M 114.308, 312.236 
	L 114.307, 312.237 
	L 129.118, 297.426 
" />
<path d="M 107.930, 302.386 
	L 107.929, 302.387 
	L 144.000, 266.387 
" />
<path d="M 164.623, 245.693 
	L 164.622, 245.694 
	L 184.677, 225.639 
" />
<path d="M 179.930, 222.307 
	L 179.929, 222.308 
	L 159.520, 242.717 
" />
<path d="M 169.300, 249.095 
	L 169.299, 249.095 
	L 189.142, 229.253 
" />
<path d="M 193.324, 233.220 
	L 193.323, 233.221 
	L 173.622, 252.922 
" />
<path d="M 153.922, 240.236 
	L 153.921, 240.237 
	L 174.898, 219.261 
" />
<path d="M 137.481, 264.756 
	L 137.480, 264.757 
	L 106.299, 295.938 
" />
<path d="M 106.583, 287.575 
	L 106.583, 287.576 
	L 129.189, 264.969 
" />
<path d="M 147.757, 238.252 
	L 147.756, 238.253 
	L 169.512, 216.497 
" />
<path d="M 248.032, 292.465 
	L 248.032, 292.465 
	L 20.126, 292.465 
" />
<path d="M 9.426, 255.969 
	L 9.425, 255.969 
	L 10.559, 254.835 
	L 11.126, 253.135 
	L 11.126, 252.568 
	L 10.559, 250.867 
	L 9.425, 249.733 
	L 7.724, 249.095 
	L 7.157, 249.095 
	L 5.386, 249.733 
	L 4.252, 250.867 
	L 3.685, 252.568 
" />
<path d="M 3.685, 252.568 
" />
<path d="M 3.686, 253.134 
	L 3.685, 253.135 
	L 4.252, 254.835 
	L 5.386, 255.969 
	L 6.591, 256.607 
	L 7.724, 256.607 
	L 9.425, 255.969 
" />
<path d="M 8.859, 255.969 
	L 8.858, 255.969 
	L 9.992, 254.835 
	L 10.559, 253.135 
	L 10.559, 252.568 
	L 9.992, 250.867 
	L 8.858, 249.733 
	L 7.724, 249.095 
" />
<path d="M 9.426, 246.827 
	L 9.425, 246.828 
	L 9.992, 247.394 
	L 10.559, 246.828 
	L 10.559, 246.261 
	L 9.992, 245.127 
	L 8.858, 244.560 
	L 7.157, 244.560 
	L 5.386, 245.127 
	L 4.252, 246.261 
	L 3.685, 247.394 
	L 3.118, 249.733 
" />
<path d="M 3.118, 249.733 
	L 3.118, 253.135 
	L 3.685, 254.835 
	L 4.819, 255.969 
	L 6.591, 256.607 
" />
<path d="M 7.725, 256.606 
	L 7.724, 256.607 
	L 8.858, 255.969 
" />
<path d="M 3.686, 253.134 
	L 3.685, 253.135 
	L 3.685, 249.733 
	L 4.252, 247.394 
	L 4.819, 246.261 
	L 5.953, 245.127 
	L 7.157, 244.560 
" />
<path d="M 9.993, 246.260 
	L 9.992, 246.261 
	L 9.425, 246.828 
" />
<path d="M 15.733, 247.394 
	L 15.732, 247.394 
	L 15.165, 247.961 
" />
<path d="M 15.733, 247.394 
	L 15.732, 247.394 
	L 16.299, 246.261 
	L 16.299, 245.127 
	L 15.732, 244.560 
	L 15.165, 245.127 
	L 15.732, 245.694 
" />
<path d="M 19.135, 208.630 
	L 19.134, 208.631 
	L 1.772, 208.631 
	L 19.134, 208.631 
" />
<path d="M 8.221, 207.354 
	L 8.220, 207.355 
	L 8.220, 196.583 
" />
<path d="M 8.292, 206.929 
	L 8.291, 206.930 
	L 8.220, 207.355 
" />
<path d="M 60.095, 252.992 
	L 60.094, 252.993 
	L 94.535, 218.552 
" />
<path d="M 108.568, 212.598 
	L 108.567, 212.599 
	L 54.213, 267.024 
" />
<path d="M 51.520, 277.795 
	L 51.520, 277.796 
	L 119.339, 209.906 
" />
<path d="M 128.552, 208.843 
	L 128.551, 208.843 
	L 50.386, 287.009 
" />
<path d="M 50.245, 295.228 
	L 50.244, 295.229 
	L 136.843, 208.702 
" />
<path d="M 144.355, 209.268 
	L 144.354, 209.268 
	L 112.819, 240.804 
" />
<path d="M 124.229, 237.472 
	L 124.228, 237.473 
	L 151.299, 210.402 
" />
<path d="M 157.749, 212.032 
	L 157.748, 212.032 
	L 133.228, 236.623 
" />
<path d="M 140.883, 236.976 
	L 140.882, 236.977 
	L 163.843, 214.087 
" />
<path d="M 177.450, 257.244 
	L 177.449, 257.245 
	L 197.291, 237.402 
" />
<path d="M 200.906, 241.866 
	L 200.906, 241.867 
	L 180.850, 261.922 
" />
<path d="M 183.828, 267.024 
	L 183.827, 267.024 
	L 204.236, 246.615 
" />
<path d="M 207.284, 251.646 
	L 207.283, 251.646 
	L 186.307, 272.623 
" />
<path d="M 188.292, 278.787 
	L 188.291, 278.788 
	L 210.047, 257.032 
" />
<path d="M 212.457, 262.701 
	L 212.457, 262.702 
	L 189.567, 285.662 
" />
<path d="M 189.993, 293.315 
	L 189.992, 293.316 
	L 214.512, 268.796 
" />
<path d="M 216.142, 275.244 
	L 216.142, 275.245 
	L 189.071, 302.316 
" />
<path d="M 185.741, 313.724 
	L 185.740, 313.725 
	L 217.276, 282.190 
" />
<path d="M 217.843, 289.701 
	L 217.843, 289.702 
	L 131.315, 376.300 
" />
<path d="M 123.804, 375.732 
	L 123.803, 375.733 
	L 155.339, 344.198 
" />
<path d="M 143.859, 347.528 
	L 143.858, 347.528 
	L 116.858, 374.528 
" />
<path d="M 110.410, 372.898 
	L 110.409, 372.898 
	L 134.929, 348.379 
" />
<path d="M 127.205, 347.953 
	L 127.205, 347.954 
	L 104.315, 370.843 
" />
<path d="M 98.646, 368.433 
	L 98.646, 368.434 
	L 120.402, 346.678 
" />
<path d="M 114.237, 344.764 
	L 114.236, 344.765 
	L 93.260, 365.741 
" />
<path d="M 88.229, 362.693 
	L 88.228, 362.694 
	L 108.638, 342.284 
" />
<path d="M 103.465, 339.307 
	L 103.465, 339.308 
	L 83.409, 359.292 
" />
<path d="M 78.946, 355.677 
	L 78.945, 355.678 
	L 98.787, 335.835 
" />
<path d="M 94.536, 332.008 
	L 94.535, 332.009 
	L 74.764, 351.780 
" />
<path d="M 70.867, 347.598 
	L 70.866, 347.599 
	L 90.709, 327.757 
" />
<path d="M 87.308, 323.079 
	L 87.307, 323.079 
	L 67.252, 343.135 
" />
<path d="M 63.851, 338.386 
	L 63.850, 338.387 
	L 84.331, 317.906 
" />
<path d="M 81.780, 312.307 
	L 81.780, 312.308 
	L 60.803, 333.284 
" />
<path d="M 58.111, 327.969 
	L 58.110, 327.969 
	L 79.866, 306.142 
" />
<path d="M 78.591, 299.339 
	L 78.591, 299.339 
	L 55.701, 322.229 
" />
<path d="M 53.646, 316.205 
	L 53.646, 316.205 
	L 78.165, 291.615 
" />
<path d="M 79.016, 282.685 
	L 79.016, 282.686 
	L 52.016, 309.686 
" />
<path d="M 50.883, 302.740 
	L 50.882, 302.741 
	L 82.346, 271.276 
" />
<path d="M 118.772, 315.850 
	L 118.772, 315.851 
	L 135.283, 299.339 
" />
<path d="M 140.953, 293.740 
	L 140.953, 293.741 
	L 157.465, 277.158 
" />
<path d="M 160.229, 282.543 
	L 160.228, 282.544 
	L 124.157, 318.615 
" />
<path d="M 130.678, 320.244 
	L 130.677, 320.245 
	L 161.787, 289.064 
" />
<path d="M 161.576, 297.354 
	L 161.575, 297.355 
	L 138.969, 320.032 
" />
<path d="M 139.536, 376.158 
	L 139.535, 376.158 
	L 217.701, 297.993 
" />
<path d="M 216.639, 307.205 
	L 216.638, 307.205 
	L 148.748, 375.024 
" />
<path d="M 159.520, 372.402 
	L 159.520, 372.402 
	L 213.945, 317.977 
" />
<path d="M 207.993, 332.008 
	L 207.992, 332.009 
	L 173.622, 366.450 
" />
<path d="M 17.150, 108.142 
	L 17.150, 108.142 
	L 16.016, 109.276 
	L 14.315, 109.843 
	L 12.543, 109.843 
	L 10.843, 109.276 
	L 10.276, 108.709 
	L 9.709, 107.576 
	L 9.709, 106.938 
	L 10.276, 106.371 
	L 10.843, 106.938 
	L 10.276, 107.576 
" />
<path d="M 10.276, 107.576 
" />
<path d="M 9.709, 103.535 
	L 9.709, 103.536 
	L 10.843, 102.402 
	L 12.543, 101.835 
	L 14.315, 101.835 
	L 16.016, 102.402 
	L 17.150, 103.536 
	L 17.717, 105.237 
	L 17.717, 106.371 
	L 17.150, 108.142 
" />
<path d="M 16.583, 108.142 
	L 16.583, 108.142 
	L 15.449, 109.276 
	L 14.315, 109.843 
" />
<path d="M 16.583, 108.142 
	L 16.583, 108.142 
	L 17.150, 106.371 
	L 17.150, 105.237 
	L 16.583, 103.536 
	L 15.449, 102.402 
	L 14.315, 101.835 
" />
<path d="M 13.749, 98.362 
	L 13.748, 98.363 
	L 16.583, 97.796 
	L 10.843, 97.796 
	L 9.709, 103.536 
" />
<path d="M 10.843, 98.362 
	L 10.843, 98.363 
	L 13.748, 98.363 
" />
<path d="M 21.757, 98.362 
	L 21.756, 98.363 
	L 22.323, 97.796 
	L 22.890, 98.363 
	L 22.890, 99.497 
	L 22.323, 100.631 
	L 21.756, 101.268 
" />
<path d="M 22.324, 98.929 
	L 22.323, 98.930 
	L 21.756, 98.363 
" />
<path d="M 2.835, 97.795 
	L 2.835, 97.796 
	L 2.835, 109.843 
" />
<path d="M 2.268, 109.843 
	L 2.268, 109.843 
	L 2.268, 98.363 
" />
<path d="M 2.835, 97.795 
	L 2.835, 97.796 
	L 1.134, 99.497 
	L 0.000, 100.064 
" />
<path d="M 0.001, 109.843 
	L 0.000, 109.843 
	L 5.102, 109.843 
" />
</g><g style="stroke:rgb(255,255,255); fill:none; stroke-width:0.100mm" >
</g>
</svg>
