  0
SECTION
  2
HEADER
  9
$ACADVER
  1
AC1006
  9
$INSBASE
 10
0.0
 20
0.0
 30
0.0
  9
$EXTMIN
 10
-2.925
 20
-2.0288
  9
$EXTMAX
 10
2.486
 20
6.6008
  9
$LIMMIN
 10
-2.75
 20
-2.25
  9
$LIMMAX
 10
2.75
 20
6.75
  9
$ORTHOMODE
 70
     0
  9
$REGENMODE
 70
     1
  9
$FILLMODE
 70
     1
  9
$QTEXTMODE
 70
     0
  9
$MIRRTEXT
 70
     1
  9
$DRAGMODE
 70
     2
  9
$LTSCALE
 40
0.1
  9
$OSMODE
 70
     0
  9
$ATTMODE
 70
     1
  9
$TEXTSIZE
 40
0.25
  9
$TRACEWID
 40
5.0
  9
$TEXTSTYLE
  7
ROMAN
  9
$CLAYER
  8
0
  9
$CELTYPE
  6
VONLAYER
  9
$CECOLOR
 62
   256
  9
$DIMSCALE
 40
0.075
  9
$DIMASZ
 40
3.5
  9
$DIMEXO
 40
0.1
  9
$DIMDLI
 40
7.0
  9
$DIMRND
 40
0.0
  9
$DIMDLE
 40
0.0
  9
$DIMEXE
 40
1.8
  9
$DIMTP
 40
0.0
  9
$DIMTM
 40
0.0
  9
$DIMTXT
 40
3.5
  9
$DIMCEN
 40
1.5
  9
$DIMTSZ
 40
0.0
  9
$DIMTOL
 70
     0
  9
$DIMLIM
 70
     0
  9
$DIMTIH
 70
     1
  9
$DIMTOH
 70
     1
  9
$DIMSE1
 70
     0
  9
$DIMSE2
 70
     0
  9
$DIMTAD
 70
     0
  9
$DIMZIN
 70
     0
  9
$DIMBLK
  1

  9
$DIMASO
 70
     1
  9
$DIMSHO
 70
     0
  9
$DIMPOST
  1

  9
$DIMAPOST
  1

  9
$DIMALT
 70
     0
  9
$DIMALTD
 70
     2
  9
$DIMALTF
 40
25.4
  9
$DIMLFAC
 40
1.0
  9
$DIMTOFL
 70
     0
  9
$DIMTVP
 40
0.0
  9
$DIMTIX
 70
     0
  9
$DIMSOXD
 70
     0
  9
$DIMSAH
 70
     0
  9
$DIMBLK1
  1

  9
$DIMBLK2
  1

  9
$LUNITS
 70
     2
  9
$LUPREC
 70
     2
  9
$AXISMODE
 70
     0
  9
$AXISUNIT
 10
0.0
 20
0.0
  9
$SKETCHINC
 40
1.0
  9
$FILLETRAD
 40
0.0
  9
$AUNITS
 70
     0
  9
$AUPREC
 70
     0
  9
$MENU
  1
ACAD
  9
$ELEVATION
 40
0.0
  9
$THICKNESS
 40
0.0
  9
$LIMCHECK
 70
     0
  9
$BLIPMODE
 70
     1
  9
$CHAMFERA
 40
0.0
  9
$CHAMFERB
 40
0.0
  9
$SKPOLY
 70
     0
  9
$TDCREATE
 40
2450751.0199009259
  9
$TDUPDATE
 40
2450751.1547105326
  9
$TDINDWG
 40
0.0416505787
  9
$TDUSRTIMER
 40
0.0416505787
  9
$USRTIMER
 70
     1
  9
$ANGBASE
 50
0.0
  9
$ANGDIR
 70
     0
  9
$PDMODE
 70
     0
  9
$PDSIZE
 40
0.0
  9
$PLINEWID
 40
0.0
  9
$COORDS
 70
     2
  9
$SPLFRAME
 70
     0
  9
$SPLINETYPE
 70
     6
  9
$SPLINESEGS
 70
     8
  9
$ATTDIA
 70
     0
  9
$ATTREQ
 70
     1
  9
$HANDLING
 70
     0
  9
$HANDSEED
  5
0
  9
$SURFTAB1
 70
     6
  9
$SURFTAB2
 70
     6
  9
$SURFTYPE
 70
     6
  9
$SURFU
 70
     6
  9
$SURFV
 70
     6
  9
$FLATLAND
 70
     1
  9
$UCSNAME
  2

  9
$UCSORG
 10
0.0
 20
0.0
 30
0.0
  9
$UCSXDIR
 10
1.0
 20
0.0
 30
0.0
  9
$UCSYDIR
 10
0.0
 20
1.0
 30
0.0
  9
$USERI1
 70
     0
  9
$USERI2
 70
     0
  9
$USERI3
 70
     0
  9
$USERI4
 70
     0
  9
$USERI5
 70
     0
  9
$USERR1
 40
0.0
  9
$USERR2
 40
0.0
  9
$USERR3
 40
0.0
  9
$USERR4
 40
0.0
  9
$USERR5
 40
0.0
  9
$WORLDVIEW
 70
     1
  9
$VIEWCTR
 10
1.213301
 20
2.25
  9
$VIEWSIZE
 40
9.0
  9
$SNAPMODE
 70
     0
  9
$SNAPUNIT
 10
0.25
 20
0.25
  9
$SNAPBASE
 10
0.0
 20
0.0
  9
$SNAPANG
 50
0.0
  9
$SNAPSTYLE
 70
     0
  9
$SNAPISOPAIR
 70
     0
  9
$GRIDMODE
 70
     0
  9
$GRIDUNIT
 10
0.0
 20
0.0
  9
$FASTZOOM
 70
     1
  9
$VIEWDIR
 10
0.0
 20
0.0
 30
1.0
  0
ENDSEC
  0
SECTION
  2
TABLES
  0
TABLE
  2
VPORT
 70
     2
  0
VPORT
  2
*ACTIVE
 70
     0
 10
0.0
 20
0.0
 11
1.0
 21
1.0
 12
1.213301
 22
2.25
 13
0.0
 23
0.0
 14
0.25
 24
0.25
 15
0.0
 25
0.0
 16
0.0
 26
0.0
 36
1.0
 17
0.0
 27
0.0
 37
0.0
 40
9.0
 41
1.635702
 42
50.0
 43
0.0
 44
0.0
 50
0.0
 51
0.0
 71
     0
 72
   100
 73
     1
 74
     1
 75
     0
 76
     0
 77
     0
 78
     0
  0
ENDTAB
  0
TABLE
  2
LTYPE
 70
    12
  0
LTYPE
  2
AUSGEZOGEN
 70
    64
  3
Ausgezogene Linie
 72
    65
 73
     0
 40
0.0
  0
LTYPE
  2
VERDECKT
 70
     0
  3
_ _ _ _ _ _ _ _ _ _ _ _ _ _ _ _ _ _ _ _ _ _ _
 72
    65
 73
     2
 40
0.375
 49
0.25
 49
-0.125
  0
LTYPE
  2
GESTRICHELT
 70
     0
  3
__ __ __ __ __ __ __ __ __ __ __ __ __ __ __
 72
    65
 73
     2
 40
0.75
 49
0.5
 49
-0.25
  0
LTYPE
  2
MITTE
 70
     0
  3
____ _ ____ _ ____ _ ____ _ ____ _ ____ _ ____
 72
    65
 73
     4
 40
2.0
 49
1.25
 49
-0.25
 49
0.25
 49
-0.25
  0
LTYPE
  2
PHANTOM
 70
     0
  3
_____ _ _ _____ _ _ _____ _ _ _____ _ _ ____
 72
    65
 73
     6
 40
2.5
 49
1.25
 49
-0.25
 49
0.25
 49
-0.25
 49
0.25
 49
-0.25
  0
LTYPE
  2
PUNKT
 70
     0
  3
...............................................
 72
    65
 73
     2
 40
0.25
 49
0.0
 49
-0.25
  0
LTYPE
  2
STRICHPUNKT
 70
     0
  3
__ . __ . __ . __ . __ . __ . __ . __ . __ . __
 72
    65
 73
     4
 40
1.0
 49
0.5
 49
-0.25
 49
0.0
 49
-0.25
  0
LTYPE
  2
RAND
 70
     0
  3
__ __ . __ __ . __ __ . __ __ . __ __ . __ __
 72
    65
 73
     6
 40
1.75
 49
0.5
 49
-0.25
 49
0.5
 49
-0.25
 49
0.0
 49
-0.25
  0
LTYPE
  2
GETRENNT
 70
     0
  3
__ . . __ . . __ . . __ . . __ . . __ . . __
 72
    65
 73
     6
 40
1.25
 49
0.5
 49
-0.25
 49
0.0
 49
-0.25
 49
0.0
 49
-0.25
  0
LTYPE
  2
CONTINUOUS
 70
     0
  3
Eine "Dummy" fuer englische DXF-Dateien
 72
    65
 73
     2
 40
1.0
 49
1.0
 49
0.0
  0
LTYPE
  2
HIDDEN
 70
     0
  3
_ _ _ _ _ _ _ _ _ _ _ _ _ _ _ _ _ _ _ _ _ _ _
 72
    65
 73
     2
 40
0.375
 49
0.25
 49
-0.125
  0
LTYPE
  2
DASHED
 70
     0
  3
__ __ __ __ __ __ __ __ __ __ __ __ __ __ __
 72
    65
 73
     2
 40
0.75
 49
0.5
 49
-0.25
  0
ENDTAB
  0
TABLE
  2
LAYER
 70
     3
  0
LAYER
  2
0
 70
    64
 62
     7
  6
AUSGEZOGEN
  0
LAYER
  2
DEFPOINTS
 70
    64
 62
    -7
  6
AUSGEZOGEN
  0
LAYER
  2
HOUSE
 70
    64
 62
     7
  6
AUSGEZOGEN
  0
ENDTAB
  0
TABLE
  2
STYLE
 70
     2
  0
STYLE
  2
STANDARD
 70
     0
 40
0.0
 41
1.0
 50
0.0
 71
     0
 42
3.5
  3
txt
  4

  0
STYLE
  2
ROMAN
 70
    64
 40
0.0
 41
1.0
 50
0.0
 71
     0
 42
0.25
  3
romanc
  4

  0
ENDTAB
  0
TABLE
  2
VIEW
 70
     1
  0
VIEW
  2
SIZE
 70
     0
 40
9.0
 10
-0.125
 20
2.25
 41
5.75
 11
0.0
 21
0.0
 31
1.0
 12
0.0
 22
0.0
 32
0.0
 42
50.0
 43
0.0
 44
0.0
 50
0.0
 71
     0
  0
ENDTAB
  0
TABLE
  2
UCS
 70
     0
  0
ENDTAB
  0
TABLE
  2
DWGMGR
 70
     0
  0
ENDTAB
  0
ENDSEC
  0
SECTION
  2
BLOCKS
  0
BLOCK
  8
0
  2
HOUSE
 70
    64
 10
0.0
 20
0.0
  0
INSERT
  8
0
  2
HOUSEO
 10
0.0
 20
0.0
  0
INSERT
  8
0
  2
*X2
 10
0.0
 20
0.0
  0
ENDBLK
  8
0
  0
BLOCK
  8
0
  2
HOUSEO
 70
    64
 10
0.0
 20
0.0
  0
LINE
  8
0
 10
-2.486
 20
-1.8288
 11
2.486
 21
-1.8288
  0
LINE
  8
0
 10
-2.486
 20
6.4008
 11
2.486
 21
6.4008
  0
LINE
  8
0
 10
2.286
 20
-2.0288
 11
2.286
 21
6.6008
  0
LINE
  8
0
 10
2.486
 20
0.0
 11
-2.486
 21
0.0
  0
LINE
  8
0
 10
0.0
 20
-2.0288
 11
0.0
 21
6.6008
  0
LINE
  8
0
 10
-2.286
 20
-2.0288
 11
-2.286
 21
6.6008
  0
CIRCLE
  8
0
 10
0.0
 20
0.0
 40
1.8288
  0
CIRCLE
  8
0
 10
0.0
 20
0.0
 40
1.2192
  0
CIRCLE
  8
0
 10
0.0
 20
0.0
 40
0.6096
  0
CIRCLE
  8
0
 10
0.0
 20
0.0
 40
0.1524
  0
ENDBLK
  8
0
  0
BLOCK
  8
0
  2
*X2
 70
    65
 10
0.0
 20
0.0
  0
LINE
  8
0
 62
     0
 10
-1.293157
 20
-1.293157
 11
-0.862105
 21
-0.862105
  0
LINE
  8
0
 62
     0
 10
0.862105
 20
0.862105
 11
1.293157
 21
1.293157
  0
LINE
  8
0
 62
     0
 10
-0.431052
 20
-0.431052
 11
-0.107763
 21
-0.107763
  0
LINE
  8
0
 62
     0
 10
0.107763
 20
0.107763
 11
0.431052
 21
0.431052
  0
LINE
  8
0
 62
     0
 10
-1.378521
 20
-1.201744
 11
-0.94595
 21
-0.769173
  0
LINE
  8
0
 62
     0
 10
0.769173
 20
0.94595
 11
1.201744
 21
1.378521
  0
LINE
  8
0
 62
     0
 10
-0.510281
 20
-0.333505
 11
-0.150036
 21
0.026741
  0
LINE
  8
0
 62
     0
 10
-0.026741
 20
0.150036
 11
0.333505
 21
0.510281
  0
LINE
  8
0
 62
     0
 10
-1.457794
 20
-1.10424
 11
-1.020562
 21
-0.667009
  0
LINE
  8
0
 62
     0
 10
0.667009
 20
1.020562
 11
1.10424
 21
1.457794
  0
LINE
  8
0
 62
     0
 10
-0.569913
 20
-0.21636
 11
0.21636
 21
0.569913
  0
LINE
  8
0
 62
     0
 10
-1.530844
 20
-1.000514
 11
-1.085477
 21
-0.555147
  0
LINE
  8
0
 62
     0
 10
0.555147
 20
1.085477
 11
1.000514
 21
1.530844
  0
LINE
  8
0
 62
     0
 10
-0.605009
 20
-0.074678
 11
0.074678
 21
0.605009
  0
LINE
  8
0
 62
     0
 10
-1.59744
 20
-0.890334
 11
-1.139826
 21
-0.432719
  0
LINE
  8
0
 62
     0
 10
0.432719
 20
1.139826
 11
0.890334
 21
1.59744
  0
LINE
  8
0
 62
     0
 10
-0.600142
 20
0.106965
 11
-0.106965
 21
0.600142
  0
LINE
  8
0
 62
     0
 10
-1.657237
 20
-0.773353
 11
-1.182152
 21
-0.298269
  0
LINE
  8
0
 62
     0
 10
0.298269
 20
1.182152
 11
0.773353
 21
1.657237
  0
LINE
  8
0
 62
     0
 10
-1.709739
 20
-0.649079
 11
-1.210017
 21
-0.149357
  0
LINE
  8
0
 62
     0
 10
0.149357
 20
1.210017
 11
0.649079
 21
1.709739
  0
LINE
  8
0
 62
     0
 10
-1.754255
 20
-0.516818
 11
-1.219062
 21
0.018375
  0
LINE
  8
0
 62
     0
 10
-0.018375
 20
1.219062
 11
0.516818
 21
1.754255
  0
LINE
  8
0
 62
     0
 10
-1.789814
 20
-0.3756
 11
-1.200285
 21
0.213929
  0
LINE
  8
0
 62
     0
 10
-0.213929
 20
1.200285
 11
0.3756
 21
1.789814
  0
LINE
  8
0
 62
     0
 10
-1.815026
 20
-0.224035
 11
-1.127778
 21
0.463212
  0
LINE
  8
0
 62
     0
 10
-0.463212
 20
1.127778
 11
0.224035
 21
1.815026
  0
LINE
  8
0
 62
     0
 10
-1.827814
 20
-0.060047
 11
0.060047
 21
1.827814
  0
LINE
  8
0
 62
     0
 10
-1.824881
 20
0.119663
 11
-0.119663
 21
1.824881
  0
LINE
  8
0
 62
     0
 10
-1.800427
 20
0.320894
 11
-0.320894
 21
1.800427
  0
LINE
  8
0
 62
     0
 10
-1.742296
 20
0.555801
 11
-0.555801
 21
1.742296
  0
LINE
  8
0
 62
     0
 10
-1.612943
 20
0.861931
 11
-0.861931
 21
1.612943
  0
LINE
  8
0
 62
     0
 10
-1.201744
 20
-1.378521
 11
-0.769173
 21
-0.94595
  0
LINE
  8
0
 62
     0
 10
0.94595
 20
0.769173
 11
1.378521
 21
1.201744
  0
LINE
  8
0
 62
     0
 10
-0.333505
 20
-0.510281
 11
0.026741
 21
-0.150036
  0
LINE
  8
0
 62
     0
 10
0.150036
 20
-0.026741
 11
0.510281
 21
0.333505
  0
LINE
  8
0
 62
     0
 10
-1.10424
 20
-1.457794
 11
-0.667009
 21
-1.020562
  0
LINE
  8
0
 62
     0
 10
1.020562
 20
0.667009
 11
1.457794
 21
1.10424
  0
LINE
  8
0
 62
     0
 10
-0.21636
 20
-0.569913
 11
0.569913
 21
0.21636
  0
LINE
  8
0
 62
     0
 10
-1.000514
 20
-1.530844
 11
-0.555147
 21
-1.085477
  0
LINE
  8
0
 62
     0
 10
1.085477
 20
0.555147
 11
1.530844
 21
1.000514
  0
LINE
  8
0
 62
     0
 10
-0.074678
 20
-0.605009
 11
0.605009
 21
0.074678
  0
LINE
  8
0
 62
     0
 10
-0.890334
 20
-1.59744
 11
-0.432719
 21
-1.139826
  0
LINE
  8
0
 62
     0
 10
1.139826
 20
0.432719
 11
1.59744
 21
0.890334
  0
LINE
  8
0
 62
     0
 10
0.106965
 20
-0.600142
 11
0.600142
 21
-0.106965
  0
LINE
  8
0
 62
     0
 10
-0.773353
 20
-1.657237
 11
-0.298269
 21
-1.182152
  0
LINE
  8
0
 62
     0
 10
1.182152
 20
0.298269
 11
1.657237
 21
0.773353
  0
LINE
  8
0
 62
     0
 10
-0.649079
 20
-1.709739
 11
-0.149357
 21
-1.210017
  0
LINE
  8
0
 62
     0
 10
1.210017
 20
0.149357
 11
1.709739
 21
0.649079
  0
LINE
  8
0
 62
     0
 10
-0.516818
 20
-1.754255
 11
0.018375
 21
-1.219062
  0
LINE
  8
0
 62
     0
 10
1.219062
 20
-0.018375
 11
1.754255
 21
0.516818
  0
LINE
  8
0
 62
     0
 10
-0.3756
 20
-1.789814
 11
0.213929
 21
-1.200285
  0
LINE
  8
0
 62
     0
 10
1.200285
 20
-0.213929
 11
1.789814
 21
0.3756
  0
LINE
  8
0
 62
     0
 10
-0.224035
 20
-1.815026
 11
0.463212
 21
-1.127778
  0
LINE
  8
0
 62
     0
 10
1.127778
 20
-0.463212
 11
1.815026
 21
0.224035
  0
LINE
  8
0
 62
     0
 10
-0.060047
 20
-1.827814
 11
1.827814
 21
0.060047
  0
LINE
  8
0
 62
     0
 10
0.119663
 20
-1.824881
 11
1.824881
 21
-0.119663
  0
LINE
  8
0
 62
     0
 10
0.320894
 20
-1.800427
 11
1.800427
 21
-0.320894
  0
LINE
  8
0
 62
     0
 10
0.555801
 20
-1.742296
 11
1.742296
 21
-0.555801
  0
LINE
  8
0
 62
     0
 10
0.861931
 20
-1.612943
 11
1.612943
 21
-0.861931
  0
ENDBLK
  8
0
  0
BLOCK
  8
0
  2
*D3
 70
    65
 10
0.0
 20
0.0
  0
LINE
  8
0
  6
VONBLOCK
 62
     0
 10
-2.5075
 20
1.8288
 11
-2.885
 21
1.8288
  0
LINE
  8
0
  6
VONBLOCK
 62
     0
 10
-2.5075
 20
6.4008
 11
-2.885
 21
6.4008
  0
LINE
  8
0
  6
VONBLOCK
 62
     0
 10
-2.75
 20
2.0913
 11
-2.75
 21
3.72105
  0
LINE
  8
0
  6
VONBLOCK
 62
     0
 10
-2.75
 20
6.1383
 11
-2.75
 21
4.50855
  0
SOLID
  8
0
  6
VONBLOCK
 62
     0
 10
-2.79375
 20
2.0913
 11
-2.70625
 21
2.0913
 12
-2.75
 22
1.8288
 13
-2.75
 23
1.8288
  0
SOLID
  8
0
  6
VONBLOCK
 62
     0
 10
-2.79375
 20
6.1383
 11
-2.70625
 21
6.1383
 12
-2.75
 22
6.4008
 13
-2.75
 23
6.4008
  0
TEXT
  8
0
  6
VONBLOCK
 62
     0
 10
-3.0
 20
3.98355
 40
0.2625
  1
15'
  7
ROMAN
  0
POINT
  8
DEFPOINTS
  6
VONBLOCK
 62
     0
 10
-2.5
 20
1.8288
  0
POINT
  8
DEFPOINTS
  6
VONBLOCK
 62
     0
 10
-2.5
 20
6.4008
  0
POINT
  8
DEFPOINTS
  6
VONBLOCK
 62
     0
 10
-2.75
 20
6.4008
  0
ENDBLK
  8
0
  0
BLOCK
  8
0
  2
*D4
 70
    65
 10
0.0
 20
0.0
  0
LINE
  8
0
  6
VONBLOCK
 62
     0
 10
-2.5075
 20
0.0
 11
-2.885
 21
0.0
  0
LINE
  8
0
  6
VONBLOCK
 62
     0
 10
-2.5075
 20
1.8288
 11
-2.885
 21
1.8288
  0
LINE
  8
0
  6
VONBLOCK
 62
     0
 10
-2.75
 20
0.2625
 11
-2.75
 21
0.52065
  0
LINE
  8
0
  6
VONBLOCK
 62
     0
 10
-2.75
 20
1.5663
 11
-2.75
 21
1.30815
  0
SOLID
  8
0
  6
VONBLOCK
 62
     0
 10
-2.79375
 20
0.2625
 11
-2.70625
 21
0.2625
 12
-2.75
 22
0.0
 13
-2.75
 23
0.0
  0
SOLID
  8
0
  6
VONBLOCK
 62
     0
 10
-2.79375
 20
1.5663
 11
-2.70625
 21
1.5663
 12
-2.75
 22
1.8288
 13
-2.75
 23
1.8288
  0
TEXT
  8
0
  6
VONBLOCK
 62
     0
 10
-2.89375
 20
0.78315
 40
0.2625
  1
6'
  7
ROMAN
  0
POINT
  8
DEFPOINTS
  6
VONBLOCK
 62
     0
 10
-2.5
 20
0.0
  0
POINT
  8
DEFPOINTS
  6
VONBLOCK
 62
     0
 10
-2.5
 20
1.8288
  0
POINT
  8
DEFPOINTS
  6
VONBLOCK
 62
     0
 10
-2.75
 20
1.8288
  0
ENDBLK
  8
0
  0
BLOCK
  8
0
  2
*D5
 70
    65
 10
0.0
 20
0.0
  0
LINE
  8
0
  6
VONBLOCK
 62
     0
 10
-2.5075
 20
-1.8288
 11
-2.885
 21
-1.8288
  0
LINE
  8
0
  6
VONBLOCK
 62
     0
 10
-2.5075
 20
0.0
 11
-2.885
 21
0.0
  0
LINE
  8
0
  6
VONBLOCK
 62
     0
 10
-2.75
 20
-1.5663
 11
-2.75
 21
-1.30815
  0
LINE
  8
0
  6
VONBLOCK
 62
     0
 10
-2.75
 20
-0.2625
 11
-2.75
 21
-0.52065
  0
SOLID
  8
0
  6
VONBLOCK
 62
     0
 10
-2.79375
 20
-1.5663
 11
-2.70625
 21
-1.5663
 12
-2.75
 22
-1.8288
 13
-2.75
 23
-1.8288
  0
SOLID
  8
0
  6
VONBLOCK
 62
     0
 10
-2.79375
 20
-0.2625
 11
-2.70625
 21
-0.2625
 12
-2.75
 22
0.0
 13
-2.75
 23
0.0
  0
TEXT
  8
0
  6
VONBLOCK
 62
     0
 10
-2.89375
 20
-1.04565
 40
0.2625
  1
6'
  7
ROMAN
  0
POINT
  8
DEFPOINTS
  6
VONBLOCK
 62
     0
 10
-2.5
 20
-1.8288
  0
POINT
  8
DEFPOINTS
  6
VONBLOCK
 62
     0
 10
-2.5
 20
0.0
  0
POINT
  8
DEFPOINTS
  6
VONBLOCK
 62
     0
 10
-2.75
 20
0.0
  0
ENDBLK
  8
0
  0
ENDSEC
  0
SECTION
  2
ENTITIES
  0
DIMENSION
  8
0
  2
*D5
 10
-2.75
 20
0.0
 11
-2.75
 21
-0.9144
  1
6'
 13
-2.5
 23
-1.8288
 14
-2.5
 24
0.0
 50
270.0
  0
DIMENSION
  8
0
  2
*D4
 10
-2.75
 20
1.8288
 11
-2.75
 21
0.9144
  1
6'
 13
-2.5
 23
0.0
 14
-2.5
 24
1.8288
 50
270.0
  0
DIMENSION
  8
0
  2
*D3
 10
-2.75
 20
6.4008
 11
-2.75
 21
4.1148
  1
15'
 13
-2.5
 23
1.8288
 14
-2.5
 24
6.4008
 50
270.0
  0
INSERT
  8
HOUSE
  2
HOUSE
 10
0.0
 20
0.0
  0
ENDSEC
  0
EOF
