  0
SECTION
  2
HEADER
  9
$ACADVER
  1
AC1006
  9
$INSBASE
 10
78.0
 20
238.0
 30
0.0
  9
$EXTMIN
 10
-3.385
 20
-2.385
  9
$EXTMAX
 10
2.036783
 20
6.540677
  9
$LIMMIN
 10
-3.75
 20
-2.5
  9
$LIMMAX
 10
2.25
 20
6.75
  9
$ORTHOMODE
 70
     0
  9
$REGENMODE
 70
     1
  9
$FILLMODE
 70
     1
  9
$QTEXTMODE
 70
     0
  9
$MIRRTEXT
 70
     1
  9
$DRAGMODE
 70
     2
  9
$LTSCALE
 40
25.0
  9
$OSMODE
 70
     0
  9
$ATTMODE
 70
     1
  9
$TEXTSIZE
 40
3.5
  9
$TRACEWID
 40
1.0
  9
$TEXTSTYLE
  7
STANDARD
  9
$CLAYER
  8
0
  9
$CELTYPE
  6
VONLAYER
  9
$CECOLOR
 62
   256
  9
$DIMSCALE
 40
0.075
  9
$DIMASZ
 40
3.5
  9
$DIMEXO
 40
0.1
  9
$DIMDLI
 40
7.0
  9
$DIMRND
 40
0.0
  9
$DIMDLE
 40
0.0
  9
$DIMEXE
 40
1.8
  9
$DIMTP
 40
0.0
  9
$DIMTM
 40
0.0
  9
$DIMTXT
 40
3.5
  9
$DIMCEN
 40
1.5
  9
$DIMTSZ
 40
0.0
  9
$DIMTOL
 70
     0
  9
$DIMLIM
 70
     0
  9
$DIMTIH
 70
     0
  9
$DIMTOH
 70
     0
  9
$DIMSE1
 70
     0
  9
$DIMSE2
 70
     0
  9
$DIMTAD
 70
     0
  9
$DIMZIN
 70
     0
  9
$DIMBLK
  1

  9
$DIMASO
 70
     0
  9
$DIMSHO
 70
     0
  9
$DIMPOST
  1

  9
$DIMAPOST
  1

  9
$DIMALT
 70
     0
  9
$DIMALTD
 70
     2
  9
$DIMALTF
 40
25.4
  9
$DIMLFAC
 40
1.0
  9
$DIMTOFL
 70
     0
  9
$DIMTVP
 40
0.0
  9
$DIMTIX
 70
     0
  9
$DIMSOXD
 70
     0
  9
$DIMSAH
 70
     0
  9
$DIMBLK1
  1

  9
$DIMBLK2
  1

  9
$LUNITS
 70
     2
  9
$LUPREC
 70
     2
  9
$AXISMODE
 70
     0
  9
$AXISUNIT
 10
0.0
 20
0.0
  9
$SKETCHINC
 40
1.0
  9
$FILLETRAD
 40
0.0
  9
$AUNITS
 70
     0
  9
$AUPREC
 70
     0
  9
$MENU
  1
ACAD
  9
$ELEVATION
 40
0.0
  9
$THICKNESS
 40
0.0
  9
$LIMCHECK
 70
     0
  9
$BLIPMODE
 70
     1
  9
$CHAMFERA
 40
0.0
  9
$CHAMFERB
 40
0.0
  9
$SKPOLY
 70
     0
  9
$TDCREATE
 40
2450419.9786711806
  9
$TDUPDATE
 40
2450749.9819069444
  9
$TDINDWG
 40
0.0151283565
  9
$TDUSRTIMER
 40
0.0151283565
  9
$USRTIMER
 70
     1
  9
$ANGBASE
 50
0.0
  9
$ANGDIR
 70
     0
  9
$PDMODE
 70
     0
  9
$PDSIZE
 40
0.0
  9
$PLINEWID
 40
0.0
  9
$COORDS
 70
     2
  9
$SPLFRAME
 70
     0
  9
$SPLINETYPE
 70
     6
  9
$SPLINESEGS
 70
     8
  9
$ATTDIA
 70
     0
  9
$ATTREQ
 70
     1
  9
$HANDLING
 70
     0
  9
$HANDSEED
  5
0
  9
$SURFTAB1
 70
     6
  9
$SURFTAB2
 70
     6
  9
$SURFTYPE
 70
     6
  9
$SURFU
 70
     6
  9
$SURFV
 70
     6
  9
$FLATLAND
 70
     0
  9
$UCSNAME
  2

  9
$UCSORG
 10
0.0
 20
0.0
 30
0.0
  9
$UCSXDIR
 10
1.0
 20
0.0
 30
0.0
  9
$UCSYDIR
 10
0.0
 20
1.0
 30
0.0
  9
$USERI1
 70
     0
  9
$USERI2
 70
     0
  9
$USERI3
 70
     0
  9
$USERI4
 70
     0
  9
$USERI5
 70
     0
  9
$USERR1
 40
0.0
  9
$USERR2
 40
0.0
  9
$USERR3
 40
0.0
  9
$USERR4
 40
0.0
  9
$USERR5
 40
0.0
  9
$WORLDVIEW
 70
     1
  0
ENDSEC
  0
SECTION
  2
TABLES
  0
TABLE
  2
VPORT
 70
     2
  0
VPORT
  2
*ACTIVE
 70
     0
 10
0.0
 20
0.0
 11
1.0
 21
1.0
 12
0.625476
 22
2.125
 13
0.0
 23
0.0
 14
0.25
 24
0.25
 15
0.0
 25
0.0
 16
0.0
 26
0.0
 36
1.0
 17
0.0
 27
0.0
 37
0.0
 40
9.25
 41
1.635702
 42
50.0
 43
0.0
 44
0.0
 50
0.0
 51
0.0
 71
     0
 72
   100
 73
     1
 74
     1
 75
     1
 76
     1
 77
     0
 78
     0
  0
ENDTAB
  0
TABLE
  2
LTYPE
 70
    12
  0
LTYPE
  2
AUSGEZOGEN
 70
    64
  3
Ausgezogene Linie
 72
    65
 73
     0
 40
0.0
  0
LTYPE
  2
GESTRICHELT
 70
     0
  3
__ __ __ __ __ __ __ __ __ __ __ __ __ __ __
 72
    65
 73
     2
 40
0.75
 49
0.5
 49
-0.25
  0
LTYPE
  2
VERDECKT
 70
     0
  3
_ _ _ _ _ _ _ _ _ _ _ _ _ _ _ _ _ _ _ _ _ _ _
 72
    65
 73
     2
 40
0.375
 49
0.25
 49
-0.125
  0
LTYPE
  2
MITTE
 70
     0
  3
____ _ ____ _ ____ _ ____ _ ____ _ ____ _ ____
 72
    65
 73
     4
 40
2.0
 49
1.25
 49
-0.25
 49
0.25
 49
-0.25
  0
LTYPE
  2
PHANTOM
 70
     0
  3
_____ _ _ _____ _ _ _____ _ _ _____ _ _ ____
 72
    65
 73
     6
 40
2.5
 49
1.25
 49
-0.25
 49
0.25
 49
-0.25
 49
0.25
 49
-0.25
  0
LTYPE
  2
PUNKT
 70
     0
  3
...............................................
 72
    65
 73
     2
 40
0.25
 49
0.0
 49
-0.25
  0
LTYPE
  2
GETRENNT
 70
     0
  3
__ . . __ . . __ . . __ . . __ . . __ . . __
 72
    65
 73
     6
 40
1.25
 49
0.5
 49
-0.25
 49
0.0
 49
-0.25
 49
0.0
 49
-0.25
  0
LTYPE
  2
STRICHPUNKT
 70
     0
  3
__ . __ . __ . __ . __ . __ . __ . __ . __ . __
 72
    65
 73
     4
 40
1.0
 49
0.5
 49
-0.25
 49
0.0
 49
-0.25
  0
LTYPE
  2
RAND
 70
     0
  3
__ __ . __ __ . __ __ . __ __ . __ __ . __ __
 72
    65
 73
     6
 40
1.75
 49
0.5
 49
-0.25
 49
0.5
 49
-0.25
 49
0.0
 49
-0.25
  0
LTYPE
  2
CONTINUOUS
 70
     0
  3
-----------------------------------------------
 72
    65
 73
     2
 40
2.0
 49
1.0
 49
1.0
  0
LTYPE
  2
DASHED
 70
     0
  3
der selbe wie "PUNKT"
 72
    65
 73
     2
 40
0.25
 49
0.0
 49
-0.25
  0
LTYPE
  2
HIDDEN
 70
     0
  3
der selbe wie "CONTINUOUS"
 72
    65
 73
     2
 40
2.0
 49
1.0
 49
1.0
  0
ENDTAB
  0
TABLE
  2
LAYER
 70
     2
  0
LAYER
  2
0
 70
    64
 62
     7
  6
AUSGEZOGEN
  0
LAYER
  2
BEM
 70
    64
 62
     7
  6
AUSGEZOGEN
  0
ENDTAB
  0
TABLE
  2
STYLE
 70
     3
  0
STYLE
  2
STANDARD
 70
    64
 40
0.0
 41
1.0
 50
0.0
 71
     0
 42
3.5
  3
txt8
  4

  0
STYLE
  2
MONO
 70
     0
 40
0.0
 41
1.0
 50
0.0
 71
     0
 42
3.5
  3
monotxt8
  4

  0
STYLE
  2
ISO
 70
     0
 40
0.0
 41
1.0
 50
0.0
 71
     0
 42
3.5
  3
iso8
  4

  0
ENDTAB
  0
TABLE
  2
VIEW
 70
     1
  0
VIEW
  2
SIZE
 70
     0
 40
9.25
 10
-0.75
 20
2.125
 41
6.0
 11
0.0
 21
0.0
 31
1.0
 12
0.0
 22
0.0
 32
0.0
 42
50.0
 43
0.0
 44
0.0
 50
0.0
 71
     0
  0
ENDTAB
  0
TABLE
  2
UCS
 70
     0
  0
ENDTAB
  0
TABLE
  2
DWGMGR
 70
     0
  0
ENDTAB
  0
ENDSEC
  0
SECTION
  2
BLOCKS
  0
BLOCK
  8
0
  2
HOUSE
 70
    64
 10
0.0
 20
0.0
 30
0.0
  0
LINE
  8
0
 10
1.836783
 20
-1.811622
 30
0.0
 11
-1.836783
 21
-1.811622
 31
0.0
  0
LINE
  8
0
 10
1.836783
 20
6.540677
 30
0.0
 11
1.836783
 21
-1.811622
 31
0.0
  0
LINE
  8
0
 10
-2.036783
 20
6.340677
 30
0.0
 11
2.036783
 21
6.340677
 31
0.0
  0
LINE
  8
0
 10
-1.836783
 20
-1.811622
 30
0.0
 11
-1.836783
 21
6.540677
 31
0.0
  0
CIRCLE
  8
0
 10
0.0
 20
0.0
 30
0.0
 40
0.150969
  0
CIRCLE
  8
0
 10
0.0
 20
0.0
 30
0.0
 40
0.603874
  0
CIRCLE
  8
0
 10
0.0
 20
0.0
 30
0.0
 40
1.811622
  0
LINE
  8
0
 10
0.0
 20
-2.011622
 30
0.0
 11
0.0
 21
6.540677
 31
0.0
  0
CIRCLE
  8
0
 10
0.0
 20
0.0
 30
0.0
 40
1.207748
  0
LINE
  8
0
 10
-2.036783
 20
0.0
 30
0.0
 11
2.036783
 21
-0.0
 31
0.0
  0
INSERT
  8
0
  2
*X1
 10
0.0
 20
0.0
 30
0.0
 50
90.0
  0
ENDBLK
  8
0
  0
BLOCK
  8
0
  2
*X1
 70
    65
 10
0.0
 20
0.0
 30
0.0
  0
LINE
  8
0
 62
     0
 10
-1.28101
 20
-1.28101
 30
0.0
 11
-0.854007
 21
-0.854007
 31
0.0
  0
LINE
  8
0
 62
     0
 10
0.854007
 20
0.854007
 30
0.0
 11
1.28101
 21
1.28101
 31
0.0
  0
LINE
  8
0
 62
     0
 10
-0.427003
 20
-0.427003
 30
0.0
 11
-0.106751
 21
-0.106751
 31
0.0
  0
LINE
  8
0
 62
     0
 10
0.106751
 20
0.106751
 30
0.0
 11
0.427003
 21
0.427003
 31
0.0
  0
LINE
  8
0
 62
     0
 10
-1.366346
 20
-1.189569
 30
0.0
 11
-0.937809
 21
-0.761032
 31
0.0
  0
LINE
  8
0
 62
     0
 10
0.761032
 20
0.937809
 30
0.0
 11
1.189569
 21
1.366346
 31
0.0
  0
LINE
  8
0
 62
     0
 10
-0.506144
 20
-0.329367
 30
0.0
 11
-0.148249
 21
0.028528
 31
0.0
  0
LINE
  8
0
 62
     0
 10
-0.028528
 20
0.148249
 30
0.0
 11
0.329367
 21
0.506144
 31
0.0
  0
LINE
  8
0
 62
     0
 10
-1.445531
 20
-1.091978
 30
0.0
 11
-1.012287
 21
-0.658734
 31
0.0
  0
LINE
  8
0
 62
     0
 10
0.658734
 20
1.012287
 30
0.0
 11
1.091978
 21
1.445531
 31
0.0
  0
LINE
  8
0
 62
     0
 10
-0.565469
 20
-0.211916
 30
0.0
 11
0.211916
 21
0.565469
 31
0.0
  0
LINE
  8
0
 62
     0
 10
-1.518431
 20
-0.988101
 30
0.0
 11
-1.076963
 21
-0.546632
 31
0.0
  0
LINE
  8
0
 62
     0
 10
0.546632
 20
1.076963
 30
0.0
 11
0.988101
 21
1.518431
 31
0.0
  0
LINE
  8
0
 62
     0
 10
-0.599858
 20
-0.069528
 30
0.0
 11
0.069528
 21
0.599858
 31
0.0
  0
LINE
  8
0
 62
     0
 10
-1.584808
 20
-0.877701
 30
0.0
 11
-1.130939
 21
-0.423832
 31
0.0
  0
LINE
  8
0
 62
     0
 10
0.423832
 20
1.130939
 30
0.0
 11
0.877701
 21
1.584808
 31
0.0
  0
LINE
  8
0
 62
     0
 10
-0.592994
 20
0.114113
 30
0.0
 11
-0.114113
 21
0.592994
 31
0.0
  0
LINE
  8
0
 62
     0
 10
-1.644304
 20
-0.76042
 30
0.0
 11
-1.172705
 21
-0.288822
 31
0.0
  0
LINE
  8
0
 62
     0
 10
0.288822
 20
1.172705
 30
0.0
 11
0.76042
 21
1.644304
 31
0.0
  0
LINE
  8
0
 62
     0
 10
-1.696408
 20
-0.635748
 30
0.0
 11
-1.199716
 21
-0.139056
 31
0.0
  0
LINE
  8
0
 62
     0
 10
0.139056
 20
1.199716
 30
0.0
 11
0.635748
 21
1.696408
 31
0.0
  0
LINE
  8
0
 62
     0
 10
-1.740402
 20
-0.502965
 30
0.0
 11
-1.207374
 21
0.030063
 31
0.0
  0
LINE
  8
0
 62
     0
 10
-0.030063
 20
1.207374
 30
0.0
 11
0.502965
 21
1.740402
 31
0.0
  0
LINE
  8
0
 62
     0
 10
-1.775277
 20
-0.361063
 30
0.0
 11
-1.185988
 21
0.228225
 31
0.0
  0
LINE
  8
0
 62
     0
 10
-0.228225
 20
1.185988
 30
0.0
 11
0.361063
 21
1.775277
 31
0.0
  0
LINE
  8
0
 62
     0
 10
-1.799574
 20
-0.208584
 30
0.0
 11
-1.106164
 21
0.484826
 31
0.0
  0
LINE
  8
0
 62
     0
 10
-0.484826
 20
1.106164
 30
0.0
 11
0.208584
 21
1.799574
 31
0.0
  0
LINE
  8
0
 62
     0
 10
-1.811104
 20
-0.043337
 30
0.0
 11
0.043337
 21
1.811104
 31
0.0
  0
LINE
  8
0
 62
     0
 10
-1.806343
 20
0.138201
 30
0.0
 11
-0.138201
 21
1.806343
 31
0.0
  0
LINE
  8
0
 62
     0
 10
-1.778983
 20
0.342338
 30
0.0
 11
-0.342338
 21
1.778983
 31
0.0
  0
LINE
  8
0
 62
     0
 10
-1.71533
 20
0.582767
 30
0.0
 11
-0.582767
 21
1.71533
 31
0.0
  0
LINE
  8
0
 62
     0
 10
-1.568703
 20
0.906171
 30
0.0
 11
-0.906171
 21
1.568703
 31
0.0
  0
LINE
  8
0
 62
     0
 10
-1.189569
 20
-1.366346
 30
0.0
 11
-0.761032
 21
-0.937809
 31
0.0
  0
LINE
  8
0
 62
     0
 10
0.937809
 20
0.761032
 30
0.0
 11
1.366346
 21
1.189569
 31
0.0
  0
LINE
  8
0
 62
     0
 10
-0.329367
 20
-0.506144
 30
0.0
 11
0.028528
 21
-0.148249
 31
0.0
  0
LINE
  8
0
 62
     0
 10
0.148249
 20
-0.028528
 30
0.0
 11
0.506144
 21
0.329367
 31
0.0
  0
LINE
  8
0
 62
     0
 10
-1.091978
 20
-1.445531
 30
0.0
 11
-0.658734
 21
-1.012287
 31
0.0
  0
LINE
  8
0
 62
     0
 10
1.012287
 20
0.658734
 30
0.0
 11
1.445531
 21
1.091978
 31
0.0
  0
LINE
  8
0
 62
     0
 10
-0.211916
 20
-0.565469
 30
0.0
 11
0.565469
 21
0.211916
 31
0.0
  0
LINE
  8
0
 62
     0
 10
-0.988101
 20
-1.518431
 30
0.0
 11
-0.546632
 21
-1.076963
 31
0.0
  0
LINE
  8
0
 62
     0
 10
1.076963
 20
0.546632
 30
0.0
 11
1.518431
 21
0.988101
 31
0.0
  0
LINE
  8
0
 62
     0
 10
-0.069528
 20
-0.599858
 30
0.0
 11
0.599858
 21
0.069528
 31
0.0
  0
LINE
  8
0
 62
     0
 10
-0.877701
 20
-1.584808
 30
0.0
 11
-0.423832
 21
-1.130939
 31
0.0
  0
LINE
  8
0
 62
     0
 10
1.130939
 20
0.423832
 30
0.0
 11
1.584808
 21
0.877701
 31
0.0
  0
LINE
  8
0
 62
     0
 10
0.114113
 20
-0.592994
 30
0.0
 11
0.592994
 21
-0.114113
 31
0.0
  0
LINE
  8
0
 62
     0
 10
-0.76042
 20
-1.644304
 30
0.0
 11
-0.288822
 21
-1.172705
 31
0.0
  0
LINE
  8
0
 62
     0
 10
1.172705
 20
0.288822
 30
0.0
 11
1.644304
 21
0.76042
 31
0.0
  0
LINE
  8
0
 62
     0
 10
-0.635748
 20
-1.696408
 30
0.0
 11
-0.139056
 21
-1.199716
 31
0.0
  0
LINE
  8
0
 62
     0
 10
1.199716
 20
0.139056
 30
0.0
 11
1.696408
 21
0.635748
 31
0.0
  0
LINE
  8
0
 62
     0
 10
-0.502965
 20
-1.740402
 30
0.0
 11
0.030063
 21
-1.207374
 31
0.0
  0
LINE
  8
0
 62
     0
 10
1.207374
 20
-0.030063
 30
0.0
 11
1.740402
 21
0.502965
 31
0.0
  0
LINE
  8
0
 62
     0
 10
-0.361063
 20
-1.775277
 30
0.0
 11
0.228225
 21
-1.185988
 31
0.0
  0
LINE
  8
0
 62
     0
 10
1.185988
 20
-0.228225
 30
0.0
 11
1.775277
 21
0.361063
 31
0.0
  0
LINE
  8
0
 62
     0
 10
-0.208584
 20
-1.799574
 30
0.0
 11
0.484826
 21
-1.106164
 31
0.0
  0
LINE
  8
0
 62
     0
 10
1.106164
 20
-0.484826
 30
0.0
 11
1.799574
 21
0.208584
 31
0.0
  0
LINE
  8
0
 62
     0
 10
-0.043337
 20
-1.811104
 30
0.0
 11
1.811104
 21
0.043337
 31
0.0
  0
LINE
  8
0
 62
     0
 10
0.138201
 20
-1.806343
 30
0.0
 11
1.806343
 21
-0.138201
 31
0.0
  0
LINE
  8
0
 62
     0
 10
0.342338
 20
-1.778983
 30
0.0
 11
1.778983
 21
-0.342338
 31
0.0
  0
LINE
  8
0
 62
     0
 10
0.582767
 20
-1.71533
 30
0.0
 11
1.71533
 21
-0.582767
 31
0.0
  0
LINE
  8
0
 62
     0
 10
0.906171
 20
-1.568703
 30
0.0
 11
1.568703
 21
-0.906171
 31
0.0
  0
ENDBLK
  8
0
  0
ENDSEC
  0
SECTION
  2
ENTITIES
  0
LINE
  8
BEM
 10
-0.0075
 20
6.340677
 30
0.0
 11
-2.635
 21
6.340677
 31
0.0
  0
LINE
  8
BEM
 10
0.130701
 20
1.806343
 30
0.0
 11
-2.635
 21
1.806343
 31
0.0
  0
LINE
  8
BEM
 10
-2.5
 20
6.078177
 30
0.0
 11
-2.5
 21
4.59851
 31
0.0
  0
LINE
  8
BEM
 10
-2.5
 20
2.068843
 30
0.0
 11
-2.5
 21
3.54851
 31
0.0
  0
SOLID
  8
BEM
 10
-2.45625
 20
6.078177
 30
0.0
 11
-2.54375
 21
6.078177
 31
0.0
 12
-2.5
 22
6.340677
 32
0.0
 13
-2.5
 23
6.340677
 33
0.0
  0
SOLID
  8
BEM
 10
-2.45625
 20
2.068843
 30
0.0
 11
-2.54375
 21
2.068843
 31
0.0
 12
-2.5
 22
1.806343
 32
0.0
 13
-2.5
 23
1.806343
 33
0.0
  0
TEXT
  8
BEM
 10
-2.36875
 20
3.81101
 30
0.0
 40
0.2625
  1
15"
 50
90.0
  0
LINE
  8
BEM
 10
-1.844283
 20
6.340677
 30
0.0
 11
-3.385
 21
6.340677
 31
0.0
  0
LINE
  8
BEM
 10
-1.844283
 20
-1.811622
 30
0.0
 11
-3.385
 21
-1.811622
 31
0.0
  0
LINE
  8
BEM
 10
-3.25
 20
6.078177
 30
0.0
 11
-3.25
 21
2.789528
 31
0.0
  0
LINE
  8
BEM
 10
-3.25
 20
-1.549122
 30
0.0
 11
-3.25
 21
1.739528
 31
0.0
  0
SOLID
  8
BEM
 10
-3.20625
 20
6.078177
 30
0.0
 11
-3.29375
 21
6.078177
 31
0.0
 12
-3.25
 22
6.340677
 32
0.0
 13
-3.25
 23
6.340677
 33
0.0
  0
SOLID
  8
BEM
 10
-3.20625
 20
-1.549122
 30
0.0
 11
-3.29375
 21
-1.549122
 31
0.0
 12
-3.25
 22
-1.811622
 32
0.0
 13
-3.25
 23
-1.811622
 33
0.0
  0
TEXT
  8
BEM
 10
-3.11875
 20
2.002028
 30
0.0
 40
0.2625
  1
21"
 50
90.0
  0
LINE
  8
BEM
 10
0.150969
 20
-0.0075
 30
0.0
 11
0.150969
 21
-2.385
 31
0.0
  0
LINE
  8
BEM
 10
0.603874
 20
-0.0075
 30
0.0
 11
0.603874
 21
-2.385
 31
0.0
  0
LINE
  8
BEM
 10
0.866374
 20
-2.25
 30
0.0
 11
1.128874
 21
-2.25
 31
0.0
  0
LINE
  8
BEM
 10
-0.111531
 20
-2.25
 30
0.0
 11
-0.374031
 21
-2.25
 31
0.0
  0
SOLID
  8
BEM
 10
0.866374
 20
-2.29375
 30
0.0
 11
0.866374
 21
-2.20625
 31
0.0
 12
0.603874
 22
-2.25
 32
0.0
 13
0.603874
 23
-2.25
 33
0.0
  0
SOLID
  8
BEM
 10
-0.111531
 20
-2.29375
 30
0.0
 11
-0.111531
 21
-2.20625
 31
0.0
 12
0.150969
 22
-2.25
 32
0.0
 13
0.150969
 23
-2.25
 33
0.0
  0
TEXT
  8
BEM
 10
1.391374
 20
-2.38125
 30
0.0
 40
0.2625
  1
1.5"
  0
LINE
  8
BEM
 10
-0.0075
 20
1.207748
 30
0.0
 11
-2.635
 21
1.207748
 31
0.0
  0
LINE
  8
BEM
 10
-0.0075
 20
0.0
 30
0.0
 11
-2.635
 21
0.0
 31
0.0
  0
LINE
  8
BEM
 10
-2.5
 20
-0.2625
 30
0.0
 11
-2.5
 21
-0.525
 31
0.0
  0
LINE
  8
BEM
 10
-2.5
 20
1.470248
 30
0.0
 11
-2.5
 21
1.732748
 31
0.0
  0
SOLID
  8
BEM
 10
-2.45625
 20
-0.2625
 30
0.0
 11
-2.54375
 21
-0.2625
 31
0.0
 12
-2.5
 22
0.0
 32
0.0
 13
-2.5
 23
0.0
 33
0.0
  0
SOLID
  8
BEM
 10
-2.45625
 20
1.470248
 30
0.0
 11
-2.54375
 21
1.470248
 31
0.0
 12
-2.5
 22
1.207748
 32
0.0
 13
-2.5
 23
1.207748
 33
0.0
  0
TEXT
  8
BEM
 10
-2.36875
 20
-1.1375
 30
0.0
 40
0.2625
  1
4"
 50
90.0
  0
INSERT
  8
0
  2
HOUSE
 10
0.0
 20
0.0
 30
0.0
  0
ENDSEC
  0
EOF
