  0
SECTION
  2
HEADER
  9
$ACADVER
  1
AC1006
  9
$INSBASE
 10
0.0
 20
0.0
 30
0.0
  9
$EXTMIN
 10
-1.757583
 20
-2.0234
  9
$EXTMAX
 10
-1.204211
 20
-0.492417
  9
$LIMMIN
 10
-2.0
 20
-2.0
  9
$LIMMAX
 10
2.0
 20
6.5
  9
$ORTHOMODE
 70
     0
  9
$REGENMODE
 70
     1
  9
$FILLMODE
 70
     1
  9
$QTEXTMODE
 70
     0
  9
$MIRRTEXT
 70
     1
  9
$DRAGMODE
 70
     2
  9
$LTSCALE
 40
0.1
  9
$OSMODE
 70
     0
  9
$ATTMODE
 70
     1
  9
$TEXTSIZE
 40
0.12
  9
$TRACEWID
 40
5.0
  9
$TEXTSTYLE
  7
ROMAN
  9
$CLAYER
  8
0
  9
$CELTYPE
  6
VONLAYER
  9
$CECOLOR
 62
   256
  9
$DIMSCALE
 40
0.013
  9
$DIMASZ
 40
3.5
  9
$DIMEXO
 40
0.1
  9
$DIMDLI
 40
7.0
  9
$DIMRND
 40
0.0
  9
$DIMDLE
 40
0.0
  9
$DIMEXE
 40
1.8
  9
$DIMTP
 40
0.0
  9
$DIMTM
 40
0.0
  9
$DIMTXT
 40
3.5
  9
$DIMCEN
 40
1.5
  9
$DIMTSZ
 40
0.0
  9
$DIMTOL
 70
     0
  9
$DIMLIM
 70
     0
  9
$DIMTIH
 70
     1
  9
$DIMTOH
 70
     1
  9
$DIMSE1
 70
     0
  9
$DIMSE2
 70
     0
  9
$DIMTAD
 70
     0
  9
$DIMZIN
 70
     0
  9
$DIMBLK
  1

  9
$DIMASO
 70
     1
  9
$DIMSHO
 70
     0
  9
$DIMPOST
  1

  9
$DIMAPOST
  1

  9
$DIMALT
 70
     0
  9
$DIMALTD
 70
     2
  9
$DIMALTF
 40
25.4
  9
$DIMLFAC
 40
1.0
  9
$DIMTOFL
 70
     0
  9
$DIMTVP
 40
0.0
  9
$DIMTIX
 70
     0
  9
$DIMSOXD
 70
     0
  9
$DIMSAH
 70
     0
  9
$DIMBLK1
  1

  9
$DIMBLK2
  1

  9
$LUNITS
 70
     2
  9
$LUPREC
 70
     2
  9
$AXISMODE
 70
     0
  9
$AXISUNIT
 10
0.0
 20
0.0
  9
$SKETCHINC
 40
1.0
  9
$FILLETRAD
 40
0.0
  9
$AUNITS
 70
     0
  9
$AUPREC
 70
     0
  9
$MENU
  1
ACAD
  9
$ELEVATION
 40
0.0
  9
$THICKNESS
 40
0.0
  9
$LIMCHECK
 70
     0
  9
$BLIPMODE
 70
     1
  9
$CHAMFERA
 40
0.0
  9
$CHAMFERB
 40
0.0
  9
$SKPOLY
 70
     0
  9
$TDCREATE
 40
2450749.5576049769
  9
$TDUPDATE
 40
2450751.0891134259
  9
$TDINDWG
 40
0.0101300926
  9
$TDUSRTIMER
 40
0.0101300926
  9
$USRTIMER
 70
     1
  9
$ANGBASE
 50
0.0
  9
$ANGDIR
 70
     0
  9
$PDMODE
 70
     0
  9
$PDSIZE
 40
0.0
  9
$PLINEWID
 40
0.0
  9
$COORDS
 70
     2
  9
$SPLFRAME
 70
     0
  9
$SPLINETYPE
 70
     6
  9
$SPLINESEGS
 70
     8
  9
$ATTDIA
 70
     0
  9
$ATTREQ
 70
     1
  9
$HANDLING
 70
     0
  9
$HANDSEED
  5
0
  9
$SURFTAB1
 70
     6
  9
$SURFTAB2
 70
     6
  9
$SURFTYPE
 70
     6
  9
$SURFU
 70
     6
  9
$SURFV
 70
     6
  9
$FLATLAND
 70
     1
  9
$UCSNAME
  2

  9
$UCSORG
 10
0.0
 20
0.0
 30
0.0
  9
$UCSXDIR
 10
1.0
 20
0.0
 30
0.0
  9
$UCSYDIR
 10
0.0
 20
1.0
 30
0.0
  9
$USERI1
 70
     0
  9
$USERI2
 70
     0
  9
$USERI3
 70
     0
  9
$USERI4
 70
     0
  9
$USERI5
 70
     0
  9
$USERR1
 40
0.0
  9
$USERR2
 40
0.0
  9
$USERR3
 40
0.0
  9
$USERR4
 40
0.0
  9
$USERR5
 40
0.0
  9
$WORLDVIEW
 70
     1
  9
$VIEWCTR
 10
-1.2026
 20
-1.25
  9
$VIEWSIZE
 40
8.5
  9
$SNAPMODE
 70
     0
  9
$SNAPUNIT
 10
0.25
 20
0.25
  9
$SNAPBASE
 10
0.0
 20
0.0
  9
$SNAPANG
 50
0.0
  9
$SNAPSTYLE
 70
     0
  9
$SNAPISOPAIR
 70
     0
  9
$GRIDMODE
 70
     1
  9
$GRIDUNIT
 10
0.0
 20
0.0
  9
$FASTZOOM
 70
     1
  9
$VIEWDIR
 10
0.0
 20
0.0
 30
1.0
  0
ENDSEC
  0
SECTION
  2
TABLES
  0
TABLE
  2
VPORT
 70
     2
  0
VPORT
  2
*ACTIVE
 70
     0
 10
0.0
 20
0.0
 11
1.0
 21
1.0
 12
-1.2026
 22
-1.25
 13
0.0
 23
0.0
 14
0.25
 24
0.25
 15
0.0
 25
0.0
 16
0.0
 26
0.0
 36
1.0
 17
0.0
 27
0.0
 37
0.0
 40
2.0
 41
1.635702
 42
50.0
 43
0.0
 44
0.0
 50
0.0
 51
0.0
 71
     0
 72
   100
 73
     1
 74
     1
 75
     0
 76
     1
 77
     0
 78
     0
  0
ENDTAB
  0
TABLE
  2
LTYPE
 70
    12
  0
LTYPE
  2
AUSGEZOGEN
 70
    64
  3
Ausgezogene Linie
 72
    65
 73
     0
 40
0.0
  0
LTYPE
  2
VERDECKT
 70
     0
  3
_ _ _ _ _ _ _ _ _ _ _ _ _ _ _ _ _ _ _ _ _ _ _
 72
    65
 73
     2
 40
0.375
 49
0.25
 49
-0.125
  0
LTYPE
  2
GESTRICHELT
 70
     0
  3
__ __ __ __ __ __ __ __ __ __ __ __ __ __ __
 72
    65
 73
     2
 40
0.75
 49
0.5
 49
-0.25
  0
LTYPE
  2
MITTE
 70
     0
  3
____ _ ____ _ ____ _ ____ _ ____ _ ____ _ ____
 72
    65
 73
     4
 40
2.0
 49
1.25
 49
-0.25
 49
0.25
 49
-0.25
  0
LTYPE
  2
PHANTOM
 70
     0
  3
_____ _ _ _____ _ _ _____ _ _ _____ _ _ ____
 72
    65
 73
     6
 40
2.5
 49
1.25
 49
-0.25
 49
0.25
 49
-0.25
 49
0.25
 49
-0.25
  0
LTYPE
  2
PUNKT
 70
     0
  3
...............................................
 72
    65
 73
     2
 40
0.25
 49
0.0
 49
-0.25
  0
LTYPE
  2
STRICHPUNKT
 70
     0
  3
__ . __ . __ . __ . __ . __ . __ . __ . __ . __
 72
    65
 73
     4
 40
1.0
 49
0.5
 49
-0.25
 49
0.0
 49
-0.25
  0
LTYPE
  2
RAND
 70
     0
  3
__ __ . __ __ . __ __ . __ __ . __ __ . __ __
 72
    65
 73
     6
 40
1.75
 49
0.5
 49
-0.25
 49
0.5
 49
-0.25
 49
0.0
 49
-0.25
  0
LTYPE
  2
GETRENNT
 70
     0
  3
__ . . __ . . __ . . __ . . __ . . __ . . __
 72
    65
 73
     6
 40
1.25
 49
0.5
 49
-0.25
 49
0.0
 49
-0.25
 49
0.0
 49
-0.25
  0
LTYPE
  2
CONTINUOUS
 70
     0
  3
Eine "Dummy" fuer englische DXF-Dateien
 72
    65
 73
     2
 40
1.0
 49
1.0
 49
0.0
  0
LTYPE
  2
HIDDEN
 70
     0
  3
_ _ _ _ _ _ _ _ _ _ _ _ _ _ _ _ _ _ _ _ _ _ _
 72
    65
 73
     2
 40
0.375
 49
0.25
 49
-0.125
  0
LTYPE
  2
DASHED
 70
     0
  3
__ __ __ __ __ __ __ __ __ __ __ __ __ __ __
 72
    65
 73
     2
 40
0.75
 49
0.5
 49
-0.25
  0
ENDTAB
  0
TABLE
  2
LAYER
 70
     2
  0
LAYER
  2
0
 70
    64
 62
     7
  6
AUSGEZOGEN
  0
LAYER
  2
DEFPOINTS
 70
    64
 62
    -7
  6
AUSGEZOGEN
  0
ENDTAB
  0
TABLE
  2
STYLE
 70
     7
  0
STYLE
  2
STANDARD
 70
     0
 40
0.0
 41
1.0
 50
0.0
 71
     0
 42
3.5
  3
txt
  4

  0
STYLE
  2
KURSIV
 70
     0
 40
0.0
 41
1.0
 50
0.0
 71
     0
 42
3.5
  3
Italic
  4

  0
STYLE
  2
KOMPLEX
 70
     0
 40
0.0
 41
1.2
 50
0.0
 71
     0
 42
3.5
  3
Complex
  4

  0
STYLE
  2
MONOTXT
 70
     0
 40
0.0
 41
1.0
 50
0.0
 71
     0
 42
3.5
  3
Monotxt
  4

  0
STYLE
  2
SIMPLEX
 70
     0
 40
0.0
 41
1.0
 50
0.0
 71
     0
 42
3.5
  3
Simplex
  4

  0
STYLE
  2
VERTIKAL
 70
     0
 40
0.0
 41
1.0
 50
0.0
 71
     0
 42
3.5
  3
COMPLEX
  4

  0
STYLE
  2
ROMAN
 70
    64
 40
0.0
 41
1.0
 50
0.0
 71
     0
 42
0.12
  3
romanc
  4

  0
ENDTAB
  0
TABLE
  2
VIEW
 70
     1
  0
VIEW
  2
FIG11
 70
     0
 40
2.0
 10
-1.5
 20
-1.25
 41
1.0
 11
0.0
 21
0.0
 31
1.0
 12
0.0
 22
0.0
 32
0.0
 42
50.0
 43
0.0
 44
0.0
 50
0.0
 71
     0
  0
ENDTAB
  0
TABLE
  2
UCS
 70
     0
  0
ENDTAB
  0
TABLE
  2
DWGMGR
 70
     0
  0
ENDTAB
  0
ENDSEC
  0
SECTION
  2
BLOCKS
  0
BLOCK
  8
0
  2
*D3
 70
    65
 10
0.0
 20
0.0
  0
LINE
  8
0
  6
VONBLOCK
 62
     0
 10
-1.643982
 20
-2.0013
 11
-1.643982
 21
-2.0234
  0
LINE
  8
0
  6
VONBLOCK
 62
     0
 10
-1.356018
 20
-2.0013
 11
-1.356018
 21
-2.0234
  0
LINE
  8
0
  6
VONBLOCK
 62
     0
 10
-1.598482
 20
-2.0
 11
-1.562833
 21
-2.0
  0
LINE
  8
0
  6
VONBLOCK
 62
     0
 10
-1.401518
 20
-2.0
 11
-1.437167
 21
-2.0
  0
SOLID
  8
0
  6
VONBLOCK
 62
     0
 10
-1.598482
 20
-2.007583
 11
-1.598482
 21
-1.992417
 12
-1.643982
 22
-2.0
 13
-1.643982
 23
-2.0
  0
SOLID
  8
0
  6
VONBLOCK
 62
     0
 10
-1.401518
 20
-2.007583
 11
-1.401518
 21
-1.992417
 12
-1.356018
 22
-2.0
 13
-1.356018
 23
-2.0
  0
TEXT
  8
0
  6
VONBLOCK
 62
     0
 10
-1.517333
 20
-2.02275
 40
0.0455
  1
d
  7
ROMAN
  0
POINT
  8
DEFPOINTS
  6
VONBLOCK
 62
     0
 10
-1.643982
 20
-2.0
  0
POINT
  8
DEFPOINTS
  6
VONBLOCK
 62
     0
 10
-1.356018
 20
-2.0
  0
POINT
  8
DEFPOINTS
  6
VONBLOCK
 62
     0
 10
-1.356018
 20
-2.0
  0
ENDBLK
  8
0
  0
BLOCK
  8
0
  2
*D4
 70
    65
 10
0.0
 20
0.0
  0
LINE
  8
0
  6
VONBLOCK
 62
     0
 10
-1.7487
 20
-1.728821
 11
-1.7266
 21
-1.728821
  0
LINE
  8
0
  6
VONBLOCK
 62
     0
 10
-1.7487
 20
-0.75
 11
-1.7266
 21
-0.75
  0
LINE
  8
0
  6
VONBLOCK
 62
     0
 10
-1.75
 20
-1.683321
 11
-1.75
 21
-1.30766
  0
LINE
  8
0
  6
VONBLOCK
 62
     0
 10
-1.75
 20
-0.7955
 11
-1.75
 21
-1.17116
  0
SOLID
  8
0
  6
VONBLOCK
 62
     0
 10
-1.742417
 20
-1.683321
 11
-1.757583
 21
-1.683321
 12
-1.75
 22
-1.728821
 13
-1.75
 23
-1.728821
  0
SOLID
  8
0
  6
VONBLOCK
 62
     0
 10
-1.742417
 20
-0.7955
 11
-1.757583
 21
-0.7955
 12
-1.75
 22
-0.75
 13
-1.75
 23
-0.75
  0
TEXT
  8
0
  6
VONBLOCK
 62
     0
 10
-1.757583
 20
-1.26216
 40
0.0455
  1
l
  7
ROMAN
  0
POINT
  8
DEFPOINTS
  6
VONBLOCK
 62
     0
 10
-1.75
 20
-1.728821
  0
POINT
  8
DEFPOINTS
  6
VONBLOCK
 62
     0
 10
-1.75
 20
-0.75
  0
POINT
  8
DEFPOINTS
  6
VONBLOCK
 62
     0
 10
-1.75
 20
-0.75
  0
ENDBLK
  8
0
  0
BLOCK
  8
0
  2
*D5
 70
    65
 10
0.0
 20
0.0
  0
LINE
  8
0
  6
VONBLOCK
 62
     0
 10
-1.521179
 20
-0.5013
 11
-1.521179
 21
-0.5234
  0
LINE
  8
0
  6
VONBLOCK
 62
     0
 10
-1.478821
 20
-0.5013
 11
-1.478821
 21
-0.5234
  0
LINE
  8
0
  6
VONBLOCK
 62
     0
 10
-1.433321
 20
-0.5
 11
-1.387821
 21
-0.5
  0
LINE
  8
0
  6
VONBLOCK
 62
     0
 10
-1.566679
 20
-0.5
 11
-1.612179
 21
-0.5
  0
SOLID
  8
0
  6
VONBLOCK
 62
     0
 10
-1.433321
 20
-0.507583
 11
-1.433321
 21
-0.492417
 12
-1.478821
 22
-0.5
 13
-1.478821
 23
-0.5
  0
SOLID
  8
0
  6
VONBLOCK
 62
     0
 10
-1.566679
 20
-0.507583
 11
-1.566679
 21
-0.492417
 12
-1.521179
 22
-0.5
 13
-1.521179
 23
-0.5
  0
TEXT
  8
0
  6
VONBLOCK
 62
     0
 10
-1.342321
 20
-0.52275
 40
0.0455
  1
a
  7
ROMAN
  0
POINT
  8
DEFPOINTS
  6
VONBLOCK
 62
     0
 10
-1.521179
 20
-0.5
  0
POINT
  8
DEFPOINTS
  6
VONBLOCK
 62
     0
 10
-1.478821
 20
-0.5
  0
POINT
  8
DEFPOINTS
  6
VONBLOCK
 62
     0
 10
-1.478821
 20
-0.5
  0
ENDBLK
  8
0
  0
BLOCK
  8
0
  2
*D6
 70
    65
 10
0.0
 20
0.0
  0
LINE
  8
0
  6
VONBLOCK
 62
     0
 10
-1.7487
 20
-0.75
 11
-1.7266
 21
-0.75
  0
LINE
  8
0
  6
VONBLOCK
 62
     0
 10
-1.7487
 20
-0.606018
 11
-1.7266
 21
-0.606018
  0
LINE
  8
0
  6
VONBLOCK
 62
     0
 10
-1.75
 20
-0.560518
 11
-1.75
 21
-0.515018
  0
LINE
  8
0
  6
VONBLOCK
 62
     0
 10
-1.75
 20
-0.7955
 11
-1.75
 21
-0.841
  0
LINE
  8
0
  6
VONBLOCK
 62
     0
 10
-1.75
 20
-0.515018
 11
-1.7045
 21
-0.515018
  0
SOLID
  8
0
  6
VONBLOCK
 62
     0
 10
-1.742417
 20
-0.560518
 11
-1.757583
 21
-0.560518
 12
-1.75
 22
-0.606018
 13
-1.75
 23
-0.606018
  0
SOLID
  8
0
  6
VONBLOCK
 62
     0
 10
-1.742417
 20
-0.7955
 11
-1.757583
 21
-0.7955
 12
-1.75
 22
-0.75
 13
-1.75
 23
-0.75
  0
TEXT
  8
0
  6
VONBLOCK
 62
     0
 10
-1.659
 20
-0.537768
 40
0.0455
  1
r
  7
ROMAN
  0
POINT
  8
DEFPOINTS
  6
VONBLOCK
 62
     0
 10
-1.75
 20
-0.75
  0
POINT
  8
DEFPOINTS
  6
VONBLOCK
 62
     0
 10
-1.75
 20
-0.606018
  0
POINT
  8
DEFPOINTS
  6
VONBLOCK
 62
     0
 10
-1.75
 20
-0.606018
  0
ENDBLK
  8
0
  0
ENDSEC
  0
SECTION
  2
ENTITIES
  0
CIRCLE
  8
0
 10
-1.5
 20
-0.75
 40
0.145531
  0
CIRCLE
  8
0
 10
-1.5
 20
-1.75
 40
0.145531
  0
LINE
  8
0
 10
-1.478821
 20
-0.606018
 11
-1.643982
 21
-1.728821
  0
LINE
  8
0
 10
-1.521179
 20
-0.606018
 11
-1.356018
 21
-1.728821
  0
LINE
  8
0
 10
-1.643982
 20
-1.728821
 11
-1.356018
 21
-1.728821
  0
LINE
  8
0
 10
-1.478821
 20
-0.606018
 11
-1.521179
 21
-0.606018
  0
DIMENSION
  8
0
  2
*D4
 10
-1.75
 20
-0.75
 11
-1.75
 21
-1.23941
  1
l
 13
-1.75
 23
-1.728821
 14
-1.75
 24
-0.75
 50
90.0
  0
DIMENSION
  8
0
  2
*D6
 10
-1.75
 20
-0.606018
 11
-1.644917
 21
-0.515018
  1
r
 13
-1.75
 23
-0.75
 14
-1.75
 24
-0.606018
 50
90.0
  0
DIMENSION
  8
0
  2
*D3
 10
-1.356018
 20
-2.0
 11
-1.5
 21
-2.0
  1
d
 13
-1.643982
 23
-2.0
 14
-1.356018
 24
-2.0
  0
DIMENSION
  8
0
  2
*D5
 10
-1.478821
 20
-0.5
 11
-1.326071
 21
-0.5
  1
a
 13
-1.521179
 23
-0.5
 14
-1.478821
 24
-0.5
  0
TEXT
  8
0
 10
-1.312783
 20
-0.800176
 40
0.12
  1
B
  7
ROMAN
  0
TEXT
  8
0
 10
-1.317473
 20
-1.78257
 40
0.12
  1
C
  7
ROMAN
  0
ENDSEC
  0
EOF
