  0
SECTION
  2
HEADER
  9
$ACADVER
  1
AC1006
  9
$INSBASE
 10
0.0
 20
0.0
 30
0.0
  9
$EXTMIN
 10
-1.46369
 20
-1.413887
  9
$EXTMAX
 10
-0.4627
 20
-0.273864
  9
$LIMMIN
 10
-2.0
 20
-2.0
  9
$LIMMAX
 10
2.0
 20
6.5
  9
$ORTHOMODE
 70
     0
  9
$REGENMODE
 70
     1
  9
$FILLMODE
 70
     1
  9
$QTEXTMODE
 70
     0
  9
$MIRRTEXT
 70
     1
  9
$DRAGMODE
 70
     2
  9
$LTSCALE
 40
0.1
  9
$OSMODE
 70
     0
  9
$ATTMODE
 70
     1
  9
$TEXTSIZE
 40
0.05
  9
$TRACEWID
 40
5.0
  9
$TEXTSTYLE
  7
ROMAN
  9
$CLAYER
  8
0
  9
$CELTYPE
  6
VONLAYER
  9
$CECOLOR
 62
   256
  9
$DIMSCALE
 40
0.01
  9
$DIMASZ
 40
3.5
  9
$DIMEXO
 40
0.1
  9
$DIMDLI
 40
7.0
  9
$DIMRND
 40
0.0
  9
$DIMDLE
 40
0.0
  9
$DIMEXE
 40
1.8
  9
$DIMTP
 40
0.0
  9
$DIMTM
 40
0.0
  9
$DIMTXT
 40
3.5
  9
$DIMCEN
 40
1.5
  9
$DIMTSZ
 40
0.0
  9
$DIMTOL
 70
     0
  9
$DIMLIM
 70
     0
  9
$DIMTIH
 70
     1
  9
$DIMTOH
 70
     1
  9
$DIMSE1
 70
     0
  9
$DIMSE2
 70
     0
  9
$DIMTAD
 70
     0
  9
$DIMZIN
 70
     0
  9
$DIMBLK
  1

  9
$DIMASO
 70
     1
  9
$DIMSHO
 70
     0
  9
$DIMPOST
  1

  9
$DIMAPOST
  1

  9
$DIMALT
 70
     0
  9
$DIMALTD
 70
     2
  9
$DIMALTF
 40
25.4
  9
$DIMLFAC
 40
1.0
  9
$DIMTOFL
 70
     0
  9
$DIMTVP
 40
0.0
  9
$DIMTIX
 70
     0
  9
$DIMSOXD
 70
     0
  9
$DIMSAH
 70
     0
  9
$DIMBLK1
  1

  9
$DIMBLK2
  1

  9
$LUNITS
 70
     2
  9
$LUPREC
 70
     2
  9
$AXISMODE
 70
     0
  9
$AXISUNIT
 10
0.0
 20
0.0
  9
$SKETCHINC
 40
1.0
  9
$FILLETRAD
 40
0.0
  9
$AUNITS
 70
     0
  9
$AUPREC
 70
     0
  9
$MENU
  1
ACAD
  9
$ELEVATION
 40
0.0
  9
$THICKNESS
 40
0.0
  9
$LIMCHECK
 70
     0
  9
$BLIPMODE
 70
     1
  9
$CHAMFERA
 40
0.0
  9
$CHAMFERB
 40
0.0
  9
$SKPOLY
 70
     0
  9
$TDCREATE
 40
2450749.6909957174
  9
$TDUPDATE
 40
2450751.1292865742
  9
$TDINDWG
 40
0.0062103009
  9
$TDUSRTIMER
 40
0.0062103009
  9
$USRTIMER
 70
     1
  9
$ANGBASE
 50
0.0
  9
$ANGDIR
 70
     0
  9
$PDMODE
 70
     0
  9
$PDSIZE
 40
0.0
  9
$PLINEWID
 40
0.0
  9
$COORDS
 70
     2
  9
$SPLFRAME
 70
     0
  9
$SPLINETYPE
 70
     6
  9
$SPLINESEGS
 70
     8
  9
$ATTDIA
 70
     0
  9
$ATTREQ
 70
     1
  9
$HANDLING
 70
     0
  9
$HANDSEED
  5
0
  9
$SURFTAB1
 70
     6
  9
$SURFTAB2
 70
     6
  9
$SURFTYPE
 70
     6
  9
$SURFU
 70
     6
  9
$SURFV
 70
     6
  9
$FLATLAND
 70
     1
  9
$UCSNAME
  2

  9
$UCSORG
 10
0.0
 20
0.0
 30
0.0
  9
$UCSXDIR
 10
1.0
 20
0.0
 30
0.0
  9
$UCSYDIR
 10
0.0
 20
1.0
 30
0.0
  9
$USERI1
 70
     0
  9
$USERI2
 70
     0
  9
$USERI3
 70
     0
  9
$USERI4
 70
     0
  9
$USERI5
 70
     0
  9
$USERR1
 40
0.0
  9
$USERR2
 40
0.0
  9
$USERR3
 40
0.0
  9
$USERR4
 40
0.0
  9
$USERR5
 40
0.0
  9
$WORLDVIEW
 70
     1
  9
$VIEWCTR
 10
-0.740352
 20
-0.863436
  9
$VIEWSIZE
 40
8.5
  9
$SNAPMODE
 70
     0
  9
$SNAPUNIT
 10
0.25
 20
0.25
  9
$SNAPBASE
 10
0.0
 20
0.0
  9
$SNAPANG
 50
0.0
  9
$SNAPSTYLE
 70
     0
  9
$SNAPISOPAIR
 70
     0
  9
$GRIDMODE
 70
     1
  9
$GRIDUNIT
 10
0.0
 20
0.0
  9
$FASTZOOM
 70
     1
  9
$VIEWDIR
 10
0.0
 20
0.0
 30
1.0
  0
ENDSEC
  0
SECTION
  2
TABLES
  0
TABLE
  2
VPORT
 70
     2
  0
VPORT
  2
*ACTIVE
 70
     0
 10
0.0
 20
0.0
 11
1.0
 21
1.0
 12
-0.740352
 22
-0.863436
 13
0.0
 23
0.0
 14
0.25
 24
0.25
 15
0.0
 25
0.0
 16
0.0
 26
0.0
 36
1.0
 17
0.0
 27
0.0
 37
0.0
 40
1.273128
 41
1.635702
 42
50.0
 43
0.0
 44
0.0
 50
0.0
 51
0.0
 71
     0
 72
   100
 73
     1
 74
     1
 75
     0
 76
     1
 77
     0
 78
     0
  0
ENDTAB
  0
TABLE
  2
LTYPE
 70
    12
  0
LTYPE
  2
AUSGEZOGEN
 70
    64
  3
Ausgezogene Linie
 72
    65
 73
     0
 40
0.0
  0
LTYPE
  2
VERDECKT
 70
    64
  3
_ _ _ _ _ _ _ _ _ _ _ _ _ _ _ _ _ _ _ _ _ _ _
 72
    65
 73
     2
 40
0.375
 49
0.25
 49
-0.125
  0
LTYPE
  2
GESTRICHELT
 70
     0
  3
__ __ __ __ __ __ __ __ __ __ __ __ __ __ __
 72
    65
 73
     2
 40
0.75
 49
0.5
 49
-0.25
  0
LTYPE
  2
MITTE
 70
     0
  3
____ _ ____ _ ____ _ ____ _ ____ _ ____ _ ____
 72
    65
 73
     4
 40
2.0
 49
1.25
 49
-0.25
 49
0.25
 49
-0.25
  0
LTYPE
  2
PHANTOM
 70
     0
  3
_____ _ _ _____ _ _ _____ _ _ _____ _ _ ____
 72
    65
 73
     6
 40
2.5
 49
1.25
 49
-0.25
 49
0.25
 49
-0.25
 49
0.25
 49
-0.25
  0
LTYPE
  2
PUNKT
 70
     0
  3
...............................................
 72
    65
 73
     2
 40
0.25
 49
0.0
 49
-0.25
  0
LTYPE
  2
STRICHPUNKT
 70
     0
  3
__ . __ . __ . __ . __ . __ . __ . __ . __ . __
 72
    65
 73
     4
 40
1.0
 49
0.5
 49
-0.25
 49
0.0
 49
-0.25
  0
LTYPE
  2
RAND
 70
     0
  3
__ __ . __ __ . __ __ . __ __ . __ __ . __ __
 72
    65
 73
     6
 40
1.75
 49
0.5
 49
-0.25
 49
0.5
 49
-0.25
 49
0.0
 49
-0.25
  0
LTYPE
  2
GETRENNT
 70
     0
  3
__ . . __ . . __ . . __ . . __ . . __ . . __
 72
    65
 73
     6
 40
1.25
 49
0.5
 49
-0.25
 49
0.0
 49
-0.25
 49
0.0
 49
-0.25
  0
LTYPE
  2
CONTINUOUS
 70
     0
  3
Eine "Dummy" fuer englische DXF-Dateien
 72
    65
 73
     2
 40
1.0
 49
1.0
 49
0.0
  0
LTYPE
  2
HIDDEN
 70
     0
  3
_ _ _ _ _ _ _ _ _ _ _ _ _ _ _ _ _ _ _ _ _ _ _
 72
    65
 73
     2
 40
0.375
 49
0.25
 49
-0.125
  0
LTYPE
  2
DASHED
 70
     0
  3
__ __ __ __ __ __ __ __ __ __ __ __ __ __ __
 72
    65
 73
     2
 40
0.75
 49
0.5
 49
-0.25
  0
ENDTAB
  0
TABLE
  2
LAYER
 70
     3
  0
LAYER
  2
0
 70
    64
 62
     7
  6
AUSGEZOGEN
  0
LAYER
  2
DEFPOINTS
 70
     0
 62
    -7
  6
AUSGEZOGEN
  0
LAYER
  2
HOUSE
 70
     1
 62
    -7
  6
AUSGEZOGEN
  0
ENDTAB
  0
TABLE
  2
STYLE
 70
     7
  0
STYLE
  2
STANDARD
 70
     0
 40
0.0
 41
1.0
 50
0.0
 71
     0
 42
3.5
  3
txt
  4

  0
STYLE
  2
KURSIV
 70
     0
 40
0.0
 41
1.0
 50
0.0
 71
     0
 42
3.5
  3
Italic
  4

  0
STYLE
  2
KOMPLEX
 70
     0
 40
0.0
 41
1.2
 50
0.0
 71
     0
 42
3.5
  3
Complex
  4

  0
STYLE
  2
MONOTXT
 70
     0
 40
0.0
 41
1.0
 50
0.0
 71
     0
 42
3.5
  3
Monotxt
  4

  0
STYLE
  2
SIMPLEX
 70
     0
 40
0.0
 41
1.0
 50
0.0
 71
     0
 42
3.5
  3
Simplex
  4

  0
STYLE
  2
VERTIKAL
 70
     0
 40
0.0
 41
1.0
 50
0.0
 71
     0
 42
3.5
  3
COMPLEX
  4

  0
STYLE
  2
ROMAN
 70
    64
 40
0.0
 41
1.0
 50
0.0
 71
     0
 42
0.05
  3
romanc
  4

  0
ENDTAB
  0
TABLE
  2
VIEW
 70
     1
  0
VIEW
  2
FIG18
 70
     0
 40
1.273128
 10
-0.929667
 20
-0.863436
 41
1.140667
 11
0.0
 21
0.0
 31
1.0
 12
0.0
 22
0.0
 32
0.0
 42
50.0
 43
0.0
 44
0.0
 50
0.0
 71
     0
  0
ENDTAB
  0
TABLE
  2
UCS
 70
     0
  0
ENDTAB
  0
TABLE
  2
DWGMGR
 70
     0
  0
ENDTAB
  0
ENDSEC
  0
SECTION
  2
BLOCKS
  0
BLOCK
  8
0
  2
ROCKL
 70
     0
 10
0.0
 20
0.0
  0
INSERT
  8
0
  2
*X1
 10
-10.04
 20
-10.02
  0
CIRCLE
  8
0
 10
0.0
 20
0.0
 40
0.145531
  0
POLYLINE
  8
0
 66
     1
 70
     1
  0
VERTEX
  8
0
 10
-0.001
 20
0.02
  0
VERTEX
  8
0
 10
0.001
 20
0.02
 42
-0.414214
  0
VERTEX
  8
0
 10
0.01
 20
0.011
  0
VERTEX
  8
0
 10
0.01
 20
-0.081
 42
-0.414214
  0
VERTEX
  8
0
 10
0.001
 20
-0.09
  0
VERTEX
  8
0
 10
-0.001
 20
-0.09
 42
-0.414214
  0
VERTEX
  8
0
 10
-0.01
 20
-0.081
  0
VERTEX
  8
0
 10
-0.01
 20
0.011
 42
-0.414214
  0
SEQEND
  8
0
  0
CIRCLE
  8
0
 10
0.0
 20
0.0
 40
0.105531
  0
ENDBLK
  8
0
  0
BLOCK
  8
0
  2
*X1
 70
    65
 10
0.0
 20
0.0
  0
LINE
  8
0
 62
     0
 10
10.03
 20
9.976967
 11
10.05
 21
9.996967
  0
LINE
  8
0
 62
     0
 10
10.03
 20
9.985806
 11
10.05
 21
10.005806
  0
LINE
  8
0
 62
     0
 10
10.03
 20
9.994645
 11
10.05
 21
10.014645
  0
LINE
  8
0
 62
     0
 10
10.03
 20
10.003483
 11
10.05
 21
10.023483
  0
LINE
  8
0
 62
     0
 10
10.03
 20
10.012322
 11
10.049915
 21
10.032237
  0
LINE
  8
0
 62
     0
 10
10.03
 20
10.021161
 11
10.046757
 21
10.037918
  0
LINE
  8
0
 62
     0
 10
10.03
 20
10.03
 11
10.04
 21
10.04
  0
LINE
  8
0
 62
     0
 10
10.03
 20
9.968128
 11
10.05
 21
9.988128
  0
LINE
  8
0
 62
     0
 10
10.03
 20
9.959289
 11
10.05
 21
9.979289
  0
LINE
  8
0
 62
     0
 10
10.03
 20
9.95045
 11
10.05
 21
9.97045
  0
LINE
  8
0
 62
     0
 10
10.03
 20
9.941612
 11
10.05
 21
9.961612
  0
LINE
  8
0
 62
     0
 10
10.031402
 20
9.934175
 11
10.05
 21
9.952773
  0
LINE
  8
0
 62
     0
 10
10.036438
 20
9.930372
 11
10.05
 21
9.943934
  0
ENDBLK
  8
0
  0
BLOCK
  8
0
  2
ROCK
 70
     0
 10
0.0
 20
0.0
  0
CIRCLE
  8
0
 10
0.0
 20
0.0
 40
0.145531
  0
ENDBLK
  8
0
  0
BLOCK
  8
0
  2
HOUSE
 70
     0
 10
0.0
 20
0.0
  0
INSERT
  8
0
  2
HOUSEO
 10
0.0
 20
0.0
  0
INSERT
  8
0
  2
*X4
 10
0.0
 20
0.0
 50
90.0
  0
ENDBLK
  8
0
  0
BLOCK
  8
0
  2
*X4
 70
    65
 10
0.0
 20
0.0
  0
LINE
  8
0
 62
     0
 10
-1.28101
 20
-1.28101
 11
-0.854007
 21
-0.854007
  0
LINE
  8
0
 62
     0
 10
0.854007
 20
0.854007
 11
1.28101
 21
1.28101
  0
LINE
  8
0
 62
     0
 10
-0.427003
 20
-0.427003
 11
-0.106751
 21
-0.106751
  0
LINE
  8
0
 62
     0
 10
0.106751
 20
0.106751
 11
0.427003
 21
0.427003
  0
LINE
  8
0
 62
     0
 10
-1.366346
 20
-1.189569
 11
-0.937809
 21
-0.761032
  0
LINE
  8
0
 62
     0
 10
0.761032
 20
0.937809
 11
1.189569
 21
1.366346
  0
LINE
  8
0
 62
     0
 10
-0.506144
 20
-0.329367
 11
-0.148249
 21
0.028528
  0
LINE
  8
0
 62
     0
 10
-0.028528
 20
0.148249
 11
0.329367
 21
0.506144
  0
LINE
  8
0
 62
     0
 10
-1.445531
 20
-1.091978
 11
-1.012287
 21
-0.658734
  0
LINE
  8
0
 62
     0
 10
0.658734
 20
1.012287
 11
1.091978
 21
1.445531
  0
LINE
  8
0
 62
     0
 10
-0.565469
 20
-0.211916
 11
0.211916
 21
0.565469
  0
LINE
  8
0
 62
     0
 10
-1.518431
 20
-0.988101
 11
-1.076963
 21
-0.546632
  0
LINE
  8
0
 62
     0
 10
0.546632
 20
1.076963
 11
0.988101
 21
1.518431
  0
LINE
  8
0
 62
     0
 10
-0.599858
 20
-0.069528
 11
0.069528
 21
0.599858
  0
LINE
  8
0
 62
     0
 10
-1.584808
 20
-0.877701
 11
-1.130939
 21
-0.423832
  0
LINE
  8
0
 62
     0
 10
0.423832
 20
1.130939
 11
0.877701
 21
1.584808
  0
LINE
  8
0
 62
     0
 10
-0.592994
 20
0.114113
 11
-0.114113
 21
0.592994
  0
LINE
  8
0
 62
     0
 10
-1.644304
 20
-0.76042
 11
-1.172705
 21
-0.288822
  0
LINE
  8
0
 62
     0
 10
0.288822
 20
1.172705
 11
0.76042
 21
1.644304
  0
LINE
  8
0
 62
     0
 10
-1.696408
 20
-0.635748
 11
-1.199716
 21
-0.139056
  0
LINE
  8
0
 62
     0
 10
0.139056
 20
1.199716
 11
0.635748
 21
1.696408
  0
LINE
  8
0
 62
     0
 10
-1.740402
 20
-0.502965
 11
-1.207374
 21
0.030063
  0
LINE
  8
0
 62
     0
 10
-0.030063
 20
1.207374
 11
0.502965
 21
1.740402
  0
LINE
  8
0
 62
     0
 10
-1.775277
 20
-0.361063
 11
-1.185988
 21
0.228225
  0
LINE
  8
0
 62
     0
 10
-0.228225
 20
1.185988
 11
0.361063
 21
1.775277
  0
LINE
  8
0
 62
     0
 10
-1.799574
 20
-0.208584
 11
-1.106164
 21
0.484826
  0
LINE
  8
0
 62
     0
 10
-0.484826
 20
1.106164
 11
0.208584
 21
1.799574
  0
LINE
  8
0
 62
     0
 10
-1.811104
 20
-0.043337
 11
0.043337
 21
1.811104
  0
LINE
  8
0
 62
     0
 10
-1.806343
 20
0.138201
 11
-0.138201
 21
1.806343
  0
LINE
  8
0
 62
     0
 10
-1.778983
 20
0.342338
 11
-0.342338
 21
1.778983
  0
LINE
  8
0
 62
     0
 10
-1.71533
 20
0.582767
 11
-0.582767
 21
1.71533
  0
LINE
  8
0
 62
     0
 10
-1.568703
 20
0.906171
 11
-0.906171
 21
1.568703
  0
LINE
  8
0
 62
     0
 10
-1.189569
 20
-1.366346
 11
-0.761032
 21
-0.937809
  0
LINE
  8
0
 62
     0
 10
0.937809
 20
0.761032
 11
1.366346
 21
1.189569
  0
LINE
  8
0
 62
     0
 10
-0.329367
 20
-0.506144
 11
0.028528
 21
-0.148249
  0
LINE
  8
0
 62
     0
 10
0.148249
 20
-0.028528
 11
0.506144
 21
0.329367
  0
LINE
  8
0
 62
     0
 10
-1.091978
 20
-1.445531
 11
-0.658734
 21
-1.012287
  0
LINE
  8
0
 62
     0
 10
1.012287
 20
0.658734
 11
1.445531
 21
1.091978
  0
LINE
  8
0
 62
     0
 10
-0.211916
 20
-0.565469
 11
0.565469
 21
0.211916
  0
LINE
  8
0
 62
     0
 10
-0.988101
 20
-1.518431
 11
-0.546632
 21
-1.076963
  0
LINE
  8
0
 62
     0
 10
1.076963
 20
0.546632
 11
1.518431
 21
0.988101
  0
LINE
  8
0
 62
     0
 10
-0.069528
 20
-0.599858
 11
0.599858
 21
0.069528
  0
LINE
  8
0
 62
     0
 10
-0.877701
 20
-1.584808
 11
-0.423832
 21
-1.130939
  0
LINE
  8
0
 62
     0
 10
1.130939
 20
0.423832
 11
1.584808
 21
0.877701
  0
LINE
  8
0
 62
     0
 10
0.114113
 20
-0.592994
 11
0.592994
 21
-0.114113
  0
LINE
  8
0
 62
     0
 10
-0.76042
 20
-1.644304
 11
-0.288822
 21
-1.172705
  0
LINE
  8
0
 62
     0
 10
1.172705
 20
0.288822
 11
1.644304
 21
0.76042
  0
LINE
  8
0
 62
     0
 10
-0.635748
 20
-1.696408
 11
-0.139056
 21
-1.199716
  0
LINE
  8
0
 62
     0
 10
1.199716
 20
0.139056
 11
1.696408
 21
0.635748
  0
LINE
  8
0
 62
     0
 10
-0.502965
 20
-1.740402
 11
0.030063
 21
-1.207374
  0
LINE
  8
0
 62
     0
 10
1.207374
 20
-0.030063
 11
1.740402
 21
0.502965
  0
LINE
  8
0
 62
     0
 10
-0.361063
 20
-1.775277
 11
0.228225
 21
-1.185988
  0
LINE
  8
0
 62
     0
 10
1.185988
 20
-0.228225
 11
1.775277
 21
0.361063
  0
LINE
  8
0
 62
     0
 10
-0.208584
 20
-1.799574
 11
0.484826
 21
-1.106164
  0
LINE
  8
0
 62
     0
 10
1.106164
 20
-0.484826
 11
1.799574
 21
0.208584
  0
LINE
  8
0
 62
     0
 10
-0.043337
 20
-1.811104
 11
1.811104
 21
0.043337
  0
LINE
  8
0
 62
     0
 10
0.138201
 20
-1.806343
 11
1.806343
 21
-0.138201
  0
LINE
  8
0
 62
     0
 10
0.342338
 20
-1.778983
 11
1.778983
 21
-0.342338
  0
LINE
  8
0
 62
     0
 10
0.582767
 20
-1.71533
 11
1.71533
 21
-0.582767
  0
LINE
  8
0
 62
     0
 10
0.906171
 20
-1.568703
 11
1.568703
 21
-0.906171
  0
ENDBLK
  8
0
  0
BLOCK
  8
0
  2
ROCKD
 70
     0
 10
0.0
 20
0.0
  0
INSERT
  8
0
  2
*X6
 10
-10.04
 20
-10.01
  0
CIRCLE
  8
0
 10
0.0
 20
0.0
 40
0.145531
  0
POLYLINE
  8
0
 66
     1
 70
     1
  0
VERTEX
  8
0
 10
-0.001
 20
0.02
  0
VERTEX
  8
0
 10
0.001
 20
0.02
 42
-0.414214
  0
VERTEX
  8
0
 10
0.01
 20
0.011
  0
VERTEX
  8
0
 10
0.01
 20
-0.081
 42
-0.414214
  0
VERTEX
  8
0
 10
0.001
 20
-0.09
  0
VERTEX
  8
0
 10
-0.001
 20
-0.09
 42
-0.414214
  0
VERTEX
  8
0
 10
-0.01
 20
-0.081
  0
VERTEX
  8
0
 10
-0.01
 20
0.011
 42
-0.414214
  0
SEQEND
  8
0
  0
CIRCLE
  8
0
 10
0.0
 20
0.0
 40
0.105531
  0
ENDBLK
  8
0
  0
BLOCK
  8
0
  2
*X6
 70
    65
 10
0.0
 20
0.0
  0
LINE
  8
0
 62
     0
 10
9.935367
 20
9.90885
 11
10.03
 21
10.003483
  0
LINE
  8
0
 62
     0
 10
10.049725
 20
10.023208
 11
10.14115
 21
10.114633
  0
LINE
  8
0
 62
     0
 10
9.931117
 20
9.91344
 11
10.03
 21
10.012322
  0
LINE
  8
0
 62
     0
 10
10.046096
 20
10.028418
 11
10.13656
 21
10.118883
  0
LINE
  8
0
 62
     0
 10
9.927059
 20
9.91822
 11
10.030001
 21
10.021163
  0
LINE
  8
0
 62
     0
 10
10.038837
 20
10.029999
 11
10.13178
 21
10.122941
  0
LINE
  8
0
 62
     0
 10
9.923193
 20
9.923193
 11
10.126807
 21
10.126807
  0
LINE
  8
0
 62
     0
 10
9.919523
 20
9.928362
 11
10.121638
 21
10.130477
  0
LINE
  8
0
 62
     0
 10
9.916054
 20
9.933732
 11
10.116268
 21
10.133946
  0
LINE
  8
0
 62
     0
 10
9.912792
 20
9.939308
 11
10.110692
 21
10.137208
  0
LINE
  8
0
 62
     0
 10
9.909742
 20
9.945098
 11
10.104902
 21
10.140258
  0
LINE
  8
0
 62
     0
 10
9.906916
 20
9.95111
 11
10.09889
 21
10.143084
  0
LINE
  8
0
 62
     0
 10
9.904324
 20
9.957357
 11
10.092643
 21
10.145676
  0
LINE
  8
0
 62
     0
 10
9.90198
 20
9.963851
 11
10.086149
 21
10.14802
  0
LINE
  8
0
 62
     0
 10
9.899901
 20
9.970611
 11
10.079389
 21
10.150099
  0
LINE
  8
0
 62
     0
 10
9.898108
 20
9.977658
 11
10.072342
 21
10.151892
  0
LINE
  8
0
 62
     0
 10
9.896629
 20
9.985017
 11
10.064983
 21
10.153371
  0
LINE
  8
0
 62
     0
 10
9.895498
 20
9.992725
 11
10.057275
 21
10.154502
  0
LINE
  8
0
 62
     0
 10
9.894758
 20
10.000824
 11
10.049176
 21
10.155242
  0
LINE
  8
0
 62
     0
 10
9.89447
 20
10.009375
 11
10.040625
 21
10.15553
  0
LINE
  8
0
 62
     0
 10
9.894715
 20
10.018459
 11
10.031541
 21
10.155285
  0
LINE
  8
0
 62
     0
 10
9.89561
 20
10.028193
 11
10.021807
 21
10.15439
  0
LINE
  8
0
 62
     0
 10
9.897339
 20
10.03876
 11
10.01124
 21
10.152661
  0
LINE
  8
0
 62
     0
 10
9.900209
 20
10.050469
 11
9.999531
 21
10.149791
  0
LINE
  8
0
 62
     0
 10
9.90483
 20
10.063929
 11
9.986071
 21
10.14517
  0
LINE
  8
0
 62
     0
 10
9.912839
 20
10.080776
 11
9.969224
 21
10.137161
  0
LINE
  8
0
 62
     0
 10
9.939806
 20
9.904451
 11
10.03
 21
9.994645
  0
LINE
  8
0
 62
     0
 10
10.05
 20
10.014645
 11
10.145549
 21
10.110194
  0
LINE
  8
0
 62
     0
 10
9.944436
 20
9.900242
 11
10.03
 21
9.985806
  0
LINE
  8
0
 62
     0
 10
10.05
 20
10.005806
 11
10.149758
 21
10.105564
  0
LINE
  8
0
 62
     0
 10
9.949257
 20
9.896224
 11
10.03
 21
9.976967
  0
LINE
  8
0
 62
     0
 10
10.05
 20
9.996967
 11
10.153776
 21
10.100743
  0
LINE
  8
0
 62
     0
 10
9.954271
 20
9.892399
 11
10.03
 21
9.968128
  0
LINE
  8
0
 62
     0
 10
10.05
 20
9.988128
 11
10.157601
 21
10.095729
  0
LINE
  8
0
 62
     0
 10
9.959483
 20
9.888772
 11
10.03
 21
9.959289
  0
LINE
  8
0
 62
     0
 10
10.05
 20
9.979289
 11
10.161228
 21
10.090517
  0
LINE
  8
0
 62
     0
 10
9.964895
 20
9.885346
 11
10.03
 21
9.95045
  0
LINE
  8
0
 62
     0
 10
10.05
 20
9.97045
 11
10.164654
 21
10.085105
  0
LINE
  8
0
 62
     0
 10
9.970516
 20
9.882128
 11
10.03
 21
9.941612
  0
LINE
  8
0
 62
     0
 10
10.05
 20
9.961612
 11
10.167872
 21
10.079484
  0
LINE
  8
0
 62
     0
 10
9.976352
 20
9.879125
 11
10.03
 21
9.932773
  0
LINE
  8
0
 62
     0
 10
10.05
 20
9.952773
 11
10.170875
 21
10.073648
  0
LINE
  8
0
 62
     0
 10
9.982413
 20
9.876347
 11
10.030981
 21
9.924915
  0
LINE
  8
0
 62
     0
 10
10.05
 20
9.943934
 11
10.173653
 21
10.067587
  0
LINE
  8
0
 62
     0
 10
9.988711
 20
9.873806
 11
10.03558
 21
9.920675
  0
LINE
  8
0
 62
     0
 10
10.05
 20
9.935095
 11
10.176194
 21
10.061289
  0
LINE
  8
0
 62
     0
 10
9.99526
 20
9.871517
 11
10.044418
 21
9.920674
  0
LINE
  8
0
 62
     0
 10
10.049326
 20
9.925582
 11
10.178483
 21
10.05474
  0
LINE
  8
0
 62
     0
 10
10.002079
 20
9.869496
 11
10.180504
 21
10.047921
  0
LINE
  8
0
 62
     0
 10
10.009189
 20
9.867768
 11
10.182232
 21
10.040811
  0
LINE
  8
0
 62
     0
 10
10.016619
 20
9.866359
 11
10.183641
 21
10.033381
  0
LINE
  8
0
 62
     0
 10
10.024406
 20
9.865307
 11
10.184693
 21
10.025594
  0
LINE
  8
0
 62
     0
 10
10.032595
 20
9.864657
 11
10.185343
 21
10.017405
  0
LINE
  8
0
 62
     0
 10
10.041251
 20
9.864474
 11
10.185526
 21
10.008749
  0
LINE
  8
0
 62
     0
 10
10.050461
 20
9.864845
 11
10.185155
 21
9.999539
  0
LINE
  8
0
 62
     0
 10
10.060353
 20
9.865899
 11
10.184101
 21
9.989647
  0
LINE
  8
0
 62
     0
 10
10.071131
 20
9.867837
 11
10.182163
 21
9.978869
  0
LINE
  8
0
 62
     0
 10
10.083143
 20
9.871011
 11
10.178989
 21
9.966857
  0
LINE
  8
0
 62
     0
 10
10.097116
 20
9.876145
 11
10.173855
 21
9.952884
  0
LINE
  8
0
 62
     0
 10
10.115233
 20
9.885424
 11
10.164576
 21
9.934767
  0
ENDBLK
  8
0
  0
BLOCK
  8
0
  2
HOUSEO
 70
    64
 10
0.0
 20
0.0
  0
LINE
  8
0
 10
-1.836783
 20
-1.811622
 11
-1.836783
 21
6.540677
  0
LINE
  8
0
 10
-2.036783
 20
6.340677
 11
2.036783
 21
6.340677
  0
LINE
  8
0
 10
0.0
 20
-2.011622
 11
0.0
 21
6.540677
  0
LINE
  8
0
 10
1.836783
 20
6.540677
 11
1.836783
 21
-1.811622
  0
LINE
  8
0
 10
-2.036783
 20
0.0
 11
2.036783
 21
-0.0
  0
CIRCLE
  8
0
 10
0.0
 20
0.0
 40
1.207748
  0
CIRCLE
  8
0
 10
0.0
 20
0.0
 40
1.811622
  0
CIRCLE
  8
0
 10
0.0
 20
0.0
 40
0.603874
  0
CIRCLE
  8
0
 10
0.0
 20
0.0
 40
0.150969
  0
LINE
  8
0
 10
1.836783
 20
-1.811622
 11
-1.836783
 21
-1.811622
  0
ENDBLK
  8
0
  0
ENDSEC
  0
SECTION
  2
ENTITIES
  0
CIRCLE
  8
0
 10
-1.0
 20
-1.0
 40
0.145531
  0
LINE
  8
0
 10
-0.738779
 20
-1.326347
 11
-1.181886
 21
-0.772767
  0
CIRCLE
  8
0
 10
-1.181886
 20
-0.772767
 40
0.145531
  0
LINE
  8
0
 10
-1.0
 20
-0.545534
 11
-1.0
 21
-0.273864
  0
LINE
  8
0
  6
VERDECKT
 10
-1.0
 20
-1.0
 11
-1.0
 21
-1.358058
  0
LINE
  8
0
 10
-1.181886
 20
-0.772767
 11
-1.46369
 21
-0.951455
  0
CIRCLE
  8
0
  6
VERDECKT
 10
-1.0
 20
-0.545534
 40
0.145531
  0
TEXT
  8
0
 10
-0.817918
 20
-0.57613
 40
0.1
  1
A
  7
ROMAN
  0
TEXT
  8
0
 10
-1.440751
 20
-0.806798
 40
0.1
  1
B
  7
ROMAN
 72
     2
 11
-1.350275
 21
-0.806798
  0
TEXT
  8
0
 10
-0.83875
 20
-1.057015
 40
0.1
  1
C
  7
ROMAN
  0
TEXT
  8
0
 10
-0.750795
 20
-1.275955
 40
0.05
  1
normal
  7
ROMAN
  0
TEXT
  8
0
 10
-1.19091
 20
-1.39722
 40
0.05
  1
Drag
  7
ROMAN
 72
     2
 11
-1.012338
 21
-1.39722
  0
ENDSEC
  0
EOF
